<svg xmlns="http://www.w3.org/2000/svg" viewBox="0 0 2000 2000"><defs><style>.cls-1{fill:#fff;}.cls-2{fill:#e6e7e8;}.cls-3{fill:#f9bb23;}.cls-4{fill:#ed1c24;}</style></defs><g id="explotion-5"><path class="cls-1" d="M420.8,1515.48c-12.1,18.87-5.29,44.48-9.45,28.08-1.51-6.24-1-8.72-1.32-8.57a31.9,31.9,0,0,0-7,6.81c-9.22,12-11.79,33.87,3.6,49.88,1.86,1.9,1.67,1.07,1,3.29-4.1,13.49.61,28.45,14.07,37.88,2.75,1.92,8.18,4.49,14.69,6.63a94.72,94.72,0,0,1-5.84-14.16c2.38-1.29,5.91,38.44,62.59,36.89a104.53,104.53,0,0,0,26-4.66,41.82,41.82,0,0,1-6.58-12.65c1.47-.56,4.7,14.37,23.63,21,18.82,6.87,46.12,3.12,75.18-13.69l2.64-.11c32.53.2,83.57-28.3,104.51-57.75,12.35-17,9.54-27.62,9.64-27.61A120.06,120.06,0,0,1,714,1581.2c9.13-9.21,16-17.3,18.85-25.43,3.9-11.4-3.19-18.29-20-16.33,12.83-52.11,45.34-124.79,123.54-241-5.54,3.73-10.39,6.78-14.79,9.39a36.37,36.37,0,0,0-7,5.38c-12.73,12.75-16,19.84-24.41,30.56,6.12-10.51,6.87-16.14,9.24-21.21,1.11-2.48-.32-3.61-3.64-2.9-.42.08-.84.16-1.18.19-3.68.55-9.15,3.52-12.78,6.93-7.47,7-16,15.28-24.71,23.92,12.58-14.2,20.85-24.53,26.29-31.8,1.2-1.59,1.53-3,1.08-3.82-.43-.65,2.27-4.91,1.84-5.59-3.67-5.64-2.86-5.13-18.54,8.74-7.74,6.8-17.38,15.19-28.3,24.51,11-13.76,19.29-25.65,24.81-34,1.64-2.52.87-4.19-1.86-4.35-.81,0-1.62-.08-2.51-.09-8.58,11.56-59.46,63.16-116.78,109.23-57.13,47-120.69,88.5-150.47,101.5C477.73,1498.25,440.89,1482.84,420.8,1515.48Z"/><path d="M604.88,1477.62C630.26,1455,674,1416,710.72,1380.45c36.84-35.19,66.67-66.85,67.13-66.74,1.32-.44-65,71.86-164.08,166.11-19.23,18.15-16.79,14.57-20,13.76C590.18,1492.61,585.08,1495.41,604.88,1477.62ZM465.3,1493.06c12.91,3.13,20.9,9.13,24.79,12.71,1.23-.83,4.52-1.84,11.67-4.61,43.39-15.56,107.15-60.76,158.81-104.3,51.88-43.16,91.67-84.65,92.43-84.2,1.25-.1-77.29,82.5-152.06,139.39-18.22,18-40.4,40.86-68,53.58,17.25,1.38,33.23,5.68,44,13.55,16.5-3.81,32.17-5.34,45.41-4.72,14.05-20.69,88-103.2,136.18-154.71.82-.81,16-16.67,16.07-16.17S759,1360.7,718,1408.81c-46.74,54.61-78.5,93-91.45,106,8.66.77,16.13,2.61,21.87,5.65,4.59-8.09,16.4-23.22,18.16-25.51,38.08-47.31,86.36-97.2,86.63-97.16.9.75-32,37.22-79.4,96.67-12,15.42-18.32,23.91-22.2,28a19.38,19.38,0,0,1,5.2,5.38c.8,1.09.65,1.36,1.41,1.2,1.36-.31,5.22-1.52,19.34-3.32,11.93-1.61,21.53-.8,27.37,2.7,1.62-4.9,4.4-12,8.73-22,23.21-53.5,56.75-107.88,81.35-146.25-4.56,6.66-10.1,14.86-17,25-84.09,122.67-85.26,133.26-91.07,134.69-1.51.34-3.33,2-.71-2.65,14.88-25.71,92.45-134.65,118.86-172.52,14.41-21.88,24.22-35.73,24.92-36,2.61-.31-62.83,88.78-100.71,188.54-8.33,22.89-11.1,31.91-13.24,35.75,17.13-1.67,27.23,5.72,20.06,21.41-.07.19-.18.36-.25.55,5.17,4.87,4.52,18.34-5.2,33.36-20.29,31.14-77.07,69.48-120.62,70.59-43.34,22.17-70.36,13.61-80.81,7.54a30,30,0,0,1-5.87-4.16c-33.8,10.41-64.76,2.91-78.73-11.29-.88-.9-1.75-1.81-2.55-2.79-.17.07-18.17-4.2-26.36-10.42-15.08-10.79-20.59-27.89-16.53-43.3-19.37-22.91-11.94-54.93,8.79-67.37a24.35,24.35,0,0,1,2.68-1.56C415.66,1496.82,440.52,1486.69,465.3,1493.06Zm53.88,12.16c1.84,0,3.61,0,5.49,0a17.22,17.22,0,0,1,2.84-1.7c33.08-16.7,44.21-27.11,58.47-40.21C561,1481.65,537.56,1496.56,519.18,1505.22ZM413.5,1537.41a85.1,85.1,0,0,0-.59,11.31,46.63,46.63,0,0,1-2.81-13.78c-15.75,10.55-21.19,38.23-3.52,56.74,1.86,1.9,1.67,1.07,1,3.29-4.1,13.49.62,28.44,14,37.81,2.76,1.93,8.18,4.5,14.69,6.64a99.16,99.16,0,0,1-5.83-14.17c.62-.15,4.9,14.27,16.05,23.73.16.17.37.28.53.44,14.11,12.09,43.14,17.42,72,8.13a41.69,41.69,0,0,1-6.58-12.65c1.38-.52,4.08,12.07,19.65,19.48.72.34,1.57.69,2.28,1,19,7.47,46.85,4.14,76.68-13.07l2.63-.1c46.79.51,120.74-54.91,114.13-85.36a130.94,130.94,0,0,1-15.53,15.7c11.69-10.93,17.92-19.95,20.28-26.72,5.5-16.07-10.31-19.87-31.71-14-1.91-4.35-2.9-14.55-26.19-12.77-5.48.35-11.6,1-17.85,2-12.25,2-24.71,5.32-33.47,12.08,5.73-4.93,15.38-8.79,23.17-11.19-9.62-12.76-37.46-15-74.76-5.91-19-15.17-49.2-17.64-75.06-12,3.55,6.64,2.83,13.31,3.13,15.69.2,1.15.52.78,0,1.05-.62-.6-.79-1.29-1.44-3.76a33.68,33.68,0,0,0-9.53-16C466.63,1491.07,420.16,1489.14,413.5,1537.41Zm11.68,50c7.49,15,25.66,28.66,46.8,31,8.32,1,17.11.14,23.61-2.44-33.12,5-62.45-16.31-71.89-40-.56-1.22-1.15-2.65-1.62-3.81-.7-1.71-1.29-3.43-2-5.22A41.85,41.85,0,0,0,425.18,1587.38ZM508,1565.81c6,8,16.87,14.47,31.09,15.67,17.22,1.69,36-5.22,47.55-14.71-19,10.27-39.45,14.72-57.86,7.91-14.8-5.64-22.56-16.41-27.08-27.35A30.32,30.32,0,0,0,508,1565.81ZM567.18,1625c5.48,7.56,18.05,12.64,35.34,11.64,22.74-1.16,50.72-12.8,70.51-27-42.45,22.62-80.09,29.37-101.88,13.79a66.06,66.06,0,0,1-7.43-6.3A18,18,0,0,0,567.18,1625Z"/><path class="cls-2" d="M586.61,1566.82c-19,10.26-39.44,14.72-57.86,7.91a43.87,43.87,0,0,1-6.78-3.18c9.06,4.6,23.3,5.07,17.84-2.17C552.24,1574.61,567.28,1571.61,586.61,1566.82Zm-164.92,66c2.76,1.92,8.18,4.49,14.7,6.62a60.77,60.77,0,0,1-2.84-6.07,24.25,24.25,0,0,1-18.18-16c-2,4.17-10.85-2.83-8.81-17.82C404.63,1611.71,409.68,1624.45,421.69,1632.85ZM541.26,1513a112.94,112.94,0,0,0-44.44,1.07,24.23,24.23,0,0,1,2.37,6.65h0c10.81-2.76,16.6-4.73,30.45-1.53C523.36,1515.53,529.09,1511.9,541.26,1513Zm-45.78,103c-18.93-3.83-27.13-3.62-40.23-13.41,9,10.09-10.15,1.36-17.69-6.09A68.44,68.44,0,0,0,495.48,1615.9Zm-90.33-49.13c-.82-3.67.79-15.81,5.87-25a42.67,42.67,0,0,1-.85-6.82c-9.73,6.69-15.39,19.24-14.4,32.66h0C396.19,1561.7,401.61,1555.25,405.15,1566.77Zm0,0a2.52,2.52,0,0,0,.21.64A4.08,4.08,0,0,1,405.15,1566.77Zm45.66-60.17c11.54-2.25,33.07,6.7,47.31,19A33.34,33.34,0,0,0,489,1511c-15.27-13.92-41.3-18.33-58.71-5.78C446.2,1495,459,1502.33,450.81,1506.6Zm221.61,126.67c.86-.55,1.82-1.15,2.64-1.72-1.36.83-2.63,1.61-3.75,2.35ZM728,1566.73c-2,2.39-4.12,4.82-6.57,7.3-3.07,6.87-16.84,37.72-46.22,57.46,3.39-2.11,7.24-4.57,11.13-7C712.35,1606.2,730.8,1583,728,1566.73ZM458,1648.26c8.78,8.08-6,6.28-15.33-3.07a36.65,36.65,0,0,0,3.88,3.78c.15.17.38.27.53.44,14.11,12.08,43.15,17.41,72,8.11a41.63,41.63,0,0,1-3.87-6.23h0C500.7,1657.19,472.09,1658.59,458,1648.26Zm59.22-79.81Zm204.93-80.93Zm-116.46,40.69c8-.06,21.64,2.75,28.47,8.44a105.5,105.5,0,0,1,12.46-4.73c-6.11-8.17-19.8-12-38.42-11.35C620,1521.5,623.82,1527.21,605.73,1528.21Zm45.84-5.82a19.51,19.51,0,0,1,5.19,5.39c.8,1.1.65,1.37,1.41,1.2,1.36-.31,5.22-1.52,19.34-3.32,1.24-.16,2.38-.28,3.53-.4-8.54.52-30.31-.81-8.39-29.5C661.45,1510.26,655.33,1518.41,651.57,1522.39ZM534.44,1665.34c18.29,7.16,44.64,4.42,73.14-11.11h0c-27,9.24-38.77,13.19-53.61,10.14,5.46,4.75-16.56,4.35-26.93-2.89a38.84,38.84,0,0,0,5,2.81C532.91,1664.69,533.62,1665,534.44,1665.34Zm19.16-179.68a304.38,304.38,0,0,1-34.5,19.57c1.84,0,3.61,0,5.49,0a18.19,18.19,0,0,1,2.84-1.69c1.37-.71,2.68-1.35,4-2,8.62-4.42,22.18-15.87,22.18-15.87Zm147.4,56.1c-1.91-4.34-2.9-14.55-26.18-12.76-5.5.36-11.6,1-17.85,2C668.37,1530.43,693.22,1527.8,701,1541.76Zm-74.46-27c8.66.77,16.13,2.62,21.86,5.65,3.12-5.57,9.76-14.48,14.09-20.22-8.88,12.46-40.43,20.55-25.42,3.25h0C632.83,1508.23,629.28,1512.07,626.54,1514.73Zm87.15-8.43q3.48-8.11,7.39-16.28c-11,22.7-29.57,33.88-38.52,35.06,9.61-.75,17.39.26,22.44,3.26C706.59,1523.41,709.39,1516.35,713.69,1506.3Zm-167.52-7.42a2.21,2.21,0,0,0-.58,0,129.08,129.08,0,0,1-12.62,6.66c17.25,1.38,33.22,5.68,44,13.55,16.5-3.8,32.16-5.34,45.41-4.71,11.63-17.34,64.86-77.08,110.1-126.63h0c-13,11.82-86,94.22-109.17,113.85-8.89,3.09-21.21,6.31-40.47,12.56C582.33,1507.57,532.28,1509.13,546.17,1498.88Zm175.76,73.72A68.15,68.15,0,0,0,729,1563C729.11,1563,725.43,1568.26,721.93,1572.6Zm-17.27-31.74c15.52,10.81,17.75,8.05,17.85,16.59,3.09-8.64,11.54-8.8,10.24-2.07C737.56,1540.53,723.88,1536.44,704.66,1540.86Zm25.71,19.92Zm-138.77,70.4a49.27,49.27,0,0,0,5.3.53h0C594.62,1631.44,593,1631.26,591.6,1631.18Zm24.77-7.14c10,1.89-.2,6.55-10.88,7.72,19.42-1,42.58-8.91,67.5-22.14C642,1620.11,633,1624,616.37,1624Z"/><path class="cls-1" d="M1842.09,696c22.24-8,37.66-23.54,28-13.5-3.58,3.82-5.74,5.07-5.42,5.06a78.15,78.15,0,0,0,11-2c17-4.32,37-14.55,40-27.53.33-1.55-.3-1.07,2.42-2,16.44-5.69,28.33-14.47,29.55-24,.23-1.94-.6-5.18-2.36-8.67-4.29,3.53-8.12,6.19-12.49,9.31-3-.61,38.35-20.61,9.91-43.43-7.2-5.5-17.48-8.82-17.57-8.74a127.67,127.67,0,0,1-14.71,9.76c-1.36-.39,16.92-9.8,20.88-21.91,4.27-12.17-7.09-23.54-37.18-29.07-.14-.44-.28-.88-.43-1.32-3-16.79-46.49-30.33-91.8-23.86-26.34,3.74-42.39,13.52-42.33,13.44a144.81,144.81,0,0,1,21-1.35c-13.57.75-25.27,2.14-36.92,6.42-16.33,6-25.51,16.54-21.1,25.77-65.09,32-144.52,77.76-199.34,134.23,4.53.7,8.43,1.44,11.94,2.22a10.45,10.45,0,0,0,5.41,0c9.35-3.14,11.61-7.81,18.34-12.26-5,5.91-5.25,10.91-6.7,14.2-.68,1.63.66,3.8,3.3,5.44.33.21.67.43.94.64,3,2,6.94,2.91,9.38,2,5-1.75,10.81-4.07,16.92-6.77-8.82,5.5-13.88,9.94-17,13.32a2.53,2.53,0,0,0-.12,3c.47.91-.79,3.22-.23,4.16,4.67,7.83,3.91,6.88,13.11,3.63,4.57-1.61,10.33-3.64,17.07-6A51,51,0,0,0,1584,733.35c-.54,1.36.69,3.41,3,5.18.68.52,1.35,1,2.07,1.57,2.58-5.34,26.77-24.17,70.44-38.28,41.62-14.62,102.73-24.51,131.51-23.93C1788.8,694.09,1804.52,710.73,1842.09,696Z"/><path d="M1705.76,665.76c-26.6,7-64.62,20.07-90.9,32.08-27.12,11.88-42.5,22.75-43.35,22.32,1.21.07,28-27,131.16-60,20.58-6,17.5-4.2,18.4-2.27C1722.38,660.19,1726.21,660.06,1705.76,665.76Zm89.1,33.59c-7-5-8.28-11.15-8.41-14.6-1.3.21-4.06,0-10.21-.22-38-2.37-94.41,9.89-129.73,23.8-37.21,13.7-53.36,29-54.7,28.07,0-.24,7.56-8.09,25.41-18.2,17.51-10.07,45.26-22.4,77.67-30.59,17.1-7.3,41.9-16.21,66-15.88-8.74-6.71-14.19-15.92-13.35-26.21-10.92-3.95-19.23-9.75-24.29-16.59-11.44,4.72-41,14.57-68.64,26.22-28.2,11.52-54.46,24.82-72.46,33.5-.69.27-11.9,5.45-11.86,4.91.65-.59,9.23-5.86,46.67-25.6,43.81-22.44,89-37.6,104.83-41.27a23.53,23.53,0,0,1-3.55-15.51c-9.17,3.94-26.14,9.94-28.53,10.89-52.87,18.62-95.59,34.66-95.93,34.14.75-1.06,27.78-14.35,92.78-37.71,17-6.12,27.29-9.42,32.45-10.63a24.39,24.39,0,0,1,3.42-7c.82-1.29,1.13-1.42.73-1.71-.69-.53-3.25-1.57-9.06-8.25-4.93-5.61-6.32-12.17-3.41-18.64-5.87,2.92-14.36,6.94-25.63,12.54-60.6,29.94-103.09,58.94-127.16,78.25,4.43-3.15,10-7.1,17.55-11.94,46.88-29.39,84.36-44.37,104.24-52.67,20.88-8.13,24.16-9.59,25.89-8.33.76.63,3,.33-2.47,2.57C1687.92,598.7,1649.49,613,1618,629a488.14,488.14,0,0,0-69.64,41.76c-13,10.81-19.8,17-20.51,16.71.72-.23,34.68-43.7,144.25-105.07,25.4-13.89,37.5-19.11,42.22-20.86-4.35-9.7,5.12-22.94,27.57-30,.27-.11.52-.16.79-.26,7.18-7.25,27.91-16.88,51.18-20.87,48-8.16,105.73,4,111.34,25.79,40.16,10.24,34.44,27.23,29.2,35.1a29,29,0,0,1-4,4.84c27.25,9.69,32.72,26.13,23.81,38.42-.59.78-1.18,1.57-1.9,2.36.07.06,6.49,9,5.44,14.9-1.59,10.68-15,20.56-33.22,27.14-6,17.44-37.46,31.14-63.79,33.5-1.46.15-3.22.25-3.35.24C1833.12,707.26,1808.13,709.11,1794.86,699.35Zm-26.39-22.85c-1.1-.55-2.12-1.13-3.17-1.76a15.65,15.65,0,0,1-2.73.27c-29.41,1-40.61,4.56-54.67,9.46C1729.86,679.56,1752.06,676.7,1768.47,676.5Zm95.18,8.87c3.23-1.93,6.2-4,9.25-6.11a50.43,50.43,0,0,1-8.29,8.32c20.87-2.21,47.58-14.62,51.13-29.53.33-1.55-.3-1.07,2.42-2,16.44-5.69,28.33-14.46,29.49-23.93.23-1.94-.6-5.18-2.36-8.67-4.46,3.65-8.41,6.38-12.49,9.31-.64-.17,12.59-9,17.65-18,.12-.14.11-.28.23-.42,6.21-11.35-1.29-26-25.48-33.82a128.55,128.55,0,0,1-14.71,9.76c-1.24-.35,14.12-8.32,19.86-19.26.27-.51.51-1.08.78-1.59,4.95-12.52-6-24.37-36.78-30.08l-.42-1.32c-3.46-24.24-87.2-37.5-134.15-10.4a150.57,150.57,0,0,1,22.87-1.31c-16.1.32-29.14,2.85-38.83,6.43-23,8.53-27.08,22.71-16.61,31.31-5,4.46-17,13.61-8.82,25.75a41.89,41.89,0,0,0,7.28,8.41c5.85,5.12,13.42,8.93,23.24,8.2-6.94.86-14.09-1.09-19-3.35-9.24,15.11.45,31,25.67,39.47-2.79,19.06,12.69,31,32.39,34.74,2.37-5.48,7.81-9.7,9.44-11.35.76-.82.29-.68.79-.69-.08.59-.51,1.09-2,2.93-3.8,4.82-5.38,9.35-5.41,13.37C1791.75,701.67,1823,710.5,1863.65,685.37Zm33.5-30.83c8.61-10.44,10.76-23.91,1.19-33.21a30.28,30.28,0,0,0-15.95-7.66c22.75,10.37,19,31.94,5.21,47.54-.68.85-1.51,1.8-2.2,2.58-1,1.14-2,2.26-3.07,3.44A56.77,56.77,0,0,0,1897.15,654.54ZM1823,639.73c4.09-7.29,4.93-15.53-.48-22.16-6.29-8.14-21.35-12-35.86-10.65,18.28,1.53,31.58,7.58,33.9,19.23,1.78,9.48-3.81,19.08-10.33,27.74A48.15,48.15,0,0,0,1823,639.73Zm40.36-62.25c8.38-7.19,12.25-16.18,7.73-24.4-5.79-10.84-25.5-19.14-47.68-21.36,35.58,10,51,25.15,36.57,44.87-1.75,2.54-3.86,4.95-5.87,7.39A56.63,56.63,0,0,0,1863.4,577.48Z"/><path class="cls-2" d="M1786.73,606.87c18.28,1.54,31.59,7.58,33.91,19.24a18.22,18.22,0,0,1,.32,4.7c-.22-6.42-6.47-12.6-11.12-5.56C1809.06,616.75,1799.35,612.37,1786.73,606.87Zm160.92,25.18c.23-1.94-.6-5.18-2.36-8.67-1.85,1.51-3.51,2.84-5.28,4.11,1.93,2,4.6,7.38-4.91,14.51,6.09-1.36,5,5-11.6,12C1937.08,648.39,1946.59,640.52,1947.65,632.05ZM1761.3,663.7c6,6.94,15.37,11.61,26.47,13.66a22.75,22.75,0,0,1,3.21-5.14h0c-8.5-1.52-13.38-1.91-18.85-8.84C1773.06,668,1767.23,668.69,1761.3,663.7Zm121.1-50c5.79,9.57,10.92,12.43,8.87,22.53,5-8.78,7.71,2.89,5.72,9.38C1901.31,633.46,1898,620.84,1882.4,613.73Zm11.81,57.85c-2.53,2.18-14,8.2-25.21,12a47.82,47.82,0,0,1-4.44,4,88.24,88.24,0,0,0,38.29-13.79h0C1897.47,676.7,1887.37,678.71,1894.21,671.58Zm0,0a1.84,1.84,0,0,0,.39-.4A3,3,0,0,1,1894.21,671.58Zm-80.77,22.76c-9.83-1.25-18.73-12.37-18.24-25-3.24,4.43-4.57,8.56-4.61,12.34.35,13.69,15.78,21.93,37.27,18.23C1809.15,702.49,1804.89,695.07,1813.44,694.34ZM1862,517c-.87-.17-1.81-.36-2.72-.49,1.31.28,2.53.54,3.71.74Zm-102.42,10.72c3.46-.45,7-.83,10.59-1,9.81-3.3,57.63-15.58,89-10.19-3.31-.69-7.12-1.44-10.9-2.21C1820.19,510.08,1784.21,513.63,1759.56,527.67Zm183,83c5.39-7.58,11.16-.76,5.56,7.45a22.89,22.89,0,0,0,2.26-3.38c.11-.14.11-.28.23-.42,6.21-11.36-1.3-26-25.49-33.82-2.21,1.7-4.64,3.43-7.15,5.07h0C1931.89,588.75,1947.2,600,1942.57,610.69ZM1820.45,634.6Zm-156-39.28Zm77.34,30.91c-3.46-3.59-6.49-12.37-3.25-20.28a42.78,42.78,0,0,1-8.89-2.84c-6,9.59-4,19.67,4.6,27.77C1730,624.67,1733.47,618.47,1741.84,626.23ZM1718.93,608a24.53,24.53,0,0,1,3.42-7c.82-1.29,1.14-1.43.73-1.71-.69-.53-3.25-1.57-9.06-8.25-.5-.59-.93-1.16-1.37-1.73,2.93,4.8,7.32,17.37-24.6,28.81C1704.12,612.26,1714,609.11,1718.93,608ZM1931,569.47c4.71-12.07-5-23.43-33.23-29.38h0c18.12,8.6,27,12.13,26,20.84,5.88-5.12,10.71,5.51,4.08,14a25.71,25.71,0,0,0,2.4-3.75A16.41,16.41,0,0,0,1931,569.47ZM1737.05,679.16a249.77,249.77,0,0,1,31.46-2.64c-1.09-.55-2.11-1.12-3.16-1.76a15.53,15.53,0,0,1-2.73.27l-3.57.12c-7.85.28-22.08,4-22,4Zm-10-115c-5,4.46-17,13.61-8.81,25.74a41.57,41.57,0,0,0,7.28,8.41C1721.4,592.69,1711.25,580.12,1727,564.11Zm-5.3,62.62a23.59,23.59,0,0,1-3.54-15.51c-6.24,2.76-16.39,6.39-22.7,8.76,13.67-5.13,32.74,4.37,12.77,10.52h0C1713.8,628.76,1718.4,627.48,1721.73,626.73Zm-36.82-41.89q-9.11,4.56-17.8,9c24.56-12.21,41.56-9.58,45-5.41a16.28,16.28,0,0,1-1.51-16.22C1704.66,575.23,1696.19,579.2,1684.91,584.84Zm64.25,87.23a1.11,1.11,0,0,0,.34.18,105.92,105.92,0,0,1,11.33-.48c-8.73-6.71-14.19-15.92-13.34-26.2-10.93-4-19.23-9.75-24.29-16.6-20.58,7.51-84.52,30.79-120.37,49.66h0c5.25-1.17,23.1-10.63,46.39-19.68,22.72-9.17,50.87-17.93,63.61-20.4,6.26,1.74,14.1,4.93,28.06,8.26C1735.7,652.59,1763.08,669.92,1749.16,672.07ZM1768,527.33a111.11,111.11,0,0,0-13.86,2.39C1754.06,529.7,1761.66,528.21,1768,527.33Zm-42.61,35.19c11.73-18.25,9-17.74,20.53-24.29-12.08,4.59-12.41-.93-2.78-5.23C1721.87,541.1,1717.23,554,1725.4,562.52Zm25.48-32Zm114.42,31.4a11.55,11.55,0,0,0-.39-3h0A15.35,15.35,0,0,0,1865.3,561.92Zm-15.21-8.17c1.26-6.49,9.64-4,13.23.8-5-9.29-19.17-16.95-39.92-22.79C1840.33,542.77,1847.56,545,1850.09,553.75Z"/><path class="cls-1" d="M592.09,198.54c-27.13-4.93-53.92,10.54-36.82,1.05,6.46-3.48,9.51-4,9.2-4.14a45.56,45.56,0,0,0-11.6-3.57c-19.1-3.49-45.38,4.2-57.47,22.39-1.45,2.16-.53,1.67-3.6,2.08-18.64,2.66-34.91,13.11-42.16,26.54-1.49,2.76-2.91,7.6-3.76,12.94,5.87-4.08,10.87-7,16.67-10.26,1.54.75-45.11,21.77-36.62,58a36.19,36.19,0,0,0,7.69,14.95,115.54,115.54,0,0,1,17.38-9.4c.73.68-19.31,8.78-29.53,24.09-10.56,15.33-8.62,30.94,8.14,43.2-.17.55-.34,1.11-.52,1.66-7.84,21.2,12.36,42.49,42.58,49a101.4,101.4,0,0,0,33.16,1.5A78.27,78.27,0,0,1,492,422.1c8.32,4.06,15.81,7.17,25.21,8.32,13.16,1.53,25.7-1.9,30.57-11.33,30.06,4.53,63.72,14.84,96,38.54,32,23.69,62.61,60.75,79.12,118.36.17-4.55.4-8.47.69-12a26.59,26.59,0,0,0-.27-6.52c-2.38-14.12-5.7-20.39-9.65-31,4.8,9.47,8,13.72,10.24,18.26,1.08,2.2,2.35,2.44,3.29.49a5,5,0,0,1,.37-.66c1.18-2,1.65-6.6,1-10.65a276.14,276.14,0,0,0-6-27.82c5.06,15.27,8.06,26.3,10.21,33.95.46,1.68,1.13,2.79,1.83,3.16s1.9,4.55,2.45,4.82c4.58,2.18,4.24,2.19,2.66-15.64-.85-8.78-2.15-19.66-4.17-31.81,5.1,14.8,8.81,27.34,11.21,36.15.73,2.64,2,3.35,3.24,1.8.37-.45.74-.92,1.13-1.45-2.48-12.83-10.47-77.87-39.88-136.69C684.5,340.24,636.34,286.22,615,263,633.43,248.89,639.62,207.49,592.09,198.54Z"/><path d="M654.34,356.29c21.34,21.91,48.61,65.23,63.59,106.2,16.1,40.46,19.9,78.56,20.26,78.42-2.48,2.72-4.6-88.57-88.08-178.17C633.6,346,636.7,348.52,638.31,346S638,338.9,654.34,356.29Zm-19.88-121.8a36.77,36.77,0,0,1-9.05,25c1.15,1,2.92,3.78,7,9.87,25.39,35.67,67.45,94.12,89.08,150.37,23.9,55.16,27.36,108.11,27.84,107.73-.68.58-2.9-25.18-13.59-59.07-10.27-34-29-76.19-53-111.32-15.53-18.26-38.38-37.87-53.55-60.27-1.42,14.64-7.79,27.3-18.45,35.32,2.57,12.48,1.41,23.92-2.37,33,10.65,5.53,35.93,23.44,57.49,49.5,22.08,25.64,40.44,59.44,49.35,87.1.43.85,5.59,18.21,5.09,17.93-1.3.22-2.73-19.75-30-65.46-32.46-51.36-71.44-76.37-83.28-86.26a35.79,35.79,0,0,1-12.5,14c8.55,3.51,22.54,13.19,24.5,14.77,43.53,31.67,67.56,82,67,81.88-1.8.85-16.67-36.81-68.84-77.28-13.79-10-22.3-14.66-26.11-17.49a36.74,36.74,0,0,1-8.12,2.88c-1.58.43-1.86.33-1.9.81-.08.84.35,3.41-2.34,12.05A24.66,24.66,0,0,1,565,415.17a184.39,184.39,0,0,1,23.3,7.28c55.08,20.38,92.74,62.14,111.12,95.74-3.18-5.91-7.32-13.05-13-21.57-36.1-50.81-67.35-68.77-83.83-78.75-17.39-9.3-20-10.62-20-12.32.15-.92-1.24-2.18,3.48-.14,13,5.47,44.38,24.4,69,50.64,25.5,25.55,44.24,58.41,51.58,75.88,9.5,19.9,13.08,33.81,13.06,34.17-.43,3.11-22.52-95.38-127.2-133.72-23.56-8.29-34.14-9.75-38-11.27-5.44,9.61-20,14.24-37.18,11.07l-.61-.11c-9.06,3.06-26.85,3.87-42.76,1.08-32.23-6.26-62-27.21-53.65-54.92C399.09,359.52,412,338.61,421,329a53.75,53.75,0,0,1,6-5.63c-14.07-17.34-9.24-40.62,5.9-56.66,1-1,2-2,3.06-3,0-.07.38-14,5-22.44,8.14-15.22,26.35-27.52,47.36-31.27,17.53-24.36,58-33.49,84-19.11a35.34,35.34,0,0,1,3.22,1.83C610.54,186.78,634.92,209.4,634.46,234.49ZM629.26,285c.15,1.58.23,3.11.25,4.71a13.18,13.18,0,0,1,2.07,2.33c19.79,27.5,29.12,37.56,41.65,51C657.09,319.89,640.45,300.17,629.26,285Zm-65.79-85.7A131.12,131.12,0,0,0,550,202.73a65.16,65.16,0,0,1,14.54-7.24c-20.73-10.25-55.27-2.22-69.17,18.78-1.45,2.16-.53,1.67-3.6,2.08-18.64,2.66-34.91,13.1-42.09,26.5-1.48,2.76-2.91,7.6-3.76,12.94,6.1-4.2,11.25-7.15,16.68-10.25.39.32-16.73,9.64-26.55,21.45-.19.18-.27.38-.46.55-12.37,15.06-14.92,36.12-2,51a115.73,115.73,0,0,1,17.38-9.4c.69.67-16.25,7.42-27.16,20.83-.51.61-1,1.31-1.54,1.92-11.32,15.71-9.92,31.86,7.23,44.44-.17.56-.35,1.11-.52,1.66-10.89,30.23,32.37,56.44,75.79,50.44a80.79,80.79,0,0,1-13.91-7.11,73,73,0,0,0,26.33,9c18.52,2.28,31.2-5.56,32.51-18,6.24-1.14,19.86-.79,25.92-14.74A48.65,48.65,0,0,0,579,386.41c1.31-7.74.56-16.07-5.8-21.88,4.81,3.8,7.07,10.25,7.78,15.33,18.24-5.3,28.92-23.52,22-51.73,20.39-14.15,24-39.73,13.6-61.73-7.32,3.94-15.41,4.21-18.23,4.83-1.36.33-.87.54-1.25.16.64-.61,1.45-.85,4.32-1.75,7.54-2.37,13.3-6,17.47-10.53C640.22,237.27,623,187.84,563.47,199.28Zm-54.66,27.21c-15.57,11.38-27.05,29.72-26.39,45.29.22,6.2,2.5,12,6.58,15.71-9.57-21.17,8.64-50.13,33.27-66.34,1.26-.88,2.76-1.86,4-2.64,1.79-1.16,3.6-2.25,5.48-3.43A69.54,69.54,0,0,0,508.81,226.49ZM555,283.7c-9.57,6.13-17.24,15.49-19.11,25.85-2.52,12.62,4.37,24.28,14.72,31.31-10.26-12-14.44-25.27-5.92-40,7-11.86,19.7-20,32.68-25.4A55.54,55.54,0,0,0,555,283.7Zm-79.14,55.15c-11,5.78-19.75,15.69-22.13,26.51-3.23,14.33,4.34,28.35,16.41,37.3C455,381.85,453.38,360,477.57,341c3-2.4,6.27-4.51,9.48-6.64A53,53,0,0,0,475.88,338.85Z"/><path class="cls-2" d="M550.57,340.88c-10.26-12-14.45-25.26-5.93-40a40.15,40.15,0,0,1,3.92-5.58c-5.49,7.59-6.52,17.82,2.86,12.76C544.45,317.92,547.33,328.07,550.57,340.88ZM449.67,243c-1.49,2.76-2.91,7.6-3.76,12.94,2.52-1.75,4.78-3.26,7.11-4.65-.21-3.26,1-11.73,14.07-19.61-6.11.5-.95-9,18.54-14C469.66,221.4,456.13,231,449.67,243Zm171,61c3.31-11.84,2-25.38-3.84-37.44a34.64,34.64,0,0,1-7.53,2.93h0c4.53,8.81,7.42,13.69,4,25.34C617.35,289.28,622,293.88,620.64,303.93ZM489,287.4c2.92-14.51.92-20.27,10.39-33.16-10.76,10-4.09-6.78,2.57-15.16C488.94,254.5,482.57,272.69,489,287.4Zm35.8-84.26c3.95-2.08,19.12-5.54,32.34-4.45a59.74,59.74,0,0,1,7.4-3.14c-12.8-6.12-30.54-5.8-45.76.53h0C526,193.94,536.67,195.85,524.84,203.14Zm0,0a3.4,3.4,0,0,0-.67.42A6.22,6.22,0,0,1,524.84,203.14Zm89.75,20.61c6.8,10.33,1.79,31.89-11.28,45.44a37.91,37.91,0,0,0,15.87-10c14-15.19,11.21-42-11.07-55C626.62,216.56,622.11,230.57,614.59,223.75ZM437,408.93a15.76,15.76,0,0,0,1.41,1.12c-.65-.59-1.26-1.14-1.88-1.61Zm67.92,19.55c-2.25-.91-4.5-1.87-6.69-3-7.82-1.44-43.34-3.72-59.78-15.39,1.66,1.48,3.58,3.13,5.44,4.83C458.82,425.67,481.58,431.52,504.93,428.48ZM439.78,274.31c-9.16,9.43-9.49-1,.36-11.58a52.85,52.85,0,0,0-4,4.32c-.19.17-.27.37-.45.55-12.37,15-14.93,36.11-2,51,2.73-1.79,5.66-3.52,8.6-5.09h0C434.12,306.26,429.23,288.3,439.78,274.31Zm112.51,16.93ZM607,430.5Zm-11.5-77.74c-1.4,5.64-7.9,14.74-16.77,19A30.37,30.37,0,0,1,581.1,380c11.76-3.47,20.08-12,23.06-25.17C600.61,362.93,593,365.28,595.45,352.76Zm-4.17,30.94a36.74,36.74,0,0,1-8.12,2.88c-1.58.43-1.86.32-1.89.81-.09.83.35,3.42-2.35,12.05-.24.75-.5,1.44-.76,2.14,2.32-4.71,11.63-19.27,38-1.31C603.09,390.91,595,386.44,591.28,383.7ZM422.4,331.88c-10.86,15.11-10,30.61,5.28,42.91h0c-7-13.85-11.31-19.69-5.3-30.64-7.23,5.58-4.46-8.86,5.69-18.74a52.05,52.05,0,0,0-4.1,4.46C423.37,330.61,422.87,331.22,422.4,331.88ZM651.76,314c-8.49-10.94-16.37-20.66-22.51-29.12.15,1.58.23,3.11.25,4.71a14.48,14.48,0,0,1,2.07,2.33c.86,1.14,1.64,2.22,2.42,3.31,5.41,7.07,17.84,18.71,17.77,18.77ZM549.84,412.31c6.24-1.14,19.85-.78,25.91-14.73a48.17,48.17,0,0,0,3.38-11.07C576.48,393.88,570.94,408.46,549.84,412.31Zm57.3-44.47a35.92,35.92,0,0,1-12.51,14c5.84,2.44,14.41,7.72,19.69,11.36-11.47-7.18-12.9-28.86,3.49-17.08h0C613.3,372.67,609.64,369.93,607.14,367.84Zm-18.69,54.64q8.26,3.12,16.09,6.9C582.84,419,576,408.09,577.83,402.5a24.74,24.74,0,0,1-12.72,12.71A185.29,185.29,0,0,1,588.45,422.48Zm48.49-114.83a1.29,1.29,0,0,0,0-.48c-2.69-3.42-5.32-6.89-7.61-10.42-1.43,14.64-7.8,27.29-18.47,35.31,2.58,12.49,1.42,23.93-2.37,33,19.11,8.09,72.58,55.41,94.84,107.24h0c-2.15-6.53-14.27-30.72-31.73-53-16.9-22.69-39.14-43.49-48.34-52.39-1.59-6.56-2.54-15.63-7.28-30.3C624.82,337.06,626.12,296.73,636.94,307.65Zm-137,118a64.71,64.71,0,0,0,9.44,3.13C509.41,428.8,504.14,427.14,499.93,425.62Zm49.54-11.2c-20.51,8.66-18.31,9.91-29.52,10.29,10,1.4,6.08,6.09-2.21,5.65C535,432.31,547,425.53,549.47,414.42Zm-37.73,14.93Zm-48.12-72.74a27.87,27.87,0,0,0-1.77,3.6h0A35.4,35.4,0,0,0,463.62,356.61Zm4.5,13.94c-5.23,6.92-8.95,1.73-8.17-4.79-2.92,12.23,1.4,24.52,10.26,36.87C467.1,385.84,463.76,381.19,468.12,370.55Z"/><path d="M1550,1020.31h0c-289.66-75.89-316.1-137.91-154-285.2-147.38,71.54-222.11,78.45-240.57,17.55-9.67-31.9-3.91-82.4,15-152h0q-16.12,27.27-30.63,48.49c-13.66,19.93-26.36,35.9-38.39,47.87-63.14,62.85-107.62,16.07-173.08-140q-6.31-15.07-12.91-31.49-.42,18.65-.91,35.6c-1.9,64.45-5.19,111.1-16.13,140.75-11.42,31-31.19,43.42-66.43,38.24-37.89-5.58-93.66-31.52-176.17-76.66,32.68,38.12,57.51,71.3,73.89,100.35,39.58,70.22,29.72,116.31-38.42,149.58-41.78,20.41-105.46,36-193.09,49.37,178.78,22,230.93,42.24,186.61,89.62-27.49,29.4-92.09,69.24-186.6,126.45,125.38-43.64,220.47-58.67,287-45.44,62.16,12.37,99.31,49.43,112.79,110.9,8.09,36.93,7.65,82.66-1,137.15,12.29-29.21,23.72-54.94,34.5-77.18,38.68-79.78,68.85-114.27,99.16-100.94,13.69,6,27.42,21.81,42,47.59s29.92,61.55,46.92,107.55c12.78-222.2,98.26-276.72,430.68-179.63h0c-137-82.89-211.1-121.38-200.54-139.9C1357.9,1024.09,1421,1022.09,1550,1020.31Z"/><path d="M1556,1173c-25.55-15.47-49.13-29.52-69.94-41.92-42-25-75.09-44.73-97.2-59.87-28-19.21-30.4-26-30.53-27.39.38-.48,2.58-2.75,11.72-5.06,8.41-2.13,20.51-3.79,37-5.08,31.17-2.44,75-3.42,145-4.39l18.94-.26-15.76-15.75h-2.28c-160.73-42.18-234-79.08-244.83-123.31-8.54-34.78,20.8-80.41,95.13-148l41.15-37.39-50,24.27c-103.74,50.36-170.51,67.69-204.15,53-12.42-5.44-20.69-15.43-25.27-30.55-8.88-29.28-4-77.54,15-147.54l2.73-10.1h-15l-2.33,3.93c-10.89,18.42-20.81,34.13-30.34,48-13.74,20-26,35.33-37.43,46.72-19.33,19.24-36.23,27.11-51.72,24-31-6.14-63.45-54.43-108.34-161.46-4.15-9.91-8.48-20.47-12.87-31.38L910,487.31l-.88,39c-.33,14.6-.6,25.56-.9,35.55-1.9,64.3-5.18,109.85-15.65,138.22-10.32,28-27.06,37.6-57.75,33.09-34-5-84.3-27-173.5-75.77l-38.41-21,28.5,33.24c33.68,39.29,57.56,71.69,73,99.07,20.06,35.58,26.42,63.77,19.45,86.18-6.35,20.4-24.15,37.51-54.41,52.28C649.82,926.53,589.19,942,498.68,955.81l-57.35,8.76,57.58,7.09c67.62,8.33,113.35,16,143.91,24.15,29.77,7.94,46.58,16.69,50,26,2.27,6.26-1.81,15-12.13,26.06-26.35,28.18-90.32,67.81-184.9,125.07l-65.13,39.42,71.9-25c123-42.82,218.15-58,282.77-45.15,58.79,11.7,93.64,46,106.54,104.76,7.78,35.54,7.4,80.68-1.13,134.18l-10.44,65.49L906,1385.5c12.83-30.47,24-55.59,34.33-76.79,37.62-77.6,65-107.55,88.74-97.11,11.72,5.16,24.58,20,38.22,44.2,13.78,24.4,29,59.2,46.39,106.39l13.29,36,2.2-38.27c5.86-101.93,27.58-160.87,70.42-191.11,58.68-41.41,163.36-35.82,350,18.7l1.1.32h29.83Zm-365.66-17.25c-25.07,17.7-43.36,43.43-55.9,78.66-8.61,24.18-14.7,53.57-18.44,89.19-12.61-31.71-24.08-56.63-34.79-75.61-15.6-27.64-30.55-44.31-45.72-51-18.17-8-36.82-2.15-55.45,17.35-16.28,17-33.48,44.83-54.13,87.42-4.27,8.82-8.71,18.31-13.35,28.55,2-32.88.34-61.93-5.09-86.74-14.21-64.77-54.26-104.14-119.05-117a272.53,272.53,0,0,0-53.31-4.86c-47.77,0-105.21,9.9-173.43,29.87,65.6-40.41,108.72-69.25,130.66-92.71,15-16,20-29.89,15.49-42.44-5.5-15.15-24.28-26.25-60.89-36-22.45-6-52.7-11.7-93.26-17.56,64-11.88,110-25.24,142.81-41.25,34.44-16.81,54.93-37.06,62.67-61.91,8.35-26.84,1.55-59.15-20.79-98.79-11.56-20.5-27.58-43.59-48.61-70,69.15,36.36,111.78,53.6,142.76,58.17,38.25,5.62,62.12-8.17,75.1-43.39,11.09-30.06,14.59-76.28,16.55-141,22.59,53.56,41.35,90.81,58.91,117,20.32,30.35,39.25,46.36,59.6,50.39,21.09,4.17,42.72-5.12,66.1-28.4,12.17-12.1,25-28.13,39.35-49,1.57-2.29,3.15-4.62,4.74-7-9.9,48.25-10.89,83.25-3.31,108.28,6,19.6,17.44,33.25,34.18,40.57,20.23,8.84,48,8.57,84.93-.85,25-6.39,54.38-17,88.91-32.13-54,55.12-73.68,95.22-65.08,130.24,6.76,27.52,30.49,50.72,74.7,73,31.25,15.76,72.88,31.12,128.79,47.41-105.07,2.06-142.56,5.9-151.62,21.79-8.34,14.62,9.5,30.1,30,44.65,22.53,16,58.26,37.25,103.49,64.2l19.53,11.64C1340.3,1115.59,1246.94,1115.76,1190.34,1155.7ZM1556,1173c-25.55-15.47-49.13-29.52-69.94-41.92-42-25-75.09-44.73-97.2-59.87-28-19.21-30.4-26-30.53-27.39.38-.48,2.58-2.75,11.72-5.06,8.41-2.13,20.51-3.79,37-5.08,31.17-2.44,75-3.42,145-4.39l18.94-.26-15.76-15.75h-2.28c-160.73-42.18-234-79.08-244.83-123.31-8.54-34.78,20.8-80.41,95.13-148l41.15-37.39-50,24.27c-103.74,50.36-170.51,67.69-204.15,53-12.42-5.44-20.69-15.43-25.27-30.55-8.88-29.28-4-77.54,15-147.54l2.73-10.1h-15l-2.33,3.93c-10.89,18.42-20.81,34.13-30.34,48-13.74,20-26,35.33-37.43,46.72-19.33,19.24-36.23,27.11-51.72,24-31-6.14-63.45-54.43-108.34-161.46-4.15-9.91-8.48-20.47-12.87-31.38L910,487.31l-.88,39c-.33,14.6-.6,25.56-.9,35.55-1.9,64.3-5.18,109.85-15.65,138.22-10.32,28-27.06,37.6-57.75,33.09-34-5-84.3-27-173.5-75.77l-38.41-21,28.5,33.24c33.68,39.29,57.56,71.69,73,99.07,20.06,35.58,26.42,63.77,19.45,86.18-6.35,20.4-24.15,37.51-54.41,52.28C649.82,926.53,589.19,942,498.68,955.81l-57.35,8.76,57.58,7.09c67.62,8.33,113.35,16,143.91,24.15,29.77,7.94,46.58,16.69,50,26,2.27,6.26-1.81,15-12.13,26.06-26.35,28.18-90.32,67.81-184.9,125.07l-65.13,39.42,71.9-25c123-42.82,218.15-58,282.77-45.15,58.79,11.7,93.64,46,106.54,104.76,7.78,35.54,7.4,80.68-1.13,134.18l-10.44,65.49L906,1385.5c12.83-30.47,24-55.59,34.33-76.79,37.62-77.6,65-107.55,88.74-97.11,11.72,5.16,24.58,20,38.22,44.2,13.78,24.4,29,59.2,46.39,106.39l13.29,36,2.2-38.27c5.86-101.93,27.58-160.87,70.42-191.11,58.68-41.41,163.36-35.82,350,18.7l1.1.32h29.83Zm-365.66-17.25c-25.07,17.7-43.36,43.43-55.9,78.66-8.61,24.18-14.7,53.57-18.44,89.19-12.61-31.71-24.08-56.63-34.79-75.61-15.6-27.64-30.55-44.31-45.72-51-18.17-8-36.82-2.15-55.45,17.35-16.28,17-33.48,44.83-54.13,87.42-4.27,8.82-8.71,18.31-13.35,28.55,2-32.88.34-61.93-5.09-86.74-14.21-64.77-54.26-104.14-119.05-117a272.53,272.53,0,0,0-53.31-4.86c-47.77,0-105.21,9.9-173.43,29.87,65.6-40.41,108.72-69.25,130.66-92.71,15-16,20-29.89,15.49-42.44-5.5-15.15-24.28-26.25-60.89-36-22.45-6-52.7-11.7-93.26-17.56,64-11.88,110-25.24,142.81-41.25,34.44-16.81,54.93-37.06,62.67-61.91,8.35-26.84,1.55-59.15-20.79-98.79-11.56-20.5-27.58-43.59-48.61-70,69.15,36.36,111.78,53.6,142.76,58.17,38.25,5.62,62.12-8.17,75.1-43.39,11.09-30.06,14.59-76.28,16.55-141,22.59,53.56,41.35,90.81,58.91,117,20.32,30.35,39.25,46.36,59.6,50.39,21.09,4.17,42.72-5.12,66.1-28.4,12.17-12.1,25-28.13,39.35-49,1.57-2.29,3.15-4.62,4.74-7-9.9,48.25-10.89,83.25-3.31,108.28,6,19.6,17.44,33.25,34.18,40.57,20.23,8.84,48,8.57,84.93-.85,25-6.39,54.38-17,88.91-32.13-54,55.12-73.68,95.22-65.08,130.24,6.76,27.52,30.49,50.72,74.7,73,31.25,15.76,72.88,31.12,128.79,47.41-105.07,2.06-142.56,5.9-151.62,21.79-8.34,14.62,9.5,30.1,30,44.65,22.53,16,58.26,37.25,103.49,64.2l19.53,11.64C1340.3,1115.59,1246.94,1115.76,1190.34,1155.7Zm756.11-75.14-.06-.13c-5.07-10.16-14.68-15.84-22.4-20.41l-.44-.25c-14.64-8.08-29.94-13.63-43.13-18.21l-.1,0c-59.07-19.64-120.84-31.83-174.13-41.72-7.26-1.32-14.63-2.62-22.16-3.92,33.37-4.85,67.65-10.25,101.45-16.59l3-.58c26.71-5.22,54.34-10.61,80.8-19.91l1.45-.56c9.66-3.74,27.63-10.71,28.62-25.94a19.53,19.53,0,0,0-4.69-13.82l-1.3-1.43-.28-.29a32.66,32.66,0,0,0-7.16-5.25c-1.12-.67-2.16-1.17-3.08-1.61l-3.22-1.41-.23-.09c-14.2-5.6-28.56-8.14-42.45-10.61l-1.57-.27c-86.84-12.75-173.28-15.66-246.39-16.83h-.72l-.71.12c-19.94,3.27-36.89,6-51.3,8.19,14.8-3.77,32.37-8.15,53.23-13.24l.84-.2.77-.37c41-19.9,88.15-43.71,130.13-74.44l.15-.12c11.11-8.56,22.68-18,31.26-30.53,11.82-17,10.41-36.58-3.5-48.69l-.13-.11c-13.3-11.08-31.23-12.63-43.1-13.65h-.2c-27.18-1.66-53.55,1.2-78.3,4.27-32.3,4.34-66,10.36-104.36,18.69,47.34-51.86,70.8-92.07,71.57-122.51.65-23.52-14-42.94-37.42-49.47l-.1,0c-29.71-7.86-74.06-.32-131.82,22.4-44.56,17.53-89.61,41.12-123.31,60.19,2.61-18.84,4.32-37.48,5.09-55.61,1.1-28.28.41-70.74-9.2-112.38-10.27-44.56-28.36-77.95-53.84-99.3-32.58-26.66-75.15-27-113.93-.89-32.29,22.14-60.78,56.18-88.9,106.41C1022.68,436,995,381.07,954.85,346.14c-15.58-13.35-33-21.6-50.22-23.85-19.3-2.52-38.08,2.57-54.29,14.71-16.65,12.4-30.29,31.29-41.69,57.72l-.07.19c-22.26,55.43-31.47,123.21-28.14,207.22l.06,1.61.69,1.47.32.68c-98.23-79-167.73-113-212.36-104.09-17,3.21-32,14.65-39.32,29.88-14.44,30.35-4.59,66.78,7,98.4l.05.16c11.41,29.37,26.72,59.28,46.57,90.92-32.45-11.26-71-24.35-109.7-36.6-37.62-11.67-76.51-23.73-116.63-30.87l-.11,0c-11.27-1.85-24.51-3.62-37.25-2.84a72.52,72.52,0,0,0-7.23.78l-.83.12-2.83.62a48.27,48.27,0,0,0-9.29,2.89,34.69,34.69,0,0,0-21,39.14c4.64,23.1,27.62,43.76,44.4,58.85l.16.14c23.19,19.8,49.28,39.39,80.72,60.53-151.89-11.81-248.38-3.78-287,23.91l-.23.17c-13.93,10.78-17.18,22.74-17.46,30.87-.45,13.32,6.39,26.95,19.26,38.4,10.49,9.6,22.58,16.76,32,22,29.33,15.84,60.58,26.94,87.33,35.72,29.62,9.51,61.43,18.26,96.51,26.53-34.4,7.87-65.93,16.15-95.62,25.09l-.14,0c-1.54.5-3.43,1.09-5.63,1.78-56.08,17.59-121.74,41.8-131.82,73.1-2.85,8.85-1.17,17.79,4.87,25.84l.27.34c9.58,11.42,29.82,19.39,61.89,24.36,25.52,4,59,6,99.62,6.2,56.57.21,117.22-3.25,166.19-6.81q-6.44,3.69-12.66,7.37c-53.25,32-117.51,74.14-142,116.34l-.08.14c-5.91,10.68-7.71,20.94-5.18,29.67,2.06,7.14,7,13,14.35,17.06,10.59,5.72,22.81,6.42,33.38,6.34a197,197,0,0,0,21.22-1.52c21.48-2.63,42.31-7.32,59.91-11.58,59.33-14.85,117.07-33.34,175.41-52.9-9.52,12.09-18,23.73-25.77,35.21-11.22,16.87-23.81,37.28-32.09,60.66-4.22,11.75-10,34.1-1.4,51.78,4.52,9.25,12.18,15.72,22.77,19.2l.18.06c32.76,9.94,79.2-12.93,109.92-28.06l2.46-1.21c39.53-20.23,77.79-43.65,113.26-65.94,6.23-3.93,12.7-8,19.78-12.58a402.89,402.89,0,0,0,5.78,86.43c8.31,45.13,27.34,105.66,70.79,137.78,14.91,10.94,32.23,16.83,49.25,16.83,1.58,0,3.15,0,4.72-.15,37.45-2.32,72.11-28.46,105.86-79.88l0,1.77,14.32-25.63.26-.46c4,5.55,7.94,10.8,12,15.9,18.25,22.44,43.81,49.81,79.82,62.39a96.09,96.09,0,0,0,31.87,5.54c23.31,0,46-8.88,65.06-26,31.53-29,51.6-73.23,59.68-131.47a343,343,0,0,0,1.15-76.75c43.34,21.2,89.55,43.3,137,63.85,31.79,13.55,63.11,26.46,96.58,35.54l.1,0c11.23,2.89,24.56,5.88,38.21,6.22,11.45.44,22.21-2.11,30.31-7.19,10-6.25,15.83-16,16.93-28.07V1368c.95-12.76-3.86-24.14-8.15-32.64l-.06-.12c-9.09-17.24-21.53-32.16-32.54-44.85q-2.55-2.88-5.19-5.79c44.23,12,97.45,24.67,152.41,32l.12,0c21.16,2.48,43.86,4.41,66.62,1.81,9.56-1.21,22-3.49,33.23-10.44,16-9.81,23.13-27.18,18.67-45.34l0-.13c-5.69-21.57-21.66-37.86-36.18-51.43l-.1-.1c-23.65-21.33-49.91-37.84-70.17-49.86-17.75-10.4-36.31-20.32-56.13-30,26.46.72,51.23,1.13,75,1.24h.12c3.62,0,8,0,13-.06,82.39-.27,161.62-3.4,183.28-24.29a25.85,25.85,0,0,0,6.75-10.69A23.11,23.11,0,0,0,1946.45,1080.56Zm-13.88,11.83a9.89,9.89,0,0,1-2.59,4c-4.64,4.48-20.44,12.62-74.11,16.84-35.27,2.78-74.62,2.91-98.14,3-5,0-9.44,0-13.07.06-34.94-.16-72.12-1-113.65-2.47l-41.59-1.5,38.07,16.81a879.54,879.54,0,0,1,90.16,45.7c19.58,11.61,44.95,27.55,67.53,47.92,13.45,12.57,26.94,26.3,31.56,43.71,2.75,11.3-1.55,21.69-11.54,27.83-8.66,5.34-18.89,7.18-26.75,8.17-21,2.41-42.6.56-62.78-1.81-66-8.77-129.79-25.56-178-39.22l-29.22-8.28,21.35,21.6c9,9.12,17.05,17.69,24.52,26.13,10.35,11.94,22.09,26,30.38,41.71,3.55,7,7.08,15.39,6.45,24.12-1.88,20.22-24,20.91-30.74,20.64h-.12c-12-.29-24.25-3-34.61-5.7-32.46-8.81-63.2-21.49-94.41-34.79-52-22.5-102.53-46.93-149.45-70l-13.55-6.65,2.1,14.94a327.55,327.55,0,0,1,.58,87.17c-7.54,54.39-25.93,95.37-54.59,121.75-23.19,20.85-52.67,27.13-80.87,17.23-32.23-11.26-55.78-36.58-72.65-57.34-6.31-7.88-12.4-16.23-18.61-25.55l-5.68-8.5c-.73-29.85-1.46-53.88-2.17-71.65-.49-12.51-1-22.16-1.47-28.67-.27-3.59-.53-6.27-.81-8.18-1.13-7.9-5.39-9.56-8.67-9.52-7.43,0-8.41,7.58-8.73,10.07-.29,2.19-.56,5.26-.83,9.4-.5,7.52-1,18.65-1.49,33.07-.85,25.24-1.71,61.22-2.54,107-31.28,48.41-62.34,72.92-95,74.94-14.56.94-30.42-4-43.47-13.59-39.23-29-56.75-85.5-64.53-127.74a386.79,386.79,0,0,1-4.62-98.22l1.29-16.15L792,1289.46c-12.58,8.13-23,14.81-32.9,21-35.13,22.08-73,45.26-112,65.21l-2.29,1.13C618.13,1390,573.44,1412,546.72,1404c-6.38-2.11-10.74-5.71-13.31-11-4.42-9-3.66-23.39,2.09-39.38,7.71-21.78,19.67-41.12,30.32-57.14A629.08,629.08,0,0,1,608.21,1241l18.64-22-27.3,9.24c-67.07,22.71-132.88,44.5-200.49,61.43-17.1,4.13-37.37,8.7-58,11.23a182.56,182.56,0,0,1-19.46,1.4c-8.48.07-18.2-.41-25.55-4.39-3.59-2-5.76-4.41-6.64-7.45-1.3-4.47,0-10.65,3.77-17.41,25.57-44,106-92.38,136.28-110.55,14-8.25,28.81-16.62,44.14-24.86l33.64-18.1-38.07,3.08c-52.4,4.24-130.32,9.84-201.37,9.57-111.48-.42-141.33-15.57-149.17-24.68-2.84-3.86-3.55-7.31-2.31-11.15,2-6.27,11.39-19.46,51.46-37.34,26.21-11.69,54.64-20.61,69.92-25.4l5.66-1.79c39.11-11.77,81.48-22.39,129.53-32.47l37-7.75-36.93-7.9c-48.9-10.46-91.5-21.6-130.18-34-27.35-9-56.53-19.38-84.61-34.54-8.59-4.75-19.65-11.29-28.91-19.77l-.09-.08c-9.14-8.12-14.22-17.57-13.94-25.94.23-6.81,4-13.09,11.14-18.66,21.56-15.38,66.05-24,132.26-25.73,48.08-1.23,107.07,1.29,175.35,7.5l32.59,3L439,817.8c-43-27.61-76.53-51.93-105.36-76.54-14.26-12.82-35.74-32.16-39.33-50A18.63,18.63,0,0,1,305.68,670l.11,0a34,34,0,0,1,6.62-2l1.27-.29,1.1-.2a56,56,0,0,1,5.63-.63h.21c11.17-.7,23.31.94,33.73,2.64,39.1,7,77.5,18.88,114.58,30.38,47.69,15.08,95.21,31.5,131.28,44.12l22.66,7.93-13.38-19.94c-25.51-38-44.39-73.16-57.7-107.42-10.4-28.49-19.4-61-7.52-86a39.29,39.29,0,0,1,27.89-21l.1,0c22.64-4.55,55.32,5.24,97.13,29.11,30.89,17.64,65.69,42.24,106.35,75.2,10.3,17.59,18.48,31.13,24.33,40.24,3.31,5.16,5.89,8.94,7.87,11.54s6.95,9.1,13.6,5.62c6.83-3.55,4.18-11.43,2.9-15.22-1.19-3.54-3.1-8.42-5.85-14.92-4.84-11.46-12.32-28-22.23-49.17-3.05-80.91,5.8-146,27-198.92,10.24-23.74,22.19-40.47,36.53-51.16,24.93-18.67,56.53-15.5,84.48,8.43,42.43,37,70.75,99.17,88.35,142.74l6.47,16,8-15.26c29.51-56.08,58.69-92.78,91.78-115.47,33-22.25,67.6-22.24,94.73,0,56.83,47.62,59,154.85,57.26,198.71a580.09,580.09,0,0,1-7.4,70.15l-2.78,16.78,14.7-8.56c34-19.82,85.2-47.61,135.55-67.41,54.48-21.43,95.46-28.78,121.8-21.84,16.54,4.64,26.14,17.2,25.68,33.63-.74,29.47-29.35,73.5-85,130.87L1474.64,758l26.43-6.09c48.86-11.27,89.66-18.93,128.34-24.13,23.9-3,49.39-5.74,75.18-4.18,13,1.12,25.38,2.74,34.07,9.93,11.44,10.05,3.5,23.54.75,27.49-7.27,10.66-17.69,19.12-27.76,26.87-40.63,29.74-86.71,53-126.83,72.53-40.72,9.93-72.66,18.08-94.94,24.24-12.82,3.54-22.68,6.49-29.33,8.77-8,2.75-17.15,5.88-15.48,14.16s11.15,7.54,19.5,6.95c6.85-.48,16.86-1.59,29.74-3.3,22.51-3,54.5-7.87,95.09-14.53,72.41,1.17,157.88,4.07,243.49,16.63l1.22.22c13.67,2.42,26.59,4.71,39.27,9.69l2.42,1,0,0a19.67,19.67,0,0,1,1.86,1l.22.12a17.6,17.6,0,0,1,3.78,2.67l.72.78a3.64,3.64,0,0,1,.92,2.29v.12c-.32,5-13.49,10.15-18.44,12.07l-1.09.43c-25.33,8.88-52.33,14.16-78.45,19.26l-2.9.57c-48.8,9.15-98.78,16.35-145.49,22.77l-7.67,1-55,7.46,54.9,8.38c26.81,4.09,51.07,8.12,74.13,12.32,52.72,9.78,113.84,21.84,171.94,41.15,12.52,4.34,27,9.6,40.48,17l.13.07c6.49,3.85,13.21,7.82,16.19,13.72A7,7,0,0,1,1932.57,1092.39ZM1486.06,1131c-42-25-75.09-44.73-97.2-59.87-28-19.21-30.4-26-30.53-27.39.38-.48,2.58-2.75,11.72-5.06,8.41-2.13,20.51-3.79,37-5.08,31.17-2.44,75-3.42,145-4.39l18.94-.26-15.76-15.75h-2.28c-160.73-42.18-234-79.08-244.83-123.31-8.54-34.78,20.8-80.41,95.13-148l41.15-37.39-50,24.27c-103.74,50.36-170.51,67.69-204.15,53-12.42-5.44-20.69-15.43-25.27-30.55-8.88-29.28-4-77.54,15-147.54l2.73-10.1h-15l-2.33,3.93c-10.89,18.42-20.81,34.13-30.34,48-13.74,20-26,35.33-37.43,46.72-19.33,19.24-36.23,27.11-51.72,24-31-6.14-63.45-54.43-108.34-161.46-4.15-9.91-8.48-20.47-12.87-31.38L910,487.31l-.88,39c-.33,14.6-.6,25.56-.9,35.55-1.9,64.3-5.18,109.85-15.65,138.22-10.32,28-27.06,37.6-57.75,33.09-34-5-84.3-27-173.5-75.77l-38.41-21,28.5,33.24c33.68,39.29,57.56,71.69,73,99.07,20.06,35.58,26.42,63.77,19.45,86.18-6.35,20.4-24.15,37.51-54.41,52.28C649.82,926.53,589.19,942,498.68,955.81l-57.35,8.76,57.58,7.09c67.62,8.33,113.35,16,143.91,24.15,29.77,7.94,46.58,16.69,50,26,2.27,6.26-1.81,15-12.13,26.06-26.35,28.18-90.32,67.81-184.9,125.07l-65.13,39.42,71.9-25c123-42.82,218.15-58,282.77-45.15,58.79,11.7,93.64,46,106.54,104.76,7.78,35.54,7.4,80.68-1.13,134.18l-10.44,65.49L906,1385.5c12.83-30.47,24-55.59,34.33-76.79,37.62-77.6,65-107.55,88.74-97.11,11.72,5.16,24.58,20,38.22,44.2,13.78,24.4,29,59.2,46.39,106.39l13.29,36,2.2-38.27c5.86-101.93,27.58-160.87,70.42-191.11,58.68-41.41,163.36-35.82,350,18.7l1.1.32h29.83L1556,1173C1530.45,1157.48,1506.87,1143.43,1486.06,1131Zm-295.72,24.67c-25.07,17.7-43.36,43.43-55.9,78.66-8.61,24.18-14.7,53.57-18.44,89.19-12.61-31.71-24.08-56.63-34.79-75.61-15.6-27.64-30.55-44.31-45.72-51-18.17-8-36.82-2.15-55.45,17.35-16.28,17-33.48,44.83-54.13,87.42-4.27,8.82-8.71,18.31-13.35,28.55,2-32.88.34-61.93-5.09-86.74-14.21-64.77-54.26-104.14-119.05-117a272.53,272.53,0,0,0-53.31-4.86c-47.77,0-105.21,9.9-173.43,29.87,65.6-40.41,108.72-69.25,130.66-92.71,15-16,20-29.89,15.49-42.44-5.5-15.15-24.28-26.25-60.89-36-22.45-6-52.7-11.7-93.26-17.56,64-11.88,110-25.24,142.81-41.25,34.44-16.81,54.93-37.06,62.67-61.91,8.35-26.84,1.55-59.15-20.79-98.79-11.56-20.5-27.58-43.59-48.61-70,69.15,36.36,111.78,53.6,142.76,58.17,38.25,5.62,62.12-8.17,75.1-43.39,11.09-30.06,14.59-76.28,16.55-141,22.59,53.56,41.35,90.81,58.91,117,20.32,30.35,39.25,46.36,59.6,50.39,21.09,4.17,42.72-5.12,66.1-28.4,12.17-12.1,25-28.13,39.35-49,1.57-2.29,3.15-4.62,4.74-7-9.9,48.25-10.89,83.25-3.31,108.28,6,19.6,17.44,33.25,34.18,40.57,20.23,8.84,48,8.57,84.93-.85,25-6.39,54.38-17,88.91-32.13-54,55.12-73.68,95.22-65.08,130.24,6.76,27.52,30.49,50.72,74.7,73,31.25,15.76,72.88,31.12,128.79,47.41-105.07,2.06-142.56,5.9-151.62,21.79-8.34,14.62,9.5,30.1,30,44.65,22.53,16,58.26,37.25,103.49,64.2l19.53,11.64C1340.3,1115.59,1246.94,1115.76,1190.34,1155.7Z"/><path class="cls-3" d="M1932,1087.51c-3-5.9-9.7-9.87-16.19-13.72l-.13-.07c-13.49-7.42-28-12.68-40.48-17-58.1-19.31-119.22-31.37-171.94-41.15-23.06-4.2-47.32-8.23-74.13-12.32l-54.9-8.38,55-7.46,7.67-1c46.71-6.42,96.69-13.62,145.49-22.77l2.9-.57c26.12-5.1,53.12-10.38,78.45-19.26l1.09-.43c4.95-1.92,18.12-7,18.44-12.07v-.12a3.64,3.64,0,0,0-.92-2.29l-.72-.78a17.6,17.6,0,0,0-3.78-2.67l-.22-.12a19.67,19.67,0,0,0-1.86-1l0,0-2.42-1c-12.68-5-25.6-7.27-39.27-9.69l-1.22-.22c-85.61-12.56-171.08-15.46-243.49-16.63-40.59,6.66-72.58,11.55-95.09,14.53-12.88,1.71-22.89,2.82-29.74,3.3-8.35.59-17.81,1.26-19.5-6.95s7.44-11.41,15.48-14.16c6.65-2.28,16.51-5.23,29.33-8.77,22.28-6.16,54.22-14.31,94.94-24.24,40.12-19.5,86.2-42.79,126.83-72.53,10.07-7.75,20.49-16.21,27.76-26.87,2.75-3.95,10.69-17.44-.75-27.49-8.69-7.19-21.07-8.81-34.07-9.93-25.79-1.56-51.28,1.21-75.18,4.18-38.68,5.2-79.48,12.86-128.34,24.13L1474.64,758l18.89-19.46c55.69-57.37,84.3-101.4,85-130.87.46-16.43-9.14-29-25.68-33.63-26.34-6.94-67.32.41-121.8,21.84-50.35,19.8-101.5,47.59-135.55,67.41l-14.7,8.56,2.78-16.78a580.09,580.09,0,0,0,7.4-70.15c1.71-43.86-.43-151.09-57.26-198.71-27.13-22.21-61.69-22.22-94.73,0-33.09,22.69-62.27,59.39-91.78,115.47l-8,15.26-6.47-16c-17.6-43.57-45.92-105.77-88.35-142.74-27.95-23.93-59.55-27.1-84.48-8.43-14.34,10.69-26.29,27.42-36.53,51.16-21.23,52.92-30.08,118-27,198.92,9.91,21.17,17.39,37.71,22.23,49.17,2.75,6.5,4.66,11.38,5.85,14.92,1.28,3.79,3.93,11.67-2.9,15.22-6.65,3.48-11.52-2.9-13.6-5.62s-4.56-6.38-7.87-11.54c-5.85-9.11-14-22.65-24.33-40.24-40.66-33-75.46-57.56-106.35-75.2-41.81-23.87-74.49-33.66-97.13-29.11l-.1,0a39.29,39.29,0,0,0-27.89,21c-11.88,25-2.88,57.47,7.52,86,13.31,34.26,32.19,69.4,57.7,107.42l13.38,19.94L600.21,744c-36.07-12.62-83.59-29-131.28-44.12-37.08-11.5-75.48-23.41-114.58-30.38-10.42-1.7-22.56-3.34-33.73-2.64h-.21a56,56,0,0,0-5.63.63l-1.1.2-1.27.29a34,34,0,0,0-6.62,2l-.11,0a18.63,18.63,0,0,0-11.41,21.26c3.59,17.83,25.07,37.17,39.33,50,28.83,24.61,62.31,48.93,105.36,76.54l27.55,17.66-32.59-3c-68.28-6.21-127.27-8.73-175.35-7.5-66.21,1.7-110.7,10.35-132.26,25.73-7.16,5.57-10.91,11.85-11.14,18.66-.28,8.37,4.8,17.82,13.94,25.94l.09.08c9.26,8.48,20.32,15,28.91,19.77,28.08,15.16,57.26,25.56,84.61,34.54,38.68,12.42,81.28,23.56,130.18,34l36.93,7.9-37,7.75c-48.05,10.08-90.42,20.7-129.53,32.47l-5.66,1.79c-15.28,4.79-43.71,13.71-69.92,25.4-40.07,17.88-49.44,31.07-51.46,37.34-1.24,3.84-.53,7.29,2.31,11.15,7.84,9.11,37.69,24.26,149.17,24.68,71.05.27,149-5.33,201.37-9.57l38.07-3.08-33.64,18.1c-15.33,8.24-30.18,16.61-44.14,24.86-30.25,18.17-110.71,66.52-136.28,110.55-3.73,6.76-5.07,12.94-3.77,17.41.88,3,3.05,5.48,6.64,7.45,7.35,4,17.07,4.46,25.55,4.39a182.56,182.56,0,0,0,19.46-1.4c20.65-2.53,40.92-7.1,58-11.23,67.61-16.93,133.42-38.72,200.49-61.43l27.3-9.24-18.64,22a629.08,629.08,0,0,0-42.39,55.42c-10.65,16-22.61,35.36-30.32,57.14-5.75,16-6.51,30.33-2.09,39.38,2.57,5.28,6.93,8.88,13.31,11,26.72,8,71.41-14,98.11-27.12l2.29-1.13c39-20,76.84-43.13,112-65.21,9.86-6.22,20.32-12.9,32.9-21l13.61-8.79-1.29,16.15a386.79,386.79,0,0,0,4.62,98.22c7.78,42.24,25.3,98.74,64.53,127.74,13,9.58,28.91,14.53,43.47,13.59,32.62-2,63.68-26.53,95-74.94.83-45.75,1.69-81.73,2.54-107,.49-14.42,1-25.55,1.49-33.07.27-4.14.54-7.21.83-9.4.32-2.49,1.3-10.07,8.73-10.07,3.28,0,7.54,1.62,8.67,9.52.28,1.91.54,4.59.81,8.18.48,6.51,1,16.16,1.47,28.67.71,17.77,1.44,41.8,2.17,71.65l5.68,8.5c6.21,9.32,12.3,17.67,18.61,25.55,16.87,20.76,40.42,46.08,72.65,57.34,28.2,9.9,57.68,3.62,80.87-17.23,28.66-26.38,47-67.36,54.59-121.75a327.55,327.55,0,0,0-.58-87.17l-2.1-14.94,13.55,6.65c46.92,23,97.5,47.48,149.45,70,31.21,13.3,62,26,94.41,34.79,10.36,2.66,22.57,5.41,34.61,5.7h.12c6.74.27,28.86-.42,30.74-20.64.63-8.73-2.9-17.09-6.45-24.12-8.29-15.71-20-29.77-30.38-41.71-7.47-8.44-15.51-17-24.52-26.13l-21.35-21.6,29.22,8.28c48.16,13.66,111.91,30.45,178,39.22,20.18,2.37,41.76,4.22,62.78,1.81,7.86-1,18.09-2.83,26.75-8.17,10-6.14,14.29-16.53,11.54-27.83-4.62-17.41-18.11-31.14-31.56-43.71-22.58-20.37-48-36.31-67.53-47.92a879.54,879.54,0,0,0-90.16-45.7l-38.07-16.81,41.59,1.5c41.53,1.5,78.71,2.31,113.65,2.47,3.63,0,8,0,13.07-.06,23.52-.08,62.87-.21,98.14-3,53.67-4.22,69.47-12.36,74.11-16.84a9.89,9.89,0,0,0,2.59-4A7,7,0,0,0,1932,1087.51ZM1550.7,1187.79l-1.1-.32c-186.67-54.52-291.35-60.11-350-18.7-42.84,30.24-64.56,89.18-70.42,191.11l-2.2,38.27-13.29-36c-17.44-47.19-32.61-82-46.39-106.39-13.64-24.17-26.5-39-38.22-44.2-23.75-10.44-51.12,19.51-88.74,97.11C930,1329.91,918.81,1355,906,1385.5l-25.71,61.13,10.44-65.49c8.53-53.5,8.91-98.64,1.13-134.18-12.9-58.79-47.75-93.06-106.54-104.76-64.62-12.86-159.76,2.33-282.77,45.15l-71.9,25L495.76,1173c94.58-57.26,158.55-96.89,184.9-125.07,10.32-11,14.4-19.8,12.13-26.06-3.39-9.32-20.2-18.07-50-26-30.56-8.15-76.29-15.82-143.91-24.15l-57.58-7.09,57.35-8.76c90.51-13.82,151.14-29.28,190.79-48.65,30.26-14.77,48.06-31.88,54.41-52.28,7-22.41.61-50.6-19.45-86.18-15.43-27.38-39.31-59.78-73-99.07l-28.5-33.24,38.41,21c89.2,48.81,139.47,70.76,173.5,75.77,30.69,4.51,47.43-5.08,57.75-33.09,10.47-28.37,13.75-73.92,15.65-138.22.3-10,.57-21,.9-35.55l.88-39,14.54,36.2c4.39,10.91,8.72,21.47,12.87,31.38,44.89,107,77.29,155.32,108.34,161.46,15.49,3.07,32.39-4.8,51.72-24,11.45-11.39,23.69-26.67,37.43-46.72,9.53-13.91,19.45-29.62,30.34-48l2.33-3.93h15l-2.73,10.1c-19,70-23.89,118.26-15,147.54,4.58,15.12,12.85,25.11,25.27,30.55,33.64,14.71,100.41-2.62,204.15-53l50-24.27L1403.17,742c-74.33,67.56-103.67,113.19-95.13,148,10.86,44.23,84.1,81.13,244.83,123.31h2.28l15.76,15.75-18.94.26c-70,1-113.78,2-145,4.39-16.46,1.29-28.56,2.95-37,5.08-9.14,2.31-11.34,4.58-11.72,5.06.13,1.44,2.48,8.18,30.53,27.39,22.11,15.14,55.25,34.88,97.2,59.87,20.81,12.4,44.39,26.45,69.94,41.92l24.53,14.84Z"/><path class="cls-4" d="M1313.15,1029.44c7.54-13.22,63.58-15,178.2-16.58h0C1234,945.42,1210.45,890.31,1354.45,759.44c-131,63.56-197.36,69.7-213.77,15.59-8.59-28.34-3.47-73.22,13.29-135h0q-14.32,24.22-27.22,43.08c-12.13,17.71-23.42,31.9-34.11,42.54-56.1,55.84-95.63,14.28-153.79-124.4q-5.61-13.4-11.47-28-.37,16.56-.81,31.63C924.87,662.15,922,703.6,912.23,730c-10.15,27.53-27.72,38.58-59,34-33.67-4.95-83.22-28-156.54-68.11,29,33.87,51.1,63.35,65.66,89.16,35.17,62.4,26.41,103.35-34.14,132.92-37.13,18.13-93.71,32-171.57,43.86,158.85,19.57,205.19,37.54,165.81,79.64-24.43,26.12-81.83,61.52-165.8,112.36,111.4-38.78,195.9-52.14,255-40.38,55.23,11,88.24,43.92,100.22,98.54q10.78,49.23-.93,121.87c10.92-26,21.08-48.82,30.66-68.58,34.37-70.89,61.18-101.54,88.11-89.69,12.16,5.35,24.36,19.38,37.29,42.28s26.59,54.69,41.69,95.57c11.36-197.44,87.31-245.89,382.69-159.61h0C1369.66,1080.09,1303.77,1045.89,1313.15,1029.44Z"/><path d="M1328.65,597.33c-.25-.24.76-1.81,2.83-4.58s5.27-6.68,9.34-11.67l6.82-8.19,8.14-9.57c5.82-6.81,12.39-14.52,19.72-22.79,14.61-16.58,31.74-35.89,50.29-56.52l58.4-64.72,29.94-33,29.27-32L1596,296.93c31.25-34,53.16-57.65,55.9-60.54,11-11.51,24.82-16.16,30.84-10.42s2,19.77-8.94,31.3c-2.75,2.88-25.37,25.89-57.82,58.72l-54.81,55.3L1530.63,402l-31.52,31.47c-21.14,21-42.19,41.88-61.88,61.41s-38.2,37.54-54.07,52.92c-7.91,7.71-15.29,14.64-21.83,20.78q-4.9,4.61-9.17,8.58c-2.85,2.62-5.48,5-7.86,7.2-4.78,4.31-8.56,7.67-11.21,9.89S1328.91,597.57,1328.65,597.33Z"/><path d="M1357.08,591c-.11-.14.76-1,2.47-2.65l7.39-7c3.26-2.92,7.19-6.48,11.76-10.51l15.35-13.56,18.44-15.77c6.54-5.61,13.51-11.45,20.73-17.5l45.49-37.91,46-38.08,21.42-17.64,19.46-15.91c24.28-19.84,41.3-33.64,43.42-35.32,8.49-6.7,18.33-8.36,22-3.71s-.28,13.82-8.78,20.5c-2.13,1.67-19.56,15-44.55,33.89l-20,15.16-22.19,16.67-47.84,35.75-47.55,35.3c-7.58,5.59-14.89,11-21.88,16L1398.51,563l-16.79,11.73c-5,3.49-9.38,6.48-13,9l-8.51,5.55C1358.27,590.54,1357.19,591.17,1357.08,591Z"/><path d="M1174.25,551.31c-.32,0-.48-1.65-.87-4.7-.05-.76-.11-1.6-.17-2.53,0-.46,0-.94-.11-1.45s0-1,0-1.57c0-2.18,0-4.68,0-7.48.26-11.18,1.08-27.11,2.3-46.24s2.84-41.47,4.76-65.44,4.07-49.61,6.31-75.34c9-102.92,19.21-207.42,20-214.27,1.58-13.72,10-24,18.8-23s14.65,13,13.07,26.66c-.79,6.86-14.61,111-29.34,213.2-3.68,25.56-7.41,51-11,74.79s-7.1,45.9-10.27,64.81-6,34.61-8.3,45.55c-.61,2.73-1.16,5.17-1.69,7.28-.13.53-.25,1-.38,1.53s-.29,1-.43,1.39l-.74,2.42C1175.08,549.81,1174.56,551.34,1174.25,551.31Z"/><path d="M1228.72,452.82a7.46,7.46,0,0,1-.12-2.25c.08-1.44.3-3.53.56-6.2s.64-5.9,1.16-9.59,1.1-7.87,1.74-12.42c2.7-18.19,6.59-42.45,10.6-66.9s8.16-49.1,11.31-68c1.57-9.47,2.87-17.53,3.9-23.4s1.68-9.59,1.82-10.4a16.87,16.87,0,0,1,3.63-7.94,7.93,7.93,0,0,1,2.74-2.09,4.47,4.47,0,0,1,5.39,1,8,8,0,0,1,1.77,3,16.79,16.79,0,0,1,.44,8.72l-2.16,10.33c-1.21,5.84-3,13.8-5,23.18-4.09,18.76-9.4,43.17-14.67,67.39s-10.69,48.18-14.92,66.07c-1.09,4.46-2.08,8.55-3,12.18s-1.77,6.76-2.47,9.35-1.32,4.6-1.78,6A8.14,8.14,0,0,1,1228.72,452.82Z"/><path d="M849.11,291.06c-.46.18-1.93-2.66-5-7.45L839,274.78q-1.38-2.61-2.91-5.53L833,263.07c-2.16-4.31-4.38-9-6.7-14l-7.23-15.8c-5-11-10.24-22.76-15.4-34.63-20.69-47.46-40.81-96.07-42-99.3-2.46-6.46,1.07-13.81,7.89-16.42s14.36.52,16.83,7c1.24,3.23,18.66,52.87,34.9,102,4.08,12.28,8,24.56,11.63,36.07,1.79,5.76,3.51,11.32,5.14,16.6s3.11,10.27,4.37,14.92l1.83,6.66c.54,2.13,1,4.15,1.52,6.06l2.11,10C848.78,287.79,849.58,290.89,849.11,291.06Z"/><path d="M268.15,634.41c-.09.12-.93-.31-2.5-1.11s-3.7-2.2-6.46-3.95c-5.45-3.54-13.15-8.76-22.36-15.09s-19.89-13.84-31.36-21.92-23.71-16.75-35.94-25.54c-49-35.09-98.47-71.16-101.69-73.58-6.43-4.84-9.64-11.43-7.18-14.71s9.68-2,16.12,2.81c3.22,2.42,51.64,39.91,99,77.19,11.84,9.3,23.57,18.66,34.53,27.41s21.15,16.93,29.78,24,15.8,13,20.73,17.28c2.44,2.16,4.33,3.88,5.59,5.1S268.24,634.29,268.15,634.41Z"/><path d="M835.68,301.84c-.27.21-1.86-1.25-4.5-3.95L826.42,293c-1.82-1.9-3.83-4.08-6-6.45l-7-7.74c-2.49-2.76-5.11-5.67-7.79-8.72-5.35-6.12-11.07-12.64-16.8-19.2s-11.44-13.19-16.82-19.46l-14.81-17.31c-8.72-10.31-14.77-17.55-15.5-18.46-2.91-3.63-2.71-8.62.44-11.14s8.06-1.6,11,2c.73.91,6.44,8.42,14.56,19.21l13.6,18.28c4.91,6.64,10.11,13.68,15.24,20.72l15,20.64c2.38,3.29,4.64,6.5,6.78,9.53l6,8.58c1.82,2.68,3.49,5.12,4.94,7.32l3.7,5.72C834.87,299.75,836,301.63,835.68,301.84Z"/><path d="M637.48,1212.19c.23.43-1.4,1.86-4.59,4.25s-8.09,5.55-14.35,9.51c-12.51,7.93-30.61,18.88-52.48,31.86s-47.51,28-75.11,44c-13.81,8-28.08,16.33-42.66,24.7L404,1351.88c-119.09,67.92-240.72,136-248.77,140.33-16.1,8.74-32.7,9.29-37,1.32s5.21-21.57,21.33-30.28c8.06-4.36,131.48-69.09,253.42-131.75l45.43-23.28c15-7.64,29.73-15,44-22.24,28.52-14.36,55.1-27.64,77.91-38.87s41.88-20.42,55.35-26.57c6.74-3.08,12.08-5.39,15.8-6.82S637.25,1211.77,637.48,1212.19Z"/><path d="M530.22,1291.33c.09.12-.56.83-1.78,2.15l-1,1.11c-.18.21-.39.41-.58.66s-.43.43-.66.66c-.45.47-1,.94-1.46,1.51a16.81,16.81,0,0,0-1.29,2.17c-4.76,4.72-11.77,11.21-20.31,18.88-17.06,15.35-40.21,35.45-63.66,55.6l-17.55,15-17.16,14.57-30.9,26c-18.35,15.39-31.23,26.08-32.85,27.36a16.27,16.27,0,0,1-10.51,3.76c-3.58-.15-6.73-1.43-8.74-4s-2.53-5.89-1.87-9.41a16.31,16.31,0,0,1,6-9.39c1.62-1.28,14.95-11.4,34.1-25.79l32.34-24.21,18.08-13.41L429.06,1361c24.94-18.27,49.76-36.26,68.58-49.41,9.41-6.57,17.31-11.93,23-15.49a20.15,20.15,0,0,0,2.41-.77c.66-.35,1.23-.75,1.8-1.08l.79-.49c.29-.13.53-.29.77-.42l1.31-.74C529.28,1291.68,530.12,1291.21,530.22,1291.33Z"/><path d="M1023.92,1385.72c1.1-.1,2.69,5.67,4.74,15.85s4.43,24.78,7.12,42.36,5.51,38.15,8.5,60.26,5.94,45.78,8.89,69.54,5.82,47.64,8.49,70.18,5.06,43.75,7.15,62.19c4.14,36.87,6.9,62.66,7.18,65.85a26.57,26.57,0,0,1-3.83,16.79c-2.88,4.46-7,7.43-11.87,7.86s-9.45-1.77-13.07-5.66a26.52,26.52,0,0,1-6.72-15.85c-.28-3.19-2.09-29.06-4.49-66.09-1.19-18.52-2.58-39.82-3.89-62.48s-2.69-46.66-4-70.57-2.52-47.73-3.45-70-1.73-43-2.22-60.82-.62-32.58-.43-43S1022.83,1385.81,1023.92,1385.72Z"/><path d="M1079.68,1545.43c.11,0,.34.55,1,1.57.41,1.06.89,2.62,1.46,4.62s1.23,4.44,1.9,7.25,1.44,6,2.23,9.46c3.17,13.89,7.09,32.52,10.93,51.32,1.92,9.4,3.87,18.83,5.6,27.76s3.36,17.32,4.77,24.61c2.81,14.6,4.72,24.81,4.92,26.08a10,10,0,0,1-1.52,6.89,7.52,7.52,0,0,1-11.43,1.81,10.06,10.06,0,0,1-3.59-6.07c-.19-1.27-1.55-11.57-3.41-26.31-.92-7.38-2-15.86-3.09-24.89s-2.21-18.59-3.3-28.12c-2.17-19.07-4.23-38-5.52-52.18-.33-3.55-.6-6.8-.82-9.68s-.35-5.41-.44-7.49-.11-3.71,0-4.84A9.61,9.61,0,0,1,1079.68,1545.43Z"/><path d="M1633.55,1122.24c0-.15,1.06-.06,3,.16l1.64.07a5.16,5.16,0,0,0,1,0l1,.14c1.4.18,3,.41,4.8.67,3.56.64,7.88,1.5,12.83,2.55s10.51,2.39,16.51,4.07,12.52,3.52,19.37,5.63c3.41,1.1,6.92,2.19,10.5,3.38l10.9,3.75,11.22,4.06c3.77,1.43,7.6,2.86,11.44,4.35l11.57,4.61c3.86,1.59,7.75,3.15,11.62,4.78,15.48,6.47,30.88,13.27,45.36,19.72l39.89,17.86c23.63,10.61,40.13,18.09,42.15,19,8.08,3.8,13,10.37,11,14.67s-10.22,4.72-18.3.91c-2-1-18.3-8.88-41.55-20.31L1800.24,1193c-14.19-7-29.21-14.41-44.25-21.54l-11.27-5.29-11.2-5.13-11-4.94-10.82-4.68-10.52-4.37-10.11-4c-6.59-2.55-12.84-5-18.65-7s-11.15-3.89-15.88-5.56l-12.32-4.08q-2.57-.84-4.56-1.53l-.95-.33a6.8,6.8,0,0,0-.85-.43l-1.5-.67C1634.48,1122.76,1633.52,1122.39,1633.55,1122.24Z"/><path d="M1318.18,1335.25c.18-.14,1.23.82,3.22,2.6s4.57,4.67,8.1,8.14c3.35,3.62,7.44,8,12,13.08l7.26,8.18,7.93,9.18c5.5,6.42,11.45,13.39,17.75,20.76s12.87,15.23,19.66,23.38l20.92,25.18c7.13,8.59,14.35,17.36,21.54,26.18,28.81,35.26,57.66,71,79.78,98.45l15.22,18.94c4.57,5.72,8.67,10.74,12,15.11,6.69,8.66,10.9,14.16,11.8,15.38,7.21,9.8,7.24,22.17.06,27.62s-19.08,2.12-26.59-7.45c-.94-1.2-5.11-6.72-11.67-15.49-3.32-4.36-7.07-9.65-11.35-15.59l-14.18-19.73c-20.56-28.66-47.24-66-73.5-103.21-6.57-9.29-13.08-18.6-19.46-27.77s-12.62-18.19-18.66-26.9-11.85-17.15-17.26-25.2-10.54-15.64-15.26-22.66l-6.71-10.09-5.94-9.18c-3.67-5.81-6.79-10.92-9.38-15.12-2.4-4.33-4.37-7.67-5.67-10S1318,1335.4,1318.18,1335.25Z"/><path d="M1359.79,1349.85c.13-.12.79.31,2,1.19s2.89,2.2,5,3.94,4.66,3.87,7.59,6.32,6.1,5.34,9.62,8.46c7,6.23,15.12,13.62,23.83,21.56l27.15,25.17c36.92,34.58,74.07,70.12,76.46,72.51,4.74,4.82,5.79,11.52,2.41,14.89s-10.07,2.32-14.89-2.41c-2.38-2.4-37.93-39.54-72.51-76.46l-25.17-27.15c-7.94-8.71-15.32-16.81-21.56-23.83-3.12-3.52-6-6.72-8.46-9.62s-4.62-5.43-6.32-7.59-3.08-3.8-3.93-5S1359.67,1350,1359.79,1349.85Z"/><path d="M491.26,647.1c-.16.24-1,0-2.41-.49l-2.59-1.06-1.67-.63-1.83-.81-2-.89-2.2-1.06q-2.29-1.1-4.94-2.39c-3.54-1.69-7.44-3.75-11.7-6l-13.66-7.42c-4.83-2.66-9.94-5.46-15.19-8.43-10.48-6-21.64-12.4-32.82-18.91-5.59-3.26-11.18-6.54-16.7-9.77l-16.19-9.63-15.23-9.12c-4.85-2.92-9.49-5.66-13.71-8.36-16.95-10.67-28.73-18.24-30.15-19.22-5.7-3.9-7.1-12-3.11-18s11.95-8,17.8-4.33c1.46.93,13.09,8.72,29.62,20,4.15,2.8,8.51,6,13.13,9.25l14.41,10.35,15.28,11L411,582.65c10.42,7.67,20.77,15.36,30.4,22.6,4.81,3.64,9.41,7.22,13.77,10.59l12.24,9.58c3.74,3,7.19,5.78,10.14,8.36l4.16,3.58,1.84,1.6,1.63,1.52,1.47,1.37,1.25,1.27,2,2C490.92,646.17,491.43,646.85,491.26,647.1Z"/><path d="M308.33,944.47c-40.91-3.92-89-14.91-124.71-35.72-11.21-7.07-26.34-17.82-25-33.12,3.84-25.76,53.13-28.72,73.38-29,5.41-.09,10.82.09,16.21.4-10.55,2.39-21.05,4.51-31.34,7.12s-20.47,5.46-29.68,9.56a45.48,45.48,0,0,0-12,7.28c-4.55,4.11-4.49,7.76-.82,12.5,4.39,5.47,10.35,9.55,16.56,13.35,36.73,21.14,77.81,32.53,117.44,47.68Z"/><path d="M818.62,508.38c3.65-39.88,16.27-88.11,42.93-119,26.66-30.26,59.59-27.43,87-.1,17.39,17.47,29.73,38.61,39.44,60.89-21.67-27.35-64.42-89.27-104-62.09C851.1,411,831.86,470.91,818.62,508.38Z"/><path d="M1471.76,608.14c17.79-14.86,45-21,67.58-15.14,13.09,3.25,26,13.11,26.92,27.55.93,12.64-6.27,24.32-15.13,32.47a130.21,130.21,0,0,0,4.39-16.18c3.27-16.92-3.73-26-19.84-30.33-20.88-5.19-42.87-2.42-63.92,1.63Z"/><path d="M1096.3,1438.71c26.78,13.62,65.91,34.5,92.13,10.18,24.66-23.63,30.87-76.65,35.69-109.77,1.46-10.75,2.7-21.57,4.23-32.45a302.47,302.47,0,0,1,2.64,32.8c.94,39.54-4.11,101.89-41,125-32.14,18.93-69.74-3.33-93.71-25.76Z"/><path d="M822.32,1345.47c11.94,41,21.52,82.52,41.45,120.38,14.85,27.64,36,50.48,70.12,43.68,10.36-1.91,20.33-6,30-10.48a89.59,89.59,0,0,1-28.15,17.12c-23.68,8.81-47.06,1.7-64.36-16.07-35.34-36.49-48.26-105.22-49-154.63Z"/></g></svg>