<svg xmlns="http://www.w3.org/2000/svg" viewBox="0 0 2000 2000"><defs><style>.cls-1{opacity:0.25;}.cls-2{fill:#ed1c24;}.cls-3{fill:#ffd100;}.cls-4{fill:#fff;}</style></defs><g id="halftone-dots" class="cls-1"><path d="M508,1059.41c-1.22-1.39-2.49-2.74-3.67-4.16-9.53-11.44-4.25-27.67,10.2-31.06a18.82,18.82,0,0,1,6.82-.08,58.35,58.35,0,0,1,7.36,2c2.68,3.21,5.87,6.07,7.1,10.28,2,6.77,2.54,6.41,8.82,4,5.14-2,5.15-1.95,4.58-7.62-.17-1.62-.27-3.26-.58-4.86-.39-2-1.52-3-3.45-2.38-5.35,1.73-10.59,1.25-15.86-.14a59.55,59.55,0,0,1-5.12-4.78,18.09,18.09,0,0,1-3.44-19c2.47-6.75,7.61-10.41,14.56-11.76,2.17-.42,5.34.86,6.19-1.74.5-1.52-1.2-3.8-2-5.7-4.89-11.37.08-23.11,11.67-27.48.87-.33,1.82-.47,2.69-.81,2.86-1.12,3.23-1.79,2.5-4.75q-.84-3.4-1.84-6.77c-1-3.21-1.36-3.42-5.1-3.14-2.33.17-4.66.48-7,.43a19,19,0,0,1-18.87-17.24c-.29-2.51.08-5.89-1.37-7.29-2.15-2.07-4.55,1.09-6.83,1.93a17.91,17.91,0,0,1-22.18-8.41c-4.28-8.26-1.82-18.77,5.7-23.73a40.15,40.15,0,0,1,6.32-3c3.7-1.59,3.78-1.72,2.34-5.71a6.73,6.73,0,0,0-.54-1.3c-1.57-2.55-.49-6.83-3.57-8-2.34-.86-5.43.45-8.19.54-1.84.05-3.7-.37-5.56-.5s-2.74.86-2.06,2.5,1.72,3.34,2.3,5.1a16.2,16.2,0,0,1-7.07,18.88,15.8,15.8,0,0,1-19.41-2.18c-5-4.78-5.39-10.78-3.91-16.93,1.39-5.75,5.76-8.73,11.19-10.59,2.58-.89,5.65.54,7.82-1.84a67.23,67.23,0,0,1-3.83-6.54c-1.14-2.55-1.82-5.3-2.76-7.93s-1.53-2.93-4.18-2.4c-4.11.82-8,2-12.41.78-8.72-2.53-14.15-7.85-15.78-16.86-.2-1.15-.27-2.33-.54-3.47-.49-2.11-1.54-2.75-3.54-2.13-1.56.48-3,1.24-4.61,1.67A19.77,19.77,0,0,1,406,809c-.17-1.16-.15-2.34-.31-3.5-.46-3.43-1.35-4.06-4.59-2.49a22.71,22.71,0,0,1-13.67,1.93c-9.16-1.39-15.41-9.24-15.22-19,.17-9.4,6.46-16.82,15.37-18.16,11.48-1.72,20.32,4.52,22.49,15.93.35,1.83.39,3.72.78,5.53.09.42,1,.78,1.6.93.38.1.88-.24,1.32-.4,3.72-1.3,7.43-2.66,11.18-3.89,1.55-.51,2.65-1.38,2.11-3-1.71-5.13-3.11-10.27-2.74-15.77,0-.35-1.46-1.27-2-1.11-1.53.51-2.88,1.53-4.39,2.16-6.93,2.89-13.41,1.85-19-3.08-5.38-4.79-6.87-11-5-17.92,2-7.31,7.09-11.44,14.39-12.7,9-1.54,18,5.18,19.38,14.24.33,2.07.4,4.2.89,6.22a2.42,2.42,0,0,0,2.12,1.1,15.17,15.17,0,0,0,3.64-2.06c9.12-6.1,24.76-3.24,29.86,9.75.25.65.49,1.31.78,1.95,1.63,3.72,2,3.88,5.74,2.92.68-.17,1.34-.43,2-.61,2.92-.79,6.48-.78,8.6-2.53,2.49-2.06.2-5.71.3-8.67a19,19,0,0,1,16.48-18.15c8.72-1.08,17.05,5,19.2,14,.11.46.15.93.25,1.38,1.29,6.16,1.32,6.24,7,3.68a29.47,29.47,0,0,1,12.27-2.44c2.28,0,2.82-1,2-3.21-.55-1.54-1.35-3-1.78-4.57-2.55-9.12,3.29-19.2,12.29-21.36,10.3-2.47,19.7,3.56,21.43,13.77.24,1.38.26,2.8.51,4.18.46,2.54,1.68,3.21,3.89,1.76a27.82,27.82,0,0,1,15.22-4.6c2.29,0,2.76-1,2-3.23a59.31,59.31,0,0,1-2.13-5.94c-2.2-9.58,4-19.46,13.39-21.48,9.93-2.13,19.25,3.47,21.71,13,1.7,6.61,1.78,6.77,7.73,4,3.15-1.47,7-1,9.68-3.55-.41-3.21-1-6.42-1.17-9.64-.48-10.55,5.44-18.27,15.87-21,1.13-.29,2.29-.5,3.4-.84,1.85-.58,2.78-1.81,2-3.73-1.65-4.23-1.81-8.65-2-13.11-.07-2.17-1.28-3-3.3-2a21.55,21.55,0,0,1-12.26,2.16,16.74,16.74,0,0,1,.36-33.2c10.39-1,17.74,4.84,19,15.13.12.93.09,1.88.22,2.8.33,2.41,1.25,2.94,3.21,1.94,3.11-1.6,6.2-3.25,9.35-4.76a3.58,3.58,0,0,0,2.08-4.6c-.27-1.14-.6-2.26-.87-3.4-1.52-6.4-1.52-6.4-8.13-5.42a19.28,19.28,0,0,1-22.07-16.63c-1.33-11.86,6.48-22,17.83-22.45,8-.29,14.51,3.18,18.46,10.51.88,1.64,1.42,3.46,2.19,5.16,1.09,2.39,1.79,2.71,4.41,2,3.39-.9,6.75-1.86,10.13-2.77a2.68,2.68,0,0,0,2.11-3.14c-.16-2.57-.4-5.13-.47-7.7-.26-8.63,6.79-16.23,15.83-17.9,7.69-1.43,16.45,3.75,19.9,11.35,1.33,2.93.49,6.6,3.24,9,2.86-.86,5.69-1.92,8.61-2.53,2.51-.52,5.13-.45,7.67-.82,1.62-.23,2.48-1.25,1.87-3-.54-1.55-1.26-3-1.68-4.62-2.78-10.51,2.59-20.32,12.68-23.27,9.85-2.88,19.55,2.69,22.9,13.18.35,1.11.59,2.26,1,3.36.76,2.14,1.58,2.57,3.69,1.83,2.65-.92,5.26-2,7.89-2.92a3.55,3.55,0,0,0,2.62-4.29c-.47-3.47-.67-7-1.05-10.46a2.13,2.13,0,0,0-2.93-2.06c-1.58.39-3.1,1-4.66,1.53-7.09,2.23-13,0-17.71-5.29s-5.25-11.88-2.63-18.42,7.9-9.76,14.63-10.48,14.37,4.48,17.09,11.26a24.43,24.43,0,0,1,1.16,4c1.23,5.88,1.21,5.88,6.25,3.41a4,4,0,0,0,.61-.35c2.64-1.91,7.33-1,8.41-4.27.94-2.83-.21-6.39-.57-9.61-.24-2.2,1-5.29-1.52-6.29-1.55-.61-3.91.8-5.89,1.35a17.1,17.1,0,1,1-9.19-32.94c8.71-2.46,18,3,20.66,12.22a15.69,15.69,0,0,1,.73,3.42c.22,4.05,1.61,4.79,5.37,2.3.19-.13.43-.21.61-.35,2.55-2,7.44-1.59,8-4.86.74-3.94-.47-8.29-1.13-12.42-.11-.7-1.69-1.63-2.59-1.63-1.59,0-3.16.78-4.77,1a17.64,17.64,0,0,1-20.08-13.51c-2.14-8.8,2.62-17.47,11.35-20.79a16.18,16.18,0,0,1,10.33-.38c2,.57,4,1.32,6,2,2.68,3.23,5.31,6.45,6.6,10.6,1.82,5.9,1.92,5.87,7.55,3.34.85-.38,1.69-.8,2.55-1.15a3.72,3.72,0,0,0,2.49-4.44c-.24-1.62-.42-3.24-.75-4.84a3.35,3.35,0,0,0-4-3,37.66,37.66,0,0,1-13.85-1.25c-1.39-1.25-2.82-2.46-4.17-3.75-8.62-8.22-8.72-26,7-32.24.44-.17.87-.34,1.32-.49,6-2,6-2,4-8.37-4.33-13.75,4-26.47,15.91-28.79a22.74,22.74,0,0,0,3.39-.86,2.68,2.68,0,0,0,1.89-3.27c-.59-4.15-1-8.32-1.62-12.47a1.72,1.72,0,0,0-2.5-1.55c-1.76.63-3.39,1.6-5.15,2.22a18.08,18.08,0,0,1-22.7-10c-3.83-8.88-.41-18.67,8.21-23.5a17.84,17.84,0,0,1,23.53,5.72c1.46,2.26,2,5.15,2.77,7.81.44,1.55.38,3.25.77,4.83a1.82,1.82,0,0,0,2.68,1.36c1.5-.64,2.91-1.5,4.41-2.14,14.63-6.22,29.88,4.1,29.63,20,0,.93-.18,1.86-.22,2.79-.13,3,.58,3.57,3.09,2.12a20.87,20.87,0,0,1,10.6-3.17c8.7,0,15.14,5.31,16.74,13.95a16.9,16.9,0,0,1-11.08,18.89c-1.54.53-3.17.82-4.72,1.33s-2,1.75-1.44,3.34c1.47,4.17,2.93,8.34,4.32,12.54.64,1.94,2,2.49,3.8,2.14,1.14-.21,2.26-.58,3.41-.78a19.56,19.56,0,0,1,23.35,19c0,.47,0,.93,0,1.4,0,2.05.05,4.1.07,6.16,2.49.64,3.62-1.65,5.4-2.54,6.56-3.26,13.1-3.66,19.29.56s8.63,10.45,7.26,17.75-5.95,12-13.24,13.85a25.05,25.05,0,0,0-2.71.7c-1.46.57-2.31,1.51-1.68,3.24,1.35,3.73,2.71,7.45,4,11.21.65,2,1.92,2.32,3.79,2.14,4.16-.39,8.34-.64,12.52-.9,1.93-.13,2.45-.88,1.36-2.72a19.93,19.93,0,0,1-3.08-12c.71-8.78,7.44-14.76,16.41-15,9.51-.23,15.83,8.21,16.48,15.16a16.74,16.74,0,0,1-13.69,17.7c-1.38.22-2.8.17-4.19.36-2.64.35-3.23,1.45-1.74,3.76a35.53,35.53,0,0,1,4.7,10.87c.83,3.44,1.64,3.75,5,3.07,1.14-.24,2.26-.6,3.4-.85,5.82-1.29,8.79-5.5,7.82-11.1-1.58-9.11,5.2-18.28,14.2-19.21,10.21-1.06,18.14,5.54,18.6,15.47.46,9.75-5.33,16.69-15.24,17.36-6.45.44-6.89,1.24-3.1,6.77,1.53,2.23,2.13,5.13,3.05,7.76,1.1,3.17,1.66,3.44,5.18,2.72,3-.6,6-1,9-1.55s3.44-1.34,2.88-4.28a55.86,55.86,0,0,1-1.37-8.94c-.27-9.84,8-15.88,14-16.92,9.11-1.58,17.31,2.69,20.44,11a45.44,45.44,0,0,1,1.54,6.81c.62,3,1.47,3.54,4.35,2.1a32.64,32.64,0,0,1,12-3.52c2.51-.22,3-1.3,2.44-4a57.74,57.74,0,0,1-1.38-6.14c-1-9.76,3.54-17.24,12.33-20.42a18.35,18.35,0,0,1,23.43,11,51.57,51.57,0,0,1,1.65,7.5c.53,2.51,1.49,3,4,2,1.08-.44,2.11-1,3.15-1.53,11.47-5.93,29,2.94,28.09,19-.1,1.87-.32,3.73-.34,5.6,0,.59.32,1.55.73,1.69s1.29-.23,1.84-.57c1.38-.86,2.62-2,4.06-2.74a17.25,17.25,0,0,1,23.72,8c4.78,9.9-1.45,20-8.73,22.9a46.92,46.92,0,0,1-8.13,1.91c-2.07.43-2.72,1.21-1.67,2.72a34.91,34.91,0,0,1,5,12.24c.67,2.86,1.47,3.09,4.61,2.53a50.17,50.17,0,0,1,9-1.25c8.79,0,15.61,5.18,18.51,13.51.83,2.39,1.1,5.49,2.77,6.94,2.06,1.79,4.72-.92,7.21-1.24,2.31-.29,4.63-.54,6.94-.9,2.16-.34,2.71-1.21,2.23-3.45-.25-1.14-.8-2.22-1-3.36a35.75,35.75,0,0,1-.59-6.26c.29-9.58,7-16.16,16.55-16.41s17.41,6.56,17.88,16c.18,3.46-.53,7-.84,10.45-4.87,3.95-9.37,8.48-16.33,8.67-2.16.06-2.75,1.57-2,3.49.35.86.87,1.65,1.27,2.5,3.84,8.12,3.84,8.12,12.49,5.6,3.31-1,3.62-1.15,3.28-5a50,50,0,0,1,1.22-15.29l4.81-4.07c10.87-9.21,26-5.93,31.25,7.23,2.91,7.27,3.41,6.29,9.65,4.18,1.32-.45,2.7-.73,4.06-1.07,4.28-1.08,4.47-1.2,3.71-5.74a21.55,21.55,0,0,1,0-9c2-8,8.11-13.68,16-14.73s15.26,3,19.33,10c1.48,2.55.95,6.83,4.2,7.54,2.39.52,5.27-1.28,7.94-2,6.5-1.7,6.57-1.69,6.16-8.58a19.92,19.92,0,0,1,3.12-12.69c4.81-7.19,11.6-9.87,20-8.57,7.66,1.19,12.54,5.79,15.08,13,.3.88.42,1.82.71,2.71,1.25,3.94,1.68,4.12,5.41,3,2.67-.84,5.38-1.51,8.07-2.29a2.58,2.58,0,0,0,2-3.18c-.28-1.61-.79-3.18-1-4.8-2.06-15,8.43-26,23.66-24.63a11.32,11.32,0,0,0,2.08.18c1.13-.1,1.72-.89,1.26-1.91-.76-1.7-1.82-3.27-2.62-5-4.88-10.2,2.15-20.15,9-22.75,9.41-3.57,19.91,1.25,22.75,10.52,3,9.64-2.41,19.49-12.09,21.82-2.45.59-5.08.35-7.62.57-1.13.1-1.76.92-1.27,1.92.71,1.45,1.77,2.73,2.61,4.13,7.2,12,2.34,26.2-10.83,31-6.36,2.32-6.4,1.94-4.85,8.91.74,3.33.41,6.92.38,10.39a50,50,0,0,1-.67,5.55c-.39.77-.78,1.55-1.16,2.32a21.73,21.73,0,0,0-2.81,2.08,27.28,27.28,0,0,1-13.17,7.63c-3.35.83-3.76,1.6-3.14,5.08a47.07,47.07,0,0,1,.18,14c-.17,1.51.87,2.06,2.25,1.3,1.64-.9,3.16-2,4.86-2.78a15.27,15.27,0,0,1,19.9,8,15.44,15.44,0,0,1-6.26,19.53c-7.46,4.22-16.62,2-20.78-5.26a21,21,0,0,1-1.9-5.94c-.33-1.58-.18-3.27-.37-4.89-.22-1.77-1.58-2.4-3-1.2a36,36,0,0,1-11.6,6.38c-3.1,1.09-3.21,1.58-2.94,4.65.31,3.5.58,7,.92,10.48.29,3,1.17,3.48,4.21,2.47,1.11-.37,2.16-.91,3.28-1.24a16,16,0,0,1,20.28,11.24A16.29,16.29,0,0,1,1449.35,723c-8.64,2.28-17.74-3.38-19.89-12.26-.52-2.13.67-5.4-2.11-6.05-1.57-.36-3.66,1.59-5.54,2.44-1.7.76-3.44,1.46-5.18,2.14-4,1.56-4.16,1.82-3.37,6.22.13.69.34,1.37.48,2,.54,2.48.33,5.59,1.78,7.28,1.87,2.19,4.76-.32,7.22-.56,11.7-1.12,20,5.84,20.1,17.07.08,10.55-7.08,17.65-17.64,17.49-7.7-.12-13.46-4.44-16.24-12.15-.69-1.93-.91-4.65-2.3-5.59-2.13-1.43-4.28,1-6.35,1.9-6.39,2.8-6.59,3.32-4.85,9.93,1.1,4.18,1.42,4.25,5.76,4.14,3.23-.08,6.63-.24,9.68.62a19.13,19.13,0,0,1,1.56,36,42,42,0,0,1-6.08,1.57c-2.63.64-2.81,1.23-2,4,1.16,4,2.15,8.08,3.13,12.15.54,2.23,1.3,2.85,3.38,2.24,1.57-.46,3.06-1.2,4.64-1.61a18.6,18.6,0,0,1,11.65,35.19c-2.45,1.08-6.43.24-7.11,3.43-.46,2.18,1.28,4.81,1.94,7.26,1.74,6.41,1.79,6.8,8.63,5.54,2.51-.46,5.14-.28,7.69-.54,1.69-.16,2.4-1.34,1.88-3s-1.24-3-1.71-4.6a16.65,16.65,0,0,1,6.4-18.62,17.11,17.11,0,0,1,19.15-.06c5.75,3.89,8,10.27,6.5,18a15.67,15.67,0,0,1-13,12.18c-6.93,1.21-6.82,1.15-3.9,7.2a73.65,73.65,0,0,1,3.11,8.54c.62,1.79,1.73,2.89,3.67,2.3a31.65,31.65,0,0,1,14.53-1.15c1.17.19,1.63-.91,1.21-1.92-.73-1.71-1.81-3.28-2.48-5-4.83-12.49,4.14-24.44,17.34-23.16,7.67.75,14.1,7.69,14.49,15.63A16.9,16.9,0,0,1,1492,886.28c-2.64.46-5.6-.77-7.92,1.43q1.83,3.3,3.65,6.61c2.58,4.74,2.82,9.78,2.16,15-.32,2.46.65,3.08,2.72,2a48.8,48.8,0,0,1,5-2.58c6.51-2.39,12.53-1.45,17.52,3.47s5.94,11.08,3.74,17.52c-2.28,6.68-7.55,10.06-14.31,10.8-8.81.95-17-7-17.41-16.49,0-1.39.32-2.79.3-4.18a2.88,2.88,0,0,0-.85-1.7c-.17-.18-1-.06-1.27.19a28.09,28.09,0,0,1-15.55,7.47c-1.73.25-2.14,1.67-1.83,3.2s.82,2.69,1.1,4.06c2.78,13.66-3.89,23.54-17.56,26.08-.69.13-1.4.17-2.09.28-1.76.3-2.51,1.47-1.83,3a31.32,31.32,0,0,1,2.13,15.13,2.07,2.07,0,0,0,.08.69c.24,1.06.88,1.78,2,1.29,1.92-.84,3.69-2,5.63-2.81a16.94,16.94,0,0,1,21.14,7.6,17.41,17.41,0,0,1-4.7,22.07,17.19,17.19,0,0,1-21.94-1.18c-3.27-3-4.69-6.93-5.32-11.18a41.77,41.77,0,0,1,0-4.19c-.09-2-1-2.4-2.74-1.47-3.5,1.85-7,3.71-10.55,5.46-1.68.82-2.64,1.87-2.16,3.83.17.68.27,1.38.48,2,.81,2.66,1,5.88,2.66,7.8,2,2.31,5.29.18,8,.09,10.43-.36,18.7,5.43,21,14.94a19.34,19.34,0,0,1-11.34,22.52c-7.56,3.09-6.08,3.95-4.1,10.45.2.67.4,1.34.61,2a3.22,3.22,0,0,0,3.66,2.53c3.26-.24,6.54-.38,9.8-.67,1.79-.16,2.55-1.26,2-2.87s-1.33-3-1.71-4.6c-1.63-6.84-.65-13.12,4.85-18s11.66-5.87,18.28-2.89,10,8.43,10.33,15.5c.36,6.53-4.33,13.46-10.68,16-2.57,1-5.43,1.26-8.16,1.83-1.45.3-2.15,1.23-1.31,2.45a30.59,30.59,0,0,1,5.31,14.31c.23,2.12,1.38,2.69,3.49,2.34,3-.49,6-1.38,9-1.44a19.35,19.35,0,0,1,19.63,18c.2,2.39-1.35,5.14,1.12,7.2,2.09-1,4.16-2,6.28-2.85,9.3-3.87,19.8.07,23.77,8.88a18.56,18.56,0,0,1-9.34,24.79c-6.6,3-6.6,3-3.79,9.61,1.68,3.92,1.86,4,6.32,3.65.47,0,.93-.13,1.4-.15,6.43-.38,8.31.47,6.67-8.09a16.32,16.32,0,0,1,12.24-18.67c9.43-2.09,18.12,2.63,20.67,11.24a17.09,17.09,0,0,1-10.37,21.15c-.87.32-1.83.43-2.71.72-3.94,1.32-4.12,1.77-2.73,5.44,1.08,2.84,2,5.72,3,8.58s1.52,3.34,4.53,3.27c2.34-.06,4.68-.42,7-.34,10.44.35,18.06,7,19.93,17.33a10.78,10.78,0,0,1,.18,1.39c.42,6.72,2,6.25,6.87,4.68a22.93,22.93,0,0,1,8.31-.79c8.69.53,14.85,6.47,16.5,15.52,1.35,7.44-3.05,15.7-10.13,19.13a18.33,18.33,0,0,1-26.13-11.92c-.27-1.13-.34-2.32-.62-3.45-.79-3.27-1.63-3.65-5-2.34-1.52.6-3,1.3-4.54,1.85-10.5,3.81-21.55-2.45-25.42-10.79a16.47,16.47,0,0,1-.85-1.92c-1.67-5.35-2-6.64-8.48-4.62l-.68.19c-2.22.58-5,.54-6.52,1.89-2,1.71,0,4.38.26,6.62a19.21,19.21,0,0,1-15.59,21c-8.87,1.76-18.26-4.22-21.1-13.46-.21-.67-.26-1.38-.46-2.05-1.22-4.24-1.49-4.22-5.89-2.9a44.14,44.14,0,0,1-10.21,2.1c-5.7.27-5.22,1.61-3.87,5.27a22.4,22.4,0,0,1,1.28,7.53,16.58,16.58,0,0,1-13.51,16.46c-8.47,1.44-16.28-2.78-19.35-10.48-.34-.86-.48-1.83-.88-2.66-1.32-2.72.78-6-1.57-8.56a88.94,88.94,0,0,1-7.94,4.23c-3.92,1.64-8,2.56-12.33,1.48-.75-.19-2.16.13-2.43.65s.19,1.72.55,2.53c.48,1,1.23,2,1.75,3,3.37,6.87,2.25,13.21-2.56,18.92a16.85,16.85,0,0,1-18.51,4.85c-6.53-2.26-10.62-8.14-11.16-15.55-.15-2.14,1.41-4.67-1.14-6.41-1.75,1.11-3.49,2.24-5.26,3.33a24.89,24.89,0,0,1-13.41,3.43c-2,0-2.47,1-1.86,2.8.51,1.55,1.23,3,1.71,4.59a19,19,0,0,1-10.73,23.16c-9.85,4.22-19.85-1.46-23.84-9.14-.32-.62-.59-1.27-.85-1.92-2.7-6.69-2.7-6.69-9.21-4.11a31.49,31.49,0,0,0-3.22,1.38c-.59.31-1.42.83-1.49,1.34a20.13,20.13,0,0,0,1.51,11.56,2.12,2.12,0,0,0,1.79.74c1.61-.22,3.18-.74,4.78-1,10.31-1.91,20,4.52,21.46,14.24,1.79,11.71-4.73,20.89-15.85,22.24-1.39.17-2.81.12-4.19.3-1.81.24-2.29,1.26-1.42,3,.63,1.25,1.45,2.41,2.06,3.67,5.62,11.75-.31,24.75-12.75,28.56-2.83.87-6.1-.09-8.53,2.19.82,2.64,2,5.24,2.39,7.95a74,74,0,0,1,.37,9.08c.08,2.32,1,2.8,3.18,1.69,1.46-.74,2.82-1.69,4.33-2.31a18.19,18.19,0,0,1,23.33,8.57,18.65,18.65,0,0,1-7.26,23.89c-11,6.48-25.43-.89-26.94-13.84-.16-1.38,0-2.81-.11-4.2a29.23,29.23,0,0,0-.63-3.31,10.93,10.93,0,0,0-3.1,1.08,19.92,19.92,0,0,1-11,4.09c-9.93.49-17.18-4.24-20.58-13.55a16.17,16.17,0,0,1-.64-2c-.94-4.34-2-5-6.3-3.73-3.1.93-6.42,1.13-9.63,1.76-2.44.48-2.9,1.46-2.42,4,.61,3.19,1.57,6.41,1.51,9.6a17,17,0,0,1-13.95,16.24c-8.56,1.51-16.43-2.32-19.68-9.94a39.32,39.32,0,0,1-2-8.12c-.57-3-1.13-3.47-3.53-2a24.73,24.73,0,0,1-11.87,3.86,6.56,6.56,0,0,0-1.38.25c-2,.54-2.62,1.55-2.06,3.65.24.9.66,1.75.94,2.64,4.33,14-4.42,26.11-19.14,26.48-.7,0-1.41-.13-2.11-.11-2,.05-2.65,1-1.59,2.7a22.16,22.16,0,0,1,3.67,13.28,18.36,18.36,0,0,1-17.31,17.91c-.93.08-1.87,0-2.8,0-4.46.14-4.68.46-2.79,4.16.43.83.94,1.62,1.33,2.47,5.3,11.52-.15,23.67-12.17,27.67-2.29.77-5.93-.35-6.65,2.64-.47,1.94,1.29,4.34,1.77,6.59,2.44,11.38-1.06,20.94-12.51,25.86-1.07.46-2.2.78-3.29,1.2-1.86.69-2.35,2.07-2,3.93.67,3.67,1.25,7.36,2,11,.39,2,1.43,2.73,3.51,2.37,1.84-.31,3.64-1,5.48-1.14a17,17,0,0,1,17.62,11.15,17.23,17.23,0,0,1-6.92,20.32,16.86,16.86,0,0,1-20.72-2.06c-1.77-1.75-3-4.14-4.19-6.36a34.3,34.3,0,0,1-1.39-4c-.87-2.15-1.7-2.56-3.75-1.8-2.63,1-5.2,2.1-7.84,3-5.26,1.85-5.36,2-4.65,7.51.65,5.13,1.31,6.91,7.07,4.93,2.56-.88,5.53-.72,8.32-.73a15.91,15.91,0,0,1,9.69,3.61c6.32,4.76,8.91,13.1,6.72,21.49-1.92,7.38-8.17,12.56-16.13,13.61-2.2.29-5.34-.94-6.31,1.57-.55,1.46,1.1,3.81,1.85,5.71,5,12.7-3.06,26.11-16.53,27.35-11.85,1.09-22.78-11.21-20.25-23,1.71-8,6.42-13.4,14.53-15.42,2.25-.56,4.6-.69,6.91-1,1.44-.23,2-1.1,1.46-2.47-1.32-3.48-2.72-6.93-4-10.41-.82-2.15-1.89-2.85-4.41-1.72-6.08,2.72-12.22,2.77-18.53,1.25a5.94,5.94,0,0,0-1.4,0l-2.36-1.18a9.54,9.54,0,0,0-1.15-1.74c-5.48-5.26-8.69-11.46-8.64-19.26,0-2.93-1.11-3.4-4.21-2.49-1.12.33-2.2.8-3.33,1.11a18.24,18.24,0,0,1-12.92-34,56.33,56.33,0,0,1,5.89-2.25c1.26-.47,2-1.31,1.53-2.67-1.11-3.32-2.32-6.61-3.47-9.92A3,3,0,0,0,1050,1504c-2.1.07-4.2.3-6.3.32-11.58.1-19.62-6.65-21.48-18-.22-1.38-.3-2.79-.6-4.15a2,2,0,0,0-2.64-1.61c-1.36.32-2.63,1-4,1.39-13,3.94-25-4.78-25.28-18.28-.05-2.2,1.29-4.58-.61-6.62-1.8,1-3.59,2-5.41,3-10.05,5.34-21.59,1.58-26.1-8.49-4.34-9.69.28-20.8,10.37-24.9,6.24-2.54,6.24-2.54,3.95-8.78s-2.25-6.11-8.46-5.21a28.28,28.28,0,0,0-3.45.61,2.75,2.75,0,0,0-2.17,3.14c.18,2.1.53,4.18.6,6.28.34,10.22-6,18.23-15.38,19.48-10.55,1.4-19-4.35-21.6-14.56-.53-2.13.52-5.37-2.25-6-1.69-.41-3.87,1.12-5.8,1.86a21.35,21.35,0,0,1-12.37,1.24c-2.24-.47-3.07.85-1.75,2.88a20.9,20.9,0,0,1,3.14,12c-.08,8.79-7.1,15-13.91,16.32a17.43,17.43,0,0,1-19.34-10.53,46.16,46.16,0,0,1-1.64-6.08c-.41-1.66-1.45-2.61-3-1.82a37.84,37.84,0,0,1-13.4,3.82c-2.34.23-2.87,1.47-2.38,4.1a54.8,54.8,0,0,1,1.29,6.86c.47,8.59-4.27,16.21-12,18.62-8.47,2.64-16.09,1.06-21.57-5.73a19.12,19.12,0,0,1,8.15-29.68,29.6,29.6,0,0,1,3.39-.89c5.29-1.32,5.24-1.31,3.43-6.51-.92-2.64-1.53-5.39-2.34-8.07a2.83,2.83,0,0,0-3.75-2.17c-1.36.33-2.75.58-4.13.82-11.41,2-21-4.13-23.88-15.37-.63-2.47-.65-5.09-1.2-7.58a2.38,2.38,0,0,0-1.94-1.3,38.91,38.91,0,0,0-4.57,1.73c-9.7,3.48-20.22-1-23.89-10.23-3.84-9.61.18-19.65,9.66-24.08,2.29-1.07,4.6-2.1,6.89-3.14-.94-3.33-1.82-6.67-2.84-10-.5-1.59-1.89-2-3.4-1.76-1.84.29-3.65,1-5.49,1.06-5.2.34-5.38,2.15-4.24,6.45,1.79,6.71.13,12.51-4.51,17.48-5.35,5.72-12.06,7.1-19.29,4.83s-11.17-7.38-12.33-14.76c-1.1-7-1.09-7-7.55-4.2-8.59,3.72-21.82,2.46-27.33-10.91-.36-.86-.6-1.78-.95-2.64-1.57-3.87-1.81-4-5.64-3.1-3,.67-5.94,1.22-8.91,1.84a2.94,2.94,0,0,0-2.61,3.5c.21,2.33.57,4.66.6,7,.11,9.25-5.66,16.72-14.1,18.39-9.83,1.94-17.94-2.22-21.93-11-1-2.23-.39-5.86-3.31-6.44-2-.4-4.37,1.21-6.61,1.76-1.81.44-3.69.57-5.52,1-3.48.73-4,1.43-3.34,4.75.21,1.15.64,2.26.82,3.41A18.9,18.9,0,0,1,611,1386.2c-8.68,2.94-18.12-1-22.52-9.46a12.61,12.61,0,0,1-.87-1.91c-1.9-6.15-3.51-5.35-8.19-3.39-.43.18-.9.27-1.34.43-2.38.87-5.68,1.09-6.89,2.79s-.49,4.88-.31,7.39a19.6,19.6,0,0,1-17,20.65c-10.71,1.44-19.75-5.12-22-16-.57-2.69-.78-5.45-1.16-8.18-3.05-.49-5,2.3-7.68,2.69-2.54.35-5.1.59-7.65.87-3.19.36-3.78,1.2-2.68,4,.61,1.52,1.41,3,1.95,4.51,3.8,10.71-1.68,21.54-12.66,25.09a19.15,19.15,0,0,1-23.9-12.76c-3.15-10.62,2.56-21.49,13-24.44,2.65-.74,5.52-.7,8.29-1,1.83-.2,2.41-1.14,1.65-2.9-.84-1.92-1.93-3.76-2.6-5.74A19.3,19.3,0,0,1,515,1343.31c2.2-.22,5.33,1.08,6.3-1.43.54-1.39-1.45-3.68-2.11-5.63-5.59-16.46,5.48-26.77,16.48-26.89,6.45-.08,6.63-.51,3.62-6.45a19.31,19.31,0,0,1,16-28.28,25.2,25.2,0,0,0,3.48-.38,1.79,1.79,0,0,0,1.47-2.59c-.44-1.32-1.19-2.54-1.64-3.86-4.7-14,1.85-24.71,14.24-27.87,5.77-1.47,5.76-1.5,3.94-7-4.17-12.67,1.21-23.76,13.65-28.08.88-.31,1.81-.45,2.71-.71a2.57,2.57,0,0,0,2-3.19c-.78-3.89-1.64-7.77-2.55-11.63-.33-1.43-1.47-1.69-2.73-1.38s-2.67.88-4,1.17c-10.29,2.2-20-3.55-22.31-13.21-2.59-10.69,3.36-20.44,14.07-23,1.36-.33,2.79-.35,4.16-.64,1.7-.38,2.27-1.46,1.4-3.15a35.78,35.78,0,0,1-3.62-11.29c-.52-3.48-1.43-3.81-4.76-3.07a41.8,41.8,0,0,1-8.22,1.44c-9.85.11-17.34-6.62-18.86-16.34-.37-2.38,1.09-5.89-1.89-6.82-1.77-.55-4.33,1.13-6.44,2-9.53,4.09-20.38-1.94-23.75-10.44a18.76,18.76,0,0,1,10-24.57,9.88,9.88,0,0,1,1.32-.48c5.41-1.54,6-2.25,3.69-7.86-1.14-2.74-1.25-5.91-1.9-8.86-.41-1.88-1.7-3-3.56-2.36-5.93,2.18-11.53.54-17.17-1.07ZM1400.33,1224c-.5,2.28.31,2.64,2.63,1.67,2.76-1.15,5.58-2.18,8.39-3.19,2.32-.84,5.15.85,7.2-1.4l-3.36-6.7c-.11-.2-.22-.41-.31-.62-3.07-7.81-2.33-7.62-12-4.74l-.66.21c-1.87.52-2.54,1.79-2.43,3.67C1400,1216.57,1400.17,1220.27,1400.33,1224ZM540.22,1346.82v0c-1.62.1-3.24.16-4.85.32-3.66.36-4.06,1.1-2.62,4.3,1,2.3,2,4.65,2.85,7,1,2.7-.73,6.1,2.14,8.33l8.28-3.23c.43-.17.84-.39,1.27-.57,1.58-.67,1.84-2,1.47-3.43-.82-3.37-1.78-6.7-2.51-10.09-.49-2.27-1.79-3.07-4-2.85Zm642-765.64c2.21-.11,4.08-.12,5.93-.31s2.65-1.36,1.91-2.89a26.83,26.83,0,0,1-2.2-15c.12-1.09-.74-2.05-1.72-1.2a36.8,36.8,0,0,1-11.27,6.89,2.7,2.7,0,0,0-1.8,3.35c.2.91.49,1.8.71,2.7C1175.89,583.16,1176.27,581.77,1182.21,581.18ZM911,405.11a9.14,9.14,0,0,0-2.1.72,28.73,28.73,0,0,1-11.47,4.91,2.77,2.77,0,0,0-1.26.56c-1.88,1.6-.94,3.43-.24,5.1.93,2.2.5,5.84,4,5.73a72.68,72.68,0,0,0,12.37-1.88,3.13,3.13,0,0,0,1.59-2.58c-.38-3.68-1.06-7.34-1.73-11C912.06,406.12,911.43,405.65,911,405.11Zm50.35,79.25c0-.82.06-2.67,0-4.52-.12-2.88-1.06-3.37-3.35-2-2.56,1.56-5.12,3.12-7.75,4.52-3.37,1.8-3.53,2.06-2.22,6,.37,1.1.74,2.2,1.21,3.26,1.38,3.09,1.94,3.57,5.31,3.05,7.9-1.22,8.47.28,7-8.61C961.49,485.86,961.48,485.62,961.37,484.36Zm492.54,720.21h-.1c0,1.4,0,2.8,0,4.19.06,2.44,1,3.22,2.92,2.06a26.24,26.24,0,0,1,11.07-4,2,2,0,0,0,1.74-3.07,74.74,74.74,0,0,0-3.9-7.41,2.92,2.92,0,0,0-2.21-1.36c-2.93.55-5.81,1.41-8.7,2.16-.28,2-.57,4-.82,6A10.73,10.73,0,0,0,1453.91,1204.57Zm-886.31-441c-.29-2.05.15-4.89-1-6-2.05-1.87-4.08,1.13-6.26,1.54s-4.59.83-6.87,1.34c-1.69.38-2.34,1.59-1.62,3.13,1.2,2.54,2.48,5,3.81,7.5.89,1.63,2.35,2,4.18,1.79C567.11,772,567.66,771.34,567.6,763.57ZM557,993.93c-1.66-.16-2.35-.29-3-.28-1.93,0-2.49.92-1.71,2.67q2.1,4.8,4.17,9.61c1,2.41,1.68,2.7,4.37,1.88.44-.14.87-.33,1.31-.49,7.23-2.59,7.68-3.43,5.72-10.68-.93-3.45-1.47-3.89-4.82-3.54C560.68,993.34,558.38,993.73,557,993.93Zm674.58,351.62c.15,1.79.27,3.18.38,4.58.52,6.5.52,6.49,6.4,4.44a18.39,18.39,0,0,1,4-1.19c5-.51,5.4-2.44,3.2-6.49-.55-1-.94-2.14-1.47-3.18-1.81-3.57-2.19-3.77-5.93-3.07a30.17,30.17,0,0,0-3.42.75C1232,1342.23,1231.5,1342.93,1231.58,1345.55Zm-81-790.1c-.27-2.74-.46-4.81-.67-6.88-.46-4.69-.75-4.86-4.89-3.22a64,64,0,0,1-6.52,2.32c-4.94,1.34-5,1.28-3.18,5.63,3.4,8.31,2.34,7.21,11.1,5.26a4.44,4.44,0,0,0,2-.61A23.21,23.21,0,0,0,1150.58,555.45Zm-55.38,10.71h-.15c0-.46-.07-.93-.1-1.39-.4-7-.4-7-6.89-4.92-.66.22-1.33.42-2,.59-6.63,1.73-6.51,1.68-3.89,8.07,2.56,6.23,2.67,6.5,9.91,4.29.44-.14,1.05-.15,1.29-.45a8.06,8.06,0,0,0,1.77-2.73A13.29,13.29,0,0,0,1095.2,566.16ZM993,1444.8a28.54,28.54,0,0,0-.4,3.83c0,.61.32,1.53.75,1.72a2.59,2.59,0,0,0,1.9-.41c3.22-1.79,6.45-3.56,9.54-5.55a3.47,3.47,0,0,0,1.47-2.7c-1-7.8-4-9.76-11.65-7.93-2.49.6-3,1.29-2.71,3.9S992.73,1443.11,993,1444.8Zm-116.6-22.37a57.08,57.08,0,0,1,5.84-1.41c2.72-.36,5.47-.47,8.2-.68.15-3.31-2.81-5-3.95-7.72-2.65-6.25-2.85-6.2-9.14-3.94-3.85,1.38-4.14,1.83-3.74,6.15a29.52,29.52,0,0,0,.77,5.49C874.62,1421.19,875.76,1421.8,876.39,1422.43Zm-255.74-671c-.13-1.15-.25-3-.59-4.86a2.36,2.36,0,0,0-3-2.14c-3.44.65-6.87,1.28-10.3,2-1.65.34-2.22,1.55-1.47,3.17,1.08,2.33,2.23,4.63,3.4,6.92,1.38,2.7,2,3,5,2.31,1.13-.28,2.26-.61,3.36-1C620.52,756.66,620.83,756.16,620.65,751.46Zm-69.53,342.23c.61,6.7.91,7.94,1.91,7.71a49.29,49.29,0,0,0,7.06-2.56c6.15-2.54,6.19-2.59,4.09-7.5-.79-1.86-1-4.74-3.43-4.84-2.93-.13-5.92.72-8.85,1.32-.43.09-.92,1.09-.95,1.69A34.38,34.38,0,0,0,551.12,1093.69ZM450.23,792c-1.4.18-3.25.33-5.06.7-2,.41-2.57,1.53-2,3.6.85,3.36,1.78,6.69,2.7,10,.49,1.77,1.73,2,3.22,1.39,9.26-4.06,9.37-2,6.18-12.83C454.36,791.91,453.86,791.75,450.23,792Zm713.94,610.18c2.79-.43,4.85-.85,6.93-1,5.93-.51,5.93-.46,3.17-6.07a15.28,15.28,0,0,1-1.14-2.55c-1.83-6.65-3.24-6-9.12-3.58-3,1.22-3.39,2.12-3,5.44a23.33,23.33,0,0,0,1,5.49C1162.38,1400.89,1163.65,1401.61,1164.17,1402.14Zm148.32-100.47c4.73,0,8,.07,11.2-.1.43,0,1.27-1.48,1.09-2-.87-2.39-2.16-4.64-3-7-2.18-5.8-2.12-5.82-7.74-3.35-.85.37-1.68.8-2.55,1.14a3.19,3.19,0,0,0-2.3,3.81,25.56,25.56,0,0,0,1.62,6A3.15,3.15,0,0,0,1312.49,1301.67Zm-578.9,34.6c.55,8.55.55,8.55,8.28,5.48l1.31-.49c5.82-2.13,5.82-2.13,3.31-7.64-2.25-4.93-2.43-5-8-3.92a7.81,7.81,0,0,0-2.7.63,5.42,5.42,0,0,0-2.1,2.48A11.38,11.38,0,0,0,733.59,1336.27Zm417.85,98.44c1.53-.49,3.88,1.5,6-.34-1-2-2-4.08-2.87-6.17-.72-1.7-1.27-3.47-2-5.19a2.5,2.5,0,0,0-3.38-1.52c-.89.26-1.74.63-2.6,1-5.27,2.11-5.49,2.66-4.59,8.28.65,4.06,2,5.35,6,4.37C1148.94,1434.9,1149.88,1434.89,1151.44,1434.71ZM788.52,622.54c-.36-2.9-.57-5.22-1-7.51-.35-2-1.32-2.57-3.53-2.22a8.14,8.14,0,0,0-2,.54c-2.68,1.21-6.13-.42-8.39,2.28,1.16,3,2.29,6,3.49,9a3.12,3.12,0,0,0,3.88,2.11,22.61,22.61,0,0,0,5.33-1.56C787.37,624.62,788,623.23,788.52,622.54Zm286,908.64c.37,2.27.63,4.57,1.15,6.81a2.1,2.1,0,0,0,3.14,1.62c2.35-.95,4.66-2,7-3,4.15-1.72,4.67-2.7,3.43-6.72-.93-3-2-3.74-5.08-3.31-2.29.32-4.54.87-6.81,1.24A3,3,0,0,0,1074.52,1531.18Zm222.62-206.27c-2.25.65-4.5,1.25-6.72,2-3.84,1.22-4.13,1.64-3.79,5.4a17.31,17.31,0,0,0,.59,3.44,2.59,2.59,0,0,0,3.16,2.07c3.44-.58,6.9-1.14,10.31-1.9.73-.16,1.91-1.38,1.79-1.72a83.73,83.73,0,0,0-3.47-8.31C1298.79,1325.37,1297.84,1325.24,1297.14,1324.91ZM532.44,889a21.72,21.72,0,0,0-4.61.71,3.22,3.22,0,0,0-1.79,2.5,89.17,89.17,0,0,0,1.74,10.25,2.4,2.4,0,0,0,2.1,1.07,67.89,67.89,0,0,0,6.91-3.26c3.33-1.73,3.57-2.39,2.52-6.06C538,889.64,537.21,889,532.44,889Zm281.7,486.09c-.8-2.33-1.35-4.34-2.18-6.22-.33-.75-1.33-1.77-1.94-1.72-3.18.29-6.71.16-9.35,1.6-2.26,1.22.17,4.18.24,6.39a35.48,35.48,0,0,0,.5,4.82c.3,1.83,1.35,2.47,2.92,1.76a71.4,71.4,0,0,0,7.44-3.68C812.8,1377.46,813.38,1376.12,814.14,1375.13ZM556.46,1313c-6.6.06-6.57,0-3.63,5.7,1,1.86,1.64,3.86,2.5,5.78,1.17,2.59,2.2,3,5,2,.87-.32,1.69-.78,2.54-1.16,2-.89,2.62-2.38,2.46-4.52C564.76,1313.37,564.33,1312.94,556.46,1313Zm838.89-470.79c.65-.06,1.58-.13,2.51-.23a20.44,20.44,0,0,0,2.08-.31c2.87-.63,3.62-1.55,3-4.36-2.62-10.91-1.4-10.47-11.83-5.75a2.83,2.83,0,0,0-1.7,3.43,28.47,28.47,0,0,0,1.12,4C1391.47,841.9,1392.06,842.27,1395.35,842.24Zm-47.92,386.87c0,6.14,1.19,7,7.51,5.68a7.34,7.34,0,0,0,1.34-.36c2.06-.92,5.48,1,6.18-1.59.47-1.7-1.62-4.11-2.56-6.19-.19-.43-.38-.86-.6-1.26-1.66-3-2.21-3.2-5.6-2.31a22.14,22.14,0,0,0-2.65.86C1348,1225.18,1347.43,1226,1347.43,1229.11Zm162-104.51c-.17-2.28-.23-4.14-.47-6s-1.41-2.29-3-1.53c-2.5,1.17-5,2.43-7.45,3.65s-3,2.18-2,4.93c1.69,5,3,5.8,8.16,5,.92-.13,1.82-.34,2.73-.48,2-.29,2.87-1.29,2.46-3.33C1509.6,1126,1509.5,1125.07,1509.42,1124.6ZM925.94,1400.34c.16,1.35.29,3.46.7,5.51.33,1.65,1.55,2.24,3.18,1.67,2.42-.85,4.85-1.7,7.25-2.62,2-.77,2.49-1.79,1.84-3.8a26.61,26.61,0,0,0-1.07-2.59c-2.23-5-2.68-5.28-7.92-4.14C926.2,1395.17,925.8,1395.69,925.94,1400.34Zm-318.8-243-9.67,2.19c.7,2.66,1.38,5.33,2.09,8a17.9,17.9,0,0,0,.72,2c.66,1.61,1.92,1.89,3.42,1.39,1.11-.37,2.19-.82,3.25-1.28,5-2.17,5.51-3.36,3.76-8.58a3,3,0,0,0-.52-1.28C609.22,1158.9,608.16,1158.14,607.14,1157.35Zm822.58-530.74c-.19-1.28-.36-2.43-.55-3.58-1.1-6.61-2-7.11-8.13-4.67-2.77,1.1-3.31,2-2.57,4.75a39.92,39.92,0,0,0,2,5.93c1,2.32,2.73,2.75,5.93,1.83C1429.32,630,1429.94,629.21,1429.72,626.61Zm-852,652.68c-7.42.24-7.42.23-4.28,6.67.51,1,1,2.1,1.43,3.17.75,1.82,2.06,2.46,3.89,1.77a16.79,16.79,0,0,0,4.4-2,5.34,5.34,0,0,0,2.07-3.3c.29-4.84-.89-7.64-6.13-6.38A7.88,7.88,0,0,1,577.68,1279.29ZM734.85,633.15c-.12-1.12-.19-1.81-.26-2.51-.49-4.78-.57-4.83-5-3.27l-2.64.94c-4.58,1.65-5.68,1.54-2.7,7.56a9.84,9.84,0,0,0,1.5,2.34,3.27,3.27,0,0,0,1.78.95C732.38,639.93,735.16,637.43,734.85,633.15Zm709.9,285.27c4.73-.53,7.21-.62,4.76-6.75-.42-1.07-.53-2.26-.85-3.37-1.16-4-2.25-4.58-5.9-3-3.06,1.32-3.62,2.16-3.06,5.29.33,1.81.91,3.59,1.41,5.37A3.1,3.1,0,0,0,1444.75,918.42Zm-260.16,448.76c.67-.09,1.14-.11,1.59-.22,1.14-.25,2.27-.52,3.4-.81,3.74-.94,4-1.26,2.68-4.57a55.27,55.27,0,0,0-2.19-5.13,2.82,2.82,0,0,0-3.45-1.68,18.79,18.79,0,0,0-3.92,1.38c-2.34,1.27-2.25,9.33.08,10.61A6.69,6.69,0,0,0,1184.59,1367.18ZM591.11,1106.67c-.72.07-1.88.1-3,.29-2.72.45-3.59,1.52-3,4.35,1.73,8.12,1.08,8.52,9,4.87a7.57,7.57,0,0,0,1.82-1,3.58,3.58,0,0,0,1.14-1.65C598,1110,595.28,1106.65,591.11,1106.67ZM886.9,449.74c-.11-3.32-1.41-4.69-3.93-4.46a47.28,47.28,0,0,0-6.92,1.11c-2.79.68-3.25,1.76-2.32,4.68a15,15,0,0,0,.73,2c.8,1.7,2.1,2.51,4,1.87A40.32,40.32,0,0,0,885,452.4C886,451.84,886.48,450.35,886.9,449.74ZM1509.38,1185c.14,1.13.26,2,.36,3,.08.69.09,1.39.21,2.08.46,2.59,1.27,3.09,3.83,2.43,7.29-1.86,8.4-5,3.94-11.23a3.75,3.75,0,0,0-1.56-1.29A5.06,5.06,0,0,0,1509.38,1185ZM1382.54,788.85c6.25-.26,6.92-1.28,4.67-7.14a6.23,6.23,0,0,0-1.17-2.47,4.48,4.48,0,0,0-2.87-1.24,12.23,12.23,0,0,0-3.92,1.3c-2.65,1.2-3.14,2.12-2.78,4.83C1377,788.07,1378.22,789,1382.54,788.85Zm-870.16-11a20.62,20.62,0,0,0,0-2.08c-.25-2.6-1.22-3.34-3.62-2.61a57.6,57.6,0,0,0-6.52,2.36,2.9,2.9,0,0,0-1.57,2c-.24,5.45,4.45,8.55,9.29,6.29C512.62,782.58,512.42,780.2,512.38,777.89ZM1129.52,1468c4.5,0,5.76-1.59,3.85-5.45-.52-1-.9-2.14-1.39-3.2-.61-1.34-1.44-2.45-3.15-2.11-2.1.4-4.26.91-4.93,3.28C1122.73,1464.68,1125.36,1468.07,1129.52,1468Zm-97-13.84c-.49.07-1.19.14-1.88.27-3.22.58-3.8,1.44-3.21,4.83.12.69.32,1.36.48,2,1,4.43,1.69,4.77,5.57,2.94.63-.3,1.25-.64,1.88-1,2-1,2.53-2.55,1.93-4.65C1036.44,1455.54,1035.13,1454.22,1032.56,1454.2ZM648.22,1330.73c0,3.32,1.24,5,3.53,4.84,4.63-.27,7.31-1.76,7.06-4-.36-3.29-2.43-5.95-4.67-6C650.45,1325.5,648.18,1327.46,648.22,1330.73Zm194.62,57.91c-.62.08-1.54.14-2.44.33-2.4.5-3.13,1.44-3.06,3.79.16,5.71,2.08,6.92,7.38,4.66.21-.09.41-.2.62-.3,2.35-1.12,2.85-2,2.31-4.27C846.86,1389.7,845.69,1388.6,842.84,1388.64Zm-248-43.41c0,.28.08,1.2.25,2.09.51,2.63,1.72,3.4,4.43,2.88,5.59-1.07,6.12-2.14,3.58-7.28a19.73,19.73,0,0,0-.92-1.84c-1.2-1.9-2.54-2.25-4.69-1.48C595.07,1340.48,594.77,1342.41,594.87,1345.23Zm3.5-99.31c-5.38,0-5.45,2-3.93,5.32a16.65,16.65,0,0,0,1.74,3.74,3.93,3.93,0,0,0,2.88,1.28c3.12-.25,4.87-2.19,4.75-4.79C603.63,1247.52,602.09,1245.94,598.37,1245.92Zm825-293.36c1.07-.1,1.54-.13,2-.2,1.15-.16,2.31-.32,3.45-.54,2.79-.53,3.27-1.25,2.39-3.72a38.64,38.64,0,0,0-1.68-3.85,2.65,2.65,0,0,0-3.54-1.37,15.12,15.12,0,0,0-4.37,2.11c-1.7,1.34-1.53,3.42-.68,5.13C1421.43,951.21,1422.69,951.94,1423.33,952.56Zm50.34,152.67c0-.08,0-.78-.11-1.47-.49-3.74-1.68-4.51-5.07-2.94-1.63.76-3.53,1.66-4.43,3.06-1.07,1.66.08,3.64,1.38,5,1.66,1.79,3.84,1.34,5.87.74C1473.13,1109.12,1473.73,1107.64,1473.67,1105.23ZM585.92,967.86c-.06-3.23-1.66-5.11-4.34-5.13-3.18,0-5.23,1.25-5.24,3.23,0,3.57,1.74,6.69,3.68,6.57C583.22,972.32,586,970.15,585.92,967.86ZM1199.16,627.4c-.11-3.39-1.23-5.53-2.91-5.59-3.11-.1-6.8,2.47-6.68,4.65.18,3.26,2.16,5.14,5.26,5S1199.24,630.08,1199.16,627.4ZM1372,637.09c-.08-.64-.2-1.8-.41-2.94a2.81,2.81,0,0,0-3.43-2.59c-5.49.55-6.38,2.29-3.63,7.27.11.2.22.41.35.6,1.2,1.94,2.61,2.49,4.68,1.89C1371.41,640.77,1372,639.42,1372,637.09Zm-139.89,8c-.11-3.89-1.66-5-5.2-3.66a8.25,8.25,0,0,0-2.47,1.16,3.88,3.88,0,0,0-1.4,2.19c-.32,2.72,1.8,5.37,4.07,5.38C1230.53,650.23,1232.18,648.56,1232.08,645.14Zm188.12,392.27c3.1.07,4.76-.85,4.91-2.71.24-3-1.25-6.3-2.93-6.52-2.5-.34-6.31,2.16-6.4,4.2C1415.64,1035.39,1417.36,1037.35,1420.2,1037.41ZM685.8,700.6c-.78.1-1.71.18-2.62.34-2.49.44-3,1.44-2.21,3.92a16.26,16.26,0,0,0,.76,1.94c1.47,3.09,3.09,3.62,6.12,2.05,2.21-1.15,2.76-2.54,2-5.21C689.26,701.32,688.29,700.57,685.8,700.6ZM488.53,821.28c-.2-3.41-2.15-5.72-4.75-5.62-2.89.12-4.23,1.29-4,3.53.4,4.26,1.84,6.47,4,6.17C486.68,825,488.64,823.27,488.53,821.28ZM918.27,472.94c1.55-.16,2.25-.17,2.92-.31,3.17-.61,4.26-2.38,3.4-5.48-.72-2.6-2.14-3.09-5.43-1.79a16.77,16.77,0,0,0-3.09,1.53,2.43,2.43,0,0,0-.74,3.61A13.41,13.41,0,0,0,918.27,472.94Zm88.59,89.49c0-2.94-1-4.86-2.65-4.94-2.6-.14-5.64,1.91-5.72,3.85-.1,2.63,1.56,4.75,3.77,4.81C1005.23,566.24,1006.88,564.91,1006.86,562.43ZM671.21,737.93c0-2.62-1.32-4.23-3.56-4.25-3.16,0-5.58,1.39-5.42,3.17.23,2.54,2.22,4.95,4.1,5C669.14,741.84,671.19,740.21,671.21,737.93Zm364.34-153c.45-.09.92-.14,1.36-.25,2.65-.7,3.68-2.55,3-5.31-.57-2.21-2.14-2.79-5-1.86a10.25,10.25,0,0,0-1.3.5c-1.62.77-2.65,1.87-2.06,3.84A3.89,3.89,0,0,0,1035.55,584.93ZM703.14,1315.22c0,2.82,1,4.82,2.71,5,2.2.2,4.78-1.29,4.95-2.86.3-2.67-1.59-5.66-3.7-5.85A3.55,3.55,0,0,0,703.14,1315.22Zm615.22-664.86a12,12,0,0,0-.63-2.58c-.21-.52-1.11-1.24-1.49-1.13-1.89.53-4,.94-5.42,2.16-.64.56,0,3,.52,4.36.82,2.08,2.38,2.64,4.42,2.1C1318,654.7,1318.52,653.12,1318.36,650.36ZM566.08,918.52a30.33,30.33,0,0,0,4-1.82c1.77-1.14,1.64-4-.1-5.33a4.86,4.86,0,0,0-5.77.29c-1.46,1.36-1,3-.36,4.49C564.28,917.05,565.29,917.69,566.08,918.52ZM1410,662.59a22.65,22.65,0,0,0-1.52-4.69,3.39,3.39,0,0,0-2.67-1.44,3.58,3.58,0,0,0-2.58,1.84,5,5,0,0,0,1.26,5.65c.83.7,2.5.69,3.73.53C1408.87,664.4,1409.38,663.3,1410,662.59Zm-305.08,838c1.87-.56,3.55-.78,4.91-1.57a3.22,3.22,0,0,0,1.23-2.75c-.2-.88-1.48-2.21-2.2-2.15a13,13,0,0,0-5.23,1.55,3.19,3.19,0,0,0-1.07,2.84C1102.81,1499.37,1104.1,1499.92,1104.93,1500.61Zm308.26-610c.31-2.35-.85-4.78-2.42-5.06-1.72-.31-3.89,1.17-4.08,2.78-.27,2.19,1.14,4.42,3,4.69A3.12,3.12,0,0,0,1413.19,890.6Zm-8,93.58c2.65,0,4.16-.79,4.31-2.37.22-2.25-1.36-4.39-3.25-4.39-2.35,0-4.21,1.44-4.39,3.4S1402.93,984.14,1405.17,984.18ZM622.88,1216.63c0-1.92-1.47-3.08-3.78-3-2.09,0-3.35,1-3.39,2.59-.05,2.08,1.3,3.93,2.94,4C620.88,1220.33,622.91,1218.61,622.88,1216.63Zm800.39-37a30.18,30.18,0,0,0,.62,3.06,2.5,2.5,0,0,0,3.25,1.81,2.53,2.53,0,0,0,2.17-3,8.57,8.57,0,0,0-.82-2.63c-.68-1.32-1.78-2.42-3.32-1.59C1424.31,1177.74,1423.83,1178.92,1423.27,1179.66ZM970.13,539.14c-3-.15-5.17,1.25-5.38,3a3.11,3.11,0,0,0,2.83,3.22c2.44.22,4.4-1.21,4.08-3.27A9.06,9.06,0,0,0,970.13,539.14Zm235.05,791.55c.59-.51,2-1.16,2.38-2.19.71-2.13-1.09-4.61-3-4.51a2.69,2.69,0,0,0-2.72,2.59C1201.57,1328.84,1202.69,1330.54,1205.18,1330.69Zm171-135.59c-.22-2.14-1.67-3.7-3.38-3.64-1.56.06-2.66,1.57-2.51,3.45s1.32,3.25,2.89,3.21A2.92,2.92,0,0,0,1376.17,1195.1ZM902.09,1381.75c.28-2.73-1.49-5.06-3.38-5-1.66.07-2.44,1.15-2.51,2.74-.11,2.31,1.16,4.22,2.86,3.91C900.24,1383.21,901.28,1382.22,902.09,1381.75Zm359.5-69.2a3.16,3.16,0,0,0-2.93-3.26,3.1,3.1,0,0,0-3.4,2.74c-.08,1.51.45,2.78,2.09,3.13C1259.36,1315.59,1261.46,1314.24,1261.59,1312.55ZM857.35,572.42a2.94,2.94,0,0,0-3.17-2.88c-1.91,0-3.18,1.29-3,3a3,3,0,0,0,3.11,3A3.16,3.16,0,0,0,857.35,572.42Zm-149,95.65c-1.1.18-1.78.26-2.45.4-2.38.51-3.3,1.53-2.71,3,.75,1.91,2.24,2,3.93,1.55.65-.2,1.51-.34,1.84-.81a5,5,0,0,0,1.09-2.82C710.06,668.88,708.84,668.4,708.39,668.07ZM593.93,783.25c-.45.62-1.68,1.57-1.78,2.62a3.54,3.54,0,0,0,3.21,3.73c1.55,0,2.6-1.58,2.34-3.51S596.27,783,593.93,783.25Zm531.83-196.09a2.62,2.62,0,0,0-3.07-2.83c-1.43.17-2.76.61-2.88,2.36a3.43,3.43,0,0,0,3.19,3.73A2.94,2.94,0,0,0,1125.76,587.16Zm38,20.4c-.66-.47-1.61-1.67-2.65-1.76-2.16-.19-4.06,1.63-3.56,3.21a3.5,3.5,0,0,0,2.3,2C1162.19,611.4,1163.8,610.07,1163.79,607.56ZM520,838c-2.47.17-3.66,1.5-3.45,3.2a2.37,2.37,0,0,0,2.8,2.29c1.82-.14,3.33-1.68,2.79-3.12C521.71,839.33,520.51,838.59,520,838ZM766.08,655.08a22.75,22.75,0,0,0-2.51-3.86c-.33-.34-1.84,0-2.43.47-1.27,1-1,3.07.65,4.86a2.82,2.82,0,0,0,2.34.76C764.8,657.12,765.24,656.1,766.08,655.08Zm69.6-45.66c.53-.63,1.7-1.46,2-2.52a2.66,2.66,0,0,0-2.46-3.36c-1.47-.11-2.75.4-3.09,2C831.74,607.3,833.35,609.31,835.68,609.42Zm644.08,552.14c-.33.85-1.12,2-1.11,3.11,0,2.13,1.32,3.28,2.9,3s2.1-1.57,1.86-3.09C1483.09,1162.51,1481.85,1161.29,1479.76,1161.56ZM623.92,1133c2.86.08,4.8-1.07,4.88-2.72.07-1.37-.86-2.06-2.19-2.16-2.5-.2-4.28.81-4.09,2.57C622.61,1131.57,623.55,1132.39,623.92,1133Zm-43.41-76.28a9.89,9.89,0,0,0-1.09-2.83c-.51-.61-1.89-1.33-2.16-1.11a5.33,5.33,0,0,0-1.57,2.6,3.1,3.1,0,0,0,.55,1.94c.55,1.09,1.41,2,2.7,1.3C579.63,1058.22,580,1057.32,580.51,1056.69Zm779.88-236.8c1.15-.18,2,0,2.46-.44.72-.7,1.67-1.79,1.56-2.58s-1.31-1.71-2.22-2a3.22,3.22,0,0,0-2.51.75c-.62.49-1.34,1.63-1.16,2.2C1358.81,818.69,1359.84,819.33,1360.39,819.89Zm27.07-127c-1.35,1.19-2.61,1.84-3.13,2.87-.69,1.38.88,3,2.67,3,1.46,0,2.89-.62,2.6-2.31C1389.42,695.32,1388.38,694.35,1387.46,692.9Zm49.32,393.65c-.24-.82-.24-1.49-.51-1.63-.76-.37-1.8-.92-2.41-.66a11.46,11.46,0,0,0-3,2.35c-.13.12.18,1.11.38,1.14a12.67,12.67,0,0,0,3.81.3C1435.72,1087.94,1436.29,1087,1436.78,1086.55ZM1303,1242.1c-1.35-.92-2.12-1.82-3-2a1.92,1.92,0,0,0-2,2.67,3.21,3.21,0,0,0,2.43,1.61C1301.14,1244.35,1301.85,1243.17,1303,1242.1Zm-509.26,74.6c-1.13,1.36-2.09,2.06-2.35,3a2,2,0,0,0,2.27,2.6c.9-.21,2.31-1.33,2.25-1.91C795.79,1319.27,794.76,1318.3,793.74,1316.7Zm83.89-777.79c-1-1.09-1.53-2-2.23-2.23-1.45-.5-3,0-3.35,1.51-.16.73,1.05,2.48,1.62,2.47C874.81,540.64,875.93,539.73,877.63,538.91Zm193.72,938.35c-2.33-.47-3.55-1-4.72-.87a1.9,1.9,0,0,0-1.7,2.47,1.75,1.75,0,0,0,2.6,1.34C1068.61,1479.72,1069.47,1478.75,1071.35,1477.26Zm-2.68-879.11c-.51,1.88-1.18,3-.94,3.8a4,4,0,0,0,2.14,2.24c1.07.42,2-1.44,1.41-3.09C1071,600.23,1070,599.6,1068.67,598.15Zm195.51,68.74c-1.15-1.1-2-2-2.93-2.83-.57.64-1.54,1.22-1.64,1.92-.26,1.94,1.34,3.75,2.65,3.16C1262.94,668.83,1263.35,667.91,1264.18,666.89Zm-279,714.5c-.83,1.54-1.61,2.36-1.68,3.25a1.76,1.76,0,0,0,2,2c1.26-.13,2.17-1,1.8-2.25C987.09,1383.54,986.23,1382.81,985.17,1381.39Zm381.52-653.84c-.8,1.34-1.52,2.15-1.7,3.07-.06.31,1.26,1.23,2,1.26,1.28,0,2.24-.82,1.82-2.2C1368.57,729,1367.69,728.53,1366.69,727.55ZM818.64,640.89c-1.11-.79-1.73-1.52-2.49-1.72-1.1-.28-2.18,1.26-1.57,2.34a2.74,2.74,0,0,0,2,1.34C817.19,642.82,817.74,641.8,818.64,640.89ZM544.11,801.68c-1.29-1.1-2.15-1.89-3.11-2.55-.06,0-1.12.86-1.16,1.37-.1,1.41.26,2.87,2,3C542.37,803.56,543,802.59,544.11,801.68Zm777.33,406.84a11.2,11.2,0,0,0-2.52-2c-.3-.12-1.42.81-1.37,1.13a3.11,3.11,0,0,0,1.2,2.09C1319.18,1209.94,1320.12,1209.15,1321.44,1208.52ZM647.87,769.93c-.73,1-1.49,1.66-1.37,2a14.37,14.37,0,0,0,1.51,2.73c.55-.58,1.6-1.23,1.53-1.72C649.41,772,648.62,771.2,647.87,769.93Zm-4.62,413.21c-1.53-.84-2.27-1.59-2.93-1.53a2.57,2.57,0,0,0-1.9,1.43c-.14.49.9,1.86,1.3,1.82C640.66,1184.75,641.53,1184,643.25,1183.14Zm-46.34-165.48c-.86,1.21-1.67,2-1.88,2.83-.08.34,1.15,1.37,1.84,1.43,1.23.12,2.33-.65,2.08-2C598.83,1019.21,597.89,1018.68,596.91,1017.66Zm781.27-148.12c-1.63-.52-2.5-1.11-3.1-.9s-1.15,1.17-1.71,1.8c.72.37,1.47,1.08,2.16,1S1376.81,870.58,1378.18,869.54Zm-615.53,431a18.39,18.39,0,0,0-2.83-2c-.13-.06-1.08,1-1,1.34a3.07,3.07,0,0,0,1.53,1.62C760.8,1301.65,761.52,1301,762.65,1300.49Zm-143,8.36-2.11-2.45c-.45.4-1.35,1-1.28,1.16a17.5,17.5,0,0,0,1.54,2.59Zm210.32,30.34c-.71-.9-1.12-1.77-1.42-1.73a7.81,7.81,0,0,0-2.16.92c.29.52.55,1.44.89,1.47A9.5,9.5,0,0,0,829.92,1339.19Zm189.48,63.1c-.52.61-1.21,1.08-1.22,1.56s1,1.24,1.18,1.15a8.11,8.11,0,0,0,1.62-1.54ZM898.71,504.34c-1.35-.34-2.08-.78-2.51-.58a8.27,8.27,0,0,0-1.9,1.67c.58.24,1.24.78,1.72.64A12.46,12.46,0,0,0,898.71,504.34Zm383.61,770.73c-1.22-.29-2-.69-2.64-.55-.43.09-.7.94-1,1.45a6.64,6.64,0,0,0,2.08.87C1281.08,1276.85,1281.49,1276,1282.32,1275.07Zm-328.88,89.38-1.52-1.42-1.4,1.7c.48.37,1,1,1.45,1S952.84,1365,953.44,1364.45Zm180,9.2c-.67-.56-1.14-1.25-1.61-1.25s-1,.65-1.47,1a8.41,8.41,0,0,0,1.6,1.56C1132.06,1375.07,1132.75,1374.23,1133.39,1373.65ZM934,521c-1.12,1.69-1.55,2.34-2,3,.37.23.85.73,1.08.63a4.22,4.22,0,0,0,1.86-1.32C935.09,523,934.49,522.2,934,521ZM556,859.17c-.93-.26-1.62-.68-2.09-.51s-.68,1-1,1.47c.55.24,1.17.77,1.62.65S555.31,859.91,556,859.17Zm56.59,216.23c-.22.32-.61.64-.6.94s.53.46.82.68c.22-.31.61-.63.6-.94S612.84,1075.63,612.54,1075.4Zm498.77,333.65,1.47-1.1-1.17-1.31a10.93,10.93,0,0,0-1.29,1.35A8.75,8.75,0,0,0,1111.31,1409.05Zm40.37-69.3c-.18-.35-.29-.89-.57-1s-.76.15-1.16.25l.75,1.45Zm195.67-576.52a7.05,7.05,0,0,0-1.82-.17c-.24,0-.37.65-.56,1a7.27,7.27,0,0,0,1.74.39C1346.88,764.45,1347.06,763.8,1347.35,763.23ZM602.73,933.43l.4-1a3.18,3.18,0,0,0-.57-.17,10.36,10.36,0,0,0-.42,1Zm620.92,357.71.45.08-.14-.43Zm-359.81,67.6c-.15-.36-.21-.89-.47-1s-.69.2-1,.33c.14.37.2.91.46,1S863.47,1358.88,863.84,1358.74ZM508,1059.41c-2.54-.33-5.07-.69-7.62-1-11.41-1.33-22.06,7.91-20.13,21.55,1,6.78,4.64,11.74,11,14.2s12.8,2.26,18.5-2.28c8.6-6.84,10-18.09,3.18-26.7-1.58-2-3.32-3.89-5-5.84ZM899.25,334.93c-.06-10.3-7.87-17.69-18.34-18-9-.28-18.22,7.72-17.83,18.38.39,10.84,7.31,17.89,18.18,17.84C891.65,353.09,899.31,345.33,899.25,334.93Zm-543,413.13A17.61,17.61,0,0,0,338.6,766c-.05,10.29,7.73,18,18.19,18s17.86-7.54,17.74-18.23C374.42,755.23,366.81,747.88,356.2,748.06Zm121.17,666c-9.2-.35-17.74,7.81-17.91,17.12-.16,9.12,8.43,17.86,17.41,17.72a17.19,17.19,0,0,0,16.84-17.23C493.83,1422.05,486.76,1414.43,477.37,1414.07ZM687.93,573.26c-9.21-.35-17.72,7.77-17.88,17.06-.16,9.08,8.43,17.82,17.37,17.68a17.39,17.39,0,0,0,.51-34.74Zm433.2,1109.27c9.86-.07,16.86-7,16.76-16.65s-7.08-16.66-16.79-16.71c-9.92-.05-16.52,6.63-16.52,16.71S1111.21,1682.61,1121.13,1682.53Zm-614.5-728c.14,9.72,6.65,16.23,16.27,16.25,9.79,0,16.89-6.94,16.91-16.58a16.37,16.37,0,0,0-16.89-16.63C513,937.63,506.48,944.44,506.63,954.49Zm648.46-477c-8.85.15-16.29,7.85-16.3,16.88a17.08,17.08,0,0,0,16.94,17c7,0,16.5-6.36,16.13-16.88C1171.88,485,1164.26,477.33,1155.09,477.49ZM627.59,677a16.64,16.64,0,0,0-16.54,16.62c.17,11.42,9,17,16.88,17,9-.09,16.13-7.8,16.05-16.95C644.21,682.82,634.87,677,627.59,677Zm562.06-146.19c8.8.43,16.62-7.44,16.82-16.4.21-8.79-7.51-17-16.28-16.91-9.89.13-16.88,7.71-16.6,16.34C1173.17,523.75,1181.14,530.36,1189.65,530.77Zm317.08,358.37c-.12,8.75,7.09,17,16.09,16.89,9.53-.09,16.51-6.58,16.7-16s-6.55-16.72-15.82-16.88A16.51,16.51,0,0,0,1506.73,889.14Zm-693.42,544c.48-8.83-7.16-16.53-16.19-16.75a16,16,0,0,0-16.54,16.12c-.14,9.48,6.64,16.59,15.9,16.69C805.69,1449.54,812.8,1442.4,813.31,1433.16Zm442.18-845.61c.11-8.93-7.65-16.26-16.72-16.22s-16.1,7.26-16,16.66,7,16.28,16.44,16.14C1248.33,604.26,1255.39,596.67,1255.49,587.55Zm252.88-18.22a16.25,16.25,0,0,0,16.3,16.51c9.31,0,16.21-7,16.16-16.44a16.17,16.17,0,0,0-16.48-16.27A16.4,16.4,0,0,0,1508.37,569.33ZM1140.94,1648c8.81,0,16.45-8,16.24-16.83s-7.07-15.67-16.26-15.79c-9.55-.13-16.39,6.62-16.37,16.14A16.3,16.3,0,0,0,1140.94,1648ZM545.37,1205.53a16.35,16.35,0,0,0,15.94,16.22c9.39.24,16.41-6.57,16.53-16a16.2,16.2,0,0,0-16.08-16.68A16.39,16.39,0,0,0,545.37,1205.53Zm-206.79-459a16.2,16.2,0,1,0-32.39-.34,16.09,16.09,0,0,0,16.32,16.46A16.29,16.29,0,0,0,338.58,746.56ZM1528.91,534.69c-.21,9.43,6.62,16.42,16,16.41s16.31-6.56,16.3-15.53c0-9.14-6.93-16.79-16.18-16.47C1535.88,519,1529.11,525.58,1528.91,534.69Zm83.41,626.41c0-9-6.92-15.77-16.12-15.79s-15.71,6.63-15.65,16,6.53,15.79,15.92,15.74A15.48,15.48,0,0,0,1612.32,1161.1ZM693.78,1390c8.6,0,16-7.88,15.82-16.44a16.7,16.7,0,0,0-15.75-15.86c-8.6-.26-15.83,7.12-15.84,16.17C678,1384.4,686,1390,693.78,1390Zm117.64,113.73c8.45,0,16-7.66,16-16.19,0-8.28-7.19-16-15.41-16-8,0-16,5.55-16.07,15.74C795.83,1496.34,802.77,1503.72,811.42,1503.72Zm211.66-1.6a15.76,15.76,0,0,0-15.79,15.42c-.3,8.34,6.81,15.67,15.33,15.82a15.62,15.62,0,0,0,.46-31.24ZM668.52,571c0-8.77-6.66-15.4-15.55-15.4s-15.51,6.44-15.52,15.33,6.47,15.32,15.49,15.37S668.48,579.82,668.52,571Zm404,1005.65a15,15,0,0,0-15.14,11.14c-1.89,7.86,1.23,15.16,7.9,18.45a15.38,15.38,0,0,0,17.53-2.83,15.71,15.71,0,0,0,3.26-17.5,78.62,78.62,0,0,0-4.24-7.24l-2.36-1.18C1077.12,1577.15,1074.81,1576.68,1072.48,1576.6Zm572.44-357c-9-.12-15.73,6.39-15.78,15.23a14.87,14.87,0,0,0,14.88,15.36c9.12.24,16-6.08,16.09-14.82C1660.22,1226.33,1653.85,1219.71,1644.92,1219.59ZM1505.15,619.46c8.68-.11,15.06-6.93,14.9-15.94-.15-8.55-6.71-15.21-15-15.21a15.58,15.58,0,0,0,.08,31.15ZM866.08,296.59a15,15,0,0,0,15.24-14.89c.28-9-6.07-16.05-14.63-16.26a15.58,15.58,0,0,0-.61,31.15Zm-319.21,839.2c-8.27,0-14.83,6.66-15,15.22-.16,9,6.21,15.82,14.91,15.93a15.58,15.58,0,0,0,.06-31.15ZM1354,1326.71c-8.27,0-14.82,6.68-15,15.23-.15,9,6.23,15.82,14.92,15.92a15.58,15.58,0,0,0,0-31.15Zm114.56-367.84c.26,8.77,7,15,16.05,14.72s14.46-6.15,14.4-15.34-6.27-15.26-15.45-15.15A14.92,14.92,0,0,0,1468.59,958.87Zm-242.54,431c-8.39-.21-15.58,6.91-15.71,15.55A15.33,15.33,0,0,0,1225.9,1421c8.31,0,14.73-6.76,14.77-15.44S1234.32,1390.09,1226.05,1389.9ZM1342.78,593a14.88,14.88,0,0,0-15.34-14.82c-9.16.05-15.22,6.34-15,15.62.16,8.94,6.22,14.87,15.13,14.8S1343,601.84,1342.78,593Zm287.84,603.4a15.39,15.39,0,0,0,15.31-15.74c-.11-8.21-7.13-15.3-15.14-15.28-8.66,0-15.22,6.87-15.11,15.78A15.08,15.08,0,0,0,1630.62,1196.37ZM1424.74,795.69c0,8.8,6,14.74,14.86,15,10.18.32,15.71-8.54,15.5-15.34-.26-8.48-6.66-15-15.11-15C1430.84,780.28,1424.75,786.41,1424.74,795.69ZM530.56,1402.21a15.09,15.09,0,0,0-15.13,15c-.22,6.85,5.36,15.67,15.48,15.35,8.86-.27,14.89-6.19,14.88-15C545.79,1408.31,539.7,1402.16,530.56,1402.21Zm906-853.11c-7.81-.29-15.3,7-15.54,15a15.71,15.71,0,0,0,15.28,16,15.12,15.12,0,0,0,14.92-15.36C1451.24,556.1,1445,549.41,1436.52,549.1Zm104.85,681.12a15.11,15.11,0,0,0,15.08,15.2c7.88-.07,15.18-7.56,15-15.57-.18-8.4-6.83-14.63-15.37-15.25C1546.56,1215.32,1541.33,1222.29,1541.37,1230.22ZM855.91,403.82c0-8.62-6.49-15.12-15-15a15,15,0,0,0-15.09,15.11c.09,6.58,5.06,15.34,15.13,15C849.63,418.85,855.92,412.49,855.91,403.82Zm614.36,233.62c0,6,2.28,11,7.77,13.93s10.8,2.83,15.89-.76a15.21,15.21,0,0,0,4.32-20,14.92,14.92,0,0,0-19.53-5.78c-2.29,1.12-4.38,2.67-6.56,4-.39.77-.78,1.55-1.16,2.32A51.55,51.55,0,0,0,1470.27,637.44ZM1181,1508.8a15.1,15.1,0,0,0-15.06-15.14,14.7,14.7,0,0,0-14.75,14.52c-.2,8.62,6.12,15.34,14.5,15.41A14.9,14.9,0,0,0,1181,1508.8Zm98.35-103.17a14.73,14.73,0,0,0,15.21-14.88,15,15,0,0,0-14.5-15c-8.46-.16-15,6.31-15.11,15A14.58,14.58,0,0,0,1279.38,1405.63Zm-645.73-815c-8.58-.15-15.45,6.39-15.43,14.7,0,7.77,6.92,14.86,14.68,15.08a14.72,14.72,0,0,0,15.13-15C648.08,596.92,642.1,590.76,633.65,590.62Zm-154.57,467c.24-8.31-6.57-15-15.18-15s-14.54,6.17-14.53,14.66,6.07,14.55,14.58,14.6A14.67,14.67,0,0,0,479.08,1057.63Zm278-481.9c-.06-8.39-6.91-14.77-15.6-14.53-8.43.22-14.32,6.5-14.12,15s6.4,14.33,15,14.19A14.7,14.7,0,0,0,757.05,575.73ZM847.1,300.51a14.34,14.34,0,0,0-14.85,14.35c-.24,9,5.79,15.48,14.36,15.45a14.91,14.91,0,0,0,.49-29.8Zm818,885.42c-8.67-.06-14.4,5.75-14.39,14.59s5.69,14.55,14.44,14.56c8.53,0,14.62-6,14.65-14.52A14.44,14.44,0,0,0,1665.06,1185.93ZM905.34,1457.81c-.12,8.54,5.81,14.92,14.06,15.12a14.86,14.86,0,0,0,.62-29.7A14.54,14.54,0,0,0,905.34,1457.81ZM1396.39,579.7c.44-8.68-5.2-15.1-13.57-15.45a14.38,14.38,0,1,0-1.3,28.73C1390,593.32,1396,588,1396.39,579.7Zm-3.45,679.42a14.38,14.38,0,1,0,.92,28.75c8.28-.13,13.83-5.93,13.79-14.41S1401.47,1259,1392.94,1259.12Zm134-191.43c.16-8.6-5.68-14.79-14.06-14.9a14.34,14.34,0,1,0-.36,28.68C1520.73,1081.51,1526.77,1075.74,1526.91,1067.69Zm-887,305.89a14.66,14.66,0,0,0-14.8,14.52c.12,7.53,7,14.69,14.35,14.37,7.12-.32,14.27-5.41,14.21-14.3A14,14,0,0,0,639.94,1373.58ZM465.53,723a14.31,14.31,0,0,0-.12,28.61c8.21-.15,14.15-6,14.2-14.2A14.18,14.18,0,0,0,465.53,723Zm90.78,516.63c.05-7.76-6.69-14.08-14.54-14A14.2,14.2,0,0,0,528,1240.13a13.74,13.74,0,0,0,14.35,13.93C550.24,1254.25,556.25,1247.37,556.31,1239.58Zm545.28-745.39c-7.77,0-14.5,6.36-14.4,14.06s5.68,14.25,14,14.4a14.23,14.23,0,0,0,.4-28.46Zm-235.7,964.4a14.51,14.51,0,0,0-14.58,13.93,14.33,14.33,0,0,0,13.91,14.53,14.23,14.23,0,0,0,.67-28.46Zm501.89-76.17a14,14,0,0,0-13.82,13.82c-.06,8,6.06,14,14.23,14,8.35,0,14.06-5.82,14-14.12S1376.11,1382.19,1367.78,1382.42ZM915.43,341.24a14.18,14.18,0,0,0-.09,28.35c8.13,0,13.86-6.06,13.73-14.48C928.94,347.1,923.15,341.2,915.43,341.24ZM585.75,1388.48a14.15,14.15,0,1,0,.24,28.3c7.69-.21,13.21-6.19,13.16-14.25S593.4,1388.58,585.75,1388.48ZM503,1002.66a14.15,14.15,0,1,0,.08-28.29c-7.64.13-13.3,6.14-13.32,14.12S495.35,1002.51,503,1002.66ZM1699.4,1234.25a14.22,14.22,0,0,0,13.89-14.51c-.22-7.43-6.86-13.87-14.07-13.67a13.86,13.86,0,0,0-13.33,14.22C1686,1228.15,1691.86,1234.26,1699.4,1234.25Zm-985,159c-.14,8.45,5.5,14.16,13.91,14.08a13.3,13.3,0,0,0,13.6-13.79,13.5,13.5,0,0,0-13.7-13.76C720.15,1379.67,714.56,1385.12,714.43,1393.21Zm470.84,95.13a14.23,14.23,0,0,0,14.25-14.17c0-7.44-6.46-14-13.75-14a13.83,13.83,0,0,0-13.66,13.88C1172,1481.94,1177.72,1488.13,1185.27,1488.34Zm6.84-48.81a13.4,13.4,0,0,0,14,14c8-.08,13.47-5.62,13.48-13.72s-5.51-13.76-13.45-13.75S1192.27,1431.8,1192.11,1439.53Zm-738-579.28c.1-8-6-14-14.22-13.91-7.88.09-13.34,5.84-13.24,14s5.62,13.51,13.69,13.51A13.32,13.32,0,0,0,454.14,860.25ZM776,1413.43c.11-8.14-5.41-13.93-13.34-14s-14,5.7-14.08,13.46a13.48,13.48,0,0,0,13.55,13.94C770.21,1427,775.83,1421.53,776,1413.43Zm212.72,70.66c-7.29-.08-13.89,6.38-14.08,13.78s6.12,14.2,13.47,14.25c5.79.05,13.86-4,13.86-13.61C1002,1490.79,995.92,1484.18,988.67,1484.09Zm-545.41-406A13.94,13.94,0,0,0,430,1091.72c0,7.78,6,13.6,13.92,13.61s13.48-5.8,13.33-13.94S451.21,1077.77,443.26,1078.07ZM587.38,708.31a14,14,0,0,0-14.16-13.49c-7.57.11-13,5.72-13.09,13.49-.07,8.12,5.52,13.85,13.47,13.78A13.65,13.65,0,0,0,587.38,708.31Zm602.2-248.58a13.91,13.91,0,0,0-14.21-13.32c-7.61.25-13,5.82-13,13.53,0,8.06,5.59,13.74,13.51,13.64C1183.45,473.49,1189.76,467.1,1189.58,459.73Zm388.85,41a13.92,13.92,0,0,0-13.93-13.61,13,13,0,0,0-13.26,13.26c-.15,8.07,5.39,13.91,13.23,13.94A13.93,13.93,0,0,0,1578.43,500.72ZM287.2,713.15c-7.1.28-13.25,6.88-13,14a13.93,13.93,0,0,0,14.46,13.18c7.52-.27,12.82-6.08,12.67-13.89A13.21,13.21,0,0,0,287.2,713.15ZM977.59,429a14,14,0,0,0-13.53-13.43,13.18,13.18,0,0,0-13.61,13.77c.08,7.75,5.6,13.34,13.2,13.38S977.69,436.37,977.59,429ZM376.38,718A13.8,13.8,0,0,0,362.7,732c.23,7.19,6.52,13.44,13.57,13.47a13.72,13.72,0,0,0,13.49-14.07A13.4,13.4,0,0,0,376.38,718Zm997.78,576.32a13.32,13.32,0,0,0-13.72,13.57c0,7.94,5.72,13.62,13.65,13.5a13.54,13.54,0,0,0,.07-27.07Zm-965.07,151.5a13.68,13.68,0,0,0,13.72,13.89,13.35,13.35,0,0,0,13.24-13.49c0-7.65-5.47-13.21-13.22-13.32S409.31,1438.31,409.09,1445.84Zm713.79,274.77c0,7.79,5.58,13.57,13,13.47a13.48,13.48,0,0,0,0-27C1128.41,1707.11,1122.88,1712.85,1122.88,1720.61Zm-182.13-242.5c-.17,7.65,5.19,13.25,12.9,13.47,8.06.23,13.19-4.67,13.33-12.73s-4.9-13.43-12.65-13.54S940.91,1470.56,940.75,1478.11Zm-452-530.19a13.24,13.24,0,0,0,13.2-13.37c0-7.13-6.2-13.53-13.17-13.53-7.41,0-13,5.75-13,13.45S481.24,947.89,488.71,947.92Zm1022.43,64.5a12.9,12.9,0,0,0-12.83-13c-7.7-.08-13.24,5.55-13.09,13.29a12.49,12.49,0,0,0,13,12.65A12.89,12.89,0,0,0,1511.14,1012.42ZM525.67,1132a12.91,12.91,0,0,0-12.59-13.23,13,13,0,1,0-.52,25.93A12.85,12.85,0,0,0,525.67,1132Zm-46.86-33.73c-7.05-.42-13.63,5.81-13.72,13-.08,6.77,6,13.22,12.69,13.41a13,13,0,0,0,13.1-12.71C491.1,1104.56,485.9,1098.67,478.81,1098.24Zm53.78-375.33c.27-6.81-5.68-13.08-12.65-13.32-7.22-.25-12.77,5.16-13.07,12.65-.32,8.38,5.81,12.72,12.35,13.38C526,735.82,532.32,729.81,532.59,722.91ZM1502,1231.16a12.52,12.52,0,0,0-12.4,12.57c-.14,7.41,5.32,13.13,12.52,13.11a12.89,12.89,0,0,0,13.07-12.83C1515.13,1237.23,1508.86,1231.11,1502,1231.16ZM496.38,1023a12.06,12.06,0,0,0-12.12-12.6c-7.41-.21-13.08,5-13.31,12.28a12.84,12.84,0,0,0,12.61,13.12A12.5,12.5,0,0,0,496.38,1023Zm122-459.67a12.78,12.78,0,1,0-.21-25.56c-6.77.16-12,5.76-11.92,12.89S611.49,563.19,618.4,563.32Zm481,1082.62a12.4,12.4,0,0,0-12.64-12.22,12.26,12.26,0,0,0-12.7,12.77c.14,7.14,5.32,12.19,12.5,12.19C1094,1658.69,1099.61,1653.1,1099.44,1645.94ZM821.75,425.55c-6.83-.3-12.89,5.76-12.85,12.84A12.51,12.51,0,0,0,821.23,451a12.27,12.27,0,0,0,12.32-12.42C833.66,431.41,828.6,425.85,821.75,425.55Zm638.92,833.12a12.28,12.28,0,0,0-12.6-12.25c-7.33,0-12.12,4.92-12.07,12.45s4.82,12.26,12.3,12.23A12.19,12.19,0,0,0,1460.67,1258.67ZM454.51,1411.82c0-7.52-4.79-12.43-12.13-12.39a12.34,12.34,0,1,0-.11,24.68C449.73,1424.12,454.49,1419.34,454.51,1411.82Zm-51.73,56.4a12.34,12.34,0,1,0,.48,24.68c7.39-.12,12.05-5,11.95-12.58S410.17,1468.05,402.78,1468.22Zm118.61-181.74c7.09,0,12.6-5.14,12.75-12A12.27,12.27,0,0,0,522,1261.9c-7.26-.17-12.32,4.73-12.44,12C509.42,1281.46,514.12,1286.44,521.39,1286.48ZM1293.28,561.4a12.29,12.29,0,1,0-.51,24.58c7.38.19,12.29-4.55,12.4-12S1300.46,561.48,1293.28,561.4ZM457.39,1453.24c-6.6-.31-12.27,5.34-12.37,12.34a12.39,12.39,0,0,0,11.89,12.88c6.48.16,12.45-5.71,12.6-12.38A12.82,12.82,0,0,0,457.39,1453.24ZM774.05,540.87a12.26,12.26,0,0,0-12.47-11.64A12,12,0,0,0,749.69,542,11.66,11.66,0,0,0,762,553.6,12.27,12.27,0,0,0,774.05,540.87Zm527.75,870c-.14,6.62,5.77,12.71,12.36,12.74,6.39,0,11.78-5.5,12-12.21.23-8.76-6.63-12.35-12.11-12.74C1307.89,1398.64,1301.93,1404.6,1301.8,1410.87Zm-153.33,185.29c-.47,7.21,4.51,12.8,11.6,13a12.21,12.21,0,0,0,12.62-11.51,12.54,12.54,0,0,0-11.44-12.78A12.07,12.07,0,0,0,1148.47,1596.16Zm-5.26,89.87c-.12,6.2,5.65,12.31,11.83,12.53a12.19,12.19,0,0,0,12.41-12.38c0-7-4.82-11.79-11.91-11.85A12.09,12.09,0,0,0,1143.21,1686Zm328.86-925.51c-.32-6.93-5.32-11.49-12.47-11.27a12.09,12.09,0,0,0-11.76,12.25c.27,6.31,6.32,12.16,12.39,12C1466.61,772.79,1472.44,768.55,1472.07,760.52ZM1236.2,533.69c0-7.05-4.85-11.81-12-11.81a12,12,0,0,0-12.14,11.92,12.52,12.52,0,0,0,12.26,12A11.79,11.79,0,0,0,1236.2,533.69ZM417.68,841.09a12.14,12.14,0,0,0-10.59-12.69,11.55,11.55,0,0,0-12.72,11c-.44,7.3,3.85,12.5,10.7,13A12,12,0,0,0,417.68,841.09Zm1316.48,411.46a12.06,12.06,0,0,0-.2-24.11c-6.78,0-11.69,5.15-11.64,12.2S1727.27,1252.69,1734.16,1252.55ZM1557.55,898.22c-6.87,0-11.79,5-11.7,11.95.1,6.66,4.7,11.27,11.45,11.45,7.13.18,11.82-4.37,11.89-11.55S1564.65,898.23,1557.55,898.22ZM851.87,215.09c-6.32-.34-12.1,5.44-12,12a12.11,12.11,0,0,0,11.58,11.81A11.58,11.58,0,0,0,863,227.25,11.79,11.79,0,0,0,851.87,215.09Zm623.48,589.2c-6.85-.56-12,3.62-12.57,10.24-.63,6.93,3.43,12.17,9.93,12.85,7.06.73,12.52-3.62,13.14-10.48A11.78,11.78,0,0,0,1475.35,804.29ZM1690.76,1255c.27-6.38-5.43-12.38-11.7-12.31a11.78,11.78,0,0,0-11.34,11.81c0,6.37,5.13,11.87,11.2,12S1690.5,1261.2,1690.76,1255ZM780.51,1521.78c-.07,7.11,4.73,11.89,11.78,11.74a11.46,11.46,0,0,0,11.33-11.69A11.74,11.74,0,0,0,792,1510.39C785.22,1510.39,780.58,1515,780.51,1521.78ZM1511,503.93c-6.68-.22-11.53,4.44-11.66,11.22s4.34,11.66,11.06,11.81a11.52,11.52,0,1,0,.6-23Zm-983.7,670.12a12.23,12.23,0,0,0-11.61,11.74c0,6,5.55,11.77,11.54,11.81s11.46-5.47,11.4-11.75C538.51,1179.32,533.35,1173.94,527.25,1174.05Zm1031.48-87a11.75,11.75,0,0,0-11.35-11.76c-6.59-.19-11.44,4.52-11.56,11.22s4.44,11.67,11,11.73A11.71,11.71,0,0,0,1558.73,1087.06ZM593.41,662.62a11.44,11.44,0,0,0-.64,22.88c6.67.32,11.6-4.32,11.76-11.07S599.92,662.67,593.41,662.62Zm-91.33,634.51a11.45,11.45,0,0,0-.46,22.89c6.66.27,11.55-4.41,11.66-11.17S508.58,1297.13,502.08,1297.13Zm564.81-819.81a11.06,11.06,0,0,0-11.13,11.1c-.17,6.82,4.45,11.76,11,11.79a11.45,11.45,0,1,0,.08-22.89ZM625.22,639.76a11.86,11.86,0,0,0-11.67-11.58,11.28,11.28,0,0,0-11.18,11.14c-.18,6.45,4.94,12,11.08,12S625.17,645.8,625.22,639.76ZM450.85,1377.83A11.18,11.18,0,1,0,462,1366,11.34,11.34,0,0,0,450.85,1377.83Zm547-940.17a10.65,10.65,0,0,0-10.8,11.23,11.17,11.17,0,0,0,11,11.3,11.48,11.48,0,0,0,11.64-11.45C1009.62,442.21,1004.61,437.5,997.85,437.66Zm39.65,1123.11c-6.46,0-11.07,4.59-11.11,10.94-.05,6.72,4.76,11.35,11.56,11.14,6.43-.2,11-4.94,10.93-11.21A11.26,11.26,0,0,0,1037.5,1560.77ZM900.72,289.31c-6.33-.1-11,5-10.83,11.89.13,6.14,4.52,10.69,10.42,10.81a11.28,11.28,0,0,0,11.48-11.45A11.62,11.62,0,0,0,900.72,289.31Zm309.47,179.36c-6.47,0-11.09,4.6-11.1,11s4.53,11,11,11c6.8,0,10.9-4.06,10.92-10.87C1221,473.13,1216.66,468.64,1210.19,468.67ZM766.5,1466c-.59,6.59,3.36,11.72,9.59,12.46,5.71.68,11.57-4.29,12.08-10.25A11.63,11.63,0,0,0,778,1456C772.33,1455.51,767,1460.14,766.5,1466ZM482.68,1332.09c-6.48-.18-11,4.26-11.05,10.81,0,6.31,4.1,10.76,10.21,11,6.51.22,11.44-4.22,11.57-10.42A10.73,10.73,0,0,0,482.68,1332.09ZM1248,553.62c.12,6.46,5,11.24,11.17,11,5.56-.23,10.53-5.45,10.58-11.14.06-6-5.3-11.47-11.06-11.38C1252.5,542.19,1247.83,547.23,1248,553.62ZM801.44,461.74c-6.5-.22-11.07,4.18-11.15,10.72-.08,6.32,4,10.8,10.11,11.05,6.53.26,11.49-4.14,11.66-10.33A10.73,10.73,0,0,0,801.44,461.74Zm-20.28,34.1a10.89,10.89,0,0,0-10.46,10.94c-.12,6.46,4.44,11.41,10.59,11.49,5.75.07,11.12-5.38,11.1-11.27S787,495.75,781.16,495.84ZM708,545c-5.82-.19-11.27,5.08-11.37,11s5.18,11.4,11,11.42c6.13,0,10.79-4.9,10.74-11.34A10.9,10.9,0,0,0,708,545Zm138.36,951.45c-6.38-.14-11,4.38-11.06,10.85-.07,6.17,4.23,10.65,10.33,10.76a10.81,10.81,0,1,0,.73-21.61Zm730.46-631.71c-6,.29-10.17,4.86-10.15,11.07,0,6.41,4.75,10.83,11.24,10.53a10.81,10.81,0,1,0-1.09-21.6Zm-217.49,566.17a11,11,0,0,0-10.46-10.92,10.84,10.84,0,0,0-.28,21.67C1354.14,1441.66,1359.23,1436.56,1359.34,1430.89ZM1032.69,458.76a10.1,10.1,0,0,0-10.56,10.43,10.68,10.68,0,0,0,10.59,10.63,10.87,10.87,0,0,0,10.7-10.63C1043.46,463.35,1038.78,458.81,1032.69,458.76Zm217,966a10.09,10.09,0,0,0,10.47,10.61c6.06-.06,10.26-4.09,10.38-10a10.43,10.43,0,0,0-20.85-.66Zm-575.71-26.74c-6.32,0-10.26,4.33-10,10.83.27,6.07,4.34,9.77,10.5,9.57a10.2,10.2,0,0,0-.54-20.4Zm917.25-158.67c-6.17-.23-10.28,3.49-10.57,9.58-.32,6.57,3.57,10.84,9.94,10.91a10.25,10.25,0,0,0,.63-20.49ZM253.5,696.22a10.15,10.15,0,1,0-.08,20.3c6.12,0,10.09-3.92,10.1-10C263.53,700.57,259.25,696.18,253.5,696.22Zm578.39-445a10.15,10.15,0,1,0-.14,20.3c6.12,0,10.1-3.89,10.13-10C841.9,255.59,837.65,251.2,831.89,251.22Zm259.22,1448.7a10.08,10.08,0,0,0,9.89,10.48c6.15.17,10.24-3.65,10.39-9.72s-4-10.46-9.69-10.57A10.15,10.15,0,0,0,1091.11,1699.92Zm-720-889.59c-5.18.21-10.11,5.59-9.91,10.8.21,5.37,5.28,10.26,10.52,10.15,5.43-.11,9.76-5,9.63-10.78S376.56,810.1,371.11,810.33ZM1518,968.68a10,10,0,1,0,.5,20,9.71,9.71,0,0,0,9.68-9.88A9.88,9.88,0,0,0,1518,968.68ZM409.35,1062c-5.38-.06-10.43,5.1-10.19,10.42.23,5,5.15,9.8,10.15,9.93,5.51.13,10-4.65,9.87-10.53A9.83,9.83,0,0,0,409.35,1062ZM1111.19,474.3a9.56,9.56,0,0,0,10.16,9.32c5.83-.16,9.61-4.09,9.47-9.86s-4.16-9.43-10-9.33A9.6,9.6,0,0,0,1111.19,474.3ZM1543,845.2a10,10,0,0,0,.27,19.91,9.74,9.74,0,0,0,9.41-10.05A10,10,0,0,0,1543,845.2ZM1195.82,415.65a9.93,9.93,0,0,0-10,9.46,9.71,9.71,0,0,0,9.68,10.43,10,10,0,0,0,.37-19.89ZM464,914.56a9.73,9.73,0,1,0-19.44-.49,9.73,9.73,0,0,0,9.45,10A9.88,9.88,0,0,0,464,914.56ZM1338.11,559a9.93,9.93,0,0,0,9.64,9.89c5.49.09,9.38-4,9.39-9.85,0-5.65-4-9.91-9.42-9.95A9.9,9.9,0,0,0,1338.11,559Zm-512-219A9.77,9.77,0,0,0,817,350.27a9.42,9.42,0,0,0,9.31,9.38c5.16.09,9.68-4.57,9.64-9.92S831.26,339.75,826.15,339.94Zm73.24,1142.69a10,10,0,0,0-9.06,9.81c0,5.35,4.52,10,9.67,9.9,5.44-.12,9.43-4.46,9.28-10.11C909.13,1486.77,904.57,1482.34,899.39,1482.63Zm250.23,301.84c5.25.06,9.6-4.55,9.5-10-.11-5.2-4.35-9.57-9.26-9.54a9.86,9.86,0,0,0-9.61,10C1140.38,1780,1144.72,1784.41,1149.62,1784.47Zm358.52-958.73a9.83,9.83,0,0,0,.32,19.6c5.14.14,9.76-4.6,9.69-10A9.91,9.91,0,0,0,1508.14,825.74Zm-28.22-108.49a9.51,9.51,0,0,0-9.76,9.68c.12,5.56,4.38,9.47,10.1,9.27,5.48-.19,8.87-3.9,8.81-9.61S1485.45,717.35,1479.92,717.25Zm-1049,10.08c5.06.19,9.54-4.53,9.44-10-.09-5.13-4.3-9.49-9.17-9.51-5.13,0-9.63,4.66-9.6,10A9.91,9.91,0,0,0,430.9,727.33Zm1337.45,523.43c-5.67,0-9.54,4.07-9.31,9.85.21,5.46,4,9.05,9.52,8.91a9.38,9.38,0,0,0-.21-18.76Zm-150.1-773.35a9.26,9.26,0,0,0,.59,18.51c5.27,0,9.1-4.05,8.94-9.46A9.29,9.29,0,0,0,1618.25,477.41Zm-199.83,815.32c-.27,4.75,4.07,9.56,8.91,9.88a9.3,9.3,0,0,0,9.57-8.95c.15-5.35-3.64-9.66-8.66-9.84A9.76,9.76,0,0,0,1418.42,1292.73ZM1455.31,521c-4.87.26-8.22,4.17-8.11,9.46s3.64,8.9,8.63,8.95a9.22,9.22,0,0,0,9.06-9.43A9.39,9.39,0,0,0,1455.31,521Zm77.25,502.55a9.39,9.39,0,0,0-9.18,9.38,9.28,9.28,0,0,0,8.77,9c5.21.13,9-3.83,8.92-9.36C1541,1027.37,1537.42,1023.56,1532.56,1023.54Zm6-88.43a9.38,9.38,0,0,0-9.57,9,9.22,9.22,0,0,0,9.08,9.41c5,0,8.5-3.71,8.61-9S1543.44,935.36,1538.57,935.11ZM478,969.13a8.56,8.56,0,0,0-9.1-9.18,9.21,9.21,0,0,0-9.11,9.43c.18,4.85,4.13,8.44,9.28,8.41A8.54,8.54,0,0,0,478,969.13ZM959,375.42a9.2,9.2,0,0,0-9.28-9.27,8.57,8.57,0,0,0-8.93,9.34c.21,5.13,3.88,8.56,9.07,8.5S958.94,380.27,959,375.42Zm438.49,986.93a8.58,8.58,0,0,0-8.92-9.35,9.21,9.21,0,0,0-9.29,9.27c.07,4.86,4,8.52,9.13,8.58A8.52,8.52,0,0,0,1397.51,1362.35ZM885.73,255.77a9.35,9.35,0,0,0,9.16-8.7,9.49,9.49,0,0,0-9-9.61c-4.77,0-8.41,3.9-8.51,9.16S880.83,255.75,885.73,255.77Zm295.1,1315.7a8.46,8.46,0,0,0,8.87-8.72,8.61,8.61,0,0,0-8.81-8.86c-5.19-.09-8.75,3.47-8.76,8.75S1175.59,1571.44,1180.83,1571.47Zm202.08-129.88c-5.18,0-8.68,3.57-8.63,8.87s3.56,8.74,8.82,8.71a8.49,8.49,0,0,0,8.75-8.85A8.63,8.63,0,0,0,1382.91,1441.59Zm-880.42,9.93c-.12,5.26,3.2,8.88,8.35,9.1a8.85,8.85,0,1,0,.49-17.68C506.18,1442.82,502.6,1446.29,502.49,1451.52ZM1590.13,1106.2c-.1-5.25-3.74-8.72-9-8.54a8.6,8.6,0,0,0-8.61,9c.13,5.14,3.86,8.64,9.06,8.53S1590.23,1111.5,1590.13,1106.2ZM346,801.51a8.65,8.65,0,0,0-8.29-9.9c-5.23-.34-8.94,2.9-9.28,8.08s2.8,9.12,7.86,9.55S345.45,806.52,346,801.51Zm45.24,713.61c.08-5.27-3.36-8.89-8.48-8.91a8.73,8.73,0,1,0-.35,17.46C387.57,1523.82,391.17,1520.34,391.25,1515.12ZM341.84,703.28a8.92,8.92,0,0,0-8.7,9,8.49,8.49,0,0,0,8.53,8.34c5.17.17,8.8-3.35,8.83-8.59S347,703.18,341.84,703.28ZM1575.57,466.44a8.86,8.86,0,0,0,8.49,8.51,8.12,8.12,0,0,0,8.73-8c.31-5.23-3.12-9.1-8.2-9.26A9,9,0,0,0,1575.57,466.44ZM1002.89,1543.49a9,9,0,0,0-8.43,9.4c.35,4.39,4.85,8.36,9.12,8.06a8.92,8.92,0,0,0,8-9.1A8.67,8.67,0,0,0,1002.89,1543.49Zm398.63-1007.9a8.93,8.93,0,0,0-8.4,8.73c-.06,4.65,4.58,9.06,9.18,8.71a8.92,8.92,0,0,0,7.93-9.14A8.62,8.62,0,0,0,1401.52,535.59ZM598.72,576.3a9,9,0,0,0-8.57,9.27c.28,4.36,4.72,8.39,9,8.18a8.91,8.91,0,0,0,8.09-9A8.61,8.61,0,0,0,598.72,576.3Zm-50.89,112a9,9,0,0,0-8.23-8.75,8.38,8.38,0,0,0-8.71,8.73,8.26,8.26,0,0,0,8.35,8.37A9,9,0,0,0,547.83,688.3Zm80.41,734.32a8.35,8.35,0,0,0-8-8.88,8.55,8.55,0,0,0-.67,17.09A8.28,8.28,0,0,0,628.24,1422.62Zm79.94-3.2a8.65,8.65,0,0,0-8.1,8.76,8.45,8.45,0,0,0,8.56,8.23,8.5,8.5,0,0,0-.46-17ZM515.91,1220.13a8.32,8.32,0,0,0-8.27-8.48,8.66,8.66,0,0,0-8.32,8.56,8.49,8.49,0,0,0,8.37,8.44A8.32,8.32,0,0,0,515.91,1220.13ZM1638,443.79a8.51,8.51,0,0,0,.59,17,8.52,8.52,0,0,0,8-8.77A8.62,8.62,0,0,0,1638,443.79ZM302.37,772.31c-4.61.29-7.85,4.16-7.57,9.07a8.06,8.06,0,0,0,8.1,7.82,8.45,8.45,0,0,0-.53-16.89Zm440.56,666.81c-4.3-.11-8.43,4.12-8.41,8.63a8.26,8.26,0,0,0,7.89,8.25,8.46,8.46,0,0,0,.52-16.88Zm83.67,110.93a8.26,8.26,0,0,0,7.92-8.21c0-4.51-4.06-8.76-8.37-8.67a8.46,8.46,0,0,0,.45,16.88Zm288.56,196.59c-4.21.08-7.57,3.81-7.54,8.38a8.14,8.14,0,0,0,8.29,8.38,8.35,8.35,0,0,0,7.76-8.31C1123.66,1750.72,1119.46,1746.54,1115.16,1746.64ZM1410.4,1416.4c.21-5.12-3-8.54-8-8.49a8.06,8.06,0,0,0-.16,16.11C1407,1424.14,1410.2,1421.17,1410.4,1416.4Zm188.95-904.11a8.07,8.07,0,1,0-.39,16.12c4.79,0,7.87-3,8-7.86S1604,512.47,1599.35,512.29ZM234.44,732.7c-4.78-.24-8.09,2.68-8.4,7.41-.33,5.13,2.83,8.64,7.81,8.7a8.06,8.06,0,0,0,.59-16.11Zm1014.12,727a7.9,7.9,0,0,0-7.69-8.18,7.72,7.72,0,0,0-8.27,8.23c.06,4.73,3.16,7.78,7.91,7.78A7.91,7.91,0,0,0,1248.56,1459.67ZM268.31,752.82c-3.95.07-8,4.13-8.1,8.12-.1,4.25,4.29,8.66,8.46,8.5s7.49-4,7.42-8.5S272.51,752.75,268.31,752.82Zm225-49.87a8.11,8.11,0,0,0-8.08-8,7.9,7.9,0,0,0-.2,15.8A8,8,0,0,0,493.26,703Zm80,734.31a8.09,8.09,0,0,0-7.94-8.13,7.9,7.9,0,0,0-.47,15.79A8.06,8.06,0,0,0,573.27,1437.26Zm834.49-117.62a7.9,7.9,0,1,0,.6,15.78,7.9,7.9,0,0,0-.6-15.78ZM583.81,522.77c-4,.19-7.9,4.41-7.71,8.42s4.44,8.07,8.29,8c4.13-.1,7.54-4,7.43-8.52A7.87,7.87,0,0,0,583.81,522.77ZM836.39,164.36a7.86,7.86,0,0,0,.41,15.7,7.85,7.85,0,1,0-.41-15.7ZM500.55,1165.61a7.64,7.64,0,0,0-7.67-7.38,7.86,7.86,0,1,0,.28,15.72A7.65,7.65,0,0,0,500.55,1165.61Zm172.59-621c4,.09,8.14-4,8.12-8.11a7.83,7.83,0,0,0-8.44-7.46,7.26,7.26,0,0,0-7.18,7.82A7.83,7.83,0,0,0,673.14,544.57Zm-283.6,569.94c4,.11,8.17-4,8.16-8.08a7.85,7.85,0,0,0-8.41-7.5,7.28,7.28,0,0,0-7.22,7.8A7.84,7.84,0,0,0,389.54,1114.51Zm1154.83,150.17c.09-4.17-3.83-8.2-7.9-8.11a7.8,7.8,0,0,0-7.48,8.32,7.56,7.56,0,0,0,7.75,7.28A7.73,7.73,0,0,0,1544.37,1264.68Zm-610.11,256a7.75,7.75,0,0,0,7.88-7.94c-.18-3.94-3.83-7.6-7.64-7.67a7.75,7.75,0,0,0-7.74,8.06A7.57,7.57,0,0,0,934.26,1520.65Zm565.28-835.78a7.46,7.46,0,1,0,0,14.9c4.42-.14,7.42-3.17,7.41-7.48S1504,685,1499.54,684.87Zm-16.74,601.25a7.7,7.7,0,0,0,.11-15.37,7.55,7.55,0,0,0-7.46,7.65C1475.45,1282.73,1478.82,1286.28,1482.8,1286.12ZM1200.63,1536a7.7,7.7,0,0,0,.12-15.37,7.55,7.55,0,0,0-7.46,7.65C1193.28,1532.6,1196.66,1536.15,1200.63,1536ZM1494.3,773.81a7.69,7.69,0,0,0-.22,15.35c4,.26,7.43-3.18,7.51-7.53A7.56,7.56,0,0,0,1494.3,773.81ZM969.35,1540.1a7.82,7.82,0,0,0,6.85-7.52c0-4-3.5-7.75-7.39-7.68a7.48,7.48,0,0,0-7.1,7.86C961.84,1536.9,965.46,1540.37,969.35,1540.1ZM199.69,728.73c3.85,0,7.36-3.81,7.23-7.84a7.76,7.76,0,0,0-7-7.38c-3.93-.2-7.44,3.31-7.5,7.47A7.58,7.58,0,0,0,199.69,728.73Zm971,1004.11a7.63,7.63,0,0,0-7.89,7.2c-.14,4,3.48,7.83,7.36,7.76a7.5,7.5,0,0,0,7-7.27A7.3,7.3,0,0,0,1170.71,1732.84ZM727.58,529.35c3.59-.09,7-3.59,7.13-7.33a7.66,7.66,0,0,0-7.42-7.69,7.25,7.25,0,0,0-7,7.24C720.21,525.74,723.67,529.44,727.58,529.35Zm143.21-344a7.25,7.25,0,1,0,.78,14.48c4.15-.1,6.8-2.94,6.71-7.19C878.19,188.17,875.08,185.15,870.79,185.34Zm349.08,1315.71a7.18,7.18,0,1,0,.17-14.36,7.19,7.19,0,0,0-.17,14.36Zm391.75-598.49a7.28,7.28,0,1,0-.15-14.56,7,7,0,0,0-6.73,7.3A7.25,7.25,0,0,0,1611.62,902.56Zm-559.07,716.81a7.29,7.29,0,1,0-.19,14.57,7.24,7.24,0,0,0,6.89-7.25A7,7,0,0,0,1052.55,1619.37Zm-288-62.55a7.08,7.08,0,0,0,7.19,6.26,6.29,6.29,0,0,0,6.7-6.45,6.57,6.57,0,0,0-7-7C767.44,1549.73,764.2,1553.09,764.51,1556.82ZM1313.19,546.31a7,7,0,0,0,.24-13.92c-3.48-.08-6.31,2.93-6.43,6.87A6.54,6.54,0,0,0,1313.19,546.31ZM420,887.54a7,7,0,0,0-.1,13.92,6.52,6.52,0,0,0,6.36-6.88C426.25,890.64,423.51,887.57,420,887.54ZM219.15,679.79a7,7,0,0,0,.17,13.91,6.53,6.53,0,0,0,6.23-7C225.45,682.76,222.63,679.73,219.15,679.79Zm211.13,351a7,7,0,0,0-.95,13.88,6.45,6.45,0,0,0,6.77-6.43C436.25,1034.24,433.75,1031,430.28,1030.75Zm19.25-34.15a6.46,6.46,0,0,0-6.94,6.87,6.37,6.37,0,0,0,6.67,6.44,6.22,6.22,0,0,0,6.53-6.52C455.86,999.45,453.36,996.74,449.53,996.6Zm1352.94,276.55a6.66,6.66,0,1,0,.36,13.31c3.81-.16,6.3-2.9,6.22-6.84A6.23,6.23,0,0,0,1802.47,1273.15Zm-186.31-153a6.46,6.46,0,0,0-7,6.79,6.37,6.37,0,0,0,6.59,6.52,6.24,6.24,0,0,0,6.62-6.44C1622.45,1123.06,1620,1120.31,1616.16,1120.13Zm-37.45-572.21c-3.38,0-6.31,3.25-6.29,7s3,6.9,6.44,6.73a7.33,7.33,0,0,0,6.52-7C1585.34,551.26,1582.05,547.92,1578.71,547.92Zm128.47,726.94c0,3.81,2.81,7,6.27,6.92a7.32,7.32,0,0,0,6.68-6.78,7.18,7.18,0,0,0-6.48-6.94C1710.29,1267.94,1707.24,1271.15,1707.18,1274.86ZM800.35,383.65c-.27,3.93,2.24,6.88,5.94,7a6.87,6.87,0,0,0,7-6.26c.12-3.38-3-6.56-6.59-6.66A6,6,0,0,0,800.35,383.65Zm374.87,1261.69a6.47,6.47,0,1,0,.12,12.92,6,6,0,0,0,6.07-6.17C1181.55,1648.17,1178.93,1645.31,1175.22,1645.34Zm63.12-1145.91c.07,4,2.94,6.65,6.75,6.29,3.41-.31,6.26-3.36,6.08-6.51a7,7,0,0,0-7.05-6.37C1240.63,493,1238.27,495.71,1238.34,499.43Zm49.74,945.77a6.66,6.66,0,0,0,6.63,6.67,5.92,5.92,0,0,0,5.92-5.71,6.45,6.45,0,0,0-6.11-7.1A6.61,6.61,0,0,0,1288.08,1445.2ZM1080.3,454a6.71,6.71,0,0,0,6.52,6.8,5.88,5.88,0,0,0,6-5.57,6.47,6.47,0,0,0-6-7.24A6.68,6.68,0,0,0,1080.3,454Zm49.9,1348.66a6.6,6.6,0,0,0-6.37,6.9,6.74,6.74,0,0,0,6.71,5.9,5.93,5.93,0,0,0,5.83-6.47A6.34,6.34,0,0,0,1130.2,1802.65Zm396-1144.43a6.66,6.66,0,0,0-6.62-6.69,6.41,6.41,0,0,0-6,6.56,5.92,5.92,0,0,0,6.08,6.24A6.69,6.69,0,0,0,1526.15,658.22ZM1423.57,1470.6a6.56,6.56,0,0,0-6.36-6.23,6.34,6.34,0,0,0,.24,12.67A6.51,6.51,0,0,0,1423.57,1470.6ZM983.71,388.74a5.8,5.8,0,0,0-5.63,6.6,5.69,5.69,0,0,0,6.18,5.35,5.88,5.88,0,0,0,6.07-6.25C990.17,390.93,987.41,388.56,983.71,388.74ZM558.83,647.53a5.9,5.9,0,0,0-5.66,5.85c-.17,3.64,2.27,6.55,5.55,6.62a6.22,6.22,0,0,0,6.18-6.15A6.4,6.4,0,0,0,558.83,647.53ZM800.3,1575.4a6,6,0,0,0,5.44,6.76c2.84.13,5.8-2.54,6.14-5.54a6.44,6.44,0,0,0-5.61-6.75A5.89,5.89,0,0,0,800.3,1575.4Zm-477.27-45a5.88,5.88,0,0,0,6.07,5.42,6.55,6.55,0,0,0,5.53-6.17c0-3.26-3.16-6.31-6.29-6.1C325,1523.78,322.68,1526.82,323,1530.41ZM1209.15,391.53a6.54,6.54,0,0,0,5.87,5.85c3.26.07,5.9-2.91,5.75-6.47a5.9,5.9,0,0,0-5.67-5.85A6.43,6.43,0,0,0,1209.15,391.53ZM443.07,1500.66a6,6,0,0,0-5.6-6.6,6.17,6.17,0,0,0-.22,12.32A6,6,0,0,0,443.07,1500.66Zm721.77,321.9c-3.12-.17-6.24,2.93-6.23,6.17s3.19,6.32,6.28,6.11a6.2,6.2,0,0,0-.05-12.28ZM638.76,510a6.2,6.2,0,0,0-.29,12.28c3.08.28,6.3-2.73,6.39-6A6.38,6.38,0,0,0,638.76,510Zm920.37,73.16a6.52,6.52,0,0,0-6,5.74c-.16,3.17,3,6.46,6.11,6.34a5.92,5.92,0,0,0,5.41-6.13A5.69,5.69,0,0,0,1559.13,583.17Zm-417.5-149.4a5.67,5.67,0,0,0-5.78,6.4,5.61,5.61,0,0,0,6.17,5.3,5.86,5.86,0,0,0-.39-11.7ZM493.19,1255.1c.35-3.1-2.63-6.41-5.89-6.54a5.68,5.68,0,0,0-5.61,5.85,5.9,5.9,0,0,0,5.3,6.22C489.78,1260.81,492.85,1258.06,493.19,1255.1ZM348.51,1489.48a5.62,5.62,0,0,0-5.77,6.25,5.55,5.55,0,0,0,6,5.34,5.77,5.77,0,0,0,5.52-5.88A5.84,5.84,0,0,0,348.51,1489.48Zm1185-866.36a5.74,5.74,0,0,0,5.29,6.13,5.73,5.73,0,0,0,.93-11.42A6,6,0,0,0,1533.54,623.12ZM424.46,1120.38a5.48,5.48,0,0,0-5.88,5.46,5.55,5.55,0,0,0,5.4,6,5.74,5.74,0,0,0,6-5.43A6,6,0,0,0,424.46,1120.38ZM464,1146.05a5.47,5.47,0,0,0-5.31-6,6,6,0,0,0-6.09,5.45,5.76,5.76,0,0,0,5.45,6A5.54,5.54,0,0,0,464,1146.05ZM579.24,613.61a6,6,0,0,0-5.93,5.62,5.81,5.81,0,0,0,5.64,5.84,5.57,5.57,0,0,0,5.8-5.6A5.49,5.49,0,0,0,579.24,613.61ZM1630.5,1268.8a5.45,5.45,0,0,0-5.49-5.2,5.67,5.67,0,1,0,.25,11.32A5.48,5.48,0,0,0,1630.5,1268.8Zm-63.91-222.12a5.57,5.57,0,0,0-5.24,5.51c-.11,3.3,2.41,6.16,5.38,6.11a6.4,6.4,0,0,0,5.78-6A5.93,5.93,0,0,0,1566.59,1046.68ZM1278.93,513.27a5.87,5.87,0,0,0-5.34,5.46c-.19,3.22,2.33,6.13,5.31,6.13a6.38,6.38,0,0,0,5.82-5.86A5.84,5.84,0,0,0,1278.93,513.27ZM1230,450.87a5.52,5.52,0,0,0,5.26-5.41,5.88,5.88,0,0,0-5.68-5.82,5.62,5.62,0,0,0,.42,11.23ZM811.83,206.67a5.39,5.39,0,0,0,5.13,5.48,5.33,5.33,0,0,0,5.12-5.48c0-3.07-2.26-5.6-5-5.52A5.75,5.75,0,0,0,811.83,206.67Zm745.82,791.46c-.09-3.08-2.53-5.49-5.28-5.23a5.74,5.74,0,0,0-4.94,5.78,5.29,5.29,0,0,0,5.38,5.2A5.38,5.38,0,0,0,1557.65,998.13ZM757.42,1496.39a5.21,5.21,0,1,0-.09,10.42,5.22,5.22,0,1,0,.09-10.42Zm-587-795a5.45,5.45,0,1,0-5.45,5.22A5.27,5.27,0,0,0,170.42,701.43ZM604,491.42c-2.72.18-4.51,2.29-4.44,5.24a4.62,4.62,0,0,0,4.77,4.88,5.08,5.08,0,1,0-.33-10.12ZM880.7,1521.79a5.25,5.25,0,0,0-5.6,5,5.17,5.17,0,0,0,5.43,5.15c2.79,0,4.66-2,4.69-5S883.44,1521.93,880.7,1521.79ZM940,321.52c.23-3.2-1.73-5.56-4.69-5.64a5.25,5.25,0,0,0-5.55,5,5.18,5.18,0,0,0,5.22,5.27A4.72,4.72,0,0,0,940,321.52ZM439.87,948.44a5.19,5.19,0,0,0-4.88-5c-3.07-.25-5.27,1.89-5.25,5.11,0,3,1.89,5,4.66,5A5.22,5.22,0,0,0,439.87,948.44Zm1218.6-535.68c-3,.1-4.93,2.45-4.69,5.64a4.68,4.68,0,0,0,5,4.58,5.12,5.12,0,1,0-.33-10.22Zm-26.79,442.75a5.27,5.27,0,0,0-4.44,6,5.06,5.06,0,0,0,5.09,4.66,5.6,5.6,0,0,0,4.93-5.71A5.33,5.33,0,0,0,1631.68,855.51ZM852.35,138.38a5.09,5.09,0,0,0,4.92,4.86,5.66,5.66,0,0,0,5.13-5.55,5.4,5.4,0,0,0-5.43-5.17A5.27,5.27,0,0,0,852.35,138.38ZM746.7,482.09a5.39,5.39,0,0,0-4.94,4.94,5.63,5.63,0,0,0,4.9,5.74c2.72.23,5.15-2.26,5.17-5.31A5.14,5.14,0,0,0,746.7,482.09Zm45.43-63.25a5.62,5.62,0,0,0-5.21-5.44,5.22,5.22,0,0,0,.32,10.42A5.41,5.41,0,0,0,792.13,418.84Zm858.29,722.65a4.94,4.94,0,1,0,4.9,4.92A5,5,0,0,0,1650.42,1141.49ZM350.29,1086.1a5,5,0,0,0,4.91,4.91,4.94,4.94,0,0,0-.05-9.88A5,5,0,0,0,350.29,1086.1Zm702.48-656.33a4.94,4.94,0,0,0,.16,9.88,4.94,4.94,0,0,0-.16-9.88ZM654,1437.73a4.91,4.91,0,0,0,.46,9.81,4.91,4.91,0,0,0-.46-9.81Zm871.3-956.91a5,5,0,0,0,4.66,5.15,4.88,4.88,0,0,0,5.06-4.71,4.94,4.94,0,0,0-4.62-5.17A5.06,5.06,0,0,0,1525.26,480.82Zm-506.53-71a4.49,4.49,0,0,0-4.86,4.6,4.72,4.72,0,0,0,4.67,4.88,5.45,5.45,0,0,0,5.06-4.74C1023.73,412.16,1021.45,410,1018.73,409.85ZM392.13,696.71a5,5,0,0,0,4.32,5.33,4.32,4.32,0,0,0,4.53-4.22c.22-2.86-1.65-5.26-4.19-5.35A4.77,4.77,0,0,0,392.13,696.71Zm379-243.41a4.37,4.37,0,1,0-8.67-.21,4.32,4.32,0,0,0,4.14,4.59A4.8,4.8,0,0,0,771.18,453.3ZM816.37,296a4.71,4.71,0,0,0-4-4.89,4.62,4.62,0,0,0-4.72,4.81,4.83,4.83,0,0,0,4.38,4.54A4.37,4.37,0,0,0,816.37,296Zm6.45-182.12a4.06,4.06,0,0,0-4.16,4.52,4.11,4.11,0,0,0,3.94,4.07,4.27,4.27,0,0,0,4.64-4.13A4.56,4.56,0,0,0,822.82,113.89Zm-509.38,1450a4.55,4.55,0,0,0-4.75-4.12,4,4,0,0,0-3.83,4.14,4.19,4.19,0,0,0,4.29,4.46A4.3,4.3,0,0,0,313.44,1563.92ZM1838,1296a4.55,4.55,0,0,0-5.28,3.46,4.32,4.32,0,0,0,3.91,4.87,3.9,3.9,0,0,0,4.41-3.5A4.13,4.13,0,0,0,1838,1296ZM1509.77,747.28a4.54,4.54,0,0,0,4.19,4,4.23,4.23,0,0,0,.25-8.45A4.48,4.48,0,0,0,1509.77,747.28ZM1457.83,1313a4.55,4.55,0,0,0,4.19,4,4.23,4.23,0,0,0,.25-8.46A4.49,4.49,0,0,0,1457.83,1313Zm67.09-511.24a4.31,4.31,0,0,0,4.22,3.87,4.62,4.62,0,0,0,4.14-4.77,4.71,4.71,0,0,0-4.75-4.19A4.36,4.36,0,0,0,1524.92,801.77Zm-506.35,800.35a4.1,4.1,0,0,0-4.65,3.9,4,4,0,0,0,3.49,4.31,4.43,4.43,0,0,0,4.78-3.91A4.32,4.32,0,0,0,1018.57,1602.12ZM303.64,693a4,4,0,0,0,4.27,3.52,4.5,4.5,0,0,0,4-4,4.36,4.36,0,0,0-4.44-4.23A4.16,4.16,0,0,0,303.64,693Zm81.71,177.72a4.16,4.16,0,1,0,.12,8.32,3.91,3.91,0,0,0,4-3.83A4.19,4.19,0,0,0,385.35,870.67Zm81.82,414.17a4.19,4.19,0,0,0-3.54,4.35,3.91,3.91,0,0,0,3.93,3.91,4.45,4.45,0,0,0,4.35-4.36A4.32,4.32,0,0,0,467.17,1284.84Zm900.34-764.48a4.21,4.21,0,0,0-4,4.66,4.3,4.3,0,0,0,4.09,4,4.65,4.65,0,0,0,4.11-4.74A4.3,4.3,0,0,0,1367.51,520.36ZM366.94,1548.62a4.15,4.15,0,0,0-4.45-3.48,4.31,4.31,0,0,0-3.7,4.32,4.5,4.5,0,0,0,4.58,4.23A4.38,4.38,0,0,0,366.94,1548.62Zm5.66-88a4.2,4.2,0,0,0-4-3.92,4.24,4.24,0,0,0-.09,8.48A4.3,4.3,0,0,0,372.6,1460.59Zm100.85-256.07a4.06,4.06,0,0,0,3.72-4.15,4,4,0,0,0-3.95-3.91,4,4,0,0,0,.23,8.06Zm675.26,658.74a4.13,4.13,0,0,0-3.68-4.21,4,4,0,0,0-4,3.83,4.07,4.07,0,0,0,3.62,4.23A4.17,4.17,0,0,0,1148.71,1863.26Zm-78.28-182.42a3.65,3.65,0,0,0-3.67-4,3.88,3.88,0,0,0-3.46,3.62,4,4,0,0,0,3.8,4.06A3.54,3.54,0,0,0,1070.43,1680.84ZM508.54,668.15a3.85,3.85,0,0,0-3.6-3.48,3.72,3.72,0,0,0-3.51,4.19,3.45,3.45,0,0,0,3.46,3.48A4,4,0,0,0,508.54,668.15Zm911.06,713.61a3.55,3.55,0,0,0,3.43,3.54,3.72,3.72,0,0,0-.35-7.43A3.65,3.65,0,0,0,1419.6,1381.76Zm-224.74,232a3.72,3.72,0,0,0-.07,7.43,3.74,3.74,0,0,0,.07-7.43ZM1688,1165.89a3.46,3.46,0,0,0-3.69-3.31,3.58,3.58,0,0,0-3.33,3.7,3.52,3.52,0,0,0,7-.39ZM566.33,476.78a3.52,3.52,0,0,0,3.48,3.55,3.51,3.51,0,0,0,.08-7A3.53,3.53,0,0,0,566.33,476.78Zm1026,449.1a3.84,3.84,0,0,0-4,3.77,4,4,0,0,0,3.46,3.64,3.53,3.53,0,0,0,3.52-3.44A3.71,3.71,0,0,0,1592.35,925.88ZM127.17,681.8a3.49,3.49,0,0,0,3.59,3.41,3.37,3.37,0,0,0,3.16-3.1,3.42,3.42,0,0,0-3.19-3.77A3.5,3.5,0,0,0,127.17,681.8ZM1571.5,1280.73a3.32,3.32,0,1,0-.38,6.59,3.19,3.19,0,0,0,3.05-3.1A3.34,3.34,0,0,0,1571.5,1280.73Zm-245.84,184.16a3.21,3.21,0,0,0,3.35,3.49,3.3,3.3,0,0,0-.28-6.6A3.24,3.24,0,0,0,1325.66,1464.89ZM692,1462a3.53,3.53,0,0,0-3.27-3,3.25,3.25,0,0,0-3.23,3.63,3.16,3.16,0,0,0,3.17,3A3.44,3.44,0,0,0,692,1462Zm883.54-498.1a3.21,3.21,0,0,0-3.61-3.22,3.52,3.52,0,0,0-2.88,3.36,3.46,3.46,0,0,0,3.7,3.24A3.33,3.33,0,0,0,1575.57,963.87Zm-1124.46-284a3.33,3.33,0,1,0,0,6.64,3.27,3.27,0,0,0,2.88-3.29A3.35,3.35,0,0,0,451.11,679.87ZM726.18,1482a3.08,3.08,0,0,0-3-3.11,2.68,2.68,0,0,0-2.63,2.69,3.05,3.05,0,0,0,2.62,3.48A3,3,0,0,0,726.18,1482ZM1476.9,492.89a3.18,3.18,0,1,0-.85,6.29,3.31,3.31,0,0,0,3.35-2.8A3,3,0,0,0,1476.9,492.89Zm-781.38,9a2.69,2.69,0,0,0-2.53-2.79,3,3,0,0,0-3.14,3,2.87,2.87,0,1,0,5.67-.21Zm-95.84,951.78a2.7,2.7,0,0,0-2.7,2.63,3.07,3.07,0,0,0,2.55,3.54,2.92,2.92,0,0,0,3.11-3A3.1,3.1,0,0,0,599.68,1453.65Zm-108.26,29.48a3.13,3.13,0,0,0,.18,6.18,3,3,0,0,0,2.95-3.14A3.11,3.11,0,0,0,491.42,1483.13Zm780.14-3.49a3.35,3.35,0,0,0,3.29,3.59,3.19,3.19,0,0,0,3-3.13,3.16,3.16,0,0,0-6.29-.46ZM789.33,1611a3.14,3.14,0,0,0-2.6-3.46,3.09,3.09,0,0,0-3.61,2.34,3.26,3.26,0,0,0,2.88,3.89A3.16,3.16,0,0,0,789.33,1611ZM1853.59,1265.6a3,3,0,0,0,2.8,3.31,2.84,2.84,0,0,0,2.83-2.54,2.94,2.94,0,0,0-2.34-3.62A3.08,3.08,0,0,0,1853.59,1265.6ZM1164.15,405a3,3,0,0,0-3.34-2.76,2.73,2.73,0,0,0-2.32,3,3,3,0,0,0,2.94,3.18A3.1,3.1,0,0,0,1164.15,405ZM333.2,1120.3c-.33,1.45.65,2.62,2.28,2.85s3.46-1.27,3-2.84c-.33-1.1-1.5-2-2.69-3.39C334.65,1118.35,333.45,1119.22,333.2,1120.3ZM1822.44,1248a2.44,2.44,0,0,0,2.72-2.48c.16-1.66-1.49-3.32-3.06-2.78-1.06.36-1.84,1.58-3.21,2.85C1820.41,1246.71,1821.35,1247.87,1822.44,1248Zm-227.2-407.28c-.46,1.45.47,2.65,2.06,3s3.56-1.08,3.21-2.63c-.26-1.12-1.37-2-2.47-3.57C1596.8,838.92,1595.57,839.7,1595.24,840.76ZM1424,509.81c.26-1.47-.81-2.57-2.44-2.72s-3.38,1.46-2.84,3c.38,1.08,1.59,1.86,2.87,3.25C1422.64,511.83,1423.79,510.91,1424,509.81Zm292.52,675.27c-.69,1.45.58,3.3,2.19,3.53a2.43,2.43,0,0,0,2.91-2.14,2.93,2.93,0,0,0-2.78-3.67C1718.2,1183.36,1717,1184.05,1716.49,1185.08Zm-1271,138.23a2.49,2.49,0,0,0,2.85,2.89,2.83,2.83,0,0,0,2.4-2.86c.08-1.66-1.42-3-3.66-2.85C446.63,1321.22,445.65,1322.2,445.47,1323.31Zm1158.22-251.94a2.39,2.39,0,0,0-2.89-2.16,2.7,2.7,0,0,0-2.38,2.84,2.71,2.71,0,1,0,5.27-.68ZM185.18,664.61c-1.13-.73-2.88.37-3.19,1.77a2.35,2.35,0,0,0,1.89,3.13c1.07.14,2.27-.75,4.07-1.43C186.75,666.52,186.17,665.25,185.18,664.61Zm996.9,1218.51c.61-1.25-.66-2.82-2.11-2.95-1.62-.16-2.91.66-2.9,2.22,0,1.08,1,2.16,1.85,3.87C1180.35,1884.89,1181.56,1884.17,1182.08,1883.12Zm332.09-584.34c-.25,1.52,1,2.48,2.59,2.65,1.39.15,3-1.28,2.55-2.58-.35-1.12-1.42-2-2.58-3.57C1515.57,1296.79,1514.34,1297.7,1514.17,1298.78Zm-74.3,48.66a5,5,0,0,0,2.63,2.59c1.36.51,3-1.43,2.55-3.11-.29-1.1-1.37-2-1.88-2.67C1441,1344.31,1439.31,1346,1439.87,1347.44ZM1601.3,432.17a5,5,0,0,0,2.64,2.59c1.36.5,3-1.43,2.54-3.12-.29-1.09-1.37-2-1.88-2.65C1602.4,429,1600.74,430.74,1601.3,432.17ZM914.75,1544.73c-1.28-.53-2.82.84-2.86,2.25,0,1.6.8,2.89,2.37,2.79,1.08-.07,2.11-1.11,3.76-2.07C916.59,1546.35,915.82,1545.17,914.75,1544.73Zm266.72,249.59c-.24,1.52,1,2.48,2.59,2.65s3-1.28,2.56-2.58c-.36-1.13-1.43-2-2.59-3.57C1182.87,1792.33,1181.64,1793.24,1181.47,1794.32ZM552.05,511.41c.31-1.47-.76-2.6-2.39-2.78-1.42-.16-3,1.15-2.7,2.45.29,1.14,1.32,2.09,2.42,3.7C550.6,513.31,551.84,512.47,552.05,511.41Zm683.28-157c-.64-.07-1.77,1.24-2.06,2.14-.43,1.34,1,3,2.24,2.65,1.06-.3,1.91-1.38,3.43-2.57C1237.34,355.62,1236.38,354.56,1235.33,354.46Zm-673,211.22c-.07.66,1.15,1.91,2,2.14a2.06,2.06,0,0,0,2.69-2.15c-.09-1-1.27-1.93-2.4-3.51C563.48,563.73,562.4,564.65,562.28,565.68ZM1562.83,818.76c-.7,0-1.9,1.26-2,2.09a2.07,2.07,0,0,0,2.37,2.49c1-.16,1.87-1.37,3.41-2.61C1564.87,819.77,1563.86,818.78,1562.83,818.76ZM985.67,1586.29c.05-.71-1.14-1.86-2-2.19a2.11,2.11,0,0,0-2.6,2.28c.24,1.07,1.27,2,2.41,3.62C984.53,1588.31,985.59,1587.34,985.67,1586.29ZM1690.94,438c0,.67,1.23,1.88,2.08,2.06a2.07,2.07,0,0,0,2.61-2.25c-.12-1-1.36-1.88-2.56-3.41C1692.05,436,1691,437,1690.94,438ZM840.24,84.18c-.08.66,1.15,1.92,2,2.14a2.06,2.06,0,0,0,2.69-2.14c-.09-1-1.26-1.94-2.39-3.52C841.43,82.23,840.35,83.15,840.24,84.18ZM1666.39,878c-1.3-.31-2.63,1.37-2.15,2.72.32.88,1.49,2.15,2.13,2.06,1.05-.13,2-1.22,3.54-2.33C1668.35,879.32,1667.47,878.26,1666.39,878ZM543.18,1471.86c0,.71,1.31,1.74,2.22,2a2.15,2.15,0,0,0,2.36-2.55c-.34-1-1.45-1.84-2.74-3.37C544.12,1469.73,543.16,1470.8,543.18,1471.86ZM390.43,1426c0-.7-1.34-1.88-2.19-2a2.08,2.08,0,0,0-2.38,2.52c.2,1,1.42,1.85,2.69,3.38C389.47,1428.16,390.44,1427.1,390.43,1426Zm360.88,162.37c-.67,0-1.65,1.4-1.89,2.32-.34,1.33,1.24,2.89,2.47,2.43,1-.38,1.78-1.54,3.2-2.87C753.39,1589.38,752.35,1588.39,751.31,1588.41Zm961.2-1187.62c-.65,0-1.7,1.34-2,2.25-.38,1.32,1.14,3,2.36,2.55,1-.35,1.84-1.49,3.29-2.76C1714.56,401.86,1713.56,400.84,1712.51,400.79ZM415.32,980.9a2.91,2.91,0,0,0-2,2,2.78,2.78,0,0,0,1.79,2.14c.76.07,1.62-1.05,2.91-2C416.81,982.05,416,980.83,415.32,980.9Zm1019.87,455.72a1.66,1.66,0,0,0,2.13,1.89,3.2,3.2,0,0,0,1.75-2.36c0-.75-1.1-1.54-2.17-2.88C1436.06,1434.83,1435.28,1435.69,1435.19,1436.62Zm318.68-232.47a1.64,1.64,0,0,0-2.49,1.34,3.37,3.37,0,0,0,1.33,2.66c.56.32,1.77-.49,3.25-1C1755,1205.77,1754.66,1204.6,1753.87,1204.15Zm36.11,22c0-.81-1-1.68-1.54-2.52-.78.64-2,1.16-2.22,2s.67,1.78,1.38,3.4C1788.78,1227.63,1789.93,1226.91,1790,1226.12ZM429.73,1358c0-.79-1.05-1.62-1.65-2.44-.75.67-2,1.24-2.14,2s.74,1.74,1.49,3.3C428.56,1359.54,429.7,1358.79,429.73,1358Zm1316-63.36c.12.82,1.29,1.48,2,2.22.65-.76,1.78-1.5,1.82-2.28s-1-1.64-2-3.08C1746.65,1293,1745.64,1293.88,1745.75,1294.63ZM949.27,1565a1.75,1.75,0,0,0-2.26,1.94c0,.72,1,2,1.5,1.93.91-.1,1.75-.93,3.11-1.76C950.52,1566.08,950,1565.16,949.27,1565ZM969.36,342.43a2.47,2.47,0,0,0,2-1.23,1.64,1.64,0,0,0-1.75-2.25c-.7,0-1.37.79-2.51,1.52C968.14,341.41,968.71,342.37,969.36,342.43Zm-48.44-77.8a2.42,2.42,0,0,0-2.06,1.13,1.64,1.64,0,0,0,1.61,2.34c.7,0,1.42-.73,2.59-1.39C922.1,265.72,921.58,264.74,920.92,264.63ZM349.05,855.22c-.13.53.81,1.77,1.48,2,1.37.4,2.28-.6,2.24-1.93,0-.77-.7-1.51-1.42-2.94C350.25,853.62,349.27,854.33,349.05,855.22Zm756.33-435.15c-.05,1.33.84,2.33,2.22,1.95.67-.19,1.63-1.41,1.51-1.94-.21-.89-1.18-1.62-2.26-2.95C1106.1,418.56,1105.41,419.3,1105.38,420.07Zm344.39,1070.06a2.47,2.47,0,0,0,1.26,2,1.64,1.64,0,0,0,2.22-1.79c0-.7-.82-1.36-1.56-2.47C1450.77,1488.9,1449.81,1489.49,1449.77,1490.13Zm440.89-206.38a1.68,1.68,0,0,0,.62,3.31c.62,0,1.17-1.07,2.2-2.13C1892.13,1284.32,1891.24,1283.56,1890.66,1283.75ZM407.76,1390.44a2.42,2.42,0,0,0-1.32,2,2.4,2.4,0,0,0,2,1.32c.62,0,1.17-1.07,2.2-2.13C409.24,1391,408.34,1390.25,407.76,1390.44Zm-6-461.92c-.2-.62-1.29-1-2-1.44-.47.7-1.35,1.43-1.3,2.09s1.07,1.18,2.14,2.22C401.2,930,401.94,929.13,401.76,928.52ZM1532.26,713a1.68,1.68,0,0,0,3.3-.63c0-.63-1.08-1.18-2.14-2.22C1532.82,711.47,1532.07,712.36,1532.26,713Zm-276.08,801.61c.06-.66-.81-1.4-1.27-2.1-.71.47-1.79.81-2,1.44s.53,1.5,1.11,2.88C1255.1,1515.73,1256.13,1515.19,1256.18,1514.56Zm-39.29,68.79c.06-.66-.82-1.4-1.29-2.11-.7.47-1.78.81-2,1.45s.52,1.49,1.1,2.86C1215.79,1584.52,1216.83,1584,1216.89,1583.35ZM808,62.64c-.44,0-1.38,1-1.29,1.28.23.72.85,1.72,1.44,1.82s1.31-.81,2.63-1.72C809.35,63.29,808.67,62.68,808,62.64ZM287.27,1598.8c0,.43,1,1.39,1.23,1.3.72-.31,1.65-.9,1.8-1.54s-.74-1.3-1.61-2.64C287.93,1597.37,287.33,1598.06,287.27,1598.8ZM1332.88,503.44c-.42,0-1.32,1.05-1.21,1.34.26.71.93,1.69,1.52,1.75s1.28-.86,2.55-1.82C1334.33,504,1333.61,503.45,1332.88,503.44Zm399.2-136.21c-.4-.06-1.41.94-1.33,1.2.23.75.78,1.73,1.41,1.93s1.32-.71,2.63-1.51C1733.46,368,1732.81,367.35,1732.08,367.23ZM437.61,1180.29c.09.44.83.75,1.29,1.12.33-.49,1-1,.93-1.45s-.71-.85-1.32-1.5C438.08,1179.27,437.53,1179.84,437.61,1180.29Zm-61.45-128.71a1.27,1.27,0,0,0-2.52.17c0,.44.75.89,1.37,1.54C375.54,1052.56,376.23,1052,376.16,1051.58Zm986.08,433.22c.06.46.76.83,1.18,1.24.37-.45,1-.9,1-1.37s-.64-.91-1.2-1.62C1362.78,1483.82,1362.18,1484.35,1362.24,1484.8Zm-501.77,75.27c-.46.1-.79.88-1.17,1.36.51.36,1,1,1.52,1s.89-.76,1.57-1.41C861.54,1560.56,860.93,1560,860.47,1560.07ZM524.3,632.87a1.21,1.21,0,0,0,.13,2.41c.41,0,.85-.71,1.47-1.3C525.22,633.47,524.7,632.8,524.3,632.87Zm1136.33,655.95a1.27,1.27,0,0,0-2.53.17c0,.44.76.89,1.38,1.54C1660,1289.8,1660.69,1289.25,1660.63,1288.82Zm211.95,30.8a1.77,1.77,0,0,0-1.41-1,1.73,1.73,0,0,0-1.08,1.34c0,.44.81.84,1.49,1.45C1872,1320.64,1872.69,1320,1872.58,1319.62Zm-682.8,385.06c-.47.09-.79.87-1.18,1.35.51.35,1,1,1.51,1s.89-.75,1.58-1.39C1190.84,1705.17,1190.24,1704.59,1189.78,1704.68ZM1679.68,383.3a1.8,1.8,0,0,0-1.43-1,1.74,1.74,0,0,0-1.07,1.35c0,.45.82.84,1.5,1.46C1679.14,384.32,1679.79,383.71,1679.68,383.3ZM1081.11,1733.43a1.66,1.66,0,0,0-1,1.29,1.7,1.7,0,0,0,1.2,1.14c.53.05,1.11-.47,2-.92C1082.05,1734,1081.52,1733.37,1081.11,1733.43ZM96.1,660.25c-.44.12-.7.94-1,1.45.53.33,1.1.95,1.59.9s.82-.83,1.43-1.52C97.21,660.68,96.56,660.12,96.1,660.25Zm696-329c.45-.12.71-.94,1-1.46-.53-.32-1.1-.94-1.59-.89s-.82.83-1.43,1.52C791,330.86,791.64,331.41,792.1,331.29Zm473.47,133.62a1.71,1.71,0,0,0-1.25-1.19,1.76,1.76,0,0,0-1.3,1.16c0,.43.69.95,1.25,1.64C1264.86,465.84,1265.6,465.36,1265.57,464.91Zm321.36,551.9c-.45.12-.71.94-1,1.46.54.32,1.1.94,1.59.89s.82-.83,1.43-1.52C1588,1017.24,1587.39,1016.69,1586.93,1016.81ZM1158.72,1916a1.7,1.7,0,0,0-1,1.36,1.63,1.63,0,0,0,1.27,1c.42,0,.79-.78,1.37-1.42C1159.67,1916.46,1159.09,1915.84,1158.72,1916Zm21.41-1545c.07.32.57.56.89.84.28-.49.57-1,.86-1.46l-1.18-.42C1180.49,370.27,1180.07,370.66,1180.13,371Zm54.57,1176.8c-.31-.06-.71.34-1.07.53l1,1.28.84-.92C1235.25,1548.33,1235,1547.82,1234.7,1547.76ZM536.3,456.31c-.06-.32-.57-.56-.88-.84l-.88,1.46,1.17.42C535.93,457,536.35,456.61,536.3,456.31Zm-141.24,560.5c-.27,0-.56.5-.85.78l.86.85.82-.87C395.64,1017.32,395.36,1016.83,395.06,1016.81Zm1002.09,487.1c-.2.33-.6.73-.52,1s.61.42.94.62l.58-1ZM1249.8,410.37c-.29,0-.58.5-.87.77.28.29.56.8.83.8s.59-.49.93-.81C1250.39,410.86,1250.09,410.37,1249.8,410.37Zm48.09,74.14a1.12,1.12,0,0,0,.8.83c.29,0,.59-.51.89-.79l-1-.9C1298.38,483.9,1297.88,484.21,1297.89,484.51ZM767.1,1644.3c-.33.18-.87.31-1,.57s.3.67.47,1l1-.56ZM711.8,467.49c-.08.28.33.68.52,1,.34-.2.91-.34,1-.61s-.32-.69-.52-1C712.42,467.07,711.86,467.22,711.8,467.49Zm-259,766.9-1,.56c.19.34.31.86.58,1s.65-.31,1-.49ZM1686.6,845.62c-.28-.07-.67.31-1,.49.18.34.31.89.56.95s.67-.31,1-.49C1687,846.23,1686.85,845.68,1686.6,845.62ZM253.47,1578.06a1.16,1.16,0,0,0,.8.83c.29,0,.6-.51.89-.79l-1-.9C254,1577.45,253.46,1577.76,253.47,1578.06Zm47.8-478.14c-.3.28-.82.56-.84.87s.51.59.79.89l.84-.91Zm61.56-422.76c-.28-.07-.67.31-1,.49.18.34.31.9.56,1s.67-.31,1-.5C363.21,677.77,363.08,677.22,362.83,677.16ZM1672,471.7c-.07.28.33.68.52,1,.35-.2.91-.34,1-.61s-.33-.68-.53-1C1672.61,471.28,1672.05,471.43,1672,471.7ZM544.88,598.86c-.29,0-.59.51-.89.79.29.3.58.82.87.82s.59-.5.93-.82C545.48,599.36,545.18,598.86,544.88,598.86ZM738,1536c0-.3-.51-.6-.79-.9-.3.29-.81.57-.82.87s.5.6.82,1C737.48,1536.61,738,1536.31,738,1536ZM1200.1,336.9c.09.28.61.43.94.64.2-.33.61-.72.54-1s-.6-.42-.94-.63C1200.44,336.26,1200,336.65,1200.1,336.9ZM803,153.07c-.19-.34-.32-.88-.59-1s-.66.31-1,.5l.57,1Zm751.41,525.64c-.18-.27-.36-.53-.53-.8-.12.16-.33.32-.34.48s.19.33.3.5ZM1548,766.52c-.1.13,0,.39,0,.59l.91-.25c-.1-.17-.2-.34-.31-.51C1548.37,766.4,1548.11,766.4,1548,766.52Zm-475-366-.88-.32c0,.2-.09.44,0,.58s.34.15.53.22Zm-40.27,1260.15c-.15,0-.24.28-.36.44l.89.34v-.6C1033.05,1660.75,1032.85,1660.59,1032.69,1660.63Zm602.36-568.42c-.1.13,0,.38-.06.58l.91-.25-.3-.51C1635.41,1092.08,1635.15,1092.08,1635.05,1092.21Zm-202.72,432.71-.88-.32c0,.2-.09.44,0,.58s.35.15.53.22ZM828.32,29.87c0-.16-.2-.33-.32-.49l-.55.78.55.2C828.12,30.2,828.32,30,828.32,29.87ZM62.17,641.67l-.92.24c.1.17.17.42.31.49s.37-.08.56-.13Zm354.91,892.6c-.15,0-.37.1-.56.16l.54.79.35-.48C417.3,1534.57,417.23,1534.32,417.08,1534.27ZM905.61,211.94c-.14-.06-.37.08-.56.13l.51.82.37-.47C905.82,212.25,905.76,212,905.61,211.94Zm287.1,1725.62.89.35c0-.2.09-.44,0-.58s-.34-.16-.53-.23ZM234.08,1612.34l.14.41.3-.34Zm400.23-135.79.2-.39-.45,0Zm-317.14-642-.42.14.34.31Zm686.18-474.42.14.41.31-.34Zm922.45,945.13.19-.39-.45,0ZM274.72,1543.55l.14.41.3-.33ZM797.22,241.21l.2-.38-.45,0ZM273.27,672l.39.19,0-.45Z"/></g><g id="explotion-4"><path d="M1634.56,435c-281.2,233.48-309.76,475.58-50.79,430.39-259,45.19-142.39,262,207.26,385.37-349.65-123.41-578.52-28.57-406.88,168.61-171.64-197.18-304.31,8.17-235.85,365.07-68.46-356.9-268.76-504.16-356.09-261.79,87.33-242.37-161.92-253.79-443.11-20.31,281.19-233.48,309.76-475.57,50.78-430.39,259-45.18,142.39-262-207.26-385.37C542.27,810,771.14,715.14,599.5,518c171.64,197.18,304.31-8.18,235.85-365.07,68.46,356.89,268.76,504.15,356.1,261.79C1104.11,657,1353.36,668.46,1634.56,435Z"/><path class="cls-2" d="M800.83,1498.69c83.56-231.89-154.92-242.82-424-19.42,269-223.4,296.38-455,48.59-411.8,247.79-43.23,136.24-250.64-198.3-368.72,334.54,118.08,553.53,27.34,389.3-161.32,164.23,188.66,291.16-7.82,225.66-349.3,65.5,341.48,257.15,482.37,340.71,250.48-83.56,231.89,154.92,242.82,424,19.42-269,223.4-296.38,455-48.59,411.8-247.79,43.24-136.24,250.64,198.31,368.73C1422,1120.47,1203,1211.22,1367.2,1399.88,1203,1211.22,1076,1407.7,1141.54,1749.17,1076,1407.7,884.39,1266.8,800.83,1498.69Z"/><path d="M816.23,1456c76.82-213.2-142.43-223.24-389.79-17.86,247.36-205.38,272.49-418.35,44.68-378.6,227.81-39.75,125.25-230.43-182.32-339,307.57,108.56,508.9,25.13,357.92-148.32C797.7,745.64,914.4,565,854.18,251.06c60.22,314,236.42,443.48,313.24,230.28-76.82,213.2,142.43,223.25,389.79,17.86-247.36,205.39-272.48,418.35-44.67,378.6-227.81,39.75-125.26,230.43,182.31,339-307.57-108.57-508.9-25.14-357.91,148.31-151-173.45-267.69,7.19-207.47,321.13C1069.25,1372.3,893.05,1242.76,816.23,1456Z"/><path class="cls-3" d="M831.63,1413.22c70.09-194.5-129.94-203.66-355.6-16.29,225.66-187.37,248.58-381.66,40.75-345.4,207.83-36.26,114.27-210.22-166.33-309.26C631.05,841.31,814.73,765.2,677,607,814.73,765.2,921.19,600.4,866.25,314,921.19,600.4,1081.94,718.58,1152,524.08c-70.08,194.5,129.94,203.66,355.61,16.29C1282,727.74,1259,922,1466.87,885.77,1259,922,1352.6,1096,1633.2,1195c-280.6-99-464.27-22.93-326.53,135.31-137.74-158.24-244.21,6.56-189.27,293C1062.46,1336.9,901.72,1218.72,831.63,1413.22Z"/><path class="cls-4" d="M847,1370.49c63.35-175.81-117.45-184.09-321.42-14.73,204-169.36,224.69-345,36.84-312.19,187.85-32.78,103.28-190-150.34-279.54,253.62,89.52,419.64,20.73,295.14-122.3,124.5,143,220.73-5.93,171.08-264.81C928,635.8,1073.28,742.62,1136.62,566.81c-63.34,175.81,117.45,184.09,321.43,14.73-204,169.36-224.7,345-36.84,312.2-187.86,32.77-103.29,190,150.34,279.53-253.63-89.52-419.65-20.73-295.14,122.3-124.51-143-220.74,5.93-171.08,264.81C1055.67,1301.5,910.38,1194.68,847,1370.49Z"/><path d="M1572.06,1107c-1.71-1,217.91-1.69,190-57.43-21.26-36.13-108.65-59.15-152.21-70.17-7-1.79,225.76-45,131.42-101.5-34.42-20.6-122.75-25.91-162.52-27.71,37.73-22.77,104-68.88,70.84-98.14-9.42-8.21-14.28-14.69-35.84-19.21-45.3-9.53-121.72,1.1-167.26,9-2.18.38,44.35-62.14,8.38-93.83-8.38-7.38-10.44-9.48-15.14-12.28-46.13-27.41-148.64,13.72-197.53,35.94-2,.93-2.38-34-24.86-63.43-60.35-79-153.59-28.1-220.57,41.66-129.84-130-223.32-90.87-238.33,15.14-1.75,12.36,5,11.26-27.12-2.48C536,580.8,496.4,648.41,558.19,742.64c-40.72-7.5-89.25-14.84-130.84-15.48-97.79-1.53-106.68,36.86-59.61,79.9,69.83,61.61,79.69,30.48-43.28,47.44-23.54,3.29-64,10.19-82.2,25.36-11.73,9.75-12,22.12-3.65,32.72,37.82,47.95,144.4,62.61,136.74,64.73-33.16,9.8-138.46,38.93-139.85,73.32-2.3,57.38,198.38,51.44,193.91,54.14-27.47,16.62-94.12,58.93-81.78,88.49,25.59,61.13,219.57,10.47,216.86,14.62-18.89,25.9-39.73,72.2-17.2,95,14.44,14.67,24.94,19.47,40.76,21.22,51.57,5.65,127-24.05,174.3-45.67C774,1382.56,870.76,1442.37,1004,1303.07c133.53,135.8,227.59,91.31,238-23.35,54.93,25.7,153.59,66.24,203.52,42,40.29-21.27,19.21-72.08-6.21-110.09,48,8.89,202.18,35.76,218-10.93C1667.25,1168.67,1600.83,1124.53,1572.06,1107Z"/><path class="cls-4" d="M1565.49,970.74c235-57.83,212.37-112.91-45.08-115.65,175.61-97.48,116.4-142.6-122.94-94.43,93-124,5.88-154.63-182.35-63.68-5.27-133.34-111.64-145.06-223.29-23.35-111.66-121.71-218-110-223.3,23.35-188.21-91-275.34-60.28-182.35,63.68-239.33-48.17-298.55-3-122.93,94.43-257.46,2.74-280.08,57.82-45.09,115.65-235,57.83-212.37,112.92,45.09,115.65-175.62,97.49-116.4,142.6,122.93,94.44-93,124-5.86,154.62,182.35,63.68,5.28,133.33,111.64,145,223.3,23.34,111.65,121.71,218,110,223.29-23.34,188.23,90.94,275.36,60.28,182.35-63.68,239.34,48.16,298.55,3.05,122.94-94.44C1777.86,1083.66,1800.49,1028.57,1565.49,970.74Zm-1148,106.31c-28.36-1.52-56.57-3.81-84.52-9.57-11.56-2.77-39.31-8.14-39.67-23.29-.29-17.51,42.66-30.22,56.65-35.07,33.71-10.72,68.17-18.7,102.7-26.14-39.55,14.87-80.33,26.18-119.34,42a170.35,170.35,0,0,0-18.5,8.82c-4,2.36-8.07,4.8-10.67,8.31-.84,1.37-1,1.68-.71,2.67a9.82,9.82,0,0,0,3.54,3.47c8.33,5.1,18.42,7.53,28.09,10,41,9.33,83.07,13.51,124.8,19.83C445.68,1078.15,431.57,1077.68,417.45,1077.05ZM675,694.69c-18.56-5.92-71.23-25.39-87.42-15.62-12.37,8.17,5.37,42,10,53,4.37,9.58,9.07,19.07,13.31,28.8-12.05-17.83-43.13-59.75-35.11-81.26,11.66-29.82,81.07-.75,102,7.72a539.83,539.83,0,0,1,57.05,28.11C714.68,708.75,694.89,701.44,675,694.69Zm255.38,606.25c-22.91,18.38-75.74,57.07-110.25,31.85-28-21.84-24.6-74.73-20.38-102.78,1.08,24.06-.55,100,42.27,105,32,3.44,78.19-31.86,98.83-47.4,9.57-7.27,18.79-14.78,28.13-22.26A416.33,416.33,0,0,1,930.35,1300.94Zm259.71-598.89c-.58-3.86-1.27-8.16-1.93-12-4-21-9.82-45.22-27.65-58.41-41-28.86-119.34,33.44-152,59.31,29.21-34.77,93-87.64,141.46-74.52,29.65,8.48,39.21,41.82,40.2,69.32C1190.39,691.17,1190.33,696.61,1190.06,702.05Zm225,562.14c-2.82,49.5-141.59-9.61-166.51-21.5,41.77,9.12,82.29,23.74,124.42,30.24,9.21,1.07,23.49,3,31.24-2.52,3.12-2.34,3.6-6.64,3.23-10.28-.83-6.47-3.32-12.38-6.16-18.38-4-8.48-9.07-16.61-14-24.83,3.35,3.45,6.58,7,9.63,10.74C1404.82,1237.39,1414.84,1251.17,1415.08,1264.19Zm64.8-403.3c10.76-8.09,93.7-60.21,80.39-72.57-9.59-7-36.19-5.74-48.54-5.46-45,1.95-89.58,8.19-134.59,11.4,24.27-5.76,203.27-45.91,193.77.08C1564.92,818.6,1502.53,850.07,1479.88,860.89ZM1627,1074.73a302.22,302.22,0,0,1-47,1.29c15.34-3.33,30.65-6,45.78-9.06,15.64-3.49,51.6-9.8,61-22.37,9.45-13.94-32-35-42.09-40.7,16.74,3.85,53.65,16.92,52.6,38.25C1694.65,1065.89,1646.05,1072.58,1627,1074.73Z"/><path d="M306.93,1048.25a9.82,9.82,0,0,1-3.54-3.47c-.3-1-.13-1.3.71-2.67,2.6-3.51,6.68-5.95,10.67-8.31a170.35,170.35,0,0,1,18.5-8.82c39-15.82,79.79-27.13,119.34-42-34.53,7.44-69,15.42-102.7,26.14-14,4.85-56.94,17.56-56.65,35.07.36,15.15,28.11,20.52,39.67,23.29,27.95,5.76,56.16,8,84.52,9.57,14.12.63,28.23,1.1,42.37,1-41.73-6.32-83.77-10.5-124.8-19.83C325.35,1055.78,315.26,1053.35,306.93,1048.25Z"/><path d="M1570.91,794.34c9.5-46-169.5-5.84-193.77-.08,45-3.21,89.58-9.45,134.59-11.4,12.35-.28,39-1.56,48.54,5.46,13.31,12.36-69.63,64.48-80.39,72.57C1502.53,850.07,1564.92,818.6,1570.91,794.34Z"/><path d="M1644.63,1003.89c10,5.71,51.54,26.76,42.09,40.7-9.37,12.57-45.33,18.88-61,22.37-15.13,3.09-30.44,5.73-45.78,9.06a302.22,302.22,0,0,0,47-1.29c19.1-2.15,67.7-8.84,70.28-32.59C1698.28,1020.81,1661.37,1007.74,1644.63,1003.89Z"/><path d="M1387.28,1216.92c5,8.22,10,16.35,14,24.83,2.84,6,5.33,11.91,6.16,18.38.37,3.64-.11,7.94-3.23,10.28-7.75,5.54-22,3.59-31.24,2.52-42.13-6.5-82.65-21.12-124.42-30.24,24.92,11.89,163.69,71,166.51,21.5-.24-13-10.26-26.8-18.17-36.53C1393.86,1223.94,1390.63,1220.37,1387.28,1216.92Z"/><path d="M842,1335c-42.82-4.92-41.19-80.89-42.27-105-4.22,28-7.64,80.94,20.38,102.78,34.51,25.22,87.34-13.47,110.25-31.85A416.33,416.33,0,0,0,969,1265.3c-9.34,7.48-18.56,15-28.13,22.26C920.18,1303.1,873.94,1338.4,842,1335Z"/><path d="M575.75,679.62c-8,21.51,23.06,63.43,35.11,81.26-4.24-9.73-8.94-19.22-13.31-28.8-4.63-11-22.37-44.84-10-53,16.19-9.77,68.86,9.7,87.42,15.62,19.92,6.75,39.71,14.06,59.85,20.76a539.83,539.83,0,0,0-57.05-28.11C656.82,678.87,587.41,649.8,575.75,679.62Z"/><path d="M1149.93,616.4c-48.44-13.12-112.25,39.75-141.46,74.52,32.67-25.87,111-88.17,152-59.31,17.83,13.19,23.65,37.44,27.65,58.41.66,3.87,1.35,8.17,1.93,12,.27-5.44.33-10.88.07-16.33C1189.14,658.22,1179.58,624.88,1149.93,616.4Z"/></g></svg>