<svg xmlns="http://www.w3.org/2000/svg" viewBox="0 0 2000 2000"><defs><style>.cls-1{fill:#ed1c24;}.cls-2{fill:#ffd100;}.cls-3{fill:#fff;}.cls-4{fill:#e6e7e8;}.cls-5{fill:#fff200;}.cls-6{fill:#eae9da;}.cls-7{fill:#e0dfc9;}</style></defs><g id="explotion-8"><path d="M1217.44,320.39c-211.06,175.26-232.51,357-38.11,323.06-194.4,33.92-106.89,196.63,155.57,289.27-262.46-92.64-434.25-21.45-305.41,126.55-128.84-148-228.42,6.14-177,274-51.38-267.89-201.73-378.43-267.29-196.5,65.56-181.93-121.53-190.5-332.6-15.24,211.07-175.26,232.51-357,38.12-323.06,194.39-33.92,106.88-196.63-155.57-289.27,262.45,92.64,434.24,21.45,305.4-126.56,128.84,148,228.42-6.13,177-274,51.38,267.89,201.73,378.42,267.29,196.5C819.28,487.07,1006.38,495.65,1217.44,320.39Z"/><path class="cls-1" d="M591.64,1118.83c62.72-174.06-116.29-182.26-318.24-14.58,202-167.68,222.47-341.55,36.47-309.1C495.87,762.7,412.14,607,161,518.38,412.14,607,576.51,538.9,453.24,397.29,576.51,538.9,671.79,391.42,622.62,135.1c49.17,256.32,193,362.08,255.75,188C815.64,497.18,994.65,505.38,1196.6,337.7c-201.95,167.68-222.46,341.55-36.47,309.1-186,32.45-102.27,188.13,148.85,276.77-251.12-88.64-415.49-20.52-292.21,121.09-123.28-141.61-218.56,5.87-169.39,262.19C798.21,1050.53,654.36,944.77,591.64,1118.83Z"/><path d="M603.2,1086.75c57.66-160-106.92-167.57-292.58-13.4,185.66-154.17,204.53-314,33.53-284.18,171-29.84,94-173-136.85-254.46,230.87,81.49,382,18.87,268.65-111.32,113.34,130.19,200.94-5.4,155.73-241C676.89,418,809.14,515.22,866.81,355.19c-57.67,160,106.91,167.57,292.58,13.41-185.67,154.16-204.53,314-33.54,284.18-171,29.83-94,173,136.85,254.45-230.87-81.49-382-18.86-268.65,111.33-113.34-130.19-200.93,5.4-155.73,241C793.12,1024,660.86,926.72,603.2,1086.75Z"/><path class="cls-2" d="M614.76,1054.68c52.6-146-97.54-152.88-266.93-12.23C517.22,901.8,534.43,756,378.42,783.19c156-27.22,85.78-157.8-124.84-232.14,210.62,74.34,348.49,17.21,245.09-101.57C602.07,568.26,682,444.56,640.74,229.57c41.24,215,161.9,303.7,214.51,157.7-52.61,146,97.53,152.87,266.92,12.23C952.78,540.14,935.58,686,1091.58,658.76c-156,27.22-85.78,157.8,124.85,232.14-210.63-74.34-348.49-17.21-245.1,101.56C867.94,873.69,788,997.38,829.26,1212.37,788,997.38,667.36,908.68,614.76,1054.68Z"/><path class="cls-3" d="M626.31,1022.6c47.55-132-88.16-138.18-241.26-11.06C538.15,884.42,553.71,752.6,412.7,777.21c141-24.61,77.53-142.63-112.85-209.83,190.38,67.2,315,15.56,221.54-91.8,93.46,107.36,165.69-4.45,128.42-198.77,37.27,194.32,146.33,274.5,193.88,142.54-47.55,132,88.16,138.18,241.26,11-153.1,127.13-168.66,258.94-27.65,234.34-141,24.6-77.53,142.63,112.85,209.82-190.38-67.19-315-15.55-221.54,91.8C855.16,859,782.92,970.81,820.2,1165.13,782.92,970.81,673.86,890.64,626.31,1022.6Z"/><path d="M1625.42,1878.85c-7.21-129.31-70.13-188.49-111.87-105.21,41.74-83.28-44.58-95.78-153.45-22.22,108.87-73.56,130.12-158.74,37.77-151.43,92.35-7.31,61.83-88.39-54.25-144.14,116.08,55.75,200.25,29.75,149.64-46.23,50.61,76,106.42,7.4,99.21-121.91,7.21,129.31,70.14,188.49,111.87,105.2-41.73,83.29,44.58,95.79,153.45,22.23-108.87,73.56-130.11,158.74-37.77,151.43-92.34,7.31-61.83,88.39,54.25,144.14C1758.19,1655,1674,1681,1724.63,1756.93,1674,1681,1618.21,1749.54,1625.42,1878.85Z"/><path class="cls-1" d="M1498.26,1417.13c48.42,72.69,101.82,7.07,94.92-116.65,6.9,123.72,67.11,180.34,107,100.66-39.93,79.68,42.66,91.65,146.82,21.26-104.16,70.39-124.49,151.89-36.13,144.89-88.36,7-59.17,84.57,51.9,137.92-111.07-53.35-191.6-28.47-143.18,44.22-48.42-72.69-101.82-7.07-94.92,116.65-6.9-123.72-67.1-180.35-107-100.66,39.94-79.69-42.65-91.65-146.82-21.27,104.17-70.38,124.49-151.88,36.14-144.88,88.35-7,59.16-84.58-51.9-137.92C1466.15,1514.69,1546.68,1489.82,1498.26,1417.13Z"/><path d="M1507.18,1430.52c44.52,66.83,93.61,6.51,87.27-107.24,6.34,113.75,61.7,165.81,98.41,92.54-36.71,73.27,39.22,84.26,135,19.55-95.77,64.71-114.46,139.64-33.23,133.21-81.23,6.43-54.39,77.75,47.72,126.8-102.11-49.05-176.15-26.18-131.63,40.65-44.52-66.83-93.61-6.5-87.27,107.25-6.34-113.75-61.69-165.81-98.41-92.55,36.72-73.26-39.21-84.26-135-19.55,95.77-64.71,114.45-139.63,33.22-133.2,81.23-6.43,54.39-77.76-47.72-126.8C1477.66,1520.22,1551.7,1497.35,1507.18,1430.52Z"/><path class="cls-2" d="M1516.11,1443.92c40.61,61,85.4,5.93,79.61-97.84,5.79,103.77,56.29,151.27,89.78,84.43-33.49,66.84,35.78,76.87,123.15,17.83-87.37,59-104.42,127.4-30.31,121.53-74.11,5.87-49.62,70.93,43.53,115.68-93.15-44.75-160.7-23.88-120.08,37.09-40.62-61-85.41-5.94-79.62,97.84-5.79-103.78-56.29-151.27-89.78-84.43,33.49-66.84-35.78-76.87-123.15-17.84,87.37-59,104.42-127.39,30.31-121.52,74.11-5.87,49.63-70.94-43.53-115.68C1489.18,1525.75,1556.72,1504.89,1516.11,1443.92Z"/><path class="cls-3" d="M1525,1457.32c36.71,55.1,77.19,5.36,72-88.44,5.22,93.8,50.87,136.73,81.14,76.31-30.27,60.42,32.34,69.48,111.31,16.13-79,53.35-94.38,115.14-27.39,109.84-67,5.3-44.86,64.11,39.34,104.55-84.2-40.44-145.25-21.58-108.54,33.53-36.71-55.11-77.19-5.36-72,88.44-5.23-93.8-50.88-136.73-81.15-76.32,30.27-60.41-32.34-69.48-111.31-16.12,79-53.36,94.38-115.14,27.4-109.84,67-5.3,44.85-64.12-39.35-104.56C1500.69,1531.28,1561.74,1512.42,1525,1457.32Z"/><path class="cls-4" d="M1221.48,1527.69c35,9.29,75.32,1.71,105.55-15.76,30.5-17.28,50.93-44.45,52.34-70,38.52-6.49,68.43-34.29,80.5-60.93,12.41-26.94,7-52.72-17.19-62,12.7-36-6.06-59.45-33.36-64.85,19.59,10.09,29.93,32.06,19.35,60.7,24,10,29.09,35.84,16.49,62.31-12.24,26.19-42.2,53-80.3,58.5-1.63,25.42-22.14,52-52.51,68.54-30.1,16.73-70.06,23.38-104.56,13.32-12.42,17.91-38.49,30.56-67.72,33.2-29.15,2.84-61.45-4.32-84.53-21.24-8.28-6-10.08-9.12-7.42-5.36,17.05,24.46,53.14,38.9,88.48,39C1172,1563.69,1206.59,1549.9,1221.48,1527.69Z"/><path d="M1048.12,1524.15c21.66,19.82,55.44,29.48,86.67,27.69,31.29-1.52,60-14.47,73.26-33.62,34.53,10,74.52,3.38,104.64-13.36,30.39-16.55,50.92-43.16,52.55-68.58,33.3-4.92,60.66-26,75-48.76,14.57-22.87,16.09-47.38,3.38-61.81,12.31,14.56,10.56,39-4,61.67-14.37,22.59-41.6,43.44-74.69,48.31-1.63,25.42-22.14,52-52.51,68.54-30.1,16.73-70.06,23.38-104.56,13.32-13.5,19.55-42.78,32.43-74.36,33.64-31.52,1.49-65.34-8.67-86.43-28.67C1047.36,1523.07,1047.74,1523.61,1048.12,1524.15Zm380.55-209.27.53.24c7.73-21,4-38.24-5.81-49.71C1432.89,1276.92,1436.42,1294.09,1428.67,1314.88Z"/><path d="M1045.72,1464.8c21.29,11.73,51.55,9.59,71.87-1,8.91,5.6,19.65,9.09,31.28,10.67l.07,0a124.9,124.9,0,0,0,24.21.77l1.26-.08,1.06-.09c20.81-1.66,42-8.07,59.71-16.42,1.09-.52,2.18-1,3.25-1.57,1.26-.63,2.51-1.27,3.74-1.91a36.87,36.87,0,0,1-.24,4.68c-.07.63-.15,1.26-.25,1.89s-.23,1.27-.36,1.92c-3,14.32-13.87,29.08-30.6,40.85l3.16,1.76c23.55-15.41,37.12-36.42,36.22-55.5l2.07-1.24.17-.1c21.7-13.12,40.52-30.89,52.11-49.54,10.32-17.11,12.26-30.36,13-37,.09-1.4.12-2.8.11-4.18l.6-.58c.91-.9,1.8-1.8,2.65-2.72a.24.24,0,0,0,.08-.09c20.88-22.51,25.09-51.77,5.06-59.31a27.84,27.84,0,0,0-2.8-.93l-.51-.14-.42-.11-.1,0c-.39.47,11,1.35,13.78,16.12,1.58,10.33-3.79,26.15-19.09,40.81-.07-.33-.14-.66-.22-1l-.12-.53a34.41,34.41,0,0,0-1.11-3.66l-.21-.57a3.42,3.42,0,0,1-.13-.34l-.21-.5-.19-.45-.28-.61c-.09-.19-.18-.39-.28-.58l0,0c-.28-.59-.59-1.17-.92-1.73h0c-3.91-6.78-10.46-11.75-20.15-13.42,20.06,11,24,30.38,15.16,52.31-8.75,21.76-30.33,46.1-58.5,63.33-1.09.68-2.2,1.35-3.31,2-18.79,11.17-40,19.21-60.46,22.51l-.5.08c-21.1,3.45-42.2,1.93-58.42-6.45-.28-.14-.56-.28-.83-.43l-.82-.44c-.54-.3-1.07-.61-1.6-.92l.62-.42.61-.41.61-.43.6-.43.59-.43.58-.44c.77-.59,1.51-1.19,2.23-1.81l.53-.46.52-.47.51-.48a40.69,40.69,0,0,0,4.12-4.45,35.23,35.23,0,0,0,2.2-3.11c.12-.18.23-.37.34-.56s.21-.36.31-.54.21-.36.3-.54.19-.34.28-.52c.38-.75.73-1.51,1-2.28a21.67,21.67,0,0,0,1-13.89h0c0-.21-.11-.41-.17-.62s-.1-.34-.16-.5c-.11-.38-.25-.75-.39-1.13a25.24,25.24,0,0,1-.7,4.73c0,.23-.1.45-.16.67-.12.45-.25.89-.39,1.34s-.3.87-.46,1.31a31.77,31.77,0,0,1-1.43,3.23c-.22.43-.44.86-.68,1.28-.13.21-.25.43-.38.65-.24.41-.5.82-.77,1.23s-.55.83-.84,1.24a42.47,42.47,0,0,1-5.06,5.9c-.39.39-.79.76-1.19,1.14-1,.92-2.06,1.82-3.17,2.69h0c-.67.52-1.35,1-2,1.54h0c-.7.51-1.42,1-2.15,1.48h0c-.49.32-1,.64-1.49,1h0c-1.22.76-2.5,1.5-3.81,2.2l-.21.11c-.48.26-1,.51-1.46.76a80.23,80.23,0,0,1-9.53,4.05l-.84.29-.66.23-.81.26-.69.22c-1.68.53-3.41,1-5.16,1.44-.28.08-.56.15-.85.21l-.86.2c-.81.19-1.62.36-2.44.53l-.16,0-.88.17-.87.16a96.75,96.75,0,0,1-9.87,1.24,92.23,92.23,0,0,1-30.35-2.75h0c-.88-.24-1.76-.49-2.63-.75C1042.44,1463,1040.49,1461.94,1045.72,1464.8Zm2.4,59.35a1.43,1.43,0,0,0-.14-.2c-.34-.48-.66-1-1-1.43.53.5,1.07,1,1.61,1.48l.73.63h0l.79.69.16.12c.21.19.43.37.66.55h0l.4.33c.52.42,1,.84,1.57,1.25l.53.41c1.12.87,2.28,1.71,3.45,2.53,1.75,1.23,3.55,2.4,5.4,3.53l1,.58q2.81,1.66,5.76,3.17c1,.49,1.93,1,2.9,1.43l.32.15c1,.47,2,.93,3,1.37l.07,0q4.07,1.77,8.3,3.24l.1,0,1,.35,1,.33,1.12.36.91.29,1,.3.15,0a134.47,134.47,0,0,0,36.21,5.58h0l2.27,0c.76,0,1.53,0,2.29,0s1.52,0,2.28,0h0c1.13,0,2.26-.09,3.39-.15,1.52-.09,3-.2,4.53-.34l2.23-.22,1.12-.13c.87-.1,1.75-.21,2.61-.33l.73-.11,1.1-.16,1.41-.22c1-.17,2-.34,3-.53q5.43-1,10.6-2.49c.69-.19,1.38-.39,2.06-.6l1-.32c11.93-3.74,22.55-9.27,30.9-16.19l.39-.32q1.93-1.64,3.71-3.35a61.08,61.08,0,0,0,4.51-4.92h0l.66-.82v0c.43-.54.85-1.09,1.25-1.65l.61-.84c34.5,10.06,74.46,3.41,104.56-13.32,30.37-16.53,50.89-43.12,52.51-68.54l1.36-.22h0l1.35-.24.76-.14a104.28,104.28,0,0,0,11.12-2.72c.86-.26,1.71-.53,2.56-.81l1.26-.42h0l1.26-.44.29-.11c.59-.21,1.17-.42,1.74-.64l.46-.17,1.25-.49,1.21-.5h0c.81-.34,1.62-.68,2.42-1h0c.8-.35,1.6-.72,2.39-1.09h0l1.17-.57h0c.75-.36,1.49-.74,2.23-1.12l.75-.39c.67-.35,1.33-.7,2-1.06l.93-.52,1.16-.66,1.09-.63,1.61-1,1.28-.8.59-.38q4.15-2.67,8-5.63h0c2-1.54,3.89-3.12,5.73-4.76h0l1.81-1.65.9-.84,1.73-1.68v0c.57-.56,1.13-1.13,1.68-1.7s1.11-1.17,1.66-1.76,1.06-1.16,1.57-1.75c.91-1,1.77-2.06,2.62-3.11a1,1,0,0,0,.13-.16c.34-.41.68-.83,1-1.25s.59-.75.88-1.14l.8-1.06.08-.1.8-1.11c.3-.41.6-.84.89-1.26.54-.77,1.07-1.55,1.58-2.34.25-.38.51-.77.75-1.16v0h0c.51-.8,1-1.59,1.46-2.39.57-1,1.12-1.92,1.64-2.89h0c.41-.76.8-1.51,1.19-2.27l.38-.78c.25-.5.5-1,.73-1.51.12-.26.24-.51.35-.77.24-.51.46-1,.68-1.52s.53-1.27.79-1.91l.06-.15c.13-.33.26-.65.38-1s.34-.87.49-1.31q.35-.94.66-1.89c.22-.67.43-1.34.62-2,.08-.25.15-.5.23-.75a1.8,1.8,0,0,1,0-.19q.3-1.08.57-2.16c.06-.24.12-.5.19-.75s.13-.58.19-.87l.24-1.17c.17-.8.31-1.59.44-2.38,0-.24.07-.49.11-.73.18-1.26.32-2.5.41-3.74v-.09c0-.74.1-1.47.12-2.19s0-1.47,0-2.2c0-.34,0-.67,0-1v-.09c0-.37,0-.73,0-1.08s0-.72-.08-1.07-.06-.69-.1-1a.49.49,0,0,0,0-.12q0-.49-.12-1c0-.26-.06-.51-.1-.75l-.09-.57c0-.26-.09-.5-.13-.75s-.11-.61-.18-.9l-.09-.43c0-.23-.1-.46-.16-.69s-.11-.46-.17-.68a.52.52,0,0,0,0-.11c0-.16-.09-.32-.13-.48-.14-.5-.28-1-.43-1.46l-.18-.53-.21-.61c-.06-.17-.12-.35-.19-.53-.16-.42-.33-.83-.5-1.25-.08-.19-.16-.39-.25-.58s-.17-.39-.26-.58l-.27-.57c-.28-.57-.57-1.14-.87-1.69-.11-.18-.21-.37-.31-.55a34.57,34.57,0,0,0-7.9-9.28,43.16,43.16,0,0,0-10.3-6.23q.25-.64.48-1.29v0c0-.12.08-.24.13-.36s.14-.41.2-.61l.12-.34s0-.09,0-.13l0-.12.18-.55c.05-.15.1-.3.14-.46l.09-.27c.07-.21.13-.41.19-.62l.11-.38a1,1,0,0,0,0-.14q.07-.22.12-.42c.08-.27.15-.54.22-.8a0,0,0,0,0,0,0,.29.29,0,0,0,0-.09v0a.09.09,0,0,0,0,0c.08-.29.16-.59.23-.89a1,1,0,0,0,.06-.23c.07-.27.14-.54.2-.82s.13-.53.18-.8c.15-.61.27-1.22.38-1.82a49.77,49.77,0,0,0-.8-23.68c-.07-.24-.14-.48-.22-.71s-.1-.33-.16-.49l-.06-.18s0,0,0,0l-.24-.7-.09-.24-.16-.45a1.19,1.19,0,0,1-.08-.2l-.09-.22,0-.09c-11.6-28-48.45-36.79-88.16-20-35.48-24.69-85.83-13.54-113.39,16.59a51.36,51.36,0,0,0-32.69,9.82,102.05,102.05,0,0,0-73.33-9.47c-23.1,5.83-43.11,19.4-50.14,41.93-27.69-2-50.61,5.28-64.7,19.34-13.89,14-19,34.76-6.14,58-28.31,18.53-24,56.13,11.27,81.92,10,7.13,15.22,8.57,15.21,9.26C1027.38,1497.29,1034.56,1511.91,1048.12,1524.15Zm-8.54-35.58c.38.13.77.27,1.16.39a106,106,0,0,0,32.94,5.65h.32c-51.07-9.25-78.51-40.28-80.06-65.89-.84-11.71,3.26-22.6,12-31.42,5.84-5.92,13.75-10.93,23.7-14.86a71.08,71.08,0,0,0-20.13,5.76,46,46,0,0,1-5-20.12c0-17.89,11.93-32,29.57-39.33l1.23-.49.38-.15.49-.19.38-.14.18-.06c.2-.09.42-.16.64-.24l.06,0c.64-.23,1.27-.44,1.92-.65a87.15,87.15,0,0,1,31.32-3.73,47.13,47.13,0,0,0,8.45,32.58,58.13,58.13,0,0,1-4.07-14c0-.11,0-.22,0-.34a49.12,49.12,0,0,1-.45-10.35c1.13-17.41,11.28-31.53,25.54-40.84l0,0,1.39-.88c.36-.23.73-.45,1.11-.67l1.12-.65,1-.56c.33-.18.66-.36,1-.53l.5-.26.48-.24c12.38-6.26,27.15-9.4,43.23-8.43a92.83,92.83,0,0,1,39.48,10.88c-4.72,5.45-7.77,12.37-7.22,19,15.7-26,44.16-32.62,70.19-25.76a28.6,28.6,0,0,0-7.35-5,36.79,36.79,0,0,0-6.43-2.38l1.43-1.22c30.36-25,75.23-28.78,100.44-4.47a58.5,58.5,0,0,1,6.1,7.87c.64,1,1.26,1.92,1.87,2.88.18.28.36.56.53.85l.15.23.63,1c.26.41.51.82.75,1.22l.49.8c1.33,2.2,2.49,4.17,3.41,5.65l.37.6c.36.56.66,1,.92,1.36,3.83-11.4-.72-21.29-7.65-29,22-7.67,42.78-6.53,57.49,2.28,14.54,8.81,23,25.31,16.71,48.28a62.46,62.46,0,0,0-18.54-2,64.3,64.3,0,0,1,17.32,5.79c-2.18,6.2-6.12,12.72-6.86,19.36,6.52-4.09,9.95-9.58,12.78-15.67,21.07,15,20.32,44.17,1.67,69.84-18.2,25.53-54.31,47.58-93.42,44.93a68.35,68.35,0,0,0,18.88,2c-1.12,23.18-19.83,47.11-47.36,61.89-27.31,14.94-63.44,20.74-94.38,11.45a33.94,33.94,0,0,0,1.54-4.36c23.55-15.41,37.12-36.42,36.22-55.5l2.07-1.24.17-.1c21.7-13.12,40.52-30.89,52.11-49.54,7.71-12.35,12.32-25,13-37,.09-1.4.12-2.8.11-4.18l.6-.58c.91-.9,1.8-1.8,2.65-2.72a.24.24,0,0,0,.08-.09c20.88-22.51,25.09-51.77,5.06-59.31a27.84,27.84,0,0,0-2.8-.93l-.51-.14-.42-.11-.1,0c-.39.47,11,1.35,13.78,16.12,1.58,10.33-3.79,26.15-19.09,40.81-.07-.33-.14-.66-.22-1l-.12-.53a34.41,34.41,0,0,0-1.11-3.66l-.21-.57a3.42,3.42,0,0,1-.13-.34l-.21-.5-.19-.45-.28-.61c-.09-.19-.18-.39-.28-.58l0,0c-.28-.59-.59-1.17-.92-1.73h0c-3.91-6.78-10.46-11.75-20.15-13.42,20.06,11,24,30.38,15.16,52.31-8.75,21.76-30.33,46.1-58.5,63.33-1.09.68-2.2,1.35-3.31,2-18.79,11.17-40,19.21-60.46,22.51l-.5.08c-22,3.52-42.87,1.54-58.42-6.45-.28-.14-.56-.28-.83-.43l-.82-.44c-.54-.3-1.07-.61-1.6-.92l.62-.42.61-.41.61-.43.6-.43.59-.43.58-.44c.77-.59,1.51-1.19,2.23-1.81l.53-.46.52-.47.51-.48a40.69,40.69,0,0,0,4.12-4.45,35.23,35.23,0,0,0,2.2-3.11c.12-.18.23-.37.34-.56s.21-.36.31-.54.21-.36.3-.54.19-.34.28-.52c.38-.75.73-1.51,1-2.28a21.67,21.67,0,0,0,1-13.89h0c0-.21-.11-.41-.17-.62s-.1-.34-.16-.5c-.11-.38-.25-.75-.39-1.13a25.24,25.24,0,0,1-.7,4.73c0,.23-.1.45-.16.67-.12.45-.25.89-.39,1.34s-.3.87-.46,1.31a31.77,31.77,0,0,1-1.43,3.23c-.22.43-.44.86-.68,1.28-.13.21-.25.43-.38.65-.24.41-.5.82-.77,1.23s-.55.83-.84,1.24a42.47,42.47,0,0,1-5.06,5.9c-.39.39-.79.76-1.19,1.14-1,.92-2.06,1.82-3.17,2.69h0c-.67.52-1.35,1-2,1.54h0c-.7.51-1.42,1-2.15,1.48h0c-.49.32-1,.64-1.49,1h0c-1.22.76-2.5,1.5-3.81,2.2l-.21.11c-.48.26-1,.51-1.46.76a80.23,80.23,0,0,1-9.53,4.05l-.84.29-.66.23-.81.26-.69.22c-1.68.53-3.41,1-5.16,1.44-.28.08-.56.15-.85.21l-.86.2c-.81.19-1.62.36-2.44.53l-.16,0-.88.17-.87.16a96.75,96.75,0,0,1-9.87,1.24,92.23,92.23,0,0,1-30.35-2.75h0c-.88-.24-1.76-.49-2.63-.75-4.48-1.36-6.43-2.46-1.2.4,21.29,11.73,51.55,9.59,71.87-1,8.91,5.6,19.65,9.09,31.28,10.67a122.09,122.09,0,0,0,24.28.73l1.26-.08,1.06-.09c20.81-1.66,42-8.07,59.71-16.42,1.09-.52,2.18-1,3.25-1.57,1.26-.63,2.51-1.27,3.74-1.91a36.87,36.87,0,0,1-.24,4.68c-.07.63-.15,1.26-.25,1.89s-.23,1.27-.36,1.92c-3,14.32-13.87,29.08-30.6,40.85q-1.87,1.32-3.86,2.59l-.78.5-1.48.92-1.62,1c-17.48,10.32-39.89,17.3-63.85,18.19l-1.32,0c-.85,0-1.7,0-2.56.06h-2.59q-3.92,0-7.84-.27l-1.31-.09a144.87,144.87,0,0,0,73.19-11.76c-20.11,24.1-58.58,32-91.79,25.07C1071.52,1534.25,1043.38,1513,1039.58,1488.57Z"/><path class="cls-5" d="M1041.41,1326.17l.58-.16Z"/><polygon class="cls-5" points="1198.83 1289.85 1198.84 1289.85 1198.83 1289.85 1198.83 1289.85"/><path class="cls-5" d="M1043.72,1325.54h0Z"/><path class="cls-5" d="M1042,1326l1.73-.47Z"/><path class="cls-3" d="M1074,1494.61h-.32c25.5,1,54-5.57,75.19-20.1-11.63-1.58-22.37-5.07-31.28-10.67-20.32,10.55-50.58,12.69-71.87,1-5.23-2.86-3.28-1.76,1.2-.4.87.26,1.75.51,2.63.75a85.22,85.22,0,0,1-22.4-11c37.73,11.41,94.07-8.64,112.81-27.76a9.1,9.1,0,0,1,.72,2.25h0a21.67,21.67,0,0,1-1,13.89c10.86,6.92,56.89,29,110,1.42,28.17-17.23,49.75-41.57,58.5-63.33,8.87-21.93,4.9-41.27-15.16-52.31,9.69,1.67,16.24,6.64,20.15,13.42,22.07-23.53,8.31-40.27,1.69-50.63A54.08,54.08,0,0,1,1326,1296c20,7.54,15.83,36.8-5.06,59.31,22.76-24.19,29.29-53,25.65-78.44a58.5,58.5,0,0,0-6.1-7.87c-25.21-24.31-70.08-20.54-100.44,4.47a89.65,89.65,0,0,1,52.59-20.64c-17.54,3.66-34.45,11.79-47.59,24.24a28.6,28.6,0,0,1,7.35,5c-18.45-5-38.06-2.88-53.55,7.78,12.63-8.68,28-11.6,43.19-9.76-.84.89-1.66,1.79-2.46,2.72a53.46,53.46,0,0,0-33.11,10.61c-2.51-1.31-5.06-2.5-7.63-3.57a57.13,57.13,0,0,0-16.63,18c-.55-6.68,2.5-13.6,7.22-19a92.83,92.83,0,0,0-39.48-10.88c-16.08-1-30.85,2.17-43.23,8.43,12.37-6.24,27.12-9.36,43.17-8.39a95.62,95.62,0,0,1,28.7,5.93c-39.89-6.95-83.65,7.62-96.46,42.3a14.52,14.52,0,0,1-2.34,4.27c-1.86,2.39-4.75,6.57-4.84,10l.09,1.22a58.13,58.13,0,0,0,4.07,14,47.13,47.13,0,0,1-8.45-32.58,90,90,0,0,0-26.88,2.45,84.47,84.47,0,0,1,14.36-2.3h0a96.57,96.57,0,0,1,12.42-.12,44.53,44.53,0,0,0-.31,5.31h-.19c0,8.08,2.3,25.15,22.22,43.9-16.64-15.34-24.9-26.91-29.34-34.7a0,0,0,0,0,0,0c-3.64-5.91-12.48-6.57-19.81-4.63-19.36,6.28-33.71,18.67-38.66,35.1a46,46,0,0,0,5,20.12,71.08,71.08,0,0,1,20.13-5.76c-9.95,3.92-17.86,8.94-23.7,14.86a62.88,62.88,0,0,0,4.71,9.85c-8.57,6-14.12,13.32-16.67,21.57C995.49,1454.33,1022.93,1485.36,1074,1494.61Z"/><path class="cls-5" d="M1039.33,1326.81l1.39-.43Z"/><path class="cls-5" d="M1040.72,1326.38l.69-.21Z"/><path class="cls-4" d="M1212.34,1510.63c30.94,9.29,67.07,3.49,94.38-11.45,27.53-14.78,46.24-38.71,47.36-61.89a68.35,68.35,0,0,1-18.88-2c39.11,2.65,75.22-19.4,93.42-44.93,18.65-25.67,19.4-54.82-1.67-69.84-2.83,6.09-6.26,11.58-12.78,15.67.74-6.64,4.68-13.16,6.86-19.36a64.3,64.3,0,0,0-17.32-5.79,62.46,62.46,0,0,1,18.54,2c6.31-23-2.17-39.47-16.71-48.28-14.7-8.81-35.48-10-57.49-2.28,6.93,7.74,11.48,17.63,7.65,29-.26-.34-.56-.8-.92-1.36l-.37-.6c-.92-1.48-2.08-3.45-3.41-5.65l-.49-.8c-.24-.4-.49-.81-.75-1.22l-.63-1-.15-.23c-.17-.29-.35-.57-.53-.85-.61-1-1.23-1.92-1.87-2.88,3.64,25.43-2.89,54.24-25.65,78.44a.24.24,0,0,1-.08.09q-1.29,1.36-2.64,2.7s0,0,0,0c-.31.34-.39,2-.71,4.76-.78,6.63-2.72,19.88-13,37-9,14.8-24.51,32.76-52.11,49.54l-.17.1-2.07,1.24c.9,19.08-12.67,40.09-36.22,55.5A33.94,33.94,0,0,1,1212.34,1510.63Zm-15.64,5a144.87,144.87,0,0,1-73.19,11.76l1.31.09q3.93.24,7.84.27h2.59c.85,0,1.71,0,2.56-.06.44,0,.88,0,1.32,0,24-.88,46.41-7.88,63.85-18.19l1.62-1,1.48-.92.78-.5c18.92-12.17,31.27-28.09,34.46-43.44q.2-1,.36-1.92c.1-.63.18-1.26.25-1.89a36.87,36.87,0,0,0,.24-4.68c-1.23.64-2.48,1.28-3.74,1.91-1.07.53-2.16,1.05-3.25,1.57-17.68,8.38-38.71,14.81-59.71,16.42l-1.06.09-1.26.08a124.9,124.9,0,0,1-24.21-.77l-.07,0c-21.23,14.53-49.69,21.1-75.19,20.1a117.94,117.94,0,0,1-32.94-5.65c-.39-.12-.78-.26-1.16-.39,3.8,24.42,31.94,45.68,65.33,52.16C1138.12,1547.64,1176.59,1539.76,1196.7,1515.66Z"/><path class="cls-4" d="M1238.56,1274.76a37.9,37.9,0,0,1,6.43,2.37l0,0c13.14-12.45,30-20.58,47.59-24.24a89.65,89.65,0,0,0-52.59,20.64l-1.43,1.22Z"/><path class="cls-4" d="M1198.83,1289.85q3.86,1.61,7.63,3.57a53.46,53.46,0,0,1,33.11-10.61c.8-.93,1.62-1.83,2.46-2.72C1226.8,1278.25,1211.46,1281.17,1198.83,1289.85Z"/><path class="cls-4" d="M1004.41,1368.33l.07-.25c4.95-16.43,19.3-28.82,38.66-35.1,7.33-1.94,16.17-1.28,19.81,4.63a0,0,0,0,1,0,0c4.44,7.79,12.7,19.36,29.34,34.7-19.92-18.75-22.18-35.82-22.22-43.9h.19a44.53,44.53,0,0,1,.31-5.31,96.57,96.57,0,0,0-12.42.12h0a80.58,80.58,0,0,0-18.8,3.58c-.64.21-1.28.42-1.92.65l-.06,0c-.22.08-.43.15-.64.24l-.18.06-.38.14-.49.19-.38.15-1.23.49C1016.29,1336.14,1004.34,1350.31,1004.41,1368.33Z"/><path class="cls-4" d="M993.87,1428.93a1.72,1.72,0,0,1,.07-.21c2.55-8.25,8.1-15.6,16.67-21.57a62.88,62.88,0,0,1-4.71-9.85v0C997.1,1406.13,993,1417.11,993.87,1428.93Z"/><path class="cls-4" d="M1074.94,1340.45c.09-3.44,3-7.62,4.84-10a14.52,14.52,0,0,0,2.34-4.27c12.81-34.68,56.57-49.25,96.46-42.3a95.62,95.62,0,0,0-28.7-5.93c-16.05-1-30.8,2.15-43.17,8.39l-.48.24-.5.26c-.34.17-.67.35-1,.53l-1,.56-1.12.65-1.11.67-1.39.88,0,0c-11.59,7.53-20.41,18.21-24,31.26-1.1,2.49-1.49,5.85-1.53,9.58C1074.49,1334,1074.69,1337.23,1074.94,1340.45Z"/><path class="cls-6" d="M1075,1341.67l-.09-1.22a5.09,5.09,0,0,0,0,.88C1075,1341.45,1075,1341.56,1075,1341.67Z"/><path class="cls-6" d="M1140.68,1428.64a9.1,9.1,0,0,0-.72-2.25c.14.38.28.75.39,1.13.06.16.11.33.16.5S1140.63,1428.43,1140.68,1428.64Z"/><path class="cls-4" d="M1027.15,1454.15a85.22,85.22,0,0,0,22.4,11h0a92.59,92.59,0,0,0,30.35,2.75,96.75,96.75,0,0,0,9.87-1.24l.87-.16.88-.17.16,0c.82-.17,1.63-.34,2.44-.53l.86-.2c.29-.06.57-.13.85-.21,1.75-.43,3.48-.91,5.16-1.44l.69-.22.81-.26.66-.23.84-.29a80.23,80.23,0,0,0,9.53-4.05c.49-.25,1-.5,1.46-.76l.21-.11c1.31-.7,2.59-1.44,3.81-2.2h0l1.49-1h0c.73-.48,1.45-1,2.15-1.48h0c.7-.51,1.38-1,2-1.54h0c1.11-.88,2.17-1.78,3.17-2.69.4-.38.8-.75,1.19-1.14a43.76,43.76,0,0,0,5.06-5.9c.29-.41.57-.82.84-1.24s.53-.82.77-1.23l.38-.65c.23-.42.46-.85.68-1.28a29.7,29.7,0,0,0,1.43-3.23c.16-.44.31-.87.46-1.31s.27-.89.39-1.34c.06-.22.11-.44.16-.67a25.24,25.24,0,0,0,.7-4.73C1121.22,1445.51,1064.89,1465.56,1027.15,1454.15Z"/><path class="cls-4" d="M1316.85,1351.75c15.3-14.66,20.67-30.48,19.09-40.81-2.75-14.77-14.17-15.65-13.78-16.12l.1,0,.42.11.51.14a24.33,24.33,0,0,1,2.88,1l-.08,0a54.08,54.08,0,0,0-11.14-4.92c6.62,10.36,20.38,27.1-1.69,50.63h0c.33.56.64,1.14.92,1.73l0,0c.1.19.19.39.28.58l.28.61.19.45.21.5a3.42,3.42,0,0,0,.13.34l.21.57a35.13,35.13,0,0,1,1.11,3.66l.12.53C1316.71,1351.09,1316.78,1351.42,1316.85,1351.75Z"/><path class="cls-4" d="M1123.73,1460.31c.53.31,1.06.62,1.6.92l.82.44c.27.15.55.29.83.43,16.22,8.38,37.32,9.9,58.42,6.45l.5-.08c21.8-3.56,43.42-12.39,60.46-22.51,1.12-.67,2.23-1.34,3.31-2-53.06,27.63-99.09,5.5-110-1.42-.31.77-.66,1.53-1,2.28-.09.18-.18.35-.28.52s-.19.36-.3.54-.2.36-.31.54-.22.38-.34.56a31.49,31.49,0,0,1-2.2,3.11,38.8,38.8,0,0,1-4.12,4.45l-.51.48-.52.47-.53.46c-.72.62-1.46,1.22-2.23,1.81l-.58.44-.59.43-.6.43-.61.43-.61.41Z"/><path class="cls-4" d="M1127.29,759.76c-2.14-7.5,0-1.53-.86,13.11-4.67,82.27-86.56,136.68-161.31,113.27-23,99.28-136.51,146.82-223.23,94.42-47,97.61-193,84.83-222.54-19.21-50.84-6.27-89-41.9-103.17-87,4.21,55.92,45.94,107.69,108.65,115.41,29.29,103.68,175.37,117,222.52,19.19,86.72,52.36,200.26,4.84,223.24-94.4C1061.57,943,1155.23,857.26,1127.29,759.76Z"/><path d="M1126.32,756.53c6.54,88.66-79.68,155.14-161.2,129.61-23,99.28-136.51,146.82-223.23,94.42-41,85.14-156.89,86.12-205.63,16.66,48.25,70.67,165.22,70.18,206.46-15.45,86.72,52.4,200.26,4.86,223.24-94.42,79.84,25,166.39-38.71,161.33-127.59C1127,758.68,1126.66,757.6,1126.32,756.53ZM433.57,909.71a122,122,0,0,0,86.11,52.78l-.33-1.14A122,122,0,0,1,433.57,909.71Z"/><path d="M1042.51,831.31q-2.35,2.1-4.76,4.08C1039.36,834.07,1040.94,832.71,1042.51,831.31Zm-5.2,4.44a160.15,160.15,0,0,1-66.74,31.69A159.71,159.71,0,0,0,1037.31,835.75Zm9.43-169.09c-.7,1-1.41,2-2.15,3v0l0,.06c-.49.66-1,1.3-1.49,1.91s-1,1.32-1.59,1.94a99,99,0,0,1-29.57,23.32q-1.12.61-2.28,1.17c-.76.39-1.53.77-2.31,1.12s-1.45.69-2.18,1l-.3.13c-.73.33-1.48.65-2.23,1s-1.45.61-2.18.9l-1.93.74-1.36.5c-.58.22-1.16.43-1.75.62l-.06,0q-1.15.41-2.34.78l-.33.11c-.64.21-1.3.41-2,.6s-1.17.35-1.75.51a4.13,4.13,0,0,1-.5.15c-.85.25-1.69.48-2.54.69-.65.17-1.3.34-1.95.49l-1.89.45-1.72.37c-.8.18-1.61.34-2.43.5s-1.78.33-2.68.48c-3.5.6-7,1-10.57,1.35-.9.08-1.79.15-2.68.2q-4.92.32-9.84.24l-2.27-.05q-3.74-.13-7.42-.49c-1-.09-2-.2-2.92-.31h0q-2.89-.35-5.76-.85l-.2,0q-2.81-.5-5.58-1.13h0l-1.42-.34q-1.39-.33-2.79-.72h0q-2.79-.76-5.52-1.69h0c-1.81-.61-3.61-1.27-5.38-2h0c-2.21-.89-4.39-1.87-6.5-2.92a86.12,86.12,0,0,1-9.2-5.3c-1-.66-2-1.35-3-2.05h0c-.75-.55-1.49-1.1-2.22-1.67-1.5-1.18-3-2.41-4.4-3.7.69,1.14,1.4,2.23,2.13,3.3a65.94,65.94,0,0,0,22.19,19.92c.74.42,1.49.82,2.24,1.21l.8.41,1.37.67c.73.35,1.47.69,2.21,1s1.48.65,2.24.95c1.51.61,3,1.18,4.58,1.71A93.68,93.68,0,0,0,937.13,720c.82.16,1.63.31,2.45.45,2.46.42,4.93.75,7.43,1l2.37.2.3,0,2,.13h.44c.77,0,1.55.08,2.33.09h.09c-.09.94-.19,1.88-.31,2.82-.06.47-.12.93-.19,1.39s-.14.94-.22,1.4c-4.2,25.48-20.73,47.78-44.55,65.85l-1.31,1c-.16.12-.33.25-.5.36a210.39,210.39,0,0,1-34,20.24,278.07,278.07,0,0,1-44,16.58c-.78.24-1.56.46-2.34.67l-2.86.78c-1.56.42-3.11.84-4.66,1.22l-1.32.32a317,317,0,0,1-41.1,7.35c-38.52,4.31-77.11,1.42-108.66-10.15-37.63-13.78-65.23-39.9-70.72-80.84-3.57,16.69,1,32.48,10.27,46.14a87,87,0,0,0,6,7.83c.61.72,1.24,1.43,1.87,2.13,1.49,1.63,3,3.23,4.63,4.77l1.19,1.13c.4.38.81.75,1.22,1.12-33.3,6.73-62.94-1-80.13-14.56-24.31-20.06-19.59-39.85-20.53-39.69,0,.52-.07,1-.1,1.56s0,.93,0,1.39,0,.65,0,1c0,.65,0,1.28,0,1.92s0,1.19.07,1.78c2.68,41.37,55.72,63.4,104.73,56.88l.6-.09c1.8-.23,3.58-.52,5.36-.85h.07l1.35-.25c2.33,1.61,4.7,3.15,7.13,4.62a166,166,0,0,0,26.73,13.1q5.9,2.26,12,4.14a211.94,211.94,0,0,0,30.78,7q8.39,1.29,16.93,2,5.91.5,11.87.71a286.4,286.4,0,0,0,39.72-1.37c1.73-.18,3.44-.37,5.16-.59a299.23,299.23,0,0,0,39.63-7.49l.9-.23c1.2-.31,2.41-.63,3.62-1,.49.41,1,.84,1.47,1.25C849.89,861.78,874.64,872,901,876l-4.14-8.75a135.65,135.65,0,0,1-47.72-21.14q-3.95-2.8-7.62-5.91l2.66-.88,2.66-.91a275.48,275.48,0,0,0,30.53-12.72c3-1.48,6.08-3,9.06-4.66a215.53,215.53,0,0,0,35.79-23.89c2.1-1.74,4.15-3.53,6.13-5.36.7-.63,1.38-1.27,2.06-1.91a134.88,134.88,0,0,0,20.09-23.72,104,104,0,0,0,8.92-16.7,90.77,90.77,0,0,0,3.35-9.37,86.55,86.55,0,0,0,3.37-18.42c36.56-2.71,72.72-22.68,82.64-55.17C1051.19,658.45,1050.31,661.49,1046.74,666.66ZM842.05,499.53a9.69,9.69,0,0,0-.66-.92c.2.27.4.54.58.82ZM730.38,446.1c-1.09.09-2.19.19-3.28.3C728.19,446.29,729.29,446.19,730.38,446.1Zm3.45-.22c-1.06.05-2.12.12-3.18.2C731.71,446,732.77,445.93,733.83,445.88Zm0,0h0Zm-3.19.2-.27,0Zm97.7,37.06c-5.39-5.91-10.75-10.91-15.87-13.79h0a123.49,123.49,0,0,0-78.63-23.47A124,124,0,0,1,828.35,483.14Zm-67,490.62a136.65,136.65,0,0,1-12.64-7.08,103.76,103.76,0,0,0,4.86-29.32c-28.61,115-176.48,128.15-224.15,26l-8.7,2.46A120.34,120.34,0,0,0,528.8,985a115.94,115.94,0,0,0,9.1,14.47c.56.75,1.12,1.49,1.69,2.23s1.16,1.46,1.74,2.17l.89,1.08q.88,1,1.8,2.1c.88,1,1.79,2,2.7,2.94l.21.22.84.88q.93,1,1.89,1.89l.09.1.94.9,1,.94.75.7q3.77,3.43,7.8,6.52l1.32,1c1.85,1.37,3.72,2.67,5.62,3.92.59.39,1.19.77,1.79,1.15s1.2.74,1.81,1.11c1.14.69,2.31,1.37,3.48,2a4.77,4.77,0,0,0,.44.24c.53.3,1.06.59,1.6.87,1.24.66,2.49,1.31,3.76,1.93l1.91.91,1.85.85.27.12,1.73.75c1.3.56,2.6,1.09,3.92,1.59.65.26,1.31.51,2,.75,1.32.48,2.65.94,4,1.39s2.62.83,3.94,1.21a.31.31,0,0,0,.12,0l2,.55c1.35.38,2.71.72,4.08,1.05s2.73.62,4.11.9l2.07.41h0l2.07.37c2.07.35,4.16.64,6.26.89l2.09.23,2,.18h.11c.74.07,1.48.13,2.22.17l.54,0,2.06.11h.07l2.64.09c.71,0,1.42,0,2.14,0h.85l2.34,0c.89,0,1.78,0,2.67-.08s1.78-.08,2.67-.13c29-1.78,57.38-13.62,78.56-36.11.31-.31.62-.65.92-1v0c.32-.33.63-.67.94-1l.26-.3c1.19-1.33,2.34-2.7,3.48-4.1h0q1.41-1.74,2.76-3.56c.2-.25.39-.5.57-.76.36-.49.72-1,1.07-1.49s.71-1,1-1.49c.18-.25.36-.52.53-.79.57-.81,1.11-1.64,1.64-2.47.3-.47.6-.94.89-1.42h0c.66-1.06,1.31-2.14,1.94-3.23.32-.54.63-1.09.94-1.65h0c.32-.56.62-1.12.92-1.68.61-1.12,1.2-2.26,1.78-3.42.3-.58.58-1.16.86-1.75q6.43,3.9,13.06,7.05,5.52,2.64,11.14,4.78a147.27,147.27,0,0,0,53.84,9.74q-5.07-7.7-9.85-15.09A131.32,131.32,0,0,1,761.33,973.76ZM568.43,595.09a79.15,79.15,0,0,1,44.45-28.26l1.49-.33c13.86-3,29.48-2.61,46.49,1.9-10-9.8-24.27-15.25-38.15-16.14a119.25,119.25,0,0,1,19.18-53.63l-6.44-4.75-4-7.42A128.64,128.64,0,0,0,606.72,552c0,.36-.07.74-.1,1.11-.81.13-1.61.29-2.41.46a70.82,70.82,0,0,0-41.55,25.71c1.48,2.34,3,4.77,4.67,7.32-1.09,1.55-2.17,3.13-3.21,4.73Zm527.88,89.48c-.9-1.05,3.44-6.64,6.53-23.64,10.94-60-26.95-122.84-91.22-136.49-20.5-81.89-113.4-119.75-184.36-79.82q-4.47,2.5-8.8,5.44-4.55,3-8.91,6.57A129.16,129.16,0,0,0,784.81,443h0c-2.84-1.17-5.7-2.24-8.57-3.19a127,127,0,0,0-73-2c-1.21.32-2.4.65-3.59,1a132.34,132.34,0,0,0-61.07,38.79q-3.75,4.23-7.15,8.81A128.64,128.64,0,0,0,606.72,552c0,.36-.07.74-.1,1.11-.81.13-1.61.29-2.41.46a70.82,70.82,0,0,0-41.55,25.71c-1.13,1.43-2.21,2.92-3.22,4.46-.81,1.2-1.57,2.43-2.3,3.69a120.22,120.22,0,0,0-41.07,8.39q-4.86,1.92-9.52,4.24c-51.53,25.64-83.59,87-62.06,154-50.76,54.52-40,134,8.36,177.25l0,.06,1.1,1,.15.14.57.48,1,.81.64.55c.6.5,1.19,1,1.8,1.45l1.17.92,1.25,1A118.61,118.61,0,0,0,489.9,954q4.59,1.79,9.4,3.18l1.6.46,1.63.44a4.21,4.21,0,0,0,.61.16l1,.26,1.23.3.41.1,1.24.28.82.19.18,0,.63.13.41.09.19,0c.39.09.78.17,1.18.24l.56.11.57.11.28.05,1.48.26.92.16,1.1.17.93.14a3.18,3.18,0,0,0,.43.06l.26,0h.07l.57.08,1.73.23c.12.38.22.76.33,1.14q.5,1.66,1,3.3A120.34,120.34,0,0,0,528.8,985a115.94,115.94,0,0,0,9.1,14.47c.56.75,1.12,1.49,1.69,2.23s1.16,1.46,1.74,2.17l.89,1.08q.88,1,1.8,2.1c.88,1,1.79,2,2.7,2.94l.21.22.84.88q.93,1,1.89,1.89l.09.1.94.9,1,.94.75.7q3.77,3.43,7.8,6.52l1.32,1c1.85,1.37,3.72,2.67,5.62,3.92.59.39,1.19.77,1.79,1.15s1.2.74,1.81,1.11c1.15.7,2.31,1.38,3.48,2a4.77,4.77,0,0,0,.44.24c.53.3,1.06.59,1.6.87s1.22.65,1.84,1h0c.64.32,1.28.65,1.92,1l1.91.91,1,.47h0l.86.38.27.12,1.73.75c1.3.56,2.6,1.09,3.92,1.59.65.26,1.31.51,2,.75,1.31.49,2.65.95,4,1.39s2.62.84,3.94,1.21a.31.31,0,0,0,.12,0l2,.55c.54.16,1.09.31,1.63.45.82.21,1.63.41,2.45.6l2,.46c.71.16,1.42.3,2.13.44l2.07.41h0c.5.11,1,.2,1.49.28l2.45.4c.94.14,1.88.28,2.83.4s1.74.22,2.63.31l1,.1,1.65.16.45,0c.74.07,1.48.13,2.22.17s1.32.08,2,.11l.63,0h.06l1,0c.24,0,.49,0,.74,0,.59,0,1.17,0,1.75,0,.42,0,.84,0,1.26,0h.85c1.41,0,2.81,0,4.22-.07.64,0,1.28,0,1.93-.08a2.23,2.23,0,0,0,.36,0l1.91-.11c.7,0,1.41-.09,2.11-.16l2.48-.23s0,0,0,0c.76-.07,1.51-.16,2.27-.26l.7-.09c.77-.09,1.54-.2,2.32-.31l2.6-.41a120.8,120.8,0,0,0,16.27-3.93c1.06-.34,2.11-.69,3.16-1l1.59-.56c1-.39,2.09-.78,3.13-1.19a117.22,117.22,0,0,0,10.72-4.88c1-.52,2-1.06,3-1.6h0c1.84-1,3.65-2.12,5.45-3.26l.41-.25c.46-.3.94-.58,1.4-.89q2.85-1.87,5.61-3.94c.45-.34.89-.7,1.34-1l1.05-.81,1.62-1.3c.75-.61,1.49-1.24,2.22-1.87l.48-.4,1.32-1.2.6-.54c.51-.47,1-.94,1.52-1.42l.83-.79.86-.83.52-.54c.29-.28.57-.58.86-.87L721,1011a3,3,0,0,0,.29-.32c.31-.31.62-.65.92-1h0l.94-1,.26-.3c1.19-1.32,2.34-2.69,3.48-4.1h0l1.12-1.4c.56-.71,1.1-1.43,1.64-2.16.2-.25.39-.5.57-.76.36-.48.72-1,1.07-1.47v0c.36-.49.71-1,1-1.49.18-.25.36-.52.53-.79.57-.81,1.11-1.64,1.64-2.47l.9-1.42h0c.66-1.06,1.31-2.14,1.94-3.23l1-1.65h0c.32-.56.62-1.12.92-1.68.61-1.12,1.2-2.26,1.78-3.42.3-.58.58-1.16.86-1.75q6.43,3.9,13.06,7.05,5.52,2.64,11.14,4.78a147.27,147.27,0,0,0,53.84,9.74q7-.06,14-.77a151.35,151.35,0,0,0,30.82-6.44c1.48-.47,3-1,4.42-1.5a151,151,0,0,0,29.17-14c.84-.51,1.68-1,2.51-1.59a149.17,149.17,0,0,0,34.45-30.72q3.94-4.83,7.51-10a148.13,148.13,0,0,0,19.82-41.59c.93-3.08,1.76-6.2,2.5-9.39,1.77.56,3.53,1.07,5.31,1.54.58.15,1.15.3,1.73.43.3.09.6.16.9.23l.16,0h0l.69.16.53.12,1.24.27.07,0,.5.11c1,.22,2,.41,3,.61,1.18.21,2.36.42,3.54.6l1.78.26A121.23,121.23,0,0,0,1038,885.9h0c1.36-.44,2.7-.89,4-1.36l1.35-.49c1.33-.49,2.65-1,4-1.53a127.48,127.48,0,0,0,12.83-6.08c.52-.28,1-.58,1.55-.87l1.21-.68.95-.54.48-.28.75-.44.24-.15c.32-.2.65-.39,1-.6l.48-.29.27-.17,1-.65.67-.42,1.15-.76h0c.79-.52,1.57-1.05,2.35-1.59l.33-.24c.66-.46,1.32-.92,2-1.4,1.54-1.11,3-2.27,4.53-3.46,1.11-.88,2.21-1.79,3.29-2.71.35-.3.72-.61,1.07-.93,1.07-.92,2.12-1.87,3.16-2.84l0,0,2-1.95s0,0,0,0l1.93-1.92.21-.2c1.29-1.32,2.54-2.65,3.77-4,.33-.35.65-.71,1-1.08.92-1.06,1.83-2.13,2.72-3.21l.33-.41c.78-1,1.54-1.91,2.29-2.89l.41-.54q1.07-1.41,2.1-2.85c.15-.2.29-.4.43-.61.67-1,1.33-1.9,2-2.87l.42-.64c.64-1,1.27-1.95,1.88-2.94l.39-.63c.62-1,1.23-2,1.82-3.07.11-.19.21-.38.32-.56.61-1.09,1.21-2.18,1.79-3.29l.22-.41c.2-.37.4-.73.59-1.1.3-.6.6-1.21.91-1.82s.65-1.36,1-2.06l0,0c.37-.8.73-1.6,1.09-2.41l.15-.36.06-.14c.37-.85.72-1.7,1.07-2.56.72-1.75,1.41-3.52,2-5.32v0a121.81,121.81,0,0,0,4.09-14.16l.33-1.49c.2-1,.39-1.93.58-2.91v0c.37-2,.68-3.91,1-5.9a1,1,0,0,1,0-.17c.17-1.29.33-2.59.46-3.89.07-.68.14-1.37.19-2,.09-1,.16-2,.23-3.05.13-2.09.19-4.21.21-6.33,0-.89,0-1.73,0-2.52v-.5c0-.52,0-1,0-1.56,0-.28,0-.56,0-.84s0-.71,0-1c-.06-1.49-.14-3-.25-4.48.3.94.59,1.89.86,2.83l.11.4A123.56,123.56,0,0,0,1096.31,684.57ZM970.9,872c31.41-8.27,60.76-25.37,82.21-51.26-1.59,1.75-3.21,3.46-4.87,5.11-.69.69-1.38,1.37-2.08,2q-1.8,1.73-3.65,3.38-2.35,2.1-4.76,4.08c-.15.12-.29.25-.44.36a160.15,160.15,0,0,1-66.74,31.69h-.07l-1.5.32c-1.45.31-2.91.6-4.37.86q-6.11,1.13-12.27,1.78l-.32,0a167.31,167.31,0,0,1-42.22-.77c-4.39-.64-8.74-1.47-13-2.47a135.65,135.65,0,0,1-47.72-21.14q-3.95-2.8-7.62-5.91l2.66-.88,2.66-.91a275.48,275.48,0,0,0,30.53-12.72c3-1.48,6.08-3,9.06-4.66a215.53,215.53,0,0,0,35.79-23.89c2.1-1.74,4.15-3.53,6.13-5.36.7-.63,1.38-1.27,2.06-1.91a134.88,134.88,0,0,0,20.09-23.72,104,104,0,0,0,8.92-16.7,90.77,90.77,0,0,0,3.35-9.37,86.55,86.55,0,0,0,3.37-18.42c36.56-2.71,72.72-22.68,82.64-55.17,2.46-8,1.58-5-2,.21-.7,1-1.41,2-2.15,3v0l0,.06c-.49.66-1,1.3-1.49,1.91s-1,1.32-1.59,1.94a99,99,0,0,1-29.57,23.32q-1.12.61-2.28,1.17c-.76.39-1.53.77-2.31,1.12s-1.45.69-2.18,1l-.3.13c-.73.33-1.48.65-2.23,1s-1.45.61-2.18.9l-1.93.74-1.36.5c-.58.22-1.16.43-1.75.62l-.06,0q-1.15.41-2.34.78l-.33.11c-.64.21-1.3.41-2,.6s-1.17.35-1.75.51a4.13,4.13,0,0,1-.5.15c-.85.25-1.69.48-2.54.69-.65.17-1.3.34-1.95.49l-1.89.45-1.72.37c-.8.18-1.61.34-2.43.5s-1.78.33-2.68.48c-3.5.6-7,1-10.57,1.35-.9.08-1.79.15-2.68.2q-4.92.32-9.84.24l-2.27-.05q-3.74-.13-7.42-.49c-1-.09-2-.2-2.92-.31h0q-2.89-.35-5.76-.85l-.2,0q-2.81-.5-5.58-1.13h0l-1.42-.34q-1.39-.33-2.79-.72h0q-2.79-.76-5.52-1.69h0c-1.81-.61-3.61-1.27-5.38-2h0c-2.21-.89-4.39-1.87-6.5-2.92a86.12,86.12,0,0,1-9.2-5.3c-1-.66-2-1.35-3-2.05h0c-.75-.55-1.49-1.1-2.22-1.67-1.5-1.18-3-2.41-4.4-3.7.69,1.14,1.4,2.23,2.13,3.3a65.94,65.94,0,0,0,22.19,19.92c.74.42,1.49.82,2.24,1.21l.8.41,1.37.67c.73.35,1.47.69,2.21,1s1.48.65,2.24.95c1.51.61,3,1.18,4.58,1.71A93.68,93.68,0,0,0,937.13,720c.82.16,1.63.31,2.45.45,2.46.42,4.93.75,7.43,1l2.37.2.3,0,2,.13h.44c.77,0,1.55.08,2.33.09h.09c-.09.94-.19,1.88-.31,2.82-.06.47-.12.93-.19,1.39s-.14.94-.22,1.4c-4.2,25.48-20.73,47.78-44.55,65.85l-1.31,1c-.16.12-.33.25-.5.36a210.39,210.39,0,0,1-34,20.24,278.07,278.07,0,0,1-44,16.58c-.78.24-1.56.46-2.34.67l-2.86.78c-1.56.42-3.11.84-4.66,1.22l-1.32.32a317,317,0,0,1-41.1,7.35c-38.52,4.31-77.11,1.42-108.66-10.15-37.63-13.78-65.23-39.9-70.72-80.84-3.57,16.69,1,32.48,10.27,46.14a87,87,0,0,0,6,7.83c.61.72,1.24,1.43,1.87,2.13,1.49,1.63,3,3.23,4.63,4.77l1.19,1.13c.4.38.81.75,1.22,1.12-33.3,6.73-62.94-1-80.13-14.56-24.31-20.06-19.59-39.85-20.53-39.69,0,.52-.07,1-.1,1.56s0,.93,0,1.39,0,.65,0,1c0,.65,0,1.28,0,1.92s0,1.19.07,1.78c2.68,41.37,55.72,63.4,104.73,56.88l.6-.09c1.8-.23,3.58-.52,5.36-.85h.07l1.35-.25c2.33,1.61,4.7,3.15,7.13,4.62a166,166,0,0,0,26.73,13.1q5.9,2.26,12,4.14a211.94,211.94,0,0,0,30.78,7q8.39,1.29,16.93,2,5.91.5,11.87.71a286.4,286.4,0,0,0,39.72-1.37c1.73-.18,3.44-.37,5.16-.59a299.23,299.23,0,0,0,39.63-7.49l.9-.23c1.2-.31,2.41-.63,3.62-1,.49.41,1,.84,1.47,1.25C849.89,861.78,874.64,872,901,876c4.16.63,8.37,1.1,12.6,1.41A175.22,175.22,0,0,0,943,877q3.82,2.33,8,4.36a133.75,133.75,0,0,1-15.68,40.4,127.11,127.11,0,0,1-7.09,10.75A133.06,133.06,0,0,1,893.93,965c-.93.61-1.86,1.21-2.8,1.79a135.27,135.27,0,0,1-29.78,13.9c-1.47.49-2.94.94-4.43,1.37a134.75,134.75,0,0,1-32.2,5.2,132.82,132.82,0,0,1-14.65-.26,131.32,131.32,0,0,1-48.74-13.28,136.65,136.65,0,0,1-12.64-7.08,103.76,103.76,0,0,0,4.86-29.32c-28.61,115-176.48,128.15-224.15,26,11,.49,21-.44,29.38-7.76-11.6-5-23.65-4.17-34.78-5.92a137.7,137.7,0,0,1-6.44-35.54,106.34,106.34,0,0,0-.41,34.25c-81.28-18.19-113.93-115-65.26-177.48,10.45,19.69,26.1,37,47.7,41.68-.38-.6-.88-1.33-1.46-2.17l-.42-.6-.49-.67c-.16-.23-.33-.47-.51-.71s-.35-.5-.54-.75c-.31-.44-.64-.89-1-1.36-2.06-2.82-4.59-6.22-7.3-9.94-.53-.72-1.06-1.45-1.59-2.2l-1.19-1.65c-.32-.46-.66-.91-1-1.38-.64-.9-1.28-1.8-1.92-2.72s-1.1-1.58-1.65-2.37c-.83-1.2-1.65-2.39-2.46-3.6a154.9,154.9,0,0,1-10.89-18.34c-32-68.27,8.78-145.05,81.26-159.11l1.62-.31a60.73,60.73,0,0,0-1.84,12.64,55.41,55.41,0,0,0,2,17.2,95.51,95.51,0,0,1,18.24-39.43,79.15,79.15,0,0,1,44.45-28.26l1.49-.33c13.86-3,29.48-2.61,46.49,1.9-10-9.8-24.27-15.25-38.15-16.14a119.25,119.25,0,0,1,19.18-53.63,117.82,117.82,0,0,1,9.79-12.78,115,115,0,0,1,65.8-38l2.39-.43,2.13-.34.39-.06,2.23-.31h.07l2.41-.28c1.09-.11,2.19-.21,3.28-.3l.27,0c1.06-.08,2.12-.15,3.18-.2h0a124,124,0,0,1,94.51,37.26,129.93,129.93,0,0,1,13,15.39l.06.08c.2.27.4.54.58.82a142,142,0,0,1,14.21,25.17c-5-22-17.25-42.21-33.89-57.67a109.14,109.14,0,0,1,49.14-20.86l1.29-.19c.66-.1,1.32-.19,2-.27a.34.34,0,0,1,.14,0c.78-.1,1.56-.19,2.35-.26a1.35,1.35,0,0,1,.28,0c37.14-3.67,74.81,11.71,98.35,41.56a109.44,109.44,0,0,1,18.57,35.31,101.14,101.14,0,0,0-35.46,4.36,132.45,132.45,0,0,1,52.13,7.92,121.93,121.93,0,0,1,56.72,43.09c30.52,42.37,33.06,103.72-10.53,154.91l.33-.22a104.77,104.77,0,0,0,30.05-31.64l.84-1.37C1145.29,780.9,1076.73,896.87,970.9,872Z"/><path class="cls-3" d="M717.48,447.83l-2.64.54Z"/><path class="cls-3" d="M713.15,448.75l-.68.16Z"/><path class="cls-3" d="M614.37,566.5c-.81.18-1.62.37-2.42.57.31-.08.61-.17.93-.24Z"/><path class="cls-3" d="M612,567.07l-.39.1Z"/><path class="cls-3" d="M714.84,448.37l-1.69.38Z"/><path class="cls-3" d="M871.43,446.07c-1.29.21-2.59.44-3.88.68C868.84,446.51,870.13,446.27,871.43,446.07Z"/><path class="cls-3" d="M1057.26,732.44l.33-.22c-22.23,16.63-52,29.22-85.28,32.84a105.25,105.25,0,0,0-9.59-25,86.55,86.55,0,0,0,3.37-18.42c36.56-2.71,72.72-22.68,82.64-55.17,2.46-8,1.58-5-2,.21-.7,1-1.41,2-2.15,3a92.49,92.49,0,0,0,12.72-32.07c-32.89,40.28-122.17,57.69-169.86,50.11a24.8,24.8,0,0,0,2.61,4c-.16-.22-.32-.46-.48-.69a65.94,65.94,0,0,0,22.19,19.92c-1.54,21.33-12.39,95.13-93.56,123.63a317,317,0,0,1-41.1,7.35c-38.52,4.31-77.11,1.42-108.66-10.15-37.63-13.78-65.23-39.9-70.72-80.84-3.57,16.69,1,32.48,10.27,46.14-52.41,8-74-30.8-87.94-53.24a103.19,103.19,0,0,0,2.12,23.6c2.68,41.37,55.72,63.4,104.73,56.88-53.19,7.49-105.48-10.24-148.83-41.82a154.9,154.9,0,0,1-10.89-18.34c-32-68.27,8.78-145.05,81.26-159.11A113.58,113.58,0,0,0,468,665.73a122.54,122.54,0,0,1,80.25-48.41,55.41,55.41,0,0,0,2,17.2,95.51,95.51,0,0,1,18.24-39.43,79.11,79.11,0,0,1,43.13-27.92c-25.93,6.54-45.32,24.89-55.57,49.25q3.38-.28,6.79-.37a70.85,70.85,0,0,1,49.47-34.31,136.68,136.68,0,0,1,2.12-15.24c13.86-3,29.48-2.61,46.49,1.9-10-9.8-24.27-15.25-38.15-16.14a119.25,119.25,0,0,1,19.18-53.63,117.82,117.82,0,0,1,9.79-12.78,114.24,114.24,0,0,1,52.66-34.72c2.68-.84,5.4-1.58,8.13-2.22a114.33,114.33,0,0,0-60.66,36.91A118.94,118.94,0,0,0,627,531.13c34-63.92,118.47-90.86,183.91-48.78a39.66,39.66,0,0,0,9.14,4.33c5.86,1.91,15.57,5.67,20.49,10.88l1.48,1.87a142,142,0,0,1,14.21,25.17c-5-22-17.25-42.21-33.89-57.67a109.34,109.34,0,0,1,41.12-19.29A108.56,108.56,0,0,0,840.07,456h0l0,0a111.47,111.47,0,0,0-17.6,10.87c2.71,2.51,5.3,5.16,7.76,7.92.08-.06.18-.1.26-.16,11.46,12.71,31.26,41.4,32.5,88.86-1-39.35-5.35-64.75-10-80.92v0c-3.09-12.36,8.53-21,21.64-23.79a128.12,128.12,0,0,1,101.3,28.07,109.44,109.44,0,0,1,18.57,35.31,101.14,101.14,0,0,0-35.46,4.36,132.45,132.45,0,0,1,52.13,7.92,125.71,125.71,0,0,1,6.18,18.58,115.57,115.57,0,0,1,50.54,24.51C1098.31,619.9,1100.85,681.25,1057.26,732.44Z"/><path class="cls-3" d="M863.49,447.62l-.08,0Z"/><path class="cls-3" d="M867.19,446.83c-1.24.24-2.47.5-3.7.79C864.72,447.34,866,447.07,867.19,446.83Z"/><path class="cls-3" d="M867.55,446.75l-.36.08Z"/><path class="cls-4" d="M943,877a175.22,175.22,0,0,1-29.41.35c-4.23-.31-8.44-.78-12.6-1.41-26.31-4-51.06-14.18-70.74-30.72-.5-.41-1-.84-1.47-1.25-1.21.34-2.42.66-3.62,1-.3.08-.59.17-.89.24a310,310,0,0,1-39.49,7.73c-1.73.23-3.44.42-5.14.61a261.92,261.92,0,0,1-39.7,1.39q-6.14-.25-11.93-.79c-6-.55-11.64-1.3-17.06-2.2a219.58,219.58,0,0,1-30.75-7.41c-4.29-1.37-8.31-2.8-12-4.25a208.75,208.75,0,0,1-26.71-12.6c-4.93-2.74-7.77-4.49-8.48-4.37h-.07c-1.79.31-3.57.6-5.36.85l-.6.09c-53.19,7.49-105.48-10.24-148.83-41.82.81,1.21,1.63,2.4,2.46,3.6.55.79,1.09,1.58,1.65,2.37s1.28,1.82,1.92,2.72l1,1.38,1.19,1.65c.54.75,1.07,1.47,1.59,2.2,2.71,3.72,5.24,7.12,7.3,9.94.35.47.68.92,1,1.36.19.25.38.5.54.75s.36.48.51.71l.49.67.42.6c.58.84,1.08,1.57,1.46,2.17-21.6-4.7-37.25-22-47.7-41.68-48.67,62.48-16,159.29,65.26,177.48a106.34,106.34,0,0,1,.41-34.25A137.7,137.7,0,0,0,524,949.65c11.13,1.75,23.18.93,34.78,5.92-8.37,7.32-18.38,8.25-29.38,7.76,47.67,102.18,195.54,89.07,224.15-26a103.76,103.76,0,0,1-4.86,29.32,136.65,136.65,0,0,0,12.64,7.08A131.32,131.32,0,0,0,810.07,987a132.82,132.82,0,0,0,14.65.26,134.75,134.75,0,0,0,32.2-5.2c1.49-.43,3-.88,4.43-1.37a135.27,135.27,0,0,0,29.78-13.9c.94-.58,1.87-1.18,2.8-1.79a133.06,133.06,0,0,0,34.22-32.51,127.11,127.11,0,0,0,7.09-10.75,133.75,133.75,0,0,0,15.68-40.4Q946.78,879.36,943,877Zm145.52-177.81-.84,1.37c-7,11.24-17.3,22.1-30.05,31.64-22.23,16.63-52,29.22-85.28,32.84-1.95.22-3.9.4-5.87.54-5.26.4-10.59.58-16,.51h-.13a138.56,138.56,0,0,1-20,23.72c-.67.64-1.36,1.29-2.05,1.92-2,1.84-4,3.64-6.12,5.4a210.85,210.85,0,0,1-35.75,24c-3,1.6-6,3.16-9.08,4.64a277.78,277.78,0,0,1-30.56,12.64l-2.66.91-2.66.88q3.67,3.11,7.62,5.91a135.8,135.8,0,0,0,47.7,21.1q6.42,1.51,13,2.48a167.3,167.3,0,0,0,42.22.79l.33,0q6.17-.66,12.27-1.78c1.46-.26,2.92-.55,4.37-.86l1.5-.32h.07a159.71,159.71,0,0,0,66.74-31.69c.15-.11.29-.24.44-.36,1.61-1.32,3.19-2.68,4.76-4.08q1.85-1.65,3.65-3.38c.7-.67,1.39-1.35,2.08-2,1.66-1.65,3.28-3.36,4.87-5.11-21.45,25.89-50.8,43-82.21,51.26C1076.73,896.87,1145.29,780.9,1088.48,699.21Z"/><path class="cls-4" d="M550.2,604.66a62.11,62.11,0,0,0-1.85,12.64l-.12,0A122.54,122.54,0,0,0,468,665.73,113.58,113.58,0,0,1,548.45,605l1.62-.31Z"/><path class="cls-4" d="M614.37,566.5a136.68,136.68,0,0,0-2.12,15.24,70.85,70.85,0,0,0-49.47,34.31q-3.42.09-6.79.37C566.61,591.19,587,572.39,614.37,566.5Z"/><path class="cls-4" d="M976.27,487.21l-.44-.36a128.12,128.12,0,0,0-101.3-28.07c-13.11,2.8-24.73,11.43-21.64,23.79v0c4.69,16.17,9.08,41.57,10,80.92-1.24-47.46-21-76.15-32.5-88.86-.08.06-.18.1-.26.16-2.46-2.76-5-5.41-7.76-7.92A111.47,111.47,0,0,1,840,456l0,0h0a108.44,108.44,0,0,1,31.36-9.95l1.29-.19c.66-.11,1.32-.2,2-.27a.34.34,0,0,1,.14,0c.78-.1,1.56-.19,2.35-.26a1.35,1.35,0,0,1,.28,0C914.82,441.54,952.71,457.07,976.27,487.21Z"/><path class="cls-4" d="M1068.13,577.81l-.34-.28A115.57,115.57,0,0,0,1017.25,553a125.71,125.71,0,0,0-6.18-18.58.19.19,0,0,0,0-.08A122,122,0,0,1,1068.13,577.81Z"/><path class="cls-4" d="M840.49,497.56c-4.92-5.21-14.63-9-20.49-10.88a39.66,39.66,0,0,1-9.14-4.33C745.42,440.27,661,467.21,627,531.13a118.94,118.94,0,0,1,24.86-45.31,114.51,114.51,0,0,1,65.67-38l2.39-.43,2.13-.34.39-.06,2.23-.31h.07l2.41-.28c1.09-.11,2.19-.21,3.28-.3l.27,0c1.06-.08,2.12-.15,3.18-.2h0a123.49,123.49,0,0,1,78.63,23.47h0c5.12,2.88,10.48,7.88,15.87,13.79C832.41,487.6,836.49,492.58,840.49,497.56Z"/><path class="cls-6" d="M842.05,499.53l-.08-.1-1.48-1.87c.29.32.57.64.84,1l.06.08A9.69,9.69,0,0,1,842.05,499.53Z"/><path class="cls-6" d="M890.06,691.66a24.8,24.8,0,0,1-2.61-4c.69,1.14,1.4,2.23,2.13,3.3C889.74,691.2,889.9,691.44,890.06,691.66Z"/><path class="cls-4" d="M1057.31,637.56a92.49,92.49,0,0,1-12.72,32.07v0l0,.06c-.49.65-1,1.28-1.49,1.91s-1,1.3-1.59,1.94a99.8,99.8,0,0,1-29.57,23.32l-2.28,1.17c-.76.38-1.53.76-2.31,1.12s-1.45.68-2.18,1l-.3.13c-.73.33-1.48.65-2.23,1s-1.45.61-2.18.9l-1.93.74c-.45.18-.9.34-1.36.5s-1.16.43-1.75.62l-.06,0q-1.15.41-2.34.78l-.33.11c-.65.2-1.3.41-2,.6s-1.17.36-1.75.51a4.13,4.13,0,0,1-.5.15c-.85.25-1.69.48-2.54.69-.65.17-1.3.34-1.95.49l-1.89.45-1.72.37c-.8.18-1.61.34-2.43.5s-1.78.33-2.68.48c-3.5.6-7,1-10.57,1.35-.9.08-1.79.14-2.68.2q-4.92.32-9.84.24l-2.27-.05q-3.74-.13-7.42-.49c-1-.09-2-.2-2.92-.31h0c-1.94-.24-3.85-.52-5.76-.85l-.2,0q-2.81-.5-5.58-1.13h0l-1.42-.34-2.79-.72h0q-2.79-.78-5.52-1.69h0c-1.81-.61-3.61-1.28-5.38-2h0c-2.21-.89-4.38-1.87-6.5-2.92a86.12,86.12,0,0,1-9.2-5.3c-1-.67-2-1.35-3-2.05h0c-.75-.55-1.48-1.1-2.22-1.67-1.5-1.18-3-2.41-4.4-3.7C935.14,695.25,1024.42,677.84,1057.31,637.56Z"/><path class="cls-4" d="M622.91,814c-33.3,6.73-62.94-1-80.13-14.56-24.31-20.06-19.59-39.85-20.53-39.69,0,.52-.07,1-.1,1.56s0,.93,0,1.39,0,.65,0,1c0,.65,0,1.28,0,1.92s.06,1.28.1,1.91a.61.61,0,0,0,0-.13,103.19,103.19,0,0,1-2.12-23.6C534,766.22,555.59,805,608,797h0a84.41,84.41,0,0,0,6,7.83c.6.72,1.23,1.42,1.87,2.13,1.49,1.63,3,3.23,4.63,4.77l1.19,1.13C622.09,813.26,622.5,813.63,622.91,814Z"/><path class="cls-4" d="M954.51,721.91c-.09.94-.19,1.88-.31,2.82-.06.47-.12.93-.19,1.39s-.14.94-.22,1.4c-3.44,21.2-15.08,39.44-31.3,54.72a153.11,153.11,0,0,1-13.25,11.13l-1.31,1c-.16.12-.33.25-.5.36-22.89,16.78-51.17,29-78,36.82l-2.34.67-2.86.78c-1.56.42-3.11.84-4.66,1.22l-1.4.35.08,0c81.17-28.5,92-102.3,93.56-123.63.74.42,1.49.82,2.24,1.21l.8.41,1.37.67c.73.35,1.47.69,2.21,1s1.48.66,2.24.95c1.51.62,3,1.19,4.58,1.71A89.65,89.65,0,0,0,937.13,720c.81.17,1.64.32,2.45.45q3.67.63,7.43,1l2.37.2.3,0,2,.13h.44c.77,0,1.55.08,2.33.09Z"/><path d="M972.52,807.75c.08-15.93-2-30-6.08-42.15a95.72,95.72,0,0,0-7.07-16.19c-.39-.72-.79-1.42-1.21-2.11a37.35,37.35,0,0,0,3.25-9.65c.44.8.88,1.59,1.31,2.39a105.25,105.25,0,0,1,9.59,25A90.12,90.12,0,0,1,972.52,807.75Z"/><path d="M560.87,448.61c-6.46,6-22.73-13.26-29.5-24.72-118.49-200.52-129.47-219.54,2.5,8.48,5.33,9.21,12.83,29.88,7.14,38.72a193.38,193.38,0,0,0-17.39,27.63c-8.93,16.39-42-49-44.21-46.94-3.28,1.77,38.66,52.85,33.63,71.93-9.08,27.11-10.66,54.43-6,79a18.57,18.57,0,0,1,9.13-2.61c-.75-18.82,3.42-36.42,9.18-51,.12,2.56,2.28-14.87,15.72,4.88l23.06,37.3c1-1.59,2.12-3.17,3.21-4.72-27.61-43-33.48-54.76-29.67-61.65a198,198,0,0,1,19.46-26.68c9.55-11.5,23.51,15.34,21.83,11.88l29,49.81,3.14-.63c-38.81-65.48-42.33-73.62-36.45-78.89a221.88,221.88,0,0,1,17.31-14.09c11.18-7.38,26.75-3.76,34.55,10.86q4.6,8.53,9,16.64a47,47,0,0,1,5.93-9.59c-13.77-31-8.4-42.34-1.64-45.56a254.19,254.19,0,0,1,43-14.45c6.47-1.39,14.51,9.11,17.21,15.26.8,1.76,1.6,3.49,2.38,5.22a24,24,0,0,1,3.39-1.36c-.51-1.09-1-2.17-1.54-3.26-4.16-8.6-2.65-19.23,2.73-20a171,171,0,0,1,51.39,1.95c5.16,1.16,14.76,11.52,19.76,20.94a55.24,55.24,0,0,1,7.28,3.27c-2.09-7.93,1.35-15.85,7.54-13.17a104.88,104.88,0,0,1,30.85,22.08,19.89,19.89,0,0,1,6.68-5.32c.25-.12.51-.22.76-.32a145.33,145.33,0,0,0-52.29-42.28c-9.28-5.14-20.17-22.37-24.37-32.1-.42.07-57-134.25-2.37,2.57-1.08-2.3,8.63,21.7-1.56,19.15-17.06-3.81-34.66-8.23-63-6.09-15.08-4-22.37-38.24-26.57-36.93,4.63,10.22,19.09,37.2,9.36,39-8.07,1.82-24.06,4-47.74,14.44-14.5,5.16-39.23-32.61-45.7-45-11.08-21.12-31.05-59.22-69.12-131.84l-11.27,5.79C605.25,437.87,602.36,412.93,560.87,448.61Z"/><path d="M680.49,841.6c-4.2-2.05-8.34-4.24-12.52-6.32a125.24,125.24,0,0,0,3.75,28.9c6.57,27.06,23.28,49.64,41.41,61.13C687.18,901.07,676.56,872.24,680.49,841.6Z"/><path d="M958.64,1198.67c5.55,0,44,56.36,114.49,127.44a34.9,34.9,0,0,1,2.7-7.94A1509.29,1509.29,0,0,1,970.6,1195.78c-4.78-6.23-5.76-13.36-4.22-16.26,1.85-2.93,3.8-5.79,5.89-8.56,8.08-5.39,42.79,53.41,111.81,130.3,1-2,2-3.92,3.11-5.86a12.9,12.9,0,0,1,.79-1.23A1510.23,1510.23,0,0,1,986.9,1169.81c-7.41-10.18-2.8-13.42,6.87-21.45,2.74-.87,9,1.8,10.79,4.42.07,0,18.05,27,24,34.69-10.5-16.93-30.49-40.61-26.92-45.23a156.67,156.67,0,0,1,14-9.1c7.8-2.79,16.88-.84,22.06,7.68a1346.81,1346.81,0,0,0,91.89,136.44,12.76,12.76,0,0,1,5.68-1.94c3.1-.14,6.24-.39,9.4-.55-33.4-43.06-64.13-88.62-92.84-135.76-6.66-11.54-2.33-20.29,4.16-22.06,9-2.25,17.86,13.91,22.79,22.63-.51-3,28.57,58.14,86.23,136.61h0c5.18-.88,9.08.71,13.5,3.08,4.06,2.17,7.52,5.21,11.19,8-36.48-48.49-68.77-99.94-98.49-153.25-4.78-9.16-5.36-20.69,3.69-20.35,34.35,2.89,58.4,23.75,63,63.1,2.1-19.7-6.08-42.37-26.7-59.28-18.83-15.44-40.32-18.18-46.14-19.49-23-4.58-56.8-84.57-99.93-182C959,855.49,939.94,812.15,926.66,781.24c-1.84,1.61-3.64,3.27-5.34,5a12.19,12.19,0,0,1-2.63,2c16.46,41.68,40.95,102.53,80.56,191,57,129.19,63,114.78,37.65,120.73-4.41.63-10.91-8.27-13.66-12.1C1000.1,1055.7,931.31,914.89,885,818c-.47.21-1,.42-1.44.61a22.44,22.44,0,0,1-8.78,1.48C1026,1145.66,1029,1096,996,1117.46c-14.59,6.79-36.48-26.75-171.34-282.79a26.77,26.77,0,0,1-4.12,3.52c21.11,40.07,50.44,94.26,92.4,166.54,76.57,131.52,79.15,118.16,59.05,131-13.64,8.77-124.49-176.27-191.07-289.31l-1.26.12-4,.42c179,301,187.76,297,182.27,308.21-6.73,10.48-4.2,18.63-23-7-69.28-94.79-129.9-191.07-192.25-288.87-1.83-2.88-3.59-5.63-5.3-8.29-1.66.1-3.32.19-5,.26-2,.08-4,.16-6,.22,29.35,48.26,80.77,138.16,176,270.12,21.34,29.48,25.21,34.09,25,34,9.65,13.12,15.94,33.86,15.26,37.7-8.14,42.48,11,82.81,42.84,98.37C934.64,1257,953,1198.66,958.64,1198.67Z"/><path d="M1699.85,1601.81c-75.58-7-136.91-26.28-200.77-55-22.67-10.94-25.57-8.85-12.84-27.69.67-1.4-.37-5,11.5,3.66,5-11.76-18.73-22.46-42-14.52-11.37,3.88-10.33,8.75-26.53.59-12.21-6.14-60.27-37.74-107.47-78.83q-14.68-12.73-28.6-26a19.18,19.18,0,0,1-5.84,10c-.16.13-.31.28-.46.42a801.75,801.75,0,0,0,84.13,69c37.94,26.9,80.41,51.07,52.81,36.16A804.57,804.57,0,0,1,1282,1421.08c-.7,1.18-1.53,2.6-.1-.09h0c-2.14,4-4.44,7.07-8.29,9.33,92.37,78.72,156.11,99.18,150.86,107.93-2.71.57-13.53-4.8-13.75-4.76a850.76,850.76,0,0,1-157.59-90.27,20.2,20.2,0,0,1-5.81,4.21l-.46.31-.7.45c2.19-.59,1.25-.4-.2.27,17.08,12.44,35,24.67,53.94,36.51,77.31,48.63,122.51,61,122.26,64.92-.08,4.3-1.92,3.64-6.15,2.34-65.27-25-125.49-57.88-181.46-97-.47.23-1,.45-1.43.65a32.47,32.47,0,0,1-4,1.38q22.38,15.4,46.6,30.15c77.66,47,127,62.68,141,70.12,12.85,6.76,1.84,5.34,15.23,23.3,11.43,15.2,29.66,22.22,34.77,15.78-9.64-2.06-12.59-3.46-5.89-20.54C1465.08,1565,1538.79,1611.37,1699.85,1601.81Z"/><path d="M754.08,986.4c90.65,126.91,151.71,200.5,137.71,181.88C739.34,965.51,763.33,975.37,754.08,986.4Z"/><path d="M1219.94,1279q-15-22-29-44.83l-6.56,1.77c10.09,15.67,20,30.52,30.15,45A17.66,17.66,0,0,1,1219.94,1279Z"/><path d="M1383.51,1459.91a796.07,796.07,0,0,1-74-68.88,14.35,14.35,0,0,1-1.18,2.35c4.74,4.84,9.61,9.75,14.67,14.74C1367.9,1450.65,1424.71,1493.77,1383.51,1459.91Z"/><path class="cls-3" d="M291.26,644.86a44.65,44.65,0,0,0-3.52,12.81A36.81,36.81,0,0,1,291.26,644.86Z"/><path class="cls-3" d="M339.86,687.85c-20.88,13.14-38.63,5.64-46.72-6.92C301.93,694.1,319.92,700.29,339.86,687.85Z"/><path class="cls-3" d="M316.2,628.76q-.61,0-1.23.06Z"/><path class="cls-3" d="M316.86,628.75s.05,0-.27,0Z"/><path class="cls-3" d="M368.29,730.26a27.52,27.52,0,0,1-19.41-7.35A28.87,28.87,0,0,0,368.29,730.26Z"/><path class="cls-3" d="M396.22,687c.38,6.47,1.35,14.69-1.14,23C397.09,702.58,396.62,694.48,396.22,687Z"/><path class="cls-3" d="M388.06,689.54c-2.16.65-1.53.61-.13-.42A4.17,4.17,0,0,0,388.06,689.54Z"/><path class="cls-3" d="M398.47,679.88a11.08,11.08,0,0,1-1.67,5.38A17.48,17.48,0,0,0,398.47,679.88Z"/><path class="cls-3" d="M405.76,682.16c-7.32-2.89-7.18-2.91-7.26-2.48C398.57,679.24,397.59,678.91,405.76,682.16Z"/><path class="cls-3" d="M484,714.46c-9.93-4.25-19.94-8.47-29.65-12.53C464.06,706,474,710.17,484,714.46Z"/><path class="cls-3" d="M558.31,748c-.4-.18-.31-.14-2-1Z"/><path class="cls-3" d="M581.45,759.66c-.94-.32-2.71-1.39-6.77-3.56Q578.23,757.93,581.45,759.66Z"/><path class="cls-3" d="M336.71,563.59c-21.33,4.71-35.9,27.27-22.75,58.93C301.18,592.1,314.22,568.39,336.71,563.59Z"/><path class="cls-3" d="M419.56,614.05c-.11,13.87-8.76,21.84-21.37,26a13.6,13.6,0,0,0-5.89-6.17c6.85-2.18,9.84-10.39,9.64-11.61,1.08-4.77-1.45,10-21.27,9.07-10.26-.47,8.55-.06,13.6,13.34,2.53,3.52,1.21,15.74-9.6,17.77-1.34.26-1.26.06-.14.75,14.63,9.55,11.19,29.44-11.47,28.35,6.16,2.95,11.5,2.87,15.62,1.22,2.84,24.62-20.19,32.73-33.6,20.63-10.79-9.74-7.38-27.74-4.16-41.89C291,712.17,281,634.28,325.66,633c3.93-.12,3.46.55,1.3-2.58-39.77-57.63,53.87-85.41,44.42-14.31C377.83,579.82,419.76,587.38,419.56,614.05Z"/><path class="cls-3" d="M377,592.73c-.07.09,0,.12-.09-.11C377,592.68,377,592.72,377,592.73Z"/><path class="cls-3" d="M379.48,589.48c-.46.53-.9,1.09-1.33,1.68A14.51,14.51,0,0,1,379.48,589.48Z"/><path class="cls-3" d="M387,583.14a27.13,27.13,0,0,0-7.43,6.17A24,24,0,0,1,387,583.14Z"/><path class="cls-3" d="M399.81,642.79c-.45.15-.34.16-.42,0Z"/><path class="cls-3" d="M413.62,640.69c-1.72-1-1.56-.71-.94-1.07C412.67,640,413.34,640.48,413.62,640.69Z"/><path class="cls-3" d="M424.39,627.24a27.34,27.34,0,0,1-8,9.87A29.37,29.37,0,0,0,424.39,627.24Z"/><path class="cls-3" d="M427.28,605.14c.63,3.69-.54-12.06-12.66-20.35C413,583.61,424.67,589.81,427.28,605.14Z"/><path class="cls-3" d="M522.42,708.67c-26.75-17.95-59-38.92-89.13-56.68C449.37,661.32,476.87,678,522.42,708.67Z"/><path class="cls-3" d="M583.65,758.2c-1.42,1.45-.65,1.31-2,1.53-5.81-3.84-106.89-60.83-184.64-90a22.4,22.4,0,0,0-2.91-4.87c6.43-4.85,8-13.1,5.72-20.71.93-.15,1.84-.32,2.72-.52,60.37,31.23,160.76,92.9,179.17,106C581.92,749.85,582.28,751.83,583.65,758.2Z"/><path class="cls-3" d="M581.75,749.61c-.25-.18-.47-.26-.29-.2S581.67,749.46,581.75,749.61Z"/><path class="cls-4" d="M402.58,643.66c14.12,7.3,83.27,43.76,179.14,105.94-3.61-2.12-119.27-70.12-181.91-92.53a21.4,21.4,0,0,0,.05-12.89C400.79,644,401.7,643.86,402.58,643.66Z"/><path class="cls-7" d="M581.79,749.65l0,0A.05.05,0,0,1,581.79,749.65Z"/><path class="cls-4" d="M388.68,692.79c2.84,24.62-20.19,32.73-33.6,20.63,7.1,2.43,22.74,4.89,24.29-19.77A17.12,17.12,0,0,0,388.68,692.79Z"/><path class="cls-4" d="M380.67,631.36l-3-.14c23.82,7.86,20.55,28.7,7,31.25-1.34.26-1.26.06-.14.75,14.63,9.55,11.19,29.44-11.47,28.35l1,.46a23.79,23.79,0,0,1-7.49-3c17.58,3.44,26.68-19.3,4.91-29,17.65-.17,21.89-20.3-2.81-31.25a80.41,80.41,0,0,0,8.91-.55c19.61-2.47,24.82-13.16,22.06-21.71C410.32,621.46,396.35,632.11,380.67,631.36Z"/><path class="cls-7" d="M312.27,618.07c-.62-.55-11.17-28.1,7.76-45.72C310.18,581.68,305.15,597.43,312.27,618.07Z"/><path class="cls-7" d="M377,592.62c-.16-.38-.31-1.79-1.15-4.64-6-19.75-22.35-27.19-37.41-24.72C356.22,560.23,372.73,570.87,377,592.62Z"/><path class="cls-4" d="M419.56,614.05c-.11,13.87-8.76,21.84-21.37,26a13.6,13.6,0,0,0-5.89-6.17,13.69,13.69,0,0,0,6.45-4.66c21.36-6.79,9.53-33.45-7.2-27.82-9,3-16.86,12.37-22.19,20.21-1.25-44.55-45.5-43.82-52.28-17.58-1.1-37.8,62.14-46.94,54.3,12.1C377.83,579.82,419.76,587.38,419.56,614.05Z"/><path class="cls-7" d="M378.14,591.17c-.71,1-.95,1.62-1.1,1.56C377.4,592.19,377.76,591.67,378.14,591.17Z"/><path class="cls-7" d="M413.51,584.08a27.3,27.3,0,0,0-26.47-.94C394.34,579.1,404.82,578.81,413.51,584.08Z"/><path class="cls-7" d="M418.65,643.51c-.66,0-4.47-2.42-5-2.82Z"/><path class="cls-7" d="M414.62,584.79c-.15-.1-.28-.17-.12-.08Z"/><path class="cls-7" d="M427.4,605.84a35,35,0,0,1-3,21.32A37.16,37.16,0,0,0,427.4,605.84Z"/><path d="M293.12,680.91a34.43,34.43,0,0,1-5.38-23.24A37.08,37.08,0,0,0,293.12,680.91Z"/><path d="M313.58,628.94c-10.67,1.19-18.15,7.51-22.26,15.81C296.72,633.13,306.3,629.71,313.58,628.94Z"/><path d="M348.81,722.85c-6.3-5.81-10.44-15.21-9.62-28.82C338.44,707.33,342.5,716.89,348.81,722.85Z"/><path d="M395.08,710c-3.38,12.52-13.7,20.31-26.68,20.3C379.8,730,391,723.69,395.08,710Z"/><path d="M377,592.62c-.16-.38-.31-1.79-1.15-4.64-8.27-27.43-37.24-31.62-54.7-16.59C339.73,555.15,370.85,561.18,377,592.62Z"/><path d="M378.14,591.17c-.71,1-.95,1.62-1.1,1.56C377.4,592.19,377.76,591.67,378.14,591.17Z"/><path d="M399.81,642.79c-.45.15-.34.16-.42,0Z"/><path d="M413.67,584.18a27.27,27.27,0,0,0-26.63-1C395.33,578.55,406.13,579.42,413.67,584.18Z"/><path d="M427.28,605.14c3.93,23.08-12.88,34.47-15,34.82-.46-.32,7.16-3,12.07-12.72a36.29,36.29,0,0,0,.2-30.44A34.75,34.75,0,0,1,427.28,605.14Z"/><path d="M388.06,689.54c-2.16.65-1.53.61-.13-.42A4.17,4.17,0,0,0,388.06,689.54Z"/><path d="M581.75,749.62h0S581.73,749.6,581.75,749.62Z"/><path d="M581.72,749.6c1.75,1.27-91.47-65.64-163.39-106.1-3.4-1.91-5.87-3.56-6-3.54-.46-.32,7.16-3,12.07-12.72a36.29,36.29,0,0,0,.2-30.44c-9.83-21.12-37.13-21.86-47.6-4-8.91-52.33-89.32-32.36-62.71,30.47,2.65,6.21,2.91,5.46,2.31,5.48-28.81.27-35.13,36.24-23.45,52.18,8.79,13.17,26.78,19.36,46.72,6.92-6.45,41.81,30.76,52.2,49.09,33.53,8.47-10.21,8-20.93,7.27-34.38-.09-1.75,1.4-1.6,2.27-7.26,0-1.26,129,50.93,183,79.92.94-.16-104.47-59.94-184.4-89.9a22.4,22.4,0,0,0-2.91-4.87c6.43-4.85,8-13.1,5.72-20.71.93-.15,1.84-.32,2.72-.52C416.7,651,485.85,687.42,581.72,749.6ZM392.3,633.9c6.85-2.18,9.84-10.39,9.64-11.61,1.08-4.77-1.45,10-21.27,9.07-10.26-.47,8.55-.06,13.6,13.34,2.53,3.52,1.21,15.74-9.6,17.77-1.34.26-1.26.06-.14.75,14.63,9.55,11.19,29.44-11.47,28.35,6.16,2.95,11.5,2.87,15.62,1.22,2.84,24.62-20.19,32.73-33.6,20.63-10.79-9.74-7.38-27.74-4.16-41.89C291,712.17,281,634.28,325.66,633c3.93-.12,3.46.55,1.3-2.58-39.77-57.63,53.87-85.41,44.42-14.31,6.45-36.33,48.38-28.77,48.18-2.1-.11,13.87-8.76,21.84-21.37,26A13.6,13.6,0,0,0,392.3,633.9Zm-4.24,55.64c-2.16.65-1.53.61-.13-.42A4.17,4.17,0,0,0,388.06,689.54Zm11.38-46.63c-.06-.18-.14-.14.37-.12Z"/><path d="M396.8,685.26a7.86,7.86,0,0,1-.62,1.06S396.25,686.25,396.8,685.26Z"/><path d="M555.93,746.8c-16.07-7.72-34.76-16.18-54-24.6C522.24,731.07,541.32,739.69,555.93,746.8Z"/><path d="M574.57,756c-4.85-2.5-10.15-5.14-15.81-7.87C566.17,751.67,571.16,754.23,574.57,756Z"/><path d="M582,759.93c-.71-.38-.54-.26-.27-.2A1.11,1.11,0,0,1,582,759.93Z"/><path d="M433.23,652c-12-7-17.55-9.79-19.6-11.27C420.14,644.32,426.74,648.12,433.23,652Z"/><path d="M568.78,740.46l2.32,1.63Z"/><path d="M581.15,749.19c-1.25-.86-4.57-3.24-10-7.1C576.28,745.72,579.77,748.2,581.15,749.19Z"/><path d="M581.69,749.58c-.56-.35-.77-.57-.23-.17Z"/><path d="M581.77,749.63h0Z"/><path class="cls-3" d="M1041.39,459.11c-.18.39-.37.79-.58,1.19C1041,459.9,1041.21,459.5,1041.39,459.11Z"/><path class="cls-3" d="M1085.34,382.11c.66.53,1.33,1.1,2,1.7C1086.68,383.21,1086,382.64,1085.34,382.11Z"/><path class="cls-3" d="M1077.78,376.87c0,.05.82.4,3.32,2.09C1079.82,378.09,1078.68,377.39,1077.78,376.87Z"/><path class="cls-3" d="M907.59,523c-.37.56-.72,1.12-1.06,1.66C906.87,524.07,907.22,523.51,907.59,523Z"/><path class="cls-3" d="M910.75,518c-.43.66-.85,1.31-1.25,2C909.9,519.32,910.32,518.67,910.75,518Z"/><path class="cls-3" d="M971.87,398.07c-40.1,46.24-82.44,138.59-82.43,138.64-.11.22,9.88-.54,9.91-.59,3.39-19.75,83-131.24,86.75-132.42a43.64,43.64,0,0,1-2.69-5.35A25.83,25.83,0,0,1,971.87,398.07Z"/><path class="cls-3" d="M933.62,442.77c-.5.85-1,1.73-1.52,2.62C932.61,444.5,933.12,443.63,933.62,442.77Z"/><path class="cls-3" d="M941.62,429.68c-.88,1.38-1.37,2.13-.48.76C941.31,430.19,941.47,429.94,941.62,429.68Z"/><path class="cls-3" d="M958.43,405.68Z"/><path class="cls-3" d="M982.51,396.06s0,0,.11,0Z"/><path class="cls-3" d="M957.53,351.21c2.48,2.39-8.76-3.63-21.39,7.36-18.66,18,4.4,53.46,32.89,39.12,2.31-1.11-5.92-.19-11.17-12.95C955.94,380,962.37,398,980.18,394c3-.71.32,0,.18-8.58-.1-8.11,4.25-12.33,4.22-12.28-4.86,19,12.34,42.54,31.62,39.4-7.69,5.37-18.75,3.08-24.72-2.48-1.47-1.24-1.14-1.47-1.44-.2-1.46,8.52-.36,15.4,6.84,22.5,5.62,5.46,8.22,5.76,5.7,5.22-8.07-1.84-14.09-7.4-15.35-11.43-.09-.37-.05-.72-.08-.42a1.07,1.07,0,0,0,0,.25c-1.23,67.59,67.24,43.64,48.69,3,23.06,35.47,68,.4,50.89-32.09-3.21-6.84-9.35-12.64-16-16.27-2.9,1.33-19.58,7.76-13,4.45,45.84-23.6,34.51-66,4.25-75h0c-12.2-3.64-24.67-.25-34,10.86-.5,1,1.89-11.15-7.37-17.64a16.21,16.21,0,0,0-20.54,1.63c-8.88,8-2.22,25.05-5.88,13.37-.59-2.09.89,3.48.89,3.53,1,3.15-5.63-18-22.67-19.93C953.54,299.32,929.86,322.51,957.53,351.21Z"/><path class="cls-3" d="M970.86,397c-1.14.51-.64.57-.53.46S970.81,397.07,970.86,397Z"/><path class="cls-3" d="M973.14,395.4c-1,.6-1,.48-.53.57C972.93,395.64,973.11,395.43,973.14,395.4Z"/><path class="cls-3" d="M932.81,400.13c.36.34.71.67,1.08,1Q933.35,400.64,932.81,400.13Z"/><path class="cls-3" d="M923,361.84l.23-.42Z"/><path class="cls-3" d="M946.62,346.14c.18,0,.15,0,.14,0Z"/><path class="cls-3" d="M941.09,347.64c-.58.19-1.15.39-1.7.61C939.94,348,940.51,347.83,941.09,347.64Z"/><path class="cls-3" d="M1027.09,300.45a27.39,27.39,0,0,1,1.87,2.67A23.27,23.27,0,0,0,1027.09,300.45Z"/><path class="cls-3" d="M1023.86,297.32c.46.35.9.72,1.33,1.12A14.08,14.08,0,0,0,1023.86,297.32Z"/><path class="cls-3" d="M999.13,298.57a17.87,17.87,0,0,0-2.07,2.5A18.35,18.35,0,0,1,999.13,298.57Z"/><path class="cls-3" d="M1010.93,293.33l1.28,0C1011.78,293.3,1011.36,293.31,1010.93,293.33Z"/><path class="cls-3" d="M1004.58,294.84c.29-.13.44-.19,0,0Z"/><path class="cls-3" d="M1005.7,294.39l-.6.23Z"/><path class="cls-3" d="M1095.06,325.4c.09.26.41,1.15.48,1.33C1095.42,326.39,1095.3,326,1095.06,325.4Z"/><path class="cls-3" d="M1091,317.22c.29.47.58.94.85,1.42C1091.59,318.16,1091.3,317.69,1091,317.22Z"/><path class="cls-3" d="M1079.65,305.36c-.86-.58-1.11-.74,0,0S1080.7,306.08,1079.65,305.36Z"/><path class="cls-3" d="M1077.06,303.76l1.09.65C1079.74,305.36,1078.17,304.38,1077.06,303.76Z"/><path class="cls-3" d="M1072.63,301.66c.66.26,1.33.55,2,.86C1074,302.2,1073.29,301.92,1072.63,301.66Z"/><path class="cls-3" d="M1071.14,301.12c.5.17,1,.35,1.49.54C1072.13,301.46,1071.64,301.29,1071.14,301.12Z"/><path class="cls-3" d="M1068.69,300.4c.81.21,1.63.45,2.45.72C1070.32,300.84,1069.5,300.6,1068.69,300.4Z"/><path class="cls-3" d="M1066.74,300l1.45.31C1067.71,300.16,1067.22,300.06,1066.74,300Z"/><polygon class="cls-7" points="889.4 536.82 889.39 536.82 889.39 536.82 889.4 536.82"/><path class="cls-7" d="M889.39,536.82v0h0Z"/><path class="cls-7" d="M889.4,536.8h0Z"/><path class="cls-7" d="M889.42,536.76h0Z"/><path class="cls-7" d="M889.45,536.7h0C889.39,536.81,889.44,536.68,889.45,536.7Z"/><path class="cls-7" d="M889.47,536.63h0Z"/><path class="cls-7" d="M982.51,396.06s0,0,.11,0Z"/><path class="cls-7" d="M1041.39,459.11c-.18.39-.37.79-.58,1.19C1041,459.9,1041.21,459.5,1041.39,459.11Z"/><path class="cls-7" d="M987.12,425.89s0,0,0,0S987.12,425.94,987.12,425.89Z"/><path class="cls-7" d="M1000.72,437.1a25.48,25.48,0,0,0,2.8.67C1002.54,437.58,1001.61,437.36,1000.72,437.1Z"/><path class="cls-7" d="M982.51,396.06s0,0,.11,0Z"/><path class="cls-7" d="M973.14,395.4c-1,.6-1,.48-.53.57C972.93,395.64,973.11,395.43,973.14,395.4Z"/><path class="cls-4" d="M983.41,398.35c.15.35.32.73.5,1.13-5,1.58-56,62.1-94.32,136.95-1.19,2.27,37.2-86.38,82.28-138.36A25.83,25.83,0,0,0,983.41,398.35Zm3.73,27.79c-2.5,66.33,67.42,44.36,48.67,2.81,16.34,26.07,47.75,14.48,53.51-9.92-9.32,8.71-38.07,30.64-60.24-5.68C1050.39,459.2,992.55,476.77,987.14,426.14ZM990.27,409c-4.73,17.44,12.64,29,13.28,28.83a25.34,25.34,0,0,0,14.65-4.59s-19.2,9.07-23.49-20.81A23.92,23.92,0,0,1,990.27,409Zm4.49-46.15c-30.52,13.34,7.6,69.36,32.1,43.47C998.82,414.8,980.4,383.5,994.76,362.8ZM954,374.52c4.64,17.56,16.6,22.36,27.71,19.07a33.3,33.3,0,0,1-1.14-5.32C964.73,393,954,374.52,954,374.52Zm-.39-67c-10.65,8.74-13.12,25,1.21,40.83,3.41,3.82,3.77,3.43,2.9,3.37-14.34-1.23-24.25,6.69-27.15,15.55-6,17.32,13.07,43.58,39.16,30.06a18.76,18.76,0,0,1-7.21-5c-27.53,5.65-40.35-36.91,5-36.23a63,63,0,0,1-5.77-7.3c-23.92-35.29,9.42-46.42,21.3-42.57C984,306.62,968.73,295.05,953.59,307.54Z"/><path d="M946.77,346.11c.56-.45.31-.21,0-.05Z"/><path d="M993.74,316.06c.35,3,.57,2.23,1.43,6,.8,3.12-2.66-9.39,4.74-17.05,5.41-5.57,14-6,20.22-2,9.23,5.91,7.44,17.41,7.79,17.92.11.11.3-.28,1.25-1.4,3.2-3.77,5-4.21,4.71-4.89-2.23-5.26-3.87-11.85-8.79-16.26C1012.63,286.85,991.23,295.56,993.74,316.06Z"/><path d="M995.08,321.92s0-.05,0,0S995.12,322,995.08,321.92Z"/><path d="M995.05,321.83c0-.11,0,0,0,.06Z"/><path d="M995,321.7s0-.05,0,0Z"/><path d="M947.9,314.28c3.59-6.87,13.61-13.67,24.46-12.42C954,299.39,945.45,318.43,947.9,314.28Z"/><path d="M963.6,295.77c-.73.1-1.45.23-2.16.37C962.15,296,962.87,295.88,963.6,295.77Z"/><path d="M960.17,296.42l1-.21C960.91,296.25,960.52,296.33,960.17,296.42Z"/><path d="M1032.35,311.05c0,.05,0-.07,1.65,3.84,28.52-23,76.29,20.5,43.84,55.17-4,4.42-4.34,2.25-.07,6.81a61.65,61.65,0,0,0,5.11-3.46C1120.82,344.53,1082.7,271.58,1032.35,311.05Z"/><path d="M1004.87,294.72l-.29.12Z"/><path d="M1077.77,376.87c-3.76-4-3.19-3.58-3.5-3.29A79.43,79.43,0,0,1,1055.71,386a103.54,103.54,0,0,0,15-5.43c14.2,7.83,22.28,22.85,18.6,38.44-5.76,24.41-37.17,36-53.51,9.92,17.32,38.38-36.53,54.35-46,20.82a80.48,80.48,0,0,1-2.63-23.63c0-.05-6.69,25.78,5.72,40.61.2.64,4.63,4.23,4.64,4.27,20.4,14.25,49.76-3.9,46.13-26C1089.32,473.11,1130.55,407.7,1077.77,376.87Z"/><path d="M985.83,434.06c0-.05,0-.15,0-.13S985.83,434,985.83,434.06Z"/><path d="M1053.06,449.57c.54.2,1.08.37,1.62.54Z"/><path d="M1049.22,448c.55.26,1.1.49,1.65.72Z"/><path d="M1102.35,418c-.06.69-.14,1.38-.25,2.06C1102.21,419.36,1102.29,418.67,1102.35,418Z"/><path d="M1102.49,415.92c0,.69-.07,1.38-.14,2.06C1102.42,417.3,1102.47,416.61,1102.49,415.92Z"/><path d="M986,451.22q.19,1.18.45,2.28Q986.25,452.39,986,451.22Z"/><path d="M985.92,433.31c0,.23-.08.6-.09.75C985.83,434,985.92,433.34,985.92,433.31Z"/><path d="M986.44,429.63c-.13.78-.24,1.53-.34,2.28C986.21,431.16,986.32,430.41,986.44,429.63Z"/><path d="M987.17,425.6c-.06.31-.07.26,0,.33C987.17,426.35,987.13,426.05,987.17,425.6Z"/><path d="M1081.93,374.11c-3.14,2.28-4.22,2.72-4.15,2.76C1079.26,376,1080.65,375.06,1081.93,374.11Z"/><path d="M1085.54,371.24c-.84.73-1.72,1.45-2.66,2.17C1083.82,372.7,1084.71,372,1085.54,371.24Z"/><path d="M1092.36,363.6c-.36.53-.73,1-1.13,1.57C1091.63,364.65,1092,364.13,1092.36,363.6Z"/><path d="M1005.7,294.39l-.6.23Z"/><path d="M1032.17,310.42c.15.55.15.68.18.63C1032.29,310.84,1032.24,310.63,1032.17,310.42Z"/><path d="M994,317.8c.52,2.73,1.44,5.37,1.16,4.25C994.84,320.72,994.56,319.56,994,317.8Z"/><path d="M970.86,397c-1.14.51-.64.57-.53.46S970.81,397.07,970.86,397Z"/><path d="M973.14,395.4c-1,.6-1,.48-.53.57C972.93,395.64,973.11,395.43,973.14,395.4Z"/><path d="M923.85,388.1c-.14-.26-.52-.93-.37-.65Z"/><path d="M922.36,385.22c.33.74.69,1.44,1.09,2.16C923.05,386.66,922.7,386,922.36,385.22Z"/><path d="M946.72,346.06c-.54-.62-.44-.41,0,0C946.77,346.12,946.78,346.12,946.72,346.06Z"/><polygon points="946.35 345.67 946.35 345.67 946.35 345.67 946.35 345.67"/><path d="M946.32,345.64v0h0Z"/><path d="M994,317.8c.47,2.5,1.77,6.64.89,3.17C994.85,320.75,994.49,319.34,994,317.8Z"/><path d="M954.41,298.44c-.48.22-1,.46-1.42.71C953.45,298.9,953.93,298.66,954.41,298.44Z"/><path d="M961.44,296.14c.71-.14,1.43-.26,2.16-.37C962.87,295.87,962.15,296,961.44,296.14Z"/><path d="M960.17,296.42l1-.21C960.91,296.25,960.52,296.33,960.17,296.42Z"/><path d="M982.51,396.06s0,0,.11,0Z"/><path d="M970.86,397c-1.14.51-.64.57-.53.46S970.81,397.07,970.86,397Z"/><path d="M973.14,395.4c-1,.6-1,.48-.53.57C972.93,395.64,973.11,395.43,973.14,395.4Z"/><path d="M982.51,396.06s0,0,.11,0Z"/><path d="M987.12,425.93c.07.12,0,.09,0-.33C987,426.5,986,422.45,987.12,425.93Z"/><path d="M985,418.13Z"/><path d="M982.59,396.05s0,0,0,0Zm2-22.92c-2.13,3.85-6.57,7.91-2.89,20.46-19.15,5.65-26.23-14.66-23.6-8.3,4.26,9.76,11.43,12.07,11.79,12.13s.66-.37.92-.33c.08-.15.71.61.93.84.61.59,6.29,1.48,11.68.42a43.15,43.15,0,0,0,2.69,5.35c-.43.13-61.26,75.73-86.74,132.39.44-.84,4.52-7.39,10.23-16.28,54.55-83.68,73.9-98.76,75.43-101.68.44,1.4,1.45,16.88,18.5,19.64,0,0-.81-.19-6.26-5-6.51-6.61-9.44-14.79-7-23.77,7.82,7.67,19.21,8.43,25.71,3.72,1.36-.85-5.1,2.24-15.06-3.17a32,32,0,0,1-15.23-19.1C982.22,378.85,985,373,984.58,373.13Zm-2,22.92-.08,0C982.5,396,982.55,396.05,982.59,396.05Zm-9.45-.65s-.21.24-.53.57C972.18,395.88,972.18,396,973.14,395.4Z"/><path d="M946.73,346.06s-14.11,2.29-21.86,12.85c-14,18.62,5.23,41.72,14.62,46.1,19.91,10.37,28.41-16.73,2.13,24.67a620.38,620.38,0,0,0-52.17,107c0,.05,33.76-77.62,73.49-127.88,9.52-11.79,9.1-10.57,8.79-10.86-1.06-1.09-.81-.93-1.46-.37l-.56-.21c-25.84,13.39-45.39-12.4-39.12-30.17,3-8.73,12.52-16.69,27.11-15.44.65,0,.58.25-.73-1.08-3.67-3-6.1-7.77-6.56-7.42.34-1-13.31-16.06-.39-32.08a25.19,25.19,0,0,1,20.78-9.45c20.2,1.16,26.14,26.17,24.28,20.22S992,309.41,986,303C966,280.94,917.2,310,946.73,346.06Zm11.7,59.62Zm-11.67-59.57s0,0-.14,0Zm1.17-.88c-.36.28-.61.47-.83.62C947.4,345.62,947.67,345.41,947.93,345.23Zm13.51-49.09c.71-.14,1.43-.27,2.16-.37C962.87,295.88,962.15,296,961.44,296.14Zm-.3.07-1,.21C960.52,296.33,960.91,296.25,961.14,296.21Z"/><path d="M889.5,536.54Z"/><path d="M890.93,532.82c.73-1.89,1.8-4.61,1.14-3C891.91,530.27,891.47,531.38,890.93,532.82Z"/><path d="M958.43,405.68Z"/><path d="M970.27,397.56c.12-.1.08,0-.15-.07C970.07,397.53,970.15,397.52,970.27,397.56Z"/><path d="M943.73,398.06c6.06,3.61,14.15,4.92,24.51,0C958.81,402.48,950.33,401.69,943.73,398.06Z"/><path d="M970.08,397.5s.07,0-.2-.08Z"/><path d="M970.66,397.15c-.09.18.14-.06.11-.06S970.72,397.05,970.66,397.15Z"/><path d="M923.85,388.1c-.14-.26-.52-.93-.37-.65Z"/><path d="M930.55,367.29A23,23,0,0,0,932.9,387C929.53,380.83,928.47,373.56,930.55,367.29Z"/><path d="M957.7,351.74c-9.16-.79-16.53,2-21.46,6.74C944,351.33,955.39,351.61,957.7,351.74Z"/><path d="M957.51,351.2s0,0,0,0Z"/><path d="M923,361.84l.23-.42Z"/><path d="M946.76,346.11l-.14,0C946.8,346.11,946.77,346.15,946.76,346.11Z"/><path d="M946.76,346.11l0-.05S946.75,346.1,946.76,346.11Z"/><path d="M947.1,345.85c-.39.25-.4.18-.33.26Z"/><polygon points="946.35 345.67 946.35 345.67 946.35 345.67 946.35 345.67"/><path d="M946.35,345.67c-.23-.26-.11-.13,0,0Z"/><path d="M899.34,536.12Z"/><path d="M889.4,536.82h0S889.38,536.85,889.4,536.82Z"/><path d="M889.39,536.82v0h0Z"/><path d="M889.4,536.8h0Z"/><path d="M889.42,536.76h0Z"/><path d="M889.42,536.75h0S889.45,536.66,889.42,536.75Z"/><path d="M889.51,536.52c-.14.27,0,.07,0,0Z"/><path d="M893.64,525.87c-2.57,6.44-3.92,10-1.37,3.48Z"/><path d="M897.05,517.42c-.62,1.49-1.24,3-1.85,4.53Q896.13,519.66,897.05,517.42Z"/><path d="M970.86,397c-1.14.51-.64.57-.53.46S970.81,397.07,970.86,397Z"/><path class="cls-4" d="M1566.37,1400c-.5,14.09-10.86,27.13-34.62,22.43,1.77,15.44-3.07,20.77-16.34,25-12,3.8-24.19,3.66-31.7-7.79l-1.19-2.23c-4.18,3.81-12.62.44-16.73-4.37,2.46.52,13.74,2.74,17.91-.68,5.46,16.2,48.74,20.07,46.16-14.11C1539.21,1419.3,1560.28,1419.62,1566.37,1400Z"/><path class="cls-3" d="M1439.38,1397.06a26.83,26.83,0,0,0-3.89,3.8c-37.82-5.82-51.4-32.27-55.21-43.33l3.71-2.37C1388.31,1367.34,1401.3,1389.78,1439.38,1397.06Z"/><path class="cls-3" d="M1437.74,1398.48c-7.08,6.72-2.5,6.89-7.94,5.86-24.61-4.54-34.16-17.75-34.69-18.12-5.92-8.1-10.53-14-14-25.43,0,0-.93-3-.94-3s0-.15.09-.16c.83-.14,9.24,36.2,55.28,43.28A25.18,25.18,0,0,1,1437.74,1398.48Z"/><path class="cls-3" d="M1384.82,1354.59s0,0,0,0C1385,1354.46,1385,1354.48,1384.82,1354.59Z"/><path class="cls-3" d="M1393.14,1350.26c-.47-1.07.59-1.26-7.17,3.61,21.35,31.35,60,38.48,60.12,39.27a30.69,30.69,0,0,1,8.52-1.94,31,31,0,0,1,1-10.57C1432.69,1378.4,1403.37,1370.94,1393.14,1350.26Zm57.65,41.48Z"/><path class="cls-3" d="M1396.86,1356.12a36.54,36.54,0,0,1-4.07-6.57A64,64,0,0,0,1396.86,1356.12Z"/><path class="cls-3" d="M1446.88,1392.85a27.51,27.51,0,0,0-5.3,2.63c-2.31.39-38.31-10-54.34-36.18-.85-1.41-2.13-3.94-2.14-4l0-.08h0c-.31-.71-.62-.4.91-1.36,21.35,31.35,60,38.48,60.12,39.27C1446.12,1393.14,1450.28,1391.64,1446.88,1392.85Z"/><path class="cls-3" d="M1450.83,1391.73l-.08,0Z"/><path d="M1432.32,1404.65c-12.84-.84-41.69-10.44-51.13-43.3-3.08-18.09-2.1,8,14,24.9C1408.58,1400.36,1428.54,1404.34,1432.32,1404.65Z"/><path d="M1432.88,1404.66h0Z"/><path d="M1441.58,1395.47c-.48.31-42.36-9.78-56.79-40.82l-.8.51a40.65,40.65,0,0,1-2-8.06C1389.37,1372.79,1415.84,1387.88,1441.58,1395.47Z"/><path d="M1392.43,1337.45a33.57,33.57,0,0,0,20.1,19.24S1393.94,1352.6,1392.43,1337.45Z"/><path class="cls-6" d="M1380.11,1357c-1.56-4.41-1-5.37-.7-3.36C1379.55,1354,1380.05,1356.68,1380.11,1357Z"/><path class="cls-4" d="M1435.51,1400.86c-2.07,2.53-2.27,3.53-2.65,3.8-.5.69-45.51-5.12-52.75-47.62,7.77,22.4,27.13,39.48,55.38,43.82Z"/><path class="cls-4" d="M1446.09,1393.14s-1,.4-1.51.68-3,1.65-3.07,1.66c-2.59-.16-47.13-11.1-59.58-48.34C1381.19,1344.93,1393.59,1378.31,1446.09,1393.14Z"/><path d="M1471.61,1384.62c-.09,0,.07-.13-1.27,1.08C1472,1384.78,1471.81,1385.28,1471.61,1384.62Zm0,0c-.09,0,.07-.13-1.27,1.08C1472,1384.78,1471.81,1385.28,1471.61,1384.62Z"/><path d="M1379.19,1353.75c.15.7.42,1.72.83,3C1379.21,1353,1379.36,1352.41,1379.19,1353.75Zm14,30.77h0c-9.61-10.39-13.26-27.85-13.08-26.78,0,.18.28.94.29,1,3.1,10.48,5.81,17.87,13.1,26.18Zm37.17,19.92a78.58,78.58,0,0,1-13.45-3.61C1425.39,1404.13,1437.58,1405.72,1430.37,1404.44Zm2.49.26s0,0,0,0Zm0,0s0,.07,0,0Zm0,0Zm4.84-6.15a25.24,25.24,0,0,0-4.83,6.15A27,27,0,0,1,1437.74,1398.48Zm2-1.65,1-.76C1440.38,1396.31,1440,1396.57,1439.69,1396.83Zm-46.91-47.29a33,33,0,0,0,4.08,6.58C1393.92,1352.23,1393.09,1349.5,1392.78,1349.54Z"/><path d="M1537.89,1367.38c-1.66.37-.79-2.24-8.12-8-21.32-16.78-59.71-8.48-71.73,15.08-52.62-4.14-67.4-30.44-67.4-30.44,7.54,25.2,38.79,34.06,65,36.61a30.92,30.92,0,0,0-1,10.57c-16.4,1.38-21.4,13.7-22,13.6-.8.16-23.91-2.49-39.08-19.92-5.47-6.23-10.86-15-14.32-31.13-.7,5.79-2.19,48.26,51.64,55.32a32.7,32.7,0,0,0-1.93,11.39c.33,32,32.85,42.84,52.64,23.8,7.94,11.12,20.37,12.32,33.21,8.77h0c14-3.85,22.53-10.47,21.83-25.06,21.56,4.65,40-11.16,36.31-34.87C1570.17,1375.34,1555.93,1363.71,1537.89,1367.38Zm28.48,32.62h0c-.5,14.09-10.86,27.13-34.62,22.43,1.76,15.29-2.93,20.72-16.34,25-12,3.8-24.19,3.66-31.7-7.79l-1.19-2.23c-4.18,3.81-12.62.44-16.73-4.37,1.59,4.74,3.83,8,8.64,10.15-35.44,18.55-53-37-20.27-47,2.39-.74.64-.32.81,3.33.13,3,1.69,5.86,4.41,6.84l.34-.25c-6.47-9.79,10.08-20,11.83-21.54-4-1-9.39,1.86-12.29,4.86,2.83-30.79,52.19-42.82,73.1-20.69,1,1,.19,0-3.58-.8a15.26,15.26,0,0,0-9.23.89l0,.41c9.93,1.22,18.21,6.89,24.4,14.68,1.23-.67-.54-7.56-6.49-12.07C1555,1368.16,1567,1383.77,1566.37,1400Z"/><path class="cls-3" d="M1547.3,1371.8c-4.77-.85-5.58,3.23-3.89,7.68,0,0,1.57,3.9.5,4.48-6.19-7.79-14.47-13.46-24.4-14.68l0-.41a12.52,12.52,0,0,1,3.27-1c3.24-1,3.77-3.9.26-5.93h0c-20.56-10.38-52.11-2.1-61.33,18.16-1.27,1.83.81,5.72,4.53,5a9.77,9.77,0,0,1,5.27-.44c-1.75,1.57-18.3,11.75-11.83,21.54l-.34.25a6.75,6.75,0,0,1-4-4.48c-.93-3-3.7-4.81-6.36-3.55a22.81,22.81,0,0,0-11.21,14.24h0c-.14,8.35,5.3,34.71,31.87,27.34a17.28,17.28,0,0,1-3.89-6.91c2.46.52,13.74,2.74,17.91-.68,5.46,16.2,48.74,20.07,46.16-14.11,9.35,1,30.42,1.37,36.51-18.25C1567.48,1398.39,1565,1375.6,1547.3,1371.8Zm-77,13.9c1.34-1.21,1.18-1.1,1.27-1.08C1471.81,1385.28,1472,1384.78,1470.34,1385.7Z"/><path d="M1443.3,1394.46a27.52,27.52,0,0,1,5-2.08A24.83,24.83,0,0,0,1443.3,1394.46Zm7.49-2.72h0C1450.72,1391.75,1450.77,1391.75,1450.79,1391.74Zm-15.75,9.7a25.66,25.66,0,0,0-2.16,3.22s.62-1.05,1.14-1.81C1434.69,1401.86,1435.45,1401,1435,1401.44Zm-42.15-51.68s-.24-.46.07.15C1393.13,1350.27,1393.18,1350.35,1392.89,1349.76Zm.42.84a1.05,1.05,0,0,0,.07.11Zm1.75,3c-.07-.11.06.08.13.18Zm46.22,42.06a127.43,127.43,0,0,1-23.1-9c-23.22-11.87-29.51-25.66-31.47-28.31-.59-1-1.66-3.16-1.67-3.21-2.72-5.07,4,32.26,54.34,41.88C1441.52,1395.5,1441.3,1395.66,1441.28,1395.65Zm-60.36-35.3c-.12-.32-.64-2.8-.83-2.7C1380.52,1358.94,1381.29,1361.79,1380.92,1360.35Zm.11.43a67.89,67.89,0,0,0,3.67,10.26A94.83,94.83,0,0,1,1381,1360.78Zm3.76,10.46c-.14-.28-.12-.24,0,0Zm9.44,14.44a58,58,0,0,1-9.18-13.87c-.68-1.45.22.59,1.14,2.37C1388.77,1379.82,1395.06,1386.64,1394.23,1385.68Zm.08.09Z"/><path d="M1450.79,1391.74Z"/><path class="cls-4" d="M1474.43,1443.19c-25.49,13.34-41.82-11.7-36.62-30.58h0c-.14,8.35,5.3,34.71,31.87,27.34A15.25,15.25,0,0,0,1474.43,1443.19Z"/><path class="cls-6" d="M1455.38,1401.92c-.93-3-3.7-4.81-6.36-3.55a28.18,28.18,0,0,1,5.14-2.14C1457.12,1395.32,1453.75,1396.75,1455.38,1401.92Z"/><path class="cls-6" d="M1466.28,1385.05a18.47,18.47,0,0,0-7,4.42,28.77,28.77,0,0,1,2.49-9.37C1460.61,1383,1463.21,1385.68,1466.28,1385.05Z"/><path class="cls-4" d="M1522.82,1367.86c3.24-1,3.77-3.9.26-5.93a33.34,33.34,0,0,1,9.28,6.85C1533.87,1370.35,1529.68,1366.73,1522.82,1367.86Z"/><path class="cls-4" d="M1547.22,1371.79c-4.76-.81-5.46,3.35-3.81,7.69a18.7,18.7,0,0,0-6-7.59A23.51,23.51,0,0,1,1547.22,1371.79Z"/><path class="cls-4" d="M991.74,1618.47c7.3,11,22,16.45,38.93,1.09,6.12,13.24,12.64,15.15,25.43,12.07,11.51-2.79,21.33-8.87,21.79-21.71l-.13-2.37c5.24,1,10.41-5.8,11.38-11.66-1.74,1.61-9.76,8.89-14.8,8.19,3.51,15.65-29.55,39.86-44.19,11.21C1023.11,1620.69,1006.25,1631.23,991.74,1618.47Z"/><path class="cls-3" d="M1092.87,1554.16a25.29,25.29,0,0,1,5,1.15c27.7-23.11,25.73-50.94,23.39-61.66l-4.15-.09C1119.58,1505.43,1120.06,1529.75,1092.87,1554.16Z"/><path class="cls-3" d="M1094.89,1554.5c9,1.93,5.39,4.31,9.28.83,17.65-15.65,18.9-30.89,19.15-31.45.82-9.38,1.64-16.4-1.09-27.24,0,0-.7-2.83-.73-2.9s-.08-.11-.15-.08c-.74.29,10.24,33.52-23.48,61.65A24.19,24.19,0,0,0,1094.89,1554.5Z"/><path class="cls-3" d="M1116.16,1493.51s0,0,0,0C1115.94,1493.5,1116,1493.51,1116.16,1493.51Z"/><path class="cls-3" d="M1071.7,1548.93a29,29,0,0,1,6,8,28.86,28.86,0,0,1,7.83-2.6c-.28-.7,27.44-25.26,29.35-60.8-8.65-.12-7.7-.49-7.56.59C1109.17,1515.66,1089.15,1536,1071.7,1548.93Zm9.35,6.54Z"/><path class="cls-3" d="M1107.18,1500.61a34.68,34.68,0,0,0,.08-7.25A59.63,59.63,0,0,1,1107.18,1500.61Z"/><path class="cls-3" d="M1084.75,1554.45a26,26,0,0,1,5.56-.48c2.06-.81,26.07-26.69,26.2-55.51,0-1.55-.2-4.19-.23-4.25a.17.17,0,0,0,0-.07h0c-.1-.72.3-.62-1.4-.64-1.91,35.54-29.63,60.1-29.35,60.8C1085.51,1554.31,1081.41,1555.14,1084.75,1554.45Z"/><path class="cls-3" d="M1081,1555.48l.07,0Z"/><path d="M1102.28,1556.81c10-6.94,28.57-28.71,20.12-59.66-6.36-16,5.62,5.42.91,26.78C1119.36,1541.79,1105.18,1554.71,1102.28,1556.81Z"/><path d="M1101.84,1557.09l.05,0Z"/><path d="M1090.31,1554c.55,0,29.43-28.5,25.91-60.43l.89,0a38.6,38.6,0,0,0-2.28-7.47C1121.39,1510.32,1107.39,1535.33,1090.31,1554Z"/><path d="M1101.63,1483.48a31.39,31.39,0,0,1-6.83,25.23S1107.82,1496.36,1101.63,1483.48Z"/><path class="cls-6" d="M1121.15,1493.16c-.89-4.3-1.78-4.81-1.08-3C1120.11,1490.43,1121,1492.86,1121.15,1493.16Z"/><path class="cls-4" d="M1097.85,1555.33c2.91,1,3.56,1.71,4,1.75.74.31,34.25-26.31,19.31-63.91,4.68,21.75-2.6,44.88-23.29,62.14Z"/><path class="cls-4" d="M1085.53,1554.3s1-.15,1.55-.2c.41,0,3.24-.14,3.29-.16,2-1.4,32.65-31.89,24.48-67.81C1114.37,1484,1120.68,1516.8,1085.53,1554.3Z"/><path d="M1062.31,1560.16c-1.68-.32-1.5-.3-1.56-.24C1060.91,1560.54,1060.53,1560.23,1062.31,1560.16Zm0,0c-1.68-.32-1.5-.3-1.56-.24C1060.91,1560.54,1060.53,1560.23,1062.31,1560.16Z"/><path d="M1121.09,1492.9c-.29-1.23-.57-2.18-.79-2.81C1119.51,1489.1,1119.92,1489.51,1121.09,1492.9ZM1124,1522c1.82-10.22.4-17.46-2.23-27.38,0,0-.17-.75-.23-.91-.38-1,5.21,14.83,2.53,27.85h0S1124,1522,1124,1522Zm-11.11,24.2a73.93,73.93,0,0,1-9.1,9.46C1098.55,1560.23,1107.63,1553,1112.85,1546.23Zm-11,10.88Zm0,0c.06,0,0,0,0,0Zm0,0h0S1101.87,1557.11,1101.81,1557.07Zm0,0a24.82,24.82,0,0,0-6.91-2.57A26.06,26.06,0,0,1,1101.8,1557.07Zm-10.52-3,1.22.1Zm15.9-53.42a30,30,0,0,0,.08-7.26C1107,1493.47,1107.66,1496.06,1107.18,1500.61Z"/><path d="M983.09,1616.12c8.63,20.79,31.24,24.49,46.38,10.24,6.58,12,16.73,13.16,29.89,9.44h0c12.1-3.41,21.56-10.44,22.54-23.22,25.29,5.6,46.23-19,30.86-44.76a30.39,30.39,0,0,0-7.13-8.19c40-31.91,18.06-65.23,14.66-69.53,5.11,14.65,5,24.27,3.66,31.94-3.73,21.36-21.1,34.77-21.82,35-.45.38-10.52-7-24.44-.16a28.86,28.86,0,0,0-6-8c19.92-14.83,40.82-37.18,34.59-61.06,0,0,.92,28.3-39.55,57.28-21.23-13-56.3-1-65.31,22.9-3.1,8.2-1.12,9.86-2.64,10.38C982.42,1584.29,976.6,1600.56,983.09,1616.12Zm18.28-34.31c-2.6,6.52-.66,12.91.67,12.85,1.18-9.27,5.1-17.85,12.52-23.67l-.23-.31a14.5,14.5,0,0,0-7.89,3.79c-2.67,2.45-2.8,3.7-2.5,2.38,6.06-27.94,51.81-42.37,69.16-19.07-3.81-1-9.53-.64-12.31,2.09,2.18.41,20.53.5,20.09,11.5l.41,0c1.71-2.12,1.56-5.19.21-7.63-1.65-3-3.27-2.49-1-3.07,31.29-8,44.3,45.11,6.6,47.53,2.81-4.11,3.05-7.78,2-12.35-1,5.86-6.14,12.68-11.38,11.66l.13,2.37c-.46,12.84-10.28,18.92-21.79,21.71-12.93,3.11-19.37,1-25.43-12.07-16.89,15.36-31.63,10-38.93-1.09h0C983.34,1605.74,985.31,1587.42,1001.37,1581.81Z"/><path class="cls-3" d="M991.74,1618.47c14.51,12.76,31.37,2.22,38.41-3.18,14.64,28.65,47.7,4.44,44.19-11.21,5,.7,13.06-6.58,14.8-8.19a16.21,16.21,0,0,1,.23,7.43c25.07-7,16.57-30.83,12.37-37.46h0a21.58,21.58,0,0,0-16-5.94c-2.76.29-4.1,3.12-3.4,5.94a6.33,6.33,0,0,1-1,5.55l-.41,0c.44-11-17.91-11.09-20.09-11.5a9.28,9.28,0,0,1,4.48-2.2c3.37-1.21,3.14-5.35,1.23-6.2-17.36-11.73-46.89-3-58.41,15.36h0c-1.84,3.34,0,5.41,3.12,4.64a11.16,11.16,0,0,1,3.13-.79l.23.31c-7.42,5.82-11.34,14.4-12.52,23.67-1.15,0-1.78-3.82-1.79-3.84-.81-4.39-3.46-7.27-6.9-4.26C980.92,1598.24,990.05,1617.72,991.74,1618.47Zm69-58.55c.06-.06-.12-.08,1.56.24C1060.53,1560.23,1060.91,1560.54,1060.75,1559.92Z"/><path d="M1083.4,1554.75a26.46,26.46,0,0,1,5-.76A24.28,24.28,0,0,0,1083.4,1554.75Zm-2.35.72Zm19,.72c.8.36,1.83.89,1.81.9a23.17,23.17,0,0,0-3.32-1.53C1097.94,1555.37,1099,1555.72,1100,1556.19Zm7.28-62.46c0-.64,0-.18,0-.15C1107.33,1494.19,1107.33,1494.1,1107.3,1493.73Zm0,.84a.47.47,0,0,0,0-.12Zm0,3.34c0-.11,0-.33,0-.21S1107.39,1497.84,1107.39,1497.91Zm-14.52,56.25c35.93-32.25,23.12-65.47,23.4-60.07,0,.05.19,2.27.22,3.39-.29,3.08,1.38,17.2-11.57,38a120.58,120.58,0,0,1-14.27,18.44S1090.38,1554,1092.87,1554.16Zm28.61-60.5c-.2,0,.59,2.25.65,2.56C1122.54,1497.56,1121.76,1494.9,1121.48,1493.66Zm2.83,13a64.81,64.81,0,0,0-2.06-10A87,87,0,0,1,1124.31,1506.64Zm0,.22c0-.28,0-.31,0,0Zm.29,3c-.12-1.88-.39-4-.23-2.46a54.47,54.47,0,0,1-.63,15.6C1123.57,1524.19,1125.31,1515.66,1124.63,1509.88Zm-.88,13.25h0S1123.75,1523.15,1123.75,1523.13Z"/><path d="M1081.05,1555.47Z"/><path class="cls-4" d="M1087.12,1608.24c27.11-1.74,28.06-29.78,14.62-42.38h0c4.2,6.63,12.7,30.41-12.37,37.46A14.52,14.52,0,0,1,1087.12,1608.24Z"/><path class="cls-4" d="M1082.32,1565.86c-.7-2.82.64-5.65,3.4-5.94a26,26,0,0,0-5.2.79C1077.68,1561.42,1081.11,1560.92,1082.32,1565.86Z"/><path class="cls-4" d="M1065.27,1557.67a17.47,17.47,0,0,1,7.83.11,27.1,27.1,0,0,0-6.59-6.3C1068.86,1553.28,1068.05,1556.67,1065.27,1557.67Z"/><path class="cls-4" d="M1011.2,1571.47c-3.11.77-5-1.3-3.12-4.64a31.44,31.44,0,0,0-4.14,10C1003.49,1578.85,1005.1,1573.9,1011.2,1571.47Z"/><path class="cls-4" d="M993.41,1586.51c3.44-3,6.05,0,6.84,4.31a17.53,17.53,0,0,1,1.12-9A22.35,22.35,0,0,0,993.41,1586.51Z"/></g></svg>