<svg xmlns="http://www.w3.org/2000/svg" viewBox="0 0 2000 2000"><defs><style>.cls-1{fill:#ed1c24;}.cls-2{fill:#ffd100;}.cls-3{fill:#fff;}</style></defs><g id="explotion-4"><path d="M1634.56,435c-281.2,233.48-309.76,475.58-50.79,430.39-259,45.19-142.39,262,207.26,385.37-349.65-123.41-578.52-28.57-406.88,168.61-171.64-197.18-304.31,8.17-235.85,365.07-68.46-356.9-268.76-504.16-356.09-261.79,87.33-242.37-161.92-253.79-443.11-20.31,281.19-233.48,309.76-475.57,50.78-430.39,259-45.18,142.39-262-207.26-385.37C542.27,810,771.14,715.14,599.5,518c171.64,197.18,304.31-8.18,235.85-365.07,68.46,356.89,268.76,504.15,356.1,261.79C1104.11,657,1353.36,668.46,1634.56,435Z"/><path class="cls-1" d="M800.83,1498.69c83.56-231.89-154.92-242.82-424-19.42,269-223.4,296.38-455,48.59-411.8,247.79-43.23,136.24-250.64-198.3-368.72,334.54,118.08,553.53,27.34,389.3-161.32,164.23,188.66,291.16-7.82,225.66-349.3,65.5,341.48,257.15,482.37,340.71,250.48-83.56,231.89,154.92,242.82,424,19.42-269,223.4-296.38,455-48.59,411.8-247.79,43.24-136.24,250.64,198.31,368.73C1422,1120.47,1203,1211.22,1367.2,1399.88,1203,1211.22,1076,1407.7,1141.54,1749.17,1076,1407.7,884.39,1266.8,800.83,1498.69Z"/><path d="M816.23,1456c76.82-213.2-142.43-223.24-389.79-17.86,247.36-205.38,272.49-418.35,44.68-378.6,227.81-39.75,125.25-230.43-182.32-339,307.57,108.56,508.9,25.13,357.92-148.32C797.7,745.64,914.4,565,854.18,251.06c60.22,314,236.42,443.48,313.24,230.28-76.82,213.2,142.43,223.25,389.79,17.86-247.36,205.39-272.48,418.35-44.67,378.6-227.81,39.75-125.26,230.43,182.31,339-307.57-108.57-508.9-25.14-357.91,148.31-151-173.45-267.69,7.19-207.47,321.13C1069.25,1372.3,893.05,1242.76,816.23,1456Z"/><path class="cls-2" d="M831.63,1413.22c70.09-194.5-129.94-203.66-355.6-16.29,225.66-187.37,248.58-381.66,40.75-345.4,207.83-36.26,114.27-210.22-166.33-309.26C631.05,841.31,814.73,765.2,677,607,814.73,765.2,921.19,600.4,866.25,314,921.19,600.4,1081.94,718.58,1152,524.08c-70.08,194.5,129.94,203.66,355.61,16.29C1282,727.74,1259,922,1466.87,885.77,1259,922,1352.6,1096,1633.2,1195c-280.6-99-464.27-22.93-326.53,135.31-137.74-158.24-244.21,6.56-189.27,293C1062.46,1336.9,901.72,1218.72,831.63,1413.22Z"/><path class="cls-3" d="M847,1370.49c63.35-175.81-117.45-184.09-321.42-14.73,204-169.36,224.69-345,36.84-312.19,187.85-32.78,103.28-190-150.34-279.54,253.62,89.52,419.64,20.73,295.14-122.3,124.5,143,220.73-5.93,171.08-264.81C928,635.8,1073.28,742.62,1136.62,566.81c-63.34,175.81,117.45,184.09,321.43,14.73-204,169.36-224.7,345-36.84,312.2-187.86,32.77-103.29,190,150.34,279.53-253.63-89.52-419.65-20.73-295.14,122.3-124.51-143-220.74,5.93-171.08,264.81C1055.67,1301.5,910.38,1194.68,847,1370.49Z"/><path d="M1572.06,1107c-1.71-1,217.91-1.69,190-57.43-21.26-36.13-108.65-59.15-152.21-70.17-7-1.79,225.76-45,131.42-101.5-34.42-20.6-122.75-25.91-162.52-27.71,37.73-22.77,104-68.88,70.84-98.14-9.42-8.21-14.28-14.69-35.84-19.21-45.3-9.53-121.72,1.1-167.26,9-2.18.38,44.35-62.14,8.38-93.83-8.38-7.38-10.44-9.48-15.14-12.28-46.13-27.41-148.64,13.72-197.53,35.94-2,.93-2.38-34-24.86-63.43-60.35-79-153.59-28.1-220.57,41.66-129.84-130-223.32-90.87-238.33,15.14-1.75,12.36,5,11.26-27.12-2.48C536,580.8,496.4,648.41,558.19,742.64c-40.72-7.5-89.25-14.84-130.84-15.48-97.79-1.53-106.68,36.86-59.61,79.9,69.83,61.61,79.69,30.48-43.28,47.44-23.54,3.29-64,10.19-82.2,25.36-11.73,9.75-12,22.12-3.65,32.72,37.82,47.95,144.4,62.61,136.74,64.73-33.16,9.8-138.46,38.93-139.85,73.32-2.3,57.38,198.38,51.44,193.91,54.14-27.47,16.62-94.12,58.93-81.78,88.49,25.59,61.13,219.57,10.47,216.86,14.62-18.89,25.9-39.73,72.2-17.2,95,14.44,14.67,24.94,19.47,40.76,21.22,51.57,5.65,127-24.05,174.3-45.67C774,1382.56,870.76,1442.37,1004,1303.07c133.53,135.8,227.59,91.31,238-23.35,54.93,25.7,153.59,66.24,203.52,42,40.29-21.27,19.21-72.08-6.21-110.09,48,8.89,202.18,35.76,218-10.93C1667.25,1168.67,1600.83,1124.53,1572.06,1107Z"/><path class="cls-3" d="M1565.49,970.74c235-57.83,212.37-112.91-45.08-115.65,175.61-97.48,116.4-142.6-122.94-94.43,93-124,5.88-154.63-182.35-63.68-5.27-133.34-111.64-145.06-223.29-23.35-111.66-121.71-218-110-223.3,23.35-188.21-91-275.34-60.28-182.35,63.68-239.33-48.17-298.55-3-122.93,94.43-257.46,2.74-280.08,57.82-45.09,115.65-235,57.83-212.37,112.92,45.09,115.65-175.62,97.49-116.4,142.6,122.93,94.44-93,124-5.86,154.62,182.35,63.68,5.28,133.33,111.64,145,223.3,23.34,111.65,121.71,218,110,223.29-23.34,188.23,90.94,275.36,60.28,182.35-63.68,239.34,48.16,298.55,3.05,122.94-94.44C1777.86,1083.66,1800.49,1028.57,1565.49,970.74Zm-1148,106.31c-28.36-1.52-56.57-3.81-84.52-9.57-11.56-2.77-39.31-8.14-39.67-23.29-.29-17.51,42.66-30.22,56.65-35.07,33.71-10.72,68.17-18.7,102.7-26.14-39.55,14.87-80.33,26.18-119.34,42a170.35,170.35,0,0,0-18.5,8.82c-4,2.36-8.07,4.8-10.67,8.31-.84,1.37-1,1.68-.71,2.67a9.82,9.82,0,0,0,3.54,3.47c8.33,5.1,18.42,7.53,28.09,10,41,9.33,83.07,13.51,124.8,19.83C445.68,1078.15,431.57,1077.68,417.45,1077.05ZM675,694.69c-18.56-5.92-71.23-25.39-87.42-15.62-12.37,8.17,5.37,42,10,53,4.37,9.58,9.07,19.07,13.31,28.8-12.05-17.83-43.13-59.75-35.11-81.26,11.66-29.82,81.07-.75,102,7.72a539.83,539.83,0,0,1,57.05,28.11C714.68,708.75,694.89,701.44,675,694.69Zm255.38,606.25c-22.91,18.38-75.74,57.07-110.25,31.85-28-21.84-24.6-74.73-20.38-102.78,1.08,24.06-.55,100,42.27,105,32,3.44,78.19-31.86,98.83-47.4,9.57-7.27,18.79-14.78,28.13-22.26A416.33,416.33,0,0,1,930.35,1300.94Zm259.71-598.89c-.58-3.86-1.27-8.16-1.93-12-4-21-9.82-45.22-27.65-58.41-41-28.86-119.34,33.44-152,59.31,29.21-34.77,93-87.64,141.46-74.52,29.65,8.48,39.21,41.82,40.2,69.32C1190.39,691.17,1190.33,696.61,1190.06,702.05Zm225,562.14c-2.82,49.5-141.59-9.61-166.51-21.5,41.77,9.12,82.29,23.74,124.42,30.24,9.21,1.07,23.49,3,31.24-2.52,3.12-2.34,3.6-6.64,3.23-10.28-.83-6.47-3.32-12.38-6.16-18.38-4-8.48-9.07-16.61-14-24.83,3.35,3.45,6.58,7,9.63,10.74C1404.82,1237.39,1414.84,1251.17,1415.08,1264.19Zm64.8-403.3c10.76-8.09,93.7-60.21,80.39-72.57-9.59-7-36.19-5.74-48.54-5.46-45,1.95-89.58,8.19-134.59,11.4,24.27-5.76,203.27-45.91,193.77.08C1564.92,818.6,1502.53,850.07,1479.88,860.89ZM1627,1074.73a302.22,302.22,0,0,1-47,1.29c15.34-3.33,30.65-6,45.78-9.06,15.64-3.49,51.6-9.8,61-22.37,9.45-13.94-32-35-42.09-40.7,16.74,3.85,53.65,16.92,52.6,38.25C1694.65,1065.89,1646.05,1072.58,1627,1074.73Z"/><path d="M306.93,1048.25a9.82,9.82,0,0,1-3.54-3.47c-.3-1-.13-1.3.71-2.67,2.6-3.51,6.68-5.95,10.67-8.31a170.35,170.35,0,0,1,18.5-8.82c39-15.82,79.79-27.13,119.34-42-34.53,7.44-69,15.42-102.7,26.14-14,4.85-56.94,17.56-56.65,35.07.36,15.15,28.11,20.52,39.67,23.29,27.95,5.76,56.16,8,84.52,9.57,14.12.63,28.23,1.1,42.37,1-41.73-6.32-83.77-10.5-124.8-19.83C325.35,1055.78,315.26,1053.35,306.93,1048.25Z"/><path d="M1570.91,794.34c9.5-46-169.5-5.84-193.77-.08,45-3.21,89.58-9.45,134.59-11.4,12.35-.28,39-1.56,48.54,5.46,13.31,12.36-69.63,64.48-80.39,72.57C1502.53,850.07,1564.92,818.6,1570.91,794.34Z"/><path d="M1644.63,1003.89c10,5.71,51.54,26.76,42.09,40.7-9.37,12.57-45.33,18.88-61,22.37-15.13,3.09-30.44,5.73-45.78,9.06a302.22,302.22,0,0,0,47-1.29c19.1-2.15,67.7-8.84,70.28-32.59C1698.28,1020.81,1661.37,1007.74,1644.63,1003.89Z"/><path d="M1387.28,1216.92c5,8.22,10,16.35,14,24.83,2.84,6,5.33,11.91,6.16,18.38.37,3.64-.11,7.94-3.23,10.28-7.75,5.54-22,3.59-31.24,2.52-42.13-6.5-82.65-21.12-124.42-30.24,24.92,11.89,163.69,71,166.51,21.5-.24-13-10.26-26.8-18.17-36.53C1393.86,1223.94,1390.63,1220.37,1387.28,1216.92Z"/><path d="M842,1335c-42.82-4.92-41.19-80.89-42.27-105-4.22,28-7.64,80.94,20.38,102.78,34.51,25.22,87.34-13.47,110.25-31.85A416.33,416.33,0,0,0,969,1265.3c-9.34,7.48-18.56,15-28.13,22.26C920.18,1303.1,873.94,1338.4,842,1335Z"/><path d="M575.75,679.62c-8,21.51,23.06,63.43,35.11,81.26-4.24-9.73-8.94-19.22-13.31-28.8-4.63-11-22.37-44.84-10-53,16.19-9.77,68.86,9.7,87.42,15.62,19.92,6.75,39.71,14.06,59.85,20.76a539.83,539.83,0,0,0-57.05-28.11C656.82,678.87,587.41,649.8,575.75,679.62Z"/><path d="M1149.93,616.4c-48.44-13.12-112.25,39.75-141.46,74.52,32.67-25.87,111-88.17,152-59.31,17.83,13.19,23.65,37.44,27.65,58.41.66,3.87,1.35,8.17,1.93,12,.27-5.44.33-10.88.07-16.33C1189.14,658.22,1179.58,624.88,1149.93,616.4Z"/></g></svg>