<svg xmlns="http://www.w3.org/2000/svg" viewBox="0 0 2000 2000"><defs><style>.cls-1{fill:#ffd100;}.cls-2{fill:#fff;}.cls-3{fill:#ed1c24;}</style></defs><g id="explotion-2"><g id="Layer_1" data-name="Layer 1"><polygon class="cls-1" points="1821.48 1011.95 1781.65 1000.54 1818.22 981.11 1816.74 939.69 1846.54 968.41 1885.48 954.26 1867.34 991.47 1892.87 1024.09 1851.81 1018.35 1828.71 1052.68 1821.48 1011.95"/><path d="M1828.63,1053.13c-2.73-13.43-6.44-27-9.28-40.73l1.66,1.88c-7.72-1.81-44.3-10.47-51.27-12.1l10.07-5.32,36.66-19.31-2.17,3.75c-.27-7-1.37-45.23-1.58-51.28,4.37,4.43,30.88,31.64,35.77,36.65l-2.64-.57,39.32-13,2.8-.92-1.23,2.67-17,37.77-.31-2.74,26.51,31.83,6.71,8c-6.69-1.23-43.64-7.93-51.08-9.28l2.06-1c-8.32,11.36-17.06,22.35-25,33.58Zm.17-.82c7.47-11.68,14.18-23.55,21.31-35.1l.65-1.05,1.41.16,41.26,4-3.57,6.21-24.48-33.43-1-1.39.68-1.34,19.24-36.71,1.57,1.75-38.46,15.4-1.39.56-1.26-1.14-30.69-27.78,6.54-2.91L1822.3,981l.07,2.55-2.24,1.2-36.47,19.64-.84-7.92,39.28,13.23,1.47.53.19,1.36c1.78,13.42,2.93,27,5,40.76Z"/><path d="M1623.1,927.45c66.06-9.69,128.84-3.48,183.16,14.11a2.1,2.1,0,0,1,1.28,2.82v.07a2.1,2.1,0,0,1-2.61,1.18c-53.54-18.81-115.79-26.41-181.84-18.18Z"/><path d="M1611.27,931.2c66.82-3.37,128.37,9,179.82,32.14a2.12,2.12,0,0,1,1,2.86h0a2.06,2.06,0,0,1-2.72.9c-50.72-24.11-111.64-37.75-178.1-35.9Z"/><path d="M1628.9,936.28l.36,0a.43.43,0,0,0,.29,0c1.55.07,3,.16,4.44.31a369.79,369.79,0,0,1,135.64,41.34,2.07,2.07,0,0,1,.77,2.81l-.06.09a2.08,2.08,0,0,1-2.82.76,370.65,370.65,0,0,0-128.74-44.22c-2.83-.4-5.67-.8-8.63-1a6.38,6.38,0,0,0-1.25,0Z"/><polygon class="cls-1" points="219.09 1106.18 272.88 1086.75 220.72 1063.32 218.79 1006.22 180.42 1048.59 125.51 1032.73 153.94 1082.3 121.83 1129.63 177.83 1117.86 213 1163.03 219.09 1106.18"/><path d="M213.09,1163.62c-12-14.74-25.18-29-37.62-43.9l3,1.08L109,1138.45l8.52-11.73L151,1080.39l-.17,3.76-26.94-50.49L122,1030.1l4,1.05,55.38,14.18-3.6,1c6.32-7.38,40.3-47.31,45.82-53.86.3,8.45,2.31,61.2,2.69,70.84l-3.34-5,52.31,23.11,14.34,6.33c-9.39,2.86-58.9,18.25-69.45,21.48l2.13-2.73c-2.8,19.19-6.64,38.23-9.18,57.08Zm-.27-1.17c1.6-19.12,1.93-38,3.17-56.73l.14-1.84,2-.79L271,1081.17l-.44,11-52.09-23.64-3.24-1.46-.1-3.52-1.63-57.15,9.28,3.42-39.66,41.15-1.58,1.64-2-.62-54.44-17.55,2-2.61,30,48.73,1.06,1.76-1.23,2-30.64,48.34-5.52-8.2,56.43-9.41,2-.28,1,1.37c10.87,15.21,21.11,31,32.61,46.34Z"/><path d="M484.49,971c-92-7.1-177.85,7.43-251,36.72a2.81,2.81,0,0,0-1.56,4l0,.1a2.86,2.86,0,0,0,3.73,1.38c72-30.94,157.09-47.19,248.84-42.16Z"/><path d="M501,975.12c-92.31,1.62-176,24.54-244.7,61.17a2.87,2.87,0,0,0-1.14,4v.1a2.81,2.81,0,0,0,3.89,1.06c67.59-38,150.24-62.57,241.94-66.33Z"/><path d="M477.23,983.79a.74.74,0,0,0-.42,0l-.39,0c-2.09.2-4.06.58-6,.87a511.23,511.23,0,0,0-183.06,69.7,2.81,2.81,0,0,0-.84,4v.1a2.85,2.85,0,0,0,3.95.75,513.36,513.36,0,0,1,173.18-73c3.93-.76,7.85-1.63,11.81-2.2a10.75,10.75,0,0,1,1.8-.15Z"/><polygon class="cls-1" points="1352.81 1616.26 1323.94 1552.31 1300.28 1618.34 1230.58 1626.12 1286.12 1668.96 1271.94 1737.67 1329.81 1698.15 1390.74 1732.75 1371.09 1665.46 1422.92 1618.32 1352.81 1616.26"/><path d="M1423.58,1618c-16.89,16.06-33.07,33.53-50,50.1l1.09-3.69c4.06,12.15,24.42,72.37,28.1,83.25l-15.16-9.24-59.9-36.56,4.62-.16-59.14,37.68-4.26,2.73.8-5,12-69.11,1.63,4.32c-9.69-7-61.77-44.68-70.23-50.84,10.24-1.17,74.62-8.69,86.34-10.07l-5.71,4.56,23.24-66.17,6.38-18.19c4.44,11.18,28.08,70.32,33,82.85l-3.46-2.33c23.77,1.64,47.42,4.51,70.64,5.83Zm-1.34.49c-23.56-.15-46.6,1.23-69.47,1.68l-2.32,0-1.24-2.34-31.9-62.51,13.46-.51-24,65.87-1.44,4-4.28.41-69.76,7.38,3.27-11.68,54.18,44.55,2.18,1.81-.55,2.51L1274.1,1738l-3.35-2.25,56.7-41.37,2.1-1.51,2.52,1.35,62,32.83-9.53,7.53-16.94-68.08-.54-2.35,1.63-1.34c17.58-14.75,35.88-28.79,53.56-44.26Z"/><path d="M1162.25,1304.76c.16,113.13,26,216.7,69,303.28a3.63,3.63,0,0,0,5.07,1.5l.1,0a3.48,3.48,0,0,0,1.25-4.62c-44.74-85.11-72.87-187.55-75.38-300.14Z"/><path d="M1165.66,1284.17c10.8,112.61,46.78,212.71,98.15,293.33a3.55,3.55,0,0,0,5,1l.1,0a3.62,3.62,0,0,0,.92-4.88c-52.86-79-90.86-177.7-104.16-289.44Z"/><path d="M1178.5,1312.43l.09.6.07.49c.37,2.57,1,4.91,1.56,7.35a625.87,625.87,0,0,0,102.76,217,3.47,3.47,0,0,0,4.93.61.11.11,0,0,1,.09-.12,3.42,3.42,0,0,0,.62-4.83,626.91,626.91,0,0,1-105.85-204.75c-1.38-4.65-2.76-9.4-3.86-14.19a8.08,8.08,0,0,1-.41-2.17Z"/><polygon class="cls-1" points="649.39 1555.74 667.38 1507.19 620.68 1529.55 580 1497.4 586.86 1548.74 543.72 1577.56 594.66 1586.92 608.7 1636.84 633.36 1591.17 685.19 1593.33 649.39 1555.74"/><path d="M685.63,1593.57c-17.22-.35-34.8.35-52.27.43l2.43-1.36c-4.14,8.47-24.73,50.83-28.49,58.44l-3.14-12.78L591.68,1588l2.55,2.26-50.76-10.9-3.65-.79,3-2.15,42.25-30.11-1.37,3.13c-1.44-8.69-9.18-55.56-10.48-63.26,6,4.7,43.8,34.23,50.63,39.62l-5.34-.65,46.65-22.66,12.84-6.28c-3.57,8.19-21.9,51.53-25.84,60.68l-.64-3c11.59,13.19,22.56,27,34.09,39.76Zm-1-.46c-12.28-12.38-25.1-23.58-37.2-35.38l-1.27-1.13.64-1.91,15.73-49.44,7.33,6.73L623,1534.17,620,1535.5l-2.51-2L577,1501.16l7.74-4.44,5.28,51.57.2,2.09-1.57,1-44,27.43-.62-2.94,51.32,7.79,1.87.34.6,2,15.58,49.49-8.92-.94L631,1590l.89-1.54,1.53.08c17,1.4,33.94,3.52,51.26,4.57Z"/><path d="M711.29,1292.88c-58.85,59.46-99.1,127.47-121.68,195.46a2.65,2.65,0,0,0,1.9,3.37l.1,0a2.53,2.53,0,0,0,3.08-1.75c20.75-68,59.32-136.51,116.6-197.06Z"/><path d="M723.82,1283.71c-53,64.89-86.12,136.31-101,205.32a2.52,2.52,0,0,0,2.07,3.14l.09,0a2.53,2.53,0,0,0,2.94-2c13.33-69.09,44.78-140.68,95.87-206.4Z"/><path d="M715.8,1305.27l-.26.34-.25.34c-1.09,1.57-2,3.11-3,4.67a450.93,450.93,0,0,0-38,82.23,458.19,458.19,0,0,0-20.89,85.33,2.56,2.56,0,0,0,2.23,2.91h.1a2.51,2.51,0,0,0,2.82-2.23,464.73,464.73,0,0,1,50.9-162.77c1.76-3.19,3.43-6.36,5.41-9.47.34-.45.58-.89.92-1.34Z"/><polygon class="cls-1" points="585.99 370.21 606.74 403.53 568.7 394.01 543.34 423.94 540.71 384.81 504.35 370.01 540.77 355.38 543.64 316.31 568.82 346.39 606.9 337.03 585.99 370.21"/><path d="M607.17,336.77c-6.57,11.18-12.65,23.13-19.39,34.79l.05-2.37c4.32,6.18,24.43,35.54,28.28,41.1l-10.47-2.7-38-9.76,3.87-1.24c-4.24,5-27.8,32.56-31.52,37-.17-5.93-1.49-41.81-1.76-48.49l1.52,2.07-35.91-15.93-2.53-1.17,2.58-1.13,35.94-15.78-1.54,2.05,1.64-39.2.41-9.91c3.94,5.09,25.65,33.38,30,39l-2-.7c13-2.71,26.13-4.82,38.87-7.64Zm-.62.47c-12.73,3.43-24.9,7.54-37.27,11.3l-1.1.31-.91-1-26.41-29.07,6.43-2.07-4,39-.16,1.55-1.38.5-36.88,13.47,0-2.29,36.81,13.67,1.37.49.15,1.58,3.84,39-6.42-2.14,25.1-30.11,1.49-1.82,2.38.58,38.09,9.35-4.4,6.06-19.14-34.31-.71-1.27.77-1c7.35-10.53,15.19-20.82,22.41-31.79Z"/><path d="M671.52,555.76c-52.59-35.24-92.64-79.54-119.62-126.48a2,2,0,0,1,.9-2.8l.07,0a2,2,0,0,1,2.57.86c25.65,47.21,64.5,92.21,116.08,128.44Z"/><path d="M682.15,560.66c-49-40.12-84.29-88-105.84-137a2,2,0,0,1,1.08-2.6h.07a1.93,1.93,0,0,1,2.53,1.09c20.27,49.2,54.34,97.57,102.16,138.54Z"/><path d="M673,545.85l-.35-.26-.25-.19c-1-1-2-2-2.88-3A348.5,348.5,0,0,1,629,487.14,342.1,342.1,0,0,1,600.63,427a1.92,1.92,0,0,1,1.25-2.47H602a2,2,0,0,1,2.47,1.25A351.49,351.49,0,0,0,666.7,538.73c1.76,2.11,3.51,4.23,5.41,6.25a4.88,4.88,0,0,0,.89.87Z"/><polygon class="cls-1" points="1631.76 530.23 1597.36 545.79 1611.31 510.7 1585.88 482.78 1623.59 485.19 1642.27 452.41 1651.61 488.98 1688.6 496.62 1656.7 516.83 1660.8 554.34 1631.76 530.23"/><path d="M1661,554.67c-9.84-7.75-20.47-15-30.51-22.85l2.24.29c-6.43,3.3-37,18.8-42.79,21.77l3.86-9.66,14.15-35,.68,3.87c-4.27-4.69-27.6-30.66-31.3-34.77l46.49,4.45-2.21,1.17,19.74-32.2,1.38-2.28.74,2.59L1654,488.34l-1.77-1.7,37.2,6.51,9.39,1.64c-5.35,3.09-35,20.23-41,23.65l.89-1.84c.92,12.75,1.29,25.58,2.35,38.07Zm-.4-.67c-1.62-12.53-4-24.7-5.8-37l-.16-1.13,1-.77,31-21.48,1.17,6.42-36.74-8.83-1.51-.33-.32-1.36-8.22-36.86,2.18.3-17.68,33.37-.68,1.25-1.53,0-37.72-1.24,2.81-5.9,25.54,27.78,1.52,1.67-.84,2.2L1601,547.17l-5.23-5,35.13-13.89,1.32-.56.92.85c9.13,8.33,18,17.14,27.52,25.42Z"/><path d="M1443.92,588.32c40.28-45.65,87.61-78.33,135.81-98.12a2,2,0,0,1,2.56,1.22v.06a1.91,1.91,0,0,1-1.13,2.36c-48.33,18.47-96.15,49.87-137.25,94.48Z"/><path d="M1438,597.85c44.45-41.67,94.58-69.32,144.12-83.63a1.9,1.9,0,0,1,2.4,1.37v.06a1.92,1.92,0,0,1-1.38,2.27c-49.53,13.09-100,39.51-145.14,79.93Z"/><path d="M1453.22,591a.84.84,0,0,1,.21-.22c0-.07.16-.14.21-.21,1.1-.89,2.15-1.65,3.26-2.42a337.87,337.87,0,0,1,118.81-51.12,1.94,1.94,0,0,1,2.23,1.52v.06a1.92,1.92,0,0,1-1.52,2.17,338.38,338.38,0,0,0-115.64,45.1c-2.24,1.42-4.48,2.84-6.64,4.37a4.93,4.93,0,0,0-.93.75Z"/><path d="M720.33,1146.72c72.36-9.68,128.85,32.73,137.58,114.72,62.93-55,139.27-76.35,199.21-17.67,41.18-48.84,112.31-64.3,200.06-1.22,1-83.08,53.87-130.07,126.11-127.2-1.83-66.31,52.85-101.33,123.13-110-50.48-51.15-45.22-108.17-9.1-145.07-39.15-32.78-50.34-89.66-4.72-145.61-91-2.5-129.7-47.06-132.94-97.81-72.46,9.69-128.88-32.93-137.58-114.73-63.55,55.59-139.84,75.93-199.21,17.67-41.1,48.73-112.3,64.4-200.06,1.22-1,82.58-53.27,130.09-126.11,127.2,1.86,67.22-54.8,101.81-123.14,109.9,50.48,51.25,45,108.2,9,145.09,39,32.69,50.33,89.57,4.73,145.61C678.15,1051.34,716.87,1095.89,720.33,1146.72Zm-99.88-110.34C662.7,984.46,652.2,931.71,616,901.44c33.38-34.19,38.43-87-8.38-134.47,63.28-7.46,115.85-39.56,114.09-101.84,67.56,2.64,115.9-41.37,116.85-117.88,81.32,58.44,147.24,44,185.41-1.15,55,53.94,125.66,35.12,184.55-16.37,8,75.83,60.28,115.31,127.5,106.37,3,47,38.92,88.27,123.11,90.64-42.17,51.81-31.87,104.59,4.41,134.94-33.47,34.3-38.33,87,8.38,134.47-65.12,8-115.83,40.46-114.09,101.84-66.95-2.62-116,40.88-116.85,117.89-81.32-58.45-147.26-44.14-185.41,1.14-55.57-54.26-126.28-34.52-184.55,16.37-8.06-75.92-60.47-115.18-127.48-106.27C740.67,1080.05,704.75,1038.84,620.45,1036.38Zm99.88,110.34c72.36-9.68,128.85,32.73,137.58,114.72,62.93-55,139.27-76.35,199.21-17.67,41.18-48.84,112.31-64.3,200.06-1.22,1-83.08,53.87-130.07,126.11-127.2-1.83-66.31,52.85-101.33,123.13-110-50.48-51.15-45.22-108.17-9.1-145.07-39.15-32.78-50.34-89.66-4.72-145.61-91-2.5-129.7-47.06-132.94-97.81-72.46,9.69-128.88-32.93-137.58-114.73-63.55,55.59-139.84,75.93-199.21,17.67-41.1,48.73-112.3,64.4-200.06,1.22-1,82.58-53.27,130.09-126.11,127.2,1.86,67.22-54.8,101.81-123.14,109.9,50.48,51.25,45,108.2,9,145.09,39,32.69,50.33,89.57,4.73,145.61C678.15,1051.34,716.87,1095.89,720.33,1146.72Zm-99.88-110.34C662.7,984.46,652.2,931.71,616,901.44c33.38-34.19,38.43-87-8.38-134.47,63.28-7.46,115.85-39.56,114.09-101.84,67.56,2.64,115.9-41.37,116.85-117.88,81.32,58.44,147.24,44,185.41-1.15,55,53.94,125.66,35.12,184.55-16.37,8,75.83,60.28,115.31,127.5,106.37,3,47,38.92,88.27,123.11,90.64-42.17,51.81-31.87,104.59,4.41,134.94-33.47,34.3-38.33,87,8.38,134.47-65.12,8-115.83,40.46-114.09,101.84-66.95-2.62-116,40.88-116.85,117.89-81.32-58.45-147.26-44.14-185.41,1.14-55.57-54.26-126.28-34.52-184.55,16.37-8.06-75.92-60.47-115.18-127.48-106.27C740.67,1080.05,704.75,1038.84,620.45,1036.38Zm99.88,110.34c72.36-9.68,128.85,32.73,137.58,114.72,62.93-55,139.27-76.35,199.21-17.67,41.18-48.84,112.31-64.3,200.06-1.22,1-83.08,53.87-130.07,126.11-127.2-1.83-66.31,52.85-101.33,123.13-110-50.48-51.15-45.22-108.17-9.1-145.07-39.15-32.78-50.34-89.66-4.72-145.61-91-2.5-129.7-47.06-132.94-97.81-72.46,9.69-128.88-32.93-137.58-114.73-63.55,55.59-139.84,75.93-199.21,17.67-41.1,48.73-112.3,64.4-200.06,1.22-1,82.58-53.27,130.09-126.11,127.2,1.86,67.22-54.8,101.81-123.14,109.9,50.48,51.25,45,108.2,9,145.09,39,32.69,50.33,89.57,4.73,145.61C678.15,1051.34,716.87,1095.89,720.33,1146.72Zm-99.88-110.34C662.7,984.46,652.2,931.71,616,901.44c33.38-34.19,38.43-87-8.38-134.47,63.28-7.46,115.85-39.56,114.09-101.84,67.56,2.64,115.9-41.37,116.85-117.88,81.32,58.44,147.24,44,185.41-1.15,55,53.94,125.66,35.12,184.55-16.37,8,75.83,60.28,115.31,127.5,106.37,3,47,38.92,88.27,123.11,90.64-42.17,51.81-31.87,104.59,4.41,134.94-33.47,34.3-38.33,87,8.38,134.47-65.12,8-115.83,40.46-114.09,101.84-66.95-2.62-116,40.88-116.85,117.89-81.32-58.45-147.26-44.14-185.41,1.14-55.57-54.26-126.28-34.52-184.55,16.37-8.06-75.92-60.47-115.18-127.48-106.27C740.67,1080.05,704.75,1038.84,620.45,1036.38Zm99.88,110.34c72.36-9.68,128.85,32.73,137.58,114.72,62.93-55,139.27-76.35,199.21-17.67,41.18-48.84,112.31-64.3,200.06-1.22,1-83.08,53.87-130.07,126.11-127.2-1.83-66.31,52.85-101.33,123.13-110-50.48-51.15-45.22-108.17-9.1-145.07-39.15-32.78-50.34-89.66-4.72-145.61-91-2.5-129.7-47.06-132.94-97.81-72.46,9.69-128.88-32.93-137.58-114.73-63.55,55.59-139.84,75.93-199.21,17.67-41.1,48.73-112.3,64.4-200.06,1.22-1,82.58-53.27,130.09-126.11,127.2,1.86,67.22-54.8,101.81-123.14,109.9,50.48,51.25,45,108.2,9,145.09,39,32.69,50.33,89.57,4.73,145.61C678.15,1051.34,716.87,1095.89,720.33,1146.72Zm-99.88-110.34C662.7,984.46,652.2,931.71,616,901.44c33.38-34.19,38.43-87-8.38-134.47,63.28-7.46,115.85-39.56,114.09-101.84,67.56,2.64,115.9-41.37,116.85-117.88,81.32,58.44,147.24,44,185.41-1.15,55,53.94,125.66,35.12,184.55-16.37,8,75.83,60.28,115.31,127.5,106.37,3,47,38.92,88.27,123.11,90.64-42.17,51.81-31.87,104.59,4.41,134.94-33.47,34.3-38.33,87,8.38,134.47-65.12,8-115.83,40.46-114.09,101.84-66.95-2.62-116,40.88-116.85,117.89-81.32-58.45-147.26-44.14-185.41,1.14-55.57-54.26-126.28-34.52-184.55,16.37-8.06-75.92-60.47-115.18-127.48-106.27C740.67,1080.05,704.75,1038.84,620.45,1036.38Zm99.88,110.34c72.36-9.68,128.85,32.73,137.58,114.72,62.93-55,139.27-76.35,199.21-17.67,41.18-48.84,112.31-64.3,200.06-1.22,1-83.08,53.87-130.07,126.11-127.2-1.83-66.31,52.85-101.33,123.13-110-50.48-51.15-45.22-108.17-9.1-145.07-39.15-32.78-50.34-89.66-4.72-145.61-91-2.5-129.7-47.06-132.94-97.81-72.46,9.69-128.88-32.93-137.58-114.73-63.55,55.59-139.84,75.93-199.21,17.67-41.1,48.73-112.3,64.4-200.06,1.22-1,82.58-53.27,130.09-126.11,127.2,1.86,67.22-54.8,101.81-123.14,109.9,50.48,51.25,45,108.2,9,145.09,39,32.69,50.33,89.57,4.73,145.61C678.15,1051.34,716.87,1095.89,720.33,1146.72Zm-99.88-110.34C662.7,984.46,652.2,931.71,616,901.44c33.38-34.19,38.43-87-8.38-134.47,63.28-7.46,115.85-39.56,114.09-101.84,67.56,2.64,115.9-41.37,116.85-117.88,81.32,58.44,147.24,44,185.41-1.15,55,53.94,125.66,35.12,184.55-16.37,8,75.83,60.28,115.31,127.5,106.37,3,47,38.92,88.27,123.11,90.64-42.17,51.81-31.87,104.59,4.41,134.94-33.47,34.3-38.33,87,8.38,134.47-65.12,8-115.83,40.46-114.09,101.84-66.95-2.62-116,40.88-116.85,117.89-81.32-58.45-147.26-44.14-185.41,1.14-55.57-54.26-126.28-34.52-184.55,16.37-8.06-75.92-60.47-115.18-127.48-106.27C740.67,1080.05,704.75,1038.84,620.45,1036.38Zm99.88,110.34c72.36-9.68,128.85,32.73,137.58,114.72,62.93-55,139.27-76.35,199.21-17.67,41.18-48.84,112.31-64.3,200.06-1.22,1-83.08,53.87-130.07,126.11-127.2-1.83-66.31,52.85-101.33,123.13-110-50.48-51.15-45.22-108.17-9.1-145.07-39.15-32.78-50.34-89.66-4.72-145.61-91-2.5-129.7-47.06-132.94-97.81-72.46,9.69-128.88-32.93-137.58-114.73-63.55,55.59-139.84,75.93-199.21,17.67-41.1,48.73-112.3,64.4-200.06,1.22-1,82.58-53.27,130.09-126.11,127.2,1.86,67.22-54.8,101.81-123.14,109.9,50.48,51.25,45,108.2,9,145.09,39,32.69,50.33,89.57,4.73,145.61C678.15,1051.34,716.87,1095.89,720.33,1146.72Zm-99.88-110.34C662.7,984.46,652.2,931.71,616,901.44c33.38-34.19,38.43-87-8.38-134.47,63.28-7.46,115.85-39.56,114.09-101.84,67.56,2.64,115.9-41.37,116.85-117.88,81.32,58.44,147.24,44,185.41-1.15,55,53.94,125.66,35.12,184.55-16.37,8,75.83,60.28,115.31,127.5,106.37,3,47,38.92,88.27,123.11,90.64-42.17,51.81-31.87,104.59,4.41,134.94-33.47,34.3-38.33,87,8.38,134.47-65.12,8-115.83,40.46-114.09,101.84-66.95-2.62-116,40.88-116.85,117.89-81.32-58.45-147.26-44.14-185.41,1.14-55.57-54.26-126.28-34.52-184.55,16.37-8.06-75.92-60.47-115.18-127.48-106.27C740.67,1080.05,704.75,1038.84,620.45,1036.38Zm-33.06,12.52c90.88,2.52,129.6,47.08,132.84,97.83,72.36-9.67,128.85,32.74,137.58,114.73,62.93-55,139.27-76.35,199.21-17.67,41.18-48.85,112.31-64.3,200.06-1.22,1-83.09,53.87-130.07,126.11-127.2-1.83-66.31,52.85-101.33,123.13-110-50.48-51.15-45.22-108.18-9.1-145.08-39.15-32.77-50.34-89.66-4.72-145.6-91-2.51-129.7-47.06-132.94-97.82-72.46,9.69-128.88-32.93-137.58-114.72-63.55,55.59-139.84,75.92-199.21,17.67-41.1,48.73-112.3,64.39-200.06,1.22-1,82.57-53.26,130.08-126.11,127.2,1.86,67.21-54.8,101.81-123.14,109.9,50.49,51.25,45,108.2,9,145.09C621.59,935.9,632.88,992.78,587.39,1048.9Zm33.06-12.52C662.7,984.46,652.2,931.71,616,901.44c33.38-34.19,38.43-87-8.38-134.47,63.28-7.46,115.85-39.56,114.09-101.84,67.56,2.64,115.9-41.37,116.85-117.88,81.32,58.44,147.24,44,185.41-1.15,55,53.94,125.66,35.12,184.55-16.37,8,75.83,60.28,115.31,127.5,106.37,3,47,38.92,88.27,123.11,90.64-42.17,51.81-31.87,104.59,4.41,134.94-33.47,34.3-38.33,87,8.38,134.47-65.12,8-115.83,40.46-114.09,101.84-66.95-2.62-116,40.88-116.85,117.89-81.32-58.45-147.26-44.14-185.41,1.14-55.57-54.26-126.28-34.52-184.55,16.37-8.06-75.92-60.47-115.18-127.48-106.27C740.67,1080.05,704.75,1038.84,620.45,1036.38Zm-84.72,34.79c36.75-3.66,66.56-2.89,90.54,2.26,59.12,12.84,80.82,54.27,72.09,98.36C783,1147.63,846.71,1193.24,838.07,1309c42.37-46.89,82.93-73.32,120.64-78.73s73.67,9.33,99.69,46.32c22-38.63,51.94-51.3,75.2-54.64,43.16-6.19,92.63,16.11,147.29,66.16-19.61-114.88,39.47-165.69,126-149.81-4.63-15.4-5.12-30.08-1.69-44.21,14.87-61.13,91.75-71.66,154.22-71.43-94.25-62.65-83.11-128.6-28.58-164-57.35-29.35-75.48-94.44,12.94-166.12-59,5.93-132.88,4-157.6-50-6.94-15.27-8.56-32.21-4.94-50.61-84.82,24.19-148.29-21.76-139.7-137.25-71.23,78.81-160.53,117.59-220.33,32.42-22,38.62-52,51.29-75.21,54.63-43.16,6.19-92.62-16.11-147.28-66.16,19.79,116.17-40.61,165.55-126,149.82,14.88,49.48-10.52,99.9-95.94,112.16C503.91,748,508.48,726.34,550.9,764.3c56.79,50.75,49.14,107.31-2.15,140.63C609.37,935.94,621.05,1001.85,535.73,1071.17Zm28.64-12.3c61.36-60.32,51.28-122.12,2.53-154.93,42.77-35.63,49.81-94.32-9.3-147.17-11.47-10.27-12.69-4.64,20.57-9.41,85.73-12.3,114.69-61.11,107.46-110.08,77.25,8.21,134-39.73,126.29-137.22,73.41,59.58,158,77.85,210.13,4.2,60.07,69.47,142.13,41.44,208.71-24,1.4,95.67,60.67,140.51,138.81,124.65a87.1,87.1,0,0,0,7.57,41.54c23.11,50.54,82.77,60.06,138.24,58-62.94,62-49.37,123.46-2.51,155C1469,896,1461.81,957.81,1530,1013.29c-59.11,3.43-120.4,21.21-134.34,78.27a90.44,90.44,0,0,0-1.51,34.56c-78.79-8.39-133.92,41.14-126.29,137.23-73-59.23-157.71-78.2-210.13-4.2-45-52.15-120.41-62.64-208.71,24-1.41-96.48-61.35-140.31-138.81-124.65,2.37-43.38-24.16-82.51-81.71-95C610.23,1059.57,589.11,1058.05,564.37,1058.87Zm156,87.85c72.36-9.68,128.85,32.73,137.58,114.72,62.93-55,139.27-76.35,199.21-17.67,41.18-48.84,112.31-64.3,200.06-1.22,1-83.08,53.87-130.07,126.11-127.2-1.83-66.31,52.85-101.33,123.13-110-50.48-51.15-45.22-108.17-9.1-145.07-39.15-32.78-50.34-89.66-4.72-145.61-91-2.5-129.7-47.06-132.94-97.81-72.46,9.69-128.88-32.93-137.58-114.73-63.55,55.59-139.84,75.93-199.21,17.67-41.1,48.73-112.3,64.4-200.06,1.22-1,82.58-53.27,130.09-126.11,127.2,1.86,67.22-54.8,101.81-123.14,109.9,50.48,51.25,45,108.2,9,145.09,39,32.69,50.33,89.57,4.73,145.61C678.15,1051.34,716.87,1095.89,720.33,1146.72Zm-99.88-110.34C662.7,984.46,652.2,931.71,616,901.44c33.38-34.19,38.43-87-8.38-134.47,63.28-7.46,115.85-39.56,114.09-101.84,67.56,2.64,115.9-41.37,116.85-117.88,81.32,58.44,147.24,44,185.41-1.15,55,53.94,125.66,35.12,184.55-16.37,8,75.83,60.28,115.31,127.5,106.37,3,47,38.92,88.27,123.11,90.64-42.17,51.81-31.87,104.59,4.41,134.94-33.47,34.3-38.33,87,8.38,134.47-65.12,8-115.83,40.46-114.09,101.84-66.95-2.62-116,40.88-116.85,117.89-81.32-58.45-147.26-44.14-185.41,1.14-55.57-54.26-126.28-34.52-184.55,16.37-8.06-75.92-60.47-115.18-127.48-106.27C740.67,1080.05,704.75,1038.84,620.45,1036.38Zm99.88,110.34c72.36-9.68,128.85,32.73,137.58,114.72,62.93-55,139.27-76.35,199.21-17.67,41.18-48.84,112.31-64.3,200.06-1.22,1-83.08,53.87-130.07,126.11-127.2-1.83-66.31,52.85-101.33,123.13-110-50.48-51.15-45.22-108.17-9.1-145.07-39.15-32.78-50.34-89.66-4.72-145.61-91-2.5-129.7-47.06-132.94-97.81-72.46,9.69-128.88-32.93-137.58-114.73-63.55,55.59-139.84,75.93-199.21,17.67-41.1,48.73-112.3,64.4-200.06,1.22-1,82.58-53.27,130.09-126.11,127.2,1.86,67.22-54.8,101.81-123.14,109.9,50.48,51.25,45,108.2,9,145.09,39,32.69,50.33,89.57,4.73,145.61C678.15,1051.34,716.87,1095.89,720.33,1146.72Zm-99.88-110.34C662.7,984.46,652.2,931.71,616,901.44c33.38-34.19,38.43-87-8.38-134.47,63.28-7.46,115.85-39.56,114.09-101.84,67.56,2.64,115.9-41.37,116.85-117.88,81.32,58.44,147.24,44,185.41-1.15,55,53.94,125.66,35.12,184.55-16.37,8,75.83,60.28,115.31,127.5,106.37,3,47,38.92,88.27,123.11,90.64-42.17,51.81-31.87,104.59,4.41,134.94-33.47,34.3-38.33,87,8.38,134.47-65.12,8-115.83,40.46-114.09,101.84-66.95-2.62-116,40.88-116.85,117.89-81.32-58.45-147.26-44.14-185.41,1.14-55.57-54.26-126.28-34.52-184.55,16.37-8.06-75.92-60.47-115.18-127.48-106.27C740.67,1080.05,704.75,1038.84,620.45,1036.38Zm99.88,110.34c72.36-9.68,128.85,32.73,137.58,114.72,62.93-55,139.27-76.35,199.21-17.67,41.18-48.84,112.31-64.3,200.06-1.22,1-83.08,53.87-130.07,126.11-127.2-1.83-66.31,52.85-101.33,123.13-110-50.48-51.15-45.22-108.17-9.1-145.07-39.15-32.78-50.34-89.66-4.72-145.61-91-2.5-129.7-47.06-132.94-97.81-72.46,9.69-128.88-32.93-137.58-114.73-63.55,55.59-139.84,75.93-199.21,17.67-41.1,48.73-112.3,64.4-200.06,1.22-1,82.58-53.27,130.09-126.11,127.2,1.86,67.22-54.8,101.81-123.14,109.9,50.48,51.25,45,108.2,9,145.09,39,32.69,50.33,89.57,4.73,145.61C678.15,1051.34,716.87,1095.89,720.33,1146.72Zm-99.88-110.34C662.7,984.46,652.2,931.71,616,901.44c33.38-34.19,38.43-87-8.38-134.47,63.28-7.46,115.85-39.56,114.09-101.84,67.56,2.64,115.9-41.37,116.85-117.88,81.32,58.44,147.24,44,185.41-1.15,55,53.94,125.66,35.12,184.55-16.37,8,75.83,60.28,115.31,127.5,106.37,3,47,38.92,88.27,123.11,90.64-42.17,51.81-31.87,104.59,4.41,134.94-33.47,34.3-38.33,87,8.38,134.47-65.12,8-115.83,40.46-114.09,101.84-66.95-2.62-116,40.88-116.85,117.89-81.32-58.45-147.26-44.14-185.41,1.14-55.57-54.26-126.28-34.52-184.55,16.37-8.06-75.92-60.47-115.18-127.48-106.27C740.67,1080.05,704.75,1038.84,620.45,1036.38Zm99.88,110.34c72.36-9.68,128.85,32.73,137.58,114.72,62.93-55,139.27-76.35,199.21-17.67,41.18-48.84,112.31-64.3,200.06-1.22,1-83.08,53.87-130.07,126.11-127.2-1.83-66.31,52.85-101.33,123.13-110-50.48-51.15-45.22-108.17-9.1-145.07-39.15-32.78-50.34-89.66-4.72-145.61-91-2.5-129.7-47.06-132.94-97.81-72.46,9.69-128.88-32.93-137.58-114.73-63.55,55.59-139.84,75.93-199.21,17.67-41.1,48.73-112.3,64.4-200.06,1.22-1,82.58-53.27,130.09-126.11,127.2,1.86,67.22-54.8,101.81-123.14,109.9,50.48,51.25,45,108.2,9,145.09,39,32.69,50.33,89.57,4.73,145.61C678.15,1051.34,716.87,1095.89,720.33,1146.72Zm-99.88-110.34C662.7,984.46,652.2,931.71,616,901.44c33.38-34.19,38.43-87-8.38-134.47,63.28-7.46,115.85-39.56,114.09-101.84,67.56,2.64,115.9-41.37,116.85-117.88,81.32,58.44,147.24,44,185.41-1.15,55,53.94,125.66,35.12,184.55-16.37,8,75.83,60.28,115.31,127.5,106.37,3,47,38.92,88.27,123.11,90.64-42.17,51.81-31.87,104.59,4.41,134.94-33.47,34.3-38.33,87,8.38,134.47-65.12,8-115.83,40.46-114.09,101.84-66.95-2.62-116,40.88-116.85,117.89-81.32-58.45-147.26-44.14-185.41,1.14-55.57-54.26-126.28-34.52-184.55,16.37-8.06-75.92-60.47-115.18-127.48-106.27C740.67,1080.05,704.75,1038.84,620.45,1036.38Zm99.88,110.34c72.36-9.68,128.85,32.73,137.58,114.72,62.93-55,139.27-76.35,199.21-17.67,41.18-48.84,112.31-64.3,200.06-1.22,1-83.08,53.87-130.07,126.11-127.2-1.83-66.31,52.85-101.33,123.13-110-50.48-51.15-45.22-108.17-9.1-145.07-39.15-32.78-50.34-89.66-4.72-145.61-91-2.5-129.7-47.06-132.94-97.81-72.46,9.69-128.88-32.93-137.58-114.73-63.55,55.59-139.84,75.93-199.21,17.67-41.1,48.73-112.3,64.4-200.06,1.22-1,82.58-53.27,130.09-126.11,127.2,1.86,67.22-54.8,101.81-123.14,109.9,50.48,51.25,45,108.2,9,145.09,39,32.69,50.33,89.57,4.73,145.61C678.15,1051.34,716.87,1095.89,720.33,1146.72Zm-99.88-110.34C662.7,984.46,652.2,931.71,616,901.44c33.38-34.19,38.43-87-8.38-134.47,63.28-7.46,115.85-39.56,114.09-101.84,67.56,2.64,115.9-41.37,116.85-117.88,81.32,58.44,147.24,44,185.41-1.15,55,53.94,125.66,35.12,184.55-16.37,8,75.83,60.28,115.31,127.5,106.37,3,47,38.92,88.27,123.11,90.64-42.17,51.81-31.87,104.59,4.41,134.94-33.47,34.3-38.33,87,8.38,134.47-65.12,8-115.83,40.46-114.09,101.84-66.95-2.62-116,40.88-116.85,117.89-81.32-58.45-147.26-44.14-185.41,1.14-55.57-54.26-126.28-34.52-184.55,16.37-8.06-75.92-60.47-115.18-127.48-106.27C740.67,1080.05,704.75,1038.84,620.45,1036.38Zm99.88,110.34c72.36-9.68,128.85,32.73,137.58,114.72,62.93-55,139.27-76.35,199.21-17.67,41.18-48.84,112.31-64.3,200.06-1.22,1-83.08,53.87-130.07,126.11-127.2-1.83-66.31,52.85-101.33,123.13-110-50.48-51.15-45.22-108.17-9.1-145.07-39.15-32.78-50.34-89.66-4.72-145.61-91-2.5-129.7-47.06-132.94-97.81-72.46,9.69-128.88-32.93-137.58-114.73-63.55,55.59-139.84,75.93-199.21,17.67-41.1,48.73-112.3,64.4-200.06,1.22-1,82.58-53.27,130.09-126.11,127.2,1.86,67.22-54.8,101.81-123.14,109.9,50.48,51.25,45,108.2,9,145.09,39,32.69,50.33,89.57,4.73,145.61C678.15,1051.34,716.87,1095.89,720.33,1146.72Zm-99.88-110.34C662.7,984.46,652.2,931.71,616,901.44c33.38-34.19,38.43-87-8.38-134.47,63.28-7.46,115.85-39.56,114.09-101.84,67.56,2.64,115.9-41.37,116.85-117.88,81.32,58.44,147.24,44,185.41-1.15,55,53.94,125.66,35.12,184.55-16.37,8,75.83,60.28,115.31,127.5,106.37,3,47,38.92,88.27,123.11,90.64-42.17,51.81-31.87,104.59,4.41,134.94-33.47,34.3-38.33,87,8.38,134.47-65.12,8-115.83,40.46-114.09,101.84-66.95-2.62-116,40.88-116.85,117.89-81.32-58.45-147.26-44.14-185.41,1.14-55.57-54.26-126.28-34.52-184.55,16.37-8.06-75.92-60.47-115.18-127.48-106.27C740.67,1080.05,704.75,1038.84,620.45,1036.38Zm99.88,110.34c72.36-9.68,128.85,32.73,137.58,114.72,62.93-55,139.27-76.35,199.21-17.67,41.18-48.84,112.31-64.3,200.06-1.22,1-83.08,53.87-130.07,126.11-127.2-1.83-66.31,52.85-101.33,123.13-110-50.48-51.15-45.22-108.17-9.1-145.07-39.15-32.78-50.34-89.66-4.72-145.61-91-2.5-129.7-47.06-132.94-97.81-72.46,9.69-128.88-32.93-137.58-114.73-63.55,55.59-139.84,75.93-199.21,17.67-41.1,48.73-112.3,64.4-200.06,1.22-1,82.58-53.27,130.09-126.11,127.2,1.86,67.22-54.8,101.81-123.14,109.9,50.48,51.25,45,108.2,9,145.09,39,32.69,50.33,89.57,4.73,145.61C678.15,1051.34,716.87,1095.89,720.33,1146.72Zm-99.88-110.34C662.7,984.46,652.2,931.71,616,901.44c33.38-34.19,38.43-87-8.38-134.47,63.28-7.46,115.85-39.56,114.09-101.84,67.56,2.64,115.9-41.37,116.85-117.88,81.32,58.44,147.24,44,185.41-1.15,55,53.94,125.66,35.12,184.55-16.37,8,75.83,60.28,115.31,127.5,106.37,3,47,38.92,88.27,123.11,90.64-42.17,51.81-31.87,104.59,4.41,134.94-33.47,34.3-38.33,87,8.38,134.47-65.12,8-115.83,40.46-114.09,101.84-66.95-2.62-116,40.88-116.85,117.89-81.32-58.45-147.26-44.14-185.41,1.14-55.57-54.26-126.28-34.52-184.55,16.37-8.06-75.92-60.47-115.18-127.48-106.27C740.67,1080.05,704.75,1038.84,620.45,1036.38Zm99.88,110.34c72.36-9.68,128.85,32.73,137.58,114.72,62.93-55,139.27-76.35,199.21-17.67,41.18-48.84,112.31-64.3,200.06-1.22,1-83.08,53.87-130.07,126.11-127.2-1.83-66.31,52.85-101.33,123.13-110-50.48-51.15-45.22-108.17-9.1-145.07-39.15-32.78-50.34-89.66-4.72-145.61-91-2.5-129.7-47.06-132.94-97.81-72.46,9.69-128.88-32.93-137.58-114.73-63.55,55.59-139.84,75.93-199.21,17.67-41.1,48.73-112.3,64.4-200.06,1.22-1,82.58-53.27,130.09-126.11,127.2,1.86,67.22-54.8,101.81-123.14,109.9,50.48,51.25,45,108.2,9,145.09,39,32.69,50.33,89.57,4.73,145.61C678.15,1051.34,716.87,1095.89,720.33,1146.72Zm-99.88-110.34C662.7,984.46,652.2,931.71,616,901.44c33.38-34.19,38.43-87-8.38-134.47,63.28-7.46,115.85-39.56,114.09-101.84,67.56,2.64,115.9-41.37,116.85-117.88,81.32,58.44,147.24,44,185.41-1.15,55,53.94,125.66,35.12,184.55-16.37,8,75.83,60.28,115.31,127.5,106.37,3,47,38.92,88.27,123.11,90.64-42.17,51.81-31.87,104.59,4.41,134.94-33.47,34.3-38.33,87,8.38,134.47-65.12,8-115.83,40.46-114.09,101.84-66.95-2.62-116,40.88-116.85,117.89-81.32-58.45-147.26-44.14-185.41,1.14-55.57-54.26-126.28-34.52-184.55,16.37-8.06-75.92-60.47-115.18-127.48-106.27C740.67,1080.05,704.75,1038.84,620.45,1036.38Zm-33.06,12.52c90.88,2.52,129.6,47.08,132.84,97.83,72.36-9.67,128.85,32.74,137.58,114.73,62.93-55,139.27-76.35,199.21-17.67,41.18-48.85,112.31-64.3,200.06-1.22,1-83.09,53.87-130.07,126.11-127.2-1.83-66.31,52.85-101.33,123.13-110-50.48-51.15-45.22-108.18-9.1-145.08-39.15-32.77-50.34-89.66-4.72-145.6-91-2.51-129.7-47.06-132.94-97.82-72.46,9.69-128.88-32.93-137.58-114.72-63.55,55.59-139.84,75.92-199.21,17.67-41.1,48.73-112.3,64.39-200.06,1.22-1,82.57-53.26,130.08-126.11,127.2,1.86,67.21-54.8,101.81-123.14,109.9,50.49,51.25,45,108.2,9,145.09C621.59,935.9,632.88,992.78,587.39,1048.9Zm33.06-12.52C662.7,984.46,652.2,931.71,616,901.44c33.38-34.19,38.43-87-8.38-134.47,63.28-7.46,115.85-39.56,114.09-101.84,67.56,2.64,115.9-41.37,116.85-117.88,81.32,58.44,147.24,44,185.41-1.15,55,53.94,125.66,35.12,184.55-16.37,8,75.83,60.28,115.31,127.5,106.37,3,47,38.92,88.27,123.11,90.64-42.17,51.81-31.87,104.59,4.41,134.94-33.47,34.3-38.33,87,8.38,134.47-65.12,8-115.83,40.46-114.09,101.84-66.95-2.62-116,40.88-116.85,117.89-81.32-58.45-147.26-44.14-185.41,1.14-55.57-54.26-126.28-34.52-184.55,16.37-8.06-75.92-60.47-115.18-127.48-106.27C740.67,1080.05,704.75,1038.84,620.45,1036.38Zm-84.72,34.79c36.75-3.66,66.56-2.89,90.54,2.26,59.12,12.84,80.82,54.27,72.09,98.36C783,1147.63,846.71,1193.24,838.07,1309c42.37-46.89,82.93-73.32,120.64-78.73s73.67,9.33,99.69,46.32c22-38.63,51.94-51.3,75.2-54.64,43.16-6.19,92.63,16.11,147.29,66.16-19.61-114.88,39.47-165.69,126-149.81-4.63-15.4-5.12-30.08-1.69-44.21,14.87-61.13,91.75-71.66,154.22-71.43-94.25-62.65-83.11-128.6-28.58-164-57.35-29.35-75.48-94.44,12.94-166.12-59,5.93-132.88,4-157.6-50-6.94-15.27-8.56-32.21-4.94-50.61-84.82,24.19-148.29-21.76-139.7-137.25-71.23,78.81-160.53,117.59-220.33,32.42-22,38.62-52,51.29-75.21,54.63-43.16,6.19-92.62-16.11-147.28-66.16,19.79,116.17-40.61,165.55-126,149.82,14.88,49.48-10.52,99.9-95.94,112.16C503.91,748,508.48,726.34,550.9,764.3c56.79,50.75,49.14,107.31-2.15,140.63C609.37,935.94,621.05,1001.85,535.73,1071.17Zm28.64-12.3c61.36-60.32,51.28-122.12,2.53-154.93,42.77-35.63,49.81-94.32-9.3-147.17-11.47-10.27-12.69-4.64,20.57-9.41,85.73-12.3,114.69-61.11,107.46-110.08,77.25,8.21,134-39.73,126.29-137.22,73.41,59.58,158,77.85,210.13,4.2,60.07,69.47,142.13,41.44,208.71-24,1.4,95.67,60.67,140.51,138.81,124.65a87.1,87.1,0,0,0,7.57,41.54c23.11,50.54,82.77,60.06,138.24,58-62.94,62-49.37,123.46-2.51,155C1469,896,1461.81,957.81,1530,1013.29c-59.11,3.43-120.4,21.21-134.34,78.27a90.44,90.44,0,0,0-1.51,34.56c-78.79-8.39-133.92,41.14-126.29,137.23-73-59.23-157.71-78.2-210.13-4.2-45-52.15-120.41-62.64-208.71,24-1.41-96.48-61.35-140.31-138.81-124.65,2.37-43.38-24.16-82.51-81.71-95C610.23,1059.57,589.11,1058.05,564.37,1058.87Zm156,87.85c72.36-9.68,128.85,32.73,137.58,114.72,62.93-55,139.27-76.35,199.21-17.67,41.18-48.84,112.31-64.3,200.06-1.22,1-83.08,53.87-130.07,126.11-127.2-1.83-66.31,52.85-101.33,123.13-110-50.48-51.15-45.22-108.17-9.1-145.07-39.15-32.78-50.34-89.66-4.72-145.61-91-2.5-129.7-47.06-132.94-97.81-72.46,9.69-128.88-32.93-137.58-114.73-63.55,55.59-139.84,75.93-199.21,17.67-41.1,48.73-112.3,64.4-200.06,1.22-1,82.58-53.27,130.09-126.11,127.2,1.86,67.22-54.8,101.81-123.14,109.9,50.48,51.25,45,108.2,9,145.09,39,32.69,50.33,89.57,4.73,145.61C678.15,1051.34,716.87,1095.89,720.33,1146.72Zm-99.88-110.34C662.7,984.46,652.2,931.71,616,901.44c33.38-34.19,38.43-87-8.38-134.47,63.28-7.46,115.85-39.56,114.09-101.84,67.56,2.64,115.9-41.37,116.85-117.88,81.32,58.44,147.24,44,185.41-1.15,55,53.94,125.66,35.12,184.55-16.37,8,75.83,60.28,115.31,127.5,106.37,3,47,38.92,88.27,123.11,90.64-42.17,51.81-31.87,104.59,4.41,134.94-33.47,34.3-38.33,87,8.38,134.47-65.12,8-115.83,40.46-114.09,101.84-66.95-2.62-116,40.88-116.85,117.89-81.32-58.45-147.26-44.14-185.41,1.14-55.57-54.26-126.28-34.52-184.55,16.37-8.06-75.92-60.47-115.18-127.48-106.27C740.67,1080.05,704.75,1038.84,620.45,1036.38Zm99.88,110.34c72.36-9.68,128.85,32.73,137.58,114.72,62.93-55,139.27-76.35,199.21-17.67,41.18-48.84,112.31-64.3,200.06-1.22,1-83.08,53.87-130.07,126.11-127.2-1.83-66.31,52.85-101.33,123.13-110-50.48-51.15-45.22-108.17-9.1-145.07-39.15-32.78-50.34-89.66-4.72-145.61-91-2.5-129.7-47.06-132.94-97.81-72.46,9.69-128.88-32.93-137.58-114.73-63.55,55.59-139.84,75.93-199.21,17.67-41.1,48.73-112.3,64.4-200.06,1.22-1,82.58-53.27,130.09-126.11,127.2,1.86,67.22-54.8,101.81-123.14,109.9,50.48,51.25,45,108.2,9,145.09,39,32.69,50.33,89.57,4.73,145.61C678.15,1051.34,716.87,1095.89,720.33,1146.72Zm-99.88-110.34C662.7,984.46,652.2,931.71,616,901.44c33.38-34.19,38.43-87-8.38-134.47,63.28-7.46,115.85-39.56,114.09-101.84,67.56,2.64,115.9-41.37,116.85-117.88,81.32,58.44,147.24,44,185.41-1.15,55,53.94,125.66,35.12,184.55-16.37,8,75.83,60.28,115.31,127.5,106.37,3,47,38.92,88.27,123.11,90.64-42.17,51.81-31.87,104.59,4.41,134.94-33.47,34.3-38.33,87,8.38,134.47-65.12,8-115.83,40.46-114.09,101.84-66.95-2.62-116,40.88-116.85,117.89-81.32-58.45-147.26-44.14-185.41,1.14-55.57-54.26-126.28-34.52-184.55,16.37-8.06-75.92-60.47-115.18-127.48-106.27C740.67,1080.05,704.75,1038.84,620.45,1036.38Zm99.88,110.34c72.36-9.68,128.85,32.73,137.58,114.72,62.93-55,139.27-76.35,199.21-17.67,41.18-48.84,112.31-64.3,200.06-1.22,1-83.08,53.87-130.07,126.11-127.2-1.83-66.31,52.85-101.33,123.13-110-50.48-51.15-45.22-108.17-9.1-145.07-39.15-32.78-50.34-89.66-4.72-145.61-91-2.5-129.7-47.06-132.94-97.81-72.46,9.69-128.88-32.93-137.58-114.73-63.55,55.59-139.84,75.93-199.21,17.67-41.1,48.73-112.3,64.4-200.06,1.22-1,82.58-53.27,130.09-126.11,127.2,1.86,67.22-54.8,101.81-123.14,109.9,50.48,51.25,45,108.2,9,145.09,39,32.69,50.33,89.57,4.73,145.61C678.15,1051.34,716.87,1095.89,720.33,1146.72Zm-99.88-110.34C662.7,984.46,652.2,931.71,616,901.44c33.38-34.19,38.43-87-8.38-134.47,63.28-7.46,115.85-39.56,114.09-101.84,67.56,2.64,115.9-41.37,116.85-117.88,81.32,58.44,147.24,44,185.41-1.15,55,53.94,125.66,35.12,184.55-16.37,8,75.83,60.28,115.31,127.5,106.37,3,47,38.92,88.27,123.11,90.64-42.17,51.81-31.87,104.59,4.41,134.94-33.47,34.3-38.33,87,8.38,134.47-65.12,8-115.83,40.46-114.09,101.84-66.95-2.62-116,40.88-116.85,117.89-81.32-58.45-147.26-44.14-185.41,1.14-55.57-54.26-126.28-34.52-184.55,16.37-8.06-75.92-60.47-115.18-127.48-106.27C740.67,1080.05,704.75,1038.84,620.45,1036.38Zm99.88,110.34c72.36-9.68,128.85,32.73,137.58,114.72,62.93-55,139.27-76.35,199.21-17.67,41.18-48.84,112.31-64.3,200.06-1.22,1-83.08,53.87-130.07,126.11-127.2-1.83-66.31,52.85-101.33,123.13-110-50.48-51.15-45.22-108.17-9.1-145.07-39.15-32.78-50.34-89.66-4.72-145.61-91-2.5-129.7-47.06-132.94-97.81-72.46,9.69-128.88-32.93-137.58-114.73-63.55,55.59-139.84,75.93-199.21,17.67-41.1,48.73-112.3,64.4-200.06,1.22-1,82.58-53.27,130.09-126.11,127.2,1.86,67.22-54.8,101.81-123.14,109.9,50.48,51.25,45,108.2,9,145.09,39,32.69,50.33,89.57,4.73,145.61C678.15,1051.34,716.87,1095.89,720.33,1146.72Zm-99.88-110.34C662.7,984.46,652.2,931.71,616,901.44c33.38-34.19,38.43-87-8.38-134.47,63.28-7.46,115.85-39.56,114.09-101.84,67.56,2.64,115.9-41.37,116.85-117.88,81.32,58.44,147.24,44,185.41-1.15,55,53.94,125.66,35.12,184.55-16.37,8,75.83,60.28,115.31,127.5,106.37,3,47,38.92,88.27,123.11,90.64-42.17,51.81-31.87,104.59,4.41,134.94-33.47,34.3-38.33,87,8.38,134.47-65.12,8-115.83,40.46-114.09,101.84-66.95-2.62-116,40.88-116.85,117.89-81.32-58.45-147.26-44.14-185.41,1.14-55.57-54.26-126.28-34.52-184.55,16.37-8.06-75.92-60.47-115.18-127.48-106.27C740.67,1080.05,704.75,1038.84,620.45,1036.38Zm99.88,110.34c72.36-9.68,128.85,32.73,137.58,114.72,62.93-55,139.27-76.35,199.21-17.67,41.18-48.84,112.31-64.3,200.06-1.22,1-83.08,53.87-130.07,126.11-127.2-1.83-66.31,52.85-101.33,123.13-110-50.48-51.15-45.22-108.17-9.1-145.07-39.15-32.78-50.34-89.66-4.72-145.61-91-2.5-129.7-47.06-132.94-97.81-72.46,9.69-128.88-32.93-137.58-114.73-63.55,55.59-139.84,75.93-199.21,17.67-41.1,48.73-112.3,64.4-200.06,1.22-1,82.58-53.27,130.09-126.11,127.2,1.86,67.22-54.8,101.81-123.14,109.9,50.48,51.25,45,108.2,9,145.09,39,32.69,50.33,89.57,4.73,145.61C678.15,1051.34,716.87,1095.89,720.33,1146.72Zm-99.88-110.34C662.7,984.46,652.2,931.71,616,901.44c33.38-34.19,38.43-87-8.38-134.47,63.28-7.46,115.85-39.56,114.09-101.84,67.56,2.64,115.9-41.37,116.85-117.88,81.32,58.44,147.24,44,185.41-1.15,55,53.94,125.66,35.12,184.55-16.37,8,75.83,60.28,115.31,127.5,106.37,3,47,38.92,88.27,123.11,90.64-42.17,51.81-31.87,104.59,4.41,134.94-33.47,34.3-38.33,87,8.38,134.47-65.12,8-115.83,40.46-114.09,101.84-66.95-2.62-116,40.88-116.85,117.89-81.32-58.45-147.26-44.14-185.41,1.14-55.57-54.26-126.28-34.52-184.55,16.37-8.06-75.92-60.47-115.18-127.48-106.27C740.67,1080.05,704.75,1038.84,620.45,1036.38Zm99.88,110.34c72.36-9.68,128.85,32.73,137.58,114.72,62.93-55,139.27-76.35,199.21-17.67,41.18-48.84,112.31-64.3,200.06-1.22,1-83.08,53.87-130.07,126.11-127.2-1.83-66.31,52.85-101.33,123.13-110-50.48-51.15-45.22-108.17-9.1-145.07-39.15-32.78-50.34-89.66-4.72-145.61-91-2.5-129.7-47.06-132.94-97.81-72.46,9.69-128.88-32.93-137.58-114.73-63.55,55.59-139.84,75.93-199.21,17.67-41.1,48.73-112.3,64.4-200.06,1.22-1,82.58-53.27,130.09-126.11,127.2,1.86,67.22-54.8,101.81-123.14,109.9,50.48,51.25,45,108.2,9,145.09,39,32.69,50.33,89.57,4.73,145.61C678.15,1051.34,716.87,1095.89,720.33,1146.72Zm-99.88-110.34C662.7,984.46,652.2,931.71,616,901.44c33.38-34.19,38.43-87-8.38-134.47,63.28-7.46,115.85-39.56,114.09-101.84,67.56,2.64,115.9-41.37,116.85-117.88,81.32,58.44,147.24,44,185.41-1.15,55,53.94,125.66,35.12,184.55-16.37,8,75.83,60.28,115.31,127.5,106.37,3,47,38.92,88.27,123.11,90.64-42.17,51.81-31.87,104.59,4.41,134.94-33.47,34.3-38.33,87,8.38,134.47-65.12,8-115.83,40.46-114.09,101.84-66.95-2.62-116,40.88-116.85,117.89-81.32-58.45-147.26-44.14-185.41,1.14-55.57-54.26-126.28-34.52-184.55,16.37-8.06-75.92-60.47-115.18-127.48-106.27C740.67,1080.05,704.75,1038.84,620.45,1036.38Zm99.88,110.34c72.36-9.68,128.85,32.73,137.58,114.72,62.93-55,139.27-76.35,199.21-17.67,41.18-48.84,112.31-64.3,200.06-1.22,1-83.08,53.87-130.07,126.11-127.2-1.83-66.31,52.85-101.33,123.13-110-50.48-51.15-45.22-108.17-9.1-145.07-39.15-32.78-50.34-89.66-4.72-145.61-91-2.5-129.7-47.06-132.94-97.81-72.46,9.69-128.88-32.93-137.58-114.73-63.55,55.59-139.84,75.93-199.21,17.67-41.1,48.73-112.3,64.4-200.06,1.22-1,82.58-53.27,130.09-126.11,127.2,1.86,67.22-54.8,101.81-123.14,109.9,50.48,51.25,45,108.2,9,145.09,39,32.69,50.33,89.57,4.73,145.61C678.15,1051.34,716.87,1095.89,720.33,1146.72Zm-99.88-110.34C662.7,984.46,652.2,931.71,616,901.44c33.38-34.19,38.43-87-8.38-134.47,63.28-7.46,115.85-39.56,114.09-101.84,67.56,2.64,115.9-41.37,116.85-117.88,81.32,58.44,147.24,44,185.41-1.15,55,53.94,125.66,35.12,184.55-16.37,8,75.83,60.28,115.31,127.5,106.37,3,47,38.92,88.27,123.11,90.64-42.17,51.81-31.87,104.59,4.41,134.94-33.47,34.3-38.33,87,8.38,134.47-65.12,8-115.83,40.46-114.09,101.84-66.95-2.62-116,40.88-116.85,117.89-81.32-58.45-147.26-44.14-185.41,1.14-55.57-54.26-126.28-34.52-184.55,16.37-8.06-75.92-60.47-115.18-127.48-106.27C740.67,1080.05,704.75,1038.84,620.45,1036.38Zm-33.06,12.52c90.88,2.52,129.6,47.08,132.84,97.83,72.36-9.67,128.85,32.74,137.58,114.73,62.93-55,139.27-76.35,199.21-17.67,41.18-48.85,112.31-64.3,200.06-1.22,1-83.09,53.87-130.07,126.11-127.2-1.83-66.31,52.85-101.33,123.13-110-50.48-51.15-45.22-108.18-9.1-145.08-39.15-32.77-50.34-89.66-4.72-145.6-91-2.51-129.7-47.06-132.94-97.82-72.46,9.69-128.88-32.93-137.58-114.72-63.55,55.59-139.84,75.92-199.21,17.67-41.1,48.73-112.3,64.39-200.06,1.22-1,82.57-53.26,130.08-126.11,127.2,1.86,67.21-54.8,101.81-123.14,109.9,50.49,51.25,45,108.2,9,145.09C621.59,935.9,632.88,992.78,587.39,1048.9Zm33.06-12.52C662.7,984.46,652.2,931.71,616,901.44c33.38-34.19,38.43-87-8.38-134.47,63.28-7.46,115.85-39.56,114.09-101.84,67.56,2.64,115.9-41.37,116.85-117.88,81.32,58.44,147.24,44,185.41-1.15,55,53.94,125.66,35.12,184.55-16.37,8,75.83,60.28,115.31,127.5,106.37,3,47,38.92,88.27,123.11,90.64-42.17,51.81-31.87,104.59,4.41,134.94-33.47,34.3-38.33,87,8.38,134.47-65.12,8-115.83,40.46-114.09,101.84-66.95-2.62-116,40.88-116.85,117.89-81.32-58.45-147.26-44.14-185.41,1.14-55.57-54.26-126.28-34.52-184.55,16.37-8.06-75.92-60.47-115.18-127.48-106.27C740.67,1080.05,704.75,1038.84,620.45,1036.38Zm-84.72,34.79c36.75-3.66,66.56-2.89,90.54,2.26,59.12,12.84,80.82,54.27,72.09,98.36C783,1147.63,846.71,1193.24,838.07,1309c42.37-46.89,82.93-73.32,120.64-78.73s73.67,9.33,99.69,46.32c22-38.63,51.94-51.3,75.2-54.64,43.16-6.19,92.63,16.11,147.29,66.16-19.61-114.88,39.47-165.69,126-149.81-4.63-15.4-5.12-30.08-1.69-44.21,14.87-61.13,91.75-71.66,154.22-71.43-94.25-62.65-83.11-128.6-28.58-164-57.35-29.35-75.48-94.44,12.94-166.12-59,5.93-132.88,4-157.6-50-6.94-15.27-8.56-32.21-4.94-50.61-84.82,24.19-148.29-21.76-139.7-137.25-71.23,78.81-160.53,117.59-220.33,32.42-22,38.62-52,51.29-75.21,54.63-43.16,6.19-92.62-16.11-147.28-66.16,19.79,116.17-40.61,165.55-126,149.82,14.88,49.48-10.52,99.9-95.94,112.16C503.91,748,508.48,726.34,550.9,764.3c56.79,50.75,49.14,107.31-2.15,140.63C609.37,935.94,621.05,1001.85,535.73,1071.17Zm28.64-12.3c61.36-60.32,51.28-122.12,2.53-154.93,42.77-35.63,49.81-94.32-9.3-147.17-11.47-10.27-12.69-4.64,20.57-9.41,85.73-12.3,114.69-61.11,107.46-110.08,77.25,8.21,134-39.73,126.29-137.22,73.41,59.58,158,77.85,210.13,4.2,60.07,69.47,142.13,41.44,208.71-24,1.4,95.67,60.67,140.51,138.81,124.65a87.1,87.1,0,0,0,7.57,41.54c23.11,50.54,82.77,60.06,138.24,58-62.94,62-49.37,123.46-2.51,155C1469,896,1461.81,957.81,1530,1013.29c-59.11,3.43-120.4,21.21-134.34,78.27a90.44,90.44,0,0,0-1.51,34.56c-78.79-8.39-133.92,41.14-126.29,137.23-73-59.23-157.71-78.2-210.13-4.2-45-52.15-120.41-62.64-208.71,24-1.41-96.48-61.35-140.31-138.81-124.65,2.37-43.38-24.16-82.51-81.71-95C610.23,1059.57,589.11,1058.05,564.37,1058.87Zm156,87.85c72.36-9.68,128.85,32.73,137.58,114.72,62.93-55,139.27-76.35,199.21-17.67,41.18-48.84,112.31-64.3,200.06-1.22,1-83.08,53.87-130.07,126.11-127.2-1.83-66.31,52.85-101.33,123.13-110-50.48-51.15-45.22-108.17-9.1-145.07-39.15-32.78-50.34-89.66-4.72-145.61-91-2.5-129.7-47.06-132.94-97.81-72.46,9.69-128.88-32.93-137.58-114.73-63.55,55.59-139.84,75.93-199.21,17.67-41.1,48.73-112.3,64.4-200.06,1.22-1,82.58-53.27,130.09-126.11,127.2,1.86,67.22-54.8,101.81-123.14,109.9,50.48,51.25,45,108.2,9,145.09,39,32.69,50.33,89.57,4.73,145.61C678.15,1051.34,716.87,1095.89,720.33,1146.72Zm-99.88-110.34C662.7,984.46,652.2,931.71,616,901.44c33.38-34.19,38.43-87-8.38-134.47,63.28-7.46,115.85-39.56,114.09-101.84,67.56,2.64,115.9-41.37,116.85-117.88,81.32,58.44,147.24,44,185.41-1.15,55,53.94,125.66,35.12,184.55-16.37,8,75.83,60.28,115.31,127.5,106.37,3,47,38.92,88.27,123.11,90.64-42.17,51.81-31.87,104.59,4.41,134.94-33.47,34.3-38.33,87,8.38,134.47-65.12,8-115.83,40.46-114.09,101.84-66.95-2.62-116,40.88-116.85,117.89-81.32-58.45-147.26-44.14-185.41,1.14-55.57-54.26-126.28-34.52-184.55,16.37-8.06-75.92-60.47-115.18-127.48-106.27C740.67,1080.05,704.75,1038.84,620.45,1036.38Zm99.88,110.34c72.36-9.68,128.85,32.73,137.58,114.72,62.93-55,139.27-76.35,199.21-17.67,41.18-48.84,112.31-64.3,200.06-1.22,1-83.08,53.87-130.07,126.11-127.2-1.83-66.31,52.85-101.33,123.13-110-50.48-51.15-45.22-108.17-9.1-145.07-39.15-32.78-50.34-89.66-4.72-145.61-91-2.5-129.7-47.06-132.94-97.81-72.46,9.69-128.88-32.93-137.58-114.73-63.55,55.59-139.84,75.93-199.21,17.67-41.1,48.73-112.3,64.4-200.06,1.22-1,82.58-53.27,130.09-126.11,127.2,1.86,67.22-54.8,101.81-123.14,109.9,50.48,51.25,45,108.2,9,145.09,39,32.69,50.33,89.57,4.73,145.61C678.15,1051.34,716.87,1095.89,720.33,1146.72Zm-99.88-110.34C662.7,984.46,652.2,931.71,616,901.44c33.38-34.19,38.43-87-8.38-134.47,63.28-7.46,115.85-39.56,114.09-101.84,67.56,2.64,115.9-41.37,116.85-117.88,81.32,58.44,147.24,44,185.41-1.15,55,53.94,125.66,35.12,184.55-16.37,8,75.83,60.28,115.31,127.5,106.37,3,47,38.92,88.27,123.11,90.64-42.17,51.81-31.87,104.59,4.41,134.94-33.47,34.3-38.33,87,8.38,134.47-65.12,8-115.83,40.46-114.09,101.84-66.95-2.62-116,40.88-116.85,117.89-81.32-58.45-147.26-44.14-185.41,1.14-55.57-54.26-126.28-34.52-184.55,16.37-8.06-75.92-60.47-115.18-127.48-106.27C740.67,1080.05,704.75,1038.84,620.45,1036.38Zm99.88,110.34c72.36-9.68,128.85,32.73,137.58,114.72,62.93-55,139.27-76.35,199.21-17.67,41.18-48.84,112.31-64.3,200.06-1.22,1-83.08,53.87-130.07,126.11-127.2-1.83-66.31,52.85-101.33,123.13-110-50.48-51.15-45.22-108.17-9.1-145.07-39.15-32.78-50.34-89.66-4.72-145.61-91-2.5-129.7-47.06-132.94-97.81-72.46,9.69-128.88-32.93-137.58-114.73-63.55,55.59-139.84,75.93-199.21,17.67-41.1,48.73-112.3,64.4-200.06,1.22-1,82.58-53.27,130.09-126.11,127.2,1.86,67.22-54.8,101.81-123.14,109.9,50.48,51.25,45,108.2,9,145.09,39,32.69,50.33,89.57,4.73,145.61C678.15,1051.34,716.87,1095.89,720.33,1146.72Zm-99.88-110.34C662.7,984.46,652.2,931.71,616,901.44c33.38-34.19,38.43-87-8.38-134.47,63.28-7.46,115.85-39.56,114.09-101.84,67.56,2.64,115.9-41.37,116.85-117.88,81.32,58.44,147.24,44,185.41-1.15,55,53.94,125.66,35.12,184.55-16.37,8,75.83,60.28,115.31,127.5,106.37,3,47,38.92,88.27,123.11,90.64-42.17,51.81-31.87,104.59,4.41,134.94-33.47,34.3-38.33,87,8.38,134.47-65.12,8-115.83,40.46-114.09,101.84-66.95-2.62-116,40.88-116.85,117.89-81.32-58.45-147.26-44.14-185.41,1.14-55.57-54.26-126.28-34.52-184.55,16.37-8.06-75.92-60.47-115.18-127.48-106.27C740.67,1080.05,704.75,1038.84,620.45,1036.38Zm99.88,110.34c72.36-9.68,128.85,32.73,137.58,114.72,62.93-55,139.27-76.35,199.21-17.67,41.18-48.84,112.31-64.3,200.06-1.22,1-83.08,53.87-130.07,126.11-127.2-1.83-66.31,52.85-101.33,123.13-110-50.48-51.15-45.22-108.17-9.1-145.07-39.15-32.78-50.34-89.66-4.72-145.61-91-2.5-129.7-47.06-132.94-97.81-72.46,9.69-128.88-32.93-137.58-114.73-63.55,55.59-139.84,75.93-199.21,17.67-41.1,48.73-112.3,64.4-200.06,1.22-1,82.58-53.27,130.09-126.11,127.2,1.86,67.22-54.8,101.81-123.14,109.9,50.48,51.25,45,108.2,9,145.09,39,32.69,50.33,89.57,4.73,145.61C678.15,1051.34,716.87,1095.89,720.33,1146.72Zm-99.88-110.34C662.7,984.46,652.2,931.71,616,901.44c33.38-34.19,38.43-87-8.38-134.47,63.28-7.46,115.85-39.56,114.09-101.84,67.56,2.64,115.9-41.37,116.85-117.88,81.32,58.44,147.24,44,185.41-1.15,55,53.94,125.66,35.12,184.55-16.37,8,75.83,60.28,115.31,127.5,106.37,3,47,38.92,88.27,123.11,90.64-42.17,51.81-31.87,104.59,4.41,134.94-33.47,34.3-38.33,87,8.38,134.47-65.12,8-115.83,40.46-114.09,101.84-66.95-2.62-116,40.88-116.85,117.89-81.32-58.45-147.26-44.14-185.41,1.14-55.57-54.26-126.28-34.52-184.55,16.37-8.06-75.92-60.47-115.18-127.48-106.27C740.67,1080.05,704.75,1038.84,620.45,1036.38Zm99.88,110.34c72.36-9.68,128.85,32.73,137.58,114.72,62.93-55,139.27-76.35,199.21-17.67,41.18-48.84,112.31-64.3,200.06-1.22,1-83.08,53.87-130.07,126.11-127.2-1.83-66.31,52.85-101.33,123.13-110-50.48-51.15-45.22-108.17-9.1-145.07-39.15-32.78-50.34-89.66-4.72-145.61-91-2.5-129.7-47.06-132.94-97.81-72.46,9.69-128.88-32.93-137.58-114.73-63.55,55.59-139.84,75.93-199.21,17.67-41.1,48.73-112.3,64.4-200.06,1.22-1,82.58-53.27,130.09-126.11,127.2,1.86,67.22-54.8,101.81-123.14,109.9,50.48,51.25,45,108.2,9,145.09,39,32.69,50.33,89.57,4.73,145.61C678.15,1051.34,716.87,1095.89,720.33,1146.72Zm-99.88-110.34C662.7,984.46,652.2,931.71,616,901.44c33.38-34.19,38.43-87-8.38-134.47,63.28-7.46,115.85-39.56,114.09-101.84,67.56,2.64,115.9-41.37,116.85-117.88,81.32,58.44,147.24,44,185.41-1.15,55,53.94,125.66,35.12,184.55-16.37,8,75.83,60.28,115.31,127.5,106.37,3,47,38.92,88.27,123.11,90.64-42.17,51.81-31.87,104.59,4.41,134.94-33.47,34.3-38.33,87,8.38,134.47-65.12,8-115.83,40.46-114.09,101.84-66.95-2.62-116,40.88-116.85,117.89-81.32-58.45-147.26-44.14-185.41,1.14-55.57-54.26-126.28-34.52-184.55,16.37-8.06-75.92-60.47-115.18-127.48-106.27C740.67,1080.05,704.75,1038.84,620.45,1036.38Zm-33.06,12.52c90.88,2.52,129.6,47.08,132.84,97.83,72.36-9.67,128.85,32.74,137.58,114.73,62.93-55,139.27-76.35,199.21-17.67,41.18-48.85,112.31-64.3,200.06-1.22,1-83.09,53.87-130.07,126.11-127.2-1.83-66.31,52.85-101.33,123.13-110-50.48-51.15-45.22-108.18-9.1-145.08-39.15-32.77-50.34-89.66-4.72-145.6-91-2.51-129.7-47.06-132.94-97.82-72.46,9.69-128.88-32.93-137.58-114.72-63.55,55.59-139.84,75.92-199.21,17.67-41.1,48.73-112.3,64.39-200.06,1.22-1,82.57-53.26,130.08-126.11,127.2,1.86,67.21-54.8,101.81-123.14,109.9,50.49,51.25,45,108.2,9,145.09C621.59,935.9,632.88,992.78,587.39,1048.9Zm33.06-12.52C662.7,984.46,652.2,931.71,616,901.44c33.38-34.19,38.43-87-8.38-134.47,63.28-7.46,115.85-39.56,114.09-101.84,67.56,2.64,115.9-41.37,116.85-117.88,81.32,58.44,147.24,44,185.41-1.15,55,53.94,125.66,35.12,184.55-16.37,8,75.83,60.28,115.31,127.5,106.37,3,47,38.92,88.27,123.11,90.64-42.17,51.81-31.87,104.59,4.41,134.94-33.47,34.3-38.33,87,8.38,134.47-65.12,8-115.83,40.46-114.09,101.84-66.95-2.62-116,40.88-116.85,117.89-81.32-58.45-147.26-44.14-185.41,1.14-55.57-54.26-126.28-34.52-184.55,16.37-8.06-75.92-60.47-115.18-127.48-106.27C740.67,1080.05,704.75,1038.84,620.45,1036.38Zm-84.72,34.79c36.75-3.66,66.56-2.89,90.54,2.26,59.12,12.84,80.82,54.27,72.09,98.36C783,1147.63,846.71,1193.24,838.07,1309c42.37-46.89,82.93-73.32,120.64-78.73s73.67,9.33,99.69,46.32c22-38.63,51.94-51.3,75.2-54.64,43.16-6.19,92.63,16.11,147.29,66.16-19.61-114.88,39.47-165.69,126-149.81-4.63-15.4-5.12-30.08-1.69-44.21,14.87-61.13,91.75-71.66,154.22-71.43-94.25-62.65-83.11-128.6-28.58-164-57.35-29.35-75.48-94.44,12.94-166.12-59,5.93-132.88,4-157.6-50-6.94-15.27-8.56-32.21-4.94-50.61-84.82,24.19-148.29-21.76-139.7-137.25-71.23,78.81-160.53,117.59-220.33,32.42-22,38.62-52,51.29-75.21,54.63-43.16,6.19-92.62-16.11-147.28-66.16,19.79,116.17-40.61,165.55-126,149.82,14.88,49.48-10.52,99.9-95.94,112.16C503.91,748,508.48,726.34,550.9,764.3c56.79,50.75,49.14,107.31-2.15,140.63C609.37,935.94,621.05,1001.85,535.73,1071.17Zm28.64-12.3c61.36-60.32,51.28-122.12,2.53-154.93,42.77-35.63,49.81-94.32-9.3-147.17-11.47-10.27-12.69-4.64,20.57-9.41,85.73-12.3,114.69-61.11,107.46-110.08,77.25,8.21,134-39.73,126.29-137.22,73.41,59.58,158,77.85,210.13,4.2,60.07,69.47,142.13,41.44,208.71-24,1.4,95.67,60.67,140.51,138.81,124.65a87.1,87.1,0,0,0,7.57,41.54c23.11,50.54,82.77,60.06,138.24,58-62.94,62-49.37,123.46-2.51,155C1469,896,1461.81,957.81,1530,1013.29c-59.11,3.43-120.4,21.21-134.34,78.27a90.44,90.44,0,0,0-1.51,34.56c-78.79-8.39-133.92,41.14-126.29,137.23-73-59.23-157.71-78.2-210.13-4.2-45-52.15-120.41-62.64-208.71,24-1.41-96.48-61.35-140.31-138.81-124.65,2.37-43.38-24.16-82.51-81.71-95C610.23,1059.57,589.11,1058.05,564.37,1058.87Zm156,87.85c72.36-9.68,128.85,32.73,137.58,114.72,62.93-55,139.27-76.35,199.21-17.67,41.18-48.84,112.31-64.3,200.06-1.22,1-83.08,53.87-130.07,126.11-127.2-1.83-66.31,52.85-101.33,123.13-110-50.48-51.15-45.22-108.17-9.1-145.07-39.15-32.78-50.34-89.66-4.72-145.61-91-2.5-129.7-47.06-132.94-97.81-72.46,9.69-128.88-32.93-137.58-114.73-63.55,55.59-139.84,75.93-199.21,17.67-41.1,48.73-112.3,64.4-200.06,1.22-1,82.58-53.27,130.09-126.11,127.2,1.86,67.22-54.8,101.81-123.14,109.9,50.48,51.25,45,108.2,9,145.09,39,32.69,50.33,89.57,4.73,145.61C678.15,1051.34,716.87,1095.89,720.33,1146.72Zm-99.88-110.34C662.7,984.46,652.2,931.71,616,901.44c33.38-34.19,38.43-87-8.38-134.47,63.28-7.46,115.85-39.56,114.09-101.84,67.56,2.64,115.9-41.37,116.85-117.88,81.32,58.44,147.24,44,185.41-1.15,55,53.94,125.66,35.12,184.55-16.37,8,75.83,60.28,115.31,127.5,106.37,3,47,38.92,88.27,123.11,90.64-42.17,51.81-31.87,104.59,4.41,134.94-33.47,34.3-38.33,87,8.38,134.47-65.12,8-115.83,40.46-114.09,101.84-66.95-2.62-116,40.88-116.85,117.89-81.32-58.45-147.26-44.14-185.41,1.14-55.57-54.26-126.28-34.52-184.55,16.37-8.06-75.92-60.47-115.18-127.48-106.27C740.67,1080.05,704.75,1038.84,620.45,1036.38Zm99.88,110.34c72.36-9.68,128.85,32.73,137.58,114.72,62.93-55,139.27-76.35,199.21-17.67,41.18-48.84,112.31-64.3,200.06-1.22,1-83.08,53.87-130.07,126.11-127.2-1.83-66.31,52.85-101.33,123.13-110-50.48-51.15-45.22-108.17-9.1-145.07-39.15-32.78-50.34-89.66-4.72-145.61-91-2.5-129.7-47.06-132.94-97.81-72.46,9.69-128.88-32.93-137.58-114.73-63.55,55.59-139.84,75.93-199.21,17.67-41.1,48.73-112.3,64.4-200.06,1.22-1,82.58-53.27,130.09-126.11,127.2,1.86,67.22-54.8,101.81-123.14,109.9,50.48,51.25,45,108.2,9,145.09,39,32.69,50.33,89.57,4.73,145.61C678.15,1051.34,716.87,1095.89,720.33,1146.72Zm-99.88-110.34C662.7,984.46,652.2,931.71,616,901.44c33.38-34.19,38.43-87-8.38-134.47,63.28-7.46,115.85-39.56,114.09-101.84,67.56,2.64,115.9-41.37,116.85-117.88,81.32,58.44,147.24,44,185.41-1.15,55,53.94,125.66,35.12,184.55-16.37,8,75.83,60.28,115.31,127.5,106.37,3,47,38.92,88.27,123.11,90.64-42.17,51.81-31.87,104.59,4.41,134.94-33.47,34.3-38.33,87,8.38,134.47-65.12,8-115.83,40.46-114.09,101.84-66.95-2.62-116,40.88-116.85,117.89-81.32-58.45-147.26-44.14-185.41,1.14-55.57-54.26-126.28-34.52-184.55,16.37-8.06-75.92-60.47-115.18-127.48-106.27C740.67,1080.05,704.75,1038.84,620.45,1036.38Zm99.88,110.34c72.36-9.68,128.85,32.73,137.58,114.72,62.93-55,139.27-76.35,199.21-17.67,41.18-48.84,112.31-64.3,200.06-1.22,1-83.08,53.87-130.07,126.11-127.2-1.83-66.31,52.85-101.33,123.13-110-50.48-51.15-45.22-108.17-9.1-145.07-39.15-32.78-50.34-89.66-4.72-145.61-91-2.5-129.7-47.06-132.94-97.81-72.46,9.69-128.88-32.93-137.58-114.73-63.55,55.59-139.84,75.93-199.21,17.67-41.1,48.73-112.3,64.4-200.06,1.22-1,82.58-53.27,130.09-126.11,127.2,1.86,67.22-54.8,101.81-123.14,109.9,50.48,51.25,45,108.2,9,145.09,39,32.69,50.33,89.57,4.73,145.61C678.15,1051.34,716.87,1095.89,720.33,1146.72Zm-99.88-110.34C662.7,984.46,652.2,931.71,616,901.44c33.38-34.19,38.43-87-8.38-134.47,63.28-7.46,115.85-39.56,114.09-101.84,67.56,2.64,115.9-41.37,116.85-117.88,81.32,58.44,147.24,44,185.41-1.15,55,53.94,125.66,35.12,184.55-16.37,8,75.83,60.28,115.31,127.5,106.37,3,47,38.92,88.27,123.11,90.64-42.17,51.81-31.87,104.59,4.41,134.94-33.47,34.3-38.33,87,8.38,134.47-65.12,8-115.83,40.46-114.09,101.84-66.95-2.62-116,40.88-116.85,117.89-81.32-58.45-147.26-44.14-185.41,1.14-55.57-54.26-126.28-34.52-184.55,16.37-8.06-75.92-60.47-115.18-127.48-106.27C740.67,1080.05,704.75,1038.84,620.45,1036.38Zm-33.06,12.52c90.88,2.52,129.6,47.08,132.84,97.83,72.36-9.67,128.85,32.74,137.58,114.73,62.93-55,139.27-76.35,199.21-17.67,41.18-48.85,112.31-64.3,200.06-1.22,1-83.09,53.87-130.07,126.11-127.2-1.83-66.31,52.85-101.33,123.13-110-50.48-51.15-45.22-108.18-9.1-145.08-39.15-32.77-50.34-89.66-4.72-145.6-91-2.51-129.7-47.06-132.94-97.82-72.46,9.69-128.88-32.93-137.58-114.72-63.55,55.59-139.84,75.92-199.21,17.67-41.1,48.73-112.3,64.39-200.06,1.22-1,82.57-53.26,130.08-126.11,127.2,1.86,67.21-54.8,101.81-123.14,109.9,50.49,51.25,45,108.2,9,145.09C621.59,935.9,632.88,992.78,587.39,1048.9Zm33.06-12.52C662.7,984.46,652.2,931.71,616,901.44c33.38-34.19,38.43-87-8.38-134.47,63.28-7.46,115.85-39.56,114.09-101.84,67.56,2.64,115.9-41.37,116.85-117.88,81.32,58.44,147.24,44,185.41-1.15,55,53.94,125.66,35.12,184.55-16.37,8,75.83,60.28,115.31,127.5,106.37,3,47,38.92,88.27,123.11,90.64-42.17,51.81-31.87,104.59,4.41,134.94-33.47,34.3-38.33,87,8.38,134.47-65.12,8-115.83,40.46-114.09,101.84-66.95-2.62-116,40.88-116.85,117.89-81.32-58.45-147.26-44.14-185.41,1.14-55.57-54.26-126.28-34.52-184.55,16.37-8.06-75.92-60.47-115.18-127.48-106.27C740.67,1080.05,704.75,1038.84,620.45,1036.38Zm-84.72,34.79c36.75-3.66,66.56-2.89,90.54,2.26,59.12,12.84,80.82,54.27,72.09,98.36C783,1147.63,846.71,1193.24,838.07,1309c42.37-46.89,82.93-73.32,120.64-78.73s73.67,9.33,99.69,46.32c22-38.63,51.94-51.3,75.2-54.64,43.16-6.19,92.63,16.11,147.29,66.16-19.61-114.88,39.47-165.69,126-149.81-4.63-15.4-5.12-30.08-1.69-44.21,14.87-61.13,91.75-71.66,154.22-71.43-94.25-62.65-83.11-128.6-28.58-164-57.35-29.35-75.48-94.44,12.94-166.12-59,5.93-132.88,4-157.6-50-6.94-15.27-8.56-32.21-4.94-50.61-84.82,24.19-148.29-21.76-139.7-137.25-71.23,78.81-160.53,117.59-220.33,32.42-22,38.62-52,51.29-75.21,54.63-43.16,6.19-92.62-16.11-147.28-66.16,19.79,116.17-40.61,165.55-126,149.82,14.88,49.48-10.52,99.9-95.94,112.16C503.91,748,508.48,726.34,550.9,764.3c56.79,50.75,49.14,107.31-2.15,140.63C609.37,935.94,621.05,1001.85,535.73,1071.17Zm28.64-12.3c61.36-60.32,51.28-122.12,2.53-154.93,42.77-35.63,49.81-94.32-9.3-147.17-11.47-10.27-12.69-4.64,20.57-9.41,85.73-12.3,114.69-61.11,107.46-110.08,77.25,8.21,134-39.73,126.29-137.22,73.41,59.58,158,77.85,210.13,4.2,60.07,69.47,142.13,41.44,208.71-24,1.4,95.67,60.67,140.51,138.81,124.65a87.1,87.1,0,0,0,7.57,41.54c23.11,50.54,82.77,60.06,138.24,58-62.94,62-49.37,123.46-2.51,155C1469,896,1461.81,957.81,1530,1013.29c-59.11,3.43-120.4,21.21-134.34,78.27a90.44,90.44,0,0,0-1.51,34.56c-78.79-8.39-133.92,41.14-126.29,137.23-73-59.23-157.71-78.2-210.13-4.2-45-52.15-120.41-62.64-208.71,24-1.41-96.48-61.35-140.31-138.81-124.65,2.37-43.38-24.16-82.51-81.71-95C610.23,1059.57,589.11,1058.05,564.37,1058.87Zm156,87.85c72.36-9.68,128.85,32.73,137.58,114.72,62.93-55,139.27-76.35,199.21-17.67,41.18-48.84,112.31-64.3,200.06-1.22,1-83.08,53.87-130.07,126.11-127.2-1.83-66.31,52.85-101.33,123.13-110-50.48-51.15-45.22-108.17-9.1-145.07-39.15-32.78-50.34-89.66-4.72-145.61-91-2.5-129.7-47.06-132.94-97.81-72.46,9.69-128.88-32.93-137.58-114.73-63.55,55.59-139.84,75.93-199.21,17.67-41.1,48.73-112.3,64.4-200.06,1.22-1,82.58-53.27,130.09-126.11,127.2,1.86,67.22-54.8,101.81-123.14,109.9,50.48,51.25,45,108.2,9,145.09,39,32.69,50.33,89.57,4.73,145.61C678.15,1051.34,716.87,1095.89,720.33,1146.72Zm-99.88-110.34C662.7,984.46,652.2,931.71,616,901.44c33.38-34.19,38.43-87-8.38-134.47,63.28-7.46,115.85-39.56,114.09-101.84,67.56,2.64,115.9-41.37,116.85-117.88,81.32,58.44,147.24,44,185.41-1.15,55,53.94,125.66,35.12,184.55-16.37,8,75.83,60.28,115.31,127.5,106.37,3,47,38.92,88.27,123.11,90.64-42.17,51.81-31.87,104.59,4.41,134.94-33.47,34.3-38.33,87,8.38,134.47-65.12,8-115.83,40.46-114.09,101.84-66.95-2.62-116,40.88-116.85,117.89-81.32-58.45-147.26-44.14-185.41,1.14-55.57-54.26-126.28-34.52-184.55,16.37-8.06-75.92-60.47-115.18-127.48-106.27C740.67,1080.05,704.75,1038.84,620.45,1036.38Zm-33.06,12.52c90.88,2.52,129.6,47.08,132.84,97.83,72.36-9.67,128.85,32.74,137.58,114.73,62.93-55,139.27-76.35,199.21-17.67,41.18-48.85,112.31-64.3,200.06-1.22,1-83.09,53.87-130.07,126.11-127.2-1.83-66.31,52.85-101.33,123.13-110-50.48-51.15-45.22-108.18-9.1-145.08-39.15-32.77-50.34-89.66-4.72-145.6-91-2.51-129.7-47.06-132.94-97.82-72.46,9.69-128.88-32.93-137.58-114.72-63.55,55.59-139.84,75.92-199.21,17.67-41.1,48.73-112.3,64.39-200.06,1.22-1,82.57-53.26,130.08-126.11,127.2,1.86,67.21-54.8,101.81-123.14,109.9,50.49,51.25,45,108.2,9,145.09C621.59,935.9,632.88,992.78,587.39,1048.9Zm33.06-12.52C662.7,984.46,652.2,931.71,616,901.44c33.38-34.19,38.43-87-8.38-134.47,63.28-7.46,115.85-39.56,114.09-101.84,67.56,2.64,115.9-41.37,116.85-117.88,81.32,58.44,147.24,44,185.41-1.15,55,53.94,125.66,35.12,184.55-16.37,8,75.83,60.28,115.31,127.5,106.37,3,47,38.92,88.27,123.11,90.64-42.17,51.81-31.87,104.59,4.41,134.94-33.47,34.3-38.33,87,8.38,134.47-65.12,8-115.83,40.46-114.09,101.84-66.95-2.62-116,40.88-116.85,117.89-81.32-58.45-147.26-44.14-185.41,1.14-55.57-54.26-126.28-34.52-184.55,16.37-8.06-75.92-60.47-115.18-127.48-106.27C740.67,1080.05,704.75,1038.84,620.45,1036.38Zm-84.72,34.79c36.75-3.66,66.56-2.89,90.54,2.26,59.12,12.84,80.82,54.27,72.09,98.36C783,1147.63,846.71,1193.24,838.07,1309c42.37-46.89,82.93-73.32,120.64-78.73s73.67,9.33,99.69,46.32c22-38.63,51.94-51.3,75.2-54.64,43.16-6.19,92.63,16.11,147.29,66.16-19.61-114.88,39.47-165.69,126-149.81-4.63-15.4-5.12-30.08-1.69-44.21,14.87-61.13,91.75-71.66,154.22-71.43-94.25-62.65-83.11-128.6-28.58-164-57.35-29.35-75.48-94.44,12.94-166.12-59,5.93-132.88,4-157.6-50-6.94-15.27-8.56-32.21-4.94-50.61-84.82,24.19-148.29-21.76-139.7-137.25-71.23,78.81-160.53,117.59-220.33,32.42-22,38.62-52,51.29-75.21,54.63-43.16,6.19-92.62-16.11-147.28-66.16,19.79,116.17-40.61,165.55-126,149.82,14.88,49.48-10.52,99.9-95.94,112.16C503.91,748,508.48,726.34,550.9,764.3c56.79,50.75,49.14,107.31-2.15,140.63C609.37,935.94,621.05,1001.85,535.73,1071.17Zm28.64-12.3c61.36-60.32,51.28-122.12,2.53-154.93,42.77-35.63,49.81-94.32-9.3-147.17-11.47-10.27-12.69-4.64,20.57-9.41,85.73-12.3,114.69-61.11,107.46-110.08,77.25,8.21,134-39.73,126.29-137.22,73.41,59.58,158,77.85,210.13,4.2,60.07,69.47,142.13,41.44,208.71-24,1.4,95.67,60.67,140.51,138.81,124.65a87.1,87.1,0,0,0,7.57,41.54c23.11,50.54,82.77,60.06,138.24,58-62.94,62-49.37,123.46-2.51,155C1469,896,1461.81,957.81,1530,1013.29c-59.11,3.43-120.4,21.21-134.34,78.27a90.44,90.44,0,0,0-1.51,34.56c-78.79-8.39-133.92,41.14-126.29,137.23-73-59.23-157.71-78.2-210.13-4.2-45-52.15-120.41-62.64-208.71,24-1.41-96.48-61.35-140.31-138.81-124.65,2.37-43.38-24.16-82.51-81.71-95C610.23,1059.57,589.11,1058.05,564.37,1058.87ZM694.51,1621.7c190.17-407.44,358-471.12,373.56-141.79-15.53-329.33,157.49-281.72,385.25,106-227.68-387.8-163.47-525.41,143-306.52-305.49-218.23-139.79-282.21,368.29-143.25C1457.17,995.85,1382.13,865.69,1798.54,846c-417.83,19.73-353.63-118,143-306.52-496.65,188.54-669.67,140.93-385.25-106-284.42,246.9-361.4,115.9-171.23-291.53-190.17,407.43-358,471.11-373.55,141.78C1027.15,613,854,565.44,626.47,177.73c227.68,387.79,163.47,525.41-143,306.51C789.84,703.15,622.08,766.82,109.9,626,622.1,766.92,699,897.93,281.15,917.66c417.82-19.83,353.62,117.88-143,306.42,496.66-188.54,669.68-140.93,385.25,106C807.79,1083.15,884.77,1214.15,694.51,1621.7Zm-31.33-414.86c17.78-31,21.71-56.45,12.12-77.51-28.56-62.47-159.86-38.28-227.23-23.46,175.93-101.72,152.23-174.69,47-198.39,34.26-11.18,73-30.67,75.27-66.87,3.47-56.06-89.26-102.46-140.52-126,71.76,8.7,208.05,20.06,225.11-49.77,5-20.72-1.79-44.19-20.92-71.15,116.92,43.84,187.23-9,125.26-188.09C802.82,456.31,877,531.43,943.06,522c40.88-5.87,64.18-41.34,75.9-81.51,18.3,45.87,50.09,80.2,99,73.19,61-8.75,120.4-81.83,156.08-132.41-44,181.7,29.14,230.6,142.46,175.45-17.77,31-21.7,56.45-12.11,77.5,16.93,37.07,70.31,48.61,163.16,35.29,73-10.47,78.39-21.15,42.58,1.06-44.35,27.48-116.91,77.29-106.26,128.29,5.66,27.48,32.19,46.2,80.85,57.2-88,28.69-94.88,81.6-42.61,128.35,28.63,25.6,72.93,48.54,107.76,64.56-72.07-8.76-208.24-19.93-225.21,49.78-5,20.72,1.79,44.2,20.91,71.15-117-43.82-187.09,9.16-125.26,188.1-43.54-50.73-117.76-125.85-183.79-116.38-41.07,5.89-64.23,41.64-75.89,81.5-18.3-45.87-50.1-80.2-99-73.18-61,8.74-120.4,81.82-156.08,132.4C850.07,1199,775.17,1152.29,663.18,1206.84Zm57.15-60.12c72.36-9.68,128.85,32.73,137.58,114.72,62.93-55,139.27-76.35,199.21-17.67,41.18-48.84,112.31-64.3,200.06-1.22,1-83.08,53.87-130.07,126.11-127.2-1.83-66.31,52.85-101.33,123.13-110-50.48-51.15-45.22-108.17-9.1-145.07-39.15-32.78-50.34-89.66-4.72-145.61-91-2.5-129.7-47.06-132.94-97.81-72.46,9.69-128.88-32.93-137.58-114.73-63.55,55.59-139.84,75.93-199.21,17.67-41.1,48.73-112.3,64.4-200.06,1.22-1,82.58-53.27,130.09-126.11,127.2,1.86,67.22-54.8,101.81-123.14,109.9,50.48,51.25,45,108.2,9,145.09,39,32.69,50.33,89.57,4.73,145.61C678.15,1051.34,716.87,1095.89,720.33,1146.72Zm-99.88-110.34C662.7,984.46,652.2,931.71,616,901.44c33.38-34.19,38.43-87-8.38-134.47,63.28-7.46,115.85-39.56,114.09-101.84,67.56,2.64,115.9-41.37,116.85-117.88,81.32,58.44,147.24,44,185.41-1.15,55,53.94,125.66,35.12,184.55-16.37,8,75.83,60.28,115.31,127.5,106.37,3,47,38.92,88.27,123.11,90.64-42.17,51.81-31.87,104.59,4.41,134.94-33.47,34.3-38.33,87,8.38,134.47-65.12,8-115.83,40.46-114.09,101.84-66.95-2.62-116,40.88-116.85,117.89-81.32-58.45-147.26-44.14-185.41,1.14-55.57-54.26-126.28-34.52-184.55,16.37-8.06-75.92-60.47-115.18-127.48-106.27C740.67,1080.05,704.75,1038.84,620.45,1036.38Zm217.61,272.56c42.37-46.89,82.92-73.32,120.64-78.73s73.67,9.34,99.69,46.32c22-38.62,51.94-51.3,75.2-54.64,43.16-6.19,92.63,16.11,147.29,66.16-19.62-114.88,39.47-165.69,126-149.81-4.63-15.4-5.12-30.08-1.7-44.21,14.87-61.13,91.76-71.66,154.22-71.43-94.25-62.65-83.1-128.6-28.57-164-57.35-29.35-75.48-94.44,12.94-166.12-59,5.93-132.88,4-157.6-50-6.94-15.27-8.57-32.21-4.94-50.61-84.83,24.19-148.3-21.76-139.71-137.25C1170.29,533.4,1081,572.18,1021.19,487c-22,38.62-51.94,51.29-75.2,54.63-43.16,6.19-92.63-16.11-147.29-66.15C818.5,591.65,758.1,641,672.7,625.3c14.88,49.49-10.52,99.9-96,112.16-72.85,10.45-68.28-11.22-25.86,26.74C607.67,815,600,871.51,548.74,904.83c60.52,31,72.31,97-12.94,166.12,36.75-3.65,66.56-2.88,90.54,2.27,59.12,12.83,80.82,54.27,72.09,98.36C783.06,1147.42,846.8,1193.13,838.06,1308.94ZM710.18,1158.38c2.36-43.38-24.16-82.51-81.71-95-18.25-4-39.38-5.47-64.1-4.55,61.36-60.32,51.28-122.12,2.53-154.93,42.77-35.63,49.81-94.32-9.3-147.17-11.47-10.27-12.69-4.64,20.57-9.41,85.73-12.3,114.69-61.11,107.46-110.08,77.25,8.21,134-39.73,126.29-137.22,73.41,59.58,158,77.85,210.13,4.2,60.07,69.47,142.13,41.44,208.71-24,1.4,95.67,60.67,140.51,138.81,124.65a87.1,87.1,0,0,0,7.57,41.54c23.11,50.54,82.77,60.06,138.24,58-62.94,62-49.37,123.46-2.51,155C1469,896,1461.81,957.81,1530,1013.29c-59.11,3.43-120.4,21.21-134.34,78.27a90.44,90.44,0,0,0-1.51,34.56c-78.79-8.39-133.92,41.14-126.29,137.23-73-59.23-157.71-78.2-210.13-4.2-45-52.15-120.41-62.64-208.71,24C847.57,1186.55,787.64,1142.72,710.18,1158.38Zm10.15-11.66c72.36-9.68,128.85,32.73,137.58,114.72,62.93-55,139.27-76.35,199.21-17.67,41.18-48.84,112.31-64.3,200.06-1.22,1-83.08,53.87-130.07,126.11-127.2-1.83-66.31,52.85-101.33,123.13-110-50.48-51.15-45.22-108.17-9.1-145.07-39.15-32.78-50.34-89.66-4.72-145.61-91-2.5-129.7-47.06-132.94-97.81-72.46,9.69-128.88-32.93-137.58-114.73-63.55,55.59-139.84,75.93-199.21,17.67-41.1,48.73-112.3,64.4-200.06,1.22-1,82.58-53.27,130.09-126.11,127.2,1.86,67.22-54.8,101.81-123.14,109.9,50.48,51.25,45,108.2,9,145.09,39,32.69,50.33,89.57,4.73,145.61C678.15,1051.34,716.87,1095.89,720.33,1146.72Zm-99.88-110.34C662.7,984.46,652.2,931.71,616,901.44c33.38-34.19,38.43-87-8.38-134.47,63.28-7.46,115.85-39.56,114.09-101.84,67.56,2.64,115.9-41.37,116.85-117.88,81.32,58.44,147.24,44,185.41-1.15,55,53.94,125.66,35.12,184.55-16.37,8,75.83,60.28,115.31,127.5,106.37,3,47,38.92,88.27,123.11,90.64-42.17,51.81-31.87,104.59,4.41,134.94-33.47,34.3-38.33,87,8.38,134.47-65.12,8-115.83,40.46-114.09,101.84-66.95-2.62-116,40.88-116.85,117.89-81.32-58.45-147.26-44.14-185.41,1.14-55.57-54.26-126.28-34.52-184.55,16.37-8.06-75.92-60.47-115.18-127.48-106.27C740.67,1080.05,704.75,1038.84,620.45,1036.38Zm-33.06,12.52c90.88,2.52,129.6,47.08,132.84,97.83,72.36-9.67,128.85,32.74,137.58,114.73,62.93-55,139.27-76.35,199.21-17.67,41.18-48.85,112.31-64.3,200.06-1.22,1-83.09,53.87-130.07,126.11-127.2-1.83-66.31,52.85-101.33,123.13-110-50.48-51.15-45.22-108.18-9.1-145.08-39.15-32.77-50.34-89.66-4.72-145.6-91-2.51-129.7-47.06-132.94-97.82-72.46,9.69-128.88-32.93-137.58-114.72-63.55,55.59-139.84,75.92-199.21,17.67-41.1,48.73-112.3,64.39-200.06,1.22-1,82.57-53.26,130.08-126.11,127.2,1.86,67.21-54.8,101.81-123.14,109.9,50.49,51.25,45,108.2,9,145.09C621.59,935.9,632.88,992.78,587.39,1048.9Zm33.06-12.52C662.7,984.46,652.2,931.71,616,901.44c33.38-34.19,38.43-87-8.38-134.47,63.28-7.46,115.85-39.56,114.09-101.84,67.56,2.64,115.9-41.37,116.85-117.88,81.32,58.44,147.24,44,185.41-1.15,55,53.94,125.66,35.12,184.55-16.37,8,75.83,60.28,115.31,127.5,106.37,3,47,38.92,88.27,123.11,90.64-42.17,51.81-31.87,104.59,4.41,134.94-33.47,34.3-38.33,87,8.38,134.47-65.12,8-115.83,40.46-114.09,101.84-66.95-2.62-116,40.88-116.85,117.89-81.32-58.45-147.26-44.14-185.41,1.14-55.57-54.26-126.28-34.52-184.55,16.37-8.06-75.92-60.47-115.18-127.48-106.27C740.67,1080.05,704.75,1038.84,620.45,1036.38Zm-84.72,34.79c36.75-3.66,66.56-2.89,90.54,2.26,59.12,12.84,80.82,54.27,72.09,98.36C783,1147.63,846.71,1193.24,838.07,1309c42.37-46.89,82.93-73.32,120.64-78.73s73.67,9.33,99.69,46.32c22-38.63,51.94-51.3,75.2-54.64,43.16-6.19,92.63,16.11,147.29,66.16-19.61-114.88,39.47-165.69,126-149.81-4.63-15.4-5.12-30.08-1.69-44.21,14.87-61.13,91.75-71.66,154.22-71.43-94.25-62.65-83.11-128.6-28.58-164-57.35-29.35-75.48-94.44,12.94-166.12-59,5.93-132.88,4-157.6-50-6.94-15.27-8.56-32.21-4.94-50.61-84.82,24.19-148.29-21.76-139.7-137.25-71.23,78.81-160.53,117.59-220.33,32.42-22,38.62-52,51.29-75.21,54.63-43.16,6.19-92.62-16.11-147.28-66.16,19.79,116.17-40.61,165.55-126,149.82,14.88,49.48-10.52,99.9-95.94,112.16C503.91,748,508.48,726.34,550.9,764.3c56.79,50.75,49.14,107.31-2.15,140.63C609.37,935.94,621.05,1001.85,535.73,1071.17Zm28.64-12.3c61.36-60.32,51.28-122.12,2.53-154.93,42.77-35.63,49.81-94.32-9.3-147.17-11.47-10.27-12.69-4.64,20.57-9.41,85.73-12.3,114.69-61.11,107.46-110.08,77.25,8.21,134-39.73,126.29-137.22,73.41,59.58,158,77.85,210.13,4.2,60.07,69.47,142.13,41.44,208.71-24,1.4,95.67,60.67,140.51,138.81,124.65a87.1,87.1,0,0,0,7.57,41.54c23.11,50.54,82.77,60.06,138.24,58-62.94,62-49.37,123.46-2.51,155C1469,896,1461.81,957.81,1530,1013.29c-59.11,3.43-120.4,21.21-134.34,78.27a90.44,90.44,0,0,0-1.51,34.56c-78.79-8.39-133.92,41.14-126.29,137.23-73-59.23-157.71-78.2-210.13-4.2-45-52.15-120.41-62.64-208.71,24-1.41-96.48-61.35-140.31-138.81-124.65,2.37-43.38-24.16-82.51-81.71-95C610.23,1059.57,589.11,1058.05,564.37,1058.87Zm156,87.85c72.36-9.68,128.85,32.73,137.58,114.72,62.93-55,139.27-76.35,199.21-17.67,41.18-48.84,112.31-64.3,200.06-1.22,1-83.08,53.87-130.07,126.11-127.2-1.83-66.31,52.85-101.33,123.13-110-50.48-51.15-45.22-108.17-9.1-145.07-39.15-32.78-50.34-89.66-4.72-145.61-91-2.5-129.7-47.06-132.94-97.81-72.46,9.69-128.88-32.93-137.58-114.73-63.55,55.59-139.84,75.93-199.21,17.67-41.1,48.73-112.3,64.4-200.06,1.22-1,82.58-53.27,130.09-126.11,127.2,1.86,67.22-54.8,101.81-123.14,109.9,50.48,51.25,45,108.2,9,145.09,39,32.69,50.33,89.57,4.73,145.61C678.15,1051.34,716.87,1095.89,720.33,1146.72Zm-99.88-110.34C662.7,984.46,652.2,931.71,616,901.44c33.38-34.19,38.43-87-8.38-134.47,63.28-7.46,115.85-39.56,114.09-101.84,67.56,2.64,115.9-41.37,116.85-117.88,81.32,58.44,147.24,44,185.41-1.15,55,53.94,125.66,35.12,184.55-16.37,8,75.83,60.28,115.31,127.5,106.37,3,47,38.92,88.27,123.11,90.64-42.17,51.81-31.87,104.59,4.41,134.94-33.47,34.3-38.33,87,8.38,134.47-65.12,8-115.83,40.46-114.09,101.84-66.95-2.62-116,40.88-116.85,117.89-81.32-58.45-147.26-44.14-185.41,1.14-55.57-54.26-126.28-34.52-184.55,16.37-8.06-75.92-60.47-115.18-127.48-106.27C740.67,1080.05,704.75,1038.84,620.45,1036.38Zm99.88,110.34c72.36-9.68,128.85,32.73,137.58,114.72,62.93-55,139.27-76.35,199.21-17.67,41.18-48.84,112.31-64.3,200.06-1.22,1-83.08,53.87-130.07,126.11-127.2-1.83-66.31,52.85-101.33,123.13-110-50.48-51.15-45.22-108.17-9.1-145.07-39.15-32.78-50.34-89.66-4.72-145.61-91-2.5-129.7-47.06-132.94-97.81-72.46,9.69-128.88-32.93-137.58-114.73-63.55,55.59-139.84,75.93-199.21,17.67-41.1,48.73-112.3,64.4-200.06,1.22-1,82.58-53.27,130.09-126.11,127.2,1.86,67.22-54.8,101.81-123.14,109.9,50.48,51.25,45,108.2,9,145.09,39,32.69,50.33,89.57,4.73,145.61C678.15,1051.34,716.87,1095.89,720.33,1146.72Zm-99.88-110.34C662.7,984.46,652.2,931.71,616,901.44c33.38-34.19,38.43-87-8.38-134.47,63.28-7.46,115.85-39.56,114.09-101.84,67.56,2.64,115.9-41.37,116.85-117.88,81.32,58.44,147.24,44,185.41-1.15,55,53.94,125.66,35.12,184.55-16.37,8,75.83,60.28,115.31,127.5,106.37,3,47,38.92,88.27,123.11,90.64-42.17,51.81-31.87,104.59,4.41,134.94-33.47,34.3-38.33,87,8.38,134.47-65.12,8-115.83,40.46-114.09,101.84-66.95-2.62-116,40.88-116.85,117.89-81.32-58.45-147.26-44.14-185.41,1.14-55.57-54.26-126.28-34.52-184.55,16.37-8.06-75.92-60.47-115.18-127.48-106.27C740.67,1080.05,704.75,1038.84,620.45,1036.38Zm99.88,110.34c72.36-9.68,128.85,32.73,137.58,114.72,62.93-55,139.27-76.35,199.21-17.67,41.18-48.84,112.31-64.3,200.06-1.22,1-83.08,53.87-130.07,126.11-127.2-1.83-66.31,52.85-101.33,123.13-110-50.48-51.15-45.22-108.17-9.1-145.07-39.15-32.78-50.34-89.66-4.72-145.61-91-2.5-129.7-47.06-132.94-97.81-72.46,9.69-128.88-32.93-137.58-114.73-63.55,55.59-139.84,75.93-199.21,17.67-41.1,48.73-112.3,64.4-200.06,1.22-1,82.58-53.27,130.09-126.11,127.2,1.86,67.22-54.8,101.81-123.14,109.9,50.48,51.25,45,108.2,9,145.09,39,32.69,50.33,89.57,4.73,145.61C678.15,1051.34,716.87,1095.89,720.33,1146.72Zm-99.88-110.34C662.7,984.46,652.2,931.71,616,901.44c33.38-34.19,38.43-87-8.38-134.47,63.28-7.46,115.85-39.56,114.09-101.84,67.56,2.64,115.9-41.37,116.85-117.88,81.32,58.44,147.24,44,185.41-1.15,55,53.94,125.66,35.12,184.55-16.37,8,75.83,60.28,115.31,127.5,106.37,3,47,38.92,88.27,123.11,90.64-42.17,51.81-31.87,104.59,4.41,134.94-33.47,34.3-38.33,87,8.38,134.47-65.12,8-115.83,40.46-114.09,101.84-66.95-2.62-116,40.88-116.85,117.89-81.32-58.45-147.26-44.14-185.41,1.14-55.57-54.26-126.28-34.52-184.55,16.37-8.06-75.92-60.47-115.18-127.48-106.27C740.67,1080.05,704.75,1038.84,620.45,1036.38Zm-33.06,12.52c90.88,2.52,129.6,47.08,132.84,97.83,72.36-9.67,128.85,32.74,137.58,114.73,62.93-55,139.27-76.35,199.21-17.67,41.18-48.85,112.31-64.3,200.06-1.22,1-83.09,53.87-130.07,126.11-127.2-1.83-66.31,52.85-101.33,123.13-110-50.48-51.15-45.22-108.18-9.1-145.08-39.15-32.77-50.34-89.66-4.72-145.6-91-2.51-129.7-47.06-132.94-97.82-72.46,9.69-128.88-32.93-137.58-114.72-63.55,55.59-139.84,75.92-199.21,17.67-41.1,48.73-112.3,64.39-200.06,1.22-1,82.57-53.26,130.08-126.11,127.2,1.86,67.21-54.8,101.81-123.14,109.9,50.49,51.25,45,108.2,9,145.09C621.59,935.9,632.88,992.78,587.39,1048.9Zm33.06-12.52C662.7,984.46,652.2,931.71,616,901.44c33.38-34.19,38.43-87-8.38-134.47,63.28-7.46,115.85-39.56,114.09-101.84,67.56,2.64,115.9-41.37,116.85-117.88,81.32,58.44,147.24,44,185.41-1.15,55,53.94,125.66,35.12,184.55-16.37,8,75.83,60.28,115.31,127.5,106.37,3,47,38.92,88.27,123.11,90.64-42.17,51.81-31.87,104.59,4.41,134.94-33.47,34.3-38.33,87,8.38,134.47-65.12,8-115.83,40.46-114.09,101.84-66.95-2.62-116,40.88-116.85,117.89-81.32-58.45-147.26-44.14-185.41,1.14-55.57-54.26-126.28-34.52-184.55,16.37-8.06-75.92-60.47-115.18-127.48-106.27C740.67,1080.05,704.75,1038.84,620.45,1036.38Zm-84.72,34.79c36.75-3.66,66.56-2.89,90.54,2.26,59.12,12.84,80.82,54.27,72.09,98.36C783,1147.63,846.71,1193.24,838.07,1309c42.37-46.89,82.93-73.32,120.64-78.73s73.67,9.33,99.69,46.32c22-38.63,51.94-51.3,75.2-54.64,43.16-6.19,92.63,16.11,147.29,66.16-19.61-114.88,39.47-165.69,126-149.81-4.63-15.4-5.12-30.08-1.69-44.21,14.87-61.13,91.75-71.66,154.22-71.43-94.25-62.65-83.11-128.6-28.58-164-57.35-29.35-75.48-94.44,12.94-166.12-59,5.93-132.88,4-157.6-50-6.94-15.27-8.56-32.21-4.94-50.61-84.82,24.19-148.29-21.76-139.7-137.25-71.23,78.81-160.53,117.59-220.33,32.42-22,38.62-52,51.29-75.21,54.63-43.16,6.19-92.62-16.11-147.28-66.16,19.79,116.17-40.61,165.55-126,149.82,14.88,49.48-10.52,99.9-95.94,112.16C503.91,748,508.48,726.34,550.9,764.3c56.79,50.75,49.14,107.31-2.15,140.63C609.37,935.94,621.05,1001.85,535.73,1071.17Zm28.64-12.3c61.36-60.32,51.28-122.12,2.53-154.93,42.77-35.63,49.81-94.32-9.3-147.17-11.47-10.27-12.69-4.64,20.57-9.41,85.73-12.3,114.69-61.11,107.46-110.08,77.25,8.21,134-39.73,126.29-137.22,73.41,59.58,158,77.85,210.13,4.2,60.07,69.47,142.13,41.44,208.71-24,1.4,95.67,60.67,140.51,138.81,124.65a87.1,87.1,0,0,0,7.57,41.54c23.11,50.54,82.77,60.06,138.24,58-62.94,62-49.37,123.46-2.51,155C1469,896,1461.81,957.81,1530,1013.29c-59.11,3.43-120.4,21.21-134.34,78.27a90.44,90.44,0,0,0-1.51,34.56c-78.79-8.39-133.92,41.14-126.29,137.23-73-59.23-157.71-78.2-210.13-4.2-45-52.15-120.41-62.64-208.71,24-1.41-96.48-61.35-140.31-138.81-124.65,2.37-43.38-24.16-82.51-81.71-95C610.23,1059.57,589.11,1058.05,564.37,1058.87Zm156,87.85c72.36-9.68,128.85,32.73,137.58,114.72,62.93-55,139.27-76.35,199.21-17.67,41.18-48.84,112.31-64.3,200.06-1.22,1-83.08,53.87-130.07,126.11-127.2-1.83-66.31,52.85-101.33,123.13-110-50.48-51.15-45.22-108.17-9.1-145.07-39.15-32.78-50.34-89.66-4.72-145.61-91-2.5-129.7-47.06-132.94-97.81-72.46,9.69-128.88-32.93-137.58-114.73-63.55,55.59-139.84,75.93-199.21,17.67-41.1,48.73-112.3,64.4-200.06,1.22-1,82.58-53.27,130.09-126.11,127.2,1.86,67.22-54.8,101.81-123.14,109.9,50.48,51.25,45,108.2,9,145.09,39,32.69,50.33,89.57,4.73,145.61C678.15,1051.34,716.87,1095.89,720.33,1146.72Zm-99.88-110.34C662.7,984.46,652.2,931.71,616,901.44c33.38-34.19,38.43-87-8.38-134.47,63.28-7.46,115.85-39.56,114.09-101.84,67.56,2.64,115.9-41.37,116.85-117.88,81.32,58.44,147.24,44,185.41-1.15,55,53.94,125.66,35.12,184.55-16.37,8,75.83,60.28,115.31,127.5,106.37,3,47,38.92,88.27,123.11,90.64-42.17,51.81-31.87,104.59,4.41,134.94-33.47,34.3-38.33,87,8.38,134.47-65.12,8-115.83,40.46-114.09,101.84-66.95-2.62-116,40.88-116.85,117.89-81.32-58.45-147.26-44.14-185.41,1.14-55.57-54.26-126.28-34.52-184.55,16.37-8.06-75.92-60.47-115.18-127.48-106.27C740.67,1080.05,704.75,1038.84,620.45,1036.38Zm99.88,110.34c72.36-9.68,128.85,32.73,137.58,114.72,62.93-55,139.27-76.35,199.21-17.67,41.18-48.84,112.31-64.3,200.06-1.22,1-83.08,53.87-130.07,126.11-127.2-1.83-66.31,52.85-101.33,123.13-110-50.48-51.15-45.22-108.17-9.1-145.07-39.15-32.78-50.34-89.66-4.72-145.61-91-2.5-129.7-47.06-132.94-97.81-72.46,9.69-128.88-32.93-137.58-114.73-63.55,55.59-139.84,75.93-199.21,17.67-41.1,48.73-112.3,64.4-200.06,1.22-1,82.58-53.27,130.09-126.11,127.2,1.86,67.22-54.8,101.81-123.14,109.9,50.48,51.25,45,108.2,9,145.09,39,32.69,50.33,89.57,4.73,145.61C678.15,1051.34,716.87,1095.89,720.33,1146.72Zm-99.88-110.34C662.7,984.46,652.2,931.71,616,901.44c33.38-34.19,38.43-87-8.38-134.47,63.28-7.46,115.85-39.56,114.09-101.84,67.56,2.64,115.9-41.37,116.85-117.88,81.32,58.44,147.24,44,185.41-1.15,55,53.94,125.66,35.12,184.55-16.37,8,75.83,60.28,115.31,127.5,106.37,3,47,38.92,88.27,123.11,90.64-42.17,51.81-31.87,104.59,4.41,134.94-33.47,34.3-38.33,87,8.38,134.47-65.12,8-115.83,40.46-114.09,101.84-66.95-2.62-116,40.88-116.85,117.89-81.32-58.45-147.26-44.14-185.41,1.14-55.57-54.26-126.28-34.52-184.55,16.37-8.06-75.92-60.47-115.18-127.48-106.27C740.67,1080.05,704.75,1038.84,620.45,1036.38Zm99.88,110.34c72.36-9.68,128.85,32.73,137.58,114.72,62.93-55,139.27-76.35,199.21-17.67,41.18-48.84,112.31-64.3,200.06-1.22,1-83.08,53.87-130.07,126.11-127.2-1.83-66.31,52.85-101.33,123.13-110-50.48-51.15-45.22-108.17-9.1-145.07-39.15-32.78-50.34-89.66-4.72-145.61-91-2.5-129.7-47.06-132.94-97.81-72.46,9.69-128.88-32.93-137.58-114.73-63.55,55.59-139.84,75.93-199.21,17.67-41.1,48.73-112.3,64.4-200.06,1.22-1,82.58-53.27,130.09-126.11,127.2,1.86,67.22-54.8,101.81-123.14,109.9,50.48,51.25,45,108.2,9,145.09,39,32.69,50.33,89.57,4.73,145.61C678.15,1051.34,716.87,1095.89,720.33,1146.72Zm-99.88-110.34C662.7,984.46,652.2,931.71,616,901.44c33.38-34.19,38.43-87-8.38-134.47,63.28-7.46,115.85-39.56,114.09-101.84,67.56,2.64,115.9-41.37,116.85-117.88,81.32,58.44,147.24,44,185.41-1.15,55,53.94,125.66,35.12,184.55-16.37,8,75.83,60.28,115.31,127.5,106.37,3,47,38.92,88.27,123.11,90.64-42.17,51.81-31.87,104.59,4.41,134.94-33.47,34.3-38.33,87,8.38,134.47-65.12,8-115.83,40.46-114.09,101.84-66.95-2.62-116,40.88-116.85,117.89-81.32-58.45-147.26-44.14-185.41,1.14-55.57-54.26-126.28-34.52-184.55,16.37-8.06-75.92-60.47-115.18-127.48-106.27C740.67,1080.05,704.75,1038.84,620.45,1036.38Zm99.88,110.34c72.36-9.68,128.85,32.73,137.58,114.72,62.93-55,139.27-76.35,199.21-17.67,41.18-48.84,112.31-64.3,200.06-1.22,1-83.08,53.87-130.07,126.11-127.2-1.83-66.31,52.85-101.33,123.13-110-50.48-51.15-45.22-108.17-9.1-145.07-39.15-32.78-50.34-89.66-4.72-145.61-91-2.5-129.7-47.06-132.94-97.81-72.46,9.69-128.88-32.93-137.58-114.73-63.55,55.59-139.84,75.93-199.21,17.67-41.1,48.73-112.3,64.4-200.06,1.22-1,82.58-53.27,130.09-126.11,127.2,1.86,67.22-54.8,101.81-123.14,109.9,50.48,51.25,45,108.2,9,145.09,39,32.69,50.33,89.57,4.73,145.61C678.15,1051.34,716.87,1095.89,720.33,1146.72Zm-99.88-110.34C662.7,984.46,652.2,931.71,616,901.44c33.38-34.19,38.43-87-8.38-134.47,63.28-7.46,115.85-39.56,114.09-101.84,67.56,2.64,115.9-41.37,116.85-117.88,81.32,58.44,147.24,44,185.41-1.15,55,53.94,125.66,35.12,184.55-16.37,8,75.83,60.28,115.31,127.5,106.37,3,47,38.92,88.27,123.11,90.64-42.17,51.81-31.87,104.59,4.41,134.94-33.47,34.3-38.33,87,8.38,134.47-65.12,8-115.83,40.46-114.09,101.84-66.95-2.62-116,40.88-116.85,117.89-81.32-58.45-147.26-44.14-185.41,1.14-55.57-54.26-126.28-34.52-184.55,16.37-8.06-75.92-60.47-115.18-127.48-106.27C740.67,1080.05,704.75,1038.84,620.45,1036.38Zm99.88,110.34c72.36-9.68,128.85,32.73,137.58,114.72,62.93-55,139.27-76.35,199.21-17.67,41.18-48.84,112.31-64.3,200.06-1.22,1-83.08,53.87-130.07,126.11-127.2-1.83-66.31,52.85-101.33,123.13-110-50.48-51.15-45.22-108.17-9.1-145.07-39.15-32.78-50.34-89.66-4.72-145.61-91-2.5-129.7-47.06-132.94-97.81-72.46,9.69-128.88-32.93-137.58-114.73-63.55,55.59-139.84,75.93-199.21,17.67-41.1,48.73-112.3,64.4-200.06,1.22-1,82.58-53.27,130.09-126.11,127.2,1.86,67.22-54.8,101.81-123.14,109.9,50.48,51.25,45,108.2,9,145.09,39,32.69,50.33,89.57,4.73,145.61C678.15,1051.34,716.87,1095.89,720.33,1146.72Zm-99.88-110.34C662.7,984.46,652.2,931.71,616,901.44c33.38-34.19,38.43-87-8.38-134.47,63.28-7.46,115.85-39.56,114.09-101.84,67.56,2.64,115.9-41.37,116.85-117.88,81.32,58.44,147.24,44,185.41-1.15,55,53.94,125.66,35.12,184.55-16.37,8,75.83,60.28,115.31,127.5,106.37,3,47,38.92,88.27,123.11,90.64-42.17,51.81-31.87,104.59,4.41,134.94-33.47,34.3-38.33,87,8.38,134.47-65.12,8-115.83,40.46-114.09,101.84-66.95-2.62-116,40.88-116.85,117.89-81.32-58.45-147.26-44.14-185.41,1.14-55.57-54.26-126.28-34.52-184.55,16.37-8.06-75.92-60.47-115.18-127.48-106.27C740.67,1080.05,704.75,1038.84,620.45,1036.38Zm-33.06,12.52c90.88,2.52,129.6,47.08,132.84,97.83,72.36-9.67,128.85,32.74,137.58,114.73,62.93-55,139.27-76.35,199.21-17.67,41.18-48.85,112.31-64.3,200.06-1.22,1-83.09,53.87-130.07,126.11-127.2-1.83-66.31,52.85-101.33,123.13-110-50.48-51.15-45.22-108.18-9.1-145.08-39.15-32.77-50.34-89.66-4.72-145.6-91-2.51-129.7-47.06-132.94-97.82-72.46,9.69-128.88-32.93-137.58-114.72-63.55,55.59-139.84,75.92-199.21,17.67-41.1,48.73-112.3,64.39-200.06,1.22-1,82.57-53.26,130.08-126.11,127.2,1.86,67.21-54.8,101.81-123.14,109.9,50.49,51.25,45,108.2,9,145.09C621.59,935.9,632.88,992.78,587.39,1048.9Zm33.06-12.52C662.7,984.46,652.2,931.71,616,901.44c33.38-34.19,38.43-87-8.38-134.47,63.28-7.46,115.85-39.56,114.09-101.84,67.56,2.64,115.9-41.37,116.85-117.88,81.32,58.44,147.24,44,185.41-1.15,55,53.94,125.66,35.12,184.55-16.37,8,75.83,60.28,115.31,127.5,106.37,3,47,38.92,88.27,123.11,90.64-42.17,51.81-31.87,104.59,4.41,134.94-33.47,34.3-38.33,87,8.38,134.47-65.12,8-115.83,40.46-114.09,101.84-66.95-2.62-116,40.88-116.85,117.89-81.32-58.45-147.26-44.14-185.41,1.14-55.57-54.26-126.28-34.52-184.55,16.37-8.06-75.92-60.47-115.18-127.48-106.27C740.67,1080.05,704.75,1038.84,620.45,1036.38Zm-84.72,34.79c36.75-3.66,66.56-2.89,90.54,2.26,59.12,12.84,80.82,54.27,72.09,98.36C783,1147.63,846.71,1193.24,838.07,1309c42.37-46.89,82.93-73.32,120.64-78.73s73.67,9.33,99.69,46.32c22-38.63,51.94-51.3,75.2-54.64,43.16-6.19,92.63,16.11,147.29,66.16-19.61-114.88,39.47-165.69,126-149.81-4.63-15.4-5.12-30.08-1.69-44.21,14.87-61.13,91.75-71.66,154.22-71.43-94.25-62.65-83.11-128.6-28.58-164-57.35-29.35-75.48-94.44,12.94-166.12-59,5.93-132.88,4-157.6-50-6.94-15.27-8.56-32.21-4.94-50.61-84.82,24.19-148.29-21.76-139.7-137.25-71.23,78.81-160.53,117.59-220.33,32.42-22,38.62-52,51.29-75.21,54.63-43.16,6.19-92.62-16.11-147.28-66.16,19.79,116.17-40.61,165.55-126,149.82,14.88,49.48-10.52,99.9-95.94,112.16C503.91,748,508.48,726.34,550.9,764.3c56.79,50.75,49.14,107.31-2.15,140.63C609.37,935.94,621.05,1001.85,535.73,1071.17Zm28.64-12.3c61.36-60.32,51.28-122.12,2.53-154.93,42.77-35.63,49.81-94.32-9.3-147.17-11.47-10.27-12.69-4.64,20.57-9.41,85.73-12.3,114.69-61.11,107.46-110.08,77.25,8.21,134-39.73,126.29-137.22,73.41,59.58,158,77.85,210.13,4.2,60.07,69.47,142.13,41.44,208.71-24,1.4,95.67,60.67,140.51,138.81,124.65a87.1,87.1,0,0,0,7.57,41.54c23.11,50.54,82.77,60.06,138.24,58-62.94,62-49.37,123.46-2.51,155C1469,896,1461.81,957.81,1530,1013.29c-59.11,3.43-120.4,21.21-134.34,78.27a90.44,90.44,0,0,0-1.51,34.56c-78.79-8.39-133.92,41.14-126.29,137.23-73-59.23-157.71-78.2-210.13-4.2-45-52.15-120.41-62.64-208.71,24-1.41-96.48-61.35-140.31-138.81-124.65,2.37-43.38-24.16-82.51-81.71-95C610.23,1059.57,589.11,1058.05,564.37,1058.87Zm156,87.85c72.36-9.68,128.85,32.73,137.58,114.72,62.93-55,139.27-76.35,199.21-17.67,41.18-48.84,112.31-64.3,200.06-1.22,1-83.08,53.87-130.07,126.11-127.2-1.83-66.31,52.85-101.33,123.13-110-50.48-51.15-45.22-108.17-9.1-145.07-39.15-32.78-50.34-89.66-4.72-145.61-91-2.5-129.7-47.06-132.94-97.81-72.46,9.69-128.88-32.93-137.58-114.73-63.55,55.59-139.84,75.93-199.21,17.67-41.1,48.73-112.3,64.4-200.06,1.22-1,82.58-53.27,130.09-126.11,127.2,1.86,67.22-54.8,101.81-123.14,109.9,50.48,51.25,45,108.2,9,145.09,39,32.69,50.33,89.57,4.73,145.61C678.15,1051.34,716.87,1095.89,720.33,1146.72Zm-99.88-110.34C662.7,984.46,652.2,931.71,616,901.44c33.38-34.19,38.43-87-8.38-134.47,63.28-7.46,115.85-39.56,114.09-101.84,67.56,2.64,115.9-41.37,116.85-117.88,81.32,58.44,147.24,44,185.41-1.15,55,53.94,125.66,35.12,184.55-16.37,8,75.83,60.28,115.31,127.5,106.37,3,47,38.92,88.27,123.11,90.64-42.17,51.81-31.87,104.59,4.41,134.94-33.47,34.3-38.33,87,8.38,134.47-65.12,8-115.83,40.46-114.09,101.84-66.95-2.62-116,40.88-116.85,117.89-81.32-58.45-147.26-44.14-185.41,1.14-55.57-54.26-126.28-34.52-184.55,16.37-8.06-75.92-60.47-115.18-127.48-106.27C740.67,1080.05,704.75,1038.84,620.45,1036.38Zm99.88,110.34c72.36-9.68,128.85,32.73,137.58,114.72,62.93-55,139.27-76.35,199.21-17.67,41.18-48.84,112.31-64.3,200.06-1.22,1-83.08,53.87-130.07,126.11-127.2-1.83-66.31,52.85-101.33,123.13-110-50.48-51.15-45.22-108.17-9.1-145.07-39.15-32.78-50.34-89.66-4.72-145.61-91-2.5-129.7-47.06-132.94-97.81-72.46,9.69-128.88-32.93-137.58-114.73-63.55,55.59-139.84,75.93-199.21,17.67-41.1,48.73-112.3,64.4-200.06,1.22-1,82.58-53.27,130.09-126.11,127.2,1.86,67.22-54.8,101.81-123.14,109.9,50.48,51.25,45,108.2,9,145.09,39,32.69,50.33,89.57,4.73,145.61C678.15,1051.34,716.87,1095.89,720.33,1146.72Zm-99.88-110.34C662.7,984.46,652.2,931.71,616,901.44c33.38-34.19,38.43-87-8.38-134.47,63.28-7.46,115.85-39.56,114.09-101.84,67.56,2.64,115.9-41.37,116.85-117.88,81.32,58.44,147.24,44,185.41-1.15,55,53.94,125.66,35.12,184.55-16.37,8,75.83,60.28,115.31,127.5,106.37,3,47,38.92,88.27,123.11,90.64-42.17,51.81-31.87,104.59,4.41,134.94-33.47,34.3-38.33,87,8.38,134.47-65.12,8-115.83,40.46-114.09,101.84-66.95-2.62-116,40.88-116.85,117.89-81.32-58.45-147.26-44.14-185.41,1.14-55.57-54.26-126.28-34.52-184.55,16.37-8.06-75.92-60.47-115.18-127.48-106.27C740.67,1080.05,704.75,1038.84,620.45,1036.38Z"/><path class="cls-2" d="M743.59,1127.22c67-8.81,119.44,30.44,127.5,106.37,58.25-51,129-70.73,184.55-16.37,38.25-45.3,104.09-59.59,185.41-1.15,1-77,49.9-120.5,116.85-117.88-1.74-61.38,49.07-93.82,114.09-101.84-46.71-47.45-41.86-100.27-8.38-134.47-36.28-30.36-46.68-83.11-4.41-134.94-84.19-2.37-120.1-43.59-123.12-90.64-67.22,8.84-119.44-30.54-127.49-106.37-58.89,51.48-129.53,70.31-184.55,16.37-38.17,45.18-104.09,59.59-185.42,1.14C837.68,624,789.34,668,721.78,665.33c1.76,62.28-50.83,94.28-114.09,101.84,46.82,47.53,41.76,100.28,8.38,134.47,36.18,30.37,46.66,83,4.4,134.94C704.75,1038.84,740.67,1080.05,743.59,1127.22Z"/><path class="cls-3" d="M675.2,1129.35c9.69,21,5.67,46.57-12.11,77.51C775.17,1152.29,850,1199,805.54,1382.3c35.78-50.59,95.11-123.66,156.08-132.4,48.9-7,80.7,27.31,99,73.18,11.66-39.86,34.81-75.61,75.89-81.5,66.13-9.49,140.25,65.65,183.79,116.38-61.83-178.94,8.25-231.92,125.26-188.1-19.12-26.95-26-50.41-20.91-71.15,17.07-69.73,153.14-58.54,225.21-49.78-34.81-15.92-79-38.88-107.76-64.56-52.27-46.75-45.31-99.67,42.61-128.35-48.65-10.9-75.09-29.74-80.85-57.2-10.65-51,61.82-100.8,106.26-128.29,35.81-22.21,30.27-11.51-42.58-1.06-92.85,13.32-146.23,1.78-163.16-35.29-9.69-21-5.68-46.56,12.11-77.5-113.32,55.15-186.6,6.26-142.46-175.45-35.77,50.59-95.1,123.66-156.08,132.41-48.9,7-80.69-27.32-99-73.19-11.8,40.29-35,75.64-75.9,81.51-66.12,9.48-140.24-65.65-183.79-116.38C821.14,584.71,750.91,637.41,634,593.67c19.13,27,26,50.41,20.92,71.15-17,69.72-153.35,58.47-225.11,49.77,51.26,23.56,144.09,69.95,140.52,126-2.29,36.2-40.91,55.68-75.27,66.87,105.23,23.7,128.84,96.68-47,198.39C515.36,1091.16,646.74,1066.86,675.2,1129.35Zm-48.78-56.24c-24-5.15-53.79-5.93-90.54-2.27,85.24-69.21,73.46-135.1,12.94-166.12,51.3-33.22,58.94-89.88,2.15-140.63-42.42-38-47-16.29,25.87-26.75,85.42-12.25,110.82-62.67,95.94-112.16,85.39,15.64,145.8-33.64,126-149.81C853.56,525.5,903,547.7,946.07,541.53c23.26-3.34,53.17-16,75.21-54.64,59.9,85.16,149.08,46.3,220.33-32.41C1233,570,1296.49,615.92,1381.31,591.73c-3.72,18.41-2,35.34,4.94,50.61,24.62,54,98.55,56,157.6,50-88.4,71.78-70.29,136.76-12.94,166.12-54.53,35.4-65.67,101.35,28.58,164-62.57-.22-139.35,10.29-154.22,71.43-3.53,14.14-2.94,28.8,1.69,44.2-86.53-15.87-145.51,34.92-126,149.81-54.77-50.13-104.23-72.33-147.29-66.15-23.26,3.34-53.16,16-75.2,54.63-26-37-62-51.72-99.69-46.31s-78.27,31.84-120.64,78.73c8.66-115.7-55.08-161.41-139.71-137.25C707.18,1127.59,685.46,1086.05,626.42,1073.11Z"/><path class="cls-1" d="M564.39,1059c24.72-.92,45.84.6,64.09,4.55,57.65,12.44,84.09,51.68,81.71,95,77.45-15.76,137.38,28.07,138.81,124.65,88.3-86.62,163.85-76.14,208.71-24,52.44-73.9,137.08-55,210.13,4.2-7.63-96.09,47.5-145.62,126.29-137.23a90.44,90.44,0,0,1,1.51-34.56c13.94-57.06,75.23-74.84,134.34-78.27-68.17-55.48-61-117.33-17.11-153.83-46.88-31.66-60.45-93.16,2.51-155-55.48,2-115.13-7.42-138.24-58a87.1,87.1,0,0,1-7.57-41.54c-78.14,15.86-137.4-28.88-138.81-124.65-66.68,65.43-148.73,93.47-208.71,24-52.27,73.67-136.72,55.38-210.13-4.2,7.83,97.47-49,145.43-126.29,137.22,7.23,49-21.73,97.78-107.46,110.08-33.26,4.77-32-.86-20.57,9.41,59.11,52.85,52.07,111.54,9.3,147.17C615.66,936.85,625.73,998.55,564.39,1059Zm22.67-10.22c45.72-56,34.32-112.92-4.72-145.61,36.12-36.9,41.49-93.84-9-145.09,68.35-8.09,125-42.68,123.14-109.9C769.43,651,821.62,603.53,822.6,521c87.76,63.18,158.86,47.52,200-1.22C1082,578,1158.3,557.55,1221.86,502.06c8.71,81.8,65.12,124.32,137.59,114.73,3.24,50.75,42.06,95.29,132.94,97.81-45.62,55.95-34.43,112.83,4.72,145.6-36,36.89-41.38,93.93,9.1,145.08-70.27,8.77-125,43.81-123.13,110-72.24-2.87-125.1,44.12-126.12,127.2-87.64-63.09-158.77-47.63-200,1.22-60-58.57-136.28-37.32-199.21,17.67-8.72-81.89-65.21-124.3-137.59-114.72C716.87,1095.89,678.15,1051.34,587.06,1048.75Z"/><path d="M1322.24,70.84c-2.14,1.92-4.63,4.3-7.57,7-1.42,1.42-3,2.86-4.72,4.42s-3.37,3.31-5.13,5.08c-3.62,3.65-7.61,7.56-11.85,11.8-.52.58-1.06,1.06-1.58,1.64l-1.57,1.74c-1,1.16-2.09,2.32-3.24,3.5-2.19,2.33-4.46,4.78-6.74,7.23-1.14,1.17-2.27,2.45-3.5,3.73s-2.46,2.58-3.58,4c-2.24,2.65-4.68,5.42-7.09,8.29s-4.93,5.76-7.45,8.65c-1.3,1.5-2.49,3.08-3.69,4.57s-2.49,3.08-3.67,4.67c-2.49,3.08-5,6.27-7.53,9.46-.6.8-1.29,1.6-1.88,2.4s-1.28,1.69-1.87,2.49c-1.17,1.68-2.35,3.36-3.62,5.06-4.89,6.76-10.09,13.47-14.71,20.7s-9.68,14.22-14.06,21.72-9.19,14.75-13.26,22.31c-4.27,7.58-8.56,15-12.22,22.56s-7.66,14.94-10.93,22.38c-1.7,3.68-3.39,7.35-5,10.92-.85,1.84-1.7,3.68-2.46,5.4s-1.41,3.54-2.16,5.36c-1.4,3.64-2.83,7.08-4.25,10.51-.77,1.73-1.44,3.34-2.11,5.05a19.67,19.67,0,0,0-1.06,2.48l-.84,2.55c-2.37,6.7-4.52,12.87-6.62,18.63-1,2.87-1.91,5.72-2.74,8.37s-1.67,5.29-2.42,7.82-1.62,4.88-2.3,7.2-1.48,4.46-2,6.55c-1.21,4.21-2.27,8.1-3.29,11.58s-2,6.65-2.78,9.49-1.45,5.37-2,7.67c-1.27,4.53-2.3,7.91-3.15,10.45-3.5,10.1-5.07,6.19-9,5.24-3.36-.83-6.25,2.21-4.56-8.54.42-2.68,1.12-6.22,2.17-10.92.56-2.4,1.1-5,1.89-8s1.85-6.12,2.85-9.7,2.26-7.5,3.56-11.82c.7-2.13,1.49-4.36,2.27-6.69s1.75-4.7,2.6-7.25,1.89-5.12,2.81-7.88,1.93-5.53,3.13-8.43c2.4-5.8,4.93-12.12,7.61-18.77,5.54-12.81,11.81-26.85,19.33-41.36,1-1.75,1.8-3.59,2.75-5.45.48-.87,1-1.75,1.43-2.73s1-1.86,1.52-2.74c2-3.62,4-7.34,6.09-11.08l3.14-5.6c1-1.87,2.07-3.83,3.23-5.62,2.19-3.75,4.4-7.4,6.69-11.16,1-1.87,2.18-3.75,3.33-5.63a62,62,0,0,1,3.45-5.54c2.41-3.58,4.81-7.26,7.22-10.94l3.66-5.48,1.82-2.78c.68-.91,1.26-1.8,1.94-2.71,2.62-3.5,5.14-7.1,7.67-10.59,1.26-1.8,2.53-3.5,3.78-5.29l1.86-2.59c.59-.8,1.27-1.7,2-2.51,2.64-3.41,5.19-6.8,7.84-10.11,1.37-1.72,2.66-3.31,3.93-5a62.2,62.2,0,0,1,3.94-4.91c2.69-3.11,5.37-6.23,8-9.33s5.29-6.11,7.79-9.09c2.71-2.92,5.34-5.72,7.87-8.51s5.17-5.49,7.62-8.16c.61-.7,1.23-1.29,1.84-2s1.22-1.29,1.85-1.89c1.24-1.18,2.47-2.47,3.71-3.66,5-4.95,9.54-9.55,14-13.83,4.57-4.09,8.77-7.92,12.61-11.4,1.88-1.69,3.76-3.37,5.46-4.93s3.43-2.81,5.06-4.16l8.14-6.62c4.54-3.58,7.09-5.46,7.22-5.28S1326.47,67.2,1322.24,70.84Z"/><path d="M843,1818.1c1.1-2.18,2.51-5,4.08-8.16.79-1.53,1.65-3.27,2.6-5.12.48-.88.95-1.86,1.41-2.83s.94-2,1.39-3c1.93-4.12,4-8.66,6.33-13.64.62-1.3,1.15-2.49,1.78-3.79l.93-2a11.14,11.14,0,0,1,.82-2c1.13-2.69,2.34-5.49,3.56-8.29s2.41-5.7,3.7-8.71c.69-1.51,1.28-3,2-4.53s1.27-3.11,1.85-4.71c2.43-6.31,5-12.94,7.67-19.79,10.21-27.42,20.26-58.77,28.85-90.41s15.66-63.37,21.25-91.34c1.31-7.06,2.59-13.61,3.82-19.85,1-6.3,2.1-12.12,3-17.61.41-2.78.94-5.38,1.38-8s.79-5.07,1.15-7.44c.72-4.85,1.4-9.29,2.12-13.44s1.28-8,1.77-11.57,1-6.81,1.52-9.81.89-5.79,1.24-8.26.74-4.76,1-6.82c2.52-16.22,3.55-18.19,4.37-18.1s1.44,2.31.05,18.68c-.21,2-.39,4.3-.63,6.86s-.55,5.33-.93,8.31-.81,6.28-1.21,9.87-.94,7.51-1.56,11.64-1.28,8.67-2,13.53c-.35,2.47-.7,5-1.14,7.53s-.88,5.18-1.38,8c-.92,5.59-2,11.4-3,17.71q-1.85,9.36-3.81,19.94c-5.66,28.09-12.94,59.75-21.89,91s-19.34,62.38-30.1,89.48c-.56,1.7-1.33,3.43-2,5s-1.34,3.32-2,4.94c-1.36,3.22-2.71,6.45-4,9.56-2.52,6.32-5.42,12.19-7.95,17.81-1.31,2.81-2.54,5.52-3.77,8.22l-1.86,3.9c-.64,1.2-1.26,2.51-1.9,3.71-2.44,4.79-4.71,9.36-6.85,13.51-1,2.06-2,4-3,5.88s-2,3.53-2.9,5.17c-1.76,3.18-3.39,5.94-4.67,8.24-2.69,4.53-4.23,7.18-4.51,7.32S840.51,1822.5,843,1818.1Z"/><path d="M974,1621.81c2.57-6.73,6.16-16.23,9.32-27.3a294.55,294.55,0,0,0,7.91-36.39,307.57,307.57,0,0,0,3.25-36.53c.1-2.84.12-5.47.18-7.9s-.08-4.74-.09-7c0-1,0-2.12,0-3.13s-.08-2-.11-2.91c-.17-1.9-.23-3.71-.26-5.32-.16-3.21-.35-6-.5-8.41-.05-1.11-.11-2.21-.16-3.21s-.17-1.9-.18-2.7c-.32-6.42.25-7.41,1.14-7.54s1.8.55,3.21,6.91c.22.78.34,1.67.59,2.65l.46,3.26c.26,2.49.76,5.25,1,8.64.13,1.6.3,3.49.47,5.39,0,1,.19,2,.23,3s.1,2.1.16,3.21c.11,2.2.16,4.62.21,7.14s0,5.26-.15,8.1a249.48,249.48,0,0,1-13.32,73.34,221,221,0,0,1-11.2,26.86c-.77,1.63-1.58,3.06-2.3,4.37s-1.37,2.42-1.85,3.3a11.54,11.54,0,0,1-1.92,2.8C969.74,1632.52,971.29,1628.56,974,1621.81Z"/><path d="M946.05,163.2c1.44.9,3.31,2,5.42,3.26,1.1.65,2.22,1.4,3.43,2.13a20.22,20.22,0,0,1,1.88,1.15c.67.41,1.25.93,1.91,1.34,2.59,1.85,5.52,4,8.56,6.15,1.48,1.1,3.16,2.27,4.74,3.46l4.91,3.94c1.62,1.39,3.43,2.74,5.15,4.21s3.65,2.91,5.41,4.58c3.51,3.34,7.12,6.66,10.95,10.15a331.27,331.27,0,0,1,43,51.11,321.93,321.93,0,0,1,31.67,58.09c1.88,4.68,3.62,9.08,5.24,13.29,1.31,4.26,2.69,8.2,3.93,12a56.81,56.81,0,0,1,1.79,5.4c.45,1.75.91,3.5,1.35,5.16.89,3.41,1.73,6.42,2.45,9.34s1.2,5.59,1.66,8.05.79,4.84,1.19,6.9.68,4.05.94,5.83.28,3.39.38,4.79c.76,11.61-.53,13.21-2.21,13.45s-3.48-1-6.46-11.9c-.39-1.36-.72-2.93-1.16-4.58s-1-3.4-1.59-5.43-1.1-4.19-1.74-6.52-1.22-5-2.11-7.68-1.73-5.71-2.69-8.91c-.53-1.54-1-3.19-1.52-4.93s-1.19-3.37-1.86-5.19c-1.21-3.56-2.57-7.41-4-11.45-1.59-4-3.42-8.3-5.17-12.8a373.34,373.34,0,0,0-29.21-56.42,378.53,378.53,0,0,0-38.87-51.2c-3.45-3.65-6.77-7.11-10-10.49-.82-.79-1.55-1.7-2.37-2.49l-2.47-2.37c-1.52-1.5-3.15-3-4.68-4.48s-3-2.9-4.46-4.31c-.35-.36-.7-.71-1.06-1.06a10.24,10.24,0,0,1-1.14-1c-.81-.69-1.5-1.3-2.2-1.91-2.87-2.42-5.43-4.78-7.85-6.85s-4.6-3.89-6.55-5.53-3.67-3-5.05-4.22c-2.76-2.34-4.29-3.83-4.25-4.24S943,161.51,946.05,163.2Z"/></g></g></svg>