<svg xmlns="http://www.w3.org/2000/svg" viewBox="0 0 2000 2000"><defs><style>.cls-1{fill:#ed1c24;}.cls-2{fill:#fff;}</style></defs><g id="explotion-10"><path d="M1867.84,985.66q-25.27.55-48.72.55c-454.57,0-398.57-151.65,143.53-361.7-135.6,52.54-259.65,77.61-368.84,77.61-342.32,0-538-246.66-481-666.56C1070.13,350,984,512.1,880,512.1c-79.22,0-168.83-94.08-257.47-286.57,120.24,261.12,97.62,397.14-39.62,397.14-96.79,0-250.59-67.68-451.44-206.86C617.09,752.34,560.76,1167.71,0,1385c135.6-52.54,259.65-77.62,368.84-77.61,342.32,0,538,246.66,481,666.55C898.69,1614,1093.32,1419.2,1357,1419.23c142,0,304.19,56.62,474.25,174.46C1345.56,1257.15,1361.26,996.57,1867.84,985.66Z"/><path class="cls-1" d="M1716.57,1514.25c-420.14-291.14-784-150.17-849,329,65-479.12-250.12-697.47-735.24-509.5,485.12-188,533.85-547.31,113.71-838.45C666.22,786.39,848.29,715.84,670.9,330.64,848.29,715.84,1030.06,645.41,1095,166.29c-65,479.12,250.12,697.48,735.24,509.51-485.12,188-520.27,321.87-82,312.44C1310,997.67,1296.43,1223.11,1716.57,1514.25Z"/><path class="cls-2" d="M471.88,1498.14c-19.79,0-36.46-3-49.58-9-14.21-6.49-23.9-16.5-28-28.95-8.13-24.64,5.61-57.69,39.74-95.57q29.57-32.8,78-69.57-11.75,4.56-23.22,8.4c-40.33,13.5-78.14,20.35-112.38,20.35h-.05c-64.6,0-115.59-24.47-143.59-68.91-32-50.73-28.55-119.19,8.9-178.66,24.08-38.24,60.9-70.35,106.47-92.85,41.17-20.33,88.53-32.7,141.22-36.94-93.53-19.57-157.63-44.61-198.22-64.66-68.21-33.7-107.6-72.33-105.36-103.34.68-9.38,5.52-22.5,24.71-31.72,14.45-7,34.63-10.47,60-10.47,46.79,0,108.69,12,180.81,34.7C368,721.82,326.63,677.16,335,642.87c6.11-25.09,37.81-39.48,87-39.48,51.36,0,116.38,15.86,178.39,43.51a624.1,624.1,0,0,1,124.58,74.19Q707.07,692.64,697.77,666c-12.58-36.14-12.52-68.72.17-94.19,15-30.17,47.11-48.17,85.84-48.17,41.69,0,85,20.42,118.71,56,27.34,28.83,47.72,66.48,60.26,110.82,7.56-26.58,22-50.75,43.37-72.28,30.05-30.34,74.18-55,127.62-71.26,48.17-14.68,102.67-22.44,157.6-22.44,55.1,0,107.56,8.08,147.74,22.75,44.66,16.32,73,40,81.82,68.43,8.08,25.91,0,54.31-24.12,84.4q-14.71,18.39-37.37,37.52,19.63-7.73,38.51-13.66c40.61-12.74,78.57-19.2,112.84-19.2,49.8,0,91.47,13.72,120.48,39.67,26.6,23.81,41.26,57.14,41.26,93.86,0,53.31-29.65,106.77-81.36,146.67-36.45,28.13-98.9,60.94-197.19,69.14,93.7,19.38,158,46.5,198.73,68.67,68.08,37,107.4,80.64,105.19,116.61-1,16-10.18,29.21-26.6,38.19-16.18,8.86-38.76,13.34-67.11,13.34-36.25,0-80.44-7.3-131.35-21.69q-23.16-6.56-47.88-15c73.77,47.39,108.68,89.49,100,122.4-7.23,27.55-43.79,43.35-100.31,43.35-59.38,0-131-17.28-196.48-47.42-54-24.87-101.81-57.31-141.09-95.5,14.48,46,4.08,81.63-10.19,106-18.44,31.49-51.15,58.06-94.59,76.84-39.62,17.12-85.86,26.55-130.22,26.55h0c-32.67,0-63.26-5.19-88.46-15-28.08-10.94-49-27.08-62.13-48s-17.86-45.53-14.19-73.56a170.62,170.62,0,0,1,5.06-24.25,553.63,553.63,0,0,1-137.13,114c-63.48,37.17-130.3,58.49-183.32,58.5Z"/><path d="M783.78,531.57c72.3,0,166,67.52,182.5,223.83-16.43-155.82,166.12-223,325.06-223,194.24,0,353.22,100.24,70.74,261.34,101.82-58.07,185-81.09,248.68-81.09,243.16,0,202.57,335.39-164.29,335.39a664.84,664.84,0,0,1-68.44-3.65C1771.8,1085.18,1888,1283,1704.16,1283c-66.29,0-171.55-25.68-316.92-93.71C1684.85,1328.53,1651.55,1412,1524.66,1412c-107,0-280.49-59.34-378.29-194.66,117,161.84-52.53,261.12-194.27,261.12-117.32,0-215.61-68-116.7-224.81-102.61,162.69-269.1,236.52-363.49,236.52-106.5,0-121.21-93.92,151.08-260.11-100.53,61.36-183,85.75-246.58,85.75-245.38,0-209-363.16,155.13-363.16a612,612,0,0,1,74.11,4.67c-388-47.31-505.69-213.2-335.16-213.2,65.82,0,174.57,24.7,327.35,90.47C288,701.26,301.47,611.32,422,611.32c92.86,0,249.29,53.4,370.39,181.48-152.63-161.44-96.42-261.23-8.56-261.23m0-15.86c-42.21,0-77.24,19.74-93.71,52.8-13.6,27.3-13.79,61.85-.54,99.9a241.89,241.89,0,0,0,10.08,24.42,628.75,628.75,0,0,0-95.48-53.06,555.72,555.72,0,0,0-97.83-33.46c-30.43-7.2-58.8-10.85-84.35-10.85-24.44,0-44.92,3.37-60.86,10-23.81,9.93-31.94,24.87-34.56,35.66-3.34,13.71,0,28.82,10,44.91,9.28,15,24.51,31.09,45.27,47.75q8.75,7,18.73,14.16c-50.74-13.05-94.45-19.66-130-19.66-81,0-92.25,34.68-93.33,49.59C174.65,812.6,214.7,853,287.05,888.74c37.65,18.6,82.24,35.07,132.52,49q12.15,3.36,24.68,6.49c-76.71,13.66-127.74,44-159.36,70.48-26.72,22.4-47.53,48.46-61.85,77.45-13.48,27.29-20.61,56.62-20.61,84.83,0,42.17,15.75,80.64,44.34,108.31,31.41,30.39,76.24,46.45,129.65,46.45,29.36,0,61.2-4.86,94.89-14.47a476,476,0,0,0-43.95,42.31c-17.8,19.75-30.36,38.36-37.34,55.31-7.26,17.63-8.61,33.65-4,47.59,4.81,14.6,16,26.27,32.43,33.76,14.33,6.54,32.32,9.86,53.47,9.86,26,0,56.3-5.16,87.73-14.92,33.45-10.38,67.18-25.46,100.24-44.82a561.41,561.41,0,0,0,118.31-93c-2.84,28,2.47,52.86,15.8,74.05a116.07,116.07,0,0,0,28.4,30.54,156.85,156.85,0,0,0,37.85,20.76c26.26,10.23,58,15.64,91.86,15.64,45.6,0,93.16-9.69,133.9-27.3,45.13-19.5,79.2-47.26,98.53-80.26a130.88,130.88,0,0,0,17-85.4c35.66,30.72,77.06,57.16,122.83,78.23,66.65,30.68,139.67,48.27,200.35,48.27,60.86,0,100.49-18,108.73-49.42,3.51-13.4.9-28.12-7.76-43.75-8.12-14.63-21.78-30.31-40.6-46.6q-6.24-5.4-13.25-10.92c51.1,14.35,95.63,21.63,132.38,21.63,29.94,0,54-4.87,71.55-14.47,9.31-5.09,16.68-11.48,21.92-19a49.38,49.38,0,0,0,8.88-25.55c1.19-19.48-8.44-41.26-27.86-63-18.86-21.08-47.06-42.14-81.55-60.91-37.82-20.58-82.56-38.34-133-52.78q-12.37-3.54-25.12-6.8c75.51-13.1,126.1-40.93,157.72-65.33,27.27-21,48.54-45.52,63.21-72.76,13.89-25.77,21.23-53.43,21.23-80,0-38.88-15.58-74.23-43.87-99.54-30.66-27.43-74.41-41.93-126.52-41.93-35.22,0-74.13,6.61-115.64,19.63l-2,.63q5.73-6.18,10.63-12.3c12.75-15.93,21.37-31.74,25.62-47s4.22-30.23-.16-44.28c-9.63-30.9-39.69-56.36-86.94-73.61-41.17-15-94.77-23.32-150.94-23.32-55.85,0-111.29,7.9-160.33,22.84a384.19,384.19,0,0,0-72.12,29.81c-23.1,12.65-43,27.33-59.18,43.65a182.25,182.25,0,0,0-36.36,51.63c-12.94-35.25-31.21-65.66-54.33-90-35.4-37.34-81-58.75-125.24-58.75Z"/></g></svg>