<svg xmlns="http://www.w3.org/2000/svg" viewBox="0 0 2000 2000"><defs><style>.cls-1{fill:#ed1c24;}.cls-2{fill:#ffd100;}</style></defs><g id="explotion-9"><path d="M976.88,73.94C993,564.15,882.74,836.51,654.06,549.86c188.42,285-87.11,440.37-603.6,450.62,516.49-10.25,659.32,342,323,781.85,336.36-439.82,681.95-383.5,739.15,106.71-57.2-490.21,79-719.47,296.15-498.56-217.17-220.91,37.66-491.35,554.15-588.1-516.49,96.75-685.83,14.57-285.71-285C1251.36,840.48,993,564.15,976.88,73.94Z"/><path class="cls-1" d="M985.5,301.76c-9.15,165.38-34.32,292.09-77.6,355.71-43.6,63.43-105.33,63.75-195.1-27.8,56.38,96.75,26.43,186.61-64.63,254.89-91.29,68-243.68,114.37-437.24,116.86,162,2.22,286.92,84.51,345.45,201.16,57.88,117.62,49.38,269.59-70.51,433.36C615.59,1504.57,742.71,1440,850.55,1452.71c107.45,13,195.61,103.28,238.27,288.61-25.21-174.23-1.85-320.13,49.38-398.29,52-77.82,131.79-87.91,236.07,17.46-206.94-209.62,45.64-428.07,405-522.89-168.5,35-298.61,26.24-351.16-12.85-51.89-40.19-26.22-110.69,132.09-224.6-157.84,114.22-273.79,123.19-365.53,64.24C1103.4,604.73,1036.29,477.16,985.5,301.76Z"/><path d="M1056.79,1586c-59-111.74-139-147.29-203.59-155.12a255.56,255.56,0,0,0-29.77-1.73c-77.33,0-162.24,34.25-249.85,100.1,51.59-117.38,53.09-233.63,2.54-336.37l-.08-.15c-42.35-84.41-113.81-147.5-202.62-182.4C491,992,590.32,955.07,661.31,902.21c76.88-57.66,111-129,99.86-203.36,26.63,17,51.45,25.3,75,25.3,34.92,0,65.17-18.24,89.9-54.22l.06-.09c34.5-50.7,58.76-137.24,72.42-258,50,133.86,110.71,222.95,184.18,270.95l.14.09c40.54,26.05,84.92,39.25,131.92,39.25,30.9,0,63-5.48,96.63-16.58-19.44,26.37-29.11,50.31-29.48,72.79-.41,24.79,10.93,46.85,32.79,63.79l.34.26c34.12,25.38,92.88,38.9,170,39.14-48.38,21.33-92.55,45-131.37,70.65-91.18,60.14-149.53,129.08-168.75,199.37-11.11,40.64-9.18,81.53,5.38,121.42q-28.86-11.94-56.07-12c-44.32,0-83.85,24.13-114.33,69.78l-.1.16C1080.67,1390.66,1059,1480.88,1056.79,1586Z"/><path class="cls-2" d="M1042.87,1519.72c-59.56-83.43-131.28-108.43-184.53-113.55a256.37,256.37,0,0,0-30.68-1c-66.77,1.86-138,28.75-213.77,82.07,36.85-107.57,32.63-209.61-11.28-301.25l-.1-.2c-35.34-72.15-91.09-129.75-162.4-169,96.37-21.29,178-56,238.21-101.57,67.81-51.79,103.76-116,102.26-184.37,19.88,9.5,38.81,14.28,57.44,14.61,39.63.68,73.36-18.77,100.71-57.49l.08-.1c29.67-42.48,52.25-109.89,67.67-200.75,47.41,105.3,101.59,177,166.44,218.79l.16.1c42.15,26.7,88.27,40,137.58,39.63a304.19,304.19,0,0,0,63.73-7.63c-8.39,16.2-12.88,31.7-13.65,46.86-1.46,28.85,10.9,54.21,35.5,73.41l.55.42c25.82,19.32,65.07,31.91,115.19,37a877.44,877.44,0,0,0-79.1,45.72c-93.23,60.94-152.36,130.28-172.08,201.76a200.54,200.54,0,0,0-2.35,99.14,142.51,142.51,0,0,0-32.62-4c-47.94-.18-90.28,25.39-122.45,73.87a2.14,2.14,0,0,0-.13.19C1070.18,1363.13,1049.52,1434.24,1042.87,1519.72Z"/></g></svg>