<svg xmlns="http://www.w3.org/2000/svg" viewBox="0 0 2000 2000"><defs><style>.cls-1{opacity:0.25;}.cls-2{fill:#ed1c24;}.cls-3{fill:#ffd100;}.cls-4{fill:#fff;}</style></defs><g id="halftone-dots" class="cls-1"><path d="M488.33,1088.54c-1.23-1.39-2.49-2.74-3.68-4.16-9.53-11.44-4.25-27.67,10.2-31.06a18.6,18.6,0,0,1,6.82-.08,58.35,58.35,0,0,1,7.36,2c2.68,3.21,5.87,6.07,7.1,10.28,2,6.76,2.54,6.41,8.82,4,5.14-2,5.16-2,4.58-7.62-.17-1.62-.27-3.26-.58-4.86-.39-2-1.52-3-3.45-2.38-5.34,1.73-10.59,1.25-15.86-.14a61.17,61.17,0,0,1-5.12-4.78,18.09,18.09,0,0,1-3.44-19c2.47-6.75,7.61-10.41,14.56-11.76,2.17-.42,5.34.86,6.19-1.74.5-1.52-1.19-3.8-2-5.7-4.88-11.38.08-23.11,11.67-27.48.88-.33,1.82-.47,2.69-.81,2.87-1.12,3.23-1.79,2.5-4.75q-.84-3.41-1.84-6.77c-1-3.21-1.36-3.42-5.09-3.14-2.33.17-4.67.48-7,.43a19,19,0,0,1-18.87-17.24c-.29-2.52.08-5.89-1.37-7.3-2.15-2.07-4.55,1.1-6.83,1.94A17.92,17.92,0,0,1,473.5,938c-4.28-8.26-1.82-18.77,5.7-23.73a40.15,40.15,0,0,1,6.32-3c3.7-1.59,3.78-1.72,2.35-5.71a6.76,6.76,0,0,0-.55-1.3c-1.57-2.56-.48-6.83-3.57-8-2.34-.86-5.42.45-8.18.53a55.35,55.35,0,0,1-5.57-.49c-1.92-.14-2.74.86-2.06,2.49s1.73,3.35,2.31,5.11a16.21,16.21,0,0,1-7.08,18.88,15.8,15.8,0,0,1-19.41-2.18c-5-4.79-5.39-10.78-3.9-16.93,1.39-5.76,5.75-8.73,11.18-10.6,2.58-.88,5.65.55,7.82-1.83A67.14,67.14,0,0,1,455,884.7c-1.15-2.55-1.83-5.3-2.77-7.94s-1.53-2.92-4.18-2.39c-4.1.82-8,2-12.41.77-8.72-2.52-14.15-7.84-15.77-16.85-.21-1.15-.28-2.33-.55-3.47-.49-2.11-1.54-2.75-3.54-2.13-1.56.48-3,1.24-4.61,1.67a19.78,19.78,0,0,1-24.93-16.24c-.17-1.16-.15-2.34-.31-3.5-.46-3.43-1.35-4.06-4.59-2.49a22.7,22.7,0,0,1-13.67,1.93c-9.16-1.4-15.4-9.24-15.22-19,.17-9.4,6.46-16.83,15.38-18.16,11.47-1.72,20.31,4.52,22.48,15.93.35,1.83.39,3.72.78,5.53.09.42,1,.78,1.61.93.38.1.87-.24,1.31-.4,3.72-1.3,7.43-2.66,11.18-3.89,1.56-.51,2.65-1.38,2.11-3-1.71-5.13-3.11-10.27-2.73-15.77,0-.35-1.47-1.28-2-1.11-1.53.51-2.88,1.53-4.38,2.16-6.94,2.89-13.41,1.85-18.95-3.08-5.38-4.79-6.88-11-5-17.92,2-7.31,7.08-11.44,14.39-12.7,8.95-1.55,18,5.18,19.38,14.24.32,2.07.39,4.2.88,6.22a2.42,2.42,0,0,0,2.12,1.1,15,15,0,0,0,3.64-2.06c9.12-6.1,24.76-3.24,29.86,9.75.26.65.5,1.31.78,1.95,1.63,3.72,2,3.88,5.75,2.92.68-.17,1.33-.43,2-.61,2.92-.79,6.48-.78,8.6-2.53,2.49-2.06.2-5.71.31-8.67a19,19,0,0,1,16.47-18.15c8.72-1.08,17,5,19.2,14,.11.46.15.92.25,1.38,1.29,6.16,1.32,6.24,7,3.68a29.49,29.49,0,0,1,12.28-2.44c2.28,0,2.82-1,2-3.21-.55-1.54-1.35-3-1.78-4.57-2.54-9.13,3.29-19.2,12.3-21.36,10.3-2.47,19.69,3.56,21.43,13.77.23,1.38.25,2.8.5,4.18.46,2.54,1.68,3.21,3.89,1.76a27.82,27.82,0,0,1,15.22-4.6c2.29,0,2.76-1,2-3.23a59.23,59.23,0,0,1-2.12-5.94c-2.21-9.58,4-19.46,13.38-21.48,9.93-2.13,19.25,3.47,21.71,13.05,1.7,6.61,1.78,6.77,7.73,4,3.15-1.47,7-1,9.68-3.55-.4-3.22-1-6.42-1.17-9.64-.48-10.55,5.44-18.27,15.87-21,1.13-.29,2.29-.5,3.4-.84,1.85-.58,2.78-1.81,2-3.73-1.65-4.23-1.81-8.65-2-13.11-.08-2.17-1.29-3-3.31-2A21.43,21.43,0,0,1,625.76,705a16.73,16.73,0,0,1,.35-33.19c10.39-1,17.74,4.84,19,15.13.11.93.08,1.87.21,2.8.33,2.4,1.25,2.94,3.21,1.93,3.11-1.59,6.2-3.24,9.35-4.75a3.59,3.59,0,0,0,2.09-4.6c-.28-1.14-.6-2.26-.87-3.4-1.53-6.4-1.53-6.41-8.14-5.42a19.29,19.29,0,0,1-22.07-16.63c-1.33-11.86,6.48-22,17.83-22.46,8-.29,14.51,3.19,18.46,10.52.88,1.64,1.42,3.46,2.19,5.16,1.09,2.39,1.8,2.71,4.41,2,3.39-.9,6.75-1.86,10.14-2.77a2.68,2.68,0,0,0,2.1-3.14c-.16-2.57-.4-5.13-.47-7.7-.26-8.63,6.79-16.23,15.83-17.9,7.7-1.43,16.45,3.75,19.9,11.35,1.33,2.93.49,6.59,3.24,9,2.87-.86,5.7-1.92,8.62-2.53,2.5-.52,5.12-.45,7.66-.82,1.63-.23,2.48-1.25,1.87-3-.54-1.54-1.26-3-1.68-4.61-2.78-10.51,2.59-20.32,12.68-23.27,9.85-2.88,19.55,2.69,22.9,13.18.35,1.11.59,2.26,1,3.36.76,2.14,1.59,2.57,3.69,1.83,2.65-.92,5.26-2,7.89-2.92,2-.75,2.94-2,2.63-4.29-.48-3.47-.68-7-1-10.46a2.14,2.14,0,0,0-2.94-2.06c-1.58.39-3.1,1-4.66,1.53-7.09,2.23-13,0-17.71-5.29s-5.24-11.88-2.63-18.43,7.9-9.75,14.63-10.47,14.37,4.48,17.09,11.26a24.43,24.43,0,0,1,1.16,4c1.23,5.88,1.22,5.88,6.25,3.41a4.71,4.71,0,0,0,.62-.35c2.63-1.91,7.32-1,8.4-4.27.94-2.83-.2-6.39-.56-9.61-.25-2.2,1-5.29-1.53-6.29-1.54-.62-3.91.8-5.89,1.35a17.1,17.1,0,1,1-9.19-32.94c8.71-2.46,18,3,20.66,12.21a16.56,16.56,0,0,1,.74,3.43c.21,4.05,1.6,4.79,5.36,2.3.2-.13.43-.21.61-.35,2.55-2,7.45-1.59,8.05-4.86.74-3.94-.47-8.29-1.13-12.42-.11-.7-1.69-1.63-2.59-1.63-1.59,0-3.16.78-4.77,1a17.62,17.62,0,0,1-20.08-13.51c-2.14-8.8,2.63-17.46,11.35-20.78a16.18,16.18,0,0,1,10.33-.38c2,.56,4,1.32,6,2,2.69,3.24,5.32,6.46,6.6,10.61,1.82,5.9,1.92,5.87,7.55,3.34.85-.38,1.69-.8,2.55-1.15a3.73,3.73,0,0,0,2.49-4.45c-.24-1.61-.42-3.24-.75-4.83a3.34,3.34,0,0,0-4-3,37.66,37.66,0,0,1-13.85-1.25c-1.39-1.25-2.82-2.46-4.17-3.75-8.61-8.22-8.72-26,7-32.24.44-.17.88-.34,1.32-.49,6-2,6-2,4-8.37-4.33-13.75,4-26.47,15.91-28.79a23.19,23.19,0,0,0,3.4-.86,2.68,2.68,0,0,0,1.88-3.27c-.59-4.15-1.05-8.32-1.62-12.47a1.73,1.73,0,0,0-2.5-1.56c-1.75.64-3.39,1.61-5.14,2.23a18.08,18.08,0,0,1-22.71-10c-3.83-8.88-.4-18.68,8.22-23.5A17.84,17.84,0,0,1,856,388.18c1.46,2.26,2,5.15,2.76,7.81.45,1.55.38,3.25.77,4.83a1.82,1.82,0,0,0,2.68,1.36c1.51-.64,2.91-1.51,4.41-2.14,14.64-6.22,29.89,4.1,29.63,20,0,.93-.18,1.86-.22,2.79-.12,3,.58,3.57,3.09,2.12a20.91,20.91,0,0,1,10.61-3.17c8.69,0,15.13,5.31,16.73,13.94a16.9,16.9,0,0,1-11.08,18.9c-1.54.53-3.17.81-4.72,1.33s-2,1.74-1.44,3.34c1.47,4.17,2.94,8.34,4.32,12.54.65,1.94,2,2.49,3.8,2.14,1.15-.21,2.26-.58,3.41-.79a19.58,19.58,0,0,1,23.36,19c0,.46,0,.93,0,1.4,0,2.05,0,4.1.07,6.15,2.49.65,3.63-1.65,5.4-2.53,6.56-3.26,13.1-3.66,19.29.56s8.64,10.45,7.27,17.75-6,12-13.25,13.85a25.05,25.05,0,0,0-2.71.7c-1.45.57-2.31,1.51-1.68,3.24,1.35,3.72,2.71,7.45,4,11.21.65,2,1.91,2.32,3.78,2.14,4.16-.39,8.34-.64,12.52-.9,1.93-.13,2.45-.88,1.36-2.72a19.94,19.94,0,0,1-3.08-12c.71-8.78,7.44-14.76,16.41-15,9.51-.23,15.83,8.21,16.48,15.16A16.74,16.74,0,0,1,996.24,549c-1.38.22-2.8.17-4.19.36-2.63.35-3.22,1.44-1.74,3.76A35.29,35.29,0,0,1,995,564c.83,3.44,1.64,3.75,5,3.07,1.14-.24,2.26-.6,3.4-.85,5.82-1.29,8.79-5.5,7.82-11.1-1.58-9.11,5.2-18.28,14.21-19.21,10.21-1.06,18.13,5.54,18.6,15.47.45,9.75-5.33,16.69-15.25,17.36-6.45.43-6.89,1.24-3.1,6.77,1.53,2.23,2.13,5.13,3,7.76,1.1,3.17,1.66,3.44,5.18,2.72,3-.6,6-1,9-1.55s3.44-1.34,2.88-4.28a57,57,0,0,1-1.37-9c-.27-9.83,8-15.87,14-16.92,9.11-1.57,17.31,2.7,20.44,11a45.44,45.44,0,0,1,1.54,6.81c.62,3,1.47,3.54,4.35,2.1a32.46,32.46,0,0,1,12-3.52c2.51-.22,3-1.3,2.44-4a57.74,57.74,0,0,1-1.38-6.14c-1-9.76,3.54-17.24,12.33-20.42a18.36,18.36,0,0,1,23.44,11c.89,2.37,1.11,5,1.64,7.5s1.49,3,4,2c1.08-.44,2.12-1,3.15-1.53,11.48-5.93,29,2.94,28.1,19-.11,1.87-.33,3.73-.35,5.6,0,.59.32,1.55.73,1.69s1.29-.23,1.84-.57c1.39-.87,2.63-2,4.06-2.74a17.25,17.25,0,0,1,23.72,8c4.78,9.91-1.45,20-8.73,22.91a46.5,46.5,0,0,1-8.13,1.91c-2.07.42-2.72,1.21-1.67,2.72a34.73,34.73,0,0,1,5,12.24c.67,2.85,1.47,3.09,4.61,2.53a51.11,51.11,0,0,1,9-1.26c8.79,0,15.61,5.19,18.51,13.52.83,2.39,1.1,5.48,2.77,6.94,2.06,1.78,4.72-.93,7.21-1.24,2.31-.29,4.63-.54,6.94-.9,2.16-.34,2.71-1.21,2.23-3.45-.25-1.14-.8-2.22-1-3.36a35.84,35.84,0,0,1-.59-6.26c.29-9.58,7-16.16,16.55-16.41s17.41,6.56,17.89,16c.17,3.46-.54,7-.85,10.45-4.87,3.95-9.36,8.48-16.33,8.67-2.16.06-2.75,1.57-2,3.49.35.86.87,1.65,1.27,2.5,3.84,8.12,3.84,8.12,12.49,5.6,3.31-1,3.63-1.15,3.28-5a50,50,0,0,1,1.22-15.29l4.81-4.07c10.87-9.21,26-5.93,31.25,7.23,2.91,7.26,3.42,6.29,9.65,4.18,1.32-.45,2.7-.73,4.06-1.07,4.28-1.08,4.47-1.2,3.71-5.74a21.38,21.38,0,0,1,0-9c2-8,8.1-13.68,16-14.73s15.25,3,19.32,10c1.48,2.56,1,6.84,4.2,7.55,2.39.52,5.27-1.28,8-2,6.49-1.7,6.56-1.69,6.15-8.58a20,20,0,0,1,3.12-12.69c4.81-7.19,11.6-9.88,20-8.57,7.67,1.18,12.54,5.79,15.08,13,.31.88.43,1.82.71,2.71,1.25,3.94,1.68,4.12,5.41,3,2.67-.83,5.38-1.5,8.07-2.28a2.58,2.58,0,0,0,2-3.18c-.27-1.61-.79-3.18-1-4.8-2.06-15,8.43-26,23.66-24.64a12.38,12.38,0,0,0,2.08.19c1.13-.11,1.72-.89,1.26-1.92-.76-1.69-1.81-3.26-2.62-4.94-4.87-10.2,2.16-20.15,9-22.75,9.41-3.57,19.92,1.25,22.76,10.52,3,9.64-2.42,19.49-12.1,21.82-2.45.59-5.08.35-7.62.57-1.13.1-1.76.92-1.27,1.92.71,1.45,1.77,2.73,2.61,4.13,7.2,12,2.34,26.2-10.83,31-6.36,2.32-6.4,1.94-4.85,8.91.74,3.33.41,6.92.38,10.39a47.73,47.73,0,0,1-.67,5.55c-.39.77-.77,1.55-1.16,2.32a22.44,22.44,0,0,0-2.81,2.08,27.28,27.28,0,0,1-13.17,7.63c-3.35.83-3.76,1.59-3.13,5.08a47.41,47.41,0,0,1,.17,14c-.17,1.5.87,2.06,2.25,1.3,1.64-.9,3.16-2,4.86-2.78a15.27,15.27,0,0,1,19.9,8,15.44,15.44,0,0,1-6.26,19.53c-7.46,4.22-16.62,2-20.78-5.26a20.63,20.63,0,0,1-1.89-5.94c-.34-1.58-.19-3.27-.38-4.89-.22-1.77-1.58-2.4-3-1.21a36.09,36.09,0,0,1-11.6,6.39c-3.11,1.09-3.22,1.58-3,4.65.31,3.5.58,7,.92,10.48.3,3,1.17,3.48,4.21,2.47,1.11-.37,2.17-.91,3.28-1.24a16,16,0,0,1,20.28,11.24,16.3,16.3,0,0,1-11.57,20.23c-8.64,2.28-17.74-3.38-19.89-12.27-.52-2.12.67-5.39-2.11-6-1.57-.37-3.65,1.59-5.54,2.44-1.7.76-3.43,1.46-5.17,2.14-4,1.56-4.16,1.81-3.37,6.22.12.69.33,1.36.48,2,.53,2.48.32,5.58,1.77,7.28,1.87,2.19,4.76-.32,7.23-.56,11.69-1.12,20,5.84,20.09,17.07.08,10.55-7.08,17.65-17.63,17.49-7.71-.12-13.47-4.44-16.24-12.15-.7-1.94-.91-4.65-2.31-5.59-2.13-1.43-4.28,1-6.35,1.9-6.39,2.8-6.59,3.31-4.85,9.93,1.1,4.18,1.42,4.25,5.76,4.14,3.23-.08,6.63-.24,9.68.62a19.12,19.12,0,0,1,1.56,36,40.78,40.78,0,0,1-6.08,1.58c-2.63.64-2.81,1.22-2,4,1.16,4,2.16,8.08,3.14,12.14.53,2.23,1.29,2.86,3.37,2.25,1.57-.46,3.06-1.21,4.64-1.61a18.6,18.6,0,0,1,11.65,35.19c-2.45,1.08-6.43.24-7.1,3.42-.47,2.19,1.27,4.82,1.93,7.27,1.75,6.41,1.79,6.8,8.64,5.54,2.51-.46,5.13-.28,7.69-.54,1.68-.16,2.39-1.35,1.87-3s-1.24-3-1.7-4.61a16.61,16.61,0,0,1,6.4-18.61,17.1,17.1,0,0,1,19.14-.06c5.75,3.89,8.05,10.26,6.5,18a15.67,15.67,0,0,1-13,12.18C1431,897,1431.08,897,1434,903a77.53,77.53,0,0,1,3.11,8.54c.61,1.79,1.73,2.89,3.66,2.3a31.51,31.51,0,0,1,14.53-1.15c1.17.19,1.63-.91,1.21-1.92-.72-1.71-1.8-3.28-2.47-5-4.84-12.49,4.13-24.44,17.33-23.16,7.67.75,14.11,7.69,14.49,15.63a16.89,16.89,0,0,1-13.56,17.19c-2.64.46-5.6-.77-7.92,1.43q1.83,3.3,3.65,6.61c2.58,4.73,2.82,9.78,2.16,15-.32,2.46.65,3.07,2.72,2a47.85,47.85,0,0,1,5-2.58c6.51-2.39,12.53-1.45,17.52,3.47s5.94,11.08,3.74,17.52c-2.28,6.68-7.55,10.06-14.3,10.8-8.82.95-17-7-17.42-16.49,0-1.39.32-2.79.3-4.18a2.87,2.87,0,0,0-.84-1.7c-.18-.18-1-.06-1.28.19a28.09,28.09,0,0,1-15.55,7.47c-1.73.25-2.14,1.67-1.83,3.2.28,1.37.82,2.69,1.1,4.06,2.78,13.66-3.88,23.54-17.56,26.08-.69.13-1.39.17-2.09.28-1.76.3-2.5,1.47-1.83,3a31.23,31.23,0,0,1,2.13,15.13,2.39,2.39,0,0,0,.08.7c.24,1.06.88,1.77,2,1.29,1.92-.84,3.69-2,5.63-2.81a17,17,0,0,1,21.14,7.59,17.42,17.42,0,0,1-4.69,22.08,17.21,17.21,0,0,1-21.95-1.18c-3.27-3-4.68-6.93-5.31-11.18a39.14,39.14,0,0,1,0-4.2c-.09-2-1-2.39-2.74-1.46-3.5,1.85-7,3.71-10.55,5.46-1.67.82-2.64,1.86-2.15,3.82.16.68.26,1.39.47,2.05.82,2.66,1,5.87,2.67,7.8,2,2.31,5.28.18,8,.09,10.42-.36,18.69,5.43,21,14.94a19.34,19.34,0,0,1-11.34,22.52c-7.55,3.09-6.08,4-4.1,10.45.21.67.4,1.34.61,2a3.22,3.22,0,0,0,3.66,2.53c3.27-.24,6.54-.38,9.8-.67,1.79-.16,2.55-1.26,2-2.87s-1.33-3-1.71-4.6c-1.63-6.84-.65-13.12,4.85-18s11.66-5.86,18.28-2.88,10,8.43,10.34,15.5c.35,6.53-4.34,13.46-10.69,16-2.56,1-5.43,1.26-8.16,1.83-1.45.3-2.15,1.23-1.31,2.45a30.6,30.6,0,0,1,5.32,14.31c.22,2.11,1.37,2.69,3.48,2.34,3-.49,6-1.38,9-1.44a19.35,19.35,0,0,1,19.63,18c.21,2.39-1.34,5.14,1.12,7.2,2.09-1,4.16-2,6.28-2.85,9.3-3.87,19.8.07,23.77,8.88a18.56,18.56,0,0,1-9.34,24.79c-6.6,3-6.6,3-3.78,9.61,1.67,3.92,1.85,4,6.32,3.65.46,0,.92-.13,1.39-.16,6.43-.37,8.31.48,6.67-8.08a16.33,16.33,0,0,1,12.24-18.67c9.43-2.09,18.12,2.63,20.68,11.24a17.1,17.1,0,0,1-10.38,21.15c-.87.32-1.82.43-2.71.72-3.94,1.32-4.12,1.77-2.73,5.44,1.08,2.83,2,5.72,3,8.58s1.52,3.34,4.54,3.27c2.33-.06,4.67-.42,7-.34,10.44.35,18.06,7,19.94,17.33a12.57,12.57,0,0,1,.17,1.39c.42,6.72,2,6.25,6.87,4.68a22.93,22.93,0,0,1,8.31-.79c8.7.53,14.85,6.46,16.5,15.52,1.35,7.44-3,15.7-10.13,19.13a18.33,18.33,0,0,1-26.13-11.92c-.26-1.14-.34-2.32-.62-3.45-.79-3.27-1.63-3.66-5-2.34-1.53.6-3,1.3-4.55,1.85-10.49,3.8-21.55-2.45-25.41-10.79a14.21,14.21,0,0,1-.85-1.92c-1.68-5.35-2-6.64-8.49-4.63l-.68.2c-2.21.58-5,.54-6.52,1.89-2,1.71,0,4.38.27,6.62a19.22,19.22,0,0,1-15.6,21c-8.87,1.76-18.26-4.22-21.1-13.46-.21-.67-.26-1.38-.46-2-1.22-4.24-1.49-4.22-5.89-2.9a43.5,43.5,0,0,1-10.21,2.09c-5.7.27-5.22,1.62-3.87,5.28a22.38,22.38,0,0,1,1.28,7.52,16.58,16.58,0,0,1-13.51,16.47c-8.47,1.43-16.27-2.78-19.35-10.48-.34-.87-.47-1.83-.88-2.66-1.32-2.72.78-6-1.56-8.56a89.11,89.11,0,0,1-8,4.23c-3.92,1.64-8,2.55-12.33,1.48a2.75,2.75,0,0,0-2.42.64c-.31.6.18,1.73.54,2.53.48,1.06,1.24,2,1.75,3,3.37,6.87,2.25,13.21-2.56,18.92a16.85,16.85,0,0,1-18.51,4.85c-6.52-2.26-10.62-8.14-11.16-15.55-.15-2.14,1.41-4.68-1.14-6.41-1.75,1.11-3.49,2.24-5.25,3.33a24.9,24.9,0,0,1-13.42,3.43c-1.94,0-2.47,1-1.86,2.8.51,1.55,1.23,3,1.72,4.59a19,19,0,0,1-10.74,23.16c-9.85,4.22-19.84-1.46-23.84-9.14-.32-.63-.59-1.28-.85-1.93-2.7-6.68-2.7-6.68-9.21-4.1a33.81,33.81,0,0,0-3.22,1.37c-.59.31-1.42.83-1.48,1.35a20,20,0,0,0,1.5,11.56,2.12,2.12,0,0,0,1.79.73c1.61-.21,3.18-.73,4.78-1,10.31-1.91,20,4.52,21.46,14.24,1.8,11.71-4.73,20.88-15.85,22.24-1.39.17-2.8.12-4.19.3-1.81.24-2.29,1.26-1.42,3,.63,1.25,1.45,2.41,2.06,3.67,5.62,11.75-.31,24.75-12.74,28.56-2.84.87-6.11-.1-8.54,2.18.82,2.65,2,5.25,2.39,8a76.08,76.08,0,0,1,.38,9.08c.08,2.32,1,2.8,3.17,1.68,1.46-.74,2.82-1.68,4.33-2.3a18.18,18.18,0,0,1,23.33,8.57,18.65,18.65,0,0,1-7.26,23.89c-11,6.48-25.43-.89-26.94-13.84-.16-1.38,0-2.81-.1-4.2a31.67,31.67,0,0,0-.64-3.31,10.93,10.93,0,0,0-3.1,1.08,19.86,19.86,0,0,1-11,4.09c-9.92.48-17.18-4.24-20.58-13.55a16.17,16.17,0,0,1-.64-2c-.94-4.34-2-5-6.29-3.74-3.11.94-6.43,1.14-9.63,1.77-2.45.48-2.91,1.46-2.43,4,.61,3.19,1.58,6.42,1.51,9.61a17,17,0,0,1-13.94,16.24c-8.56,1.51-16.44-2.32-19.69-9.94a40,40,0,0,1-2-8.12c-.57-3-1.12-3.47-3.53-2a24.73,24.73,0,0,1-11.87,3.86,6.56,6.56,0,0,0-1.38.25c-2,.54-2.62,1.55-2.06,3.65.24.9.66,1.75.94,2.64,4.33,14-4.42,26.11-19.14,26.48-.7,0-1.4-.14-2.1-.12-2,.06-2.66,1-1.6,2.7a22.21,22.21,0,0,1,3.67,13.29,18.37,18.37,0,0,1-17.3,17.91c-.93.08-1.87,0-2.81,0-4.46.14-4.68.46-2.78,4.16.42.83.94,1.62,1.33,2.47,5.29,11.52-.16,23.66-12.18,27.67-2.29.77-5.93-.35-6.65,2.64-.47,1.93,1.29,4.34,1.77,6.59,2.44,11.38-1.06,20.94-12.51,25.86-1.07.46-2.2.78-3.29,1.19-1.86.7-2.34,2.08-2,3.93.67,3.68,1.25,7.37,2,11,.39,2,1.43,2.73,3.52,2.37,1.84-.31,3.63-1,5.48-1.14a17,17,0,0,1,17.61,11.14,17.23,17.23,0,0,1-6.92,20.33,16.86,16.86,0,0,1-20.72-2.06c-1.76-1.75-2.94-4.14-4.19-6.36a34.3,34.3,0,0,1-1.39-4c-.87-2.15-1.7-2.56-3.75-1.81-2.63,1-5.2,2.11-7.84,3-5.26,1.86-5.36,2-4.65,7.52.65,5.13,1.31,6.9,7.07,4.92,2.56-.88,5.53-.71,8.32-.72a15.9,15.9,0,0,1,9.7,3.61c6.31,4.76,8.9,13.1,6.71,21.49-1.92,7.38-8.17,12.56-16.13,13.61-2.2.29-5.34-.94-6.3,1.57-.56,1.46,1.09,3.8,1.85,5.71,5,12.7-3.06,26.11-16.53,27.34-11.86,1.09-22.79-11.2-20.26-23,1.72-8,6.42-13.41,14.53-15.42,2.25-.56,4.61-.69,6.91-1,1.45-.23,2-1.1,1.46-2.47-1.32-3.48-2.71-6.93-4-10.41-.82-2.15-1.89-2.85-4.41-1.72-6.08,2.72-12.22,2.77-18.53,1.25a6.5,6.5,0,0,0-1.4,0l-2.35-1.17a9.25,9.25,0,0,0-1.16-1.74c-5.48-5.26-8.69-11.46-8.63-19.26,0-2.93-1.12-3.4-4.22-2.49-1.12.33-2.2.8-3.33,1.1a17.94,17.94,0,0,1-21.77-10.71,18.12,18.12,0,0,1,8.85-23.23,57.2,57.2,0,0,1,5.89-2.25c1.26-.47,2-1.31,1.53-2.67-1.11-3.32-2.31-6.61-3.47-9.92a3,3,0,0,0-3.14-2.26c-2.1.07-4.2.3-6.3.32-11.57.1-19.61-6.65-21.47-18-.23-1.38-.3-2.79-.6-4.16a2,2,0,0,0-2.65-1.6c-1.36.32-2.63,1-4,1.39-13,3.94-25-4.78-25.28-18.28,0-2.2,1.29-4.58-.61-6.62-1.8,1-3.59,2-5.41,3-10,5.33-21.59,1.58-26.1-8.49-4.34-9.69.28-20.8,10.37-24.9,6.24-2.54,6.24-2.54,4-8.78s-2.25-6.11-8.46-5.21a28.28,28.28,0,0,0-3.45.61,2.76,2.76,0,0,0-2.17,3.14c.18,2.09.53,4.18.6,6.28.34,10.22-6,18.22-15.38,19.47-10.55,1.41-19-4.34-21.59-14.55-.54-2.13.52-5.37-2.26-6-1.69-.41-3.87,1.11-5.8,1.86a21.34,21.34,0,0,1-12.37,1.24c-2.23-.47-3.06.85-1.75,2.88a20.9,20.9,0,0,1,3.14,12c-.07,8.79-7.1,15-13.9,16.32a17.44,17.44,0,0,1-19.35-10.54,45.6,45.6,0,0,1-1.64-6.07c-.41-1.66-1.45-2.62-3-1.82a37.72,37.72,0,0,1-13.4,3.82c-2.33.23-2.87,1.47-2.38,4.1a52.73,52.73,0,0,1,1.29,6.86c.47,8.59-4.27,16.21-12,18.62-8.48,2.64-16.1,1-21.58-5.73a19.12,19.12,0,0,1,8.15-29.68,29.6,29.6,0,0,1,3.39-.89c5.29-1.32,5.24-1.31,3.43-6.52-.92-2.63-1.52-5.38-2.34-8.06a2.83,2.83,0,0,0-3.75-2.17c-1.36.33-2.74.58-4.13.82-11.41,2-21-4.13-23.88-15.37-.62-2.47-.65-5.09-1.2-7.59a2.39,2.39,0,0,0-1.94-1.29,38.48,38.48,0,0,0-4.57,1.73c-9.7,3.48-20.21-1-23.89-10.23-3.84-9.61.19-19.65,9.66-24.08,2.29-1.07,4.6-2.1,6.9-3.14-.94-3.33-1.82-6.67-2.85-10-.49-1.59-1.89-2-3.4-1.76-1.84.29-3.65.94-5.49,1.06-5.2.33-5.38,2.15-4.24,6.44,1.79,6.72.13,12.52-4.51,17.49-5.35,5.72-12.06,7.1-19.29,4.83-7.07-2.21-11.17-7.38-12.33-14.77-1.1-7-1.09-7-7.55-4.2-8.59,3.73-21.82,2.47-27.33-10.9-.36-.86-.59-1.78-1-2.64-1.56-3.87-1.81-4-5.64-3.1-3,.67-5.94,1.21-8.91,1.84a2.94,2.94,0,0,0-2.61,3.5c.21,2.33.57,4.66.6,7,.12,9.25-5.66,16.72-14.1,18.39-9.83,1.94-17.94-2.22-21.93-11-1-2.23-.39-5.85-3.31-6.43-2-.4-4.36,1.21-6.61,1.75-1.81.45-3.69.58-5.52,1-3.48.73-4,1.43-3.34,4.75.22,1.14.65,2.25.82,3.41a18.9,18.9,0,0,1-12.82,20.88c-8.68,2.94-18.11-1-22.52-9.46a12.28,12.28,0,0,1-.87-1.92c-1.9-6.14-3.5-5.34-8.19-3.38-.43.18-.9.27-1.34.43-2.38.86-5.67,1.09-6.89,2.79s-.49,4.88-.31,7.39a19.59,19.59,0,0,1-17,20.65c-10.71,1.44-19.74-5.12-22-16-.57-2.69-.78-5.45-1.15-8.18-3.06-.49-5,2.3-7.69,2.69-2.54.35-5.1.59-7.64.87-3.2.36-3.79,1.2-2.68,4,.6,1.52,1.4,3,1.94,4.51,3.8,10.71-1.68,21.54-12.66,25.09A19.15,19.15,0,0,1,458.3,1432c-3.15-10.62,2.56-21.49,13.05-24.44,2.65-.74,5.52-.7,8.29-1,1.83-.2,2.41-1.14,1.65-2.9-.83-1.92-1.93-3.76-2.6-5.74a19.3,19.3,0,0,1,16.6-25.49c2.19-.22,5.32,1.08,6.29-1.43.54-1.39-1.45-3.68-2.11-5.63-5.59-16.46,5.48-26.77,16.48-26.89,6.45-.08,6.63-.52,3.62-6.45a19.31,19.31,0,0,1,16-28.28,26.84,26.84,0,0,0,3.48-.38,1.79,1.79,0,0,0,1.47-2.59c-.44-1.32-1.19-2.54-1.64-3.87-4.7-13.94,1.85-24.7,14.24-27.86,5.77-1.47,5.76-1.5,3.94-7-4.17-12.67,1.21-23.76,13.65-28.08.88-.31,1.81-.45,2.71-.72a2.55,2.55,0,0,0,2-3.18c-.78-3.89-1.64-7.77-2.55-11.64-.33-1.42-1.47-1.69-2.73-1.37s-2.67.88-4,1.17c-10.29,2.2-20-3.55-22.31-13.21-2.58-10.69,3.36-20.44,14.08-23,1.35-.33,2.78-.35,4.15-.65,1.71-.37,2.27-1.45,1.4-3.14a36.3,36.3,0,0,1-3.62-11.29c-.51-3.48-1.42-3.81-4.76-3.08a40.26,40.26,0,0,1-8.22,1.44c-9.85.12-17.34-6.61-18.86-16.33-.37-2.38,1.09-5.89-1.89-6.82-1.77-.55-4.33,1.13-6.44,2-9.53,4.09-20.37-1.94-23.75-10.44a18.77,18.77,0,0,1,10-24.58,12.17,12.17,0,0,1,1.32-.47c5.41-1.55,6-2.25,3.7-7.86-1.15-2.74-1.25-5.91-1.9-8.86-.42-1.89-1.7-3.05-3.57-2.36-5.92,2.18-11.52.53-17.16-1.07Zm892.32,164.56c-.5,2.28.31,2.64,2.63,1.67,2.76-1.16,5.58-2.18,8.39-3.19,2.32-.84,5.15.85,7.2-1.41l-3.36-6.69c-.1-.2-.22-.41-.3-.62-3.08-7.81-2.34-7.62-12-4.74-.23.06-.44.15-.67.21-1.87.52-2.54,1.79-2.43,3.67C1380.36,1245.7,1380.49,1249.4,1380.65,1253.1ZM520.54,1376v0c-1.61.1-3.24.16-4.85.32-3.66.36-4.06,1.1-2.62,4.3,1,2.3,2,4.65,2.85,7,1,2.71-.73,6.11,2.14,8.34l8.28-3.23c.43-.17.84-.39,1.27-.57,1.58-.68,1.84-2,1.47-3.43-.82-3.37-1.77-6.71-2.51-10.09-.48-2.27-1.79-3.07-4-2.86C521.92,1375.86,521.23,1375.9,520.54,1376Zm642-765.64c2.2-.11,4.07-.12,5.92-.32s2.65-1.35,1.91-2.88a26.92,26.92,0,0,1-2.2-15c.12-1.09-.73-2.05-1.72-1.2a36.8,36.8,0,0,1-11.27,6.89,2.7,2.7,0,0,0-1.8,3.35c.2.91.49,1.8.71,2.7C1156.22,612.28,1156.59,610.9,1162.54,610.31ZM891.35,434.24a9.24,9.24,0,0,0-2.11.72,28.73,28.73,0,0,1-11.47,4.91,2.77,2.77,0,0,0-1.26.56c-1.88,1.59-.93,3.43-.23,5.1.92,2.2.49,5.84,4,5.73a73.69,73.69,0,0,0,12.37-1.88,3.13,3.13,0,0,0,1.59-2.58c-.38-3.68-1.06-7.34-1.73-11C892.39,435.24,891.76,434.78,891.35,434.24Zm50.34,79.25c0-.82.07-2.67,0-4.52-.13-2.88-1.07-3.37-3.36-2-2.55,1.56-5.11,3.12-7.75,4.52-3.37,1.8-3.53,2.06-2.21,6a33.22,33.22,0,0,0,1.2,3.25c1.38,3.1,2,3.58,5.31,3.06,7.9-1.22,8.47.28,7-8.61C941.81,515,941.8,514.75,941.69,513.49Zm492.54,720.21h-.09c0,1.4,0,2.8,0,4.19.07,2.44,1,3.22,2.92,2a26.36,26.36,0,0,1,11.07-4,2,2,0,0,0,1.74-3.07,74.74,74.74,0,0,0-3.9-7.41c-.41-.68-1.56-1.49-2.2-1.36-2.94.55-5.81,1.41-8.71,2.16-.28,2-.56,4-.82,6A10.9,10.9,0,0,0,1434.23,1233.7Zm-886.3-441c-.3-2.05.14-4.89-1-6-2-1.87-4.07,1.13-6.26,1.54s-4.59.83-6.86,1.34c-1.7.38-2.35,1.59-1.63,3.13,1.2,2.53,2.48,5,3.82,7.5.88,1.63,2.34,2,4.17,1.79C547.43,801.09,548,800.47,547.93,792.7Zm-10.6,230.36c-1.66-.16-2.36-.29-3.06-.29-1.93,0-2.48.93-1.71,2.68q2.1,4.8,4.17,9.61c1,2.41,1.69,2.7,4.37,1.88.45-.14.87-.33,1.31-.49,7.23-2.59,7.68-3.44,5.73-10.68-.94-3.45-1.48-3.89-4.82-3.54C541,1022.47,538.7,1022.86,537.33,1023.06Zm674.57,351.62c.15,1.79.27,3.18.38,4.58.53,6.49.52,6.49,6.4,4.44a18.39,18.39,0,0,1,4-1.19c5-.51,5.41-2.45,3.21-6.49-.56-1-1-2.14-1.47-3.18-1.82-3.58-2.2-3.77-5.94-3.07a30.17,30.17,0,0,0-3.42.75C1212.27,1371.36,1211.82,1372.06,1211.9,1374.68Zm-81-790.11c-.27-2.73-.46-4.8-.66-6.87-.47-4.69-.76-4.86-4.9-3.22a61.62,61.62,0,0,1-6.52,2.31c-4.94,1.35-5,1.29-3.17,5.64,3.4,8.31,2.33,7.21,11.09,5.26a4.44,4.44,0,0,0,2-.61A21.3,21.3,0,0,0,1130.9,584.57Zm-55.37,10.72h-.16c0-.46-.07-.93-.09-1.39-.41-7-.41-7-6.9-4.92-.66.22-1.33.42-2,.59-6.63,1.72-6.51,1.67-3.89,8.07,2.56,6.23,2.67,6.5,9.91,4.29.44-.14,1-.15,1.3-.45a8.23,8.23,0,0,0,1.76-2.73A13.28,13.28,0,0,0,1075.53,595.29ZM973.31,1473.93a28.54,28.54,0,0,0-.4,3.83c0,.61.32,1.52.76,1.72a2.57,2.57,0,0,0,1.9-.42c3.21-1.78,6.45-3.55,9.54-5.54a3.54,3.54,0,0,0,1.47-2.7c-1.06-7.8-4-9.76-11.66-7.93-2.48.6-3,1.29-2.71,3.9S973.05,1472.24,973.31,1473.93Zm-116.6-22.37a56.59,56.59,0,0,1,5.85-1.41c2.71-.36,5.46-.47,8.2-.68.15-3.31-2.82-5-4-7.72-2.65-6.25-2.85-6.2-9.13-3.94-3.86,1.38-4.15,1.83-3.75,6.15a30.38,30.38,0,0,0,.77,5.49C854.94,1450.32,856.08,1450.93,856.71,1451.56ZM601,780.59c-.13-1.15-.25-3-.59-4.86a2.36,2.36,0,0,0-3-2.15c-3.43.66-6.87,1.29-10.29,2-1.65.34-2.22,1.55-1.48,3.17,1.08,2.33,2.24,4.63,3.4,6.92,1.38,2.7,2,3,5,2.31,1.13-.28,2.26-.61,3.36-1C600.84,785.79,601.15,785.29,601,780.59Zm-69.53,342.23c.62,6.7.91,7.94,1.91,7.7a48.06,48.06,0,0,0,7.06-2.55c6.15-2.54,6.2-2.59,4.09-7.51-.79-1.85-1-4.73-3.43-4.83-2.93-.13-5.92.72-8.85,1.32-.43.09-.91,1.09-1,1.69A39,39,0,0,0,531.44,1122.82ZM430.56,821.08c-1.41.19-3.26.33-5.06.71-2,.4-2.58,1.53-2.05,3.6.85,3.36,1.79,6.69,2.7,10,.49,1.77,1.73,2,3.22,1.38,9.27-4.06,9.37-2,6.18-12.82C434.68,821,434.19,820.88,430.56,821.08Zm713.93,610.19c2.8-.43,4.85-.85,6.93-1,5.93-.51,5.93-.46,3.17-6.07a15.65,15.65,0,0,1-1.14-2.55c-1.83-6.65-3.24-6-9.12-3.58-3,1.22-3.39,2.12-3,5.44a23.85,23.85,0,0,0,1,5.49C1142.7,1430,1144,1430.74,1144.49,1431.27Zm148.32-100.48c4.73,0,8,.08,11.2-.09.43,0,1.28-1.48,1.1-2-.88-2.39-2.17-4.64-3.06-7-2.18-5.8-2.12-5.82-7.73-3.36-.86.38-1.69.81-2.56,1.15a3.19,3.19,0,0,0-2.3,3.8,25.64,25.64,0,0,0,1.62,6A3.09,3.09,0,0,0,1292.81,1330.79ZM713.92,1365.4c.54,8.55.54,8.55,8.27,5.48l1.31-.49c5.82-2.13,5.82-2.13,3.31-7.64-2.25-4.93-2.43-5-8-3.92a7.64,7.64,0,0,0-2.7.63,5.34,5.34,0,0,0-2.09,2.48A11.07,11.07,0,0,0,713.92,1365.4Zm417.84,98.44c1.53-.49,3.88,1.5,6-.34-1-2.06-2-4.09-2.86-6.17-.73-1.7-1.28-3.47-2-5.19a2.5,2.5,0,0,0-3.38-1.52,27.09,27.09,0,0,0-2.6,1c-5.27,2.11-5.49,2.66-4.59,8.28.65,4.05,2,5.35,6,4.37C1129.27,1464,1130.21,1464,1131.76,1463.84ZM768.84,651.67c-.36-2.9-.56-5.22-1-7.51-.34-2-1.32-2.57-3.53-2.22a8.14,8.14,0,0,0-2,.54c-2.68,1.21-6.12-.42-8.39,2.28,1.16,3,2.29,6,3.49,9a3.13,3.13,0,0,0,3.89,2.11,22.67,22.67,0,0,0,5.32-1.56C767.69,653.75,768.3,652.36,768.84,651.67Zm286,908.64c.37,2.27.63,4.57,1.15,6.81a2.11,2.11,0,0,0,3.15,1.62c2.35-1,4.65-2,7-3,4.15-1.72,4.67-2.7,3.43-6.72-.93-3-2-3.74-5.08-3.31-2.28.32-4.53.86-6.81,1.23A3,3,0,0,0,1054.84,1560.31ZM1277.46,1354c-2.24.66-4.5,1.26-6.72,2-3.84,1.22-4.13,1.64-3.79,5.4a17.44,17.44,0,0,0,.59,3.44,2.59,2.59,0,0,0,3.16,2.07c3.45-.59,6.9-1.14,10.31-1.9.73-.16,1.92-1.38,1.8-1.72a86.27,86.27,0,0,0-3.48-8.31C1279.11,1354.5,1278.16,1354.37,1277.46,1354ZM512.76,918.17a21.81,21.81,0,0,0-4.61.71,3.23,3.23,0,0,0-1.79,2.49,89,89,0,0,0,1.74,10.26,2.4,2.4,0,0,0,2.1,1.07,69,69,0,0,0,6.91-3.26c3.34-1.73,3.57-2.39,2.52-6.06C518.31,918.77,517.53,918.08,512.76,918.17Zm281.7,486.09c-.79-2.34-1.35-4.34-2.18-6.22-.33-.75-1.33-1.78-1.94-1.72-3.17.29-6.71.16-9.35,1.6-2.26,1.22.18,4.18.24,6.39a37.15,37.15,0,0,0,.5,4.82c.3,1.83,1.35,2.47,2.92,1.76a71.56,71.56,0,0,0,7.45-3.68C793.12,1406.59,793.7,1405.25,794.46,1404.26Zm-257.68-62.11c-6.6.07-6.56,0-3.62,5.71,1,1.86,1.63,3.86,2.49,5.77,1.17,2.6,2.2,3,5,2,.87-.32,1.69-.78,2.54-1.16,2-.89,2.62-2.38,2.47-4.52C545.09,1342.5,544.65,1342.07,536.78,1342.15Zm838.89-470.78c.66-.06,1.59-.13,2.51-.23a20.44,20.44,0,0,0,2.08-.31c2.88-.63,3.63-1.55,3-4.36-2.61-10.91-1.4-10.47-11.83-5.75a2.84,2.84,0,0,0-1.7,3.43,28.47,28.47,0,0,0,1.12,4C1371.79,871,1372.38,871.4,1375.67,871.37Zm-47.92,386.87c0,6.14,1.19,7,7.51,5.68a7.67,7.67,0,0,0,1.35-.36c2.05-.92,5.47,1,6.17-1.59.47-1.71-1.61-4.11-2.56-6.19-.19-.43-.38-.86-.6-1.26-1.65-3-2.2-3.2-5.6-2.31a22.14,22.14,0,0,0-2.65.86C1328.28,1254.31,1327.76,1255.09,1327.75,1258.24Zm162-104.51c-.17-2.29-.23-4.14-.47-6s-1.41-2.29-3-1.53c-2.5,1.17-5,2.43-7.45,3.65s-3,2.17-2,4.93c1.7,5,3,5.8,8.17,5,.91-.13,1.81-.34,2.73-.48,1.94-.29,2.87-1.29,2.45-3.33C1489.92,1155.12,1489.82,1154.2,1489.74,1153.73ZM906.26,1429.47c.16,1.34.29,3.46.7,5.51.33,1.65,1.55,2.24,3.18,1.67,2.42-.85,4.85-1.7,7.25-2.62,2-.78,2.49-1.79,1.84-3.8a24.33,24.33,0,0,0-1.07-2.59c-2.23-5.05-2.68-5.28-7.92-4.14C906.52,1424.3,906.12,1424.82,906.26,1429.47Zm-318.8-243-9.67,2.18c.7,2.67,1.38,5.34,2.1,8a16,16,0,0,0,.71,2c.67,1.61,1.92,1.89,3.43,1.38,1.1-.37,2.18-.81,3.24-1.27,5-2.17,5.52-3.36,3.77-8.58-.15-.45-.22-1-.53-1.28C589.55,1188,588.48,1187.27,587.46,1186.48Zm822.59-530.74c-.2-1.28-.37-2.43-.56-3.58-1.1-6.61-2-7.11-8.13-4.67-2.76,1.1-3.31,2-2.57,4.75a39.92,39.92,0,0,0,2,5.93c1.05,2.32,2.74,2.75,5.94,1.83C1409.64,659.17,1410.26,658.34,1410.05,655.74ZM558,1308.42c-7.42.23-7.41.23-4.27,6.67.51,1,1,2.1,1.42,3.17.75,1.82,2.06,2.46,3.89,1.77a16.79,16.79,0,0,0,4.4-2,5.26,5.26,0,0,0,2.07-3.3c.29-4.84-.88-7.64-6.12-6.38A9.18,9.18,0,0,1,558,1308.42ZM715.17,662.28c-.11-1.12-.18-1.81-.26-2.51-.49-4.78-.57-4.83-5-3.28l-2.63,1c-4.59,1.65-5.69,1.54-2.71,7.56a9.84,9.84,0,0,0,1.5,2.34,3.27,3.27,0,0,0,1.78.95C712.7,669.06,715.49,666.56,715.17,662.28Zm709.9,285.27c4.73-.53,7.21-.63,4.76-6.76-.42-1.06-.53-2.25-.85-3.36-1.15-4-2.25-4.58-5.89-3-3.07,1.32-3.63,2.16-3.07,5.29.33,1.81.92,3.59,1.41,5.37A3.11,3.11,0,0,0,1425.07,947.55Zm-260.16,448.76c.67-.09,1.14-.12,1.59-.22,1.14-.25,2.27-.53,3.4-.81,3.74-.94,3.95-1.26,2.69-4.57-.67-1.74-1.37-3.47-2.2-5.13a2.81,2.81,0,0,0-3.44-1.68,18.88,18.88,0,0,0-3.93,1.38c-2.34,1.27-2.25,9.32.08,10.61A6.69,6.69,0,0,0,1164.91,1396.31ZM571.43,1135.8c-.72.07-1.88.1-3,.29-2.72.45-3.59,1.52-3,4.35,1.72,8.12,1.07,8.52,9,4.87a7.39,7.39,0,0,0,1.82-1,3.6,3.6,0,0,0,1.15-1.65C578.29,1139.09,575.61,1135.78,571.43,1135.8ZM867.22,478.87c-.11-3.32-1.41-4.69-3.93-4.46a47.71,47.71,0,0,0-6.92,1.11c-2.79.67-3.24,1.76-2.32,4.68a15,15,0,0,0,.73,2c.8,1.7,2.1,2.51,4,1.87a41.27,41.27,0,0,0,6.52-2.51C866.3,481,866.81,479.47,867.22,478.87Zm622.48,735.24c.14,1.13.26,2.05.36,3,.08.69.1,1.39.22,2.08.45,2.58,1.26,3.09,3.83,2.43,7.28-1.86,8.39-5,3.93-11.23a3.6,3.6,0,0,0-1.56-1.29A5.06,5.06,0,0,0,1489.7,1214.11ZM1362.86,818c6.25-.26,6.92-1.28,4.67-7.14a6.23,6.23,0,0,0-1.17-2.47,4.43,4.43,0,0,0-2.87-1.24,11.76,11.76,0,0,0-3.92,1.3c-2.65,1.19-3.13,2.11-2.78,4.83C1357.3,817.2,1358.54,818.16,1362.86,818ZM492.7,807a20.6,20.6,0,0,0,0-2.08c-.25-2.6-1.21-3.34-3.62-2.61a55.72,55.72,0,0,0-6.52,2.36,2.9,2.9,0,0,0-1.57,2c-.24,5.45,4.45,8.55,9.29,6.29C492.94,811.71,492.74,809.33,492.7,807Zm617.14,690.15c4.5,0,5.77-1.59,3.85-5.45-.52-1-.9-2.15-1.38-3.2-.62-1.34-1.45-2.45-3.16-2.12-2.1.41-4.26.91-4.93,3.28C1103.06,1493.81,1105.68,1497.2,1109.84,1497.17Zm-97-13.85c-.49.07-1.19.15-1.87.27-3.23.59-3.81,1.45-3.22,4.84.13.69.33,1.36.49,2,1,4.43,1.68,4.77,5.56,2.94.64-.3,1.25-.64,1.88-1,2-1,2.53-2.55,1.94-4.65C1016.76,1484.66,1015.46,1483.35,1012.88,1483.32ZM628.54,1359.85c0,3.33,1.24,5,3.53,4.85,4.63-.27,7.31-1.77,7.07-4-.37-3.29-2.43-6-4.67-6C630.77,1354.63,628.5,1356.59,628.54,1359.85Zm194.63,57.92c-.63.08-1.55.14-2.45.33-2.4.5-3.13,1.44-3.06,3.79.17,5.71,2.08,6.92,7.38,4.66l.62-.3c2.35-1.12,2.86-2,2.31-4.27C827.19,1418.82,826,1417.72,823.17,1417.77Zm-248-43.41c0,.28.08,1.2.25,2.09.51,2.63,1.72,3.4,4.43,2.88,5.59-1.07,6.12-2.14,3.58-7.28a19.73,19.73,0,0,0-.92-1.84c-1.2-1.91-2.54-2.25-4.69-1.48C575.39,1369.61,575.1,1371.54,575.19,1374.36Zm3.5-99.31c-5.38,0-5.44,2-3.93,5.32a16.25,16.25,0,0,0,1.75,3.74,3.89,3.89,0,0,0,2.87,1.28c3.12-.26,4.87-2.19,4.75-4.79C584,1276.65,582.41,1275.07,578.69,1275.05Zm825-293.36c1.06-.1,1.53-.13,2-.2,1.15-.17,2.31-.32,3.46-.54,2.78-.53,3.26-1.25,2.38-3.72a38.64,38.64,0,0,0-1.68-3.85,2.64,2.64,0,0,0-3.54-1.37,15.12,15.12,0,0,0-4.37,2.11c-1.7,1.34-1.53,3.41-.68,5.13C1401.76,980.34,1403,981.07,1403.66,981.69ZM1454,1134.36c0-.08,0-.78-.12-1.47-.49-3.74-1.68-4.51-5.07-2.94-1.62.76-3.53,1.66-4.43,3.06-1.07,1.66.08,3.64,1.38,5,1.67,1.8,3.84,1.35,5.87.75C1453.45,1138.25,1454.05,1136.77,1454,1134.36ZM566.24,997c-.06-3.23-1.65-5.11-4.34-5.13-3.18,0-5.23,1.25-5.23,3.23,0,3.57,1.73,6.69,3.67,6.57C563.55,1001.45,566.28,999.28,566.24,997Zm613.24-340.47c-.11-3.38-1.23-5.52-2.91-5.58-3.11-.1-6.8,2.47-6.68,4.65.19,3.26,2.16,5.14,5.27,5S1179.56,659.21,1179.48,656.52Zm172.81,9.7c-.08-.64-.2-1.8-.41-2.94a2.81,2.81,0,0,0-3.43-2.59c-5.49.55-6.37,2.29-3.63,7.27.11.2.23.4.35.6,1.2,1.94,2.62,2.49,4.68,1.89C1351.74,669.9,1352.36,668.55,1352.29,666.22Zm-139.89,8c-.11-3.89-1.66-5-5.2-3.66a8.25,8.25,0,0,0-2.47,1.16,3.88,3.88,0,0,0-1.4,2.19c-.31,2.72,1.8,5.37,4.07,5.38C1210.85,679.35,1212.5,677.69,1212.4,674.27Zm188.13,392.27c3.09.07,4.75-.85,4.9-2.72.24-3-1.24-6.29-2.92-6.51-2.5-.34-6.32,2.16-6.41,4.2C1396,1064.52,1397.68,1066.48,1400.53,1066.54ZM666.12,729.73c-.78.1-1.71.17-2.62.34-2.49.44-3,1.44-2.21,3.92a18.16,18.16,0,0,0,.76,1.94c1.48,3.09,3.09,3.62,6.12,2.05,2.21-1.15,2.76-2.55,2-5.21C669.58,730.45,668.61,729.7,666.12,729.73ZM468.85,850.41c-.19-3.41-2.14-5.72-4.75-5.62-2.89.12-4.22,1.29-4,3.53.41,4.26,1.85,6.47,4,6.17C467,854.09,469,852.4,468.85,850.41ZM898.6,502.07c1.55-.16,2.24-.18,2.92-.31,3.16-.61,4.25-2.38,3.39-5.48-.72-2.6-2.14-3.09-5.43-1.79a17.38,17.38,0,0,0-3.09,1.52,2.43,2.43,0,0,0-.73,3.62A13.24,13.24,0,0,0,898.6,502.07Zm88.59,89.49c0-2.95-1.05-4.86-2.66-4.94-2.6-.14-5.64,1.91-5.71,3.84-.1,2.64,1.56,4.76,3.76,4.82C985.55,595.37,987.2,594,987.19,591.56ZM651.53,767.06c0-2.62-1.32-4.23-3.56-4.25-3.16,0-5.58,1.39-5.42,3.17.24,2.54,2.22,4.95,4.1,5C649.46,771,651.51,769.34,651.53,767.06Zm364.34-153c.46-.08.92-.13,1.36-.24,2.65-.71,3.68-2.55,3-5.31-.57-2.21-2.14-2.79-5-1.86a10.25,10.25,0,0,0-1.3.5c-1.62.77-2.65,1.87-2.06,3.84A3.87,3.87,0,0,0,1015.87,614.05Zm-332.41,730.3c-.05,2.82,1,4.82,2.71,5,2.2.2,4.78-1.3,5-2.87.29-2.66-1.6-5.65-3.7-5.84A3.55,3.55,0,0,0,683.46,1344.35Zm615.23-664.86a12.74,12.74,0,0,0-.64-2.58c-.21-.52-1.11-1.24-1.49-1.13-1.89.53-4,.94-5.42,2.16-.64.56,0,3,.52,4.35.83,2.09,2.38,2.65,4.42,2.11C1298.27,683.82,1298.85,682.25,1298.69,679.49ZM546.4,947.64a29.88,29.88,0,0,0,4.06-1.81c1.76-1.14,1.63-4-.11-5.33a4.86,4.86,0,0,0-5.77.29c-1.46,1.36-1,3-.36,4.49C544.6,946.18,545.61,946.82,546.4,947.64Zm843.93-255.92a22.66,22.66,0,0,0-1.51-4.69,3.39,3.39,0,0,0-2.68-1.44,3.58,3.58,0,0,0-2.58,1.84,5,5,0,0,0,1.26,5.65c.84.7,2.5.69,3.73.53C1389.19,693.53,1389.7,692.43,1390.33,691.72Zm-305.07,838c1.86-.56,3.55-.78,4.9-1.57a3.22,3.22,0,0,0,1.23-2.75c-.2-.88-1.48-2.21-2.2-2.16a13.21,13.21,0,0,0-5.23,1.56,3.15,3.15,0,0,0-1.06,2.84C1083.13,1528.5,1084.42,1529.05,1085.26,1529.74Zm308.25-610c.32-2.35-.84-4.78-2.41-5.06a3.79,3.79,0,0,0-4.09,2.78c-.27,2.19,1.15,4.42,3,4.69A3.11,3.11,0,0,0,1393.51,919.73Zm-8,93.58c2.65,0,4.16-.79,4.32-2.37.21-2.25-1.37-4.39-3.26-4.39-2.35,0-4.21,1.44-4.39,3.4S1383.25,1013.27,1385.49,1013.31ZM603.2,1245.76c0-1.92-1.47-3.08-3.77-3-2.1,0-3.35,1-3.4,2.59,0,2.08,1.3,3.93,3,4C601.2,1249.46,603.23,1247.74,603.2,1245.76Zm800.39-37c.25,1.25.34,2.18.62,3.06a2.8,2.8,0,0,0,5.42-1.22,8.57,8.57,0,0,0-.82-2.63c-.68-1.32-1.77-2.42-3.32-1.59C1404.63,1206.87,1404.16,1208.05,1403.59,1208.79ZM950.45,568.27c-3-.15-5.17,1.24-5.38,3a3.11,3.11,0,0,0,2.83,3.22c2.44.22,4.4-1.21,4.09-3.27A9.28,9.28,0,0,0,950.45,568.27Zm235,791.55c.59-.51,2-1.17,2.38-2.19.71-2.13-1.09-4.61-3-4.51a2.69,2.69,0,0,0-2.72,2.59C1181.9,1358,1183,1359.67,1185.5,1359.82Zm171-135.59c-.23-2.14-1.68-3.71-3.39-3.64-1.56.06-2.66,1.57-2.51,3.45s1.32,3.25,2.89,3.21A2.94,2.94,0,0,0,1356.5,1224.23ZM882.41,1410.88c.28-2.73-1.48-5.06-3.37-5-1.67.07-2.44,1.15-2.52,2.73-.1,2.32,1.17,4.23,2.86,3.92C880.56,1412.34,881.6,1411.35,882.41,1410.88Zm359.5-69.21a3.15,3.15,0,0,0-2.92-3.25,3.11,3.11,0,0,0-3.41,2.74c-.08,1.5.45,2.78,2.1,3.13C1239.68,1344.72,1241.78,1343.37,1241.91,1341.67ZM837.67,601.55a2.94,2.94,0,0,0-3.17-2.88c-1.91,0-3.18,1.29-3,3a3,3,0,0,0,3.11,3A3.16,3.16,0,0,0,837.67,601.55Zm-149,95.65c-1.1.18-1.78.26-2.44.4-2.39.51-3.3,1.53-2.72,3,.75,1.9,2.24,2,3.93,1.54.65-.19,1.51-.33,1.85-.8a5.07,5.07,0,0,0,1.08-2.82C690.38,698,689.17,697.53,688.71,697.2ZM574.25,812.38c-.45.62-1.68,1.57-1.78,2.62a3.54,3.54,0,0,0,3.22,3.73c1.54,0,2.59-1.58,2.33-3.51S576.59,812.13,574.25,812.38Zm531.83-196.1a2.62,2.62,0,0,0-3.07-2.82c-1.43.16-2.76.6-2.88,2.36a3.43,3.43,0,0,0,3.19,3.73A2.94,2.94,0,0,0,1106.08,616.28Zm38,20.41c-.67-.47-1.62-1.67-2.66-1.76-2.16-.19-4.06,1.63-3.56,3.21a3.49,3.49,0,0,0,2.3,2C1142.52,640.53,1144.12,639.2,1144.12,636.69ZM500.28,867.14c-2.47.17-3.66,1.5-3.44,3.2a2.36,2.36,0,0,0,2.8,2.29c1.81-.14,3.32-1.68,2.78-3.12C502,868.46,500.83,867.71,500.28,867.14ZM746.41,684.21a23,23,0,0,0-2.52-3.86c-.33-.34-1.84,0-2.43.47-1.27,1-1,3.07.66,4.86a2.79,2.79,0,0,0,2.33.76C745.13,686.24,745.56,685.23,746.41,684.21ZM816,638.55c.53-.63,1.7-1.46,2-2.52a2.67,2.67,0,0,0-2.47-3.36c-1.47-.11-2.75.4-3.09,2C812.06,636.43,813.67,638.44,816,638.55Zm644.08,552.14c-.33.85-1.12,2-1.11,3.11,0,2.13,1.32,3.28,2.9,3s2.1-1.57,1.86-3.09C1463.41,1191.64,1462.17,1190.42,1460.08,1190.69ZM604.25,1162.1c2.85.08,4.79-1.07,4.87-2.72.07-1.37-.86-2.06-2.19-2.16-2.5-.2-4.28.81-4.09,2.57C602.93,1160.7,603.87,1161.52,604.25,1162.1Zm-43.41-76.28a10.17,10.17,0,0,0-1.1-2.83c-.51-.61-1.89-1.33-2.16-1.11a5.33,5.33,0,0,0-1.57,2.6,3.18,3.18,0,0,0,.55,1.94c.55,1.09,1.41,2,2.71,1.3C560,1087.35,560.34,1086.45,560.84,1085.82ZM1340.71,849c1.15-.18,2.06,0,2.46-.44.72-.7,1.67-1.79,1.56-2.58s-1.31-1.71-2.22-2a3.25,3.25,0,0,0-2.51.74c-.62.5-1.34,1.64-1.16,2.21C1339.13,847.82,1340.16,848.45,1340.71,849Zm27.07-127c-1.35,1.19-2.61,1.84-3.12,2.87-.7,1.38.87,3,2.66,3,1.46,0,2.89-.62,2.61-2.31C1369.74,724.45,1368.7,723.48,1367.78,722Zm49.32,393.65c-.24-.82-.24-1.5-.51-1.63-.76-.37-1.8-.92-2.41-.66a11.46,11.46,0,0,0-3,2.35c-.13.12.18,1.11.38,1.14a12.67,12.67,0,0,0,3.81.3C1416,1117.07,1416.61,1116.13,1417.1,1115.68Zm-133.78,155.55c-1.34-.92-2.12-1.82-3-2a1.93,1.93,0,0,0-2,2.68,3.21,3.21,0,0,0,2.43,1.61C1281.46,1273.48,1282.17,1272.29,1283.32,1271.23Zm-509.26,74.6c-1.12,1.36-2.08,2.05-2.35,3a2,2,0,0,0,2.27,2.6c.9-.21,2.31-1.34,2.25-1.91C776.11,1348.4,775.08,1347.43,774.06,1345.83ZM858,568c-1.05-1.09-1.53-2-2.23-2.23-1.45-.5-3,0-3.35,1.51-.15.73,1,2.48,1.62,2.47C855.13,569.77,856.25,568.86,858,568Zm193.72,938.35c-2.33-.47-3.55-1-4.72-.87a1.9,1.9,0,0,0-1.7,2.47,1.76,1.76,0,0,0,2.6,1.34C1048.93,1508.85,1049.79,1507.88,1051.67,1506.39ZM1049,627.28c-.51,1.88-1.18,3-.93,3.8a3.94,3.94,0,0,0,2.13,2.24c1.08.42,2-1.44,1.41-3.09C1051.27,629.36,1050.32,628.73,1049,627.28ZM1244.5,696l-2.93-2.83c-.57.64-1.54,1.22-1.63,1.92-.27,1.94,1.34,3.75,2.64,3.16C1243.26,698,1243.67,697,1244.5,696Zm-279,714.49c-.83,1.55-1.6,2.37-1.68,3.26a1.76,1.76,0,0,0,2.05,2c1.27-.13,2.17-1,1.8-2.25C967.41,1412.67,966.55,1411.94,965.49,1410.51ZM1347,756.68c-.8,1.34-1.52,2.15-1.7,3.07-.06.3,1.26,1.23,2,1.26,1.28,0,2.24-.82,1.82-2.2C1348.9,758.13,1348,757.66,1347,756.68ZM799,670c-1.11-.79-1.73-1.52-2.49-1.72-1.09-.28-2.17,1.26-1.57,2.34a2.74,2.74,0,0,0,2,1.34C797.51,671.94,798.06,670.93,799,670ZM524.43,830.81c-1.29-1.1-2.15-1.89-3.11-2.55-.06,0-1.12.86-1.16,1.37-.1,1.41.26,2.87,2,3C522.69,832.68,523.33,831.72,524.43,830.81Zm777.33,406.83a11.82,11.82,0,0,0-2.52-2c-.3-.11-1.42.82-1.37,1.13a3.11,3.11,0,0,0,1.2,2.1C1299.51,1239.07,1300.44,1238.28,1301.76,1237.64ZM628.19,799.06c-.73,1-1.48,1.65-1.37,2a14.42,14.42,0,0,0,1.52,2.73c.54-.58,1.59-1.23,1.52-1.72C629.73,801.15,629,800.33,628.19,799.06Zm-4.62,413.21c-1.53-.85-2.27-1.59-2.93-1.53a2.58,2.58,0,0,0-1.9,1.43c-.13.49.9,1.86,1.3,1.82C621,1213.88,621.85,1213.16,623.57,1212.27Zm-46.34-165.48c-.86,1.21-1.66,2-1.88,2.83-.08.34,1.15,1.37,1.85,1.43a1.74,1.74,0,0,0,2.08-2C579.16,1048.34,578.21,1047.81,577.23,1046.79ZM1358.5,898.67c-1.63-.52-2.5-1.11-3.1-.9s-1.15,1.17-1.71,1.8c.72.37,1.47,1.08,2.16,1S1357.14,899.71,1358.5,898.67ZM743,1329.62a18.22,18.22,0,0,0-2.83-2c-.13-.05-1.08,1.06-1,1.35a3.07,3.07,0,0,0,1.53,1.62C741.12,1330.78,741.84,1330.15,743,1329.62ZM599.92,1338l-2.11-2.45c-.45.39-1.35,1-1.28,1.16a17.56,17.56,0,0,0,1.55,2.59Zm210.32,30.34c-.71-.91-1.12-1.77-1.42-1.73a8.07,8.07,0,0,0-2.16.92c.29.52.55,1.44.89,1.47A9.5,9.5,0,0,0,810.24,1368.32Zm189.48,63.1c-.52.61-1.21,1.08-1.22,1.56s1,1.24,1.19,1.15a8.34,8.34,0,0,0,1.61-1.54ZM879,533.47c-1.35-.34-2.08-.79-2.51-.58a8.27,8.27,0,0,0-1.9,1.67c.58.24,1.24.78,1.72.64A12.22,12.22,0,0,0,879,533.47Zm383.62,770.73c-1.23-.29-2-.69-2.64-.55-.44.09-.71.94-1.06,1.45a6.47,6.47,0,0,0,2.08.86C1261.4,1306,1261.81,1305.15,1262.65,1304.2Zm-328.88,89.38-1.53-1.42-1.4,1.7c.48.37,1,1,1.45,1S933.17,1394.14,933.77,1393.58Zm179.94,9.19c-.67-.55-1.13-1.24-1.61-1.25s-1,.66-1.47,1a8.72,8.72,0,0,0,1.6,1.56C1112.38,1404.2,1113.07,1403.36,1113.71,1402.77ZM914.28,550.13l-2,3c.36.23.85.73,1.07.63a4.24,4.24,0,0,0,1.86-1.33C915.42,552.14,914.81,551.33,914.28,550.13Zm-378,338.17c-.92-.26-1.62-.68-2.09-.51s-.68,1-1,1.46c.55.25,1.18.78,1.62.66S535.64,889,536.27,888.3Zm56.59,216.23c-.22.32-.61.64-.59.94s.52.46.81.68c.22-.31.62-.63.61-.94S593.16,1104.76,592.86,1104.53Zm498.77,333.64,1.48-1.09-1.18-1.31a10.93,10.93,0,0,0-1.29,1.35A8.24,8.24,0,0,0,1091.63,1438.17Zm40.37-69.29c-.18-.35-.28-.89-.57-1s-.76.15-1.15.25l.74,1.45Zm195.67-576.52a7.05,7.05,0,0,0-1.82-.17c-.23,0-.37.65-.55,1a7.58,7.58,0,0,0,1.73.39C1327.2,793.58,1327.38,792.93,1327.67,792.36ZM583.05,962.56c.14-.34.27-.68.4-1a3.16,3.16,0,0,0-.56-.17,9,9,0,0,0-.43,1ZM1204,1320.27l.46.08-.15-.43Zm-359.81,67.6c-.15-.36-.21-.89-.47-1s-.69.21-1.05.34c.15.37.2.91.46,1S843.8,1388,844.16,1387.87ZM488.33,1088.54c-2.54-.33-5.08-.69-7.62-1-11.41-1.33-22.06,7.91-20.14,21.55,1,6.78,4.64,11.74,11,14.2s12.79,2.25,18.49-2.28c8.6-6.84,10-18.09,3.19-26.7-1.59-2-3.33-3.89-5-5.84ZM879.57,364.06c-.06-10.31-7.87-17.69-18.34-18-9-.28-18.22,7.72-17.83,18.38.39,10.84,7.31,17.89,18.19,17.84C872,382.22,879.63,374.46,879.57,364.06ZM336.52,777.19a17.62,17.62,0,0,0-17.6,17.91c-.05,10.29,7.73,18,18.19,18s17.86-7.54,17.75-18.23C354.74,784.35,347.13,777,336.52,777.19Zm121.17,666c-9.2-.36-17.74,7.81-17.91,17.12-.16,9.12,8.44,17.86,17.41,17.72A17.19,17.19,0,0,0,474,1460.81C474.15,1451.18,467.08,1443.56,457.69,1443.2ZM668.25,602.39c-9.21-.35-17.72,7.77-17.88,17.06-.15,9.08,8.43,17.82,17.37,17.68a17.39,17.39,0,0,0,.51-34.74Zm433.2,1109.27c9.86-.07,16.86-7,16.76-16.65s-7.07-16.66-16.79-16.71c-9.92,0-16.52,6.63-16.52,16.71S1091.53,1711.73,1101.45,1711.66ZM487,983.62c.14,9.72,6.66,16.23,16.27,16.25,9.79,0,16.89-7,16.91-16.58a16.36,16.36,0,0,0-16.89-16.63C493.35,966.76,486.81,973.57,487,983.62Zm648.46-477c-8.85.15-16.29,7.85-16.3,16.88a17.07,17.07,0,0,0,16.94,17c7,0,16.5-6.35,16.13-16.87A16.77,16.77,0,0,0,1135.41,506.62ZM607.91,706.09a16.64,16.64,0,0,0-16.54,16.61c.17,11.43,9,17,16.88,17,9-.09,16.14-7.8,16-16.95C624.53,712,615.2,706.13,607.91,706.09ZM1170,559.9c8.79.43,16.61-7.44,16.81-16.4.21-8.79-7.5-17-16.28-16.91-9.89.13-16.88,7.71-16.6,16.34C1153.49,552.87,1161.47,559.49,1170,559.9Zm317.08,358.37c-.13,8.75,7.08,17,16.08,16.89,9.53-.09,16.51-6.58,16.71-16s-6.56-16.72-15.83-16.88A16.49,16.49,0,0,0,1487.06,918.27Zm-693.43,544c.48-8.83-7.16-16.53-16.18-16.75a16,16,0,0,0-16.55,16.12c-.14,9.48,6.64,16.59,15.9,16.69C786,1478.67,793.12,1471.53,793.63,1462.29Zm442.19-845.61c.1-8.93-7.66-16.27-16.72-16.23s-16.11,7.27-16,16.67,7.05,16.28,16.44,16.14C1228.66,633.39,1235.71,625.79,1235.82,616.68Zm252.88-18.22A16.25,16.25,0,0,0,1505,615c9.31,0,16.21-7,16.17-16.44a16.19,16.19,0,0,0-16.49-16.27A16.39,16.39,0,0,0,1488.7,598.46ZM1121.27,1677.13c8.8-.05,16.44-8,16.23-16.83s-7.07-15.67-16.25-15.8c-9.55-.12-16.4,6.63-16.38,16.15A16.3,16.3,0,0,0,1121.27,1677.13ZM525.7,1234.66a16.32,16.32,0,0,0,15.93,16.21c9.39.25,16.42-6.56,16.53-16a16.18,16.18,0,0,0-16.08-16.67A16.37,16.37,0,0,0,525.7,1234.66Zm-206.8-459a16.2,16.2,0,1,0-32.39-.34,16.11,16.11,0,0,0,16.33,16.47A16.3,16.3,0,0,0,318.9,775.68ZM1509.23,563.82c-.21,9.43,6.62,16.42,16,16.41s16.3-6.56,16.29-15.53c0-9.14-6.93-16.79-16.17-16.47C1516.2,548.17,1509.43,554.71,1509.23,563.82Zm83.41,626.41c-.05-9-6.92-15.77-16.12-15.79s-15.71,6.63-15.65,16,6.53,15.79,15.93,15.74A15.47,15.47,0,0,0,1592.64,1190.23ZM674.1,1419.12c8.6,0,16-7.88,15.82-16.44a16.7,16.7,0,0,0-15.75-15.86c-8.6-.26-15.83,7.12-15.84,16.16C658.29,1413.53,666.34,1419.13,674.1,1419.12Zm117.64,113.73c8.45,0,16-7.66,16-16.19,0-8.28-7.18-16-15.41-16-8.05,0-16,5.55-16.07,15.74C776.16,1525.47,783.09,1532.84,791.74,1532.85Zm211.66-1.6a15.76,15.76,0,0,0-15.79,15.42c-.3,8.34,6.81,15.67,15.33,15.82a15.62,15.62,0,0,0,.46-31.24ZM648.84,600.07a15.1,15.1,0,0,0-15.55-15.39c-9,0-15.51,6.44-15.52,15.33s6.47,15.32,15.49,15.36S648.8,609,648.84,600.07Zm404,1005.66a15,15,0,0,0-15.15,11.14c-1.89,7.86,1.23,15.16,7.9,18.45a15.38,15.38,0,0,0,17.53-2.83,15.71,15.71,0,0,0,3.26-17.5,80.13,80.13,0,0,0-4.24-7.25l-2.35-1.17C1057.44,1606.28,1055.13,1605.81,1052.81,1605.73Zm572.43-357c-9-.12-15.73,6.39-15.78,15.23a14.88,14.88,0,0,0,14.89,15.36c9.11.24,16-6.08,16.08-14.82C1640.54,1255.46,1634.17,1248.84,1625.24,1248.72ZM1485.47,648.59c8.68-.11,15.06-6.93,14.9-15.94-.15-8.55-6.71-15.21-15-15.21a15.58,15.58,0,0,0,.08,31.15ZM846.4,325.72a15,15,0,0,0,15.24-14.89c.28-9-6.07-16.05-14.63-16.26a15.58,15.58,0,0,0-.61,31.15Zm-319.21,839.2c-8.27,0-14.82,6.66-15,15.22-.15,9,6.21,15.82,14.91,15.93a15.58,15.58,0,0,0,.06-31.15Zm807.16,190.92c-8.27,0-14.82,6.68-14.95,15.23-.14,9,6.23,15.82,14.93,15.91a15.57,15.57,0,0,0,0-31.14ZM1448.91,988c.26,8.77,7,15,16,14.72s14.46-6.15,14.4-15.35-6.26-15.25-15.45-15.14A14.92,14.92,0,0,0,1448.91,988Zm-242.54,431c-8.39-.2-15.57,6.91-15.71,15.56a15.35,15.35,0,0,0,15.56,15.54c8.31,0,14.74-6.76,14.77-15.44S1214.65,1419.22,1206.37,1419ZM1323.1,622.1a14.88,14.88,0,0,0-15.34-14.82c-9.16.05-15.22,6.34-15,15.62.17,8.94,6.22,14.87,15.13,14.8S1323.3,631,1323.1,622.1Zm287.84,603.39a15.38,15.38,0,0,0,15.31-15.73c-.11-8.22-7.13-15.3-15.14-15.28-8.66,0-15.22,6.87-15.11,15.78A15.08,15.08,0,0,0,1610.94,1225.49ZM1405.06,824.81c0,8.81,6,14.75,14.87,15,10.17.32,15.7-8.54,15.49-15.34-.26-8.48-6.66-15-15.11-15C1411.16,809.4,1405.07,815.54,1405.06,824.81ZM510.88,1431.34a15.09,15.09,0,0,0-15.13,15c-.21,6.85,5.36,15.67,15.48,15.35,8.87-.27,14.89-6.19,14.88-15C526.11,1437.43,520,1431.29,510.88,1431.34Zm906-853.11c-7.81-.29-15.3,6.95-15.54,15-.25,8.49,6.9,16,15.28,16a15.12,15.12,0,0,0,14.92-15.36C1431.56,585.23,1425.28,578.54,1416.84,578.23Zm104.85,681.12a15.12,15.12,0,0,0,15.08,15.2c7.88-.07,15.18-7.56,15-15.57-.18-8.4-6.83-14.63-15.37-15.25C1526.88,1244.45,1521.65,1251.42,1521.69,1259.35ZM836.23,433c0-8.62-6.49-15.12-15-15A15,15,0,0,0,806.18,433c.09,6.58,5.06,15.34,15.13,15C830,448,836.24,441.62,836.23,433ZM1450.6,666.57c0,6,2.27,11,7.76,13.93s10.8,2.83,15.89-.76a15.22,15.22,0,0,0,4.33-20A14.93,14.93,0,0,0,1459,654a75.33,75.33,0,0,0-6.56,4c-.39.77-.77,1.55-1.16,2.32A49.39,49.39,0,0,0,1450.6,666.57Zm-289.25,871.36a15.1,15.1,0,0,0-15-15.14,14.69,14.69,0,0,0-14.76,14.51c-.2,8.63,6.12,15.35,14.5,15.42A14.9,14.9,0,0,0,1161.35,1537.93Zm98.35-103.17a14.73,14.73,0,0,0,15.21-14.89,15,15,0,0,0-14.5-15c-8.46-.16-15,6.31-15.11,15A14.6,14.6,0,0,0,1259.7,1434.76ZM614,619.75c-8.59-.15-15.46,6.39-15.43,14.69,0,7.78,6.91,14.87,14.67,15.09a14.73,14.73,0,0,0,15.13-15C628.41,626,622.42,619.89,614,619.75Zm-154.58,467c.24-8.31-6.57-15-15.18-15s-14.54,6.16-14.53,14.65,6.08,14.56,14.59,14.61A14.67,14.67,0,0,0,459.4,1086.76Zm278-481.9c-.06-8.39-6.91-14.77-15.6-14.54-8.43.23-14.32,6.51-14.12,15s6.4,14.32,15,14.19A14.69,14.69,0,0,0,737.37,604.86Zm90-275.22A14.34,14.34,0,0,0,812.57,344c-.23,9,5.79,15.48,14.37,15.45a14.91,14.91,0,0,0,.48-29.8Zm818,885.42c-8.66-.06-14.4,5.75-14.39,14.59s5.69,14.55,14.44,14.55c8.53,0,14.63-6,14.65-14.52A14.44,14.44,0,0,0,1645.38,1215.06ZM885.66,1486.94c-.12,8.54,5.81,14.91,14.07,15.12a14.86,14.86,0,0,0,.61-29.7A14.54,14.54,0,0,0,885.66,1486.94Zm491.05-878.11c.44-8.68-5.2-15.1-13.57-15.45a14.38,14.38,0,1,0-1.3,28.73C1370.32,622.45,1376.29,617.11,1376.71,608.83Zm-3.45,679.41a14.39,14.39,0,1,0,.92,28.76c8.28-.13,13.83-5.93,13.79-14.41S1381.79,1288.09,1373.26,1288.24Zm134-191.42c.16-8.61-5.67-14.79-14.06-14.9a14.34,14.34,0,1,0-.36,28.68C1501.05,1110.64,1507.09,1104.87,1507.23,1096.82Zm-887,305.89a14.66,14.66,0,0,0-14.8,14.52c.12,7.53,7,14.69,14.35,14.37,7.12-.32,14.28-5.41,14.21-14.3A14,14,0,0,0,620.26,1402.71ZM445.85,752.08a14.31,14.31,0,0,0-.11,28.61c8.2-.15,14.15-6,14.2-14.2A14.19,14.19,0,0,0,445.85,752.08Zm90.78,516.63c0-7.76-6.69-14.09-14.54-14a14.2,14.2,0,0,0-13.81,14.59,13.75,13.75,0,0,0,14.35,13.93C530.56,1283.38,536.57,1276.49,536.63,1268.71Zm545.28-745.4c-7.77,0-14.5,6.37-14.4,14.07s5.68,14.25,14,14.4a14.24,14.24,0,0,0,.4-28.47Zm-235.7,964.4a14.53,14.53,0,0,0-14.58,13.94,14.31,14.31,0,0,0,13.91,14.52,14.06,14.06,0,0,0,14.4-13.88A14.21,14.21,0,0,0,846.21,1487.71Zm501.89-76.16a14,14,0,0,0-13.82,13.82c-.06,8,6.06,14.05,14.23,14,8.35-.05,14.06-5.82,14-14.13S1356.43,1411.32,1348.1,1411.55ZM895.75,370.37a14.18,14.18,0,0,0-.08,28.35c8.12,0,13.85-6.06,13.72-14.48C909.27,376.22,903.47,370.33,895.75,370.37ZM566.07,1417.61a14.15,14.15,0,1,0,.24,28.3c7.7-.22,13.21-6.19,13.16-14.25S573.73,1417.71,566.07,1417.61Zm-82.71-385.82a14.15,14.15,0,1,0,.08-28.29c-7.64.13-13.3,6.13-13.32,14.12S475.68,1031.64,483.36,1031.79Zm1196.36,231.59a14.22,14.22,0,0,0,13.89-14.51c-.22-7.43-6.85-13.88-14.07-13.67a13.84,13.84,0,0,0-13.32,14.22C1666.27,1257.28,1672.18,1263.39,1679.72,1263.38Zm-985,159c-.14,8.45,5.5,14.16,13.91,14.08a13.31,13.31,0,0,0,13.61-13.79,13.51,13.51,0,0,0-13.71-13.76C700.47,1408.8,694.88,1414.25,694.75,1422.34Zm470.84,95.13a14.23,14.23,0,0,0,14.25-14.17c0-7.44-6.45-14-13.75-14a13.82,13.82,0,0,0-13.66,13.87C1152.34,1511.07,1158,1517.26,1165.59,1517.47Zm6.84-48.81a13.4,13.4,0,0,0,14,14c8-.08,13.48-5.63,13.48-13.72s-5.51-13.76-13.44-13.75S1172.6,1460.93,1172.43,1468.66Zm-738-579.28c.09-8-6-14-14.23-13.91-7.88.08-13.34,5.84-13.24,14s5.62,13.51,13.69,13.51A13.34,13.34,0,0,0,434.47,889.38Zm321.8,553.18c.11-8.14-5.41-13.93-13.34-14s-13.94,5.7-14.07,13.46A13.49,13.49,0,0,0,742.41,1456C750.53,1456.11,756.15,1450.66,756.27,1442.56ZM969,1513.22c-7.3-.08-13.9,6.38-14.08,13.78s6.12,14.2,13.46,14.25c5.79,0,13.87-4,13.86-13.61C982.32,1519.91,976.24,1513.31,969,1513.22Zm-545.41-406a13.94,13.94,0,0,0-13.29,13.65c0,7.78,5.95,13.6,13.92,13.61s13.47-5.8,13.33-13.94S431.53,1106.9,423.59,1107.2ZM567.7,737.43A14,14,0,0,0,553.54,724c-7.57.1-13,5.72-13.09,13.49-.07,8.12,5.52,13.85,13.48,13.78A13.66,13.66,0,0,0,567.7,737.43Zm602.2-248.57a13.91,13.91,0,0,0-14.21-13.33c-7.61.26-13,5.83-13,13.54,0,8.06,5.6,13.74,13.51,13.64C1163.78,502.62,1170.08,496.23,1169.9,488.86Zm388.85,41a13.91,13.91,0,0,0-13.93-13.61,13,13,0,0,0-13.26,13.26c-.15,8.06,5.39,13.91,13.23,13.94A13.92,13.92,0,0,0,1558.75,529.85ZM267.52,742.28c-7.1.28-13.25,6.88-13,14A13.94,13.94,0,0,0,269,769.41c7.51-.27,12.81-6.08,12.66-13.89A13.2,13.2,0,0,0,267.52,742.28ZM957.91,458.1a14,14,0,0,0-13.53-13.43,13.18,13.18,0,0,0-13.61,13.77c.08,7.74,5.61,13.34,13.2,13.38S958,465.5,957.91,458.1Zm-601.2,289A13.8,13.8,0,0,0,343,761.08c.23,7.2,6.52,13.45,13.57,13.48a13.72,13.72,0,0,0,13.49-14.07A13.39,13.39,0,0,0,356.71,747.15Zm997.78,576.31a13.32,13.32,0,0,0-13.72,13.58c0,7.94,5.71,13.62,13.65,13.5a13.55,13.55,0,0,0,.07-27.08ZM389.41,1475a13.67,13.67,0,0,0,13.72,13.88,13.33,13.33,0,0,0,13.24-13.48c0-7.65-5.47-13.21-13.22-13.32S389.63,1467.44,389.41,1475Zm713.8,274.77c0,7.79,5.57,13.57,13,13.47a13.49,13.49,0,0,0,0-27C1108.73,1736.24,1103.2,1742,1103.21,1749.74ZM921.07,1507.23c-.17,7.66,5.2,13.25,12.9,13.48,8.06.23,13.19-4.67,13.33-12.73s-4.9-13.43-12.65-13.54S921.23,1499.69,921.07,1507.23ZM469,977.05a13.24,13.24,0,0,0,13.19-13.37c0-7.13-6.2-13.53-13.17-13.53-7.41,0-13,5.75-13,13.45S461.56,977,469,977.05Zm1022.42,64.5a12.89,12.89,0,0,0-12.82-13c-7.7-.09-13.25,5.55-13.1,13.29a12.49,12.49,0,0,0,13,12.65A12.89,12.89,0,0,0,1491.46,1041.55ZM506,1161.1a12.9,12.9,0,0,0-12.59-13.23,13,13,0,1,0-.52,25.93A12.84,12.84,0,0,0,506,1161.1Zm-46.86-33.73c-7.05-.42-13.63,5.81-13.72,13-.08,6.76,6,13.22,12.69,13.4A13,13,0,0,0,471.21,1141C471.42,1133.69,466.22,1127.8,459.13,1127.37ZM512.91,752c.27-6.82-5.68-13.08-12.65-13.32-7.21-.25-12.77,5.16-13.06,12.65-.33,8.38,5.8,12.72,12.35,13.37C506.33,765,512.65,758.94,512.91,752Zm969.37,508.25a12.52,12.52,0,0,0-12.4,12.57c-.14,7.41,5.33,13.13,12.52,13.11a12.9,12.9,0,0,0,13.07-12.83C1495.46,1266.36,1489.19,1260.24,1482.28,1260.29ZM476.7,1052.12a12.06,12.06,0,0,0-12.11-12.6c-7.42-.21-13.08,5-13.32,12.28a12.84,12.84,0,0,0,12.62,13.12A12.49,12.49,0,0,0,476.7,1052.12Zm122-459.67a12.78,12.78,0,1,0-.21-25.56c-6.77.15-12,5.76-11.92,12.89S591.81,592.32,598.72,592.45Zm481,1082.62a12.39,12.39,0,0,0-12.64-12.22,12.26,12.26,0,0,0-12.7,12.76c.14,7.15,5.32,12.2,12.51,12.2C1074.31,1687.81,1079.93,1682.23,1079.76,1675.07ZM802.07,454.68c-6.83-.3-12.89,5.76-12.85,12.84a12.52,12.52,0,0,0,12.33,12.56,12.26,12.26,0,0,0,12.32-12.42C814,460.54,808.92,455,802.07,454.68ZM1441,1287.8a12.28,12.28,0,0,0-12.59-12.25c-7.34,0-12.13,4.91-12.08,12.45s4.82,12.26,12.3,12.22A12.17,12.17,0,0,0,1441,1287.8ZM434.83,1441c0-7.52-4.78-12.44-12.13-12.39a12.34,12.34,0,1,0-.11,24.68C430.05,1453.24,434.81,1448.47,434.83,1441Zm-51.73,56.4a12.34,12.34,0,1,0,.48,24.68c7.39-.12,12.06-5,11.95-12.58S390.5,1497.18,383.1,1497.35Zm118.61-181.74c7.09.05,12.6-5.14,12.75-12A12.27,12.27,0,0,0,502.3,1291c-7.27-.17-12.33,4.73-12.44,12C489.74,1310.59,494.44,1315.56,501.71,1315.61ZM1273.6,590.53a12.29,12.29,0,1,0-.51,24.58c7.38.19,12.29-4.55,12.41-12S1280.78,590.61,1273.6,590.53ZM437.72,1482.37c-6.61-.32-12.28,5.34-12.38,12.34a12.4,12.4,0,0,0,11.9,12.88c6.47.16,12.44-5.71,12.59-12.38A12.82,12.82,0,0,0,437.72,1482.37ZM754.37,570a12.26,12.26,0,0,0-12.47-11.64A12,12,0,0,0,730,571.16a11.66,11.66,0,0,0,12.29,11.57A12.26,12.26,0,0,0,754.37,570Zm527.75,870c-.14,6.61,5.77,12.71,12.36,12.74,6.39,0,11.78-5.5,12-12.21.23-8.76-6.63-12.35-12.11-12.74C1288.21,1427.76,1282.25,1433.72,1282.12,1440ZM1128.8,1625.29c-.48,7.21,4.5,12.8,11.6,13a12.21,12.21,0,0,0,12.61-11.51,12.54,12.54,0,0,0-11.44-12.78A12.06,12.06,0,0,0,1128.8,1625.29Zm-5.27,89.87c-.12,6.2,5.65,12.31,11.83,12.53a12.2,12.2,0,0,0,12.42-12.38c0-7-4.83-11.79-11.91-11.85A12.1,12.1,0,0,0,1123.53,1715.16Zm328.86-925.51c-.32-6.93-5.32-11.49-12.46-11.28a12.09,12.09,0,0,0-11.76,12.26c.26,6.31,6.31,12.16,12.38,12C1446.94,801.92,1452.76,797.68,1452.39,789.65ZM1216.52,562.81c0-7-4.85-11.8-12-11.8a12,12,0,0,0-12.15,11.92,12.52,12.52,0,0,0,12.26,12A11.8,11.8,0,0,0,1216.52,562.81ZM398,870.22a12.14,12.14,0,0,0-10.59-12.69,11.55,11.55,0,0,0-12.72,11c-.44,7.3,3.85,12.5,10.7,13A12,12,0,0,0,398,870.22Zm1316.49,411.46a12.06,12.06,0,0,0-.21-24.11c-6.77,0-11.69,5.15-11.63,12.2S1707.59,1281.82,1714.49,1281.68ZM1537.87,927.35c-6.86,0-11.79,5-11.69,11.95.09,6.66,4.7,11.27,11.44,11.44,7.13.19,11.82-4.36,11.89-11.54S1545,927.36,1537.87,927.35ZM832.2,244.22c-6.33-.34-12.11,5.44-12,12a12.12,12.12,0,0,0,11.58,11.81,11.58,11.58,0,0,0,11.51-11.67A11.79,11.79,0,0,0,832.2,244.22Zm623.47,589.2c-6.85-.56-12,3.62-12.57,10.24-.62,6.93,3.43,12.17,9.93,12.85,7.06.73,12.52-3.62,13.14-10.48A11.78,11.78,0,0,0,1455.67,833.42Zm215.41,450.71c.27-6.39-5.43-12.38-11.7-12.31a11.78,11.78,0,0,0-11.34,11.81c0,6.37,5.13,11.86,11.2,12S1670.82,1290.32,1671.08,1284.13ZM760.84,1550.91c-.08,7.11,4.72,11.89,11.77,11.74A11.48,11.48,0,0,0,784,1551a11.74,11.74,0,0,0-11.67-11.44C765.54,1539.52,760.9,1544.13,760.84,1550.91ZM1491.27,533.06c-6.68-.22-11.53,4.44-11.66,11.22s4.34,11.66,11.06,11.81a11.52,11.52,0,1,0,.6-23Zm-983.7,670.12A12.23,12.23,0,0,0,496,1214.92c0,6,5.56,11.77,11.54,11.81s11.47-5.47,11.4-11.75C518.83,1208.44,513.67,1203.07,507.57,1203.18Zm1031.48-87a11.75,11.75,0,0,0-11.35-11.76c-6.58-.2-11.44,4.51-11.56,11.22s4.44,11.67,11,11.73A11.71,11.71,0,0,0,1539.05,1116.19ZM573.73,691.75a11.44,11.44,0,0,0-.64,22.88c6.67.32,11.6-4.32,11.76-11.07S580.24,691.8,573.73,691.75ZM482.4,1326.26a11.45,11.45,0,0,0-.46,22.89c6.66.27,11.55-4.41,11.66-11.17S488.9,1326.26,482.4,1326.26Zm564.81-819.82a11.08,11.08,0,0,0-11.13,11.11c-.17,6.82,4.45,11.76,11.05,11.79a11.45,11.45,0,1,0,.08-22.9ZM605.54,668.88a11.86,11.86,0,0,0-11.67-11.57,11.27,11.27,0,0,0-11.18,11.14c-.17,6.45,4.95,12,11.08,12S605.49,674.93,605.54,668.88ZM431.17,1407a11.18,11.18,0,1,0,11.12-11.84A11.34,11.34,0,0,0,431.17,1407Zm547-940.17A10.66,10.66,0,0,0,967.37,478a11.17,11.17,0,0,0,11,11.3A11.48,11.48,0,0,0,990,477.87C989.94,471.34,984.93,466.63,978.17,466.79Zm39.65,1123.11c-6.46,0-11.07,4.59-11.11,10.94-.05,6.72,4.76,11.35,11.57,11.14,6.42-.2,11-4.94,10.92-11.21A11.25,11.25,0,0,0,1017.82,1589.9ZM881,318.44c-6.32-.1-11,5-10.83,11.89.13,6.14,4.52,10.69,10.43,10.8a11.26,11.26,0,0,0,11.47-11.44A11.62,11.62,0,0,0,881,318.44ZM1190.51,497.8c-6.47,0-11.09,4.6-11.1,11s4.53,11,11,11c6.8,0,10.9-4.06,10.92-10.88C1201.37,502.26,1197,497.76,1190.51,497.8ZM746.82,1495.09c-.59,6.59,3.36,11.72,9.59,12.46,5.71.68,11.57-4.29,12.09-10.25a11.65,11.65,0,0,0-10.21-12.2C752.65,1484.64,747.34,1489.26,746.82,1495.09ZM463,1361.22c-6.48-.18-11,4.26-11.06,10.81,0,6.31,4.1,10.75,10.21,11,6.51.21,11.44-4.23,11.57-10.43A10.72,10.72,0,0,0,463,1361.22Zm765.26-778.47c.13,6.46,5,11.24,11.17,11,5.57-.23,10.53-5.45,10.59-11.14,0-6-5.31-11.47-11.07-11.38C1232.82,571.32,1228.15,576.36,1228.27,582.75ZM781.76,490.87c-6.49-.22-11.07,4.18-11.15,10.72-.07,6.32,4,10.8,10.11,11.05,6.53.26,11.49-4.14,11.66-10.33A10.73,10.73,0,0,0,781.76,490.87ZM761.48,525A10.89,10.89,0,0,0,751,535.91c-.11,6.46,4.45,11.41,10.59,11.49,5.75.07,11.12-5.38,11.11-11.28S767.31,524.88,761.48,525Zm-73.15,49.14c-5.82-.19-11.27,5.08-11.37,11s5.18,11.4,11,11.42c6.13,0,10.79-4.9,10.74-11.34A10.9,10.9,0,0,0,688.33,574.11Zm138.36,951.44c-6.37-.13-11,4.38-11.05,10.86A10.18,10.18,0,0,0,826,1547.17a10.82,10.82,0,1,0,.73-21.62Zm730.46-631.7c-6,.29-10.17,4.85-10.14,11.07,0,6.41,4.74,10.83,11.24,10.52a10.81,10.81,0,1,0-1.1-21.59ZM1339.66,1460a11,11,0,0,0-10.46-10.92,10.84,10.84,0,0,0-.28,21.67C1334.46,1470.79,1339.55,1465.69,1339.66,1460ZM1013,487.89a10.1,10.1,0,0,0-10.56,10.43A10.68,10.68,0,0,0,1013,509a10.87,10.87,0,0,0,10.7-10.63C1023.78,492.48,1019.11,487.94,1013,487.89Zm217,966a10.09,10.09,0,0,0,10.47,10.61c6.06-.06,10.26-4.09,10.38-10a10.43,10.43,0,0,0-20.85-.66Zm-575.71-26.74c-6.32,0-10.25,4.32-10,10.83.27,6.06,4.34,9.77,10.5,9.57a10.2,10.2,0,0,0-.54-20.4Zm917.25-158.67c-6.17-.23-10.28,3.49-10.57,9.58-.32,6.56,3.57,10.84,10,10.91a10.25,10.25,0,0,0,.62-20.49ZM233.82,725.35a10.15,10.15,0,1,0-.07,20.3c6.11,0,10.08-3.93,10.09-10C243.85,729.69,239.57,725.31,233.82,725.35Zm578.4-445a10.15,10.15,0,1,0-.15,20.3c6.12,0,10.1-3.89,10.13-10C822.23,284.72,818,280.33,812.22,280.35Zm259.21,1448.7a10.08,10.08,0,0,0,9.89,10.48c6.15.17,10.24-3.65,10.4-9.72s-4-10.46-9.69-10.57A10.16,10.16,0,0,0,1071.43,1729.05Zm-720-889.59c-5.18.21-10.11,5.59-9.91,10.8.21,5.37,5.28,10.26,10.53,10.15,5.42-.12,9.75-5,9.62-10.78S356.88,839.23,351.43,839.46ZM1498.35,997.8a10,10,0,1,0,.5,20,9.7,9.7,0,0,0,9.68-9.88A9.89,9.89,0,0,0,1498.35,997.8ZM389.67,1091.11c-5.37-.06-10.42,5.1-10.19,10.42.23,5,5.15,9.8,10.15,9.92,5.51.14,10-4.64,9.87-10.52A9.83,9.83,0,0,0,389.67,1091.11Zm701.85-587.68a9.54,9.54,0,0,0,10.15,9.32c5.83-.16,9.61-4.1,9.47-9.86s-4.16-9.43-10-9.33A9.58,9.58,0,0,0,1091.52,503.43Zm431.78,370.9a10,10,0,0,0,.27,19.91,9.74,9.74,0,0,0,9.41-10A10,10,0,0,0,1523.3,874.33ZM1176.14,444.78a9.93,9.93,0,0,0-10.05,9.46,9.71,9.71,0,0,0,9.68,10.43,10,10,0,0,0,.37-19.89ZM444.3,943.68a9.73,9.73,0,1,0-19.44-.48,9.73,9.73,0,0,0,9.46,10A9.86,9.86,0,0,0,444.3,943.68Zm874.13-355.57a9.93,9.93,0,0,0,9.64,9.89c5.49.09,9.38-4,9.39-9.85,0-5.66-4-9.91-9.42-9.95A9.9,9.9,0,0,0,1318.43,588.11Zm-512-219a9.76,9.76,0,0,0-9.15,10.33,9.41,9.41,0,0,0,9.31,9.38c5.15.09,9.68-4.57,9.63-9.92S811.59,368.88,806.47,369.07Zm73.24,1142.69a10,10,0,0,0-9.06,9.81c0,5.35,4.52,10,9.67,9.89,5.45-.11,9.43-4.45,9.28-10.1C889.45,1515.9,884.89,1511.47,879.71,1511.76Zm250.23,301.84a9.71,9.71,0,0,0,9.5-10c-.1-5.2-4.35-9.57-9.26-9.54a9.86,9.86,0,0,0-9.61,10C1120.71,1809.12,1125.05,1813.54,1129.94,1813.6Zm358.52-958.73a9.83,9.83,0,0,0,.32,19.6c5.15.14,9.76-4.6,9.69-10A9.9,9.9,0,0,0,1488.46,854.87Zm-28.22-108.5a9.53,9.53,0,0,0-9.76,9.69c.12,5.56,4.38,9.47,10.1,9.27,5.48-.2,8.88-3.9,8.81-9.62S1465.77,746.48,1460.24,746.37Zm-1049,10.09c5.06.18,9.54-4.53,9.44-10-.09-5.13-4.3-9.5-9.17-9.51-5.13,0-9.63,4.66-9.6,10A9.91,9.91,0,0,0,411.22,756.46Zm1337.45,523.43c-5.66,0-9.53,4.06-9.31,9.85.21,5.46,4.05,9,9.52,8.91a9.38,9.38,0,0,0-.21-18.76Zm-150.1-773.35a9.26,9.26,0,0,0,.59,18.5c5.27,0,9.11-4,8.94-9.45A9.29,9.29,0,0,0,1598.57,506.54Zm-199.83,815.32c-.27,4.74,4.07,9.56,8.91,9.88a9.29,9.29,0,0,0,9.57-9c.15-5.36-3.64-9.66-8.66-9.84A9.76,9.76,0,0,0,1398.74,1321.86Zm36.89-771.74c-4.86.26-8.21,4.17-8.11,9.46s3.64,8.9,8.63,8.94a9.21,9.21,0,0,0,9.06-9.42A9.39,9.39,0,0,0,1435.63,550.12Zm77.26,502.55a9.39,9.39,0,0,0-9.19,9.38,9.28,9.28,0,0,0,8.77,9c5.21.13,9-3.83,8.92-9.36C1521.33,1056.5,1517.75,1052.69,1512.89,1052.67Zm6-88.43a9.38,9.38,0,0,0-9.57,9,9.22,9.22,0,0,0,9.08,9.41c5,0,8.51-3.71,8.61-9S1523.77,964.49,1518.89,964.24Zm-1060.53,34a8.55,8.55,0,0,0-9.09-9.18,9.21,9.21,0,0,0-9.12,9.43c.18,4.85,4.14,8.43,9.28,8.41A8.54,8.54,0,0,0,458.36,998.26Zm481-593.71a9.18,9.18,0,0,0-9.28-9.27,8.57,8.57,0,0,0-8.93,9.34c.21,5.12,3.88,8.56,9.08,8.5S939.26,409.4,939.34,404.55Zm438.5,986.93a8.58,8.58,0,0,0-8.92-9.35,9.22,9.22,0,0,0-9.3,9.27c.07,4.86,4,8.52,9.13,8.58A8.54,8.54,0,0,0,1377.84,1391.48ZM866.05,284.9a9.35,9.35,0,0,0,9.16-8.7,9.49,9.49,0,0,0-9-9.61c-4.77,0-8.41,3.9-8.51,9.15S861.15,284.88,866.05,284.9Zm295.1,1315.7a8.47,8.47,0,0,0,8.87-8.73,8.6,8.6,0,0,0-8.81-8.85c-5.19-.09-8.75,3.47-8.76,8.75S1155.91,1600.57,1161.15,1600.6Zm202.08-129.88c-5.18,0-8.68,3.57-8.63,8.87s3.57,8.74,8.82,8.71a8.49,8.49,0,0,0,8.75-8.85A8.63,8.63,0,0,0,1363.23,1470.72Zm-880.42,9.93c-.12,5.26,3.21,8.88,8.35,9.1a8.85,8.85,0,1,0,.49-17.68C486.5,1472,482.93,1475.42,482.81,1480.65Zm1087.64-345.32c-.1-5.25-3.74-8.73-9-8.54a8.59,8.59,0,0,0-8.6,9c.12,5.14,3.85,8.64,9,8.52S1570.55,1140.63,1570.45,1135.33ZM326.33,830.64a8.65,8.65,0,0,0-8.29-9.9c-5.22-.34-8.94,2.89-9.28,8.08s2.8,9.12,7.86,9.55S325.78,835.64,326.33,830.64Zm45.25,713.61c.08-5.27-3.37-8.89-8.49-8.91a8.73,8.73,0,1,0-.35,17.46C367.9,1553,371.49,1549.47,371.58,1544.25ZM322.16,732.41a8.93,8.93,0,0,0-8.7,9,8.49,8.49,0,0,0,8.53,8.34c5.17.17,8.8-3.35,8.84-8.59S327.28,732.3,322.16,732.41ZM1555.89,495.57a8.87,8.87,0,0,0,8.49,8.51,8.12,8.12,0,0,0,8.73-8c.31-5.23-3.12-9.11-8.2-9.26A9,9,0,0,0,1555.89,495.57ZM983.21,1572.62a9,9,0,0,0-8.43,9.4c.35,4.39,4.85,8.36,9.12,8.06a8.92,8.92,0,0,0,8-9.11A8.66,8.66,0,0,0,983.21,1572.62Zm398.64-1007.9a8.92,8.92,0,0,0-8.41,8.73c-.06,4.65,4.59,9.06,9.18,8.71a8.92,8.92,0,0,0,7.93-9.14A8.62,8.62,0,0,0,1381.85,564.72ZM579,605.42a9,9,0,0,0-8.57,9.28c.28,4.36,4.72,8.39,9,8.18a8.92,8.92,0,0,0,8.09-9A8.63,8.63,0,0,0,579,605.42Zm-50.89,112a9,9,0,0,0-8.23-8.74,8.38,8.38,0,0,0-8.71,8.73,8.25,8.25,0,0,0,8.35,8.36A9,9,0,0,0,528.15,717.42Zm80.41,734.33a8.35,8.35,0,0,0-8-8.88,8.76,8.76,0,0,0-8.8,8.25,8.68,8.68,0,0,0,8.14,8.84A8.28,8.28,0,0,0,608.56,1451.75Zm79.94-3.2a8.65,8.65,0,0,0-8.1,8.76,8.44,8.44,0,0,0,8.56,8.22,8.5,8.5,0,0,0-.46-17Zm-192.26-199.3a8.33,8.33,0,0,0-8.27-8.47,8.65,8.65,0,0,0-8.32,8.56,8.48,8.48,0,0,0,8.36,8.44A8.34,8.34,0,0,0,496.24,1249.25ZM1618.36,472.92a8.51,8.51,0,0,0,.6,17,8.51,8.51,0,0,0-.6-17ZM282.69,801.44c-4.61.28-7.85,4.16-7.57,9.06a8.07,8.07,0,0,0,8.1,7.83,8.45,8.45,0,0,0-.53-16.89Zm440.56,666.81c-4.3-.11-8.43,4.12-8.4,8.63a8.25,8.25,0,0,0,7.88,8.25,8.46,8.46,0,0,0,.52-16.88Zm83.67,110.93a8.26,8.26,0,0,0,7.92-8.21c0-4.51-4.06-8.76-8.37-8.67a8.46,8.46,0,0,0,.45,16.88Zm288.56,196.58c-4.21.09-7.56,3.82-7.54,8.39a8.14,8.14,0,0,0,8.3,8.38,8.34,8.34,0,0,0,7.75-8.31C1104,1779.85,1099.78,1775.67,1095.48,1775.76Zm295.24-330.23c.21-5.12-3-8.54-8-8.49a8.06,8.06,0,0,0-.16,16.11C1387.33,1453.27,1390.52,1450.29,1390.72,1445.53Zm189-904.11a8.07,8.07,0,1,0-.39,16.12c4.79,0,7.88-3,8-7.86S1584.36,541.6,1579.67,541.42ZM214.76,761.83c-4.78-.24-8.09,2.68-8.39,7.41-.33,5.12,2.82,8.64,7.81,8.7a8.06,8.06,0,0,0,.58-16.11Zm1014.12,727a7.9,7.9,0,0,0-7.68-8.18,7.73,7.73,0,0,0-8.28,8.23c.06,4.73,3.16,7.78,7.91,7.77A7.89,7.89,0,0,0,1228.88,1488.8ZM248.64,782c-4,.07-8,4.13-8.11,8.12-.1,4.25,4.29,8.66,8.46,8.5s7.49-4,7.42-8.5S252.84,781.88,248.64,782Zm224.94-49.87a8.1,8.1,0,0,0-8.08-8,7.9,7.9,0,0,0-.2,15.79A8,8,0,0,0,473.58,732.08Zm80,734.31a8.08,8.08,0,0,0-7.94-8.13,7.9,7.9,0,0,0-.46,15.79A8.06,8.06,0,0,0,553.59,1466.39Zm834.5-117.62a7.9,7.9,0,1,0,.6,15.78,7.9,7.9,0,0,0-.6-15.78ZM564.14,551.9c-4,.19-7.91,4.41-7.72,8.42s4.44,8.07,8.29,8c4.13-.1,7.54-4,7.43-8.52A7.87,7.87,0,0,0,564.14,551.9ZM816.72,193.49a7.85,7.85,0,0,0,.41,15.7,7.85,7.85,0,1,0-.41-15.7ZM480.87,1194.74a7.64,7.64,0,0,0-7.67-7.38,7.86,7.86,0,1,0,.28,15.72A7.64,7.64,0,0,0,480.87,1194.74Zm172.59-621c4,.09,8.14-4.05,8.12-8.11a7.83,7.83,0,0,0-8.44-7.47A7.27,7.27,0,0,0,646,566,7.83,7.83,0,0,0,653.46,573.7ZM369.87,1143.64c4,.11,8.16-4,8.15-8.08a7.84,7.84,0,0,0-8.41-7.5,7.27,7.27,0,0,0-7.21,7.8A7.83,7.83,0,0,0,369.87,1143.64Zm1154.82,150.17c.09-4.17-3.83-8.21-7.9-8.11a7.8,7.8,0,0,0-7.48,8.32,7.56,7.56,0,0,0,7.75,7.28A7.73,7.73,0,0,0,1524.69,1293.81Zm-610.11,256a7.76,7.76,0,0,0,7.88-8c-.18-3.93-3.83-7.59-7.64-7.66a7.75,7.75,0,0,0-7.74,8.06A7.58,7.58,0,0,0,914.58,1549.78ZM1479.87,714a7.46,7.46,0,1,0,.05,14.9c4.41-.14,7.41-3.17,7.4-7.48S1484.28,714.11,1479.87,714Zm-16.75,601.25a7.7,7.7,0,0,0,.12-15.37,7.55,7.55,0,0,0-7.47,7.64C1455.77,1311.86,1459.14,1315.4,1463.12,1315.25ZM1181,1565.12a7.7,7.7,0,0,0,.11-15.37c-4-.13-7.45,3.42-7.46,7.65S1177,1565.28,1181,1565.12Zm293.66-762.18a7.69,7.69,0,0,0-.22,15.35c4,.26,7.44-3.19,7.52-7.53A7.56,7.56,0,0,0,1474.62,802.94ZM949.67,1569.23a7.83,7.83,0,0,0,6.85-7.52c.05-4.06-3.5-7.75-7.38-7.68a7.49,7.49,0,0,0-7.11,7.86C942.16,1566,945.78,1569.5,949.67,1569.23ZM180,757.86c3.85,0,7.36-3.81,7.23-7.85a7.75,7.75,0,0,0-7-7.38c-3.93-.19-7.44,3.32-7.5,7.48A7.58,7.58,0,0,0,180,757.86ZM1151,1762a7.63,7.63,0,0,0-7.89,7.2c-.13,4,3.48,7.82,7.36,7.76a7.5,7.5,0,0,0,7-7.27A7.3,7.3,0,0,0,1151,1762ZM707.9,558.47c3.59-.08,7-3.58,7.13-7.32a7.66,7.66,0,0,0-7.41-7.69,7.26,7.26,0,0,0-7,7.24C700.53,554.87,704,558.57,707.9,558.47Zm143.21-344a7.26,7.26,0,1,0,.78,14.49c4.15-.1,6.8-2.94,6.71-7.19C858.51,217.3,855.4,214.27,851.11,214.46Zm349.08,1315.72a7.19,7.19,0,1,0,.18-14.37,7.19,7.19,0,0,0-.18,14.37ZM1592,931.69a7.28,7.28,0,1,0-.16-14.56,7,7,0,0,0-6.73,7.3A7.26,7.26,0,0,0,1592,931.69ZM1032.87,1648.5a7.67,7.67,0,0,0-7.44,7.56,7.59,7.59,0,0,0,7.25,7,7.22,7.22,0,0,0,6.89-7.24A7,7,0,0,0,1032.87,1648.5Zm-288-62.55a7.08,7.08,0,0,0,7.19,6.26c3.94,0,6.67-2.61,6.7-6.45a6.56,6.56,0,0,0-7-7C747.76,1578.86,744.52,1582.22,744.83,1586ZM1293.51,575.43a7,7,0,0,0,.24-13.91c-3.48-.08-6.31,2.93-6.43,6.86A6.54,6.54,0,0,0,1293.51,575.43ZM400.35,916.67a7,7,0,0,0-.1,13.92,6.52,6.52,0,0,0,6.36-6.88C406.57,919.77,403.84,916.69,400.35,916.67ZM199.47,708.92a7,7,0,0,0,.17,13.91,6.53,6.53,0,0,0,6.23-7C205.77,711.89,203,708.86,199.47,708.92Zm211.13,351a7,7,0,0,0-1,13.88,6.45,6.45,0,0,0,6.77-6.43C416.58,1063.37,414.07,1060.16,410.6,1059.88Zm19.25-34.15a6.46,6.46,0,0,0-6.94,6.87,6.36,6.36,0,0,0,6.67,6.43,6.21,6.21,0,0,0,6.53-6.51C436.18,1028.58,433.68,1025.87,429.85,1025.73Zm1352.94,276.55a6.66,6.66,0,1,0,.36,13.31c3.81-.17,6.31-2.9,6.22-6.84A6.23,6.23,0,0,0,1782.79,1302.28Zm-186.31-153a6.46,6.46,0,0,0-7,6.79,6.37,6.37,0,0,0,6.59,6.52,6.24,6.24,0,0,0,6.62-6.44C1602.77,1152.19,1600.29,1149.44,1596.48,1149.26ZM1559,577.05c-3.37,0-6.31,3.25-6.29,7s3,6.9,6.44,6.73a7.33,7.33,0,0,0,6.52-7C1565.66,580.39,1562.37,577.05,1559,577.05ZM1687.5,1304c0,3.8,2.81,7,6.27,6.92a7.32,7.32,0,0,0,6.68-6.78,7.18,7.18,0,0,0-6.47-6.94C1690.61,1297.07,1687.56,1300.28,1687.5,1304ZM780.67,412.77c-.27,3.94,2.24,6.89,5.94,7a6.87,6.87,0,0,0,7-6.26c.13-3.39-3-6.56-6.59-6.66A6,6,0,0,0,780.67,412.77Zm374.87,1261.7a6.47,6.47,0,1,0,.12,12.92,6,6,0,0,0,6.07-6.17C1161.87,1677.3,1159.25,1674.44,1155.54,1674.47Zm63.12-1145.91c.07,4,2.94,6.64,6.75,6.29,3.41-.31,6.26-3.37,6.08-6.51a7,7,0,0,0-7-6.38C1221,522.14,1218.59,524.84,1218.66,528.56Zm49.74,945.77A6.65,6.65,0,0,0,1275,1481a5.9,5.9,0,0,0,5.92-5.7,6.45,6.45,0,0,0-6.1-7.1A6.61,6.61,0,0,0,1268.4,1474.33ZM1060.62,483.12a6.7,6.7,0,0,0,6.52,6.79,5.86,5.86,0,0,0,6-5.56,6.46,6.46,0,0,0-6-7.24A6.68,6.68,0,0,0,1060.62,483.12Zm49.9,1348.66a6.6,6.6,0,0,0-6.37,6.9,6.75,6.75,0,0,0,6.71,5.9,5.93,5.93,0,0,0,5.83-6.47A6.33,6.33,0,0,0,1110.52,1831.78Zm396-1144.43a6.64,6.64,0,0,0-6.62-6.69,6.39,6.39,0,0,0-5.95,6.56,5.91,5.91,0,0,0,6.07,6.24A6.68,6.68,0,0,0,1506.47,687.35Zm-102.58,812.38a6.57,6.57,0,0,0-6.36-6.24,6.29,6.29,0,0,0-6,6.48,6.22,6.22,0,0,0,6.26,6.2A6.51,6.51,0,0,0,1403.89,1499.73ZM964,417.87a5.8,5.8,0,0,0-5.63,6.6,5.69,5.69,0,0,0,6.18,5.35,5.88,5.88,0,0,0,6.07-6.25C970.49,420.06,967.73,417.69,964,417.87ZM539.15,676.66a5.9,5.9,0,0,0-5.66,5.84c-.17,3.65,2.27,6.56,5.56,6.63a6.22,6.22,0,0,0,6.17-6.16A6.39,6.39,0,0,0,539.15,676.66Zm241.47,927.87a6,6,0,0,0,5.44,6.76c2.84.13,5.8-2.54,6.15-5.54a6.45,6.45,0,0,0-5.62-6.75A5.9,5.9,0,0,0,780.62,1604.53Zm-477.27-45a5.89,5.89,0,0,0,6.07,5.42,6.55,6.55,0,0,0,5.53-6.17c0-3.26-3.16-6.31-6.28-6.1C305.36,1552.91,303,1556,303.35,1559.54ZM1189.48,420.65a6.52,6.52,0,0,0,5.86,5.86c3.26.06,5.9-2.91,5.75-6.47a5.9,5.9,0,0,0-5.67-5.85A6.41,6.41,0,0,0,1189.48,420.65ZM423.4,1529.79a6,6,0,0,0-5.61-6.6,6.17,6.17,0,0,0-.22,12.32A6,6,0,0,0,423.4,1529.79Zm721.76,321.9c-3.12-.17-6.24,2.93-6.22,6.17s3.18,6.32,6.28,6.11a6.2,6.2,0,0,0-.06-12.28ZM619.08,539.14a6.2,6.2,0,0,0-.29,12.28c3.08.28,6.31-2.74,6.4-6A6.39,6.39,0,0,0,619.08,539.14Zm920.37,73.16a6.52,6.52,0,0,0-6,5.74c-.16,3.17,3,6.46,6.11,6.33a5.9,5.9,0,0,0,5.41-6.12A5.69,5.69,0,0,0,1539.45,612.3ZM1122,462.9a5.68,5.68,0,0,0-5.78,6.4,5.62,5.62,0,0,0,6.17,5.3,5.86,5.86,0,0,0-.39-11.7ZM473.51,1284.23c.35-3.1-2.63-6.41-5.89-6.54a5.68,5.68,0,0,0-5.61,5.85,5.9,5.9,0,0,0,5.3,6.22C470.1,1289.94,473.17,1287.19,473.51,1284.23ZM328.83,1518.6a5.62,5.62,0,0,0-5.76,6.26,5.55,5.55,0,0,0,6,5.34,5.78,5.78,0,0,0,5.53-5.89A5.86,5.86,0,0,0,328.83,1518.6Zm1185-866.35a5.75,5.75,0,0,0,5.29,6.13,5.73,5.73,0,0,0,.93-11.42A6,6,0,0,0,1513.86,652.25ZM404.78,1149.51a5.48,5.48,0,0,0-5.88,5.46,5.55,5.55,0,0,0,5.4,6,5.74,5.74,0,0,0,6-5.43A6,6,0,0,0,404.78,1149.51Zm39.55,25.67a5.48,5.48,0,0,0-5.32-6,6,6,0,0,0-6.09,5.45,5.76,5.76,0,0,0,5.46,6A5.54,5.54,0,0,0,444.33,1175.18ZM559.57,642.74a6,6,0,0,0-5.94,5.62,5.82,5.82,0,0,0,5.64,5.84,5.56,5.56,0,0,0,5.8-5.6A5.49,5.49,0,0,0,559.57,642.74Zm1051.25,655.18a5.47,5.47,0,0,0-5.49-5.2,5.67,5.67,0,1,0,.25,11.33A5.48,5.48,0,0,0,1610.82,1297.92Zm-63.91-222.11a5.57,5.57,0,0,0-5.24,5.51c-.11,3.3,2.41,6.16,5.38,6.11a6.4,6.4,0,0,0,5.78-6A5.92,5.92,0,0,0,1546.91,1075.81ZM1259.25,542.4a5.87,5.87,0,0,0-5.34,5.46c-.19,3.22,2.33,6.13,5.31,6.13a6.38,6.38,0,0,0,5.82-5.87A5.84,5.84,0,0,0,1259.25,542.4ZM1210.37,480a5.53,5.53,0,0,0,5.26-5.41,5.88,5.88,0,0,0-5.69-5.82,5.62,5.62,0,0,0,.43,11.23ZM792.15,235.8a5.39,5.39,0,0,0,5.13,5.48,5.33,5.33,0,0,0,5.12-5.48c0-3.08-2.26-5.61-5-5.52A5.75,5.75,0,0,0,792.15,235.8ZM1538,1027.26c-.1-3.08-2.54-5.49-5.29-5.23a5.74,5.74,0,0,0-4.94,5.78,5.3,5.3,0,0,0,5.39,5.2A5.39,5.39,0,0,0,1538,1027.26ZM737.74,1525.52a5.21,5.21,0,1,0-.09,10.42,5.22,5.22,0,1,0,.09-10.42Zm-587-795a5.45,5.45,0,1,0-5.46,5.22A5.28,5.28,0,0,0,150.75,730.56Zm433.62-210c-2.72.18-4.51,2.29-4.45,5.24a4.63,4.63,0,0,0,4.78,4.88,5.08,5.08,0,1,0-.33-10.12ZM861,1550.92a5.25,5.25,0,0,0-5.6,5,5.17,5.17,0,0,0,5.43,5.15,4.65,4.65,0,0,0,4.69-5C865.58,1553.14,863.76,1551.06,861,1550.92ZM920.35,350.64c.24-3.19-1.73-5.55-4.69-5.63a5.26,5.26,0,0,0-5.55,5,5.18,5.18,0,0,0,5.23,5.28A4.71,4.71,0,0,0,920.35,350.64ZM420.19,977.57a5.18,5.18,0,0,0-4.88-5c-3.07-.25-5.27,1.89-5.25,5.11,0,2.95,1.89,4.95,4.66,5A5.23,5.23,0,0,0,420.19,977.57Zm1218.6-535.68c-3,.1-4.92,2.45-4.68,5.64a4.67,4.67,0,0,0,5,4.58,5.12,5.12,0,1,0-.33-10.22ZM1612,884.64a5.28,5.28,0,0,0-4.44,6,5.07,5.07,0,0,0,5.09,4.66,5.61,5.61,0,0,0,4.94-5.71A5.34,5.34,0,0,0,1612,884.64ZM832.68,167.51a5.08,5.08,0,0,0,4.91,4.86,5.65,5.65,0,0,0,5.13-5.55,5.4,5.4,0,0,0-5.43-5.17A5.26,5.26,0,0,0,832.68,167.51ZM727,511.22a5.39,5.39,0,0,0-4.94,4.94,5.63,5.63,0,0,0,4.9,5.74c2.72.23,5.15-2.26,5.18-5.31A5.14,5.14,0,0,0,727,511.22ZM772.45,448a5.63,5.63,0,0,0-5.21-5.45,5.23,5.23,0,0,0,.33,10.43A5.41,5.41,0,0,0,772.45,448Zm858.29,722.65a4.94,4.94,0,0,0,.07,9.88,4.94,4.94,0,0,0,4.84-5A5,5,0,0,0,1630.74,1170.62ZM330.61,1115.23a5,5,0,0,0,4.91,4.91,4.94,4.94,0,0,0,0-9.88A5,5,0,0,0,330.61,1115.23ZM1033.09,458.9a4.94,4.94,0,0,0,.16,9.88,4.83,4.83,0,0,0,4.75-5A4.88,4.88,0,0,0,1033.09,458.9Zm-398.81,1008a4.91,4.91,0,0,0,.46,9.81,4.91,4.91,0,0,0-.46-9.81ZM1505.58,510a5,5,0,0,0,4.66,5.15,4.87,4.87,0,0,0,5.06-4.71,4.94,4.94,0,0,0-4.61-5.17A5.06,5.06,0,0,0,1505.58,510ZM999.05,439a4.49,4.49,0,0,0-4.86,4.6,4.7,4.7,0,0,0,4.67,4.87,5.43,5.43,0,0,0,5.06-4.73C1004.05,441.29,1001.78,439.08,999.05,439ZM372.45,725.84a5,5,0,0,0,4.32,5.33A4.32,4.32,0,0,0,381.3,727c.23-2.86-1.65-5.26-4.18-5.35A4.77,4.77,0,0,0,372.45,725.84ZM751.51,482.43a4.37,4.37,0,1,0-8.68-.21A4.32,4.32,0,0,0,747,486.8,4.8,4.8,0,0,0,751.51,482.43Zm45.18-157.29a4.71,4.71,0,0,0-4-4.89,4.62,4.62,0,0,0-4.72,4.81,4.83,4.83,0,0,0,4.38,4.54A4.36,4.36,0,0,0,796.69,325.14ZM803.14,143a4.3,4.3,0,0,0-.21,8.59,4.26,4.26,0,0,0,4.63-4.12A4.58,4.58,0,0,0,803.14,143Zm-509.38,1450a4.55,4.55,0,0,0-4.75-4.12,4,4,0,0,0-3.82,4.14,4.18,4.18,0,0,0,4.28,4.46A4.3,4.3,0,0,0,293.76,1593.05ZM1818.3,1325.14a4.53,4.53,0,0,0-5.27,3.46,4.32,4.32,0,0,0,3.91,4.87,3.9,3.9,0,0,0,4.41-3.5A4.15,4.15,0,0,0,1818.3,1325.14ZM1490.09,776.41a4.55,4.55,0,0,0,4.19,4,4.23,4.23,0,0,0,.25-8.46A4.5,4.5,0,0,0,1490.09,776.41Zm-51.94,565.73a4.55,4.55,0,0,0,4.19,4,4.23,4.23,0,0,0,.25-8.46A4.5,4.5,0,0,0,1438.15,1342.14Zm67.09-511.24a4.32,4.32,0,0,0,4.22,3.87,4.63,4.63,0,0,0,4.15-4.77,4.74,4.74,0,0,0-4.76-4.2A4.37,4.37,0,0,0,1505.24,830.9ZM998.89,1631.25a4.1,4.1,0,0,0-4.65,3.9,4,4,0,0,0,3.49,4.31,4.43,4.43,0,0,0,4.78-3.91A4.31,4.31,0,0,0,998.89,1631.25ZM284,722.08a4,4,0,0,0,4.27,3.52,4.49,4.49,0,0,0,4-4,4.35,4.35,0,0,0-4.44-4.23A4.16,4.16,0,0,0,284,722.08ZM365.67,899.8a4.16,4.16,0,1,0,.12,8.31,3.91,3.91,0,0,0,4-3.82A4.19,4.19,0,0,0,365.67,899.8ZM447.49,1314a4.17,4.17,0,0,0-3.53,4.35,3.9,3.9,0,0,0,3.92,3.91,4.44,4.44,0,0,0,4.35-4.36A4.32,4.32,0,0,0,447.49,1314Zm900.35-764.48a4.21,4.21,0,0,0-4,4.66,4.3,4.3,0,0,0,4.09,4,4.65,4.65,0,0,0,4.11-4.74A4.3,4.3,0,0,0,1347.84,549.49ZM347.26,1577.74a4.15,4.15,0,0,0-4.45-3.47,4.31,4.31,0,0,0-3.7,4.32,4.5,4.5,0,0,0,4.58,4.23A4.37,4.37,0,0,0,347.26,1577.74Zm5.66-88a4.19,4.19,0,0,0-4-3.92,4.24,4.24,0,0,0-.09,8.48A4.29,4.29,0,0,0,352.92,1489.72Zm100.86-256.07a4.06,4.06,0,0,0,3.71-4.15,4,4,0,0,0-3.95-3.91,4,4,0,0,0,.24,8.06ZM1129,1892.39a4.13,4.13,0,0,0-3.68-4.21,4,4,0,0,0-4,3.83,4.07,4.07,0,0,0,3.63,4.23A4.17,4.17,0,0,0,1129,1892.39ZM1050.75,1710a3.65,3.65,0,0,0-3.66-4,3.88,3.88,0,0,0-3.47,3.62,4,4,0,0,0,3.8,4.06A3.54,3.54,0,0,0,1050.75,1710ZM488.86,697.28a3.85,3.85,0,0,0-3.6-3.48,3.72,3.72,0,0,0-3.51,4.19,3.47,3.47,0,0,0,3.47,3.48A4,4,0,0,0,488.86,697.28Zm911.07,713.61a3.54,3.54,0,0,0,3.43,3.54,3.72,3.72,0,0,0-.36-7.43A3.64,3.64,0,0,0,1399.93,1410.89Zm-224.75,232a3.72,3.72,0,0,0-.07,7.43,3.74,3.74,0,0,0,.07-7.43ZM1668.27,1195a3.45,3.45,0,0,0-3.68-3.31,3.58,3.58,0,0,0-3.34,3.7,3.52,3.52,0,0,0,7-.39ZM546.65,505.91a3.52,3.52,0,0,0,3.48,3.55,3.51,3.51,0,0,0,.09-7A3.53,3.53,0,0,0,546.65,505.91Zm1026,449.1a3.84,3.84,0,0,0-4,3.77,4,4,0,0,0,3.45,3.64,3.53,3.53,0,0,0,3.52-3.44A3.7,3.7,0,0,0,1572.67,955ZM107.49,710.92a3.5,3.5,0,0,0,3.6,3.42,3.37,3.37,0,0,0,3.15-3.1,3.41,3.41,0,0,0-3.19-3.77A3.5,3.5,0,0,0,107.49,710.92Zm1444.33,598.94a3.32,3.32,0,1,0-.38,6.59,3.19,3.19,0,0,0,3-3.11A3.32,3.32,0,0,0,1551.82,1309.86ZM1306,1494a3.21,3.21,0,0,0,3.34,3.5,3.45,3.45,0,0,0,3.16-3.09,3.49,3.49,0,0,0-3.44-3.52A3.24,3.24,0,0,0,1306,1494Zm-633.63-2.92a3.56,3.56,0,0,0-3.28-3,3.26,3.26,0,0,0-3.23,3.64,3.16,3.16,0,0,0,3.18,3A3.45,3.45,0,0,0,672.36,1491.09ZM1555.89,993a3.21,3.21,0,0,0-3.6-3.22,3.52,3.52,0,0,0-2.89,3.36,3.46,3.46,0,0,0,3.7,3.24A3.33,3.33,0,0,0,1555.89,993ZM431.44,709a3.33,3.33,0,1,0-.05,6.64,3.26,3.26,0,0,0,2.88-3.29A3.35,3.35,0,0,0,431.44,709ZM706.5,1511.16a3.07,3.07,0,0,0-3-3.11,2.7,2.7,0,0,0-2.64,2.69,3,3,0,0,0,2.62,3.47A3,3,0,0,0,706.5,1511.16ZM1457.22,522a3.18,3.18,0,0,0-3.63,2.36,3.22,3.22,0,0,0,2.79,3.93,3.3,3.3,0,0,0,3.34-2.8A3,3,0,0,0,1457.22,522Zm-781.38,9a2.69,2.69,0,0,0-2.53-2.79,3.05,3.05,0,0,0-3.14,3,2.86,2.86,0,1,0,5.67-.21ZM580,1482.78a2.7,2.7,0,0,0-2.7,2.63,3.08,3.08,0,0,0,2.55,3.54,2.92,2.92,0,0,0,3.11-3A3.1,3.1,0,0,0,580,1482.78Zm-108.26,29.48a3.13,3.13,0,0,0,.19,6.18,3,3,0,0,0,2.94-3.14A3.11,3.11,0,0,0,471.74,1512.26Zm780.14-3.49a3.35,3.35,0,0,0,3.29,3.59,3.2,3.2,0,0,0,3-3.13,3.17,3.17,0,0,0-6.3-.46ZM769.65,1640.11a3.14,3.14,0,0,0-2.59-3.46,3.09,3.09,0,0,0-3.62,2.34,3.28,3.28,0,0,0,2.88,3.89A3.16,3.16,0,0,0,769.65,1640.11Zm1064.27-345.39a3,3,0,0,0,2.79,3.32,2.84,2.84,0,0,0,2.83-2.54,2.93,2.93,0,0,0-2.34-3.62A3.07,3.07,0,0,0,1833.92,1294.72ZM1144.47,434.14a3,3,0,0,0-3.34-2.76,2.73,2.73,0,0,0-2.32,3,3,3,0,0,0,2.94,3.18A3.11,3.11,0,0,0,1144.47,434.14ZM313.53,1149.43c-.34,1.45.64,2.62,2.27,2.85s3.46-1.27,3-2.84c-.33-1.1-1.5-2-2.68-3.4C315,1147.48,313.78,1148.34,313.53,1149.43Zm1489.23,127.74c1.46.22,2.57-.87,2.73-2.48s-1.5-3.32-3.07-2.79c-1.06.37-1.84,1.59-3.21,2.86C1800.73,1275.84,1801.67,1277,1802.76,1277.17Zm-227.2-407.28c-.45,1.45.48,2.65,2.06,3s3.57-1.08,3.21-2.63c-.26-1.12-1.37-2-2.46-3.57C1577.12,868.05,1575.89,868.83,1575.56,869.89ZM1404.29,538.94c.26-1.47-.81-2.58-2.43-2.72s-3.38,1.46-2.84,3c.37,1.08,1.59,1.86,2.86,3.24C1403,541,1404.11,540,1404.29,538.94Zm292.52,675.27c-.69,1.45.58,3.3,2.19,3.53a2.43,2.43,0,0,0,2.91-2.14,2.92,2.92,0,0,0-2.78-3.67C1698.53,1212.49,1697.3,1213.18,1696.81,1214.21Zm-1271,138.23a2.49,2.49,0,0,0,2.85,2.89,2.83,2.83,0,0,0,2.4-2.86c.08-1.66-1.42-3-3.66-2.85C427,1350.34,426,1351.33,425.79,1352.44ZM1584,1100.5a2.39,2.39,0,0,0-2.89-2.16,2.7,2.7,0,0,0-2.38,2.84,2.71,2.71,0,1,0,5.27-.68ZM165.5,693.74c-1.13-.73-2.88.37-3.19,1.77a2.35,2.35,0,0,0,1.89,3.13c1.07.14,2.27-.75,4.07-1.43C167.07,695.64,166.49,694.38,165.5,693.74Zm996.9,1218.51c.61-1.25-.66-2.82-2.11-3-1.62-.15-2.91.67-2.9,2.22,0,1.09,1,2.17,1.85,3.88C1160.67,1914,1161.88,1913.3,1162.4,1912.25Zm332.09-584.34c-.24,1.52,1,2.48,2.59,2.65s3-1.28,2.56-2.58c-.36-1.13-1.43-2-2.59-3.57C1495.89,1325.92,1494.66,1326.83,1494.49,1327.91Zm-74.3,48.66a5,5,0,0,0,2.63,2.59c1.37.51,3-1.43,2.55-3.11-.29-1.1-1.37-2-1.88-2.67C1421.29,1373.44,1419.63,1375.14,1420.19,1376.57ZM1581.62,461.3a5,5,0,0,0,2.64,2.58c1.36.51,3-1.42,2.54-3.11-.29-1.09-1.36-2-1.88-2.66C1582.72,458.17,1581.06,459.87,1581.62,461.3ZM895.07,1573.86c-1.28-.53-2.81.84-2.85,2.25-.05,1.6.79,2.89,2.36,2.79,1.09-.07,2.11-1.11,3.76-2.07C896.91,1575.48,896.14,1574.3,895.07,1573.86Zm266.72,249.59c-.24,1.52,1,2.48,2.59,2.65,1.4.15,3-1.28,2.56-2.58-.36-1.13-1.43-2-2.59-3.57C1163.19,1821.46,1162,1822.37,1161.79,1823.45ZM532.38,540.54c.3-1.47-.77-2.6-2.4-2.78-1.41-.16-3,1.15-2.7,2.45.29,1.14,1.32,2.08,2.42,3.7C530.92,542.44,532.16,541.6,532.38,540.54Zm683.27-157c-.64-.06-1.77,1.25-2.06,2.15-.43,1.34,1,3,2.24,2.65,1.07-.3,1.91-1.39,3.43-2.57C1217.66,384.75,1216.7,383.69,1215.65,383.58ZM542.6,594.8c-.07.67,1.16,1.92,2,2.15a2.06,2.06,0,0,0,2.69-2.15c-.09-1-1.27-1.93-2.39-3.51C543.8,592.86,542.72,593.78,542.6,594.8ZM1543.15,847.89c-.7,0-1.9,1.26-2,2.09a2.07,2.07,0,0,0,2.37,2.49c1-.17,1.87-1.37,3.41-2.61C1545.19,848.9,1544.18,847.91,1543.15,847.89ZM966,1615.42c0-.71-1.14-1.86-2-2.19a2.11,2.11,0,0,0-2.61,2.28c.24,1.07,1.27,2,2.42,3.62C964.86,1617.44,965.91,1616.47,966,1615.42ZM1671.26,467.16c0,.67,1.23,1.88,2.08,2.06A2.08,2.08,0,0,0,1676,467c-.12-1-1.35-1.88-2.56-3.41C1672.37,465.17,1671.32,466.13,1671.26,467.16ZM820.56,113.31c-.08.66,1.15,1.92,2,2.14a2.05,2.05,0,0,0,2.69-2.14c-.08-1-1.26-1.94-2.39-3.52C821.76,111.36,820.67,112.28,820.56,113.31Zm826.15,793.82c-1.3-.31-2.63,1.36-2.14,2.71.31.89,1.49,2.16,2.12,2.07,1-.14,2-1.23,3.54-2.33C1648.67,908.45,1647.79,907.38,1646.71,907.13ZM523.5,1501c0,.71,1.32,1.74,2.22,2a2.16,2.16,0,0,0,2.37-2.55c-.34-1-1.46-1.85-2.74-3.37C524.44,1498.86,523.48,1499.93,523.5,1501Zm-152.75-45.82c0-.7-1.34-1.88-2.19-2a2.08,2.08,0,0,0-2.38,2.52c.21,1,1.42,1.85,2.69,3.38C369.8,1457.29,370.76,1456.23,370.75,1455.17Zm360.89,162.37c-.67,0-1.65,1.4-1.89,2.32-.35,1.32,1.24,2.89,2.46,2.43,1-.38,1.78-1.54,3.2-2.87C733.72,1618.51,732.67,1617.52,731.64,1617.54Zm961.2-1187.62c-.66,0-1.71,1.33-2,2.25-.38,1.32,1.14,3,2.36,2.55,1-.35,1.84-1.49,3.3-2.76C1694.89,431,1693.88,430,1692.84,429.92ZM395.64,1010a2.93,2.93,0,0,0-2,2,2.81,2.81,0,0,0,1.79,2.14c.76.06,1.62-1.05,2.91-2C397.13,1011.18,396.32,1010,395.64,1010Zm1019.88,455.72a1.65,1.65,0,0,0,2.12,1.89,3.2,3.2,0,0,0,1.75-2.36c0-.75-1.1-1.54-2.17-2.88C1416.39,1464,1415.6,1464.82,1415.52,1465.75Zm318.67-232.47a1.64,1.64,0,0,0-2.49,1.34,3.37,3.37,0,0,0,1.33,2.66c.56.32,1.77-.5,3.26-1C1735.36,1234.9,1735,1233.72,1734.19,1233.28Zm36.11,22c0-.81-1-1.68-1.54-2.52-.78.64-2,1.16-2.22,2s.67,1.78,1.38,3.4C1769.1,1256.76,1770.25,1256,1770.3,1255.25ZM410.05,1387.12c0-.79-1.05-1.62-1.64-2.44-.76.67-2,1.24-2.15,2s.74,1.74,1.49,3.3C408.89,1388.67,410,1387.92,410.05,1387.12Zm1316-63.37c.13.83,1.29,1.49,2,2.23.65-.76,1.78-1.5,1.82-2.28s-1-1.64-2-3.08C1727,1322.09,1726,1323,1726.07,1323.75ZM929.6,1594.13a1.76,1.76,0,0,0-2.27,1.94c0,.72,1,2,1.5,1.93.92-.1,1.75-.93,3.11-1.76C930.85,1595.21,930.31,1594.29,929.6,1594.13ZM949.69,371.56a2.46,2.46,0,0,0,2-1.24,1.65,1.65,0,0,0-1.75-2.25c-.7,0-1.37.8-2.51,1.53C948.46,370.54,949,371.5,949.69,371.56Zm-48.45-77.8a2.43,2.43,0,0,0-2.06,1.13,1.65,1.65,0,0,0,1.62,2.34c.69,0,1.41-.73,2.59-1.39C902.42,294.85,901.9,293.87,901.24,293.76ZM329.37,884.35c-.13.53.81,1.77,1.48,2,1.38.41,2.28-.59,2.25-1.92,0-.77-.71-1.52-1.43-2.95C330.57,882.75,329.59,883.46,329.37,884.35ZM1085.7,449.19c0,1.34.84,2.34,2.22,2,.68-.19,1.63-1.41,1.51-1.94-.21-.9-1.18-1.62-2.26-2.95C1086.42,447.69,1085.73,448.43,1085.7,449.19Zm344.39,1070.07a2.47,2.47,0,0,0,1.27,2,1.64,1.64,0,0,0,2.21-1.79c0-.7-.82-1.36-1.56-2.47C1431.09,1518,1430.14,1518.62,1430.09,1519.26ZM1871,1312.88a1.68,1.68,0,0,0,.62,3.31c.62,0,1.17-1.08,2.2-2.13C1872.45,1313.45,1871.56,1312.69,1871,1312.88ZM388.08,1419.57a2.44,2.44,0,0,0-1.32,2,2.4,2.4,0,0,0,2,1.32c.62,0,1.17-1.07,2.21-2.13C389.56,1420.13,388.67,1419.38,388.08,1419.57Zm-6-461.92c-.2-.62-1.29-1-2-1.44-.47.7-1.35,1.43-1.3,2.09s1.07,1.18,2.14,2.22C381.52,959.15,382.26,958.26,382.08,957.65ZM1512.59,742.08a2.38,2.38,0,0,0,2,1.33,2.41,2.41,0,0,0,1.32-2c-.05-.63-1.08-1.18-2.14-2.22C1513.14,740.6,1512.39,741.49,1512.59,742.08ZM1236.5,1543.69c.06-.66-.81-1.4-1.27-2.11-.7.47-1.79.82-2,1.45s.53,1.5,1.11,2.88C1235.42,1544.86,1236.45,1544.32,1236.5,1543.69Zm-39.29,68.79c.06-.66-.82-1.4-1.28-2.11-.71.47-1.79.81-2,1.45s.53,1.49,1.1,2.86C1196.12,1613.64,1197.15,1613.11,1197.21,1612.48ZM788.27,91.77c-.44,0-1.38,1-1.29,1.28.23.72.85,1.72,1.44,1.82s1.31-.81,2.63-1.72C789.67,92.42,789,91.81,788.27,91.77ZM267.59,1627.93c0,.43,1,1.39,1.23,1.3.72-.31,1.65-.9,1.8-1.54s-.74-1.3-1.61-2.64C268.26,1626.49,267.65,1627.19,267.59,1627.93ZM1313.21,532.57c-.43,0-1.32,1-1.22,1.34.26.71.93,1.68,1.52,1.74s1.28-.85,2.55-1.82C1314.65,533.16,1313.93,532.58,1313.21,532.57ZM1712.4,396.36c-.4-.06-1.41.94-1.33,1.2.24.75.78,1.72,1.42,1.93.49.15,1.31-.71,2.63-1.51C1713.78,397.14,1713.14,396.48,1712.4,396.36ZM417.94,1209.42c.08.44.82.75,1.28,1.12.33-.49.95-1,.93-1.45s-.71-.85-1.31-1.5C418.41,1208.4,417.85,1209,417.94,1209.42Zm-61.46-128.71a1.74,1.74,0,0,0-1.34-1.09,1.71,1.71,0,0,0-1.18,1.26c0,.44.75.89,1.37,1.54C355.86,1081.69,356.55,1081.14,356.48,1080.71Zm986.08,433.21c.06.46.76.84,1.18,1.25.37-.46,1-.9,1-1.37s-.64-.91-1.2-1.62C1343.1,1513,1342.5,1513.48,1342.56,1513.92ZM840.79,1589.2c-.46.1-.78.88-1.17,1.36.51.36,1,1,1.52,1s.89-.75,1.57-1.4C841.86,1589.69,841.25,1589.1,840.79,1589.2ZM504.62,662a1.68,1.68,0,0,0-1.05,1.28,1.65,1.65,0,0,0,1.19,1.14c.41,0,.84-.71,1.46-1.3C505.54,662.6,505,661.93,504.62,662ZM1641,1318a1.74,1.74,0,0,0-1.34-1.09,1.76,1.76,0,0,0-1.19,1.26c0,.44.76.89,1.38,1.54C1640.32,1318.93,1641,1318.38,1641,1318Zm212,30.8a1.74,1.74,0,0,0-1.41-1,1.72,1.72,0,0,0-1.08,1.34c0,.44.81.83,1.49,1.45C1852.36,1349.77,1853,1349.16,1852.9,1348.75Zm-682.8,385.06c-.46.09-.79.87-1.18,1.34.51.36,1,1,1.51,1s.89-.75,1.58-1.39C1171.16,1734.3,1170.56,1733.72,1170.1,1733.81ZM1660,412.43a1.8,1.8,0,0,0-1.43-1,1.74,1.74,0,0,0-1.07,1.35c0,.44.82.83,1.5,1.45C1659.46,413.45,1660.11,412.83,1660,412.43ZM1061.44,1762.56a1.67,1.67,0,0,0-1,1.29,1.7,1.7,0,0,0,1.2,1.14c.53,0,1.11-.48,2-.93C1062.37,1763.15,1061.84,1762.49,1061.44,1762.56ZM76.42,689.38c-.44.12-.7.94-1,1.45.53.33,1.1.95,1.59.9s.82-.83,1.43-1.52C77.53,689.81,76.88,689.25,76.42,689.38Zm696-329c.44-.11.7-.94,1-1.45-.53-.32-1.1-.94-1.59-.89s-.82.83-1.43,1.52C771.32,360,772,360.54,772.43,360.41ZM1245.9,494a1.28,1.28,0,0,0-2.55,0c0,.43.68.94,1.24,1.64C1245.18,495,1245.92,494.49,1245.9,494Zm321.35,551.9c-.45.12-.71.94-1,1.46.54.32,1.1.94,1.59.89s.82-.83,1.43-1.52C1568.36,1046.37,1567.71,1045.82,1567.25,1045.94ZM1139,1945.08a1.7,1.7,0,0,0-1,1.35,1.64,1.64,0,0,0,1.28,1c.41,0,.78-.78,1.36-1.42C1140,1945.59,1139.41,1945,1139,1945.08Zm21.41-1545c.07.32.57.56.89.84.29-.49.57-1,.86-1.46l-1.18-.42C1160.81,399.4,1160.39,399.79,1160.45,400.09ZM1215,1576.89c-.31-.06-.71.33-1.07.53l1,1.28c.28-.31.56-.62.85-.92C1215.57,1577.46,1215.34,1577,1215,1576.89ZM516.62,485.44c-.06-.32-.57-.56-.87-.84l-.89,1.46,1.17.41C516.25,486.13,516.67,485.74,516.62,485.44Zm-141.24,560.5c-.27,0-.56.5-.85.78l.86.85.82-.87C376,1046.45,375.68,1046,375.38,1045.94ZM1377.47,1533c-.19.33-.6.73-.52,1s.61.42,1,.62l.57-1ZM1230.12,439.5c-.29,0-.58.5-.86.77.27.29.55.8.82.8s.59-.49.93-.81C1230.71,440,1230.42,439.5,1230.12,439.5Zm48.09,74.14a1.18,1.18,0,0,0,.8.83c.29,0,.6-.51.89-.79l-1-.9C1278.7,513,1278.2,513.34,1278.21,513.64ZM747.43,1673.42c-.34.19-.88.31-1,.58s.3.66.48,1l1-.56ZM692.12,496.61c-.07.29.33.69.52,1,.35-.2.91-.34,1-.61s-.33-.69-.53-1C692.75,496.2,692.18,496.35,692.12,496.61Zm-259,766.91-1,.55c.19.35.31.87.58,1s.65-.31,1-.49C433.53,1264.2,433.34,1263.86,433.16,1263.52ZM1666.92,874.75c-.28-.07-.67.3-1,.49.18.34.31.89.56,1s.67-.31,1-.49C1667.3,875.36,1667.17,874.8,1666.92,874.75ZM233.79,1607.19a1.16,1.16,0,0,0,.8.83c.29,0,.6-.51.9-.79l-1-.9C234.28,1606.58,233.78,1606.89,233.79,1607.19ZM281.59,1129c-.3.29-.82.57-.83.87s.5.6.78.9l.84-.91Zm61.56-422.75c-.28-.07-.67.31-1,.49.18.34.31.9.56,1s.67-.31,1-.5C343.53,706.9,343.4,706.35,343.15,706.29ZM1652.31,500.83c-.07.28.33.68.52,1,.35-.2.91-.34,1-.61s-.33-.69-.53-1C1652.94,500.41,1652.37,500.56,1652.31,500.83ZM525.2,628c-.29,0-.59.51-.88.8.28.3.57.82.86.82s.59-.5.93-.83C525.81,628.49,525.51,628,525.2,628Zm193.1,937.15c0-.3-.5-.6-.79-.9-.29.29-.81.57-.82.87s.5.6.83,1C717.8,1565.74,718.3,1565.44,718.3,1565.13ZM1180.42,366c.09.28.61.43.94.64.2-.33.61-.72.54-1s-.6-.43-.93-.63C1180.77,365.39,1180.35,365.78,1180.42,366ZM783.28,182.2c-.19-.34-.32-.88-.58-1s-.67.31-1,.5l.57,1Zm751.41,525.64-.53-.8c-.12.16-.33.32-.34.48s.19.33.3.5Zm-6.35,87.81c-.11.13,0,.39-.06.59l.91-.25-.3-.51C1528.7,795.53,1528.43,795.53,1528.34,795.65Zm-475-366-.88-.32c0,.2-.1.44,0,.58s.34.15.53.22ZM1013,1689.75c-.15,0-.24.29-.36.45l.89.34v-.6C1013.38,1689.87,1013.17,1689.71,1013,1689.75Zm602.36-568.42c-.1.14,0,.39-.06.59l.91-.25-.3-.51C1615.73,1121.21,1615.47,1121.21,1615.37,1121.33Zm-202.71,432.72-.89-.32c0,.19-.09.44,0,.58s.34.15.53.22ZM808.64,59c0-.16-.2-.33-.31-.49l-.56.78.55.2C808.44,59.33,808.64,59.17,808.64,59ZM42.49,670.8l-.91.24c.09.17.16.42.3.48s.37-.07.56-.12ZM397.4,1563.4c-.15-.05-.37.1-.56.16l.54.79.35-.48C397.62,1563.7,397.55,1563.45,397.4,1563.4ZM885.93,241.07c-.14-.06-.37.08-.56.13l.51.81.37-.46C886.15,241.38,886.08,241.13,885.93,241.07ZM1173,1966.69l.89.35c0-.2.1-.44,0-.58s-.34-.16-.53-.23C1173.28,1966.38,1173.16,1966.54,1173,1966.69ZM214.4,1641.46l.14.42.3-.34Zm400.24-135.79.19-.38-.45,0Zm-317.15-642-.42.14.34.31ZM983.68,389.29l.14.41.3-.34Zm922.44,945.12.2-.38-.46,0ZM255,1572.68l.14.41.3-.33ZM777.55,270.34l.19-.39-.45,0Zm-524,430.76.39.19,0-.45Z"/></g><g id="explotion-3"><path d="M1646.31,476.71c-281.2,233.48-309.76,475.58-50.79,430.39-259,45.19-142.39,262,207.26,385.37-349.65-123.41-578.52-28.57-406.88,168.61-171.64-197.18-304.31,8.17-235.85,365.06C1091.59,1469.25,891.29,1322,804,1564.36,891.29,1322,642,1310.57,360.84,1544.05c281.2-233.48,309.77-475.57,50.79-430.39,259-45.18,142.39-262-207.26-385.37C554,851.7,782.89,756.86,611.25,559.69c171.64,197.17,304.31-8.18,235.85-365.07,68.46,356.89,268.76,504.15,356.1,261.79C1115.86,698.77,1365.11,710.19,1646.31,476.71Z"/><path class="cls-2" d="M812.58,1540.42c83.56-231.89-154.92-242.82-424-19.42,269-223.4,296.38-455,48.59-411.8C685,1066,573.44,858.56,238.9,740.48c334.54,118.08,553.53,27.34,389.3-161.32,164.23,188.66,291.16-7.82,225.66-349.3,65.5,341.48,257.15,482.37,340.71,250.48-83.56,231.89,154.92,242.82,424,19.42-269,223.4-296.38,455-48.59,411.8-247.79,43.24-136.24,250.64,198.3,368.73-334.54-118.09-553.52-27.35-389.3,161.32-164.22-188.67-291.16,7.81-225.66,349.29C1087.79,1449.42,896.14,1308.53,812.58,1540.42Z"/><path d="M828,1497.69c76.82-213.2-142.43-223.24-389.79-17.86,247.36-205.38,272.49-418.35,44.67-378.6,227.82-39.75,125.26-230.43-182.31-339,307.57,108.56,508.9,25.13,357.91-148.32,151,173.45,267.69-7.19,207.47-321.13,60.22,313.94,236.42,443.48,313.24,230.28-76.82,213.2,142.43,223.25,389.79,17.86-247.36,205.39-272.48,418.35-44.67,378.6-227.81,39.75-125.26,230.43,182.31,339C1399,1150,1197.7,1233.39,1348.69,1406.84,1197.7,1233.39,1081,1414,1141.22,1728,1081,1414,904.8,1284.49,828,1497.69Z"/><path class="cls-3" d="M843.38,1455c70.09-194.5-129.94-203.66-355.6-16.29,225.66-187.37,248.58-381.66,40.75-345.4C736.36,1057,642.8,883,362.2,784c280.6,99,464.27,22.93,326.53-135.31,137.74,158.24,244.21-6.56,189.27-293,54.94,286.41,215.69,404.59,285.77,210.09-70.08,194.5,129.94,203.66,355.61,16.29-225.67,187.37-248.59,381.66-40.76,345.4-207.83,36.26-114.27,210.22,166.33,309.26-280.6-99-464.27-22.93-326.53,135.31-137.74-158.24-244.21,6.56-189.27,293C1074.21,1378.63,913.47,1260.45,843.38,1455Z"/><path class="cls-4" d="M858.78,1412.22c63.35-175.81-117.45-184.09-321.42-14.73,204-169.36,224.69-345,36.83-312.19,187.86-32.78,103.29-190-150.33-279.54C677.48,895.28,843.5,826.49,719,683.46c124.51,143,220.74-5.93,171.08-264.81,49.66,258.88,194.95,365.7,258.3,189.89-63.35,175.81,117.45,184.09,321.42,14.73-204,169.36-224.69,345-36.83,312.19-187.86,32.78-103.29,190,150.34,279.54-253.63-89.52-419.65-20.73-295.14,122.3-124.51-143-220.74,5.93-171.08,264.81C1067.42,1343.23,922.13,1236.41,858.78,1412.22Z"/></g></svg>