<svg xmlns="http://www.w3.org/2000/svg" xmlns:xlink="http://www.w3.org/1999/xlink" viewBox="0 0 2000 2000"><defs><style>.cls-1{fill:#fff;}.cls-2{fill:#e6e7e8;}.cls-3{opacity:0.25;}.cls-4{isolation:isolate;}.cls-5{fill:#ed1c24;}.cls-6{fill:#ffd100;}</style><symbol id="cloud" data-name="cloud" viewBox="0 0 1196.41 708.14"><path class="cls-1" d="M182.31,538.43c24.71-2.37,50.34-11.29,75.21-28.21,9.46-6.29,12.14-8.28,15.57-8.93.33,1.73.75-.14-3.29,3.18-8.32,6.91-27.49,29.55-58,42.17,47.74,73.94,142.77,116.86,250.82,79C548,698.91,654.83,694.7,728.43,640.19c-20-10-40.91-27.5-44.92-49.13,8.67,29.91,41.27,45.41,78.87,52a298,298,0,0,0,58.45,3.81c81.09-2.6,116.49-52.36,136-72.76,63.33,9.49,137.69-30.13,160.47-97.73,9.61-28.51,10.06-62-3.34-98.82a166.53,166.53,0,0,1,15.41,53.84C1232.61,282,1107.62,128.24,965.12,136.15c0,0-8,0-8,0-47.8-66.32-119.29-85.6-193-68.85-3.13.74-6.21,1.55-9.24,2.41-63.56,18-105.86,60.08-108.34,57.22a413.27,413.27,0,0,1,53.26-41C645.94,28.34,558.92,9.41,491.46,23.6l-2.46.54C435.91,36.08,385.59,70.43,384.43,68.66c16.67-10.87,32.41-21.15,53.51-32.35-21.38-5.69-40.73-9.07-52.54-9.07-56.82,0-108.68,28.13-138.71,75.23-5,7.87-2,6.21-11.54,6.43-90.34,2.1-159,77.68-159,152.84a204.36,204.36,0,0,1,46.81-24.6c-11.19,9.51-22.4,18.69-32.5,29.19C-41.8,398.59,58.75,550.29,182.31,538.43Z"/><path class="cls-2" d="M1123,400.57a154.9,154.9,0,0,1,6.42,30.84c64.24-93,43-194.58-34.27-254.56C1126.8,223.68,1175.7,293.65,1123,400.57ZM683.5,591.06c13.65,46.8,84.06,56.46,132.74,55.93C900,645.89,935,597,956.82,574.12c67.75,10,134-32.65,157.62-90.07,22.43-55.43-2.46-111.42,2-101-8-20.52-25-46.75-36.2-66.52,52.15,116.81,23,157.07-13.35,193.56C1022.1,555,895.69,555,895.69,555c26.5,13.24,47.35,16.82,47.35,16.84C851.91,651.09,715.3,660.62,683.5,591.06ZM462.63,625.64c81.79,70.38,188.75,71.63,265.8,14.55a115,115,0,0,1-22.31-14.56C572.08,695.21,534.33,651,462.63,625.64Zm222.3-29c-.35-1.08-.88-2.9-1.11-4C682.84,588.43,683.93,593.91,684.93,596.63Zm-467.73-42c30,42.37,77.05,73.85,135,82.75,22.17,3.22-75.93,5.23-92.56-123.34C213.87,557.17,205.32,538.07,217.2,554.62ZM91,252.16c8.45-4.94,15.86-8.21,15.73-8.21-18.65,7.74-24.76-20.4-15.69-43.43a139,139,0,0,0-14.88,57.69C76,264.38,74,261.72,91,252.16ZM405.13,55.34c12-7.52,22.47-13.55,32.8-19-21.37-5.69-40.72-9.07-52.53-9.07C409.74,29.94,416.09,48.34,405.13,55.34ZM671.06,106.4c7.3-5.83,18.93-14.2,28.81-20.48a200.07,200.07,0,0,0-59.41-43.19C661.87,54.66,695.35,85.88,671.06,106.4Z"/><path d="M67.9,528.41A156.48,156.48,0,0,0,184,554.67h.11c55.77,92.74,169.12,134.18,272.45,101.87,86.39,69.21,210.1,68.2,295.18.46,6.09-4.79,6.4-6,9-5.32,4.06,1,13.69,6.33,60.05,8.81,54.95,3.2,110-18.81,147.52-58.26,67.63,0,141.5-53.67,158.17-123.85.18-.72.35-1.44.5-2.17,33.48-29.81,66.82-92.1,69.41-148.22,3.25-115.15-95.13-221.7-225.66-219.28C894.71,25.13,798.13,44.15,752,60.2a219.85,219.85,0,0,0-27.68,11.57c-65.1-63.42-162.12-78-235-57.09-4.71,1.37-9.31,2.86-13.8,4.51C475.38,19.19,420.77,0,385.4,0,321.34,0,262.68,30.51,227,82,121.93,88.4,44.37,176.13,48.11,273.26c.13,5.3.65,11.77.74,12.14C-26.58,364.19-10.33,474.81,67.9,528.41ZM90.43,266.33c10.1-10.5,21.31-19.68,32.5-29.19a204.36,204.36,0,0,0-46.81,24.6c0-75.16,68.69-150.74,159-152.84,9.51-.22,6.52,1.44,11.54-6.43,30-47.1,81.89-75.23,138.71-75.23,11.81,0,31.16,3.38,52.54,9.07-21.1,11.2-36.84,21.48-53.51,32.35,1.16,1.77,51.48-32.58,104.57-44.52l2.46-.54c67.46-14.19,154.48,4.74,208.4,62.32a413.27,413.27,0,0,0-53.26,41c2.48,2.86,44.78-39.23,108.34-57.22,3-.86,6.11-1.67,9.24-2.41,73.69-16.75,145.18,2.53,193,68.85,0,0,8,0,8,0,142.5-7.91,267.49,145.87,164.25,295.26A166.53,166.53,0,0,0,1114,377.57c13.4,36.86,13,70.31,3.34,98.82-22.78,67.6-97.14,107.22-160.47,97.73-19.51,20.4-54.91,70.16-136,72.76a298,298,0,0,1-58.45-3.81c-37.6-6.6-70.2-22.1-78.87-52,4,21.63,24.91,39.11,44.92,49.13C654.83,694.7,548,698.91,462.6,625.63c-108,37.87-203.08-5-250.82-79,30.53-12.62,49.7-35.26,58-42.17,4-3.32,3.62-1.45,3.29-3.18-3.43.65-6.11,2.64-15.57,8.93-24.87,16.92-50.5,25.84-75.21,28.21C58.75,550.29-41.8,398.59,90.43,266.33Z"/></symbol></defs><g id="halftone-dots" class="cls-3"><path class="cls-4" d="M599.74,1237.26c-1.69-.69-3.4-1.33-5.06-2.07-13.43-6-15.86-22.62-4.56-31.93a18.6,18.6,0,0,1,6-3,58.26,58.26,0,0,1,7.37-1.48c3.77,1.67,7.84,2.81,10.77,6,4.71,5.12,5,4.57,9.55-.31,3.68-4,3.7-4,.72-8.74-.86-1.36-1.67-2.77-2.64-4.05-1.23-1.64-2.65-2-4.09-.59-4,3.86-8.82,5.73-14.09,6.8a57.39,57.39,0,0,1-6.62-2,17.84,17.84,0,0,1-11.35-15.32c-.77-7,2.18-12.53,7.74-16.76,1.74-1.32,5.1-1.57,4.72-4.25-.23-1.56-2.73-2.83-4.27-4.15-9.3-7.93-10-20.48-1.69-29.41.63-.68,1.4-1.21,2-1.89,2-2.25,2.07-3,.13-5.3q-2.22-2.64-4.58-5.18c-2.25-2.42-2.7-2.43-5.88-.56a67.35,67.35,0,0,1-6,3.44,18.72,18.72,0,0,1-24.22-7c-1.36-2.09-2.5-5.24-4.4-5.85-2.8-.89-3.55,3-5.2,4.69a17.67,17.67,0,0,1-23.29,2.26c-7.39-5.43-9.81-15.81-5.32-23.48a38.59,38.59,0,0,1,4.28-5.4c2.58-3,2.59-3.18-.42-6.08a6.41,6.41,0,0,0-1.05-.9c-2.51-1.58-3.41-5.83-6.64-5.49-2.45.26-4.6,2.76-7,4a53.64,53.64,0,0,1-5.14,2c-1.75.72-2,2-.72,3.11s3,2.2,4.26,3.51a16,16,0,0,1,2,19.78,15.6,15.6,0,0,1-18.13,6.56c-6.5-2-9.47-7.18-10.85-13.27-1.28-5.69,1.28-10.24,5.27-14.26,1.89-1.91,5.23-2,6.11-5a65.87,65.87,0,0,1-6.24-4.11c-2.13-1.75-3.93-3.89-5.91-5.81s-2.64-1.92-4.75-.29c-3.27,2.52-6.23,5.32-10.63,6.11-8.82,1.58-15.95-.75-21.33-8-.68-.93-1.26-1.94-2-2.83-1.36-1.65-2.57-1.75-4.06-.34-1.17,1.11-2.15,2.43-3.35,3.5a19.51,19.51,0,0,1-29.15-3.47c-.66-.95-1.16-2-1.8-3-1.91-2.83-3-3-5.15-.2a22.44,22.44,0,0,1-11.25,7.68c-8.71,2.77-17.66-1.44-21.76-10.14-3.95-8.39-1.64-17.71,5.66-22.79,9.4-6.53,19.95-4.87,26.85,4.27,1.11,1.46,2,3.12,3.11,4.55.26.33,1.23.25,1.83.12.37-.08.66-.59,1-.92,2.73-2.79,5.41-5.61,8.19-8.33,1.16-1.13,1.74-2.38.56-3.58-3.76-3.79-7.24-7.72-9.31-12.75a2.48,2.48,0,0,0-2.24-.11c-1.14,1.11-1.88,2.61-2.94,3.82-4.87,5.59-11,7.49-18.11,5.55-6.85-1.88-10.9-6.74-12.25-13.66-1.43-7.33,1.27-13.21,7.18-17.52,7.25-5.28,18.15-3.27,23.36,4.12,1.2,1.7,2.18,3.55,3.51,5.12a2.37,2.37,0,0,0,2.35.05,14.86,14.86,0,0,0,2.32-3.41c5.4-9.39,20.48-13.69,30.67-4.43.51.46,1,.94,1.54,1.39,3.07,2.57,3.43,2.57,6.36.06.53-.44,1-1,1.51-1.42,2.24-2,5.39-3.52,6.5-6,1.31-2.92-2.31-5.14-3.51-7.8a18.69,18.69,0,0,1,6.64-23.25c7.24-4.77,17.25-3.06,23.08,3.94.29.36.54.75.82,1.12,3.83,4.88,3.9,4.93,7.78.2a29.16,29.16,0,0,1,9.79-7.53c2-1,2.05-2.13.41-3.72-1.16-1.13-2.5-2.07-3.58-3.27-6.23-7-5.48-18.42,1.55-24.27,8-6.68,19-5.46,25,2.82.81,1.12,1.45,2.36,2.27,3.47,1.52,2,2.89,2.11,4.21-.14a27.38,27.38,0,0,1,11.45-10.71c2-1,2-2.1.35-3.74a57.12,57.12,0,0,1-4.48-4.31c-6.14-7.52-5-19,2.45-24.85,7.85-6.23,18.54-5.35,24.91,2,4.39,5.1,4.53,5.21,8.58.17,2.15-2.68,5.76-3.91,7-7.37-1.76-2.67-3.71-5.23-5.24-8-5-9.12-3.18-18.53,4.86-25.5.87-.75,1.81-1.44,2.64-2.23,1.39-1.31,1.67-2.81.17-4.18-3.31-3-5.38-6.87-7.47-10.74-1-1.89-2.43-2-3.78-.28a21.13,21.13,0,0,1-9.89,7.26,16.52,16.52,0,0,1-14.2-29.52c8.76-5.41,17.81-3.46,23.46,5.07.51.77.9,1.62,1.42,2.38,1.34,2,2.39,2,3.68.31,2.06-2.77,4.07-5.58,6.19-8.3,1.39-1.77,1.19-3.36-.17-5-.74-.88-1.51-1.73-2.25-2.62-4.15-5-4.14-5-9.56-1.24a19,19,0,0,1-26.79-5.06c-6.36-9.91-3.91-22.33,6-27.66,7-3.77,14.22-3.52,20.92,1.23,1.49,1.07,2.76,2.45,4.19,3.61,2,1.64,2.77,1.61,4.78-.15,2.6-2.27,5.16-4.59,7.75-6.87a2.65,2.65,0,0,0,.49-3.7c-1.26-2.2-2.59-4.37-3.78-6.61-4-7.52-1.08-17.32,6.18-22.75,6.18-4.63,16.19-3.87,22.56,1.34,2.46,2,3.32,5.62,6.78,6.52,2.17-2,4.21-4.18,6.52-6,2-1.56,4.34-2.64,6.42-4.07,1.34-.92,1.65-2.19.35-3.47s-2.45-2.14-3.5-3.35c-7.05-8.08-6.59-19.1,1-26.12,7.46-6.86,18.47-6.16,26,1.65.8.83,1.52,1.74,2.35,2.54,1.6,1.56,2.52,1.58,4.06,0,1.93-2,3.8-4,5.69-6a3.5,3.5,0,0,0,.45-4.94c-1.93-2.86-3.64-5.87-5.5-8.79a2.11,2.11,0,0,0-3.49-.54c-1.23,1-2.29,2.27-3.45,3.39-5.3,5.08-11.53,5.68-18,3.07-6.62-2.69-9.83-8.22-10.38-15.15s2.72-12.08,8.37-15.66,14.66-2.32,20,2.49a23.14,23.14,0,0,1,2.79,3.06c3.66,4.65,3.64,4.67,7,.28a4.52,4.52,0,0,0,.39-.58c1.49-2.84,6-4.1,5.57-7.45-.41-2.91-3-5.56-4.7-8.25-1.19-1.84-1.42-5.12-4.11-4.9-1.63.13-3.1,2.42-4.61,3.77a16.87,16.87,0,1,1-22.53-25.11c6.64-6,17.28-5.2,23.62,1.77a15.78,15.78,0,0,1,2.14,2.7c2,3.49,3.51,3.54,5.75-.31.12-.2.29-.36.39-.57,1.39-2.88,5.89-4.66,5-7.82-1.08-3.81-4-7.13-6.43-10.49-.4-.57-2.21-.7-3-.31-1.41.7-2.46,2.07-3.79,3a17.39,17.39,0,0,1-23.66-3.18c-5.73-6.85-5.31-16.6,1-23.34a16,16,0,0,1,9-4.86c2-.38,4.11-.58,6.16-.86,3.79,1.69,7.53,3.39,10.47,6.5,4.19,4.42,4.27,4.35,8.14-.35.59-.71,1.14-1.44,1.76-2.13a3.67,3.67,0,0,0,.25-5c-.91-1.32-1.78-2.68-2.77-3.95a3.3,3.3,0,0,0-4.83-.91,37.31,37.31,0,0,1-12.8,4.95c-1.78-.5-3.57-.95-5.33-1.5-11.21-3.5-19.07-19.2-7.91-31.56.31-.35.62-.69.95-1,4.43-4.39,4.42-4.38-.14-9.14-9.83-10.28-8-25.16,1.5-32.43a21.51,21.51,0,0,0,2.62-2.24,2.64,2.64,0,0,0,.24-3.72c-2.34-3.41-4.56-6.89-6.88-10.31a1.7,1.7,0,0,0-2.89-.29c-1.28,1.33-2.3,2.9-3.58,4.22a17.84,17.84,0,0,1-24.46,1.06c-7.27-6.18-8.52-16.34-3-24.38a17.59,17.59,0,0,1,23.3-5.22c2.28,1.36,4,3.68,5.86,5.7,1.08,1.18,1.76,2.71,2.8,3.93a1.79,1.79,0,0,0,3,0c1-1.23,1.92-2.61,3-3.83,10.22-11.89,28.22-9.43,35,4.78.4.83.65,1.73,1,2.57,1.19,2.7,2.07,2.9,3.66.52a20.64,20.64,0,0,1,8-7.44c7.68-3.81,15.71-1.91,20.9,5A16.68,16.68,0,0,1,700.46,490c-1.13,1.14-2.44,2.1-3.59,3.24s-1,2.41.19,3.58c3.12,3.05,6.24,6.09,9.3,9.2,1.42,1.44,2.82,1.35,4.29.24.92-.69,1.75-1.51,2.68-2.19a19.3,19.3,0,0,1,29,6.62c.21.41.4.83.61,1.24.91,1.81,1.83,3.61,2.75,5.42,2.48-.52,2.48-3.05,3.67-4.6,4.38-5.75,10-9,17.3-7.94s12.21,5.47,14.18,12.52,0,13.2-5.65,18a22.73,22.73,0,0,0-2.1,1.81c-1,1.13-1.38,2.34-.07,3.6,2.82,2.7,5.65,5.4,8.4,8.18,1.43,1.45,2.7,1.22,4.28.24,3.51-2.16,7.1-4.21,10.68-6.27,1.66-.95,1.78-1.84,0-3a19.65,19.65,0,0,1-8-9.28c-3.21-8.08.13-16.31,8-20.41,8.31-4.36,17.59.34,21.2,6.21a16.5,16.5,0,0,1-4.37,21.63c-1.13.8-2.41,1.38-3.55,2.15-2.18,1.47-2.22,2.69.1,4.09a34.89,34.89,0,0,1,8.91,7.56c2.24,2.68,3.09,2.6,5.74.54.91-.71,1.74-1.52,2.64-2.24,4.58-3.69,5.37-8.71,2.07-13.24-5.38-7.36-3.39-18.44,4.17-23.2,8.57-5.39,18.46-3,23.21,5.56,4.67,8.42,2.58,17.09-5.9,22-5.52,3.21-5.55,4.11.22,7.35,2.33,1.3,4.12,3.6,6.08,5.53,2.37,2.32,3,2.32,5.78.14,2.36-1.83,4.84-3.51,7.24-5.28s2.46-2.69.68-5a57.15,57.15,0,0,1-5.12-7.31c-4.53-8.58.15-17.54,5-21.1,7.37-5.37,16.49-5.17,22.87.77a45.24,45.24,0,0,1,4.34,5.35c1.84,2.37,2.85,2.49,4.76,0a32.12,32.12,0,0,1,9.09-8.37c2.13-1.29,2.1-2.47.43-4.56a57,57,0,0,1-3.89-4.82c-5.19-8.18-4.41-16.8,2-23.45a18.11,18.11,0,0,1,25.52-.56c1.83,1.71,3.17,3.94,4.73,5.92s2.63,2,4.4,0c.77-.87,1.44-1.81,2.12-2.74,7.56-10.25,26.91-10.06,33.18,4.58.72,1.7,1.34,3.44,2.14,5.1.25.53,1,1.23,1.38,1.18s1-.77,1.38-1.31c.85-1.37,1.46-2.9,2.4-4.2a17,17,0,0,1,24.48-3.29c8.55,6.68,7.45,18.33,2.28,24.08a46.07,46.07,0,0,1-6.35,5.24c-1.65,1.28-1.88,2.26-.29,3.14a34.41,34.41,0,0,1,9.79,8.63c1.83,2.23,2.65,2.09,5.18.23a50.5,50.5,0,0,1,7.39-5c7.78-3.81,16.07-2.23,22.27,3.87,1.78,1.75,3.37,4.37,5.48,4.92,2.61.68,3.78-2.87,5.84-4.24s3.86-2.5,5.74-3.83,1.88-2.25.47-4c-.72-.9-1.68-1.62-2.33-2.55a36.12,36.12,0,0,1-3.25-5.29c-3.93-8.6-.88-17.35,7.46-21.74s18.27-1.81,22.79,6.29c1.67,3,2.57,6.4,3.83,9.62-2.59,5.62-4.58,11.59-10.66,14.8-1.88,1-1.75,2.59-.21,3.94.69.61,1.49,1.08,2.21,1.65,6.95,5.51,6.95,5.51,13.49-.5,2.51-2.3,2.71-2.6.73-5.84a49.35,49.35,0,0,1-5.6-14.06l2.47-5.7c5.59-12.9,20.38-16.6,30.8-7.26,5.75,5.15,5.77,4.06,10.36-.52,1-1,2.07-1.83,3.13-2.73,3.31-2.82,3.43-3,.77-6.69a21.08,21.08,0,0,1-3.93-8c-1.71-8,1.19-15.64,7.7-20s14.8-4,21.49.44c2.42,1.62,3.83,5.63,7,4.84,2.34-.59,4.1-3.44,6.16-5.23,5-4.35,5.06-4.37,1.69-10.29a19.59,19.59,0,0,1-2.78-12.58c1.11-8.47,5.94-13.81,13.93-16.32,7.31-2.3,13.63-.36,19,4.91.66.64,1.18,1.42,1.82,2.08,2.82,2.94,3.29,2.92,6.08.25,2-1.9,4.1-3.68,6.13-5.54a2.55,2.55,0,0,0,.39-3.7c-.94-1.3-2.09-2.47-3-3.8-8.4-12.41-3.88-26.64,10.16-32.13a11.52,11.52,0,0,0,1.93-.75c1-.58,1.13-1.53.27-2.24-1.41-1.17-3-2.09-4.47-3.23-8.77-6.89-6.91-18.76-2-24.06,6.76-7.27,18.16-7.59,24.72-.64,6.83,7.23,6.39,18.3-1.16,24.59-1.91,1.59-4.34,2.53-6.49,3.83-1,.58-1.15,1.58-.28,2.25,1.26,1,2.76,1.65,4.11,2.52,11.63,7.5,13.52,22.15,4,32.14-4.61,4.83-4.8,4.51-.39,10,2.11,2.62,3.39,5.94,4.87,9a47.16,47.16,0,0,1,1.84,5.2c0,.86,0,1.71,0,2.57a21.23,21.23,0,0,0-1.58,3.07,26.89,26.89,0,0,1-8.32,12.5c-2.6,2.2-2.62,3.05-.55,5.86a46.87,46.87,0,0,1,6.27,12.28c.5,1.41,1.66,1.45,2.55.17,1.06-1.51,1.91-3.19,3.08-4.59a15.21,15.21,0,0,1,24.11,18.42c-4.75,7-13.82,9-20.67,4.44a20.21,20.21,0,0,1-4.27-4.43c-1-1.25-1.59-2.81-2.48-4.16s-2.44-1.43-3.16.24a35.32,35.32,0,0,1-7.47,10.71c-2.27,2.33-2.15,2.8-.57,5.41,1.8,3,3.57,5.92,5.39,8.86,1.56,2.51,2.56,2.57,4.8.34.82-.81,1.52-1.74,2.36-2.53a15.79,15.79,0,0,1,22.86,1.08,16.1,16.1,0,0,1-1.4,23c-6.65,5.79-17.16,4.76-23-2.16-1.39-1.66-1.77-5.07-4.51-4.42-1.55.36-2.53,3-3.83,4.57s-2.4,2.8-3.65,4.16c-2.86,3.13-2.88,3.42-.26,7,.41.56.89,1.06,1.32,1.61,1.56,2,2.73,4.79,4.75,5.66,2.62,1.11,4.07-2.36,6.15-3.65,9.85-6.11,20.25-3.58,25.24,6.32,4.67,9.29,1.44,18.7-8,23.17-6.87,3.26-13.85,2-19.67-3.65-1.47-1.41-2.84-3.72-4.48-3.94-2.51-.33-3.35,2.76-4.79,4.46-4.44,5.27-4.38,5.81,0,10.9,2.79,3.22,3.11,3.14,6.9,1.15,2.82-1.48,5.76-3.11,8.83-3.69a18.88,18.88,0,0,1,17.1,31.12,41.44,41.44,0,0,1-4.69,4c-2,1.72-1.95,2.32,0,4.4,2.79,3,5.44,6.21,8.09,9.37,1.45,1.74,2.39,2,4,.51,1.18-1.09,2.18-2.4,3.4-3.45a18.35,18.35,0,0,1,25.68,26c-1.7,2-5.58,3-4.79,6.13.55,2.14,3.23,3.7,4.89,5.58,4.34,4.91,4.55,5.23,10.06,1.13,2-1.51,4.41-2.49,6.56-3.84,1.42-.88,1.53-2.24.35-3.48s-2.43-2.14-3.52-3.32a16.4,16.4,0,0,1-2.47-19.26,16.86,16.86,0,0,1,16.9-8.42c6.78.93,11.61,5.56,13.61,13.06a15.48,15.48,0,0,1-6.14,16.44c-5.6,4.09-5.53,4-.3,8.06a77.22,77.22,0,0,1,6.48,6.2c1.33,1.31,2.79,1.8,4.25.44a31,31,0,0,1,12.35-7.37c1.11-.34,1-1.52.23-2.23-1.39-1.2-3-2.12-4.38-3.35-9.74-8.94-7-23.44,5.21-28.06,7.11-2.7,15.83.63,19.64,7.48a16.66,16.66,0,0,1-4.47,21.13c-2.14,1.56-5.3,1.77-6.39,4.73,2,1.42,4.09,2.82,6.12,4.25,4.35,3.06,6.77,7.42,8.47,12.34.79,2.31,1.92,2.43,3.29.6a47.18,47.18,0,0,1,3.27-4.45c4.71-5,10.45-6.76,17-4.59s10.09,7.2,11,13.86c.9,6.9-2.29,12.2-7.94,15.8-7.37,4.7-18.14,1.25-22.6-7-.66-1.2-.94-2.61-1.57-3.83a2.81,2.81,0,0,0-1.49-1.13c-.24-.09-.91.38-1,.73a27.75,27.75,0,0,1-10.49,13.4c-1.42,1-1.17,2.41-.22,3.63s1.9,2,2.75,3.11c8.42,10.87,6.85,22.52-4.14,30.74-.55.41-1.16.75-1.72,1.16-1.43,1-1.58,2.39-.31,3.46a30.88,30.88,0,0,1,8.5,12.46,2.15,2.15,0,0,0,.37.57c.68.84,1.56,1.19,2.31.29,1.33-1.59,2.38-3.41,3.75-4.95a16.72,16.72,0,0,1,22-2.52,17.18,17.18,0,0,1,5.5,21.58,17,17,0,0,1-19.93,8.54c-4.22-1.26-7.17-4.08-9.59-7.56-.78-1.13-1.2-2.49-1.87-3.69-.94-1.71-1.92-1.7-3.07-.1-2.28,3.17-4.56,6.34-6.94,9.43-1.12,1.47-1.52,2.81-.24,4.33.45.53.85,1.11,1.32,1.61,1.88,2,3.45,4.75,5.77,5.73,2.77,1.16,4.75-2.15,7.1-3.42,9.07-4.87,18.91-3.36,25.07,4.06a19.1,19.1,0,0,1-.2,24.88c-5.33,6-3.65,6.15.94,11,.48.5.94,1,1.42,1.52a3.19,3.19,0,0,0,4.35.63c2.78-1.64,5.61-3.2,8.37-4.88,1.51-.92,1.7-2.22.56-3.43s-2.5-2.08-3.53-3.32c-4.43-5.33-6.31-11.31-3.56-18s7.75-10.28,14.91-10.54,12.48,3.11,15.91,9.2c3.17,5.62,2.05,13.8-2.47,18.79-1.83,2-4.25,3.49-6.42,5.19-1.15.9-1.36,2-.09,2.74a30.24,30.24,0,0,1,11,10.33c1.12,1.77,2.39,1.78,4.1.55,2.43-1.74,4.67-3.83,7.29-5.19a19.09,19.09,0,0,1,25.24,7.37c1.23,2,1.06,5.14,4.14,5.88,1.43-1.76,2.82-3.56,4.31-5.27,6.54-7.48,17.54-8.59,24.9-2.53a18.31,18.31,0,0,1,2.58,26c-4.53,5.55-4.53,5.55.85,10.15,3.19,2.74,3.4,2.75,7.18.47.4-.24.77-.52,1.17-.75,5.52-3.14,7.55-3.21,2.37-10.06a16.12,16.12,0,0,1,2.66-21.87c7.43-6,17.18-5.59,23.2.91a16.87,16.87,0,0,1,.07,23.24c-.63.67-1.43,1.18-2.08,1.83-2.91,2.88-2.88,3.36,0,6,2.19,2,4.28,4.17,6.43,6.26s2.81,2.29,5.44.91c2-1.08,4-2.41,6-3.36,9.39-4.26,19-1.69,25.21,6.61a12.7,12.7,0,0,1,.76,1.15c3.31,5.77,4.54,4.64,8.12,1.14a22.41,22.41,0,0,1,7-4.33c7.93-3.33,16-.77,21.38,6.52,4.45,6,4.17,15.22-.6,21.34a18.08,18.08,0,0,1-28.31.88c-.74-.89-1.32-1.9-2.06-2.78-2.13-2.55-3-2.52-5.43.11-1.09,1.2-2.1,2.46-3.21,3.63-7.63,7.94-20.14,7.24-27.2,1.56a14.54,14.54,0,0,1-1.59-1.33c-3.82-4-4.64-5-9.53-.38l-.51.46c-1.71,1.48-4.15,2.65-5,4.52-1,2.39,2,3.86,3.13,5.75a19,19,0,0,1-4.61,25.41c-7.07,5.43-18,4.24-24.54-2.69-.47-.5-.84-1.11-1.3-1.62-2.94-3.21-3.17-3.07-6.48,0a42.67,42.67,0,0,1-8.11,6.32c-4.93,2.73-3.92,3.71-1.12,6.36a22.16,22.16,0,0,1,4.42,6.09,16.35,16.35,0,0,1-4.75,20.47c-6.87,5-15.62,4.65-21.7-.81-.68-.62-1.22-1.41-1.94-2-2.36-1.83-2-5.69-5.13-6.88-1.71,2.41-3.24,5-5.17,7.21-2.75,3.15-6,5.75-10.26,6.69-.75.16-1.85,1.06-1.87,1.63s.92,1.45,1.59,2c.89.73,2,1.22,2.87,1.92,6,4.61,7.77,10.7,6,17.86a16.64,16.64,0,0,1-14.26,12.38c-6.75.85-13-2.57-16.66-8.88-1.07-1.83-.8-4.75-3.81-5.17-1.06,1.75-2.11,3.5-3.19,5.24a24.54,24.54,0,0,1-10.37,8.89c-1.72.86-1.77,1.93-.42,3.29,1.13,1.15,2.42,2.15,3.53,3.32a18.69,18.69,0,0,1,.62,25.17c-6.87,8-18.19,7.38-25.08,2.33a20.14,20.14,0,0,1-1.6-1.33c-5.3-4.73-5.3-4.73-9.93.4a31.09,31.09,0,0,0-2.25,2.62c-.38.53-.89,1.35-.73,1.84a19.76,19.76,0,0,0,6.38,9.56,2.07,2.07,0,0,0,1.91-.13c1.33-.89,2.49-2,3.78-3,8.28-6.19,19.64-4.73,25.2,3.21,6.71,9.58,4.94,20.55-4.3,26.6-1.15.76-2.43,1.33-3.58,2.1-1.49,1-1.47,2.11.06,3.27,1.1.83,2.33,1.49,3.42,2.34,10.11,7.94,10.54,22,1.21,30.83-2.12,2-5.44,2.59-6.6,5.67,1.89,2,4,3.77,5.6,6a74.54,74.54,0,0,1,4.3,7.87c1.08,2,2.08,2,3.54.1,1-1.3,1.76-2.73,2.82-3.93a17.94,17.94,0,0,1,24.38-2.62,18.4,18.4,0,0,1,4,24.31c-6.94,10.56-22.88,10.32-29.87-.47-.75-1.16-1.22-2.5-1.93-3.68a31.83,31.83,0,0,0-2-2.65,11.32,11.32,0,0,0-2.28,2.31,19.52,19.52,0,0,1-7.94,8.43c-8.56,4.76-17,3.76-24.12-3a15.67,15.67,0,0,1-1.44-1.5c-2.73-3.43-3.94-3.6-7.2-.55-2.34,2.18-5.19,3.81-7.75,5.77-2,1.49-1.93,2.56-.39,4.61,1.93,2.55,4.2,5,5.53,7.84a16.79,16.79,0,0,1-5.23,20.45c-6.91,5.08-15.55,5.13-21.76-.18a40.06,40.06,0,0,1-5.3-6.33c-1.8-2.37-2.51-2.57-4-.22a24.32,24.32,0,0,1-8.82,8.6,6.77,6.77,0,0,0-1.11.82c-1.55,1.36-1.63,2.52-.22,4.13.6.7,1.35,1.26,2,1.93,10,10.49,7.5,25-5.36,31.79-.61.32-1.3.49-1.91.81-1.72.92-1.9,2.07-.23,3.09a21.8,21.8,0,0,1,9,10.14,18.12,18.12,0,0,1-7.47,23.41c-.79.47-1.66.82-2.47,1.25-3.89,2.07-3.94,2.45-.65,4.89.74.55,1.54,1,2.26,1.61,9.71,7.88,10.2,21,1.32,29.8-1.69,1.68-5.4,2.27-4.73,5.23.43,1.92,3,3.28,4.45,5.06,7.13,9,8.21,19,.24,28.34-.75.87-1.61,1.65-2.4,2.5-1.33,1.42-1.16,2.86,0,4.35,2.2,3,4.32,6,6.54,8.9,1.24,1.64,2.45,1.79,4.15.56,1.48-1.08,2.79-2.43,4.34-3.41a16.86,16.86,0,0,1,23.21,23.16,16.63,16.63,0,0,1-19.22,7.24,28,28,0,0,1-6.49-3.79,35.15,35.15,0,0,1-3-2.9c-1.71-1.52-2.62-1.52-4.11,0-1.9,2-3.67,4.14-5.6,6.12-3.84,3.94-3.87,4.09-.83,8.68,2.82,4.25,4.18,5.53,8.41,1.26,1.87-1.89,4.58-3,7-4.27a15.68,15.68,0,0,1,10.15-1c7.67,1.45,13.61,7.7,15.34,16.07,1.52,7.37-1.74,14.68-8.32,19.09-1.82,1.22-5.14,1.5-4.9,4.14.15,1.54,2.63,2.89,4.14,4.25,10,9,8.7,24.42-2.68,31.41-10,6.14-25,0-27.94-11.45-2-7.83-.18-14.67,6.11-20,1.74-1.48,3.77-2.63,5.65-4,1.18-.83,1.28-1.84.22-2.82-2.69-2.5-5.43-5-8.13-7.44-1.67-1.55-2.91-1.7-4.65.4-4.19,5.06-9.6,7.79-15.85,9.2a6.32,6.32,0,0,0-1.24.58h-2.6a9.2,9.2,0,0,0-1.79-1c-7.14-2.26-12.69-6.34-16-13.26-1.26-2.6-2.47-2.52-4.82-.36-.84.78-1.59,1.67-2.46,2.43a17.69,17.69,0,0,1-23.94,0,17.87,17.87,0,0,1-2.32-24.41,58.42,58.42,0,0,1,4.22-4.56c.91-1,1.19-2,.2-3-2.44-2.46-4.94-4.84-7.41-7.26a2.94,2.94,0,0,0-3.76-.63c-1.83,1-3.59,2.1-5.44,3-10.19,5.15-20.25,2.69-26.85-6.53-.81-1.12-1.49-2.34-2.35-3.41a2,2,0,0,0-3-.26c-1.06.88-1.9,2-2.91,3-9.78,9.17-24.19,6.69-30.35-5.12-1-1.92-.85-4.61-3.42-5.59-1.16,1.67-2.3,3.35-3.49,5-6.56,9.11-18.4,10.83-26.79,3.89-8.08-6.67-8.84-18.51-1.71-26.55,4.41-5,4.41-5-.35-9.49s-4.66-4.42-9.76-.91a25.53,25.53,0,0,0-2.78,2,2.72,2.72,0,0,0-.55,3.72c1.08,1.78,2.3,3.47,3.28,5.29,4.77,8.9,2.65,18.75-5.09,24-8.72,5.86-18.72,4.46-25.47-3.44-1.4-1.64-1.88-5-4.63-4.34-1.67.38-2.93,2.68-4.31,4.17a21,21,0,0,1-10.4,6.51c-2.19.56-2.34,2.09-.29,3.31a20.55,20.55,0,0,1,8,9.25c3.77,7.8.26,16.33-5.17,20.5a17.19,17.19,0,0,1-21.71-.86,44.74,44.74,0,0,1-4.11-4.66c-1.09-1.28-2.42-1.68-3.47-.29a37.21,37.21,0,0,1-10.17,9.24c-2,1.22-1.9,2.55-.32,4.66a53.19,53.19,0,0,1,4.14,5.51c4.17,7.39,3.31,16.2-2.5,21.72-6.34,6-13.78,8-21.59,4.37a18.87,18.87,0,0,1-5.76-29.82,31.43,31.43,0,0,1,2.61-2.27c4.11-3.47,4.06-3.45.19-7.26-2-1.93-3.7-4.1-5.6-6.11a2.78,2.78,0,0,0-4.26-.28c-1.06.88-2.17,1.71-3.29,2.53-9.22,6.76-20.41,5.54-27.84-3.16-1.64-1.91-2.8-4.22-4.38-6.18a2.33,2.33,0,0,0-2.28-.3,38,38,0,0,0-3.29,3.52c-7.06,7.33-18.33,7.93-25.6,1.4-7.59-6.83-8.42-17.46-2-25.53,1.56-1.94,3.15-3.86,4.73-5.79-2.29-2.53-4.53-5.1-6.87-7.56-1.14-1.2-2.55-1-3.78-.08-1.5,1.06-2.81,2.43-4.4,3.34-4.45,2.57-3.81,4.25-.93,7.55,4.52,5.16,5.59,11,3.66,17.44-2.23,7.39-7.57,11.54-14.95,12.7s-13.11-1.65-17.36-7.67c-4.05-5.73-4-5.72-8.52-.42-6,7-18.22,11.72-28.94,2.3-.69-.6-1.3-1.31-2-1.92-3.07-2.73-3.33-2.71-6.35-.27-2.32,1.88-4.72,3.67-7.07,5.51a2.92,2.92,0,0,0-.78,4.25c1.2,2,2.54,3.86,3.59,5.91,4.14,8.14,2.3,17.27-4.44,22.43-7.85,6-16.83,5.87-24.19-.12-1.88-1.53-2.91-5-5.74-4.25-1.95.53-3.33,3-5.08,4.44-1.41,1.18-3,2.12-4.47,3.26-2.75,2.17-2.87,3-.87,5.66.69.92,1.55,1.71,2.21,2.65a18.65,18.65,0,0,1-2.21,24.08c-6.4,6.39-16.47,7-24.05,1.47a12.1,12.1,0,0,1-1.61-1.31c-4.37-4.61-5.44-3.2-8.73.58-.3.35-.67.64-1,1-1.73,1.8-4.55,3.44-4.88,5.48s1.7,4.53,3,6.67a19.34,19.34,0,0,1-6,25.71c-8.85,5.95-19.71,4.1-26.49-4.53-1.68-2.13-3.07-4.48-4.6-6.73-2.91.9-3.38,4.2-5.62,5.73-2.09,1.43-4.25,2.76-6.38,4.12-2.67,1.71-2.82,2.71-.63,4.68,1.19,1.08,2.53,2,3.69,3.13,8,7.82,7.92,19.8-.24,27.73a18.9,18.9,0,0,1-26.72-.84c-7.42-8-7.12-20.13.87-27.32,2-1.81,4.58-3,6.9-4.51,1.53-1,1.63-2.06.19-3.28s-3.35-2.48-4.81-3.94a19,19,0,0,1,3.54-29.8c1.85-1.16,5.18-1.37,4.94-4-.13-1.46-2.89-2.62-4.33-4-12.13-12.12-6.85-26.07,2.83-31,5.67-2.89,5.64-3.35.38-7.29a19,19,0,0,1,1.78-32,26.61,26.61,0,0,0,2.91-1.86,1.76,1.76,0,0,0,.17-2.93c-1-1-2.17-1.73-3.14-2.71-10.26-10.28-9.16-22.65.42-30.87,4.45-3.82,4.43-3.84.41-7.93-9.22-9.39-9.31-21.55-.2-30.81.64-.65,1.4-1.19,2.08-1.81a2.53,2.53,0,0,0,.39-3.7c-2.39-3.1-4.85-6.15-7.34-9.18-.91-1.11-2-.85-3,0s-2,1.95-3,2.8c-8.15,6.45-19.22,5.59-25.51-1.93-7-8.33-6-19.55,2.38-26.53,1-.88,2.31-1.53,3.39-2.39,1.35-1.07,1.38-2.27-.14-3.4a35.6,35.6,0,0,1-8.13-8.39c-2-2.86-2.93-2.76-5.55-.65a40.49,40.49,0,0,1-6.65,4.87c-8.66,4.41-18.22,1.73-23.81-6.21-1.37-1.94-1.61-5.68-4.66-5.2-1.81.29-3.34,2.89-4.81,4.61-6.64,7.78-18.87,7.18-25.57,1.14a18.51,18.51,0,0,1-1.89-26.1,9,9,0,0,1,1-1c4.11-3.74,4.35-4.64-.17-8.57-2.21-1.93-3.68-4.68-5.55-7-1.19-1.48-2.83-1.94-4.19-.52-4.28,4.52-9.95,5.51-15.64,6.56Zm861.17-244.4c.55,2.23,1.42,2.2,3,.33,1.93-2.23,4-4.36,6-6.49,1.68-1.76,4.92-1.49,5.75-4.39l-5.9-4.45c-.18-.14-.37-.27-.54-.42-6.13-5.56-5.39-5.72-12.65,1-.17.16-.32.33-.49.48-1.43,1.28-1.46,2.7-.55,4.31C1457.41,986.44,1459.14,989.66,1460.91,992.86ZM753.84,1477.4l0,0c-1.39.8-2.8,1.56-4.15,2.4-3.08,1.92-3.11,2.75-.44,5,1.92,1.59,3.8,3.24,5.59,5,2,2,2,5.72,5.53,6.44,2-2.16,4-4.32,5.91-6.48.31-.34.58-.71.88-1.06,1.11-1.29.77-2.52-.2-3.68-2.2-2.61-4.5-5.15-6.63-7.82-1.42-1.79-2.92-1.93-4.74-.8ZM987.08,519.64c1.9-1.06,3.55-1.89,5.1-2.87s1.76-2.35.43-3.38a26.67,26.67,0,0,1-8.51-12.31c-.37-1-1.54-1.5-2-.31a36.41,36.41,0,0,1-6.95,11,2.66,2.66,0,0,0-.13,3.75c.57.72,1.21,1.38,1.81,2.08C982.35,524.15,982.08,522.76,987.08,519.64ZM670.27,482.42a9,9,0,0,0-1.54,1.56,28.28,28.28,0,0,1-8,9.35,2.69,2.69,0,0,0-.86,1.06c-1,2.23.67,3.44,2,4.61,1.77,1.54,3,4.95,6,3.32A72.25,72.25,0,0,0,678,495.26a3.09,3.09,0,0,0,.28-3c-1.94-3.1-4.14-6-6.33-9C671.63,482.86,670.87,482.72,670.27,482.42Zm79.17,48.1c-.36-.73-1.12-2.39-2-4-1.37-2.49-2.42-2.52-3.84-.28-1.57,2.49-3.15,5-4.87,7.39-2.19,3.06-2.23,3.36.66,6.26a32.49,32.49,0,0,0,2.49,2.35c2.57,2.14,3.28,2.32,6,.39,6.45-4.53,7.61-3.46,2.41-10.67C750.19,531.79,750.09,531.59,749.44,530.52Zm750.38,421.77-.09,0c.61,1.24,1.2,2.49,1.84,3.7,1.12,2.13,2.33,2.39,3.48.54a25.9,25.9,0,0,1,8-8.35,2,2,0,0,0,.2-3.47,70.74,70.74,0,0,0-6.69-4.85,2.85,2.85,0,0,0-2.54-.25c-2.36,1.77-4.52,3.79-6.76,5.72.63,1.89,1.26,3.79,1.91,5.68A10.1,10.1,0,0,0,1499.82,952.29Zm-976.65-2.74c-1.15-1.68-2-4.38-3.52-4.82-2.62-.76-3.11,2.78-4.86,4.09s-3.7,2.75-5.49,4.19c-1.33,1.08-1.38,2.43-.07,3.47,2.17,1.73,4.39,3.38,6.65,5,1.5,1.06,3,.77,4.48-.24C526.41,957.2,526.61,956.4,523.17,949.55Zm91.3,208.38c-1.54.59-2.21.78-2.83,1.09-1.7.84-1.79,1.9-.35,3.11,2.65,2.22,5.27,4.45,7.89,6.68,2,1.68,2.68,1.65,4.69-.25.34-.31.63-.67,1-1,5.26-5.45,5.29-6.4.4-12-2.34-2.64-3-2.8-5.82-1C617.46,1155.81,615.6,1157.16,614.47,1157.93Zm750.31,16.21c.91,1.52,1.63,2.7,2.34,3.88,3.3,5.52,3.29,5.52,7.6,1.14a17.83,17.83,0,0,1,3-2.81c4.23-2.65,3.71-4.52,0-7.14-.94-.66-1.77-1.48-2.69-2.17-3.16-2.37-3.58-2.37-6.59-.12a31.14,31.14,0,0,0-2.7,2.16C1363.66,1171,1363.56,1171.86,1364.78,1174.14ZM947.85,510.71l-3.59-5.8c-2.46-3.94-2.79-4-5.74-.7a62.67,62.67,0,0,1-4.75,4.89c-3.78,3.35-3.82,3.31-.35,6.38,6.64,5.86,5.22,5.35,12.11-.2.53-.43,1.24-.82,1.47-1.4A21.31,21.31,0,0,0,947.85,510.71Zm-44.29,33.67-.14.07-.69-1.19c-3.42-6-3.42-6-8.25-1.33-.49.47-1,.94-1.51,1.39-5.11,4.42-5,4.33.09,8.84s5.2,4.58,10.63-.54c.34-.31.87-.59.95-1a8,8,0,0,0,.37-3.18A13.19,13.19,0,0,0,903.56,544.38Zm293.57,821.81a26.93,26.93,0,0,0,1.31,3.56c.3.53,1,1.21,1.42,1.2s1.14-.68,1.5-1.2c2.06-3,4.15-6,6-9.07a3.45,3.45,0,0,0,.12-3c-4.35-6.44-7.83-6.88-13.78-1.92-1.93,1.61-2.12,2.46-.69,4.62S1196.15,1364.81,1197.13,1366.19Zm-112.91,31.17a56.8,56.8,0,0,1,4.55-3.8c2.24-1.51,4.63-2.8,7-4.18-1.32-3-4.69-3.22-6.88-5.1-5.07-4.38-5.23-4.24-9.8.5-2.8,2.9-2.87,3.43-.62,7.08a29.5,29.5,0,0,0,3.08,4.52C1082.11,1397,1083.38,1397.08,1084.22,1397.36ZM564.8,915.66c-.62-1-1.54-2.57-2.65-4a2.33,2.33,0,0,0-3.59-.58c-2.75,2.07-5.51,4.14-8.23,6.26-1.31,1-1.28,2.34.08,3.44,2,1.59,4,3.12,6,4.64,2.4,1.79,3.13,1.77,5.41-.13.88-.74,1.73-1.53,2.55-2.35C567,920.32,567,919.74,564.8,915.66Zm88.06,333.09c3.47,5.65,4.28,6.62,5.06,6a47,47,0,0,0,5.12-5.34c4.33-4.94,4.35-5,.34-8.43-1.51-1.29-3-3.74-5.14-2.78-2.65,1.17-4.92,3.23-7.26,5-.34.27-.33,1.36-.1,1.91A34.53,34.53,0,0,0,652.86,1248.75ZM431.77,1026c-1.16.78-2.74,1.72-4.17,2.84s-1.61,2.47-.24,4.08c2.23,2.59,4.51,5.13,6.78,7.68,1.2,1.36,2.41,1,3.45-.18,6.42-7.64,7.4-5.88-.14-14C435.4,1024.11,434.89,1024.18,431.77,1026Zm898.12,227.7c2.28-1.6,3.92-2.87,5.68-3.94,5-3,5-3,.15-6.75a14.46,14.46,0,0,1-2.12-1.76c-4.53-5.08-5.5-3.89-9.64.82-2.1,2.38-2.07,3.36-.28,6.13a23.64,23.64,0,0,0,3.27,4.42C1327.75,1253.33,1329.19,1253.42,1329.89,1253.65ZM1417.16,1100c4.19-2.07,7.09-3.42,9.87-5a2.34,2.34,0,0,0,.1-2.23c-1.82-1.74-3.94-3.16-5.77-4.88-4.46-4.18-4.42-4.23-8.31.41-.59.7-1.13,1.45-1.76,2.13a3.16,3.16,0,0,0-.37,4.37,25.07,25.07,0,0,0,4.07,4.63A3.09,3.09,0,0,0,1417.16,1100ZM920.27,1383.56c4.21,7.32,4.21,7.32,9.71,1.23l.94-1c4.22-4.42,4.22-4.42-.41-8.2-4.14-3.38-4.34-3.38-8.81,0-.73.56-1.69,1-2.11,1.73a5.36,5.36,0,0,0-.77,3.11A11,11,0,0,0,920.27,1383.56ZM1332.86,1288c1.14-1.1,4.09-.36,5.12-2.9-1.75-1.4-3.54-2.75-5.24-4.2-1.38-1.19-2.64-2.52-4-3.74a2.46,2.46,0,0,0-3.65.14,27.14,27.14,0,0,0-1.87,2c-3.74,4.17-3.7,4.75-.44,9.33,2.35,3.3,4.12,3.84,7.26,1.22A33.63,33.63,0,0,1,1332.86,1288ZM656.94,728.27c-1.59-2.41-2.78-4.37-4.13-6.22-1.19-1.63-2.3-1.7-4.1-.42a7.4,7.4,0,0,0-1.54,1.36c-1.85,2.24-5.61,2.31-6.43,5.68,2.33,2.15,4.65,4.31,7,6.42a3.08,3.08,0,0,0,4.36.17,22.29,22.29,0,0,0,4-3.71C656.83,730.62,656.76,729.12,656.94,728.27ZM1307,1407c1.32,1.85,2.56,3.77,4,5.53a2.09,2.09,0,0,0,3.5.06c1.66-1.87,3.23-3.82,4.88-5.7,2.92-3.33,3-4.43.1-7.44-2.13-2.24-3.39-2.44-5.94-.71-1.88,1.28-3.63,2.75-5.49,4.07A3,3,0,0,0,1307,1407Zm106.76-279.73c-1.7,1.56-3.43,3.08-5.08,4.67-2.87,2.76-2.94,3.27-1,6.44a18.09,18.09,0,0,0,2,2.79,2.57,2.57,0,0,0,3.7.45c2.79-2,5.61-4,8.29-6.19.57-.47,1.09-2.06.83-2.31a80.85,80.85,0,0,0-6.7-5.83C1415.41,1126.92,1414.51,1127.22,1413.74,1127.23ZM546.9,1075.9a21,21,0,0,0-3.76,2.64,3.16,3.16,0,0,0-.49,3,84.42,84.42,0,0,0,6,8.31,2.37,2.37,0,0,0,2.32,0,68.45,68.45,0,0,0,4.68-5.9c2.2-3,2.12-3.68-.42-6.47C552.07,1074,551.08,1073.74,546.9,1075.9Zm461.59,306.83c-1.73-1.72-3.09-3.25-4.65-4.55-.62-.52-2-1-2.47-.67-2.68,1.64-5.86,3.07-7.57,5.5-1.46,2.07,2,3.62,3,5.54a36.7,36.7,0,0,0,2.54,4c1.07,1.49,2.28,1.6,3.36.28a70.85,70.85,0,0,0,5-6.51C1008.32,1385.38,1008.24,1383.93,1008.49,1382.73Zm-255.06,57.68c-5.81,2.94-5.78,2.91-.71,6.63,1.66,1.22,3.13,2.7,4.73,4,2.17,1.79,3.26,1.7,5.26-.4.63-.66,1.16-1.42,1.74-2.14,1.35-1.64,1.27-3.24.21-5.07C760.93,1437.08,760.36,1436.9,753.43,1440.41Zm536.25-783c.55-.33,1.35-.8,2.12-1.3a18.36,18.36,0,0,0,1.7-1.18c2.27-1.81,2.53-2.95.71-5.15-7.08-8.5-5.82-8.65-13,.08a2.81,2.81,0,0,0,0,3.78,28.87,28.87,0,0,0,2.76,3.09C1286.09,658.8,1286.79,658.87,1289.68,657.4Zm126.68,363.12c2.68,5.43,4.13,5.71,9.13,1.75a7.45,7.45,0,0,0,1-.91c1.41-1.71,5.26-1.55,4.76-4.11-.33-1.71-3.22-2.92-5-4.35a12.61,12.61,0,0,0-1.08-.85c-2.76-1.91-3.35-1.87-6,.4a23.82,23.82,0,0,0-2,1.92C1415.11,1016.82,1415,1017.73,1416.36,1020.52ZM1514,857.29c-1.15-1.94-2-3.55-3-5.06s-2.24-1.41-3.34,0c-1.7,2.13-3.34,4.32-5,6.49s-1.67,3.21.36,5.25c3.69,3.68,5.16,3.82,9.42.87.75-.52,1.45-1.1,2.2-1.62,1.6-1.11,2-2.4.72-4C1514.74,858.45,1514.24,857.68,1514,857.29Zm-395.58,498.88c.73,1.12,1.76,2.93,3,4.57,1,1.31,2.34,1.3,3.54.08,1.77-1.81,3.55-3.62,5.27-5.48,1.44-1.57,1.42-2.67,0-4.17-.65-.65-1.38-1.23-2.08-1.82-4.18-3.49-4.68-3.5-8.82-.2C1116.36,1351.49,1116.23,1352.12,1118.39,1356.17Zm-388.16-75.6-7.6,6.16c1.78,2,3.55,4.12,5.35,6.16a15.51,15.51,0,0,0,1.49,1.43c1.3,1.13,2.53.84,3.64-.27.81-.81,1.57-1.67,2.31-2.55,3.47-4.1,3.41-5.38-.42-9.23-.32-.33-.63-.8-1-.9C732.75,1281,731.48,1280.82,730.23,1280.57Zm495.62-828.91c-.73-1.05-1.39-2-2.06-2.92-3.86-5.37-4.86-5.43-9.23-.58-2,2.18-2.06,3.2-.19,5.32a38.36,38.36,0,0,0,4.39,4.35c2,1.6,3.62,1.24,6-1C1227,454.87,1227.18,453.87,1225.85,451.66ZM757.46,1401.29c-6.46,3.46-6.46,3.45-.87,7.77.91.7,1.79,1.44,2.65,2.19,1.46,1.28,2.9,1.27,4.22-.14a17,17,0,0,0,3-3.7,5.19,5.19,0,0,0,.38-3.82c-1.85-4.41-4.11-6.37-8.2-3A7.28,7.28,0,0,1,757.46,1401.29ZM614.1,761.12c-.58-.94-1-1.53-1.32-2.11-2.53-4-2.61-4-5.82-.73l-1.92,2c-3.33,3.47-4.35,3.85.91,7.87a10,10,0,0,0,2.35,1.42,3.22,3.22,0,0,0,2,.06C614.88,768.19,616.25,764.76,614.1,761.12Zm752.56-57.93c4-2.53,6.11-3.7,1.26-8.05-.84-.76-1.45-1.76-2.22-2.6-2.78-3.06-4-3.07-6.53-.09-2.14,2.51-2.26,3.5-.4,6,1.09,1.47,2.38,2.78,3.6,4.14A3.05,3.05,0,0,0,1366.66,703.19Zm-34,510.62c.55-.37,1-.6,1.31-.89.9-.72,1.78-1.46,2.65-2.2,2.9-2.47,2.95-2.85.38-5.22a54.94,54.94,0,0,0-4.19-3.58,2.75,2.75,0,0,0-3.77,0,18.54,18.54,0,0,0-2.87,2.94c-1.52,2.14,2.08,9.23,4.7,9.34A6.37,6.37,0,0,0,1332.67,1213.81Zm-638.76,28.94c-.61.37-1.63.91-2.55,1.57-2.22,1.59-2.51,2.92-.74,5.16,5.07,6.43,4.67,7.06,10.08.38a7.67,7.67,0,0,0,1.18-1.67,3.7,3.7,0,0,0,.29-2C701.41,1242.66,697.58,1240.9,693.91,1242.75Zm-25.47-710.3c-1.55-2.9-3.3-3.54-5.43-2.23a47.39,47.39,0,0,0-5.63,4c-2.18,1.82-2.11,3,0,5.16a16.9,16.9,0,0,0,1.51,1.42c1.45,1.15,3,1.3,4.33-.08a40.56,40.56,0,0,0,4.67-5.07C668.54,534.7,668.34,533.16,668.44,532.45Zm871.88,378.27,1.62,2.47c.37.57.69,1.19,1.09,1.74,1.54,2.09,2.47,2.18,4.45.48,5.63-4.83,5.25-8.08-1.42-11.65a3.65,3.65,0,0,0-2-.46A5,5,0,0,0,1540.32,910.72ZM1255,615.78c5.41-3,5.56-4.16,1-8.36-.67-.61-1.32-1.46-2.11-1.67a4.41,4.41,0,0,0-3.09.16,11.54,11.54,0,0,0-2.89,2.86c-1.83,2.22-1.85,3.24-.36,5.49C1249.76,617.52,1251.27,617.83,1255,615.78ZM480.59,986.35c-.31-.61-.56-1.25-.92-1.83-1.36-2.19-2.54-2.43-4.34-.73a56.69,56.69,0,0,0-4.74,4.94,2.91,2.91,0,0,0-.53,2.43c2.17,4.92,7.68,5.61,11,1.5C482.85,990.4,481.63,988.38,480.59,986.35ZM1328,1327.08c4-2,4.4-3.92,1-6.5-.91-.69-1.73-1.51-2.62-2.23-1.13-.91-2.34-1.53-3.72-.49-1.68,1.28-3.37,2.67-2.92,5.06C1320.57,1327.07,1324.37,1328.93,1328,1327.08Zm-91.81,30.13c-.41.28-1,.65-1.54,1.06-2.6,1.92-2.74,2.94-.73,5.68.41.55.88,1.06,1.32,1.6,2.85,3.46,3.58,3.48,6.21.16.43-.54.82-1.11,1.24-1.66,1.33-1.75,1.13-3.37-.32-5C1240.25,1356.7,1238.52,1356.1,1236.23,1357.21ZM842.33,1416c1.49,2.93,3.27,3.86,5.24,2.74,4-2.25,5.69-4.75,4.52-6.58-1.76-2.75-4.75-4.21-6.76-3.28C842,1410.37,840.87,1413.09,842.33,1416Zm197.45-33.83c-.51.35-1.3.81-2,1.37-1.9,1.49-2.14,2.63-1,4.68,2.64,5,4.87,5.22,8.56.9.15-.17.28-.36.42-.54,1.59-2,1.63-3.06.18-4.78C1043.8,1381.31,1042.28,1380.85,1039.78,1382.13Zm-238.3,70c.15.23.6,1,1.14,1.74,1.59,2.1,3,2.25,5.17.61,4.48-3.39,4.48-4.57,0-8a19.2,19.2,0,0,0-1.63-1.22c-1.88-1.16-3.22-.88-4.78.74C799.58,1447.82,800.16,1449.66,801.48,1452.11Zm-40.3-89.36c-4.76,2.33-3.94,4.16-1.16,6.41a16.05,16.05,0,0,0,3.18,2.54,3.84,3.84,0,0,0,3.1-.11c2.65-1.6,3.36-4.08,2.12-6.32C766.53,1361.85,764.48,1361.13,761.18,1362.75Zm601.46-620c.9-.56,1.3-.78,1.68-1,1-.66,1.9-1.3,2.82-2,2.23-1.68,2.34-2.53.48-4.33a38.43,38.43,0,0,0-3.16-2.67,2.6,2.6,0,0,0-3.73.34,14.81,14.81,0,0,0-3,3.77c-.91,1.93.14,3.69,1.64,4.84A9.9,9.9,0,0,0,1362.64,742.75Zm111.24,113c0-.07-.36-.68-.74-1.25-2.07-3.09-3.46-3.25-5.76-.38-1.11,1.38-2.4,3-2.59,4.64-.22,1.94,1.67,3.19,3.42,3.85,2.26.86,4-.49,5.52-1.9C1475.1,859.46,1475,857.89,1473.88,855.78ZM628.65,1122.24c-1.46-2.83-3.7-3.8-6.08-2.63-2.82,1.37-4.08,3.38-3.22,5.14,1.55,3.16,4.46,5.16,6.12,4.2C628.21,1127.36,629.69,1124.25,628.65,1122.24Zm393.61-569.12c-1.58-3-3.5-4.36-5-3.67-2.8,1.26-4.94,5.15-3.88,7,1.59,2.8,4.16,3.6,6.84,2.12S1023.51,555.45,1022.26,553.12Zm157.09-66.95c-.36-.53-1-1.5-1.65-2.42a2.77,2.77,0,0,0-4.17-.79c-4.61,2.88-4.63,4.81,0,8l.57.38c1.91,1.19,3.4,1.06,5-.37S1180.42,488.2,1179.35,486.17Zm-120.21,68.25c-1.8-3.39-3.66-3.69-6.2-1a8.35,8.35,0,0,0-1.68,2.11,3.8,3.8,0,0,0-.28,2.55c.91,2.55,3.94,4,6,3C1060,559.6,1060.72,557.4,1059.14,554.42ZM1397,819.17c2.76-1.29,3.83-2.84,3.15-4.55-1.09-2.74-3.85-5-5.44-4.48-2.36.79-4.64,4.67-3.83,6.51C1392,819.38,1394.41,820.36,1397,819.17Zm-796.76,23c-.65.43-1.44.91-2.17,1.45-2,1.48-2.07,2.61-.24,4.44a16.59,16.59,0,0,0,1.52,1.38c2.65,2.08,4.31,1.85,6.31-.86,1.45-2,1.32-3.46-.48-5.51C603.57,841.33,602.39,841.09,600.2,842.2Zm-121.75,193c-1.66-2.94-4.39-4.13-6.65-2.9-2.51,1.37-3.18,3-2,4.88,2.22,3.59,4.46,4.91,6.26,3.69C478.42,1039.22,479.42,1036.87,478.45,1035.16ZM706.33,539.25c1.3-.81,1.91-1.13,2.45-1.55,2.53-1.93,2.71-4,.6-6.33-1.77-2-3.24-1.8-5.58.79a17.43,17.43,0,0,0-2.07,2.7,2.39,2.39,0,0,0,.93,3.51A12.66,12.66,0,0,0,706.33,539.25Zm117.46,40.44c-1.3-2.6-3-3.84-4.51-3.21-2.36,1-4.15,4.15-3.37,5.9,1.06,2.37,3.46,3.52,5.44,2.61C824,583.77,824.89,581.87,823.79,579.69ZM603.61,881.6c-1.13-2.33-3-3.16-5-2.21-2.81,1.36-4.33,3.67-3.4,5.18,1.31,2.15,4.12,3.4,5.79,2.59C603.48,886,604.58,883.62,603.61,881.6ZM859,587.05c.37-.27.76-.52,1.1-.82,2-1.77,2.14-3.86.3-6-1.46-1.71-3.11-1.54-5.26.55a12.38,12.38,0,0,0-.92,1c-1.1,1.39-1.53,2.82-.15,4.3A3.81,3.81,0,0,0,859,587.05Zm25.14,791.2c1.19,2.52,3,3.81,4.57,3.21,2-.78,3.66-3.23,3.13-4.7-.91-2.49-3.89-4.3-5.83-3.55A3.5,3.5,0,0,0,884.13,1378.25Zm253.6-856.92a12.15,12.15,0,0,0-1.68-2c-.42-.37-1.53-.61-1.82-.35-1.44,1.3-3.16,2.6-3.85,4.28-.32.77,1.29,2.64,2.37,3.62,1.64,1.49,3.25,1.3,4.83-.07S1139.08,523.7,1137.73,521.33ZM589.54,1087.27a29.59,29.59,0,0,0,2.79-3.38c1.06-1.78-.29-4.24-2.42-4.67a4.8,4.8,0,0,0-5,2.78c-.7,1.84.47,3.11,1.64,4.13C587.3,1086.76,588.48,1086.88,589.54,1087.27Zm634.6-595.17a22.16,22.16,0,0,0-3.39-3.49,3.37,3.37,0,0,0-3-.1,3.55,3.55,0,0,0-1.48,2.75,4.9,4.9,0,0,0,3.59,4.45c1,.26,2.51-.48,3.53-1.16C1223.92,494.2,1223.89,493,1224.14,492.1Zm96.39,874.53a22.9,22.9,0,0,0,3.65-3.53,3.16,3.16,0,0,0-.12-3c-.56-.69-2.27-1.3-2.88-.94a12.9,12.9,0,0,0-4,3.66,3.11,3.11,0,0,0,.3,3C1318.1,1366.47,1319.49,1366.39,1320.53,1366.63Zm6.06-674.25c-.74-2.21-2.83-3.86-4.35-3.42a3.75,3.75,0,0,0-2.4,4.25c.72,2,3,3.41,4.68,2.84A3.06,3.06,0,0,0,1326.59,692.38Zm33.81,86.27c2.36-1.11,3.33-2.51,2.78-4-.8-2.08-3.13-3.28-4.8-2.46-2.08,1-3.1,3.12-2.4,4.93S1358.39,779.6,1360.4,778.65ZM770.06,1326.12c-.87-1.68-2.65-2.08-4.67-1-1.84,1-2.53,2.34-1.87,3.78.86,1.86,2.86,2.9,4.36,2.27C769.9,1330.26,771,1327.86,770.06,1326.12Zm691.77-382.48c.77,1,1.26,1.79,1.88,2.44a2.47,2.47,0,0,0,3.67.18,2.5,2.5,0,0,0,.6-3.63,8.38,8.38,0,0,0-1.88-2c-1.18-.87-2.63-1.36-3.63.05C1461.91,941.49,1462,942.74,1461.83,943.64ZM781.12,575.14c-2.67,1.16-4,3.36-3.46,5a3.06,3.06,0,0,0,3.91,1.61c2.25-.88,3.36-3,2.18-4.69A9.15,9.15,0,0,0,781.12,575.14Zm553.81,597.39c.3-.7,1.3-1.92,1.15-3-.3-2.2-3-3.6-4.59-2.7a2.67,2.67,0,0,0-1.28,3.49C1330.94,1172.48,1332.67,1173.49,1334.93,1172.53Zm92-194.65c-1.13-1.79-3.1-2.54-4.58-1.74s-1.67,2.55-.71,4.15,2.58,2.3,3.95,1.58A2.89,2.89,0,0,0,1426.92,977.88Zm-337.75,372.27c-.94-2.53-3.53-3.83-5.16-2.93-1.44.79-1.66,2.08-1,3.52.92,2.09,2.88,3.23,4.25,2.21C1088.18,1352.25,1088.66,1350.92,1089.17,1350.15Zm287.73-218.32a3.11,3.11,0,0,0-4-1.59,3,3,0,0,0-1.81,3.9c.58,1.37,1.61,2.26,3.22,1.86C1376.26,1135.5,1377.52,1133.4,1376.9,1131.83Zm-681-478a2.9,2.9,0,0,0-4.06-1.17c-1.67.87-2.25,2.53-1.38,3.94a3,3,0,0,0,4,1.28A3.11,3.11,0,0,0,695.91,653.87ZM606,803.56c-.89.64-1.46,1-2,1.43-1.88,1.49-2.25,2.79-1.08,3.85,1.5,1.36,2.87.84,4.15-.35.5-.45,1.19-1,1.28-1.52a4.92,4.92,0,0,0-.27-3C607.79,803.55,606.51,803.65,606,803.56Zm-50.9,151.89c-.13.75-.8,2.13-.43,3.1a3.48,3.48,0,0,0,4.47,1.89c1.37-.67,1.61-2.52.54-4.12S557,954.21,555.06,955.45ZM939.75,549.6a2.58,2.58,0,0,0-3.94-1.16c-1.19.77-2.18,1.74-1.52,3.35a3.38,3.38,0,0,0,4.45,1.9A2.87,2.87,0,0,0,939.75,549.6ZM982.31,551c-.79-.12-2.15-.77-3.11-.39-2,.77-2.88,3.22-1.75,4.39a3.43,3.43,0,0,0,2.92.79C982.58,555.12,983.42,553.24,982.31,551Zm-468.75,485.2c-2.1,1.22-2.58,2.92-1.65,4.33a2.34,2.34,0,0,0,3.48.81c1.55-.93,2.21-2.94,1.1-4C515.69,1036.62,514.3,1036.49,513.56,1036.22ZM651.31,766.86a22,22,0,0,0-3.91-2.31c-.44-.16-1.63.79-1.94,1.47-.67,1.47.46,3.15,2.7,4a2.76,2.76,0,0,0,2.4-.34C651.07,769.22,651,768.13,651.31,766.86Zm41.61-70.8c.19-.79.86-2,.66-3.1a2.63,2.63,0,0,0-3.65-1.9c-1.35.55-2.26,1.56-1.86,3.11C688.51,695.91,690.81,697,692.92,696.06Zm811,206.89c.09.89-.12,2.24.38,3.23,1,1.88,2.6,2.33,3.86,1.36s1.18-2.31.3-3.54C1507.24,902.33,1505.62,901.8,1503.88,903ZM734.42,1251.67c2.56-1.18,3.77-3,3.13-4.54-.54-1.24-1.67-1.44-2.89-1-2.3.92-3.43,2.59-2.49,4.06C732.65,1251,733.84,1251.32,734.42,1251.67Zm-71.73-48.5c-.89-.85-1.44-1.69-2.21-2s-2.25-.35-2.39,0a5.28,5.28,0,0,0-.26,3c.1.56.8,1.08,1.34,1.48,1,.72,2.12,1.16,3,0A6.75,6.75,0,0,0,662.69,1203.17ZM1249,652.92c.94-.67,1.79-.95,2-1.47.34-.94.7-2.32.26-3a3.45,3.45,0,0,0-2.84-.81,3.21,3.21,0,0,0-1.89,1.76c-.34.71-.48,2-.07,2.46C1247.07,652.54,1248.26,652.65,1249,652.92Zm-31.56-124.16c-.67,1.64-1.5,2.77-1.5,3.9,0,1.53,2.09,2.3,3.65,1.47,1.28-.67,2.29-1.81,1.3-3.18C1220.23,530.05,1218.89,529.64,1217.43,528.76Zm215.66,326.63c-.57-.63-.87-1.22-1.16-1.22-.83,0-2,0-2.42.46a11.19,11.19,0,0,0-1.65,3.4c-.07.17.64.91.83.85a12.33,12.33,0,0,0,3.5-1.4C1432.76,857.08,1432.85,856,1433.09,855.39Zm-50.35,196c-1.59-.22-2.67-.68-3.55-.43a1.9,1.9,0,0,0-.63,3.26,3.15,3.15,0,0,0,2.85.36C1382.08,1054.23,1382.19,1052.88,1382.74,1051.43ZM964.91,1340c-.4,1.69-.95,2.72-.79,3.63a2,2,0,0,0,3.14,1.31c.71-.58,1.46-2.19,1.16-2.68C967.84,1341.34,966.51,1340.93,964.91,1340ZM699.21,615.36c-1.41-.5-2.22-1.09-3-1-1.5.19-2.68,1.29-2.3,2.81.18.7,2,1.73,2.51,1.47C697.47,618.13,698.06,616.83,699.21,615.36Zm581.41,745.3c-2.27.61-3.57.69-4.55,1.29a1.87,1.87,0,0,0-.43,2.93,1.73,1.73,0,0,0,2.88,0C1279.27,1364,1279.6,1362.8,1280.62,1360.66ZM894.07,584.27c.37,1.89.26,3.15.83,3.77a3.93,3.93,0,0,0,2.87,1.05c1.13-.1,1.18-2.16-.1-3.35C897,585.12,895.88,585,894.07,584.27Zm203-24.64-3.83-1.22c-.22.82-.82,1.75-.6,2.42.61,1.83,2.82,2.72,3.72,1.63C1096.79,561.89,1096.74,560.89,1097,559.63Zm65.47,753.89c-.07,1.73-.39,2.8-.07,3.62a1.73,1.73,0,0,0,2.7.9c1.07-.67,1.5-1.79.62-2.77C1165.13,1314.58,1164.05,1314.32,1162.5,1313.52Zm51.71-745c-.12,1.53-.41,2.57-.16,3.45.08.3,1.65.54,2.29.25a1.61,1.61,0,0,0,.65-2.73C1216.51,569,1215.52,568.92,1214.21,568.49ZM691.6,731.34a9.94,9.94,0,0,0-3-.43,1.6,1.6,0,0,0-.37,2.76,2.71,2.71,0,0,0,2.36.3C691.16,733.68,691.2,732.54,691.6,731.34ZM519.05,993.53c-1.63-.41-2.73-.73-3.86-.9a2.85,2.85,0,0,0-.44,1.72c.53,1.29,1.49,2.43,3.06,1.8C518.33,996,518.47,994.82,519.05,993.53Zm865.32,20.14a11.41,11.41,0,0,0-3.1-.68c-.32,0-.9,1.34-.72,1.6a3.05,3.05,0,0,0,2,1.32C1383,1015.91,1383.48,1014.81,1384.37,1013.67ZM597,920.1c-.2,1.23-.59,2.12-.34,2.37a14.26,14.26,0,0,0,2.53,1.76c.23-.75.87-1.79.59-2.2C599.22,921.28,598.17,920.9,597,920.1Zm176.49,367.5c-1.72-.08-2.7-.42-3.26-.07a2.52,2.52,0,0,0-1.06,2.09c.1.49,1.61,1.25,1.94,1C771.85,1290.16,772.31,1289.14,773.44,1287.6ZM660.13,1161.49c-.23,1.44-.62,2.44-.42,3.32.08.33,1.61.71,2.26.46a1.71,1.71,0,0,0,.94-2.71C662.51,1162,661.45,1162,660.13,1161.49Zm626.29-472.44c-1.66.26-2.69.12-3.14.56s-.5,1.54-.72,2.34c.8,0,1.78.31,2.36,0S1285.67,690.57,1286.42,689.05ZM930.33,1339.21a19,19,0,0,0-3.36-.5c-.14,0-.5,1.41-.26,1.61a3,3,0,0,0,2,.77C929.2,1341.05,929.56,1340.18,930.33,1339.21Zm-122.87,69.91-2.94-1.24c-.23.54-.77,1.45-.63,1.58a17.54,17.54,0,0,0,2.5,1.62ZM1006.74,1344c-1-.48-1.76-1.07-2-.91a7.93,7.93,0,0,0-1.51,1.77c.48.33,1.11,1,1.42.91A9.53,9.53,0,0,0,1006.74,1344Zm195.17-27c-.19.77-.6,1.49-.4,1.91a2,2,0,0,0,1.55.5,8.17,8.17,0,0,0,.76-2.06ZM702.74,575.58c-1.34.28-2.18.21-2.47.58a8.37,8.37,0,0,0-.95,2.31c.61-.05,1.44.14,1.8-.19A12.06,12.06,0,0,0,702.74,575.58Zm676.12,514.05c-1.21.28-2.06.26-2.57.66-.35.27-.22,1.14-.3,1.74a6.23,6.23,0,0,0,2.22-.14C1378.54,1091.75,1378.54,1090.84,1378.86,1089.63ZM1127,1312.4l-2-.58-.49,2.11c.59.11,1.31.48,1.72.27S1126.75,1313.16,1127,1312.4Zm163.18-70.5c-.84-.2-1.55-.6-2-.4s-.58,1-.85,1.55a8.72,8.72,0,0,0,2.1.68C1289.65,1243.74,1289.9,1242.7,1290.21,1241.9Zm-549-667c-.25,2-.35,2.75-.45,3.51.42,0,1.07.27,1.22.08a4.11,4.11,0,0,0,1.07-2C743.08,576.18,742.2,575.74,741.2,574.9ZM554.64,1039.2c-.93.18-1.72.11-2.07.47s-.18,1.13-.24,1.73c.59,0,1.38.17,1.72-.13S554.4,1040.14,554.64,1039.2Zm144.55,166.53c-.05.37-.26.83-.11,1.09s.66.17,1,.24c.06-.37.27-.83.13-1.09S699.55,1205.8,699.19,1205.73Zm587,77.13c.27-.52.55-1.07.82-1.61l-1.61-.64a12.23,12.23,0,0,0-.55,1.75A8,8,0,0,0,1286.15,1282.86Zm5.42-78.93c-.31-.23-.64-.67-.94-.65s-.61.46-.92.72l1.29,1ZM1212.69,608.5a7,7,0,0,0-1.68.64c-.19.14,0,.74,0,1.13a7.28,7.28,0,0,0,1.7-.41C1212.81,609.78,1212.69,609.13,1212.69,608.5ZM628.48,1084.44c0-.35-.07-.71-.1-1.07-.2,0-.57.05-.57.1a6.48,6.48,0,0,0,.07,1.07Zm705.51,45,.44-.12-.32-.32Zm-288.71,217c-.29-.26-.57-.7-.86-.71s-.52.49-.78.76c.29.26.57.71.86.71S1045,1346.79,1045.28,1346.52ZM599.74,1237.26c-2.39.82-4.79,1.61-7.17,2.46-10.67,3.81-16.05,16.63-8.39,27.86,3.81,5.58,9.24,8.36,15.93,7.75s12.3-3.59,15.36-10.09c4.62-9.82.91-20.36-8.85-25-2.28-1.09-4.64-2-7-3Zm29.45-811.77c-4.56-9.08-14.7-12.2-24.09-7.91-8.09,3.69-12.74,14.79-7.74,24.06s14.28,12.62,23.88,7.82C630.4,444.88,633.79,434.67,629.19,425.49ZM329.41,1028.22a17.39,17.39,0,0,0-7.74,23.54c4.45,9.12,14.71,12.54,24,8s12.51-14.48,7.73-23.88S338.72,1023.43,329.41,1028.22Zm398.23,536.12c-8.3,3.71-12.28,14.67-8.36,23,3.84,8.13,15.26,12.12,23.14,8.07a17,17,0,0,0,7.37-22.6C745.69,1564.21,736.1,1560.56,727.64,1564.34ZM546.43,728.65c-8.3,3.71-12.27,14.61-8.35,22.9,3.83,8.1,15.24,12.08,23.08,8.05a17.16,17.16,0,0,0-14.73-31Zm867.93,791.81c8.68-4.37,11.83-13.59,7.54-22s-13.54-11.64-22.16-7.44c-8.79,4.29-11.71,13.08-7.3,22S1405.61,1524.87,1414.36,1520.46ZM552.68,1145.07c4.37,8.54,13,11.44,21.49,7.26,8.67-4.26,11.91-13.53,7.71-22a16.14,16.14,0,0,0-22.2-7.33C551,1127.35,548.16,1136.24,552.68,1145.07ZM917.77,439.78c-7.76,4-11,14.07-7,22.05a16.84,16.84,0,0,0,22.4,7.61c6.16-3.06,11.82-12.83,6.89-22A16.57,16.57,0,0,0,917.77,439.78Zm-379.39,407A16.41,16.41,0,0,0,531,868.66c5.15,10,15.42,11.14,22.35,7.63,7.94-4,10.86-13.95,6.78-22C555.64,844.65,544.84,843.59,538.38,846.74ZM971.63,471.8c8-3.46,11.44-13.83,7.71-21.85-3.66-7.87-14.08-11.78-21.79-7.84-8.69,4.44-11.56,14.19-7.54,21.71C954,472.8,963.92,475.16,971.63,471.8Zm437.06,178.41c3.71,7.79,13.69,11.93,21.61,7.91,8.39-4.24,11.72-13,7.77-21.48s-13.11-11.93-21.37-8A16.27,16.27,0,0,0,1408.69,650.21Zm-375.58,784.21c-3.43-8-13.56-11.49-21.63-7.74a15.75,15.75,0,0,0-7.59,21.48c4,8.45,13.12,11.78,21.36,7.81C1033.54,1452.23,1036.7,1442.81,1033.11,1434.42Zm21.57-941.17c-3.81-7.94-13.88-11-21.88-7s-11.07,13.46-6.87,21.73,13.35,11.32,21.59,7.09C1055.65,511.16,1058.57,501.36,1054.68,493.25Zm215.7-126.63a16,16,0,0,0,21.63,7.49c8.25-4,11.29-13.26,7.11-21.61a16,16,0,0,0-21.69-7.18A16.17,16.17,0,0,0,1270.38,366.62Zm146.41,1114.64c7.77-3.89,11.06-14.22,7-22s-13.11-10.77-21.29-6.87c-8.5,4.06-11.61,13-7.42,21.44A16.07,16.07,0,0,0,1416.79,1481.26ZM696.65,1350.18a16.12,16.12,0,0,0,21.18,7.37c8.42-3.88,11.65-13,7.62-21.39a16,16,0,0,0-21.51-7.72A16.17,16.17,0,0,0,696.65,1350.18ZM313.17,1034.59a16,16,0,1,0-28.8,13.86,15.89,15.89,0,0,0,21.64,7.42A16.08,16.08,0,0,0,313.17,1034.59ZM1273.41,327c3.94,8.43,13,11.63,21.34,7.51s11.56-12.93,7.63-20.86c-4-8.08-13.47-11.82-21.5-7.5C1272.74,310.13,1269.61,318.87,1273.41,327Zm347.52,517.59c-4-8-13-10.92-21.16-6.92s-11,12.73-6.84,21,12.68,11.11,21,7A15.27,15.27,0,0,0,1620.93,844.61ZM908.52,1448.47c7.6-3.77,10.71-14,6.81-21.45a16.47,16.47,0,0,0-20.86-7.15c-7.72,3.53-10.89,13.22-6.94,21.22C892.1,1450.44,901.67,1451.87,908.52,1448.47Zm153.76,49.19c7.47-3.69,10.83-13.79,7.09-21.32-3.63-7.32-13.33-11-20.61-7.41-7.13,3.51-11.74,11.91-7.34,21C1045.27,1497.94,1054.63,1501.43,1062.28,1497.66Zm186.51-93.92a15.55,15.55,0,0,0-7.23,20.54c3.38,7.5,12.87,10.88,20.48,7.3a15.42,15.42,0,0,0-13.25-27.84ZM528.26,735.08a14.91,14.91,0,0,0-20.49-6.82c-7.95,3.94-10.9,12.47-7,20.34s12.41,10.72,20.41,6.82S532.1,742.94,528.26,735.08ZM1325,1448a14.78,14.78,0,0,0-8.52,16.47c1.76,7.79,7.71,12.88,15,12.87a15.16,15.16,0,0,0,14.27-10.16,15.49,15.49,0,0,0-4.76-16.9,80.85,80.85,0,0,0-6.91-4.56h-2.6C1329.37,1446.49,1327.13,1447.08,1325,1448Zm350.3-565.92c-8,3.82-11.13,12.52-7.3,20.36a14.67,14.67,0,0,0,19.87,7.09c8.17-3.78,11.48-12.37,7.75-20.14C1691.8,881.37,1683.28,878.31,1675.33,882.1ZM1289.44,412.38c7.63-3.9,10.29-12.72,6.21-20.62-3.87-7.5-12.58-10.52-19.9-6.9a15.37,15.37,0,0,0,13.69,27.52Zm-706.35-6.3a14.77,14.77,0,0,0,7-19.83c-3.68-8.08-12.38-11.54-20-8a15.37,15.37,0,0,0,13.06,27.82Zm84.41,881.76c-7.32,3.61-10.2,12.37-6.59,20,3.8,8,12.41,11.28,20.15,7.58a15.37,15.37,0,0,0-13.56-27.58ZM1464.85,1104c-7.31,3.62-10.19,12.38-6.57,20,3.82,8,12.43,11.27,20.16,7.55a15.36,15.36,0,0,0-13.59-27.55Zm-59.42-375.42c4.06,7.64,12.74,10.17,20.63,6s10.1-11.76,6-19.86-12.2-10.76-20.27-6.65A14.71,14.71,0,0,0,1405.43,728.55Zm-26.16,487.23c-7.51,3.49-10.76,12.92-7.1,20.62a15.14,15.14,0,0,0,20.56,6.95c7.33-3.68,10.07-12.42,6.31-20.11S1386.67,1212.34,1379.27,1215.78Zm-245-755.88a14.69,14.69,0,0,0-20-6.41c-8.08,4.05-10.69,12.27-6.48,20.4,4,7.84,12,10.44,19.85,6.48S1138.3,467.67,1134.25,459.9Zm518.28,407.91a15.2,15.2,0,0,0,6.67-20.61c-3.69-7.22-13-10.42-20.08-6.9-7.65,3.8-10.46,12.73-6.46,20.56A14.88,14.88,0,0,0,1652.53,867.81Zm-357.2-264.43c3.83,7.8,11.75,10.42,19.71,6.79,9.14-4.16,10.16-14.41,7-20.33-3.94-7.39-12.45-10.35-19.94-6.7C1294,587.09,1291.29,595.17,1295.33,603.38ZM769.5,1530.61a14.9,14.9,0,0,0-6.82,19.9c2.81,6.15,11.59,11.51,20.4,6.81,7.72-4.11,10.46-12,6.61-19.77C785.63,1529.35,777.56,1526.57,769.5,1530.61ZM1198,380.13c-7,3.17-10.49,12.84-7.18,20.09,3.48,7.62,13.07,11.1,20.49,7.44A15.31,15.31,0,0,0,1198,380.13Zm390.39,556.62a14.9,14.9,0,0,0,20,6.85c6.94-3.5,10.13-13.32,6.47-20.33-3.82-7.34-12.43-9.95-20.25-6.76C1586.46,921.31,1584.88,929.76,1588.38,936.75ZM621,505.37c-3.78-7.62-12.35-10.54-19.8-6.75a14.78,14.78,0,0,0-6.74,20c3,5.77,11.18,11.35,19.93,6.62C622,521.4,624.76,513,621,505.37Zm645.49-61.85c2.65,5.32,6.83,8.74,13,8.93,6,.18,10.78-2.22,13.72-7.62a15,15,0,0,0-4.91-19.57,14.74,14.74,0,0,0-19.81,3.42c-1.53,2-2.71,4.27-4,6.42,0,.86,0,1.71,0,2.57A49,49,0,0,0,1266.45,443.52Zm125,897.11a14.89,14.89,0,0,0-19.93-6.82,14.5,14.5,0,0,0-6.71,19.29c3.59,7.71,12.12,10.89,19.56,7.3A14.7,14.7,0,0,0,1391.41,1340.63Zm41.9-134.24a14.52,14.52,0,0,0,7-19.81,14.75,14.75,0,0,0-19.37-6.92c-7.55,3.56-10.51,12.14-6.82,19.84A14.38,14.38,0,0,0,1433.31,1206.39ZM506,767.72c-7.65,3.62-10.87,12.4-7.22,19.74,3.41,6.87,12.61,10.12,19.57,6.93a14.54,14.54,0,0,0,6.83-19.89C521.53,767,513.54,764.15,506,767.72Zm67.38,480.61c-3.43-7.45-12.38-10.4-20-6.59s-10.17,11.81-6.46,19.31,11.74,10.23,19.29,6.55A14.49,14.49,0,0,0,573.39,1248.33Zm35.26-547.7c-3.72-7.4-12.57-10-20.15-6-7.36,3.88-9.83,12-5.92,19.47s11.92,9.88,19.45,6A14.5,14.5,0,0,0,608.65,700.63ZM568,417.84A14.15,14.15,0,0,0,561.16,437c3.72,8.06,11.88,11.16,19.45,7.38A14.39,14.39,0,0,0,587.22,425,14.53,14.53,0,0,0,568,417.84ZM1678.43,843.53c-7.69,3.73-10.23,11.38-6.36,19.19s11.4,10.39,19.14,6.56c7.55-3.73,10.3-11.73,6.61-19.24A14.24,14.24,0,0,0,1678.43,843.53ZM1125.29,1416c3.62,7.6,11.65,10.65,19,7.22a14.65,14.65,0,0,0-12.44-26.53A14.34,14.34,0,0,0,1125.29,1416Zm50.58-991.28c-3.4-7.86-11.2-11.07-18.75-7.73a14.19,14.19,0,1,0,11.4,26C1176.16,439.58,1179.12,432.24,1175.87,424.73Zm293.85,602.45a14.19,14.19,0,1,0,13.39,25c7.26-3.73,9.64-11.28,5.89-18.76S1477.2,1023.32,1469.72,1027.18Zm34.85-227.87c-3.62-7.67-11.48-10.59-19-7a14.15,14.15,0,1,0,12.22,25.53C1505.14,814.24,1508,806.5,1504.57,799.31ZM853.73,1457.48a14.45,14.45,0,0,0-6.74,19.31c3.4,6.62,12.62,9.94,19,6.45,6.16-3.4,10.26-11,6.32-18.87A13.81,13.81,0,0,0,853.73,1457.48ZM415.14,958.24a14.11,14.11,0,0,0,12.4,25.35c7.19-3.72,9.9-11.47,6.35-18.77A14,14,0,0,0,415.14,958.24ZM721.2,1375.51c-3.34-6.88-12.06-9.53-19-6.06a14,14,0,0,0-5.84,18.94,13.57,13.57,0,0,0,18.78,6C722.24,1391.14,724.56,1382.42,721.2,1375.51ZM877.75,477.93c-6.88,3.38-10,12-6.59,18.73s11.25,10.12,18.68,6.62a14,14,0,0,0-12.09-25.35Zm213,956a14.32,14.32,0,0,0-6.8,18.7,14.11,14.11,0,0,0,18.65,6.76,13.88,13.88,0,0,0,6.67-18.57C1105.93,1433.8,1097.52,1430.66,1090.73,1433.93Zm410.63-286.7a13.76,13.76,0,0,0-6.19,18.26c3.46,7.13,11.51,9.79,18.71,6.18,7.37-3.69,9.89-11.29,6.18-18.6S1508.63,1143.39,1501.36,1147.23ZM646.26,424a14,14,0,0,0,12.31,25.11c7.18-3.57,9.6-11.41,5.81-18.8C660.77,423.28,653.06,420.6,646.26,424ZM812.32,1494.35a14,14,0,1,0,12.57,24.92c6.72-3.55,9-11.24,5.42-18.35S819.13,1491.09,812.32,1494.35ZM570.55,1189.24a14,14,0,1,0-12.29-25c-6.7,3.45-9.09,11.23-5.61,18.31S563.69,1192.47,570.55,1189.24Zm1159.37-318a14,14,0,0,0,5.94-18.91c-3.44-6.47-12.12-9.27-18.42-5.94a13.67,13.67,0,0,0-5.57,18.4C1715.36,871.74,1723.25,874.56,1729.92,871.26Zm-801.72,571c3.57,7.53,11,10.12,18.45,6.37a13.12,13.12,0,0,0,6-18.14,13.32,13.32,0,0,0-18.14-6.19C927.34,1427.82,924.78,1435.09,928.2,1442.3Zm458-121.63a14,14,0,0,0,6.41-18.76c-3.29-6.56-11.82-9.54-18.28-6.38a13.64,13.64,0,0,0-6,18.24C1371.7,1320.8,1379.45,1323.79,1386.22,1320.67Zm-15.28-46.16a13.22,13.22,0,0,0,18.51,6.32c7.06-3.58,9.45-10.86,5.92-18s-10.89-9.76-17.9-6.28S1367.71,1267.6,1370.94,1274.51ZM465.07,1084.65c-3.41-7.13-11.44-9.75-18.66-6.09-6.93,3.52-9.24,11-5.61,18.13s10.87,9.5,18,6A13.16,13.16,0,0,0,465.07,1084.65ZM991.44,1433.3c-3.45-7.25-10.87-10-17.89-6.52s-9.84,11.14-6.57,18a13.29,13.29,0,0,0,18.08,6.41C992.29,1447.79,994.88,1440.51,991.44,1433.3Zm219-30.47c-6.49,3.12-9.51,11.72-6.44,18.34s11.62,9.89,18.14,6.73c5.14-2.5,10.53-9.57,6.31-18.11C1225.18,1402.93,1216.92,1399.74,1210.48,1402.83ZM550.64,1282.06a13.76,13.76,0,0,0-5.79,17.89c3.4,6.88,11.21,9.42,18.26,6s9.38-11,5.7-18.16S557.53,1278.32,550.64,1282.06ZM516.52,892a13.78,13.78,0,0,0-18.42-5.74c-6.65,3.4-9,10.75-5.68,17.65,3.48,7.22,10.93,9.84,17.93,6.3A13.48,13.48,0,0,0,516.52,892Zm424-483a13.73,13.73,0,0,0-18.39-5.57c-6.62,3.55-8.91,10.81-5.57,17.64,3.5,7.15,11,9.71,17.92,6.16A13.7,13.7,0,0,0,940.52,409Zm361.85-133.67a13.74,13.74,0,0,0-18.27-6,12.87,12.87,0,0,0-5.94,17.53c3.39,7.2,10.85,9.94,17.79,6.54A13.72,13.72,0,0,0,1302.37,275.33ZM253.13,1027.49c-6.16,3.36-8.72,11.88-5.41,18a13.75,13.75,0,0,0,18.56,5.33c6.53-3.52,8.67-11,5.13-17.82A13,13,0,0,0,253.13,1027.49Zm486.44-553a13.76,13.76,0,0,0-17.83-6,13,13,0,0,0-6,18.13c3.46,6.81,10.79,9.35,17.52,6.06S742.9,480.94,739.57,474.44ZM334.14,992.83a13.64,13.64,0,0,0-6,18.31c3.35,6.26,11.65,9,17.89,6a13.53,13.53,0,0,0,5.78-18.34A13.2,13.2,0,0,0,334.14,992.83Zm1134.37,73.7a13.14,13.14,0,0,0-6.2,18c3.45,7,11,9.55,18,6a13.36,13.36,0,0,0-11.77-24ZM681.13,1622.28a13.5,13.5,0,0,0,18.2,6.29,13.16,13.16,0,0,0,5.82-17.71c-3.31-6.79-10.61-9.3-17.51-6A12.93,12.93,0,0,0,681.13,1622.28Zm751.42-68.9c3.4,6.88,10.86,9.56,17.37,6.24a13.31,13.31,0,0,0-11.76-23.87C1431.53,1539,1429.15,1546.51,1432.55,1553.38Zm-267.08-134.9c3.2,6.84,10.39,9.45,17.3,6.28,7.23-3.32,9.63-9.9,6.23-17.08s-10.2-9.74-17.11-6.45S1162.32,1411.73,1165.47,1418.48ZM534,1147.08a13.06,13.06,0,0,0,5.83-17.59c-3.1-6.32-11.4-9.25-17.57-6.21-6.55,3.24-8.94,10.75-5.59,17.56S527.33,1150.32,534,1147.08Zm932.5-389.75a12.72,12.72,0,0,0-17-5.91c-6.84,3.29-9.29,10.7-5.77,17.48a12.33,12.33,0,0,0,17,5.5A12.71,12.71,0,0,0,1466.46,757.33Zm-819.38,536.4a12.74,12.74,0,0,0-16.92-6.21c-6.9,3.21-9.49,10.58-6.08,17.37a12.35,12.35,0,0,0,17,5.79A12.66,12.66,0,0,0,647.08,1293.73Zm-56.19-9.36c-6.42,2.7-9.52,11.09-6.46,17.48,2.88,6,11.11,9.05,17.08,6.3a12.81,12.81,0,0,0,6-17C604.53,1284.59,597.35,1281.65,590.89,1284.37ZM474.44,928.89c-2.75-6.14-10.75-9.08-17-6.25-6.49,2.93-9,10.15-6,16.9,3.37,7.56,10.69,8.71,16.77,6.43C474.25,943.18,477.22,935.11,474.44,928.89Zm1079.5,25.91a12.37,12.37,0,0,0-5.48,16.54c3.12,6.62,10.45,9.29,16.8,6.13a12.72,12.72,0,0,0,6-17.06C1568.24,954.41,1560,951.75,1553.94,954.8ZM573.55,1210.13a11.91,11.91,0,0,0-16.23-5.85c-6.65,3.06-9.38,10.15-6.41,16.69a12.68,12.68,0,0,0,16.9,6.09A12.35,12.35,0,0,0,573.55,1210.13Zm-93-459.89a12.61,12.61,0,1,0-11.36-22.52c-5.92,3.1-8.05,10.33-4.91,16.61S474.43,753.14,480.59,750.24Zm898.58,747.34a12.5,12.5,0,0,0-22.17,11.55c3.25,6.26,10,8.46,16.39,5.33C1379.93,1511.23,1382.46,1503.84,1379.17,1497.58ZM600.24,539.52c-6.17,2.72-8.88,10.73-5.75,17a12.34,12.34,0,0,0,16.39,5.72c6-2.86,8.45-10.08,5.47-16.37S606.43,536.78,600.24,539.52Zm929.2,457.67a12.12,12.12,0,0,0-16.5-5.34c-6.49,3.19-8.57,9.65-5.24,16.29s9.63,8.74,16.23,5.44A12,12,0,0,0,1529.44,997.19Zm-823,575.15c-3.27-6.66-9.67-8.9-16.15-5.65A12.17,12.17,0,1,0,701,1588.56C707.58,1585.31,709.7,1579,706.44,1572.34Zm-21.11,72.5a12.17,12.17,0,1,0,11.2,21.61c6.49-3.33,8.47-9.71,5.08-16.34S691.79,1641.45,685.33,1644.84Zm25.49-212.58c6.29-3.06,8.9-10.06,6-16.19a12.1,12.1,0,0,0-16.26-5.81c-6.5,3-8.84,9.57-5.74,16.08C698,1433.05,704.36,1435.39,710.82,1432.26Zm365.85-978.64a12.13,12.13,0,1,0,10.29,22c6.61-3.06,8.88-9.4,5.74-16S1083.06,450.55,1076.67,453.62ZM727.09,1607.71c-6,2.62-8.53,10.09-5.56,16.33a12.25,12.25,0,0,0,16.16,6.2c5.79-2.69,8.5-10.49,5.73-16.46A12.67,12.67,0,0,0,727.09,1607.71ZM608.45,662.36a12.11,12.11,0,0,0-16.12-4.85A11.88,11.88,0,0,0,587.41,674a11.49,11.49,0,0,0,15.92,4.86A12.09,12.09,0,0,0,608.45,662.36Zm847,538.87c2.77,5.91,10.66,8.72,16.5,5.87,5.67-2.77,8-10,5.24-16-3.62-7.85-11.26-8-16.27-6C1455.48,1187.74,1452.81,1195.62,1455.43,1201.23Zm-54.64,230.89c2.73,6.58,9.58,9.36,16,6.46a12,12,0,0,0,6.13-15.69,12.36,12.36,0,0,0-15.7-6.3A11.91,11.91,0,0,0,1400.79,1432.12Zm34.62,81.79c2.6,5.53,10.38,8.42,15.94,5.91a12,12,0,0,0,5.57-16.38c-3.08-6.19-9.42-8.31-15.71-5.27A11.93,11.93,0,0,0,1435.41,1513.91ZM1321.82,551.6c-3.31-6-9.72-7.84-16-4.53a11.93,11.93,0,0,0-5,16c3,5.46,10.9,8,16.18,5.18C1322.36,564.83,1325.66,558.54,1321.82,551.6ZM1014.07,454c-3.08-6.22-9.44-8.32-15.76-5.19a11.82,11.82,0,0,0-5.54,15.84,12.36,12.36,0,0,0,16.1,5.28A11.64,11.64,0,0,0,1014.07,454ZM424.44,1083.63a12,12,0,0,0-14.91-6.58,11.38,11.38,0,0,0-6.42,15.32c2.8,6.64,8.87,9.37,15.14,6.82A11.81,11.81,0,0,0,424.44,1083.63ZM1768.66,872.25A11.9,11.9,0,0,0,1758,851c-6,3-8.09,9.67-5,15.88S1762.62,875.39,1768.66,872.25ZM1457.6,636c-6.07,3-8.23,9.59-5.12,15.67,3,5.85,9.09,7.92,15.13,5.13,6.39-3,8.55-9,5.47-15.41S1463.89,632.94,1457.6,636ZM534.91,340.2c-5.74,2.47-8.32,10.1-5.37,15.89A12,12,0,0,0,545,361.47c5.57-2.63,7.84-9.49,5.08-15.35A11.64,11.64,0,0,0,534.91,340.2Zm808.95,248.67c-6.31,2.5-9,8.44-6.65,14.56,2.47,6.4,8.35,9.26,14.4,7,6.57-2.43,9.49-8.67,7-15A11.63,11.63,0,0,0,1343.86,588.87Zm387.48,304.51c-2.55-5.76-10.21-8.57-15.73-5.77a11.62,11.62,0,0,0-4.86,15.4c2.77,5.64,9.72,8.26,15.13,5.69S1733.82,899,1731.34,893.38Zm-688.51,633.75c3.05,6.32,9.38,8.46,15.55,5.24a11.31,11.31,0,0,0,4.92-15.29,11.57,11.57,0,0,0-15.32-5C1042,1515,1039.93,1521.11,1042.83,1527.13ZM1244.08,307.66c-6,2.72-8.25,9-5.41,15s8.94,8.41,14.95,5.61a11.37,11.37,0,1,0-9.54-20.63ZM666.87,1330.25a12.07,12.07,0,0,0-5.15,15.46c2.62,5.36,10.06,8,15.37,5.41s7.76-9.85,4.95-15.38C679.12,1330,672.21,1327.49,666.87,1330.25Zm874.3-527.71A11.6,11.6,0,0,0,1526,797.1c-5.9,2.71-8.14,9-5.32,15s9,8.38,14.86,5.57A11.56,11.56,0,0,0,1541.17,802.54ZM501.88,849a11.29,11.29,0,0,0,9.44,20.52c6-2.63,8.36-8.89,5.56-14.92S507.66,846.19,501.88,849Zm196.5,601.13a11.3,11.3,0,0,0,9.6,20.45c6-2.67,8.29-9,5.44-15S704.14,1447.27,698.38,1450.11ZM839.69,478.17a10.91,10.91,0,0,0-5,14.69c2.82,6.11,9.07,8.46,14.92,5.6a11.3,11.3,0,1,0-9.93-20.29ZM520,814.86a11.71,11.71,0,0,0-15.38-5.13,11.12,11.12,0,0,0-5,14.73c2.67,5.79,9.63,8.48,15.07,5.83S522.62,820.23,520,814.86Zm168.32,729a11,11,0,1,0,4.65-15.33A11.17,11.17,0,0,0,688.35,1543.88ZM761.29,473.27a10.53,10.53,0,0,0-4.65,14.66,11,11,0,0,0,14.64,5.2,11.32,11.32,0,0,0,5.28-15.21C773.69,472.15,767.2,470.17,761.29,473.27Zm525.88,976c-5.69,2.87-7.79,8.9-5.05,14.54,2.9,6,9.17,8,15.1,4.79,5.6-3,7.61-9.19,4.77-14.68A11.12,11.12,0,0,0,1287.17,1449.31ZM610.55,384.51c-5.64,2.67-7.52,9.22-4.38,15.25,2.8,5.37,8.67,7.47,13.94,5a11.1,11.1,0,0,0,5.15-15.13A11.45,11.45,0,0,0,610.55,384.51ZM962.66,407.9c-5.71,2.86-7.81,8.92-5,14.56s8.81,7.73,14.55,4.92c6-2.94,7.87-8.35,4.91-14.39C974.21,407.11,968.36,405.05,962.66,407.9Zm43.38,1076c2.36,6.08,8.1,8.89,13.93,6.83,5.35-1.9,8.36-8.86,6.21-14.35a11.48,11.48,0,0,0-14.35-6.33C1006.63,1472.09,1004,1478.51,1006,1483.89Zm-309.53,5.62c-5.81,2.68-7.88,8.59-5,14.4,2.73,5.59,8.33,7.71,13.81,5.23,5.86-2.66,8.28-8.74,5.68-14.28A10.58,10.58,0,0,0,696.51,1489.51Zm336.67-1023c2.93,5.66,9.32,7.76,14.68,4.83,4.82-2.63,6.93-9.42,4.49-14.48-2.55-5.29-9.71-7.83-14.76-5.23C1032.21,454.44,1030.28,460.94,1033.18,466.54ZM598.09,580.41c-5.84,2.64-8,8.53-5.17,14.35,2.69,5.62,8.28,7.79,13.77,5.35,5.88-2.62,8.35-8.68,5.8-14.23A10.59,10.59,0,0,0,598.09,580.41Zm-3,39a10.75,10.75,0,0,0-4.48,14.25c2.73,5.76,8.92,8.14,14.39,5.53,5.12-2.45,7.49-9.62,4.9-14.83S600.18,616.8,595.06,619.43Zm-43.22,75.43c-5.24,2.37-7.75,9.41-5.25,14.7s9.56,7.81,14.68,5.3c5.43-2.66,7.4-9,4.54-14.72A10.73,10.73,0,0,0,551.84,694.86ZM1090,1475.93c-5.7,2.66-7.8,8.67-5,14.43a10,10,0,0,0,13.83,5,10.67,10.67,0,1,0-8.8-19.43ZM1460,598c-5.17,2.87-6.87,8.74-4.14,14.22,2.83,5.66,8.93,7.51,14.55,4.4A10.67,10.67,0,1,0,1460,598Zm55.06,595.81a10.85,10.85,0,0,0-14-5.09,10.69,10.69,0,0,0,9.22,19.29C1515.18,1205.59,1517.46,1198.86,1515.08,1193.79ZM801.33,476.71a10,10,0,0,0-4.78,13.84,10.53,10.53,0,0,0,14,4.77,10.71,10.71,0,0,0,4.82-14.07C812.86,476.06,806.74,474.09,801.33,476.71Zm614.06,759.62a10,10,0,0,0,13.9,4.81c5.33-2.7,7.29-8.1,4.83-13.34a10.29,10.29,0,0,0-18.73,8.53ZM894.5,1464.27c-5.57,2.81-7.18,8.31-4.08,13.93,2.89,5.25,8.11,6.75,13.47,3.88a10.07,10.07,0,0,0-9.39-17.81Zm742-541.19c-5.55,2.49-7.56,7.59-5.16,13.1,2.58,5.94,7.89,8,13.56,5.3a10.11,10.11,0,0,0-8.4-18.4ZM215.92,1027.25a10,10,0,1,0,8.81,18c5.42-2.65,7.2-7.88,4.54-13.29C226.69,1026.71,221,1024.71,215.92,1027.25ZM533,380.89a10,10,0,1,0,8.75,18c5.42-2.64,7.23-7.86,4.58-13.28C543.79,380.38,538.12,378.36,533,380.89ZM1395.4,1549a9.94,9.94,0,0,0,13.32,5c5.52-2.54,7.47-7.7,5-13.14s-8.06-7.52-13.19-5.12A10,10,0,0,0,1395.4,1549ZM369.81,1076.78c-4.49,2.45-6.5,9.37-4,13.88,2.53,4.67,9.15,6.77,13.74,4.38,4.75-2.47,6.46-8.65,3.8-13.74S374.53,1074.2,369.81,1076.78ZM1453.44,715.62a9.89,9.89,0,1,0,9.2,17.51,9.57,9.57,0,0,0,4.24-13A9.75,9.75,0,0,0,1453.44,715.62Zm-939.83,567c-4.78,2.29-7,9.07-4.46,13.67,2.38,4.31,8.84,6.42,13.31,4.34,4.94-2.28,6.81-8.47,4.13-13.62A9.69,9.69,0,0,0,513.61,1282.65Zm363.95-826.5a9.42,9.42,0,0,0,13.06,3.8c5.08-2.68,6.7-7.82,4.06-12.86s-7.8-6.52-12.93-3.88A9.46,9.46,0,0,0,877.56,456.15Zm544,139.36a9.82,9.82,0,0,0,8.94,17.48,9.59,9.59,0,0,0,3.93-13A9.83,9.83,0,0,0,1421.55,595.51ZM926.78,367.29A9.79,9.79,0,0,0,922,380.05a9.57,9.57,0,0,0,13.12,5,9.82,9.82,0,0,0-8.36-17.75ZM497.5,1128.38a9.6,9.6,0,1,0-17.41,8.07,9.61,9.61,0,0,0,12.74,4.71A9.75,9.75,0,0,0,497.5,1128.38Zm617.76-696.5a9.81,9.81,0,0,0,12.86,4.54c4.89-2.33,6.54-7.63,4-12.82-2.45-5-7.88-7-12.68-4.68A9.76,9.76,0,0,0,1115.26,431.88Zm-548.53,30A9.63,9.63,0,0,0,563.14,475a9.29,9.29,0,0,0,12.33,4.23c4.6-2.17,6.57-8.27,4.19-13S571.16,459.47,566.73,461.87Zm564.14,978.69a9.85,9.85,0,0,0-3.73,12.64c2.31,4.74,8.37,6.87,12.88,4.52,4.77-2.48,6.39-8.06,3.79-13C1141.3,1440,1135.32,1438,1130.87,1440.56Zm353.23,157.61a9.57,9.57,0,0,0,4-13c-2.36-4.54-8-6.56-12.36-4.38a9.66,9.66,0,0,0,8.35,17.42ZM1382.23,593.52c-4.28,2.37-5.85,8.08-3.5,12.67a9.61,9.61,0,0,0,12.34,4.52c4.62-2.12,6.63-8.33,4.23-13A9.77,9.77,0,0,0,1382.23,593.52Zm-72.37-83.63a9.4,9.4,0,0,0-4.41,12.83c2.54,4.87,8,6.46,13,3.78,4.76-2.56,6.14-7.32,3.59-12.35S1314.79,507.57,1309.86,509.89ZM386.42,977.25c4.56-2.06,6.46-8.18,4-12.93-2.33-4.5-8-6.52-12.27-4.41-4.54,2.23-6.48,8.33-4.13,13A9.77,9.77,0,0,0,386.42,977.25Zm1411.7-121.52c-5,2.45-6.66,7.76-3.93,12.78,2.57,4.73,7.54,6.23,12.32,3.72a9.26,9.26,0,0,0-8.39-16.5ZM1327.4,237.31a9.14,9.14,0,0,0,8.61,16.11,8.68,8.68,0,0,0,3.77-12.27A9.15,9.15,0,0,0,1327.4,237.31ZM1507,1045.77c1.83,4.32,7.78,6.68,12.2,4.85a9.17,9.17,0,0,0,4.56-12.1c-2.21-4.8-7.45-7-12-4.92A9.63,9.63,0,0,0,1507,1045.77ZM1202.32,347.06c-4.18,2.36-5.44,7.28-3,11.91s7.1,6.29,11.53,4.14a9.09,9.09,0,0,0,3.9-12.3A9.27,9.27,0,0,0,1202.32,347.06Zm288,410.74a9.26,9.26,0,0,0-4,12.31,9.16,9.16,0,0,0,11.71,4.16c4.66-2.17,6.27-7.32,3.8-12.18C1499.42,757.5,1494.58,755.69,1490.27,757.8ZM1456.94,677a9.26,9.26,0,0,0-4.54,12.13,9.11,9.11,0,0,0,12.15,4.36c4.39-2.23,5.9-7,3.7-11.69S1461.36,675.05,1456.94,677ZM533.79,1170.51a8.46,8.46,0,0,0-12.06-4.15,9.1,9.1,0,0,0-4,12.33c2.29,4.21,7.35,5.65,11.9,3.38A8.42,8.42,0,0,0,533.79,1170.51Zm166-735.32A9.07,9.07,0,0,0,687.49,431a8.46,8.46,0,0,0-3.82,12.17c2.43,4.44,7.17,5.88,11.74,3.55S701.8,439.51,699.75,435.19Zm819.14,681.3a8.46,8.46,0,0,0-12-4.37,9.08,9.08,0,0,0-4.17,12.25c2.19,4.27,7.23,5.81,11.82,3.61A8.42,8.42,0,0,0,1518.89,1116.49ZM582.64,361.39a9.22,9.22,0,0,0,4.29-11.7,9.35,9.35,0,0,0-12.19-4.54c-4.23,2.06-5.73,7.11-3.52,11.81S578.29,363.51,582.64,361.39Zm836,1034.75a8.34,8.34,0,0,0,4-11.59,8.48,8.48,0,0,0-11.66-4c-4.63,2.18-6.22,6.88-3.92,11.57S1414,1398.41,1418.62,1396.14Zm122-203.19c-4.59,2.24-6.11,7-3.75,11.62s7,6.18,11.61,3.85a8.37,8.37,0,0,0,3.87-11.65A8.52,8.52,0,0,0,1540.59,1193ZM766.22,1586.49c2.19,4.7,6.72,6.46,11.36,4.4a8.73,8.73,0,1,0-7.29-15.85C765.68,1577.18,764,1581.81,766.22,1586.49Zm811.09-780.74c-2.38-4.6-7.12-6.08-11.65-3.64a8.48,8.48,0,0,0-3.65,11.77c2.36,4.48,7.18,6,11.74,3.58S1579.72,810.4,1577.31,805.75ZM343.76,1080a8.53,8.53,0,0,0-11.66-5.15c-4.77,2-6.65,6.48-4.67,11.21s6.45,6.84,11.12,5S345.45,1084.62,343.76,1080Zm351.87,611.39c-2.23-4.69-6.86-6.39-11.4-4.17a8.61,8.61,0,1,0,7.32,15.59C696.18,1700.66,697.84,1696,695.63,1691.35ZM297.14,994.89a8.81,8.81,0,0,0-3.75,11.79,8.39,8.39,0,0,0,11.19,3.65c4.65-2.11,6.32-6.81,4.06-11.46S301.62,992.56,297.14,994.89Zm987.71-748.63a8.75,8.75,0,0,0,11.23,3.82,8,8,0,0,0,4.23-10.88c-2-4.77-6.73-6.7-11.3-4.62A8.93,8.93,0,0,0,1284.85,246.26ZM1249,1449.16a8.91,8.91,0,0,0-3.35,12c2.22,3.72,7.94,5.27,11.59,3.14a8.78,8.78,0,0,0,3.07-11.54A8.52,8.52,0,0,0,1249,1449.16ZM1161.13,383.48a8.81,8.81,0,0,0-3.62,11.39c2,4.14,8,6,11.93,3.7a8.8,8.8,0,0,0,3-11.56A8.51,8.51,0,0,0,1161.13,383.48ZM468.85,770.32a8.86,8.86,0,0,0-3.52,11.94c2.15,3.74,7.84,5.36,11.55,3.29a8.78,8.78,0,0,0,3.23-11.49A8.5,8.5,0,0,0,468.85,770.32Zm3.94,121.3a8.93,8.93,0,0,0-11.1-4.15A8.27,8.27,0,0,0,457.8,899a8.15,8.15,0,0,0,11,3.76A8.83,8.83,0,0,0,472.79,891.62Zm392,614.36a8.24,8.24,0,0,0-11-4.37,8.64,8.64,0,0,0-4.18,11.14,8.55,8.55,0,0,0,11.06,4.27A8.16,8.16,0,0,0,864.82,1506Zm69.3-37.77a8.53,8.53,0,0,0-3.33,11.28A8.32,8.32,0,0,0,942,1483a8.38,8.38,0,0,0-7.83-14.82ZM677,1376a8.2,8.2,0,0,0-11-3.88,8.53,8.53,0,0,0-3.62,11.2,8.36,8.36,0,0,0,11.08,3.81A8.2,8.2,0,0,0,677,1376Zm653.24-1177a8.4,8.4,0,0,0,8,14.78,8.39,8.39,0,0,0,3.27-11.27A8.5,8.5,0,0,0,1330.21,198.92ZM292.4,1073.2c-4,2.26-5.13,7.11-2.74,11.32a8,8,0,0,0,10.59,3.38,8.33,8.33,0,0,0-7.85-14.7Zm681.07,397.24c-3.86,1.79-5.66,7.34-3.67,11.31a8.14,8.14,0,0,0,10.58,3.85,8.34,8.34,0,0,0-6.91-15.16ZM1096,1532a8.16,8.16,0,0,0,3.42-10.73c-1.94-4-7.42-6-11.19-4a8,8,0,0,0-3.24,10.75C1087,1532.37,1091.87,1534.13,1096,1532Zm341.13,47.77c-3.68,1.92-5,6.69-3,10.72a8,8,0,0,0,11,3.78,8.24,8.24,0,0,0,3.23-10.74C1446.39,1579.67,1440.85,1577.81,1437.08,1579.77Zm116.82-421.11c-2.05-4.62-6.41-6.23-10.82-4A7.95,7.95,0,0,0,1550,1169C1554.28,1167,1555.81,1163,1553.9,1158.66Zm-228-882.24a8,8,0,1,0,6.71,14.43c4.23-2.09,5.63-6.13,3.61-10.43S1330.15,274.53,1325.92,276.42ZM215,1067.84c-4.34,1.88-6,5.91-4.19,10.23,1.94,4.68,6.27,6.4,10.71,4.28a8,8,0,0,0-6.52-14.51Zm1214.66,199.82a7.79,7.79,0,0,0-10.37-3.88,7.61,7.61,0,0,0-3.73,10.89c2.13,4.17,6.2,5.51,10.4,3.43A7.8,7.8,0,0,0,1429.67,1267.66ZM253.76,1070.84c-3.47,1.79-5.28,7.15-3.62,10.73,1.77,3.79,7.58,5.77,11.19,3.81s4.91-6.77,2.85-10.76S257.44,1068.94,253.76,1070.84ZM430.92,928.43a8,8,0,0,0-10.64-3.55,7.79,7.79,0,0,0,6.72,14A7.92,7.92,0,0,0,430.92,928.43ZM822.6,1543a8,8,0,0,0-10.58-3.73,7.8,7.8,0,0,0,6.49,14.17A8,8,0,0,0,822.6,1543Zm686.69-468.72a7.79,7.79,0,1,0,7.43,13.7,7.79,7.79,0,0,0-7.43-13.7Zm-1077-344.74c-3.49,1.93-5.07,7.35-3.14,10.82s7.45,5.19,10.82,3.43c3.6-1.89,4.91-6.84,2.84-10.78A7.76,7.76,0,0,0,432.28,729.49ZM499.05,302.1a7.75,7.75,0,0,0,7.23,13.71,7.75,7.75,0,1,0-7.23-13.71ZM639.56,1334.45a7.53,7.53,0,0,0-10-3.17,7.76,7.76,0,1,0,7.12,13.78A7.54,7.54,0,0,0,639.56,1334.45ZM520.81,709.73c3.58-1.66,5.43-7.13,3.64-10.72a7.73,7.73,0,0,0-10.73-2.91,7.16,7.16,0,0,0-2.92,10.06A7.71,7.71,0,0,0,520.81,709.73Zm-1.76,628c3.57-1.65,5.46-7.13,3.68-10.71a7.74,7.74,0,0,0-10.72-3,7.17,7.17,0,0,0-3,10.05A7.73,7.73,0,0,0,519.05,1337.77Zm1087-371.85c-1.74-3.73-7-5.58-10.52-3.72a7.7,7.7,0,0,0-3,10.63,7.46,7.46,0,0,0,10,3A7.62,7.62,0,0,0,1606.09,965.92Zm-427.76,493a7.64,7.64,0,0,0,3.49-10.47c-1.87-3.41-6.7-5-10.1-3.44a7.64,7.64,0,0,0-3.33,10.51A7.49,7.49,0,0,0,1178.33,1459Zm134.74-986.27a7.35,7.35,0,1,0,6.55,13.15,7.35,7.35,0,0,0-6.55-13.15ZM1561,1011.79a7.6,7.6,0,0,0-6.61-13.64,7.45,7.45,0,0,0-3.26,10C1553,1012,1557.56,1013.67,1561,1011.79Zm-140.37,344.32a7.6,7.6,0,0,0-6.61-13.65,7.46,7.46,0,0,0-3.26,10C1412.65,1356.32,1417.19,1358,1420.63,1356.11Zm-73.34-802.47a7.59,7.59,0,0,0,6.51,13.67c3.65-1.51,5.19-6.07,3.36-9.95A7.45,7.45,0,0,0,1347.29,553.64Zm-129.43,907.17a7.69,7.69,0,0,0,2.77-9.64c-1.72-3.61-6.48-5.32-9.89-3.57a7.38,7.38,0,0,0-2.84,10.06C1209.82,1461.26,1214.54,1462.75,1217.86,1460.81ZM182.53,1079.52c3.4-1.69,4.84-6.59,3-10.1a7.65,7.65,0,0,0-9.41-3.47c-3.56,1.54-5.13,6.18-3.36,9.89A7.46,7.46,0,0,0,182.53,1079.52Zm1297.66,463.77a7.54,7.54,0,0,0-3.83,9.82c1.63,3.61,6.49,5.4,9.9,3.65a7.42,7.42,0,0,0,3.06-9.52A7.21,7.21,0,0,0,1480.19,1543.29ZM562.31,672.48c3.14-1.65,4.62-6.23,3.11-9.6a7.57,7.57,0,0,0-9.92-3.56,7.15,7.15,0,0,0-3,9.46C554.21,672.51,558.89,674.27,562.31,672.48ZM538.64,305.62a7.16,7.16,0,1,0,7,12.47c3.62-1.9,4.72-5.57,2.79-9.29C546.43,304.9,542.35,303.58,538.64,305.62ZM1422.38,1316.8a7.1,7.1,0,1,0-6.13-12.79,7.1,7.1,0,0,0,6.13,12.79Zm84.95-700.56a7.18,7.18,0,1,0-6.5-12.81,6.87,6.87,0,0,0-2.76,9.4A7.14,7.14,0,0,0,1507.33,616.24Zm-181.24,878.33a7.56,7.56,0,0,0-3.27,9.94,7.48,7.48,0,0,0,9.47,3,7.13,7.13,0,0,0,2.93-9.42A6.85,6.85,0,0,0,1326.09,1494.57ZM1044,1565.12a7,7,0,0,0,9.09,2.39,6.19,6.19,0,0,0,3.11-8.63,6.48,6.48,0,0,0-9.21-3.16C1043.48,1557.57,1042.09,1562,1044,1565.12Zm43.69-1133.56a6.86,6.86,0,0,0-5.86-12.41c-3.12,1.44-4.3,5.35-2.69,8.88A6.46,6.46,0,0,0,1087.68,431.56ZM446.82,1123.7a6.87,6.87,0,0,0,6,12.35,6.43,6.43,0,0,0,2.62-8.86C453.68,1123.72,449.92,1122.19,446.82,1123.7Zm-268.46-96a6.86,6.86,0,0,0,6.22,12.23A6.44,6.44,0,0,0,187,1031C185.23,1027.61,181.41,1026.15,178.36,1027.73Zm340.12,218.15a6.87,6.87,0,0,0,5.22,12.7,6.36,6.36,0,0,0,3.17-8.65C525.28,1246.36,521.66,1244.62,518.48,1245.88Zm2.1-38.61a6.36,6.36,0,0,0-3.14,9.11,6.28,6.28,0,0,0,8.71,2.77,6.13,6.13,0,0,0,2.93-8.62C527.42,1207,524,1205.71,520.58,1207.27Zm1317.5-346.65a6.57,6.57,0,1,0,6.14,11.61c3.3-1.81,4.3-5.32,2.51-8.76A6.15,6.15,0,0,0,1838.08,860.62ZM1606.42,806.7a6.36,6.36,0,0,0-3.24,9.07,6.28,6.28,0,0,0,8.68,2.88,6.15,6.15,0,0,0,3-8.58C1613.27,806.54,1609.87,805.19,1606.42,806.7ZM1323.24,317c-3,1.47-4.16,5.64-2.52,8.92s5.66,4.81,8.64,3.14a7.23,7.23,0,0,0,2.73-9A7.12,7.12,0,0,0,1323.24,317Zm431.31,586.82c1.61,3.4,5.53,4.94,8.57,3.39a7.23,7.23,0,0,0,3-8.92,7.11,7.11,0,0,0-8.77-3.31C1754.28,896.3,1753,900.47,1754.55,903.77ZM563,511.81c1.48,3.59,5,5.11,8.31,3.58a6.76,6.76,0,0,0,3.44-8.58c-1.37-3.05-5.53-4.48-8.74-3A6,6,0,0,0,563,511.81Zm882.94,952.12a6.38,6.38,0,1,0,5.75,11.38,5.93,5.93,0,0,0,2.68-8.11C1452.77,1463.67,1449.21,1462.29,1445.94,1463.93ZM1001,422.81c1.81,3.48,5.51,4.59,8.73,2.61,2.87-1.76,4.06-5.71,2.53-8.41a6.87,6.87,0,0,0-9-2.56C1000.22,416.13,999.31,419.55,1001,422.81Zm457.31,814.78a6.57,6.57,0,0,0,8.78,3,5.83,5.83,0,0,0,2.74-7.63,6.36,6.36,0,0,0-8.5-3.62A6.52,6.52,0,0,0,1458.3,1237.59ZM841.35,451.68a6.61,6.61,0,0,0,8.74,3.16,5.79,5.79,0,0,0,2.9-7.56,6.38,6.38,0,0,0-8.43-3.79A6.6,6.6,0,0,0,841.35,451.68Zm633.52,1171.06a6.53,6.53,0,0,0-2.63,8.89,6.68,6.68,0,0,0,8.52,2.29,5.86,5.86,0,0,0,2.33-8.28A6.26,6.26,0,0,0,1474.87,1622.74ZM1325,437.48a6.56,6.56,0,0,0-8.78-3,6.32,6.32,0,0,0-2.4,8.4,5.84,5.84,0,0,0,8.11,2.87A6.61,6.61,0,0,0,1325,437.48Zm264.29,763.36a6.48,6.48,0,0,0-8.35-2.73,6.2,6.2,0,0,0-2.49,8.35,6.13,6.13,0,0,0,8.24,2.76A6.44,6.44,0,0,0,1589.24,1200.84ZM727.41,436.18a5.72,5.72,0,0,0-2.1,8.3,5.62,5.62,0,0,0,7.81,2,5.8,5.8,0,0,0,2.63-8.18C734.08,435.3,730.6,434.4,727.41,436.18ZM464.71,850.76a5.82,5.82,0,0,0-2.46,7.64c1.44,3.29,4.87,4.8,7.81,3.42a6.12,6.12,0,0,0,2.77-8.13A6.29,6.29,0,0,0,464.71,850.76Zm619.06,715.15a5.93,5.93,0,0,0,7.76,3.6c2.57-1.12,4-4.78,3-7.58a6.36,6.36,0,0,0-7.92-3.52A5.82,5.82,0,0,0,1083.77,1565.91ZM642,1734.69a5.79,5.79,0,0,0,7.73,2.14,6.44,6.44,0,0,0,2.2-7.87c-1.44-2.87-5.55-4.2-8.22-2.65C640.84,1728,640.09,1731.67,642,1734.69ZM928,340.12a6.44,6.44,0,0,0,7.74,2.62c2.91-1.37,4-5.15,2.26-8.24a5.81,5.81,0,0,0-7.57-2.69A6.32,6.32,0,0,0,928,340.12ZM735.15,1655.92a5.91,5.91,0,0,0-7.85-3.39,6.08,6.08,0,0,0,5.19,11A5.92,5.92,0,0,0,735.15,1655.92Zm779.06-30.7c-2.84,1.21-4.25,5.31-2.81,8.17s5.57,4.2,8.22,2.66a6.11,6.11,0,0,0-5.41-10.83ZM475.3,694.19a6.11,6.11,0,0,0,5.11,11c2.85-1.09,4.38-5.17,3-8.08A6.3,6.3,0,0,0,475.3,694.19Zm846-337.5a6.42,6.42,0,0,0-2.79,7.7c1.24,2.87,5.48,4.39,8.17,2.93a5.83,5.83,0,0,0,2.1-7.78A5.61,5.61,0,0,0,1321.32,356.69ZM886.76,407a5.59,5.59,0,0,0-2.31,8.19,5.54,5.54,0,0,0,7.77,2,5.62,5.62,0,0,0,2.23-7.72A5.68,5.68,0,0,0,886.76,407ZM672.16,1416.82c-1-2.89-5.13-4.52-8.07-3.21a5.62,5.62,0,0,0-2.41,7.63,5.83,5.83,0,0,0,7.41,3.19C671.63,1423.36,673.15,1419.59,672.16,1416.82Zm-25.54,270.53a5.55,5.55,0,0,0-2.37,8.05,5.49,5.49,0,0,0,7.62,2.12,5.69,5.69,0,0,0,2.31-7.62A5.77,5.77,0,0,0,646.62,1687.35ZM1316.15,403.21a5.67,5.67,0,0,0,7.36,3.1,5.65,5.65,0,0,0-4.17-10.5A5.89,5.89,0,0,0,1316.15,403.21ZM552.5,1327.7a5.41,5.41,0,0,0-2.82,7.41,5.47,5.47,0,0,0,7.38,2.92,5.66,5.66,0,0,0,3-7.43A5.86,5.86,0,0,0,552.5,1327.7Zm46.19,5.42a5.4,5.4,0,0,0-7.33-3,5.9,5.9,0,0,0-3,7.47,5.68,5.68,0,0,0,7.45,2.93A5.48,5.48,0,0,0,598.69,1333.12ZM467.93,811.83a5.94,5.94,0,0,0-2.79,7.57,5.74,5.74,0,0,0,7.55,2.69,5.66,5.66,0,0,0-4.76-10.26ZM1684.08,931.92a5.39,5.39,0,0,0-7.13-2.2,5.59,5.59,0,1,0,5.17,9.91A5.42,5.42,0,0,0,1684.08,931.92Zm-153.6-168.53a5.5,5.5,0,0,0-2.23,7.16c1.35,3,4.83,4.4,7.43,3.06a6.31,6.31,0,0,0,2.51-7.79A5.86,5.86,0,0,0,1530.48,763.39ZM1043,417.31a5.78,5.78,0,0,0-2.34,7.16c1.24,2.94,4.74,4.41,7.38,3.11a6.31,6.31,0,0,0,2.58-7.73A5.76,5.76,0,0,0,1043,417.31Zm-70.51-33.83a5.43,5.43,0,0,0,2.28-7.08,5.79,5.79,0,0,0-7.57-2.66,5.55,5.55,0,0,0,5.29,9.74ZM495.82,350.26a5.06,5.06,0,1,0,9.06-4.48c-1.3-2.74-4.45-4-6.85-2.69A5.67,5.67,0,0,0,495.82,350.26ZM1501.36,724.35c-1.43-2.68-4.64-3.75-7-2.31a5.66,5.66,0,0,0-1.84,7.27,5.22,5.22,0,0,0,7,2.25A5.32,5.32,0,0,0,1501.36,724.35Zm-490,790.42a5.14,5.14,0,1,0,7.07,2.28A5.17,5.17,0,0,0,1011.31,1514.77ZM144.72,1068.16a5.38,5.38,0,1,0-2.54,7A5.22,5.22,0,0,0,144.72,1068.16ZM436.47,692.92c-2.33,1.34-3,4-1.64,6.57a4.57,4.57,0,0,0,6.36,2.24,5,5,0,1,0-4.72-8.81Zm695,790.44a5.19,5.19,0,0,0-2.77,6.87,5.1,5.1,0,0,0,7,2.17,4.57,4.57,0,0,0,2-6.44C1136.45,1483.33,1133.94,1482.29,1131.45,1483.36ZM659.39,395.81c-1.18-2.92-3.95-4.15-6.6-2.93a5.16,5.16,0,0,0-2.74,6.81,5.09,5.09,0,0,0,6.92,2.38A4.64,4.64,0,0,0,659.39,395.81ZM491,1168.89a5.11,5.11,0,0,0-6.49-2.28c-2.83,1.12-3.84,4-2.41,6.82,1.3,2.59,3.83,3.55,6.31,2.38A5.14,5.14,0,0,0,491,1168.89ZM1334.71,162.55c-2.58,1.39-3.28,4.32-1.67,7a4.61,4.61,0,0,0,6.44,1.87,5.06,5.06,0,1,0-4.77-8.9Zm169.8,403.31a5.2,5.2,0,0,0-1.3,7.25,5,5,0,0,0,6.54,1.91,5.54,5.54,0,0,0,1.87-7.21A5.27,5.27,0,0,0,1504.51,565.86ZM501.82,272.15a5,5,0,0,0,6.47,2.14,5.56,5.56,0,0,0,2.11-7.14,5.32,5.32,0,0,0-7.06-2.2A5.18,5.18,0,0,0,501.82,272.15Zm56.75,350.17a5.33,5.33,0,0,0-2.21,6.53,5.56,5.56,0,0,0,6.85,2.94c2.5-1,3.56-4.25,2.25-7A5.08,5.08,0,0,0,558.57,622.32Zm12.54-75.79a5.54,5.54,0,0,0-7-2.54,5.15,5.15,0,0,0,4.85,9.07A5.33,5.33,0,0,0,571.11,546.53ZM1646.06,810.62a4.88,4.88,0,0,0,4.38,8.71,4.88,4.88,0,0,0,2.11-6.51A4.93,4.93,0,0,0,1646.06,810.62ZM471.91,1329.8a5,5,0,0,0,6.49,2.19,4.88,4.88,0,0,0-4.37-8.72A5,5,0,0,0,471.91,1329.8ZM806.42,442.29a4.88,4.88,0,0,0,4.46,8.67,4.76,4.76,0,0,0,2-6.5A4.81,4.81,0,0,0,806.42,442.29ZM894.17,1508.1a4.94,4.94,0,0,0-1.8,6.55,4.73,4.73,0,1,0,1.8-6.55ZM1246.64,281a4.94,4.94,0,0,0,6.37,2.52,4.88,4.88,0,0,0-3.92-8.93A5,5,0,0,0,1246.64,281Zm-479,158.59a4.42,4.42,0,0,0-2.29,6.19,4.64,4.64,0,0,0,6.26,2.27,5.37,5.37,0,0,0,2.41-6.4C773,439.41,770.06,438.45,767.61,439.55ZM338.75,967.11a4.89,4.89,0,0,0,6.15,2.82,4.25,4.25,0,0,0,2.16-5.71c-1.05-2.63-3.75-3.93-6-2.9A4.7,4.7,0,0,0,338.75,967.11Zm228.89-381a4.31,4.31,0,1,0-7.76,3.6,4.26,4.26,0,0,0,5.67,2.25A4.73,4.73,0,0,0,567.64,586.16ZM538.87,427.29a4.63,4.63,0,0,0-5.64-2.59,4.56,4.56,0,0,0-2.07,6.32,4.77,4.77,0,0,0,5.86,2.1A4.31,4.31,0,0,0,538.87,427.29ZM465,263.39a4.24,4.24,0,0,0,3.56,7.69,4.2,4.2,0,0,0,2.3-5.67A4.52,4.52,0,0,0,465,263.39ZM648.13,1768.52a4.5,4.5,0,0,0-6-1.57,4,4,0,0,0-1.57,5.34,4.12,4.12,0,0,0,5.73,2.07A4.25,4.25,0,0,0,648.13,1768.52Zm1231.35-903.2a4.48,4.48,0,0,0-3.15,5.37,4.26,4.26,0,0,0,5.58,2.6,3.85,3.85,0,0,0,2.37-5A4.08,4.08,0,0,0,1879.48,865.32Zm-530.1-341.91a4.49,4.49,0,0,0,5.46,1.71,4.18,4.18,0,0,0-3.48-7.59A4.43,4.43,0,0,0,1349.38,523.41Zm201.29,523.07a4.49,4.49,0,0,0,5.46,1.71,4.18,4.18,0,0,0-3.48-7.59A4.43,4.43,0,0,0,1550.67,1046.48ZM1386.6,565a4.25,4.25,0,0,0,5.42,1.57,4.55,4.55,0,0,0,1.58-6,4.66,4.66,0,0,0-6-1.64A4.32,4.32,0,0,0,1386.6,565Zm-98.1,929.17a4.05,4.05,0,0,0-2.41,5.48,3.9,3.9,0,0,0,5,2.29,4.39,4.39,0,0,0,2.53-5.55A4.27,4.27,0,0,0,1288.5,1494.16ZM258.84,1002.44a3.88,3.88,0,0,0,5.31,1.25,4.42,4.42,0,0,0,1.76-5.31,4.28,4.28,0,0,0-5.77-1.8A4.1,4.1,0,0,0,258.84,1002.44Zm149.93,121.49a4.1,4.1,0,1,0,3.74,7.3,3.86,3.86,0,0,0,1.88-5.13A4.15,4.15,0,0,0,408.77,1123.93ZM662.14,1454.5a4.12,4.12,0,0,0-1.22,5.39,3.84,3.84,0,0,0,5.17,1.74,4.37,4.37,0,0,0,1.95-5.75A4.27,4.27,0,0,0,662.14,1454.5ZM1124.4,384.87a4.16,4.16,0,0,0-1.53,5.89,4.27,4.27,0,0,0,5.35,1.7,4.61,4.61,0,0,0,1.56-6A4.26,4.26,0,0,0,1124.4,384.87ZM688.76,1731.61a4.1,4.1,0,0,0-5.45-1.14,4.26,4.26,0,0,0-1.39,5.44,4.43,4.43,0,0,0,5.9,1.74A4.31,4.31,0,0,0,688.76,1731.61Zm-33.46-80.33a4.15,4.15,0,0,0-5.29-1.71,4.19,4.19,0,0,0,3.63,7.54A4.23,4.23,0,0,0,655.3,1651.28Zm-22.7-270.57a4,4,0,0,0-3.73-7,4,4,0,0,0,3.73,7Zm885.13,287.55a4.08,4.08,0,0,0-5.09-2.11,3.91,3.91,0,0,0-1.88,5.14,4,4,0,0,0,5,2.15A4.11,4.11,0,0,0,1517.73,1668.26Zm-149-127.14a3.6,3.6,0,0,0-5-2,3.84,3.84,0,0,0-1.49,4.72,4,4,0,0,0,5.14,1.93A3.5,3.5,0,0,0,1368.77,1541.12ZM429.23,891a3.78,3.78,0,0,0-4.7-1.5,3.66,3.66,0,0,0-1.27,5.24,3.42,3.42,0,0,0,4.58,1.56A4,4,0,0,0,429.23,891Zm1117.68,233a3.51,3.51,0,0,0,4.58,1.64,3.67,3.67,0,0,0-3.56-6.43A3.61,3.61,0,0,0,1546.91,1124Zm-97.42,303.38a3.66,3.66,0,0,0,3.18,6.6,3.69,3.69,0,0,0-3.18-6.6ZM1689.92,815.8a3.41,3.41,0,0,0-4.71-1.32,3.53,3.53,0,0,0-1.33,4.73,3.47,3.47,0,0,0,6-3.41ZM396.71,696.45a3.48,3.48,0,0,0,4.63,1.62,3.46,3.46,0,0,0-3-6.24A3.48,3.48,0,0,0,396.71,696.45Zm1103.76-51.16a3.78,3.78,0,0,0-1.87,5.07,3.87,3.87,0,0,0,4.64,1.71,3.49,3.49,0,0,0,1.62-4.58A3.68,3.68,0,0,0,1500.47,645.29ZM97.88,1069.7a3.45,3.45,0,0,0,4.67,1.45A3.33,3.33,0,0,0,104,1067a3.37,3.37,0,0,0-4.47-2A3.46,3.46,0,0,0,97.88,1069.7ZM1637.11,968.26a3.27,3.27,0,1,0,2.54,6,3.13,3.13,0,0,0,1.34-4.07A3.28,3.28,0,0,0,1637.11,968.26Zm-137,270.32a3.17,3.17,0,0,0,4.48,1.63,3.26,3.26,0,0,0-3.13-5.72A3.19,3.19,0,0,0,1500.15,1238.58ZM938.44,1512.9a3.5,3.5,0,0,0-4.21-1.22,3.21,3.21,0,0,0-1.26,4.62,3.11,3.11,0,0,0,4.1,1.25A3.4,3.4,0,0,0,938.44,1512.9Zm563.8-826.68a3.18,3.18,0,0,0-4.6-1.27,3.48,3.48,0,0,0-1.09,4.23,3.42,3.42,0,0,0,4.7,1.25A3.29,3.29,0,0,0,1502.24,686.22ZM383.56,926.43a3.29,3.29,0,1,0,2.86,5.89,3.23,3.23,0,0,0,1.12-4.17A3.31,3.31,0,0,0,383.56,926.43Zm593.85,589.29a3,3,0,0,0-4-1.43,2.67,2.67,0,0,0-1.15,3.54,3,3,0,0,0,3.83,1.93A3,3,0,0,0,977.41,1515.72ZM1209.14,312.77a3.15,3.15,0,0,0-2.18,3.68,3.18,3.18,0,0,0,4.18,2.25,3.26,3.26,0,0,0,1.74-3.94A3,3,0,0,0,1209.14,312.77ZM522,662.19a2.65,2.65,0,0,0-3.46-1.36,3,3,0,0,0-1.47,4,2.83,2.83,0,1,0,4.93-2.66ZM853.12,1545.9a2.67,2.67,0,0,0-1.24,3.51,3,3,0,0,0,3.8,2,2.87,2.87,0,0,0,1.45-4A3,3,0,0,0,853.12,1545.9Zm-82.87,73.39a3.08,3.08,0,0,0,2.86,5.38,2.91,2.91,0,0,0,1.23-4.07A3.07,3.07,0,0,0,770.25,1619.29Zm688.49-344a3.31,3.31,0,0,0,4.48,1.74,3.16,3.16,0,0,0,1.29-4.08,3.12,3.12,0,0,0-5.77,2.34Zm-369.13,326.91a3.08,3.08,0,0,0-3.8-1.93,3,3,0,0,0-2.18,3.65,3.23,3.23,0,0,0,4.25,2.18A3.11,3.11,0,0,0,1089.61,1602.18ZM1880,831.6a3,3,0,0,0,3.92,1.7,2.79,2.79,0,0,0,1.39-3.48,2.88,2.88,0,0,0-3.65-2.17A3,3,0,0,0,1880,831.6ZM894.11,371.72a3,3,0,0,0-4.15-1,2.68,2.68,0,0,0-.76,3.64,3,3,0,0,0,4,1.54A3.06,3.06,0,0,0,894.11,371.72ZM471.75,1367.51c.33,1.43,1.71,2,3.25,1.53s2.5-2.64,1.41-3.82c-.76-.83-2.17-1.08-3.85-1.84C472.17,1365.15,471.49,1366.44,471.75,1367.51Zm1373-537.83c1.39-.44,1.89-1.89,1.33-3.38s-2.78-2.29-3.93-1.13c-.78.79-.93,2.21-1.59,3.94C1842.39,829.4,1843.73,830,1844.77,829.68ZM1465.83,568.74c.23,1.48,1.58,2.14,3.14,1.76s2.68-2.51,1.69-3.72c-.72-.88-2.1-1.22-3.74-2.09C1466.41,566.44,1465.66,567.66,1465.83,568.74ZM1169.72,350.87c-.42-1.41-1.84-1.93-3.34-1.34s-2.36,2.76-1.2,3.89c.8.79,2.21.95,4,1.62C1169.43,353.24,1170,351.92,1169.72,350.87ZM1723.55,820.3c0,1.59,2,2.66,3.48,2.17a2.39,2.39,0,0,0,1.63-3.17,2.88,2.88,0,0,0-4.06-2A8.33,8.33,0,0,0,1723.55,820.3ZM659.76,1498a2.46,2.46,0,0,0,3.78,1.31,2.79,2.79,0,0,0,.88-3.58c-.66-1.5-2.59-2.07-4.48-.92C659.87,1495.65,659.43,1497,659.76,1498Zm914.33-729a2.38,2.38,0,0,0-3.51-.65,2.68,2.68,0,0,0-.86,3.56,2.68,2.68,0,1,0,4.37-2.91ZM141.68,1029.15c-1.32-.16-2.38,1.59-2.05,3a2.32,2.32,0,0,0,3,1.94c1-.35,1.68-1.65,3-3C143.9,1030.15,142.83,1029.28,141.68,1029.15Zm1414.24,642.1c0-1.38-1.81-2.21-3.15-1.7-1.51.57-2.29,1.86-1.6,3.23.48,1,1.82,1.49,3.32,2.62C1555.17,1673.56,1555.92,1672.4,1555.92,1671.25Zm38.36-662c.46,1.45,2,1.74,3.45,1.21s2.07-2.42,1.14-3.39-2.15-1.18-3.85-2C1594.65,1006.91,1594,1008.25,1594.28,1009.28Zm-44.45,75.51a4.92,4.92,0,0,0,3.46,1.14c1.43-.15,2-2.57.9-3.87-.74-.84-2.08-1.15-2.83-1.53C1549.44,1081.54,1548.71,1083.77,1549.83,1084.79ZM1292.64,204.7a4.93,4.93,0,0,0,3.46,1.14c1.42-.16,2-2.58.89-3.87-.74-.84-2.07-1.14-2.83-1.53C1292.24,201.46,1291.52,203.68,1292.64,204.7ZM1171.59,1488.77c-1.36.1-2.12,2-1.54,3.24.66,1.43,2,2.21,3.31,1.43.93-.53,1.38-1.9,2.42-3.47C1173.92,1489.4,1172.73,1488.69,1171.59,1488.77Zm345,104.2c.45,1.45,2,1.74,3.44,1.21s2.07-2.43,1.14-3.4-2.15-1.17-3.85-2C1517,1590.6,1516.26,1591.94,1516.58,1593ZM399.22,733.32c-.37-1.43-1.81-2-3.33-1.41-1.32.48-2.18,2.34-1.32,3.35s2.08,1.26,3.76,2.21C398.77,735.64,399.49,734.35,399.22,733.32ZM935,295.9c-.59.22-1,1.87-.89,2.79.21,1.38,2.18,2.23,3.14,1.37.81-.73,1.09-2.06,1.91-3.78C937.26,296.05,936,295.53,935,295.9ZM432,776.84c.22.62,1.85,1.2,2.7,1a2,2,0,0,0,1.44-3.07c-.52-.86-2-1.16-3.65-2.07C432.19,774.6,431.64,775.88,432,776.84Zm995.56-213.39a3,3,0,0,0-.89,2.74,2,2,0,0,0,3.18,1.16c.83-.59,1.06-2,1.88-3.8C1429.8,563.45,1428.47,563,1427.55,563.45Zm-175.07,931.08c-.26-.64-1.82-1.14-2.74-1a2.09,2.09,0,0,0-1.31,3.15c.69.85,2,1.2,3.72,2.15C1252.36,1496.82,1252.87,1495.5,1252.48,1494.53Zm122-1323.82c.26.61,1.91,1.12,2.74.91a2,2,0,0,0,1.32-3.13c-.54-.84-2-1.07-3.75-1.89C1374.59,168.47,1374.09,169.78,1374.48,170.71ZM467.41,229.5c.22.62,1.86,1.2,2.7,1a2,2,0,0,0,1.44-3.07c-.52-.86-2-1.16-3.65-2.06C467.62,227.25,467.06,228.54,467.41,229.5ZM1545,570.58c-1.29.3-1.73,2.36-.71,3.34.66.65,2.25,1.26,2.78.91.87-.59,1.21-2,2.11-3.62C1547.35,570.89,1546.1,570.34,1545,570.58ZM811.1,1586.7c.32.62,1.92,1,2.84.8a2.13,2.13,0,0,0,1-3.29c-.75-.78-2.09-1-3.89-1.78C811,1584.4,810.62,1585.77,811.1,1586.7ZM656,1612.93a3,3,0,0,0-2.8-.81,2.06,2.06,0,0,0-1,3.27c.63.82,2.06,1,3.86,1.81C656.05,1615.22,656.44,1613.86,656,1612.93Zm390.16-14.1c-.59.3-.85,2-.66,2.88.27,1.32,2.36,2,3.24,1.07.75-.79.9-2.14,1.57-3.94C1048.39,1598.77,1047,1598.36,1046.13,1598.83ZM1377.29,128.35c-.59.26-.93,1.92-.76,2.84.24,1.33,2.31,2.12,3.21,1.23s1-2.12,1.7-3.88C1379.57,128.39,1378.23,127.93,1377.29,128.35Zm-893.83,1080a2.9,2.9,0,0,0-.91,2.68,2.75,2.75,0,0,0,2.52,1.12c.7-.28,1-1.64,1.71-3C485.28,1208.69,484,1208,483.46,1208.32Zm1101.21-42.61a1.64,1.64,0,0,0,2.71.75,3.19,3.19,0,0,0,.51-2.86c-.3-.67-1.64-.88-3.18-1.6C1584.66,1163.75,1584.34,1164.86,1584.67,1165.71Zm180.27-344.88a1.61,1.61,0,0,0-1.61,2.27,3.29,3.29,0,0,0,2.33,1.77c.64,0,1.35-1.21,2.45-2.29C1766.69,821.75,1765.84,820.88,1764.94,820.83Zm41.54,3.65c-.3-.73-1.6-1.05-2.46-1.55-.41.9-1.27,1.9-1.11,2.69s1.37,1.28,2.71,2.4C1806.08,826.34,1806.78,825.2,1806.48,824.48ZM661,1535.56c-.32-.71-1.64-1-2.52-1.43-.37.92-1.19,1.94-1,2.73s1.42,1.22,2.77,2.27C660.64,1537.44,661.31,1536.28,661,1535.56ZM1797.3,904.4c.47.68,1.79.76,2.74,1.09.24-1,.92-2.1.61-2.81s-1.61-1-3.12-1.84C1797.37,902.54,1796.87,903.79,1797.3,904.4ZM1211,1491.61a1.74,1.74,0,0,0-1.16,2.71c.36.61,1.79,1.29,2.17,1,.77-.49,1.14-1.59,2-2.92C1212.56,1492,1211.69,1491.44,1211,1491.61ZM694.48,401.49a2.47,2.47,0,0,0,1.26-2,1.63,1.63,0,0,0-2.54-1.22c-.61.32-.86,1.3-1.55,2.44C693,401.12,693.88,401.72,694.48,401.49Zm-76.85-47.64a2.39,2.39,0,0,0-1.33,1.9,1.62,1.62,0,0,0,2.46,1.36c.62-.29.93-1.26,1.68-2.36C619.15,354.3,618.26,353.65,617.63,353.85ZM369.92,1126.13c.12.53,1.49,1.21,2.17,1.09a1.71,1.71,0,0,0,1.14-2.69c-.35-.67-1.28-1-2.55-2C370.28,1124.19,369.72,1125.24,369.92,1126.13ZM848.71,410.72a1.7,1.7,0,0,0,2.82.75,2.51,2.51,0,0,0,.49-2.37c-.58-.7-1.75-.92-3.29-1.62C848.69,409.07,848.4,410,848.71,410.72Zm772.24,796a2.41,2.41,0,0,0,2,1.23,1.61,1.61,0,0,0,1.17-2.55c-.33-.6-1.31-.84-2.45-1.51C1621.3,1205.15,1620.71,1206.08,1621,1206.67Zm299.76-375.21a2.41,2.41,0,0,0-.32,2.33,2.38,2.38,0,0,0,2.32.32c.53-.31.57-1.46,1-2.85C1922.27,831.32,1921.15,831,1920.71,831.46Zm-1265,742.4a1.66,1.66,0,0,0,2,2.64c.53-.31.57-1.45,1-2.85C657.3,1573.71,656.17,1573.44,655.74,1573.86ZM448.57,1167.93c-.45-.47-1.56-.3-2.39-.41-.11.82-.56,1.85-.23,2.42s1.46.57,2.85,1C448.73,1169.49,449,1168.38,448.57,1167.93Zm905.71-684.71a2.37,2.37,0,0,0,2.32.31,2.34,2.34,0,0,0,.31-2.31c-.32-.54-1.46-.57-2.86-1C1354.12,481.66,1353.85,482.78,1354.28,483.22Zm106.12,829.66c-.24-.61-1.33-.89-2.05-1.31-.41.72-1.22,1.5-1.13,2.15s1.12,1.09,2.24,2.06C1460,1314.38,1460.62,1313.46,1460.4,1312.88Zm-4.7,78c-.23-.61-1.33-.88-2-1.3-.42.72-1.23,1.5-1.14,2.15s1.12,1.09,2.23,2C1455.25,1392.4,1455.93,1391.47,1455.7,1390.89ZM429.44,224.56c-.39.17-.79,1.48-.58,1.7.52.54,1.51,1.15,2.07,1s.81-1.28,1.57-2.66C431,224.52,430.09,224.28,429.44,224.56ZM640.23,1810.81a2.05,2.05,0,0,0,1.65.61,3,3,0,0,0,.92-2.15c-.13-.53-1.22-.82-2.57-1.63C640.19,1809.25,640,1810.13,640.23,1810.81ZM1086.37,385c-.38.18-.71,1.5-.49,1.72.54.51,1.56,1.08,2.11.87s.76-1.31,1.46-2.72C1087.91,384.93,1087,384.73,1086.37,385ZM1379.93,90.11c-.38.12-.84,1.45-.65,1.65a3,3,0,0,0,2.09,1.08c.51-.08.85-1.2,1.67-2.49C1381.49,90.19,1380.63,89.9,1379.93,90.11ZM590.31,1374.94c.27.35,1.06.3,1.62.43.09-.58.42-1.28.19-1.69s-1-.44-1.81-.75C590.28,1373.83,590,1374.58,590.31,1374.94Zm-110.6-87a1.25,1.25,0,0,0-2.16,1.25c.19.39,1.06.46,1.89.76C479.58,1289.1,480,1288.31,479.71,1288ZM1541.2,1240.2c.25.38,1,.41,1.58.59.14-.57.52-1.25.33-1.67s-1-.52-1.77-.91C1541.25,1239.11,1541,1239.84,1541.2,1240.2Zm-410.91,285.86c-.37.29-.31,1.12-.44,1.72.6.09,1.35.44,1.77.21s.46-1.06.78-1.93C1131.45,1526,1130.65,1525.77,1130.29,1526.06ZM427.75,852.87a1.65,1.65,0,0,0-.37,1.59,1.63,1.63,0,0,0,1.55.49c.36-.17.43-1,.72-1.79C428.83,853,428.08,852.64,427.75,852.87Zm1291.72,83.6a1.25,1.25,0,0,0-2.16,1.25c.19.39,1.06.46,1.89.76C1719.35,937.61,1719.72,936.82,1719.47,936.47Zm200.93-65.39a1.73,1.73,0,0,0-1.69-.27,1.71,1.71,0,0,0-.37,1.65c.22.38,1.09.39,2,.64C1920.37,872.22,1920.68,871.4,1920.4,871.08Zm-435.65,639c-.37.29-.32,1.12-.45,1.71.6.09,1.34.44,1.77.21s.46-1,.78-1.91C1485.91,1510,1485.12,1509.77,1484.75,1510.05ZM1340.6,127.23a1.73,1.73,0,0,0-1.7-.27,1.69,1.69,0,0,0-.36,1.66c.23.38,1.09.38,2,.63C1340.57,128.36,1340.88,127.54,1340.6,127.23ZM1401.2,1583a1.64,1.64,0,0,0-.34,1.59,1.69,1.69,0,0,0,1.56.48c.49-.19.77-.9,1.39-1.7C1402.29,1583.09,1401.53,1582.73,1401.2,1583ZM61,1064.22c-.35.3-.21,1.14-.29,1.74.61.06,1.38.36,1.8.1s.36-1.09.6-2C62.15,1064.12,61.34,1063.91,61,1064.22ZM532.83,469.1c.34-.3.21-1.14.29-1.74-.62-.06-1.39-.36-1.8-.1s-.36,1.09-.6,2C531.66,469.2,532.47,469.41,532.83,469.1ZM1010,380.38a1.26,1.26,0,0,0-2.27,1.08c.15.4,1,.54,1.81.91C1009.77,381.51,1010.22,380.76,1010,380.38Zm525.42,347.71c-.35.3-.21,1.14-.29,1.74.61.06,1.38.36,1.79.09s.36-1.08.6-2C1536.59,728,1535.77,727.78,1535.42,728.09Zm14.18,982.4a1.7,1.7,0,0,0-.25,1.62,1.65,1.65,0,0,0,1.58.35c.35-.2.35-1,.58-1.86C1550.68,1710.53,1549.89,1710.23,1549.6,1710.49ZM893.37,334.61c.2.26.75.25,1.15.36l.12-1.66-1.23.14C893.38,333.85,893.18,334.38,893.37,334.61Zm562.54,1017c-.3.08-.48.61-.72.94l1.48.67.34-1.18C1456.64,1351.9,1456.21,1351.55,1455.91,1351.63ZM361.2,691.47c-.18-.26-.74-.25-1.13-.36l-.14,1.68,1.21-.15C361.18,692.24,361.38,691.71,361.2,691.47Zm120,557.48c-.24.1-.28.68-.41,1l1.13.39c.11-.38.23-.76.35-1.13C482,1249.14,481.5,1248.83,481.23,1249Zm1099.2-7.09c0,.37-.21.9,0,1.09s.73.1,1.11.13c0-.38,0-.76.07-1.13ZM972.21,339c-.25.13-.29.69-.42,1.06.36.13.83.47,1.08.34s.3-.68.46-1.12C973,339.2,972.47,338.9,972.21,339Zm74.93,44.56a1.12,1.12,0,0,0,1.08.38c.26-.11.3-.71.44-1.09l-1.27-.36C1047.31,382.83,1047,383.33,1047.14,383.59Zm37.37,1257.77c-.21.31-.64.65-.59.92s.55.46.86.69l.66-.94ZM521.32,624.66c.06.28.59.46.91.69.22-.33.66-.7.6-1s-.59-.46-.92-.69C521.69,624,521.26,624.39,521.32,624.66Zm106.1,791.48-.66.93c.32.22.65.64.94.61s.44-.56.65-.87Zm921.34-883c-.28.06-.46.57-.68.88.31.22.67.65.91.6s.46-.57.69-.89C1549.37,533.49,1549,533.05,1548.76,533.11ZM601.27,1807.24a1.15,1.15,0,0,0,1.07.38c.26-.12.31-.71.44-1.09l-1.26-.36C601.43,1806.48,601.13,1807,601.27,1807.24Zm-166.68-443.8c-.14.38-.48.86-.36,1.13s.71.31,1.09.45c.12-.39.23-.78.35-1.17ZM304.29,962.62c-.28.06-.46.56-.68.87.31.22.67.66.92.6s.45-.57.68-.88C304.9,963,304.54,962.56,304.29,962.62ZM1372.43,208.77c.06.28.59.46.92.69.21-.33.65-.7.59-1s-.59-.46-.92-.69C1372.8,208.13,1372.37,208.51,1372.43,208.77Zm-941.34,605c-.26.12-.3.71-.43,1.09.38.13.86.47,1.12.35s.3-.71.46-1.14C431.85,814,431.37,813.67,431.09,813.8Zm580.34,744.5c-.13-.27-.71-.31-1.09-.45-.14.38-.47.86-.35,1.13s.7.31,1.14.48C1011.25,1559.06,1011.56,1558.57,1011.43,1558.3ZM896.15,295.76c.2.21.72.12,1.11.16,0-.38.22-.9,0-1.1s-.72-.11-1.11-.15C896.17,295.05,896,295.58,896.15,295.76Zm-431.6,11c-.32-.21-.67-.63-.94-.59s-.45.57-.67.88l.95.64Zm894.31,136.55-.81-.47c0,.19-.16.42-.09.57s.31.21.48.31Zm32.76,80.45c0,.16.13.36.2.54l.7-.62-.49-.32C1391.89,523.45,1391.65,523.56,1391.62,523.72ZM811.48,407.56l-.92.1c.08.18.11.44.25.52s.37,0,.57,0Zm515.08,1132.18c-.12.1-.09.36-.13.55l.94-.09-.27-.53C1326.93,1539.68,1326.68,1539.63,1326.56,1539.74Zm284.37-766c0,.16.13.36.2.54l.7-.62-.49-.32C1611.19,773.48,1611,773.59,1610.93,773.74Zm9.8,471.32-.92.1c.08.18.11.43.25.52s.37,0,.56,0ZM433.14,186.68c-.07-.15-.32-.21-.5-.3l-.15.93.58-.06C433.1,187.05,433.21,186.82,433.14,186.68ZM22.85,1062.62l-.7.61c.16.1.33.3.48.29s.3-.23.44-.35Zm704,634.38c-.15,0-.28.25-.42.39l.82.46.1-.57C727.17,1697.18,727,1697,726.84,1697ZM581.07,313.93c-.16,0-.3.23-.44.36l.8.5.13-.57C581.39,314.12,581.22,313.92,581.07,313.93Zm1008,1400.82.93-.08c-.07-.18-.11-.43-.24-.52s-.38,0-.57,0ZM599.1,1846l.3.3.12-.43Zm294.66-295v-.42l-.39.22ZM332.7,1121.81l-.3.3.43.12Zm399.59-719.5.31.31.12-.43ZM1961.21,835.15v-.43l-.39.22ZM605,1767.43l.3.3.12-.43ZM498,387.19v-.43l-.39.22Zm-275.18,610h.43l-.22-.38Z"/></g><g id="explotion-6"><path d="M1314,176.89c-146.68,329.39-66.14,556,143.17,402.86C1247.85,732.89,1445.69,873.68,1808.89,830c-363.2,43.65-524.18,227.55-286.2,326.94-238-99.39-265.58,140.22-49.07,426-216.51-285.75-458-328.47-429.36-75.93-28.67-252.54-254.12-153.71-400.8,175.68,146.68-329.39,66.15-556-143.16-402.86,209.31-153.15,11.46-293.93-351.73-250.29C511.76,985.9,672.75,802,434.76,702.61c238,99.39,265.59-140.22,49.07-426,216.52,285.75,458,328.46,429.37,75.93C941.87,605.1,1167.31,506.28,1314,176.89Z"/><path class="cls-5" d="M1041.43,1482.07C1014,1240.45,798.29,1335,658,1650.17c140.34-315.17,63.28-532-137-385.47,200.27-146.52,11-281.22-336.53-239.46C531.94,983.48,686,807.52,458.26,712.42,686,807.52,712.38,578.26,505.21,304.86,712.38,578.26,943.46,619.13,916,377.51c27.43,241.62,243.14,147.07,383.48-168.1-140.34,315.17-63.29,532,137,385.46-200.27,146.53-11,281.23,336.53,239.47-347.5,41.76-501.53,217.72-273.83,312.82-227.7-95.1-254.11,134.15-47,407.56C1245.08,1281.31,1014,1240.45,1041.43,1482.07Z"/><path d="M1036.37,1437.54c-25.22-222.14-223.53-135.21-352.56,154.55,129-289.76,58.19-489.1-125.94-354.39C742,1103,568,979.15,248.47,1017.54,568,979.15,709.57,817.38,500.23,730c209.34,87.43,233.62-123.34,43.16-374.71C733.85,606.61,946.3,644.18,921.08,422c25.22,222.14,223.54,135.21,352.57-154.55-129,289.76-58.19,489.1,125.94,354.39C1215.46,756.59,1389.5,880.43,1709,842c-319.48,38.39-461.1,200.16-251.75,287.59-209.35-87.43-233.62,123.34-43.16,374.71C1223.61,1253,1011.15,1215.4,1036.37,1437.54Z"/><path class="cls-6" d="M1031.32,1393c-23-202.66-203.93-123.35-321.65,141,117.72-264.34,53.09-446.2-114.89-323.3,168-122.9,9.2-235.88-282.27-200.86,291.47-35,420.67-182.6,229.68-262.37,191,79.77,213.14-112.52,39.38-341.84C755.33,635,949.15,669.23,926.14,466.57c23,202.66,203.93,123.35,321.64-141-117.71,264.35-53.08,446.21,114.9,323.31-168,122.9-9.21,235.88,282.26,200.85-291.47,35-420.66,182.61-229.67,262.38-191-79.77-213.14,112.52-39.38,341.84C1202.13,1224.63,1008.31,1190.35,1031.32,1393Z"/><path class="cls-1" d="M1026.26,1348.48c-20.79-183.17-184.33-111.49-290.72,127.44,106.39-238.93,48-403.31-103.85-292.22,151.83-111.09,8.32-213.21-255.13-181.55C640,970.49,756.78,837.09,584.15,765c172.63,72.09,192.65-101.71,35.6-309C776.8,663.29,952,694.27,931.19,511.09c20.8,183.18,184.33,111.5,290.73-127.43-106.4,238.93-48,403.31,103.85,292.22C1173.94,787,1317.45,889.09,1580.9,857.43c-263.45,31.66-380.22,165.05-207.6,237.15-172.62-72.1-192.64,101.71-35.59,309C1180.66,1196.29,1005.47,1165.31,1026.26,1348.48Z"/><use width="1196.41" height="708.14" transform="translate(397.21 592.24)" xlink:href="#cloud"/></g></svg>