<svg xmlns="http://www.w3.org/2000/svg" viewBox="0 0 2000 2000"><defs><style>.cls-1{opacity:0.25;}.cls-2{fill:#ed1c24;}.cls-3{fill:#ffd100;}</style></defs><g id="halftone-dots" class="cls-1"><path d="M406.65,1069c-3.08-3.53-6.76-6.68-9.07-10.7a40.15,40.15,0,0,1-4.17-12.75c-1.12-6.14-.71-5.74-6.84-4.6-4.59.86-9.65,1.31-14.08.17-10.4-2.67-17.07-13.52-16.17-24.61.92-11.38,9.55-20.66,20.4-22,10.48-1.24,20.62,5.64,24,16.31,2.59,8.07,2.53,7.88,10.49,5.24a38.21,38.21,0,0,1,10.11-1.56c3.47-.17,5.39-.81,3.55-5a21.71,21.71,0,0,1-1.49-6.25c-1.42-13,5.47-24,16.39-26.19,13.06-2.64,23.23,3.79,27,17.06,1.68,5.93,1.57,5.63,6.8,3.55a73.78,73.78,0,0,1,13.15-3.61c3.17-.61,4.23-1.56,3.44-5.21a34.73,34.73,0,0,1-.77-12c1.62-11.23,10-18.75,20.79-19.44,10-.65,19.22,6.17,22.41,16.64.35,1.14.57,2.33.88,3.49.7,2.61,2,3.21,4.58,2.24a117.08,117.08,0,0,1,15-4.48c3.31-.72,3.68-2.06,3.39-5.42-.47-5.4-.89-11.18.45-16.28,2.5-9.59,11.15-15.49,20.83-15.74,10.29-.26,18.56,5.11,22.4,14.64a23.7,23.7,0,0,1,1.41,4.81c.61,3.44,2.09,4.29,5.32,3,4-1.63,9.77-1.45,12-4.38,2-2.6.08-8.38.1-12.75,0-14.66,11.32-26.52,25.35-26.74.91,0,1.83.1,2.74,0,1.91-.14,3.81-.36,5.71-.54-.79-1.68-1.57-3.37-2.39-5-4.32-8.84-4.44-17.65,1-25.93,5.59-8.53,13.88-10.78,23.08-8.88s14.64,8.27,16.72,17.88c1.29,6,1.36,5.87,6.72,3.66,3.8-1.57,9.28-1.81,11.06-4.67s-.4-8.14-.58-12.38c-.14-3.3.13-6.63.21-10-2.76,1.39-5.48,2.91-8.31,4.15-7.86,3.48-16.71,1.2-22.47-5.66a21.16,21.16,0,0,1-2.37-24.14c4.27-7.78,13-12.13,21-10.42a21.48,21.48,0,0,1,16.45,19c.1.95,0,1.93.08,2.88.1,1.41.27,2.81.41,4.21,1.31-.72,2.61-1.49,3.94-2.16,4.69-2.36,9.32-4.89,14.13-6.95,2.13-.91,4.15-1.56,3.23-4.35-2.77-8.41-1-16.6.72-24.82l.13-.18c5.68-6.36,11.65-12.19,20.19-14.2.86-.2,1.79-3,1.64-4.44-.48-4.5-1.61-8.92-2.21-13.42-.39-2.88-1.62-3.51-4.19-3a45,45,0,0,1-10.14,1.35c-11-.3-19.75-9.82-20.14-21.42-.41-12.28,7.47-22.49,18.45-23.9l.69-.05c7-.76,7-.76,3.62-7.37-7.27-14.21-1.94-31.28,11.78-37.75s29.44.5,34.76,15.7a16,16,0,0,1,1,3.44c.51,4.24,2.57,4.09,5.79,2.92a55.73,55.73,0,0,1,11.32-2.71c5.12-.72,5.53-.67,3.54-5.88-4-10.48,1.76-24,11.1-28.87,12-6.33,26.34-.88,31.39,12.27A40.61,40.61,0,0,1,856,701.7c1,5.25.85,5,5.91,3a61,61,0,0,1,12.5-3.4c5.43-.88,5.41-.67,3.84-6a39.89,39.89,0,0,1-2-9.77c-.41-12.29,7.25-22.43,18.16-24.55,12.18-2.36,23.28,4.47,27,16.67a17.71,17.71,0,0,1,.75,3.51c.41,4.38,2.43,4.21,5.65,2.74,9.61-4.38,9.66-4.27,8.26-15.26a13.9,13.9,0,0,1-.26-2.86c.35-4.14-1.17-4.95-4.89-3.83-5.62,1.69-11.34,1.64-16.74-1.22-9.14-4.84-13.78-15.36-11.58-26.12,1.9-9.3,10.45-16.8,19.68-17.29a21.89,21.89,0,0,1,22.71,16,23.19,23.19,0,0,1,.69,3.53c.46,3.14,1.75,3.88,4.76,2.69,11.77-4.67,11.72-4.55,9.72-17.55-.47-3.12-1.47-4-4.51-3.39a40.72,40.72,0,0,1-10.86,1.07c-11.4-.73-19.4-10.32-19.42-22.8s7.94-22,19.28-23c12.3-1.11,20.57,4.79,24.32,17.34,1.56,5.21,1.56,5.21,6.55,2.72a20.54,20.54,0,0,1,2.49-1.23c9.89-3.36,7.85-2.44,6.8-13.62-.3-3.26-2-3.56-4.8-3.25-4.46.51-9.17,1.32-13.46.38-10.87-2.4-18.36-12.54-18.58-23.83a25.7,25.7,0,0,1,17.22-24.41c2.74-.92,6.38-1.25,7.79-3.25.92-1.33-1.49-5.14-2.26-7.88-4.11-14.57,3.2-29.78,16.88-35.06a35.88,35.88,0,0,1,5.29-1.51c2.18-.48,3.45-1.65,2.6-4a39.42,39.42,0,0,1-2-18.44c.35-2.79-1-2.4-2.94-1.8-4.1,1.28-8.29,3.08-12.46,3.14-11.1.16-19.3-8.94-19.47-20.69-.16-11.93,7.65-21.13,18.52-21.82,11.85-.74,20.93,6.92,22.11,18.67.14,1.43.13,2.88.25,4.32.23,2.69,1.57,3.52,3.64,1.89,9.63-7.56,20.08-6.83,30.82-3.59l.08.07a47.27,47.27,0,0,0,3.29,3.62c6.86,6.2,10.2,14,10,23.51-.12,6.88,0,6.88,5.79,4.1a21.74,21.74,0,0,1,26.83,6.1,24.45,24.45,0,0,1,.29,28.81,21.14,21.14,0,0,1-13.19,8.45c-6.13,1.24-5.93,1.21-3.54,7.55a66.4,66.4,0,0,1,3.05,11.76c.54,3.09,1.68,4.07,4.63,3.33a43,43,0,0,1,9.44-1.57,24.32,24.32,0,0,1,24.14,19.45c2.67,12.9-3.33,25.26-14.63,30.17-8.23,3.57-8.09,3.52-5.37,12.65,1.1,3.66,2.7,5.08,6.44,4.19a55.1,55.1,0,0,1,10.18-1.23c2.64-.13,3.3-1.07,2.22-3.57a25.34,25.34,0,0,1-1.08-16.94c2.9-10.65,12.9-17.05,24.11-15.77,9.57,1.1,17.75,10.09,18.43,20.27.79,11.78-5.74,21.88-16,24.64a17.8,17.8,0,0,1-3.4.52c-4.17.31-4.3,2.41-2.64,5.79a53.38,53.38,0,0,1,3,8c2,6.63,1.9,6.65,8.45,5.36,11.86-2.34,23,2.75,28.6,13.54a38.31,38.31,0,0,1,3.44,10.87c.7,4,1.68,5.16,5.82,3.78,18.31-6.1,31.36,1.83,36,21.61.77,3.26,1.73,4.19,5.18,3.37,5.48-1.31,11.19-1.62,16.8-2.34,1.29-.17,2.58-.32,3.87-.47-.61-1.24-1.11-2.55-1.83-3.71-5-7.83-5.23-15.77-.28-23.65,5.22-8.3,15-11.5,23.57-8,8.38,3.41,14,12.79,12.92,21.69-1.15,9.78-8.78,17.7-18.19,18.86-.68.09-1.37,0-2.06.1l-4.69.33c.79,1.58,1.64,3.14,2.35,4.76,1.72,3.89,3.72,7.7,4.93,11.77,1,3.42,2.06,4.74,5.76,3.75a55.45,55.45,0,0,1,13.49-1.85c3.65-.05,3-1.37,2.15-3.86-1.15-3.6-2.49-7.32-2.62-11-.44-12.46,8.43-22.51,19.87-23.13A21.83,21.83,0,0,1,1313,683.17c1.27,13.26-6.51,24-18.66,25.79-1.13.16-2.29.17-3.42.34-2.12.33-2.64,1.51-1.73,3.57,1.83,4.13,3.41,8.39,5.45,12.4a4.58,4.58,0,0,0,3.62,2.16,46.29,46.29,0,0,0,10.09-2c1-.31,2.1-2.31,2.07-3.52-.06-3.34-1-6.66-1-10,0-12.14,7.58-22.42,18.16-24.95,12.27-2.94,23.67,2.42,29,13.73a31.94,31.94,0,0,1,2,6.1c.8,3.31,2.47,4.08,5.58,3.08a45.93,45.93,0,0,1,10.71-2.4c4.14-.28,3.8-2.08,3.43-5.58-.6-5.6-1.23-11.68.21-16.94,3.08-11.25,13.77-17.13,25.66-15.47,10.36,1.44,18.38,10.82,19.06,22.28,0,.72,0,1.44.07,2.17.32,6,.43,6.18,5.13,3.21a28.26,28.26,0,0,1,17-4.57c4.28.22,4.3,0,2-4-5.87-10.27-5.52-20.63,1-28.86,6.85-8.7,17.65-11.37,27.33-6.74,9.1,4.36,14.69,15.31,13,25.53-1.78,10.87-10.13,19.07-20.57,20.18-.91.1-1.83,0-2.75.1-1.33.12-2.66.32-4,.48a33.88,33.88,0,0,0,2,4.23c11.13,17.53,2.81,38.59-16.93,42.8-5.75,1.22-5.75,1.22-4,7.18,5,17.15-3.36,32.36-19.88,36.27-5.25,1.24-5.08,1.19-3.76,6.44a70.73,70.73,0,0,1,1.9,11.3c.31,3.77,1.24,5.33,5.1,3.61a24.38,24.38,0,0,1,8-1.9c14.55-1.11,24.71,8.39,25.49,23.64.08,1.44,0,2.9.12,4.33.19,2.29,1.38,2.9,3.3,1.85,1.22-.67,2.35-1.49,3.58-2.14,16.32-8.63,34.32,3.46,33.82,22.71a6,6,0,0,0,0,.73l.42,6c1.5-1,3-2,4.5-3.09,15.25-11.57,36.13-2.63,39.24,16.82,1,6.33,1.09,6.5,6.76,3.9s11.57-2.56,17.56-2a10.74,10.74,0,0,0,3-.63,13.52,13.52,0,0,0-1.1-2.54c-4-5.73-5.9-11.89-3.81-19,3-10.25,12.72-16.94,22.18-15.23,9.87,1.79,17.39,11.14,17.14,21.33-.24,10.52-8.48,19.58-18.7,20.6-2.18.22-4.34.54-6.51.81,1.28,1.92,3,3.67,3.77,5.79,1.94,5.05,4.26,10.14,5,15.44,1.12,8.16.58,8.12,7.89,5.94,8.45-2.51,16-.74,21.83,6.39,5.57,6.87,6.37,14.81,2.93,23-3.64,8.66-12.18,13.26-21.49,12-8.22-1.12-15.21-8-16.87-16.77a25.23,25.23,0,0,1-.35-3.59c-.18-3.47-1.54-4.32-4.33-2.24a26.41,26.41,0,0,1-16.73,5.6c-4.09-.08-4.51,1.9-3.19,5.5a25,25,0,0,1-.56,19.62c-4.06,8.8-10.85,13.46-20.2,13.71-9.59.25-16.8-4.05-21.29-13a22.81,22.81,0,0,1-2.17-6.05c-.63-3.59-2-4.34-5.2-2.74-3.9,2-9.36,2.38-11.63,5.48-2,2.7-.3,8.22-.45,12.49-.48,14.17-10.52,24.91-24,25.76-.92.05-1.84.05-2.75.07-6.46.14-6.46.13-3.62,6.39,6,13.26.53,28.34-12.2,33.51s-26.4-2.19-30.46-16.29a26.23,26.23,0,0,1-.75-3.52c-.42-3-1.89-3.61-4.34-2.32-.21.1-.41.22-.62.31l-11.93,5.23q.59,8.19,1.18,16.37c.2,2.73,1.66,3,3.83,2.28,3-1,6.13-2.22,9.25-2.38,11.19-.61,20.25,7.84,21,19.16.8,11.78-6.65,21.74-17.27,23.09-11.41,1.44-21.13-6-23-17.67-.19-1.18-.19-2.4-.33-3.59-.33-2.84-1.6-2.74-3.8-1.72a119.54,119.54,0,0,1-14.58,5.9c-4.17,1.27-3.13,3.86-2.46,6.71,2.5,10.62.67,20-7.1,27.76a24.25,24.25,0,0,1-15.33,7.31c-6.3.58-6.3.71-4.17,6.72,1.94,5.48,3.14,10.91,1.61,16.88-2.7,10.51-8.79,17.17-18.86,19.8a28.37,28.37,0,0,1-4,1c-3.78.43-3.93,2.47-2.39,5.43a20.53,20.53,0,0,1,1.1,2.65c5.38,14.86-1.45,30.27-15.78,35.56a31.49,31.49,0,0,1-4.62,1.4c-2.78.58-2.87,2.3-2.49,4.81.77,5.19,1.35,10.43,1.72,15.67.23,3.37,1.35,4.4,4.29,2.8a27.28,27.28,0,0,1,2.49-1.22c9.23-3.82,19-1.37,24.87,6.24a23,23,0,0,1,1.33,26.21c-4.71,7.67-13.88,11.65-22,9.56-9.86-2.52-16.26-10.38-17-21-.13-1.87-.14-3.75-.21-5.63-1.71,1-3.4,2-5.15,2.82a86.54,86.54,0,0,1-9.34,4.44c-3,1.06-4.23,2.63-3.11,5.85a5.62,5.62,0,0,1,.16.71c2,10.22,2,10.22,11.67,9.08,13.92-1.64,26.75,9.55,28.12,24.51s-9.92,28.32-24.49,29.12c-.92,0-1.84,0-2.75,0-5.45-.06-5.51,0-3.22,4.91,2.69,5.81,4,11.66,2,18.1C1294.78,1343,1286,1350.15,1276,1350c-9.74-.14-18.35-7-21.41-17.29a39.76,39.76,0,0,1-1.27-7c-.32-3-1.71-3.9-4.11-2.39-6.46,4-13.41,4.48-20.63,3.53a10.17,10.17,0,0,0-3.06.54,19.27,19.27,0,0,0,1.35,3.15c4.24,6.47,6.26,13.3,3.7,21.11-3.39,10.36-13,17-22.87,15.63-10.19-1.45-18-10-18.91-20.8-.14-1.67,0-3.37,0-5-.08-2.27-1.22-2.36-2.61-1.15a28.4,28.4,0,0,1-15.49,7.18c-3.14.39-3.46,2.11-2.64,5.1a45.15,45.15,0,0,1,1.9,11.26c.17,13.68-8.64,24.42-21.48,26.72-6.6,1.18-6.6,1.18-4.41,8,5.32,16.41-2.55,32.18-18.35,36.78-5.62,1.64-6,1.76-4,7.71,2.49,7.58.59,14.72-.94,22-.74,1.73-1.49,3.45-2.23,5.18-5.69,3.48-11.46,6.83-17,10.56a5.94,5.94,0,0,0-2,4.5c.28,4,1.22,8,1.82,12.07.35,2.38,1.54,3.19,3.8,2.93a56.22,56.22,0,0,1,9.59-.59c11.3.7,19.36,9.71,19.75,21.77.42,12.66-7,22.26-18.37,23.88-7.68,1.08-7.68,1.08-4.34,8,7.62,15.73.09,33.66-16.15,38.43-1.1.33-2.22.62-3.33.89-5.13,1.2-4.78,1.09-3.42,6.4a87.26,87.26,0,0,1,2.39,15.46c.24,3.37,1.11,3.78,3.62,2.21,5.23-3.3,10.93-3.66,16.63-2.19,9.76,2.51,15.62,12.53,14.41,24a20.14,20.14,0,0,1-19.25,18.06c-10.54.33-19.23-6.55-21-16.75-.3-1.65-.3-3.35-.53-5-.36-2.69-1.81-3.23-3.84-1.78-6.94,5-14.42,7.17-22.82,5.56-2.19-.42-3,.67-2.07,2.92.75,1.75,1.68,3.43,2.3,5.23,4.09,11.84-2.3,24.67-13.82,27.87-11.23,3.11-22.9-4.47-25.11-16.31-2.31-12.4,5.71-24,17.63-25.42.91-.11,1.83,0,2.74-.15,4.61-.52,5-1,2.59-5.09-3.22-5.44-5.47-11.1-5.39-17.6,0-3.81-1.45-4.19-4.78-3.14-4.3,1.36-9,2.9-13.3,2.39-15.59-1.82-24.58-17-20-32.7.6-2.06,1.45-4,2.19-6.07,3.61-2.9,7.06-6,10.87-8.62,2.75-1.86,7.75-2.28,8.52-4.55.9-2.65-1.88-6.57-2.74-10s-2.37-4.86-5.89-3.83a42.79,42.79,0,0,1-8.77,1.56c-3.1.24-3.33,1.84-2.48,4.32,2.35,6.88,1.53,13.72-.2,20.55-5.55,7.74-12.32,12.68-22.17,11.77a21.49,21.49,0,0,1-19.83-19.48c-1.36-12.43,4.58-22.54,15.21-25.78,1.32-.4,2.7-.55,4-.89,2.63-.66,3.15-2.09,2-4.77a96,96,0,0,1-3.77-10.77c-.82-2.7-2-3.89-5-3.43a90.13,90.13,0,0,1-13.62,1c-3.5,0-3,1-2,3.74,1.64,4.37,3.44,9,3.53,13.63a21.27,21.27,0,0,1-20.45,21.8,21.8,21.8,0,0,1-22.48-20.53c-.88-12.39,7.08-23,18.47-24.64,7.68-1.1,7.55-1,3.92-8.54a47.61,47.61,0,0,1-3.15-9.49c-.68-2.83-1.69-4.09-4.74-3.42a94.58,94.58,0,0,1-12.85,1.9c-3.63.28-4.37,1.66-2.87,5,2.47,5.58,3.54,11.28,1.73,17.47-3.27,11.11-13.9,18.83-24.11,17.12a23.83,23.83,0,0,1-20.15-25.13c.06-1,.36-1.89.44-2.85.26-2.92-.83-3.55-3.16-2-1.35.91-2.65,1.91-4.06,2.71-13.91,7.84-30.08,1-35.07-14.72-.29-.91-.57-1.82-.81-2.75-1.49-5.88-1.41-5.65-6.5-3.77a53.48,53.48,0,0,1-11.25,2.84c-5.79.79-6,.62-4.22,6.39,2.81,9.28,1.54,17.64-4.82,24.81-11.94,13.46-32.83,8.53-38.32-8.95-2.53-8-2.47-7.84-9.92-5.34a55.5,55.5,0,0,1-10.77,1.93c-2.67.33-3.61,1.37-2.81,4.25a44.29,44.29,0,0,1,2,9.79c.49,12-7.22,22.22-18.24,24.53s-21.88-3.88-26.11-15a20.32,20.32,0,0,1-1.27-4.11c-.6-3.86-2.5-3.88-5.4-2.54a47.37,47.37,0,0,1-8.45,3c-6,1.5-5.7,1.35-4.94,8.11a38.61,38.61,0,0,1-.56,13.4,25.16,25.16,0,0,1-23.46,18.93c-10.49.35-20.72-7.18-24.3-17.9a29.62,29.62,0,0,1-.9-3.48c-.78-3.72-2.28-5.46-6.22-3.48-3.26,1.63-8,1.57-9.91,4.08-1.5,2,.36,6.7.57,10.21s.24,7.13.35,10.69c2.91-1.18,5.78-2.47,8.73-3.51,12-4.21,24.37,3.36,27.41,16.69,2.79,12.2-5.62,24.93-17.85,27-11.83,2-23.36-7.56-24.62-20.46-.24-2.5-.68-5-1-7.46-2,1.15-3.83,2.66-5.94,3.37a65.61,65.61,0,0,1-12.5,3.28c-6.26.77-6.36.49-3.8,6.34,2.79,6.39,3.61,12.79,1.26,19.58-3.57,10.33-14.21,18-24,17-12-1.19-21.26-10.86-22.59-23.46-1.08-10.21,6.07-21.68,16-25.28a39.27,39.27,0,0,1,8-1.82c4.72-.66,4.49-.45,2.48-5.3-1.53-3.69-3-7.63-3.37-11.57-1.17-14,5.35-24.49,18.11-28.66,5.41-1.77,6.31-2.83,4.55-8.57-1-3.34-.89-7.11-1-10.7-.23-6.34-.11-6.2-5.68-4.44a29.77,29.77,0,0,1-8.7,1.62c-10.72,0-19.21-8.79-19.66-19.94-.48-11.75,7.32-21.4,18.06-22.35a20.32,20.32,0,0,1,22.21,17.87c.19,1.42.19,2.88.26,4.32.17,3.48,1.63,3.17,4,1.83a75.46,75.46,0,0,1,11.17-5.3c3-1.07,4-2.47,3.26-5.78a86.59,86.59,0,0,1-1.56-11.37c-.29-3.61-1.66-4.22-5-3.49-4.37,1-9.11,2.09-13.36,1.24a23.14,23.14,0,0,1-18.2-24.45c1.1-12.4,10.34-21.67,22.34-22.38a15.78,15.78,0,0,1,2.75.08c4.18.49,3.64-1.62,2-4.11a27,27,0,0,1-4.37-15.65c.13-12.77,7.59-22.53,19.45-25.33,6.51-1.54,6.31-1.48,4.37-8.3a61.08,61.08,0,0,1-1.76-11.32c-.51-5.73-.44-5.88-5.48-3.7-8.59,3.71-16.66,3-23.91-3.15-7.43-6.33-10.37-14.67-8-24.46s8.68-15.58,17.92-18a23.17,23.17,0,0,1,4.09-.45c2.63-.2,4.08-1.36,2.56-4.14-3.21-5.88-4-12.19-3.65-18.81.19-3.88-1.65-3.81-4.28-2.29-4.7,2.69-9.6,4.65-15.1,3.68a24,24,0,0,1,.61-47.35c6.66-1.1,6.43-1,3.44-7.64a56.09,56.09,0,0,1-3.41-11.64c-1.08-5.32-.92-5.46-6-3.42-5.27,2.12-10.45,3.1-16.08,1.29a26,26,0,0,1-17.8-24,25.75,25.75,0,0,1,16.86-24c7.78-2.7,7.79-2.7,5-11.1-1-2.89-1.24-7.08-3.18-8.28s-5.63.47-8.55.86-5.82.74-8.74,1.1c.86,2.89,1.78,5.76,2.56,8.66,3.15,11.75-2.73,24-13.45,28.22s-22.92-1.18-27.69-12.22-.48-24.15,9.87-29.69c2.76-1.48,6.06-2,9.19-2.53,2.87-.49,4.24-1,2.51-4.52a98.45,98.45,0,0,1-5.25-13.19c-.87-2.64-2.15-3.51-4.59-2.7a28.75,28.75,0,0,1-16.25,1c-2.55-.62-3.69.39-1.91,3a23.44,23.44,0,0,1,4.05,15c-.72,11.37-9.62,19.79-20.79,19.55-10.73-.24-19.2-8.86-19.65-20-.49-11.78,7.24-21.4,18-22.4,2.86-.27,5.73-.49,8.59-.73-1.46-2.38-3.22-4.61-4.31-7.16a63,63,0,0,1-3.55-10.84c-.87-3.89-2.38-5.24-6.2-3.72-5,2-10.1,2.82-15.49,1.5-10.61-2.59-17.31-9.32-20.32-20.21-.38-1.39-.62-2.81-.92-4.22-.56-2.56-1.86-3.94-4.41-2.68-7.51,3.72-15.25,2.25-23,1.28Zm787.93,248c0,2.62,0,5.25,0,7.88s1,2.92,2.91,1.69c6.1-3.9,12.5-5.67,19.55-3.16.56.2,1.28-.12,1.92-.2a9.91,9.91,0,0,0-.66-1.8c-3-5-6.14-9.89-8.81-15.07-1.21-2.34-2.28-3-4.74-2.51C1195,1305.91,1194.41,1306.58,1194.58,1317ZM878.49,1487.47l-.94.13.54,2.66a22.53,22.53,0,0,0,3-.88c3.33-1.47,6.52-3.47,10-4.46,7.25-2.1,7.34-1.9,4-9-1.46-3.12-2.39-7.72-4.77-8.83-2.54-1.19-6.47,1.06-9.83,1.56s-4.1,2.1-3.53,5.43C877.72,1478.49,878,1483,878.49,1487.47Zm538.12-768.39.52-.12V716.8c0-5,0-4.88-4.2-2.75a40,40,0,0,1-8.91,3.5c-3.46.78-4.89,1.84-3.13,5.74,1.46,3.21,2,6.85,3.4,10.12.62,1.5,2.34,3.83,3.22,3.67a75.43,75.43,0,0,0,12.09-3.59c.19-.07-.4-2.61-.69-4C1418.16,726,1417.38,722.55,1416.61,719.08ZM606.55,1243v.12a15.35,15.35,0,0,1-2-.13c-4.38-.83-3.64,1-2.55,4.26a102.62,102.62,0,0,1,3.41,15.15c.35,2,.19,3.44,2.69,2.08,4-2.19,8.2-4.12,12.18-6.43.95-.55,2.09-2.32,1.89-3.21-.94-4.16-1.67-8.68-3.87-12.06-.84-1.3-5.41.09-8.28.22C608.83,1243.09,607.69,1243,606.55,1243Zm460.1,336.81c-.51-1.69-.87-2.81-1.19-3.95-2.49-8.86-2.49-8.89-10.87-6.55-3.77,1.05-9.68,1.18-10.72,3.59-1.36,3.14,1.24,8.11,1.94,12.33.37,2.26,1.13,2.72,3.19,1.93,4.87-1.88,9.83-3.46,14.71-5.3A14.41,14.41,0,0,0,1066.65,1579.85Zm194.06-283.91c.64,10.1.64,10.1,9.25,7.28a11.27,11.27,0,0,1,2-.61c3.11-.43,6.23-.8,9.35-1.19-1.35-3-2.84-5.89-4-8.94-3.15-8.17-3.1-8.19-11.36-5.49-1.09.35-2.42.42-3.21,1.14a7.29,7.29,0,0,0-2.31,3.69A12.83,12.83,0,0,0,1260.71,1295.94ZM461.54,1038.27c-.71-2.47-1.33-4.28-1.75-6.15-.82-3.65-.56-9.53-2.52-10.48-2.91-1.42-7.35.63-11.14,1.21l-.69.09c-2.79.35-3.37,1.63-2.15,4.4a75.17,75.17,0,0,1,4.09,11.37c1.42,5.51,1.22,5.59,6.25,4.2a29.55,29.55,0,0,0,5.87-2C460.47,1040.45,461,1039,461.54,1038.27Zm980.34-164.22c4.81-.85,8.88-1.43,12.87-2.4.69-.17,1.53-2,1.44-3-.5-5.41-1.27-10.81-2-16.21-5.51-.17-8.8,5.83-14.32,5.67a3,3,0,0,0-1.9.74c-.64.55-1.65,1.54-1.51,2q1.68,6.2,3.82,12.23C1440.55,873.75,1441.77,874,1441.88,874.05Zm53,7.56.73-.08-.42-6.82c-1.87,1.25-3.74,2.5-5.62,3.73a23.81,23.81,0,0,1-2.36,1.42c-3,1.5-7.75,2.35-8.41,4.57-.8,2.65,2.39,6.38,3,9.8.94,4.94,3.56,5.48,7.44,4.3a19,19,0,0,1,4-.83c3.09-.23,3.68-1.86,3.11-4.83C1495.67,889.16,1495.36,885.37,1494.88,881.61ZM680.36,920.69c-5.91.36-10.42.66-14.92.89-2.84.15-2.88,1.37-1.61,3.64a107.34,107.34,0,0,1,5.72,11.27c2.13,5.16,1.94,5.25,7.35,3.45,1.3-.43,2.88-.53,3.82-1.39,1.16-1.07,2.53-2.78,2.51-4.19a66.15,66.15,0,0,0-1.34-11.29A5.26,5.26,0,0,0,680.36,920.69ZM1527,930.89c4-.75,7-1,9.83-2a4.17,4.17,0,0,0,1.94-3.46c-1-5.37-2.39-10.68-3.91-15.92-.27-1-2-2.25-2.79-2.09a40.85,40.85,0,0,0-9.16,2.9c-.92.43-1.76,2.71-1.52,3.89.94,4.68,2.22,9.3,3.61,13.86A8.94,8.94,0,0,0,1527,930.89ZM633.38,1436.05c-1.19-4.44-1.43-8.4-3.33-11-.86-1.2-5,.2-7.67.43-.69,0-1.37.12-2,.18l-8.09.67c.9,2.82,1.82,5.64,2.68,8.48a48.66,48.66,0,0,1,1.48,5.54c.54,3,1.7,4.21,4.68,2.69s6-2.43,8.82-3.91A18.57,18.57,0,0,0,633.38,1436.05Zm409.12-934.7c-.6-5.36-1-9.37-1.5-13.38-.25-2.22-1.28-2.79-3.28-1.84-4.53,2.14-9.06,4.3-13.7,6.14-2.22.87-2.9,2-2.15,4.28.67,2,1,4.28,2.16,6,.81,1.24,2.67,2.54,4,2.46a78.94,78.94,0,0,0,12.09-1.89C1041.27,502.86,1042.23,501.56,1042.5,501.35ZM780.29,757.64c-.82-2.93-1-6.76-2.89-9-1-1.23-5,.22-7.58.46l-9.38.85c1,3,2.08,6,2.94,9.08.5,1.81.46,3.79,1,5.59.28,1,1.6,2.51,1.9,2.38,4.56-2,9.07-4.08,13.49-6.36C780.23,760.41,780.1,758.9,780.29,757.64ZM634.67,1312.43c-4.84.26-8.28.28-11.66.71-1,.13-2.78,1.64-2.67,2.14,1.19,5.3,2.68,10.52,4.09,15.77l11.16-4.23c.43-.17,1.09-.13,1.28-.43.87-1.41,2.28-2.92,2.23-4.35a18.25,18.25,0,0,0-1.88-6.84A9.5,9.5,0,0,0,634.67,1312.43Zm798-330.78c.43,4.73.57,8.1,1.14,11.39.16.89,1.74,2.26,2.49,2.15a110.35,110.35,0,0,0,12.7-2.59c.76-.2,1.89-2.16,1.64-2.82a93.57,93.57,0,0,0-5.13-11.73c-.55-1-2.6-1.81-3.83-1.65a18,18,0,0,0-6.46,2.26C1433.89,979.44,1433.07,981.15,1432.66,981.65ZM1075,1530.26c-.11,9.24,1.7,10.7,9.17,9.26,2.65-.51,5.43-.27,8.09-.74.83-.15,2.23-1.83,2.07-2.27-1.62-4.37-3.51-8.64-5.32-12.93L1078.1,1527a1.37,1.37,0,0,0-.62.29C1076.4,1528.54,1075.34,1529.8,1075,1530.26ZM913.34,716.84c-.41-2-.59-6.07-2.28-9.23-.48-.9-5.36.83-8.23,1.29-1.35.21-2.74.22-4.1.41-2.45.34-3.05,1.73-2,4.05,1.26,2.81,2.62,5.6,3.68,8.5s2.41,4.78,5.55,3.15C908.89,723.48,913.9,724.52,913.34,716.84ZM771,1465.31c.6,4.79.79,8.17,1.56,11.39.26,1,2,2.2,3.16,2.39s2.58-.75,3.9-1.16l8.41-2.56c-1-3.13-2.18-6.2-2.87-9.4-1-4.57-3.41-5.8-7.46-4.32-1.29.46-2.79.47-3.94,1.16A14.52,14.52,0,0,0,771,1465.31ZM597.35,1174.62c-3,2.44-8.71-2-10.69,3.85-.94,2.76,3.38,13.25,4.65,13.24,2.69,0,12-6.12,12-7.9C603.5,1179.23,600.75,1174.66,597.35,1174.62ZM706.23,1483.4c.69,4.62.93,8,1.81,11.16a4.07,4.07,0,0,0,3.39,2.19,102.21,102.21,0,0,0,10.46-2.68c-.88-3.12-1.67-6.28-2.66-9.37-2.13-6.71-2.21-6.81-8.51-4.32C708.89,1481.1,707.36,1482.62,706.23,1483.4ZM848.54,738c-.22-13.48-1.8-14.7-13-10.43-2.18.83-3.07,1.68-2,4.07,1.31,3,2.48,6.13,3.72,9.2,1.41,3.49,4.07,2.45,6.4,1.72S849,742,848.54,738Zm449,405.27c4.13-.77,7.32-1.17,10.37-2.07.78-.23,1.79-2.23,1.57-3.12a56.75,56.75,0,0,0-3.24-9.43,4.18,4.18,0,0,0-3-2.14c-7-.16-9.9,3.72-8.42,11.08.19.93,0,2,.48,2.8A20.22,20.22,0,0,0,1297.56,1143.28ZM637.75,1503c.29,6.82,2.22,11.35,4.83,11.29,4.6-.09,10.67-3.41,10.59-5.79-.17-4.5-3.59-10.93-5.81-10.91C641.77,1497.64,637.62,1500,637.75,1503Zm472.65-121.07c6.76,0,11-1.74,10.85-4.48-.28-4.49-4.07-11.6-6.14-11.5-5,.22-9.89,3.51-9.8,6.65C1105.49,1378.45,1107.39,1381.93,1110.4,1381.94ZM1007.81,535.56c-3,.65-4.74,1.15-6.53,1.41-8.36,1.23-8.36,1.21-5.87,9.2,1.69,5.45,1.69,5.43,7.1,3.27,2.12-.84,4.24-1.65,6.38-2.41,3.07-1.09,2.67-3.62,1.9-5.85A35.92,35.92,0,0,0,1007.81,535.56ZM1405.59,847.2c1.13-.1,2.27-.15,3.4-.28,5.09-.6,5.08-.61,4.16-6.13-1.6-9.58-1.6-9.57-9.85-6-1.26.55-2.74.78-3.75,1.64a5.3,5.3,0,0,0-1.84,3.35C1397.57,845.32,1400.27,847.73,1405.59,847.2ZM837.12,1446.73c.57,3.93.9,7,1.53,10,.2,1,1.41,2.64,1.8,2.53,3.47-.93,7.13-1.73,10.11-3.64.87-.56.15-4.68-.54-6.94-2-6.45-5.41-7.76-11.14-4.39C837.92,1444.86,837.42,1446.3,837.12,1446.73Zm-342-392.82c-2.22,1.17-6.59-1.31-7.35,3.62-.66,4.29,2.92,12.92,4.86,12.8,3.43-.21,9.31-3.7,9.43-5.6C502.33,1060.21,498.57,1054,495.11,1053.91Zm31-37.1c-.52-5-.78-8.55-1.34-12.06-.15-1-1.38-2.65-1.81-2.55a39.46,39.46,0,0,0-9.57,3.13c-.54.28.43,4,1,6.14s1.41,4,2,6c.78,2.71,2.68,3.24,4.78,2.38A30.87,30.87,0,0,0,526.09,1016.81Zm796.64,81.7,2.66-.29c9.72-1,9.72-1,6.11-10.39-2.31-6-2.31-6-7.87-3.77-5.26,2.12-5.8,3.38-3.65,10.79C1320.45,1096.45,1322.08,1097.68,1322.73,1098.51ZM1200.21,714.65c.06-6-1.68-10.13-4.26-10-3.79.22-10.57,4.14-10.55,6.1.06,4.6,2.95,9.16,5.78,9.11C1196.51,719.79,1200.18,717.66,1200.21,714.65Zm146.67,338.74c5.35-.24,9.14-2,9.18-4.26.06-3.64-3.47-10.56-5.38-10.53-4.42.05-8.78,3.09-8.72,6.09C1342.07,1050.11,1344,1053.53,1346.88,1053.39Zm-72.17,130.55c7.69-.62,9.92-1.83,9-5.38-.74-2.84,0-7.38-4.43-7.59-5.26-.26-10.47,3.61-10.19,6.91C1269.47,1182.41,1271.16,1184.23,1274.71,1183.94Zm-624,199.32c-6.15-.15-9.57,1.32-9.49,4.08.11,3.85,3,9.07,5.06,9.08,3.76,0,9.38-3.79,9.47-6.43C655.87,1385.93,653.93,1383.34,650.68,1383.26Zm406.47-815.53c.18-5.18-1.42-8.88-3.79-8.76-3.33.16-10.43,4.56-10.57,6.55-.28,3.78,2.06,7.06,5,7.06C1053,572.6,1057.05,570.5,1057.15,567.73Zm329.08,211.51c6,0,8.45-1.14,8.31-3.81-.21-4.12-3.34-9.86-5.3-9.71-4.11.32-8.72,3.74-8.66,6.42C1380.69,776.86,1382.6,779.26,1386.23,779.24ZM1157.37,688c-1.66-2.5,1.83-8-3.7-8.76-3.3-.46-9.05,3.84-9.18,5.86-.26,4.12,2.53,8.36,5.49,8.34C1154.81,693.39,1157.32,691.68,1157.37,688ZM591.56,997.9c-.71-4.21-1-7.08-1.74-9.86-.23-.94-1.48-2.38-2.08-2.29A22.09,22.09,0,0,0,580,988c-.58.34.39,3.82.83,5.82.36,1.63,1.1,3.17,1.47,4.81.71,3.17,2.83,3.82,5.2,2.72C589.25,1000.54,590.58,998.77,591.56,997.9ZM1134,1337.82c5.42-.17,9.24-2.17,9.28-4.42.08-4.14-3.63-9.68-6.35-9.49-4.24.31-7,2.44-6.21,5.63C1131.41,1332.48,1129.6,1337.29,1134,1337.82Zm105.81-596.71c0-5.15-2.28-9.7-4.84-9.74-4.25-.08-7.31,1.84-7.22,4.52.16,4.74,3.26,10.29,5.81,9.92C1236.26,745.42,1239.67,745.46,1239.78,741.11Zm-490.14,175c.2-4.47-2.19-9.58-4.48-9-2.83.69-6.87-.15-7.8,4.13-.75,3.49,2.75,9.58,5.06,9.68C746.13,921.07,749.52,918.82,749.64,916.13Zm-91.28,61.61c0-5.91-1.58-9.35-4.45-8.71s-7-.13-7.19,4.58,2.92,9.3,5.59,9.26C655.87,982.82,658.35,980.72,658.36,977.74Zm-120,102.45c-4.76.23-7.89,2.28-7.27,5.28s-.57,7.46,4.4,7.44c4.5,0,8.09-2.8,8-5.78C543.27,1082.6,541.4,1080,538.37,1080.19Zm808.55-333.66c0-5.54-1.67-8.87-4.45-9-3.94-.13-6.73,1.68-6.59,4.25.26,4.66,3.51,10.1,6.06,9.88C1344.85,751.44,1347.4,750.52,1346.92,746.53ZM768.06,864.05c-4.62,0-7.11,1.7-7,4.66.22,4.73,2.3,8.42,4.69,8.28,4.18-.23,7.39-2.79,7.3-5.79C772.93,866.94,770.89,864,768.06,864.05Zm327.14,553.28c-1.62-2.18-2.9-5.69-4.93-6.26-3.85-1.09-8.8,3-8.35,5.92s.49,6.46,4.92,6.14C1091.66,1422.79,1094.43,1421,1095.2,1417.33ZM731,1440.26c.06,5.18,2.09,9.32,4.67,8.79s6.46.32,6.79-4.13c.3-4.13-2.89-9.44-5.32-9.53C733.68,1435.25,731,1437.39,731,1440.26Zm383.28-778c-1.07-2,.45-6.36-4.16-6.31-4.44.05-8.48,2.87-8,5.62s.34,6.54,4.73,6.44S1114.3,665.78,1114.3,662.23Zm-534,443.88c-3.59.05-7,2.37-6.47,5.68.38,2.43-.75,6.45,3.73,6.21,4.71-.25,9-3.31,8.58-6.13S585.47,1105.88,580.28,1106.11Zm331.16,317.74c-4.23.11-7.48,2.29-6.68,5s-.37,7.83,4.58,7.12c2.66-.38,6.91,0,7-5C916.41,1426.77,914.3,1423.78,911.44,1423.85Zm35.39,32c1.31,2-1.58,7,3.63,7.2,3.78.16,7.39-3,7.29-5.73-.16-4.28-2.25-7.42-5.06-6.95S946.29,1450.51,946.83,1455.89ZM989,1481.32c1.39,1.93-.94,6.74,4.13,6.45,4.66-.26,8-2.56,7.42-5.39s-.32-6.66-4.75-6.6C991.84,1475.83,988.94,1478,989,1481.32ZM657.64,1270.4c-4.86.06-7.71,1.7-7.58,4.56.18,4,2.19,6.69,4.77,6.49,4.21-.31,8-2.82,7.69-5.48S662.1,1269.89,657.64,1270.4Zm768-355.34c0-6.85-1.76-10.1-4.5-9.42-2.55.63-6.42,0-6.53,4.66-.09,4.08,2.09,7.73,4.7,7.35S1425.46,917.29,1425.64,915.06ZM788.58,831.63c5.92-.28,8.78-2.46,8.77-5.33,0-4.15-1.83-6.74-4.78-6-2.7.69-7.14-.18-6.84,4.83C785.91,828,786.27,831.55,788.58,831.63Zm578.25,169c1.72,2-.8,7.29,4.26,7.83,3.51.38,6.3-2.15,6.08-4.87-.41-5-2.85-8.62-5.76-8.22C1368.92,995.71,1366.27,996.26,1366.83,1000.63Zm95-67.9c-2.67.35-4.84,1-4.48,4.74.53,5.53,2.33,8.85,5.23,8.3,2.24-.43,5.32-.2,5.14-4.21C1467.53,936.4,1465,932.56,1461.86,932.73ZM1220.64,1266c-.1,3.59,2.06,8.62,4,8.23,2.43-.48,5.93,0,6.26-4,.3-3.74-2.87-9.22-5.18-9S1220.52,1261.59,1220.64,1266Zm-584.3-53.83c4.68.11,9.08-2.49,8.84-5-.26-2.76-.35-6-4.32-6.06s-7.64,2-7.48,4.51C633.56,1208.37,633.53,1211.56,636.34,1212.17ZM675.85,1351c2.67-.15,5-2,5-4.87-.1-4-2.06-6.67-4.89-6.19s-6.64.17-6.1,4.83C670.18,1347.57,670,1351.55,675.85,1351Zm128.89,78.65c.72-.75,3.38-2.2,3.56-3.92.49-4.7-2.77-9.45-5.44-9.1-2.28.3-4.48.87-4.52,4.15C798.27,1425.21,800.61,1429.68,804.74,1429.69Zm237.74,74.51c-.84-.8-2.26-3.23-4.09-3.62-3.79-.83-8,2-7.71,4.57s-.13,6.14,4,6.08C1038.52,1511.18,1042.32,1508.48,1042.48,1504.2ZM563.16,1034.64c-4.23.28-6.16,1.9-5.57,5.23.5,2.81.34,6.57,4.71,6.39,3.83-.15,6.19-2.17,5.57-5.28C567.31,1038.24,567.48,1034.44,563.16,1034.64Zm803.7-216.9c-1-2.62-.14-6.39-4.37-6.41-4,0-7.16,2.25-6.69,5.24.43,2.68.49,6.38,4.53,5.76C1363,821.92,1366.51,822,1366.86,817.74ZM1072,636.9c-1-1.17-2.38-4.34-4.5-5a5,5,0,0,0-6.39,4.5c0,3.67,2.13,6.86,4.77,6.41C1068.29,642.39,1071.69,642.86,1072,636.9ZM676.93,1231c.19,4.18,1.52,6,4.28,6,4.09,0,6.93-2.23,6.4-5.35-.45-2.68-.63-6.28-4.61-5.59C680.34,1226.57,676.78,1226.49,676.93,1231Zm-7.74,223.67c-2.33.78-5.84.72-4.75,5.07.67,2.67-.42,7.1,4.19,6.77,2.48-.17,5.8-.34,5.72-4.58S672.1,1454.57,669.19,1454.67Zm324-797c1,1.11,2.42,4,4.35,4.45,3.72.91,7-2,6.57-5-.42-2.65-.46-6.31-4.44-5.79C997,651.71,993.54,651.72,993.19,657.64ZM817.83,778.07c-4.29.16-7.27,2.11-6.78,4.86.42,2.35.43,5.43,4.15,5.28,4.4-.17,7.71-2.4,7.29-5.38C822.12,780.18,821.47,777.52,817.83,778.07Zm365.49,467.66c2.3-.65,5.49-.41,5.33-4.7-.16-4-2.05-6.76-4.83-6.27-2.53.45-5.77.44-5.62,4.69C1178.34,1243.39,1180.23,1245.88,1183.32,1245.73Zm-193-69.1c-1.14,1.06-3.9,2.43-4.58,4.54-1.07,3.28,1.72,7,4.3,6.54s6.09-.24,5.79-4.47C995.67,1180.55,995.58,1177.24,990.35,1176.63ZM888.49,763.27c-1.37-1.92.32-6.85-4.56-6.65-2.38.11-5.07.71-4.82,4.51.29,4.17,2.34,7.61,4.86,7.36S889.08,767.63,888.49,763.27ZM869.4,1104.83c-.92-.95-2.42-3.74-4.43-4.24-3.51-.88-6.39,1.88-5.89,4.85.44,2.68.51,6.31,4.56,5.73C866.21,1110.8,869.41,1110.7,869.4,1104.83Zm56.21-321c-1.12,1.07-3.86,2.46-4.52,4.57-1,3.34,1.74,6.91,4.36,6.49s6.06-.32,5.74-4.52C931,787.71,930.9,784.39,925.61,783.86ZM942.3,973.37c-.87-2.35-.38-5.94-4.47-5.87-3.79.06-6.34,2.14-5.81,5.21.46,2.69.6,6.28,4.66,5.6C939.26,977.88,942.47,977.77,942.3,973.37Zm308.19-49.24c-.85-2.34-.44-5.89-4.56-5.73-3.86.16-6.24,2.18-5.69,5.32.48,2.72.72,6.24,4.77,5.48C1247.59,928.72,1250.79,928.58,1250.49,924.13Zm-86.07,362.72c0-4.21-2-7.68-4.7-7.43s-5.43.76-4.87,4.46c.43,2.82.05,6.87,4.25,6.93C1161.39,1290.85,1164.4,1290.7,1164.42,1286.85Zm-40.33-440.18c-1-1.1-2.37-3.95-4.38-4.58-3.3-1-6.54,1.83-6.1,4.65.42,2.66.36,6.34,4.39,5.94C1120.57,852.43,1123.72,852.31,1124.09,846.67Zm-451.94,207c1-1,3.76-2.49,4.36-4.61,1-3.45-1.75-6.85-4.43-6.39s-6,.37-5.66,4.6C666.66,1050,666.77,1053.29,672.15,1053.69Zm311,237.16c-1,1-3.68,2.51-4.23,4.62-.92,3.55,1.77,6.79,4.51,6.31,2.55-.45,6-.44,5.59-4.68C988.7,1294.4,988.6,1291.07,983.12,1290.85ZM1239,1043.6c1.08-1,3.82-2.46,4.45-4.58,1-3.39-1.75-6.9-4.39-6.45s-6.06.34-5.71,4.56C1233.54,1039.84,1233.65,1043.13,1239,1043.6Zm-429.22,270c1-1,3.76-2.48,4.36-4.59,1-3.46-1.75-6.86-4.43-6.4s-6,.37-5.67,4.6C804.26,1309.92,804.36,1313.23,809.75,1313.61ZM1051,980.52c-.86-2.34-.41-5.91-4.51-5.8-3.82.1-6.29,2.16-5.76,5.26.47,2.71.65,6.26,4.72,5.55C1048,985.08,1051.22,984.94,1051,980.52ZM627.42,1135.79c-1-1.09-2.54-4-4.5-4.37s-5.82-.54-6,3.75c-.16,3.5,2,6.77,4.56,6.54S627.06,1141.32,627.42,1135.79ZM875.48,1406c-2.55-3.37-3.83-6.47-6-7.49a3.52,3.52,0,0,0-4.89,4c.36,2.81.09,6.85,4.36,6.67C870.75,1409.1,872.49,1407.54,875.48,1406Zm377.89-191.32c-3.21,2.78-6.16,4.18-7.08,6.48-.86,2.13.48,5.56,3.94,5,2.39-.4,6.18.27,6.23-3.77C1256.49,1220.3,1254.83,1218.17,1253.37,1214.72Zm-591.32-48.4c5.12-.2,7.72-2.37,7.28-5.24-.36-2.38-1-4.68-4.18-4.42-3.85.32-6.42,2.27-5.74,5.17C659.85,1163.68,661.39,1165.25,662.05,1166.32Zm38.21,129.53c-1.66,1.83-4.22,3.42-4.74,5.56-.61,2.46.7,5.5,4.24,4.78,2.5-.52,6-.33,5.8-4.53C705.45,1298.9,704.64,1296.32,700.26,1295.85Zm367.55,166.21c-.48-3.07-1-5.85-4.57-5.06-2.54.56-5.88.64-5.62,4.73.17,2.71,1,5.51,4.51,4.65C1064.59,1465.78,1067.89,1465.92,1067.81,1462.06Zm208.56-702.79c-2.4.62-5.58.47-5.15,4.24.29,2.67.58,6.18,4.13,6.42,2.5.17,5.35-.65,4.87-4.29C1279.88,763.1,1280.3,759.58,1276.37,759.27ZM796,1119.56c-.72,1-2.84,2.59-2.88,4.26-.08,2.54,0,6.25,4,6.15,2.57-.07,5.28-.8,4.76-4.52C801.52,1122.7,801.21,1119.54,796,1119.56Zm325.11,138.51c-.89-.83-2.47-3.3-4.55-3.93a3.35,3.35,0,0,0-4.37,3.89c.38,2.63.18,6.24,4.08,6.24C1118.87,1264.26,1121.4,1263.53,1121.14,1258.07Zm-56-214.58c-2.78,2.81-5.29,4.27-6,6.41a3.76,3.76,0,0,0,3.36,5.07c3.37.22,6.81-2.1,6.26-4.68C1068.34,1048.34,1066.9,1046.64,1065.19,1043.49Zm46.86,33.58c-2.66-2.92-4.06-5.55-6.11-6.35-1.74-.68-4.61.15-4.82,3.52-.21,3.55,2,7.15,4.46,6.57C1107.43,1080.37,1109.05,1078.86,1112.05,1077.07Zm125.55,76.24c-2-3.15-1.2-7.13-5.38-6.69-2.64.28-5.15,1.2-4.44,4.84.53,2.73.91,6.25,4.8,5.38C1234.33,1156.44,1235.79,1154.64,1237.6,1153.31ZM1016.16,733.43c2.64-2.92,5.18-4.5,5.69-6.61.59-2.46-.75-5.43-4.25-4.78-2.6.49-6,.81-5.31,4.89C1012.6,728.79,1014.29,730.39,1016.16,733.43ZM738.68,1023.74c-2.63.55-5.43.91-4.89,4.64.4,2.73.6,6.16,4.52,5.81,2.23-.2,4.87-.74,4.4-4.13C742.34,1027.38,742.35,1024.12,738.68,1023.74Zm185.08,182.88c2.68-.54,5.37-1.08,4.73-4.78-.48-2.73-.75-6.12-4.68-5.64-2.27.29-4.82.94-4.24,4.3C920,1203.16,920,1206.49,923.76,1206.62Zm131.85,72.68c-1.36-3.59-.86-7.34-4.91-7-2.61.19-5.21,1.06-4.55,4.73.49,2.73.82,6.27,4.71,5.49C1052.62,1282.13,1054.12,1280.35,1055.61,1279.3Zm-338.73,98.22c2.75-2.83,5.24-4.32,6-6.46a3.72,3.72,0,0,0-3.41-5c-3.43-.17-6.78,2.12-6.21,4.73C713.66,1372.71,715.13,1374.39,716.88,1377.52ZM1007,1366.58c-.55-2.83-1.19-5.54-4.68-4.8-2.61.56-5.81.91-5.23,5,.33,2.4,1,5,4.21,4.3C1003.84,1370.58,1007,1370.62,1007,1366.58Zm35.33,20.13c-.72,1-2.83,2.6-2.88,4.27-.08,2.54,0,6.24,4,6.14,2.57-.06,5.28-.8,4.76-4.51C1047.82,1389.86,1047.51,1386.7,1042.33,1386.71Zm9.56-515c2.11-.78,5.14-.84,4.57-4.65-.4-2.72-.56-6.18-4.48-5.85-2.22.18-4.9.68-4.43,4.07C1047.91,867.92,1047.85,871.2,1051.89,871.68ZM812.48,901.49c.76-1,2.92-2.57,3-4.24.12-2.55,0-6.23-3.93-6.21-2.55,0-5.31.71-4.84,4.42C807.06,898.21,807.36,901.37,812.48,901.49Zm207.89,527.6c-2.61,2.9-5.16,4.49-5.67,6.62-.59,2.44.75,5.42,4.26,4.76,2.6-.49,6-.81,5.3-4.89C1023.94,1433.72,1022.25,1432.13,1020.37,1429.09Zm79.82-647c2.28-.83,5.69-.67,5.33-4.82-.21-2.34-.71-5.16-3.93-4.6-2.5.43-6,.19-5.89,4.34C1095.74,779.68,1096.47,782.3,1100.19,782.05ZM994.25,775.8c.71-1,2.81-2.61,2.86-4.29.06-2.54-.06-6.25-4-6.12-2.57.09-5.27.84-4.73,4.55C988.74,772.69,989.06,775.85,994.25,775.8ZM924.19,902c-1-1-2.31-3.39-3.91-3.59-2.45-.3-5.92,0-6.18,3.82-.18,2.58.37,5.66,3.9,5.39C920.63,907.43,923.59,907.09,924.19,902Zm68-15.67c-2.53-3.07-3.8-6-5.79-6.68a3.63,3.63,0,0,0-5,4c.26,2.71.42,6.31,4.24,6.05C987.51,889.6,989.22,888,992.23,886.34ZM746.94,1327.43c-.79-2.4-.64-6-4.6-5.59-2.22.22-4.91.74-4.38,4.12.41,2.63.18,6.25,4.14,6.18C744.68,1332.09,747.18,1331.33,746.94,1327.43ZM736.38,1145c-1.36-3.59-.86-7.34-4.91-7-2.61.19-5.21,1-4.55,4.73.49,2.73.83,6.27,4.71,5.5C733.39,1147.84,734.89,1146.05,736.38,1145Zm491.86-297.87c-2.67,2.89-5.24,4.43-5.77,6.54-.61,2.43.69,5.45,4.2,4.84,2.6-.46,6-.76,5.36-4.83C1231.74,851.82,1230.08,850.19,1228.24,847.13Zm83.83,52.47c-2.73.57-5.22,1.37-4.48,5,.55,2.74.93,6,4.88,5.39,2.32-.39,4.68-1.19,4-4.5C1315.93,902.81,1316,899.45,1312.07,899.6ZM767.59,985.09c-.64-2.36-1.05-5.29-4.61-4.56-2.6.54-5.82.84-5.32,5,.3,2.38,1,5,4.14,4.38C764.34,989.38,767.52,989.43,767.59,985.09Zm261.73-81.56c-2.93,2.65-5.68,4-6.37,6.08s.27,5.59,3.82,5.23c2.58-.27,6-.43,5.76-4.45C1032.42,908.49,1030.86,906.69,1029.32,903.53ZM1074,1240.3c2.63-2.9,5.18-4.48,5.7-6.61.59-2.44-.76-5.42-4.26-4.77-2.61.49-6,.82-5.31,4.89C1070.39,1235.66,1072.08,1237.27,1074,1240.3Zm-278-3.92c-.93-.72-2.49-2.9-4.09-2.94-2.42,0-6,.07-5.8,4.27.11,2.71.84,5.52,4.37,4.93C793.09,1242.2,796.11,1241.87,796,1236.38Zm120.41,84.38c2.6-.55,5.58-.62,5.22-4.37-.27-2.71-.4-6.21-4.25-6.1-2.17.06-5,.43-4.67,3.82C912.92,1316.83,913,1320,916.4,1320.76ZM870.16,997.23c2.67-.57,5.33-1.15,4.66-4.84-.49-2.73-.79-6.11-4.73-5.58-2.27.31-4.78,1-4.18,4.35C866.4,993.82,866.35,997.16,870.16,997.23ZM1009.45,836c-.89,1-3.31,2.56-4,4.72-.58,1.91.34,5.12,3.57,4.74,2.54-.3,5.94-.15,6.09-4.12C1015.24,838.7,1014.58,836,1009.45,836Zm81.66,473.64c2.76-2.82,5.26-4.3,6-6.45a3.73,3.73,0,0,0-3.39-5c-3.41-.2-6.79,2.1-6.22,4.7C1087.93,1304.82,1089.38,1306.51,1091.11,1309.65Zm220.36-289.13c-2.57-3-3.88-5.87-5.88-6.56a3.63,3.63,0,0,0-4.9,4.1c.28,2.72.48,6.29,4.31,6C1306.8,1023.86,1308.48,1022.2,1311.47,1020.52Zm-151.94-34.64c-1-1-2.31-3.5-3.89-3.71-2.45-.32-5.91,0-6.25,3.76-.22,2.56.31,5.67,3.84,5.46C1155.87,991.23,1158.8,990.86,1159.53,985.88Zm16.75,70.24c-.92-.92-2.43-3.46-4.5-4.17a3.39,3.39,0,0,0-4.52,3.74c.28,2.67.14,6.23,3.93,6.4C1173.71,1062.19,1176.3,1061.5,1176.28,1056.12Zm-117.61,112.57c.8-1,3-2.54,3.1-4.22.16-2.55,0-6.22-3.86-6.27-2.52,0-5.33.62-4.9,4.35C1053.32,1165.3,1053.61,1168.45,1058.67,1168.69Zm-84.75-63c-2.77,2.79-5.42,4.26-6,6.36-.66,2.35.51,5.52,4.05,5,2.59-.39,6-.61,5.52-4.68C977.26,1110.45,975.64,1108.75,973.92,1105.65Zm217.88-276c-2.64-2.89-4-5.67-6.07-6.31-2.23-.7-5.25.53-4.75,4.25.37,2.72.58,6.31,4.46,5.8C1187.23,833.15,1188.84,831.45,1191.8,829.65Zm63.83,273.57c-.84,1-3.22,2.58-3.84,4.74-.55,2,.42,5.12,3.64,4.67,2.53-.35,6-.17,6-4.21C1261.49,1105.75,1260.8,1103.07,1255.63,1103.22Zm78.85-128c-.54-2.83-1.18-5.54-4.67-4.8-2.61.55-5.81.89-5.24,5,.33,2.4,1,5,4.21,4.31C1331.31,979.24,1334.5,979.28,1334.48,975.24ZM1135.87,924c2.64-2.91,5.18-4.49,5.69-6.6.59-2.46-.75-5.43-4.26-4.77-2.59.49-6,.8-5.3,4.88C1132.31,919.41,1134,921,1135.87,924ZM857.81,1214.4c-2.35.63-5,1.22-4.3,4.9.53,2.74.85,6.1,4.8,5.5,2.28-.35,4.75-1.07,4.1-4.42C861.9,1217.72,861.94,1214.37,857.81,1214.4Zm-97.11-115c-.54-2.84-1.19-5.53-4.68-4.79-2.61.55-5.8.9-5.23,5,.33,2.41,1,5,4.22,4.3C757.54,1103.43,760.73,1103.46,760.7,1099.42Zm409.87,69.94c-1-1-2.28-3.55-3.88-3.79-2.45-.37-5.91-.07-6.29,3.7-.26,2.55.27,5.67,3.78,5.52C1166.83,1174.66,1169.74,1174.26,1170.57,1169.36Zm-56.86-202.84c.79-1,3-2.53,3.1-4.21.16-2.55,0-6.23-3.86-6.28-2.52,0-5.32.62-4.9,4.35C1108.36,963.13,1108.65,966.28,1113.71,966.52Zm-153.48,76.74c-.53-2.81-1-5.63-4.56-5-2.6.5-5.83.78-5.37,4.91.27,2.38.89,5,4.09,4.45C956.93,1047.18,960.1,1047.23,960.23,1043.26ZM778.39,1167.83c-1-1-2.3-3.49-3.89-3.7-2.45-.33-5.92-.05-6.25,3.75-.23,2.56.31,5.67,3.84,5.46C774.73,1173.18,777.66,1172.82,778.39,1167.83Zm80.12-364.76c-.92,1-3.26,2.43-3.45,4.11-.29,2.57,0,6.2,3.64,6.5,2.45.21,5.39-.37,5.14-4.08C863.65,806.84,863.33,803.73,858.51,803.07Zm24.15,368c-2.3.83-5.69.71-5.29,4.86.22,2.35.76,5.14,4,4.56,2.5-.45,6-.21,5.85-4.39C887.11,1173.39,886.36,1170.79,882.66,1171.08ZM851.2,1034.66c-1-.89-2.38-3.25-4-3.39-2.44-.22-5.92,0-6.07,4-.1,2.61.48,5.63,4,5.26C847.83,1040.2,850.81,1039.88,851.2,1034.66Zm272.22-306.41c-.68,1-2.77,2.61-2.8,4.29,0,2.53.07,6.26,4.07,6.09,2.59-.12,5.26-.89,4.7-4.59C1129,731.28,1128.65,728.12,1123.42,728.25ZM1185,944.17c-2.68-2.9-4.1-5.52-6.15-6.3-1.74-.67-4.61.17-4.78,3.55-.18,3.59,2,7.14,4.48,6.54C1180.38,947.51,1182,946,1185,944.17ZM905,1244.28c-1-1-2.33-3.43-3.92-3.62-2.45-.3-5.91,0-6.19,3.82-.19,2.57.35,5.66,3.89,5.39C901.36,1249.68,904.32,1249.35,905,1244.28ZM832.3,1378.54c-.54-2.77-.83-5.76-4.39-5.21-2.6.4-5.89.59-5.58,4.7.18,2.33.66,5.14,3.89,4.65C828.76,1382.3,831.89,1382.35,832.3,1378.54Zm103.59-289.89c-1.36-3.6-.89-7.34-4.95-7-2.62.22-5.19,1.11-4.51,4.77.51,2.74.88,6.27,4.76,5.45C932.94,1091.5,934.43,1089.7,935.89,1088.65ZM996.1,1063c-.93,1-3.26,2.44-3.44,4.11-.29,2.57,0,6.2,3.63,6.5,2.46.2,5.39-.38,5.15-4.08C1001.25,1066.77,1000.93,1063.67,996.1,1063ZM984,1411.49c-2.7-2.85-4.14-5.59-6.15-6.18-2.27-.67-5.22.63-4.68,4.33.4,2.72.64,6.3,4.53,5.71C979.52,1415.09,981.1,1413.36,984,1411.49ZM1317.55,787c-.83.95-3.21,2.57-3.84,4.75-.56,1.94.42,5.11,3.64,4.66,2.53-.35,6-.17,6-4.21C1323.41,789.49,1322.72,786.81,1317.55,787ZM720.23,963.56c2.49-.69,4.95-1.57,4.06-5.17-.53-2.11-.2-5.41-3.57-5-2.32.25-5.45.51-5.12,4.27C715.85,960.44,716.28,963.55,720.23,963.56ZM979,700.51c-.76-2.25-.58-5.61-4.4-4.84-2.37.48-5.45.58-4.79,4.5.42,2.47.61,5.69,4.3,5.1C976.57,704.87,979.21,704.3,979,700.51Zm101.1,425.79c2.81-2.88,5.28-4.36,6-6.5.63-1.84-.19-5.1-3.35-4.91-2.62.15-5.94.37-5.82,4.28C1077,1121.06,1078.52,1122.9,1080.09,1126.3ZM1063.78,754c-1.15-3.72-1-7.26-4.9-6.92-2.2.19-4.87.65-4.45,4,.35,2.73.57,6.25,4.41,5.76C1060.62,756.63,1062.23,755,1063.78,754ZM809.19,1012.19c-1.17-3.8-1.26-7.21-5.2-6.6-2.26.35-4.72,1-4.11,4.36.51,2.74.88,6.21,4.74,5.37C806.36,1015,807.82,1013.17,809.19,1012.19ZM840.3,851.57c-1-1-2.28-3.47-3.86-3.68-2.49-.34-5.81.19-5.85,4.11,0,2.24.31,5.17,3.48,5C836.71,856.9,839.6,856.54,840.3,851.57Zm367.32-61.91c3.55-1.21,6.92-1,6.6-5.15-.18-2.3-.62-5.1-3.82-4.66-2.6.36-6,.59-5.48,4.62C1205.14,786.34,1206.73,788,1207.62,789.66Zm126.84,76.91c3.17-1.8,6.76-1.33,6.35-5.56-.22-2.31-.66-5.09-3.86-4.62-2.6.38-6,.62-5.44,4.66C1331.74,862.91,1333.35,864.59,1334.46,866.57Zm49.72,22c-1-3.7-1.33-6.77-4.91-6.13-2.38.43-5.37.71-5.13,4.41.16,2.48,1,5.06,4.13,4.38C1380.36,890.73,1382.29,889.41,1384.18,888.53ZM955.35,747.06c-1.3-3.42-1.14-6.65-4.83-6.34-2.41.2-4.8.93-4.48,4.16.24,2.52.46,5.86,4.1,5.22C952,749.78,953.6,748.13,955.35,747.06Zm74.42-133.82c-2.84-2.35-4.33-4.55-6-4.75-2.43-.27-5.21.82-4.64,4.56.38,2.44,1.13,5.1,4.27,4.17C1025.21,616.68,1026.77,615.16,1029.77,613.24Zm-394,410.12c-2.44-2.58-3.7-5.06-5.36-5.4-2.43-.49-5.25.64-4.9,4.3.23,2.36.84,5.23,4,4.65C631.27,1026.57,632.9,1025,635.74,1023.36Zm398.65-233.44c-2.24,2.71-4.36,4.14-4.6,5.85-.35,2.49.54,5.43,4.07,5,2.32-.3,4.8-1.18,4.22-4.27C1037.72,794.59,1036.15,793,1034.39,789.92ZM1143.13,797c-2.06,3-4,4.5-4.19,6.29-.27,2.15.47,5,3.69,4.64,2.54-.27,5.35-.93,4.54-4.54C1146.76,801.56,1145.08,800,1143.13,797ZM1263.44,987.8c-2.28,2.59-4.42,3.94-4.79,5.71-.43,2,.12,5.09,3.26,5,2.47,0,5.45-.45,5-4.09C1266.68,992.55,1265.08,990.82,1263.44,987.8Zm-5.68-176.32c-2.52-2.46-3.85-4.82-5.49-5.1-2.34-.39-5.2.6-4.76,4.27.28,2.31.78,5.17,3.93,4.46C1253.28,814.69,1254.89,813.18,1257.76,811.48ZM785.47,1055.06c-2.72-2.23-4.16-4.29-5.86-4.57-2-.32-4.78.38-4.53,3.75.2,2.65.76,5.66,4.22,4.9C781.09,1058.75,782.61,1057,785.47,1055.06Zm297.6-233c-2.73-2.27-4.17-4.42-5.82-4.62-2.48-.3-5.06.94-4.51,4.56.37,2.43,1.29,5,4.26,4.13C1078.77,825.67,1080.25,824.06,1083.07,822.1ZM907.84,834c-2.56-2.38-3.89-4.63-5.53-4.9-2.37-.4-5.17.51-4.78,4.22.26,2.44,1.09,5.06,4,4.48C903.36,837.43,905,835.8,907.84,834Zm386.34-5.58c-2.15,2.88-4.18,4.4-4.36,6.14-.28,2.61.92,5.31,4.35,4.71,2.32-.4,4.72-1.38,3.91-4.5C1297.6,832.91,1296.06,831.36,1294.18,828.4ZM914,1010.52c-2.56,2.45-4.93,3.65-5.33,5.35-.57,2.47.38,5.49,3.73,5.38,2.19-.07,4.92-.69,4.56-3.89C916.75,1015.41,915.39,1013.61,914,1010.52Zm35.59-150.16c-2.63-2.37-4-4.65-5.69-4.89-2.38-.33-5.14.77-4.6,4.43.34,2.34,1,5.12,4.07,4.29C945.18,863.72,946.73,862.18,949.59,860.36Zm216.9,13.21c-2.47-2.41-3.76-4.65-5.44-5-1.94-.44-4.84.13-4.81,3.43,0,2.59.43,5.73,3.9,5.26C1162,877,1163.61,875.29,1166.49,873.57ZM1269,886.38c2.32-2.71,4.51-4.11,4.76-5.83.38-2.53-.68-5.4-4.12-5-2.27.28-4.82,1.09-4.17,4.27C1265.84,881.73,1267.3,883.38,1269,886.38ZM1031.79,1322c-2.8-2.15-4.28-4.15-6-4.39-2-.29-4.76.49-4.43,3.87.27,2.67.89,5.63,4.33,4.78C1027.48,1325.86,1029,1324.09,1031.79,1322Zm68.73-430.56c-2.68-2.27-4.09-4.41-5.74-4.64-2.43-.33-5.13.71-4.61,4.4.35,2.44,1.24,5,4.18,4.29C1096.14,895.09,1097.65,893.42,1100.52,891.48Zm109,8.12c-2.34-2.68-3.48-5.16-5.1-5.57-2.36-.59-5.22.42-5.12,3.93.07,2.3.67,5.16,3.72,4.77C1204.86,902.49,1206.58,901.07,1209.51,899.6ZM857,1333.77c-2.72-2.23-4.16-4.29-5.86-4.57-2-.33-4.78.38-4.53,3.75.21,2.65.76,5.66,4.22,4.91C852.64,1337.47,854.16,1335.73,857,1333.77Zm30.19-265.56c2.58-2.41,5-3.59,5.37-5.29.58-2.46-.35-5.49-3.7-5.41-2.19,0-4.92.67-4.59,3.87C884.5,1063.32,885.84,1065.14,887.21,1068.21Zm71.63,278.34c2.3-2.58,4.45-3.92,4.82-5.68.43-2-.11-5.09-3.25-5.06-2.47,0-5.46.43-5,4.07C955.6,1341.8,957.21,1343.53,958.84,1346.55Zm320.4-276.83c2.42-2.53,4.87-3.94,5-5.53s-1.74-4.61-3.22-5c-2.12-.57-5.43,0-5,3.8C1276.24,1064.92,1277.73,1066.69,1279.24,1069.72Zm-204.51,278.59c-2.5-2.51-3.78-4.88-5.4-5.19-2.38-.44-5.19.61-4.87,4.21.21,2.35.9,5.11,4,4.5C1070.24,1351.47,1071.85,1350,1074.73,1348.31Zm-290.23,9.91c2.14-2.81,4.12-4.3,4.41-6.09.34-2.1-.32-5-3.53-4.79-2.52.19-5.4.75-4.72,4.38C781,1353.61,782.66,1355.22,784.5,1358.22Zm303.28-359c-2.13,2.85-4.13,4.36-4.33,6.09-.29,2.56.74,5.36,4.25,4.78,2.34-.39,4.75-1.36,4-4.44C1091.28,1003.82,1089.68,1002.26,1087.78,999.26Zm-477.25,68c-2.35-2.48-3.67-5-5.21-5.18s-4.38,1.73-4.79,3.28c-.62,2.31.14,5.66,3.58,5.34C605.94,1070.56,607.65,1068.91,610.53,1067.29Zm211.31,19.37c2.26-2.69,4.4-4.08,4.66-5.8.38-2.49-.49-5.43-4-5-2.32.27-4.82,1.14-4.27,4.22C818.55,1082,820.11,1083.62,821.84,1086.66Zm-119.93-81.89c-2.63-2.38-4-4.66-5.68-4.89-2.38-.33-5.15.77-4.61,4.43.35,2.34,1,5.12,4.08,4.29C697.51,1008.12,699.06,1006.59,701.91,1004.77Zm513,70.66c-2.36,2.64-4.59,4-4.88,5.73-.42,2.5.6,5.42,4,5.06,2.25-.24,4.86-1,4.26-4.19C1217.94,1080.13,1216.5,1078.45,1214.88,1075.43ZM829.12,972.65c2.09-2.87,4-4.38,4.27-6.15.33-2.22-.55-5-3.63-4.77-2.55.17-5.33,1-4.63,4.52C825.5,968.1,827.19,969.66,829.12,972.65Zm275.45,217.17c-2.46-2.39-3.75-4.64-5.44-5-1.94-.45-4.84.13-4.81,3.43,0,2.59.43,5.72,3.9,5.25C1100.05,1193.22,1101.7,1191.54,1104.57,1189.82Zm-59.06-96.33c-2.74-2.19-4.18-4.2-5.87-4.48-2.11-.35-4.74.58-4.54,3.81.17,2.68.94,5.6,4.31,4.85C1041.17,1097.29,1042.66,1095.52,1045.51,1093.49Zm108.56,8.06c-2.4-2.56-3.61-5-5.22-5.31-2.3-.5-5.5.33-4.91,3.93.29,1.81,2.18,4.27,3.74,4.64S1151.13,1103.16,1154.07,1101.55Zm-212.69,284.1c-2.79-2.22-4.28-4.35-6-4.51-2.47-.25-5,1-4.36,4.66.44,2.43,1.24,5,4.27,4C937.11,1389.24,938.58,1387.64,941.38,1385.65Zm453.71-422.38c2.5-3,4.8-4.52,4.84-6.12,0-1.8-2-3.66-3-5.49-1.69,1.21-4.52,2.2-4.77,3.68C1391.78,957.23,1393.55,959.51,1395.09,963.27ZM689.66,1112c-2.29,2.6-4.43,4-4.79,5.71-.43,2,.11,5.09,3.26,5,2.47,0,5.46-.45,5-4.09C692.9,1116.75,691.3,1115,689.66,1112Zm315.42-163.58c-2.46,2.48-4.94,3.85-5.08,5.44s1.67,4.66,3.15,5.07c2.09.59,5.43,0,5.06-3.73C1008,953.25,1006.54,951.46,1005.08,948.41Zm190.82,179c-2.66-2.35-4.07-4.61-5.73-4.83-2.39-.31-5.13.82-4.57,4.48.36,2.35,1,5.1,4.11,4.24C1191.51,1130.85,1193.05,1129.29,1195.9,1127.45Zm-283.84,4.14c-2.72-2.22-4.16-4.28-5.86-4.56-2-.33-4.78.38-4.53,3.75.2,2.65.76,5.66,4.22,4.9C907.68,1135.29,909.2,1133.55,912.06,1131.59Zm102.37,13.28c2.31-2.7,4.5-4.11,4.76-5.83.38-2.53-.69-5.4-4.13-5-2.27.28-4.82,1.09-4.17,4.27C1011.28,1140.23,1012.75,1141.87,1014.43,1144.87ZM761.21,1390.7c-2.29,2.6-4.43,4-4.79,5.71-.43,2,.12,5.09,3.26,5,2.47,0,5.45-.46,5-4.09C764.45,1395.45,762.85,1393.72,761.21,1390.7ZM901.37,948.24c-2.53-2.49-3.82-4.83-5.46-5.13-2.39-.43-5.17.64-4.82,4.24.22,2.36.94,5.1,4,4.47C896.89,951.45,898.49,949.93,901.37,948.24Zm-62.24,207.69c2.3-2.58,4.45-3.92,4.82-5.68.43-2-.11-5.09-3.25-5.07-2.46,0-5.45.44-5,4.08C835.9,1151.17,837.5,1152.91,839.13,1155.93Zm115.78,2.26c-2.26-2.71-3.36-5.23-5-5.67-2.33-.62-5.24.32-5.2,3.83,0,2.3.6,5.18,3.63,4.87C950.23,1161,952,1159.61,954.91,1158.19Zm29.93-158.93c-2.44-2.43-3.82-4.92-5.35-5s-4.32,1.84-4.7,3.39c-.58,2.33.22,5.66,3.68,5.23C980.3,1002.63,982,1001,984.84,999.26ZM787.1,934.41c-2.4,2.53-4.67,3.82-5,5.51-.45,2.42.3,5.48,3.82,5.24,2.31-.15,4.87-.95,4.49-4C790.19,939.22,788.68,937.47,787.1,934.41Zm349.46,98.11c-2.3-2.7-3.43-5.21-5-5.63-2.35-.61-5.23.37-5.16,3.88.05,2.3.64,5.17,3.69,4.82C1131.9,1035.37,1133.63,1034,1136.56,1032.52ZM1070.63,930c-2.22,2.69-4.29,4.11-4.62,5.89-.38,2.06.2,5.06,3.39,4.92,2.5-.11,5.42-.61,4.87-4.23C1074,934.67,1072.36,933,1070.63,930Zm288.54,1.15c-2.57-2.33-3.92-4.51-5.6-4.84-2-.4-4.83.21-4.7,3.56.11,2.62.58,5.69,4,5.11C1354.71,934.67,1356.31,933,1359.17,931.14Zm-138.49,43c2.14-2.82,4.13-4.31,4.41-6.09.34-2.11-.32-5-3.53-4.79-2.52.19-5.4.74-4.72,4.38C1217.2,969.48,1218.84,971.09,1220.68,974.1ZM700.43,1416.5c-2.38-2.64-3.56-5.1-5.2-5.49-2.35-.56-5.2.46-5.05,4,.11,2.31.73,5.14,3.79,4.7C695.81,1419.44,697.5,1418,700.43,1416.5Zm113.82-215.45c2.58-2.37,5-3.53,5.4-5.23.6-2.44-.3-5.49-3.65-5.45-2.19,0-4.93.63-4.63,3.82C811.55,1196.14,812.9,1198,814.25,1201.05Zm-58.82,13.37c-2.32-2.68-3.46-5.17-5.08-5.58-2.36-.6-5.23.4-5.13,3.91.06,2.3.66,5.17,3.71,4.79C750.78,1217.31,752.5,1215.89,755.43,1214.42Zm385.63,6.53c2.27-2.68,4.41-4.07,4.67-5.79.38-2.49-.49-5.43-4-5-2.32.27-4.82,1.14-4.27,4.22C1137.77,1216.26,1139.33,1217.92,1141.06,1221Zm-173.85-1.11c-2.38,2.65-4.61,4-4.89,5.72-.42,2.51.61,5.43,4,5.07,2.25-.24,4.86-1,4.26-4.19C970.26,1224.54,968.82,1222.86,967.21,1219.84Zm40.34,39.11c2.32-2.7,4.51-4.11,4.76-5.83.38-2.52-.69-5.39-4.12-5-2.27.28-4.82,1.09-4.17,4.27C1004.4,1254.31,1005.87,1256,1007.55,1259Zm-277.1-2c-2.83-2.13-4.33-4.1-6-4.32-2-.27-4.74.52-4.38,3.9.28,2.68.93,5.62,4.36,4.73C726.17,1260.85,727.63,1259.08,730.45,1257ZM853,915.61c-2.33,2.6-4.54,3.94-4.83,5.65-.41,2.45.42,5.44,3.93,5.13,2.32-.21,4.84-1,4.38-4.12C856.18,920.35,854.64,918.65,853,915.61ZM1046.77,683c-2.45-2.41-3.73-4.67-5.41-5.07-1.94-.46-4.85.12-4.83,3.41,0,2.59.41,5.73,3.88,5.27C1042.24,686.36,1043.89,684.68,1046.77,683ZM766.6,1288.79c2.34-2.59,4.56-3.93,4.86-5.63.43-2.45-.39-5.44-3.9-5.15-2.31.19-4.84,1-4.4,4.1C763.43,1284,765,1285.74,766.6,1288.79ZM1082.86,714c2.44-2.51,4.74-3.77,5.07-5.47.48-2.41-.31-5.77-3.74-5.16-1.72.31-4.07,2.29-4.42,3.93S1081.33,710.93,1082.86,714ZM875.3,1296c2.35-2.59,4.56-3.92,4.86-5.63.43-2.45-.39-5.45-3.89-5.15-2.32.19-4.85,1-4.41,4.1C872.13,1291.24,873.67,1293,875.3,1296Zm298.14-537.39c-2.66-2.26-4.08-4.41-5.73-4.64-2.42-.33-5.13.71-4.61,4.4.35,2.45,1.23,5,4.18,4.29C1169.06,762.23,1170.58,760.56,1173.44,758.62ZM706.33,1194.29c2.13-3.25,4-4.88,4.18-6.69.22-2.32-.92-4.89-4.09-4.31-2.08.38-4.38,1.17-3.76,4C703.09,1189.21,704.49,1190.89,706.33,1194.29Zm127.12,63.23c-2.09,3.24-4,4.92-4,6.66,0,1.45,1.9,3.92,3.31,4.24,2.2.49,4.9-.73,4.48-3.85C837,1262.66,835.35,1260.94,833.45,1257.52ZM1207.18,1203c2.13-3.26,4-4.89,4.18-6.7.22-2.31-.91-4.89-4.09-4.31-2.08.38-4.38,1.17-3.75,4C1203.94,1197.88,1205.35,1199.56,1207.18,1203ZM648.1,1085.24c-2.32,3.12-4.33,4.65-4.56,6.44-.28,2.22.76,5.23,3.86,4.43,1.57-.41,3.74-2.32,3.87-3.73C651.43,1090.63,649.75,1088.7,648.1,1085.24Zm645.26-135.52c-3-2.36-4.48-4.46-6.12-4.58-1.41-.11-3.89,1.82-4.24,3.28-.53,2.25.5,5.18,3.48,4.89C1288.33,953.14,1290,951.53,1293.36,949.72ZM967.1,929.92c-2.63-2.44-4-4.68-5.67-4.94-1.26-.2-3.81,1.9-4.12,3.37-.45,2.07.06,5.34,3.19,5.11C962.32,933.33,964.05,931.63,967.1,929.92Zm156.46,222c2.12-3.07,4-4.64,4.23-6.41.24-2.44-1.25-5-4.19-4.06-1.58.52-3.77,2.46-3.81,3.81C1119.75,1146.93,1121.63,1148.69,1123.56,1151.88Zm-247.1-267.3c2.48-2.7,4.68-4,5-5.77.48-2.3-.76-5.14-3.73-4.62-1.65.29-4.09,2-4.29,3.39C873.24,879.28,875,881.29,876.46,884.58Zm66.11,380.26c-2.2,3-4.23,4.5-4.38,6.25-.12,1.33,2,3.83,3.38,4.11,2,.41,5.09-.2,4.67-3.55C946,1269.75,944.36,1268,942.57,1264.84Zm25.74-456.31c-2.23,2.91-4.26,4.4-4.52,6.17-.34,2.39,1.05,5.07,4,4.26,1.61-.44,3.91-2.29,4-3.65C971.93,813.6,970.1,811.75,968.31,808.53ZM719.53,1074.07c-2.87-2.42-4.32-4.57-6-4.75-1.4-.15-3.94,1.72-4.32,3.17-.6,2.24.39,5.19,3.36,5C714.45,1077.37,716.21,1075.78,719.53,1074.07Zm483.49-61c-3.07-2.31-4.59-4.32-6.3-4.52-2.18-.26-4.94,1-4.07,4.19.44,1.62,2.34,3.81,3.68,3.9C1198,1016.77,1199.76,1015,1203,1013.1ZM899.63,1360.16c-2.51-2.64-3.73-5-5.39-5.4-2.17-.53-4.92.72-4.48,3.85.25,1.73,1.86,4.32,3.18,4.55C894.56,1363.45,896.5,1361.68,899.63,1360.16Zm122.58-342.81c-2.24,3.19-4.19,4.76-4.39,6.55-.26,2.26.86,5.21,3.94,4.33,1.55-.45,3.67-2.41,3.77-3.82C1025.65,1022.66,1023.94,1020.78,1022.21,1017.35Zm16.64,190.39c-3.15-2.13-4.79-4.09-6.43-4.1-1.39,0-3.69,2.06-4,3.55-.44,2.33.76,5.12,3.74,4.61C1034,1211.5,1035.6,1209.8,1038.85,1207.74Zm589.57-340.61c-13.19,0-23,10.31-23,24.15,0,14.16,10,24.49,23.53,24.32,13.11-.17,22.75-10.6,22.65-24.52S1641.65,867.09,1628.42,867.13Zm-626-496.71c-13.2,0-23,10.34-23,24.21s9.85,24.15,23.06,24.14,23-10.33,23-24.2S1015.64,370.42,1002.42,370.42Zm80.52,1285.37c-12.81-.33-23.44,10.34-23.6,23.69s10.17,24.4,22.92,24.4c12.47,0,22.76-10.64,22.91-23.69S1095.33,1656.11,1082.94,1655.79Zm-544.47-33.16c-11.69.17-21.37,10.61-21.21,22.84s10.12,22.43,21.77,22.25,21.37-10.61,21.2-22.84S550.13,1622.45,538.47,1622.63Zm-246-585c.15,12.44,8.54,21.16,20.43,21.24,12.21.07,20.76-8.84,20.75-21.63s-8.57-21.69-20.78-21.6S292.34,1024.77,292.5,1037.59Zm61.69,2.56c-11.89.08-20.27,8.81-20.41,21.26-.15,12.83,8.27,21.89,20.42,22s20.76-8.83,20.76-21.62S366.39,1040.07,354.19,1040.15ZM770.36,677.52c-.05,12.12,8.86,21.42,20.42,21.31,11.24-.11,19.92-9.27,20-21.07,0-12.12-8.86-21.42-20.42-21.32C779.09,656.54,770.42,665.7,770.36,677.52ZM1034.12,438c2.21.57,4.42,1.16,6.64,1.7,9.09,2.18,18.65-2.9,22.58-12a21.4,21.4,0,0,0-7.22-26c-8-5.67-18.16-4.6-25.07,2.63a21.06,21.06,0,0,0-2.55,26.29c1.66,2.55,3.68,4.84,5.54,7.25ZM735.55,822.09c.45-2.35.85-4.71,1.35-7,2.08-9.74-2.77-19.79-11.45-23.65-9.05-4-19.39-.61-24.64,8.13a21.21,21.21,0,0,0,3.49,26.25,18.81,18.81,0,0,0,25.21,1.29c2-1.57,3.94-3.2,5.91-4.8ZM1165,588.76c-10.74-.15-20.32,9.88-20.21,21.16.11,11.06,9.27,20.69,19.82,20.85,10.74.15,20.32-9.87,20.21-21.16C1184.72,598.56,1175.56,588.91,1165,588.76Zm173.9,763.68c.31-11.12-9.2-21.34-19.93-21.39-10.42,0-19.73,9.5-20,20.56s9.22,21.34,19.93,21.39C1329.29,1373.05,1338.6,1363.49,1338.91,1352.44ZM401.29,1067.77A19.26,19.26,0,0,0,379,1079.94c-3.48,9.07-.5,19.51,7.08,24.82a19.18,19.18,0,0,0,25.12-2.75c6.53-7.13,7.22-18,1.64-26.45-1.16-1.77-2.42-3.48-3.63-5.21l-2.51-1.37C404.87,1068.58,403.09,1068.13,401.29,1067.77Zm717,412.37c.81,10.77,8.87,17.88,19.64,17.6s18.33-8.29,18.48-19.7-6.81-19.32-17.07-20.45c-7.53-.83-13.13,3-18.66,7.33-.74,1.73-1.49,3.45-2.23,5.18C1118.41,1473.45,1118.06,1476.82,1118.32,1480.14Zm341-711.29c-11.21,0-19,8.06-19,19.79-.07,12.08,7.83,20.31,19.37,20.17,11.14-.13,18.76-8.35,18.7-20.15S1470.5,768.86,1459.28,768.85ZM767,653.58c.19-12.17-7.62-20.54-19.13-20.52-11.24,0-19,8.12-19,19.9s7.61,20,18.79,20.15S766.8,665.28,767,653.58ZM419.31,1113.67c0,11.63,7.87,20,18.92,20s19-8.25,19.07-19.85-7.87-20-18.92-20S419.34,1102.08,419.31,1113.67ZM557,1373.57c-.05,11.38,7.59,19.72,18.3,20,11.18.27,19.38-7.85,19.57-19.39.18-11.71-7.63-20.23-18.66-20.36S557,1362,557,1373.57ZM1713.5,872.65c0-11.36-7.65-19.69-18.36-19.93-11.17-.26-19.35,7.9-19.51,19.45s7.67,20.19,18.71,20.29S1713.48,884.27,1713.5,872.65ZM1188.6,635.51c-.1,11.45,8.08,20.1,19,20,10.59,0,18.67-8.46,18.77-19.55.1-11.45-8.08-20.1-19-20.06C1196.78,616,1188.7,624.41,1188.6,635.51ZM829.37,1507c-10.92-.13-19.18,8.43-19.16,19.86,0,11.11,8,19.62,18.58,19.74,10.92.13,19.18-8.43,19.16-19.86C847.93,1515.58,839.92,1507.08,829.37,1507Zm179-1157.44c-.12,11.46,8,20.14,18.92,20.11,10.59,0,18.7-8.42,18.82-19.49.12-11.47-8-20.13-18.92-20.11C1016.58,330.05,1008.47,338.45,1008.35,349.52Zm-467,864.31c-10.4.06-18.7,8.81-18.71,19.74,0,11.23,8.56,20,19.31,19.82,10.36-.21,18.51-9.12,18.37-20.1S551.8,1213.78,541.37,1213.83ZM705.74,696.18c-.11,10.88,8.2,19.81,18.55,19.92s18.87-8.6,19-19.46-8.19-19.81-18.55-19.92S705.85,685.32,705.74,696.18Zm638,591.39c-10.37,0-18.77,8.79-18.78,19.67s8.38,19.7,18.75,19.71,18.77-8.79,18.78-19.67S1354.09,1287.59,1343.71,1287.57ZM1185.32,1370c-9.79.11-18.47,9.26-18.49,19.52,0,10.5,9.19,20,19.11,19.58s18.37-9.71,18.14-19.87S1195,1369.92,1185.32,1370Zm164.23-196.39c-9.68-.27-18.6,8.66-19,19s8.61,20.09,18.62,20.1c9.76,0,18.51-9.09,18.63-19.37S1359.37,1173.9,1349.55,1173.63Zm181.75-175.3c.08-10.14-7.93-18.88-17.74-19.37s-18.64,8.27-19,18.79c-.34,10.32,8.1,19.52,18.09,19.75S1531.22,1008.77,1531.3,998.33ZM1416.45,1105c0-10.94-7.37-18.53-17.83-18.48s-17.65,7.73-17.61,18.71,7.37,18.53,17.83,18.48S1416.5,1116,1416.45,1105Zm-719.16,440.8c-10.48-.11-17.85,7.36-18,18.22s7,18.74,17.36,18.86,17.86-7.35,18-18.22S707.65,1545.89,697.29,1545.77ZM619.6,917.14c-.08-10.53-7.23-18.08-17.25-18.21-10.38-.14-17.81,7.46-17.87,18.28s7.24,18.59,17.59,18.58S619.69,928,619.6,917.14Zm931.57-261.48c-.11-10.56-7.3-18.06-17.38-18.15-10.42-.1-17.8,7.53-17.81,18.42s7.31,18.57,17.72,18.52S1551.3,666.62,1551.17,655.66ZM1144.5,1432.5c-.15,10.91,7,18.73,17.35,18.82,10.1.1,17.48-7.24,17.77-17.65.29-10.87-6.88-19-17-19.2C1152.19,1414.23,1144.66,1421.73,1144.5,1432.5Zm-141-1108.42c.08-10.53-7-18.37-16.84-18.67-10.45-.31-18,7.1-18.28,17.84-.24,10.93,6.9,18.84,17.16,19S1003.42,334.86,1003.5,324.08Zm79.12,1424.64c-.18,10.71,7.3,18.78,17.46,18.82,9.89,0,17.42-7.64,17.59-18,.18-10.71-7.31-18.79-17.45-18.82C1090.31,1730.73,1082.79,1738.4,1082.62,1748.72Zm588.74-851.1c-9.83-.1-17.53,7.81-17.62,18.09s7.44,18.41,17.24,18.5,17.53-7.81,17.63-18.1S1681.17,897.71,1671.36,897.62ZM497.87,1689.81c-.05,10.42,7.32,18.36,17.19,18.49,10.22.13,17.88-7.88,17.79-18.59-.1-10.36-7.63-18.14-17.54-18.12S497.93,1679.43,497.87,1689.81ZM1374.94,667.39c0-10.37-7.55-18.2-17.45-18.22-10.17,0-17.73,8.12-17.53,18.86.2,10.3,7.86,18,17.79,17.85S1375,677.8,1374.94,667.39ZM558.05,1286c-10.17,0-17.69,8-17.56,18.71.13,10.34,7.6,18.06,17.49,18.07,10.16,0,17.69-8,17.56-18.71C575.41,1293.72,567.94,1286,558.05,1286Zm-29.88,245.07c0,10.33,7.43,18.27,17.25,18.37,10.13.1,17.8-8,17.67-18.64-.13-10.29-7.73-18.07-17.59-18S528.19,1520.72,528.17,1531.05Zm845.68-399.42c-9.29.07-17,8.06-17.25,17.81-.22,10,7.59,18.5,17.14,18.63s17.55-8.12,17.58-18.16S1383.42,1131.57,1373.85,1131.63ZM745.69,1545.49c0,10,8.14,18.43,17.65,18.24,9.26-.18,17-8.44,17-18.16,0-10-8.13-18.42-17.64-18.23C753.46,1527.52,745.71,1535.78,745.69,1545.49Zm779.46-844.94c-.07-10.31-6.63-17-16.52-17s-16.23,7-16.16,17.35,6.62,17,16.52,16.95S1525.22,710.93,1525.15,700.55ZM1105.59,497.16c-9.8,0-16.37,6.91-16.42,17.18,0,10.59,6.76,17.6,16.88,17.41,9.75-.19,16.18-7.21,16.08-17.54S1115.4,497.13,1105.59,497.16Zm-95.94-233.62c-9.64-.14-16.5,6.92-16.49,17,0,9.79,6.57,16.8,15.85,16.95,9.64.14,16.5-6.93,16.49-17C1025.49,270.69,1018.94,263.68,1009.65,263.54Zm474.71,463.51c-9.7-.15-16.54,6.9-16.53,17,0,9.86,6.55,16.85,15.89,17,9.71.15,16.54-6.9,16.53-17C1500.25,734.19,1493.7,727.19,1484.36,727.05Zm-427,980.48c-9.6.09-16.23,7.28-16.08,17.44.14,9.77,6.75,16.63,16.1,16.7,9.65.07,16.43-7,16.42-17.08S1067,1707.45,1057.31,1707.53Zm-59.14-95.17c-9.31.06-16,7.11-16,16.91,0,10.07,7,17.18,16.63,17,9.25-.22,15.77-7.42,15.64-17.27S1007.53,1612.29,998.17,1612.36ZM590,1625.45c-.41,10.24,6.09,17.71,15.63,18s16.37-6.38,16.76-16.07c.4-10.24-6.08-17.7-15.63-18S590.36,1615.76,590,1625.45Zm380.32-1143c-.1-9-7.09-16.43-15.7-16.59-8.91-.16-16.25,7.33-16.32,16.66s7.14,17,16.05,16.95S970.41,491.82,970.3,482.47Zm-700.24,512c-8.34.22-15.61,8.06-15.59,16.79,0,9,7.76,16.94,16.34,16.72,8.33-.22,15.62-8.07,15.59-16.79C286.37,1002.15,278.63,994.23,270.06,994.47Zm602,541.53c-8.58-.22-16.32,7.72-16.32,16.74,0,8.73,7.28,16.56,15.61,16.77,8.57.22,16.31-7.72,16.32-16.74C887.71,1544,880.42,1536.21,872.09,1536Zm634.46-906.15c-.09-8.66-7-16-15.24-16.27s-15.86,7.23-16,16.18,7.11,16.6,15.59,16.63S1506.65,638.72,1506.55,629.85Zm-146.26,732.51c-8.74,0-14.74,6-15,15-.28,9.51,5.57,16.08,14.48,16.29s15.24-6,15.35-15.39S1369.26,1362.4,1360.29,1362.36Zm-822.59,56c0,9,6.08,15.52,14.56,15.63,8.85.11,15.18-6.53,15.06-15.82-.11-8.91-6.36-15.31-14.9-15.27S537.73,1409.41,537.7,1418.37ZM707,611.49c-8.84-.16-15.22,6.36-15.23,15.59,0,8.92,6.06,15.46,14.51,15.61,8.84.17,15.21-6.35,15.22-15.58C721.49,618.18,715.43,611.65,707,611.49Zm852.47,228.1c.09-9.25-6.19-15.87-15-15.81-8.5.05-14.64,6.47-14.73,15.38-.09,9.25,6.19,15.88,15,15.81C1553.21,854.92,1559.36,848.5,1559.45,839.59ZM857.28,643.27c-8.86-.32-15.4,6.09-15.54,15.24-.15,9,5.77,15.65,14.18,16,8.86.31,15.39-6.09,15.54-15.24C871.61,650.23,865.68,643.57,857.28,643.27Zm865.13,253.79c0,9,6.07,15.52,14.57,15.62,8.85.12,15.17-6.53,15-15.83-.11-8.91-6.36-15.3-14.91-15.26S1722.44,888.1,1722.41,897.06Zm-1462,158.85c0-8.9-6.19-15.38-14.67-15.42-8.78,0-15.05,6.67-14.87,15.93.16,8.82,6.5,15.18,15,15.07S260.47,1064.83,260.44,1055.91ZM1425.29,633.16c-8.84-.2-15.24,6.31-15.28,15.51,0,9,6,15.5,14.44,15.69,8.85.19,15.25-6.32,15.29-15.52C1439.77,639.88,1433.74,633.34,1425.29,633.16Zm146.41-20.71c-.08-8.88-6.41-15.35-14.93-15.26s-14.62,6.74-14.53,15.67,6.4,15.34,14.92,15.25S1571.78,621.38,1571.7,612.45Zm-456,979.21c0,8.93,6.07,15.48,14.52,15.58,8.81.11,15.14-6.54,15-15.78-.12-8.86-6.37-15.26-14.87-15.22S1115.68,1582.76,1115.65,1591.66Zm-609.56-16.22c-.16,9,5.82,15.68,14.2,15.92,8.84.26,15.32-6.27,15.34-15.44,0-8.92-6.09-15.46-14.54-15.56S506.25,1566.62,506.09,1575.44Zm-7.64-382c-8.44.18-14.49,6.72-14.47,15.66,0,9.21,6.42,15.72,15.26,15.54,8.45-.17,14.5-6.72,14.46-15.65C513.67,1199.78,507.29,1193.28,498.45,1193.46Zm625.25,497.06c-7.8-.1-14.56,6.75-14.75,15-.2,8.48,6.67,15.77,14.76,15.66,7.83-.1,14.42-7.11,14.41-15.31S1131.53,1690.62,1123.7,1690.52Zm363.64-876.15c-.25,8.45,6.59,15.8,14.67,15.76,7.81,0,14.45-7,14.5-15.21s-6.5-15.25-14.32-15.4S1487.6,806.15,1487.34,814.37ZM337.15,977.09c-8.2-.37-15.13,6.42-15.31,15s6.46,15.72,14.66,15.71c7.93,0,14.45-6.71,14.62-15S345.05,977.46,337.15,977.09ZM1747.47,853.93c.08,8.14,6.9,15.2,14.63,15.12s14.48-7.24,14.4-15.35-6.89-15.19-14.62-15.12S1747.4,845.83,1747.47,853.93ZM955.88,1588.06c-7.71-.14-14.6,6.88-14.73,15s6.55,15.31,14.31,15.45,14.59-6.87,14.72-15S963.65,1588.21,955.88,1588.06Zm-57.38-10.85c0,8.12,6.68,15.27,14.43,15.33s14.54-7,14.6-15.15-6.69-15.26-14.43-15.32S898.55,1569.09,898.5,1577.21Zm-377-640.75c.21,7.61,7.07,14.75,14.3,14.88,7.45.14,14.68-7.33,14.69-15.19s-7.18-15.33-14.64-15.23S521.29,928.66,521.5,936.46Zm1146-90c-.11-8.15-7.22-15.18-14.87-14.71s-13.85,7.65-13.52,15.4,7.13,14.6,14.53,14.38S1667.59,854.22,1667.48,846.43Zm-414.63,510.05c-7.9,0-13.4,5.6-13.61,13.82-.23,8.6,5.23,14.66,13.33,14.81s13.88-5.63,14-14.17S1261,1356.46,1252.85,1356.48Zm-177.4,423.12c-7.91,0-13.45,5.49-13.71,13.7-.28,8.61,5.13,14.73,13.22,14.93s13.94-5.54,14.06-14S1083.61,1779.64,1075.45,1779.6ZM497.8,1606.75c-7-.19-13.28,6-13.56,13.34-.28,7.6,6,14.42,13.24,14.42,7,0,13.12-6.38,13.21-13.71S504.78,1606.93,497.8,1606.75ZM1502.67,1042.6c-.23-7-6.34-13.29-13-13.38-6.88-.1-13.29,6.56-13.27,13.8s6.44,13.88,13.32,13.75S1502.91,1049.78,1502.67,1042.6ZM1146.92,526.71c-6.49,0-12.75,6.32-13.08,13.21s5.93,14,12.76,14.26,13.3-6.41,13.42-13.56S1153.72,526.71,1146.92,526.71ZM503.71,1734.42c-.17-7-6.25-13.33-12.88-13.49-6.87-.16-13.32,6.45-13.37,13.71s6.34,13.91,13.23,13.84S503.89,1741.63,503.71,1734.42ZM1303.05,643.13c.09,7,6.11,13.38,12.76,13.62,6.83.25,13.36-6.31,13.49-13.57s-6.2-14-13.1-14S1303,635.91,1303.05,643.13Zm277.4,322.79c-6.54-.06-12.79,6.33-13,13.26-.19,7.12,6.35,14,13.14,13.8,6.59-.19,12.68-6.75,12.62-13.62S1587,966,1580.45,965.92Zm-1058,381.79c0,7.73,4.64,12.64,12,12.71,7.65.07,12.44-5,12.28-13.11-.16-7.65-4.92-12.43-12.32-12.34S522.49,1340,522.49,1347.71Zm-40.26-393c-.09-7.61-4.74-12.52-12-12.66-7.56-.16-12.52,4.86-12.58,12.74s4.78,13,12.31,13S482.32,962.61,482.23,954.68Zm-79.72,6.11c-7.52,0-12.35,5.16-12.26,13.09.08,7.6,4.72,12.53,12,12.68,7.56.16,12.52-4.85,12.6-12.72S410.05,960.78,402.51,960.79Zm236.58-87.18c-.19-7.82-5.27-12.75-12.85-12.46-7.19.27-11.74,5.3-11.71,13,0,7.9,5,12.94,12.51,12.82S639.28,881.55,639.09,873.61Zm-434.74,143.5c-7.27,0-12,4.83-12.24,12.39-.23,7.94,4.5,13.23,12,13.38s12.52-4.86,12.58-12.74S211.89,1017.09,204.35,1017.11Zm744.7-649.27c-.32,7.84,4,13.07,11.22,13.47,7.74.43,12.86-4.39,13-12.3s-4.31-12.88-11.57-13.13C954.28,355.62,949.36,360.26,949.05,367.84Zm-431.9,897.74c-7.65-.2-12.58,4.78-12.62,12.73,0,7.72,4.52,12.68,11.79,12.87,7.66.2,12.58-4.77,12.61-12.73C529,1270.73,524.42,1265.76,517.15,1265.58Zm582.67-820.21c.1-7.54-4.71-12.78-11.83-12.89s-12.19,4.95-12.29,12.42,4.71,12.79,11.84,12.9S1099.72,452.85,1099.82,445.37Zm18.56,1362c-6.86-.19-12.27,5.33-12.28,12.51,0,6.91,5,12.35,11.58,12.53,6.86.19,12.28-5.33,12.28-12.51C1130,1813,1124.93,1807.57,1118.38,1807.39ZM711.63,741.47c.14-6.88-4.93-12.54-11.44-12.78-6.83-.24-12.38,5.4-12.35,12.56,0,6.87,5.24,12.35,11.79,12.41A12.13,12.13,0,0,0,711.63,741.47Zm93,817.61c-6.45-.15-11.91,5.24-12.14,12-.24,7,5.21,13,11.93,12.91,6.45,0,11.74-5.56,11.79-12.33S811,1559.23,804.59,1559.08ZM468.16,1182.6c-.2-6.87-5.31-12.06-11.91-12.1-6.87,0-12.09,5.46-12,12.68s5.36,12.59,12.24,12.45S468.37,1189.83,468.16,1182.6Zm215.92,425c0-7-5.69-12.72-12.41-12.41-6.41.3-11.51,6.09-11.31,12.84s5.61,12.16,12.06,12S684.1,1614.37,684.08,1607.59Zm671.14-344.09c-.21,6.76,4.88,12.56,11.28,12.88,6.73.33,12.4-5.32,12.44-12.37,0-6.77-5.17-12.39-11.62-12.52S1355.44,1256.75,1355.22,1263.5Zm447.86-396.08c-6.29,0-11.62,5.77-11.62,12.56,0,6.61,5.55,12.28,11.94,12.19s11.74-5.82,11.65-12.53S1809.53,867.41,1803.08,867.42ZM917.77,526.51c.3,6.38,5.67,11.81,11.72,11.83,6.32,0,11.87-5.85,11.78-12.47s-5.76-12.39-12-12.19S917.47,519.94,917.77,526.51ZM472.83,1651.66c-6-.09-12,6.2-11.83,12.51.13,6.09,5.78,12,11.57,12.06,6,.1,12-6.19,11.84-12.5C484.27,1657.64,478.62,1651.75,472.83,1651.66ZM968.2,242.44c-5.87-.11-11.45,5.51-11.66,11.74-.22,6.43,5.56,12.56,11.7,12.42,5.93-.13,11.34-5.91,11.32-12.1S974.12,242.54,968.2,242.44Zm24-44.11c-6.45-.37-11.16,3.89-11.58,10.49-.45,7.05,3.89,12.17,10.49,12.37,6.42.19,11-4.23,11.27-10.86S998.47,198.7,992.16,198.33ZM288.43,1069.1c-6.66,0-11.2,4.85-11,11.87.18,6.64,4.72,11.12,11.13,11s10.69-4.77,10.66-11.5S294.82,1069.16,288.43,1069.1Zm239.21,381.58c-6,0-10.35,4.56-10.47,10.84s4.05,11,10,11.34c6.3.31,11-4.28,11.16-10.82S533.93,1450.64,527.64,1450.68Zm64.24,221.21c.36-6.16-3.81-11.24-9.62-11.7-6.14-.49-11.16,4.2-11.34,10.61-.18,6.17,4.13,11.08,10,11.37S591.52,1678,591.88,1671.89ZM881,604.4c-6,.19-10.19,4.69-10.25,11-.07,6.61,4.36,11.31,10.65,11.3S892.08,622,892,615.33,887.3,604.2,881,604.4ZM404.52,1157.2c.07,5.58,4.68,10.54,10,10.78,5.55.24,10.65-4.8,10.78-10.68s-4.75-11.1-10.34-11.13S404.45,1151.35,404.52,1157.2Zm344.13,433.15c0-5.87-4.93-11-10.51-11-5.31.08-10,4.92-10.27,10.5-.23,5.83,4.59,11.19,10.18,11.31S748.63,1596.21,748.65,1590.35Zm267.41,97.35c-5.32.09-10,4.93-10.24,10.53-.22,5.83,4.6,11.16,10.2,11.28s10.57-5,10.58-10.88S1021.64,1687.61,1016.06,1687.7ZM1283.88,617.41c.25-5.73-4.78-11.26-10.27-11.3s-10.63,5.61-10.45,11.17c.17,5.35,5.26,10.55,10.34,10.58S1283.64,622.9,1283.88,617.41Zm533.84,217.74c.08,5.57,5.75,11.13,10.93,10.7s10-6.13,9.7-11.27-5.68-10.55-10.59-10.37S1817.65,829.93,1817.72,835.15Zm-1359.47,874c.28-5.44-5.17-11.34-10.41-11.27-5,0-10.17,5.47-10.23,10.74s5.05,10.75,10.07,10.91S458,1714.43,458.25,1709.16ZM1190.42,555.61c-5.21-.55-10.87,4.66-11.2,10.31-.3,5.21,4.4,10.81,9.52,11.36s10.87-4.65,11.2-10.31C1200.24,561.76,1195.54,556.15,1190.42,555.61Zm-284.55,4.57c-5.17.18-10,5.53-9.84,10.87s5.28,10.5,10.37,10.32,10-5.54,9.84-10.88S911,560,905.87,560.18Zm-254,259.24c-5.85-.16-9.56,3.47-9.71,9.5s3.3,10,9,10.19,9.57-3.47,9.71-9.49S657.64,819.58,651.91,819.42Zm503.55,717.84c-5.75-.15-9.57,3.77-9.54,9.79,0,5.74,3.54,9.51,9,9.65,5.76.14,9.58-3.77,9.54-9.79C1164.41,1541.18,1160.9,1537.4,1155.46,1537.26Zm75.68-955.92c-5.66-.15-9.51,3.79-9.48,9.72s3.94,9.8,9.61,9.59c5.33-.2,8.82-4.06,8.79-9.72S1236.49,581.48,1231.14,581.34ZM1092.4,1872.92c5.78.46,9.87-3.22,10.12-9.13s-3-9.82-8.38-10.25c-5.79-.46-9.87,3.22-10.13,9.14S1087.06,1872.49,1092.4,1872.92Zm293-549.39c-5.77-.21-9.64,3.65-9.68,9.65,0,5.75,3.43,9.59,8.85,9.79,5.76.22,9.64-3.65,9.67-9.65C1394.27,1327.57,1390.79,1323.73,1385.39,1323.53Zm70.13-237.62c-.18,6,3.51,10.1,9.23,10.12,5.48,0,9.11-3.63,9.29-9.32.19-6-3.5-10.09-9.23-10.11C1459.33,1076.58,1455.69,1080.23,1455.52,1085.91ZM1070.05,366.23a9.6,9.6,0,1,0,9,9.77A9.32,9.32,0,0,0,1070.05,366.23ZM363.16,1132.34a9.11,9.11,0,1,0,9.27-9.36A9.44,9.44,0,0,0,363.16,1132.34ZM674.8,775a9.55,9.55,0,1,0,9.26,9.37A9.41,9.41,0,0,0,674.8,775ZM320.46,1106.35a9.15,9.15,0,1,0,9.31-9.41A9.36,9.36,0,0,0,320.46,1106.35ZM1411.83,1402.7c.08-5-4.64-9.8-9.36-9.54-4.5.24-8.71,5-8.58,9.63s4.55,9.22,9,9.19S1411.75,1407.41,1411.83,1402.7ZM153.13,1004.12a9,9,0,0,0,8.21,8.9c4.68.25,8.85-3.83,9-8.78s-3.83-9.22-8.53-9.26S153.06,999.2,153.13,1004.12Zm271.61,740.16c-4.53-.13-8.84,4.2-9,9s4,9.28,8.57,9.42,8.85-4.2,9-9S429.3,1744.41,424.74,1744.28Zm803.09-339.36c-4.59.19-8.66,4.75-8.49,9.5s4.52,9.09,9.05,8.91,8.66-4.76,8.49-9.5S1232.35,1404.73,1227.83,1404.92ZM466,1768.83c-4.52-.13-8.85,4.21-9,9s4,9.28,8.57,9.41,8.85-4.19,9-9S470.59,1769,466,1768.83Zm372.36-172.22c.28,4.62,4.19,8.49,8.58,8.49,4.7,0,8.7-4.28,8.6-9.2s-4.24-9.05-8.93-8.84A9,9,0,0,0,838.38,1596.61ZM1015.86,158.07c-4.65.17-7.54,3.28-7.62,8.2-.08,5.2,3,8.53,8,8.52s8-3.35,8-8.55S1020.82,157.88,1015.86,158.07Zm608.21,427.45c-4.66.17-7.56,3.26-7.65,8.17-.09,5.2,3,8.54,7.95,8.55s8.07-3.31,8-8.52S1629,585.34,1624.07,585.52Zm22.17,383.34c4.51.09,7.8-3.14,8-7.83.18-5-3.22-8.64-8-8.54-4.48.09-7.63,3.47-7.63,8.19S1641.75,968.77,1646.24,968.86Zm-611.93-741.3c-4.49-.12-7.82,3.11-8,7.78-.2,5,3.18,8.67,7.93,8.6,4.49-.07,7.66-3.43,7.68-8.14S1038.78,227.67,1034.31,227.56Zm347.74,404.76c4.45.1,7.82-3.28,7.91-7.93s-3.14-8.21-7.57-8.31-7.82,3.3-7.91,7.94S1377.61,632.22,1382.05,632.32Zm-566.4-6.2c-4.49-.17-7.88,3-8.14,7.66-.27,5,3.07,8.73,7.81,8.73,4.51,0,7.71-3.3,7.79-8S820.12,626.3,815.65,626.12ZM674,670c-.21,4.79,2.8,8.39,7.29,8.69,4.84.33,8.41-3.13,8.45-8.18,0-4.8-3.08-8.21-7.63-8.33S674.19,665.24,674,670ZM136.45,1056.89a7.74,7.74,0,0,0,8.26-7.58c.27-4.65-2.85-8.39-7.23-8.67a7.74,7.74,0,0,0-8.25,7.59C129,1052.88,132.07,1056.61,136.45,1056.89ZM482,1252.34c0-5-3.59-8.53-8.43-8.22-4.49.29-7.51,3.87-7.31,8.67s3.51,8,8.08,7.85S482,1257.14,482,1252.34ZM1869.49,852.91a7.74,7.74,0,0,0-7.92,8c-.09,4.66,3.15,8.21,7.57,8.3s7.82-3.3,7.92-7.94S1873.91,853,1869.49,852.91Zm-469.77,366.45c.1-4.8-3-8.26-7.51-8.45-4.85-.2-8.31,3.35-8.23,8.43.08,4.78,3.29,8.08,7.86,8.09S1399.62,1224.15,1399.72,1219.36Zm181.85-659.6c-4.42.09-7.66,3.65-7.58,8.3s3.46,8,7.91,8,7.66-3.63,7.58-8.29S1586,559.67,1581.57,559.76Zm-295.22,835.16c-.2,4.71,2.82,8.31,7.23,8.61,4.76.33,8.34-3.14,8.38-8.11,0-4.72-3.09-8.14-7.56-8.26S1286.56,1390.25,1286.35,1394.92ZM1044.39,305c0,4.35,3.77,8.2,7.9,8a8.07,8.07,0,0,0,7.29-7.93c0-4.38-3.74-8.21-7.89-8A8.08,8.08,0,0,0,1044.39,305Zm403.21,825.87a8,8,0,0,0-7.43-7.78c-3.88-.09-7.48,3.36-7.76,7.45-.29,4.3,3.29,8.39,7.44,8.49S1447.7,1135.27,1447.6,1130.89ZM502.27,1391.82c-.35,4.3,3.16,8.44,7.31,8.61,3.87.16,7.51-3.24,7.85-7.33.36-4.3-3.15-8.44-7.31-8.61C506.26,1384.33,502.61,1387.73,502.27,1391.82ZM974,1664.71c-3.68-.25-7.59,3.35-7.93,7.3-.35,4.19,3.4,8.47,7.46,8.51,3.76,0,7.46-3.68,7.6-7.66S977.72,1665,974,1664.71ZM664.58,593.1a7.88,7.88,0,0,0-8.25,7.71,8,8,0,0,0,7,8.29,7.88,7.88,0,0,0,8.26-7.71A8,8,0,0,0,664.58,593.1Zm927.51,43.71c-.21,3.86,3.25,8,7,8.29,4,.35,8.06-3.62,8.08-7.86,0-4-3.55-7.82-7.33-7.94S1592.3,632.86,1592.09,636.81ZM1727,827.72a7.64,7.64,0,1,0-7.88,8.11A7.95,7.95,0,0,0,1727,827.72ZM568,892.67c-.09-4-4.2-7.83-7.87-7.41-3.51.41-6.85,4.49-6.58,8s4.14,7.27,7.53,7.08S568.07,896.26,568,892.67Zm958.56-130.2c-3.78.11-7.44,4.42-7,8.28.39,3.7,4.28,7.18,7.67,6.88s6.92-4.36,6.74-7.91S1530,762.38,1526.55,762.47ZM1128.69,1888.82c-.22,3.55,3.2,7.63,6.68,8,3.66.36,7.75-3.6,7.78-7.52,0-3.61-3.56-7.5-7-7.63S1128.92,1885.18,1128.69,1888.82ZM973.89,133.65c-3.9-.18-6.55,2.27-6.8,6.26-.27,4.34,2.37,7.32,6.47,7.31,3.89,0,6.37-2.54,6.45-6.61S977.74,133.83,973.89,133.65Zm229.62,1318.54c-3.87-.1-6.46,2.49-6.55,6.52s2.37,6.78,6.21,6.88,6.46-2.48,6.55-6.52S1207.36,1452.28,1203.51,1452.19Zm-314,163.18c-3.84.09-6.31,2.8-6.22,6.86s2.67,6.63,6.54,6.54,6.3-2.79,6.22-6.86S893.33,1615.28,889.46,1615.37ZM399.6,1803.5c3.88.09,6.47-2.48,6.56-6.52s-2.37-6.78-6.21-6.88-6.47,2.49-6.56,6.52S395.75,1803.4,399.6,1803.5Zm98.83-480c.17-4.35-2.52-7.22-6.66-7.11-3.87.1-6.28,2.73-6.27,6.81s2.45,6.69,6.32,6.75S498.27,1327.48,498.43,1323.47Zm924.75-149.12c0-4.32-3-7.15-7.13-6.83-3.79.3-6.19,3.22-6,7.29s2.9,6.6,6.78,6.48S1423.21,1178.43,1423.18,1174.35Zm-249.69,328.78c-.24,4.08,2,6.95,5.8,7.29,4.12.38,7-2.32,7.13-6.6.08-4.09-2.3-6.78-6.14-7S1173.74,1499.14,1173.49,1503.13Zm382-485.61c-3.85.09-6.32,2.8-6.23,6.86s2.67,6.62,6.54,6.54,6.3-2.79,6.22-6.86S1559.3,1017.43,1555.44,1017.52ZM1135.6,471c-.08-4.07-2.65-6.71-6.55-6.71-4.12,0-6.84,3.06-6.57,7.41.25,4,3,6.54,6.89,6.36S1135.68,475.05,1135.6,471ZM509.53,1506.37c-.08-4.07-2.65-6.71-6.55-6.71-4.12,0-6.84,3.06-6.57,7.41.26,4,3,6.54,6.9,6.36S509.61,1510.46,509.53,1506.37Zm631.81,262.21a6.57,6.57,0,1,0,6.34,6.84A6.32,6.32,0,0,0,1141.34,1768.58ZM1610.72,814a6.56,6.56,0,1,0,.5,13.11,6.42,6.42,0,0,0,5.67-6.81A6.34,6.34,0,0,0,1610.72,814Zm30.83-265.59a6.44,6.44,0,0,0,5.94,7.23,6.31,6.31,0,0,0,6.53-5.9,6.44,6.44,0,0,0-5.94-7.23A6.29,6.29,0,0,0,1641.55,548.45ZM931,1641.58c-3.15,0-6.21,3.1-6.24,6.42s3,6.52,6.12,6.56,6.21-3.11,6.25-6.43S934.12,1641.62,931,1641.58ZM1894,809.78c-3.15,0-6.15,3.26-6.11,6.56s3.09,6.46,6.25,6.42,6.15-3.26,6.12-6.56S1897.16,809.74,1894,809.78ZM682.93,557.52c-.14,3,2.54,6.13,5.39,6.37,3,.26,6.29-3,6.23-6.21,0-2.95-2.93-6-5.74-6S683.08,554.5,682.93,557.52Zm-35,1088.76c-2.78-.25-5.88,2.49-6.22,5.49-.36,3.21,2.57,6.68,5.7,6.74,2.81,0,5.77-2.87,5.91-5.84S650.72,1646.54,647.88,1646.28Zm500.71,8.67c-2.82-.17-5.83,2.62-6.09,5.64-.27,3.23,2.75,6.62,5.87,6.58,2.81,0,5.69-3,5.76-6S1151.43,1655.12,1148.59,1655ZM1032.9,1762.59c-3.25-.06-5.18,1.68-5.26,5.16s1.6,5.42,4.91,5.51,5.06-1.7,5.32-5.52C1037.72,1764.76,1036.25,1762.65,1032.9,1762.59ZM731.56,577c-3.27-.08-5.18,1.67-5.26,5.15s1.59,5.42,4.91,5.52,5.06-1.71,5.31-5.19C736.43,579.11,734.89,577.08,731.56,577Zm49.18,1032.51c-3.32.09-5,2.09-4.91,5.52s2,5.23,5.26,5.16,4.87-2.11,5-5.5C785.8,1611.23,784,1609.43,780.74,1609.51Zm672.4-1004.37c-.25-3-1.92-4.7-4.81-4.83s-5.56,2.49-4.81,5.37c.53,2.08,2.43,3.77,3.2,4.87C1451.1,610.6,1453.39,608.17,1453.14,605.14ZM1511,586c-1,2.79,1.54,5.66,4.4,5.75s4.7-1.44,5.16-4.44-1.66-5.63-6-5.92C1513.67,582.46,1511.66,584,1511,586ZM223.1,985.08c-.71,2.81,2.19,5.52,5,5.19s4.89-2.27,4.33-5.18c-.4-2.06-2.4-3.79-4.65-7.06C225.53,981.29,223.62,983,223.1,985.08ZM1111,1938.87c2.77.63,4.62-1.48,5-4.48s-2.19-6-4.89-5.31c-2,.53-3.64,2.52-6.79,4.86C1107.38,1936.32,1109,1938.43,1111,1938.87ZM95.9,1017.67c-3,0-4.75,1.61-5.09,4.7a4.86,4.86,0,0,0,5,5.52c3-.17,4.52-2,4.77-4.71C100.61,1020,98.62,1017.7,95.9,1017.67Zm456.05,698c-.78,2.79,2,5.56,4.89,5.32s4.95-2.13,4.46-5c-.35-2.08-2.31-3.86-4.48-7.19C554.48,1711.94,552.53,1713.59,552,1715.66ZM184.2,1074.44c.25-2.89-1.95-4.83-4.86-4.62s-4.92,2.3-4.31,5.2c.43,2,2.57,3.69,5,6.9C182.06,1078.43,184,1076.52,184.2,1074.44Zm253.44,153.89c.27-3.07-1.24-5.08-4.2-5.58s-5.92,1.93-5.38,4.91c.38,2.15,2.2,4,3,5.36C435.44,1232.93,437.36,1231.42,437.64,1228.33ZM936.23,418.25c2.77.63,4.62-1.49,5-4.49s-2.19-6-4.89-5.3c-2,.52-3.64,2.51-6.79,4.85C932.64,415.7,934.26,417.81,936.23,418.25ZM772.89,603.73c-2.27-.79-5.42,2.46-4.56,4.78.68,1.84,2.81,4.12,4.43,4.25s3.31-2.26,6-4.3C776.16,606.3,774.73,604.36,772.89,603.73Zm564.16,813.17c-1.64.08-3.84,2.28-4.59,4.1-.94,2.26,2.11,5.63,4.43,4.94,1.85-.56,3.35-2.45,6-4.52C1340.29,1419.28,1338.61,1416.83,1337.05,1416.9ZM717.88,1633.73c.67-2.43-2.52-5.65-4.69-4.68-1.73.79-3.84,3.08-3.92,4.8s2.25,3.42,4.27,6.15C715.53,1637.24,717.33,1635.68,717.88,1633.73ZM998.16,91.09c-2.42-.55-5.2,2.92-4.14,5.17.84,1.77,3.15,3.86,4.77,3.83s3.12-2.56,5.59-4.84C1001.64,93.33,1000,91.51,998.16,91.09Zm714.45,846.38c-1.63.11-3.79,2.35-4.51,4.18-.89,2.29,2.22,5.6,4.51,4.85,1.85-.6,3.31-2.52,5.92-4.64C1715.89,939.77,1714.18,937.36,1712.61,937.47Zm-148.84-141.7c.06,1.72,2.13,4,3.85,4.85,2.15,1,5.38-2.17,4.74-4.61-.52-2-2.31-3.54-4.27-6.34C1566,792.38,1563.71,794.12,1563.77,795.77ZM438.22,1822.31c0,1.71,2,4.12,3.66,5,2.14,1.11,5.45-1.83,4.92-4.35-.41-2-2.15-3.65-4-6.52C440.66,1819,438.24,1820.66,438.22,1822.31Zm-62.78,14.83c-1.64,0-3.92,2.1-4.74,3.88-1,2.26,1.78,5.71,4.18,5.14,1.87-.45,3.45-2.28,6.18-4.22C378.57,1839.67,377,1837.14,375.44,1837.14ZM1546.68,724.89a5.35,5.35,0,0,0,3,3.93c2.3.69,4.18-1,3.85-3.6-.19-1.52-1.7-2.85-3.35-5.41C1548.4,722.22,1546.6,723.62,1546.68,724.89Zm24.87-43.38c.39,1.63,2.25,2.86,3.5,4.26,1.14-1.22,3.07-2.35,3.21-3.69s-1.51-2.88-3-5.47C1573.38,678.94,1571.31,680.53,1571.55,681.51Zm-1086.22,751c-1.26.07-2.42,2-3.63,3.06,1.05,1.26,1.95,3.31,3.19,3.57s2.68-1.42,5.22-3C487.8,1434.27,486.52,1432.41,485.33,1432.48ZM1172,492.29c-1.29.07-3.38,1.95-3.46,3.16s1.74,3.36,3,3.63,2.73-1.44,5.34-3C1174.47,494.13,1173.16,492.23,1172,492.29Zm203,955.21c.24,1.31,2.18,2.27,3.37,3.39,1.06-1.26,2.88-2.47,3-3.79s-1.69-2.6-3.48-5C1376.3,1444.71,1374.71,1446.29,1374.93,1447.5ZM1933.42,842a5.17,5.17,0,0,0,3,3.8c2.3.63,4.11-1.1,3.78-3.65-.2-1.49-1.69-2.8-3.34-5.31C1935.1,839.31,1933.35,840.72,1933.42,842ZM476.26,1549.44c0,1.38,1.77,2.75,2.76,4.12,1.37-1.21,3.36-2.19,3.89-3.72.34-1-1.47-2.78-3-5.34C478.09,1546.83,476.25,1548.14,476.26,1549.44Zm866.53-951c-.07-1.34-1.86-3.53-3-3.61s-3.2,1.84-3.45,3.17,1.38,2.86,2.88,5.58C1341.05,601.11,1342.86,599.73,1342.79,598.46ZM493.17,908.19c-1.27.24-3.1,2.39-3,3.6s2.14,3.09,3.43,3.18,2.53-1.8,4.91-3.71C495.89,909.66,494.35,908,493.17,908.19Zm916.17,377.46c-1,.29-2.1,2.19-2.27,3.51-.09.65,1.92,2.37,2.76,2.22,1.2-.22,2.2-1.7,4.08-3.33C1411.76,1286.84,1410.33,1285.38,1409.34,1285.65Zm38.93,142.85c.09-.9-1.65-2.92-2.26-2.79-1.25.27-3,1.47-3.22,2.59s1.27,2.47,2.55,4.66C1446.78,1430.89,1448.14,1429.77,1448.27,1428.5ZM1111,397.37c-1.1.18-2.75,2.1-2.69,3.17s1.89,2.78,3,2.83,2.22-1.66,4.1-3.24C1113.4,398.77,1112.07,397.2,1111,397.37Zm419.88,667.17a4.15,4.15,0,0,0-2.9,3c0,1.07,1.69,2.91,2.8,3s2.33-1.48,4.33-2.91C1533.18,1066.11,1532,1064.45,1530.89,1064.54Zm-947-219.36c-1.06.23-2.22,2.06-2.48,3.38-.13.62,1.79,2.46,2.65,2.37,1.21-.13,2.29-1.54,4.27-3C586.26,846.53,584.91,845,583.91,845.18ZM450.55,1294.26c-.86-.08-2.74,1.81-2.6,2.44.29,1.31,1.48,3.09,2.56,3.31s2.31-1.38,4.37-2.78C452.87,1295.76,451.76,1294.37,450.55,1294.26Zm1512.3-496.94c-.19-1.13-1.9-2.39-3.15-2.7-.59-.15-2.38,1.82-2.32,2.73.09,1.27,1.41,2.44,2.79,4.55C1961.52,799.75,1963,798.37,1962.85,797.32ZM389.9,1198.85c-1.09.2-1.89,2.11-2.82,3.28,1.11,1,2.22,2.69,3.34,2.71s2.16-1.75,4-3.39C392.34,1200.17,391,1198.64,389.9,1198.85Zm259-667.32c-.21-1.15-2-2-3.13-3-.93,1.17-2.57,2.33-2.58,3.51s1.66,2.27,3.23,4.17C647.67,534.08,649.13,532.64,648.93,531.53ZM53.38,998.59c.46,0,1.54-1.54,1.4-1.77A4.21,4.21,0,0,0,52.65,995c-.4-.12-1.14,1-2.19,2C51.74,997.73,52.54,998.53,53.38,998.59Zm767.14,642.68c0,.5,1.16,1,1.79,1.51.57-.8,1.44-1.53,1.61-2.41s-.53-1.67-1.29-3.71C821.25,1639.52,820.53,1640.39,820.52,1641.27ZM466.79,1364.7c-.47,0-1,1.22-1.44,1.89.76.59,1.46,1.51,2.3,1.69s1.59-.57,3.54-1.36C468.46,1365.47,467.63,1364.71,466.79,1364.7ZM1214.7,523.49c.46,0,1.54-1.54,1.4-1.78a4.22,4.22,0,0,0-2.13-1.86c-.4-.12-1.14,1-2.19,2C1213.06,522.63,1213.86,523.42,1214.7,523.49ZM993.18,1743.05c.05-.47-1.09-1.5-1.7-1.51s-1.79,1-1.76,1.44c0,.89.8,1.73,1.66,3.33C992.3,1744.75,993.08,1743.94,993.18,1743.05ZM656.73,713.37c-.46,0-1.54,1.54-1.4,1.78a4.23,4.23,0,0,0,2.14,1.86c.4.12,1.14-1,2.18-2C658.37,714.23,657.57,713.44,656.73,713.37ZM1050.2,1836.92c-.47,0-1,1.21-1.44,1.88.76.6,1.46,1.52,2.3,1.69s1.59-.56,3.54-1.36C1051.87,1837.68,1051,1836.93,1050.2,1836.92Zm573.17-831.79c.05-.47-1.08-1.5-1.69-1.51s-1.79,1-1.77,1.43c0,.89.81,1.73,1.66,3.33C1622.49,1006.82,1623.27,1006,1623.37,1005.13ZM223.23,1102.4c.28-.87.91-1.82.76-2.61a4.3,4.3,0,0,0-1.65-2.33c-.2-.15-1.76.88-1.76,1.38a7.32,7.32,0,0,0,1.11,2.63ZM352,1886.71c.45,0,1.54-1.54,1.4-1.78a4.19,4.19,0,0,0-2.14-1.86c-.4-.12-1.14,1-2.18,2C350.33,1885.84,351.12,1886.64,352,1886.71Zm-56.15-922a7.54,7.54,0,0,0-2.47,1.4c.41.72.77,2,1.26,2,.82.09,1.72-.57,3.16-1.14C296.83,965.88,296.25,964.69,295.82,964.74ZM1155.53,1959a4.26,4.26,0,0,0-1.74-2.25c-.23-.15-1.74,1-1.71,1.45.05.88.8,1.72,1.53,3.08C1154.57,1960.14,1155.64,1959.37,1155.53,1959Z"/></g><g id="explotion-9"><path d="M976.88,73.94C993,564.15,882.74,836.51,654.06,549.86c188.42,285-87.11,440.37-603.6,450.62,516.49-10.25,659.32,342,323,781.85,336.36-439.82,681.95-383.5,739.15,106.71-57.2-490.21,79-719.47,296.15-498.56-217.17-220.91,37.66-491.35,554.15-588.1-516.49,96.75-685.83,14.57-285.71-285C1251.36,840.48,993,564.15,976.88,73.94Z"/><path class="cls-2" d="M985.5,301.76c-9.15,165.38-34.32,292.09-77.6,355.71-43.6,63.43-105.33,63.75-195.1-27.8,56.38,96.75,26.43,186.61-64.63,254.89-91.29,68-243.68,114.37-437.24,116.86,162,2.22,286.92,84.51,345.45,201.16,57.88,117.62,49.38,269.59-70.51,433.36C615.59,1504.57,742.71,1440,850.55,1452.71c107.45,13,195.61,103.28,238.27,288.61-25.21-174.23-1.85-320.13,49.38-398.29,52-77.82,131.79-87.91,236.07,17.46-206.94-209.62,45.64-428.07,405-522.89-168.5,35-298.61,26.24-351.16-12.85-51.89-40.19-26.22-110.69,132.09-224.6-157.84,114.22-273.79,123.19-365.53,64.24C1103.4,604.73,1036.29,477.16,985.5,301.76Z"/><path d="M1056.79,1586c-59-111.74-139-147.29-203.59-155.12a255.56,255.56,0,0,0-29.77-1.73c-77.33,0-162.24,34.25-249.85,100.1,51.59-117.38,53.09-233.63,2.54-336.37l-.08-.15c-42.35-84.41-113.81-147.5-202.62-182.4C491,992,590.32,955.07,661.31,902.21c76.88-57.66,111-129,99.86-203.36,26.63,17,51.45,25.3,75,25.3,34.92,0,65.17-18.24,89.9-54.22l.06-.09c34.5-50.7,58.76-137.24,72.42-258,50,133.86,110.71,222.95,184.18,270.95l.14.09c40.54,26.05,84.92,39.25,131.92,39.25,30.9,0,63-5.48,96.63-16.58-19.44,26.37-29.11,50.31-29.48,72.79-.41,24.79,10.93,46.85,32.79,63.79l.34.26c34.12,25.38,92.88,38.9,170,39.14-48.38,21.33-92.55,45-131.37,70.65-91.18,60.14-149.53,129.08-168.75,199.37-11.11,40.64-9.18,81.53,5.38,121.42q-28.86-11.94-56.07-12c-44.32,0-83.85,24.13-114.33,69.78l-.1.16C1080.67,1390.66,1059,1480.88,1056.79,1586Z"/><path class="cls-3" d="M1042.87,1519.72c-59.56-83.43-131.28-108.43-184.53-113.55a256.37,256.37,0,0,0-30.68-1c-66.77,1.86-138,28.75-213.77,82.07,36.85-107.57,32.63-209.61-11.28-301.25l-.1-.2c-35.34-72.15-91.09-129.75-162.4-169,96.37-21.29,178-56,238.21-101.57,67.81-51.79,103.76-116,102.26-184.37,19.88,9.5,38.81,14.28,57.44,14.61,39.63.68,73.36-18.77,100.71-57.49l.08-.1c29.67-42.48,52.25-109.89,67.67-200.75,47.41,105.3,101.59,177,166.44,218.79l.16.1c42.15,26.7,88.27,40,137.58,39.63a304.19,304.19,0,0,0,63.73-7.63c-8.39,16.2-12.88,31.7-13.65,46.86-1.46,28.85,10.9,54.21,35.5,73.41l.55.42c25.82,19.32,65.07,31.91,115.19,37a877.44,877.44,0,0,0-79.1,45.72c-93.23,60.94-152.36,130.28-172.08,201.76a200.54,200.54,0,0,0-2.35,99.14,142.51,142.51,0,0,0-32.62-4c-47.94-.18-90.28,25.39-122.45,73.87a2.14,2.14,0,0,0-.13.19C1070.18,1363.13,1049.52,1434.24,1042.87,1519.72Z"/></g></svg>