<svg xmlns="http://www.w3.org/2000/svg" viewBox="0 0 2000 2000"><defs><style>.cls-1{fill:#ed1c24;}.cls-2{fill:#ffd100;}.cls-3{fill:#fff;}</style></defs><g id="explotion-3"><path d="M1646.31,476.71c-281.2,233.48-309.76,475.58-50.79,430.39-259,45.19-142.39,262,207.26,385.37-349.65-123.41-578.52-28.57-406.88,168.61-171.64-197.18-304.31,8.17-235.85,365.06C1091.59,1469.25,891.29,1322,804,1564.36,891.29,1322,642,1310.57,360.84,1544.05c281.2-233.48,309.77-475.57,50.79-430.39,259-45.18,142.39-262-207.26-385.37C554,851.7,782.89,756.86,611.25,559.69c171.64,197.17,304.31-8.18,235.85-365.07,68.46,356.89,268.76,504.15,356.1,261.79C1115.86,698.77,1365.11,710.19,1646.31,476.71Z"/><path class="cls-1" d="M812.58,1540.42c83.56-231.89-154.92-242.82-424-19.42,269-223.4,296.38-455,48.59-411.8C685,1066,573.44,858.56,238.9,740.48c334.54,118.08,553.53,27.34,389.3-161.32,164.23,188.66,291.16-7.82,225.66-349.3,65.5,341.48,257.15,482.37,340.71,250.48-83.56,231.89,154.92,242.82,424,19.42-269,223.4-296.38,455-48.59,411.8-247.79,43.24-136.24,250.64,198.3,368.73-334.54-118.09-553.52-27.35-389.3,161.32-164.22-188.67-291.16,7.81-225.66,349.29C1087.79,1449.42,896.14,1308.53,812.58,1540.42Z"/><path d="M828,1497.69c76.82-213.2-142.43-223.24-389.79-17.86,247.36-205.38,272.49-418.35,44.67-378.6,227.82-39.75,125.26-230.43-182.31-339,307.57,108.56,508.9,25.13,357.91-148.32,151,173.45,267.69-7.19,207.47-321.13,60.22,313.94,236.42,443.48,313.24,230.28-76.82,213.2,142.43,223.25,389.79,17.86-247.36,205.39-272.48,418.35-44.67,378.6-227.81,39.75-125.26,230.43,182.31,339C1399,1150,1197.7,1233.39,1348.69,1406.84,1197.7,1233.39,1081,1414,1141.22,1728,1081,1414,904.8,1284.49,828,1497.69Z"/><path class="cls-2" d="M843.38,1455c70.09-194.5-129.94-203.66-355.6-16.29,225.66-187.37,248.58-381.66,40.75-345.4C736.36,1057,642.8,883,362.2,784c280.6,99,464.27,22.93,326.53-135.31,137.74,158.24,244.21-6.56,189.27-293,54.94,286.41,215.69,404.59,285.77,210.09-70.08,194.5,129.94,203.66,355.61,16.29-225.67,187.37-248.59,381.66-40.76,345.4-207.83,36.26-114.27,210.22,166.33,309.26-280.6-99-464.27-22.93-326.53,135.31-137.74-158.24-244.21,6.56-189.27,293C1074.21,1378.63,913.47,1260.45,843.38,1455Z"/><path class="cls-3" d="M858.78,1412.22c63.35-175.81-117.45-184.09-321.42-14.73,204-169.36,224.69-345,36.83-312.19,187.86-32.78,103.29-190-150.33-279.54C677.48,895.28,843.5,826.49,719,683.46c124.51,143,220.74-5.93,171.08-264.81,49.66,258.88,194.95,365.7,258.3,189.89-63.35,175.81,117.45,184.09,321.42,14.73-204,169.36-224.69,345-36.83,312.19-187.86,32.78-103.29,190,150.34,279.54-253.63-89.52-419.65-20.73-295.14,122.3-124.51-143-220.74,5.93-171.08,264.81C1067.42,1343.23,922.13,1236.41,858.78,1412.22Z"/></g></svg>