<svg xmlns="http://www.w3.org/2000/svg" xmlns:xlink="http://www.w3.org/1999/xlink" viewBox="0 0 2000 914.07"><defs><radialGradient id="a" cx="118.2" cy="1202.42" r="637.96" gradientTransform="matrix(1, -0.07, 0.14, 1.99, 715.04, -1938.08)" gradientUnits="userSpaceOnUse"><stop offset="0" stop-color="#52ffff"/><stop offset="1" stop-color="#1c5ae8"/></radialGradient><pattern id="i" width="28.8" height="28.8" patternUnits="userSpaceOnUse" viewBox="0 0 28.8 28.8"><rect width="28.8" height="28.8" fill="none"/><path d="M28.8,31a2.16,2.16,0,1,0-2.16-2.16A2.16,2.16,0,0,0,28.8,31Z" fill="#231f20"/><path d="M14.4,31a2.16,2.16,0,1,0-2.16-2.16A2.16,2.16,0,0,0,14.4,31Z" fill="#231f20"/><path d="M28.8,16.56a2.16,2.16,0,1,0-2.16-2.16A2.16,2.16,0,0,0,28.8,16.56Z" fill="#231f20"/><path d="M14.4,16.56a2.16,2.16,0,1,0-2.16-2.16A2.16,2.16,0,0,0,14.4,16.56Z" fill="#231f20"/><path d="M7.2,23.76A2.16,2.16,0,1,0,5,21.6,2.16,2.16,0,0,0,7.2,23.76Z" fill="#231f20"/><path d="M21.6,23.76a2.16,2.16,0,1,0-2.16-2.16A2.16,2.16,0,0,0,21.6,23.76Z" fill="#231f20"/><path d="M7.2,9.36A2.16,2.16,0,1,0,5,7.2,2.16,2.16,0,0,0,7.2,9.36Z" fill="#231f20"/><path d="M21.6,9.36A2.16,2.16,0,1,0,19.44,7.2,2.16,2.16,0,0,0,21.6,9.36Z" fill="#231f20"/><path d="M0,31A2.16,2.16,0,0,0,2.16,28.8,2.16,2.16,0,0,0,0,26.64,2.16,2.16,0,0,0,0,31Z" fill="#231f20"/><path d="M0,16.56A2.16,2.16,0,0,0,2.16,14.4,2.16,2.16,0,0,0,0,12.24a2.16,2.16,0,1,0,0,4.32Z" fill="#231f20"/><path d="M28.8,2.16A2.16,2.16,0,0,0,31,0a2.16,2.16,0,0,0-4.32,0A2.16,2.16,0,0,0,28.8,2.16Z" fill="#231f20"/><path d="M14.4,2.16A2.16,2.16,0,0,0,16.56,0a2.16,2.16,0,1,0-4.32,0A2.16,2.16,0,0,0,14.4,2.16Z" fill="#231f20"/><path d="M0,2.16A2.16,2.16,0,0,0,2.16,0,2.16,2.16,0,0,0,0-2.16,2.16,2.16,0,0,0-2.16,0,2.16,2.16,0,0,0,0,2.16Z" fill="#231f20"/></pattern></defs><g style="isolation:isolate"><path d="M304.42,315.77l3.05-.68c59.57-6.28,83.67,15.9,82.35,64.82-.54,34.12-27.7,84.32-70.76,146.08.25,1,.51,1.9.77,2.85,64.15,10.54,101.43,35.35,117.27,73q3,7,6.12,13.89c23.16,50.48,9.48,98.75-31.75,138.62-34,11-54.24,16.15-63.45,16.91-44.16,3.41-91.16-11.18-134.45-42.74l-2.36-2.29c-3.88-3.92-8.77-14.93-11.05-33.86-76.28-113.91-56-206.08-29.7-266.65C206.77,364.42,257.61,326.35,304.42,315.77ZM233.86,596.53c11.15,41.84,28,78.12,46.24,109.32l7.79,2c62-6.43,86.09-32.44,84.2-79-1.4-2.72-2.79-5.45-4.14-8.18C357,598.09,313.19,590.14,233.86,596.53Zm-10.15-86.12,6-1c50.8-50.22,81.09-91.62,84.35-120.37-6.39-2.45-12.31-3.11-17.87-2l-6,1.2C263.61,393.74,230.76,436.08,223.71,510.41Z"/><path d="M517,376.19l7.18-1.38c10.75-2,28.44,9.36,56.19,34.44,19.67,29.6,33.13,58.64,39.43,86.86,12.51,54.23,3.78,116.78-13.69,183.78-18.22,26.71-31.34,40.29-43.86,41.92l-10.48,1.36c-27.65,3.53-57.31-9.35-86.39-38.26Q451,669.16,443.21,655q-1.79-3.25-3.52-6.53c-27.45-51.11-30-115.6,5.45-198C470.32,405.5,496.23,380.19,517,376.19ZM502.76,653.82q6.17,7.45,12.49,14.9l4.56-.63c33.61-4.61,39.59-48.6,44.18-135.91q-2.57-14-4.59-28c-15.7-40.48-24.24-60.27-31-59.07l-12.17,2.19c-32.8,48.61-46.49,108.85-26.3,180Q496,640.57,502.76,653.82Z"/><path d="M735.39,320.3l7.37-1.41c11-2.08,30,10.24,59.37,37.06,21.06,31.56,34.82,62.45,40.35,92.55,11.09,57.87-3.23,124.89-32.43,198.48-23.36,29.56-39.88,44.95-53.18,47l-11.16,1.73c-29.54,4.56-57.53-9.15-82.69-40.76q-12.27-17.22-18.21-32.75-1.37-3.57-2.7-7.16c-21.15-56-17-126.92,20.24-215.56C688.61,351.1,714,324.39,735.39,320.3ZM706.82,620q5.31,8.12,10.7,16.21l4.83-.77c35.22-5.57,50.12-54.2,60.52-148.16q-1.82-15-3.34-30.1c-14.73-43.4-24-64.55-30.94-63.3L736,396.22c-34.18,52-50.74,117.14-38.85,194.84Q701.77,605.58,706.82,620Z"/><path d="M950.54,294.55l7.05-1.28c10.48-1.91,30.08,10.17,59.87,36.18,21.93,30.53,35.78,60.32,40.93,89.44,10.28,56-6.69,121-43.7,194.08-26.07,29.54-44.48,45.26-57.52,47.56l-11,1.94c-29.13,5.12-53.48-8.14-73.32-39.49a139.15,139.15,0,0,1-13.48-32.55q-.92-3.55-1.81-7.12c-14.42-55.72-6.27-126.2,26.66-212.47Q919.6,300.3,950.54,294.55ZM919,587.58q4.2,8,8.41,16l4.71-.82c34-6,55.63-54.56,68.42-146.12q-1.35-14.64-2.7-29.28c-13.92-42.16-24-62.66-30.53-61.49L955.18,368c-31.42,50.25-47.22,114-42.66,190.9Q915.69,573.26,919,587.58Z"/><path d="M1126.35,265.54c26.13-4.55,46.69,20.94,58.49,76.63,14.52,40.25,22.69,60.1,26.33,59.45,32.59-85.48,47-133,53.78-144.88,7.84-6.23,14.87-9.85,21.23-10.9,16.59-2.74,31.81,8.76,44.48,34.47,23.78,154.66,11.9,250.55,13.52,281.94-5.45,17.16-14,26.93-25.17,29.2l-4.7,1c-18.29,3.71-27.36-10.63-29.17-42.79a1372.85,1372.85,0,0,0-3.49-155.69q-13,24.38-26.72,48.93c-10.78,20-24,31.52-39.44,34.35l-2.45.45c-30.2,5.55-53.16-21.49-72.26-80.88-1.44-7.94-3.77-11.63-6.92-11.07-18.44,79.36-34.21,157.29-43.59,233.14-5.43,7.66-10.92,12-16.57,13.06l-6.74,1.26q-25.43.47-29.39-22l-1.65-9.48c5.66-79.58,25.1-174,50.66-281.95C1095.34,286.7,1108.25,268.69,1126.35,265.54Z"/><path d="M1419.41,217.2c25.37-3.91,50.88,20.46,67.21,73.77,17.51,38.61,25.62,57.73,29.38,57.1,30.28-82.14,36.16-126.17,41.62-137.25,7-5.73,13.46-9,19.69-9.9,16.2-2.3,33.62,8.6,49.68,32.71,22.3,72.23,24.6,131.83,23.13,176.89-1.83,45.11-7.41,75.69-9,90.84-7.5,16.63-17.44,26.26-28.87,28.72l-4.8,1c-18.78,4-25.33-9.7-23.62-40.82a584.29,584.29,0,0,0,2.69-149.65q-12.4,23.25-26.44,46.95c-11.08,19.32-24.89,30.56-40.38,33.43l-2.47.46c-30.71,5.68-51.22-20.54-71.87-78.08-1.7-7.68-4.2-11.26-7.33-10.72-15.31,76.73-35.9,153.57-57,229.36q-9.89,11.63-18.57,13.4l-6.9,1.4c-16.92.71-25.36-6.46-25.75-21.42-.08-3.15-.17-6.31-.28-9.46,16.7-79.74,41.38-173.36,56.52-277.27C1391.45,236.94,1401.57,220,1419.41,217.2Z"/><path d="M1670.59,438.78c25.46-.39,38.14,7.64,36.75,24.35q-.46,5.64-1.09,11.28c-1.86,16.62-16.42,29.94-42.09,39.92l-4.83,1c-19,.39-28.86-8.74-31.25-27.21.12-1.52.24-3,.34-4.56C1629.83,462.62,1643.22,447.71,1670.59,438.78Zm-6-275,4.55-.57c17.6.28,31,6.91,39,20q1.32,2.16,2.62,4.32c-.19,3.74,23,57.64.7,173.14.57,28.74-10.64,45.13-29.47,48.69-17.14,3.21-27-5.56-31.61-26.21-.92-8.4,2.69-30.47,6.09-65.4,3-34.87,5.83-82.6-5.36-140.82C1654.62,168.82,1659,164.48,1664.54,163.78Z"/><path d="M1818,390c32.7-.52,49.48,9.14,47.73,29.43q-.62,6.86-1.5,13.73c-2.7,20.21-22.14,36.65-55.32,49.27l-6.19,1.34c-24.11.76-36-10.38-38.65-33.09q.27-2.81.5-5.6C1766.61,419.22,1783.19,400.89,1818,390ZM1736.86,64.58q2.57-.19,5.13-.36a96.31,96.31,0,0,1,58.21,24.61q2.77,2.49,5.49,5c1.68,2,15.72,18.48,31.42,51.1,15.12,32.73,31.89,81.62,25.71,150.79,5.26,34.4-8.19,54.19-32.06,58.47-21.87,3.88-35-6.84-43.44-31.93-2.26-10.18-.11-37-3.29-78.73-4-41.63-13.24-98.23-56.36-164.94C1727.84,69.6,1730.56,65,1736.86,64.58Z"/><path d="M305.82,308.58l3.06-.63c59.66-5.24,83.37,17.35,81.2,66.25C389,408.3,360.91,458,316.78,519c.23,1,.48,1.91.72,2.86,64,11.67,100.8,37.11,116,75q2.85,7,5.88,14c22.27,50.88,7.75,98.91-34.17,138-34.14,10.37-54.51,15.2-63.74,15.8-44.21,2.64-90.95-12.77-133.68-45.08l-2.31-2.33c-3.82-4-8.52-15.09-10.47-34.05-74.28-115.23-52.43-207-25-267.13C207.33,355.51,258.82,318.34,305.82,308.58ZM230.36,588.06c10.43,42,26.63,78.6,44.33,110.11l7.75,2.17c62.15-5.34,86.65-30.93,85.57-77.53q-2-4.12-4-8.26C353.46,591.77,309.79,583.06,230.36,588.06Zm-8.64-86.28,6-.9c51.66-49.33,82.67-90.2,86.43-118.89-6.34-2.56-12.25-3.32-17.83-2.31l-6,1.1C263.64,385.82,230.07,427.58,221.72,501.78Z"/><path d="M517.31,372.7l7.2-1.26c10.78-1.85,28.27,9.86,55.58,35.42,19.15,29.93,32.11,59.2,37.9,87.53,11.57,54.44,1.74,116.84-16.89,183.52-18.68,26.38-32,39.73-44.58,41.15L546,720.23c-27.71,3-57.14-10.35-85.71-39.76q-14.16-16-21.65-30.27c-1.15-2.2-2.29-4.39-3.41-6.59-26.55-51.58-28-116.1,8.9-197.86C470.12,401.18,496.47,376.33,517.31,372.7ZM498.22,650q6,7.55,12.23,15.12l4.57-.56c33.69-4,40.43-47.9,46.54-135.12q-2.31-14-4.09-28.11c-15-40.75-23.19-60.68-30-59.6l-12.21,2c-33.63,48-48.37,108-29.44,179.51Q491.71,636.66,498.22,650Z"/><path d="M736.64,320.62l7.4-1.27c11-1.89,29.81,10.76,58.71,38.08,20.5,31.93,33.72,63.05,38.73,93.25,10.07,58.05-5.41,124.81-35.9,197.88-23.87,29.15-40.65,44.25-54,46.09l-11.2,1.53c-29.61,4-57.36-10.15-82-42.19q-12-17.43-17.64-33.07-1.29-3.6-2.57-7.2c-20.18-56.42-14.81-127.2,24-215.18C689.33,350.61,715.14,324.34,736.64,320.62Zm-33.8,299.21Q708,628,713.25,636.22l4.85-.69c35.31-4.95,51-53.32,63.1-147.08q-1.56-15.06-2.82-30.15c-14-43.65-22.85-65-29.82-63.83l-12.66,2.08c-35.09,51.37-52.78,116.23-42.26,194.13Q698,605.28,702.84,619.83Z"/><path d="M952.2,298.64l7.07-1.16c10.52-1.72,29.9,10.7,59.24,37.22,21.39,30.91,34.72,60.94,39.35,90.14,9.31,56.14-8.79,120.85-47.08,193.29-26.57,29.08-45.26,44.48-58.34,46.55l-11,1.74c-29.22,4.62-53.34-9.07-72.62-40.76a138.68,138.68,0,0,1-12.91-32.78q-.85-3.57-1.69-7.15c-13.44-56-4.07-126.29,30.36-212Q921.17,303.83,952.2,298.64ZM915.53,591.07l8.13,16.13,4.73-.74c34.1-5.36,56.57-53.58,71-144.9q-1.11-14.67-2.19-29.33c-13.18-42.39-22.87-63.07-29.46-62l-12.14,2c-32.29,49.7-49.2,113.19-46,190.13Q912.49,576.69,915.53,591.07Z"/><path d="M1128.5,272.7c26.2-4.1,46.31,21.75,57.13,77.64,13.82,40.49,21.65,60.48,25.29,59.9,34.09-84.9,49.31-132.2,56.3-143.92,8-6.09,15-9.59,21.42-10.53,16.64-2.45,31.66,9.31,43.87,35.24,21.08,155.06,7.53,250.72,8.6,282.13-5.75,17.07-14.44,26.68-25.67,28.76l-4.72.87c-18.35,3.4-27.17-11.1-28.42-43.28a1373,1373,0,0,0-.77-155.73q-13.46,24.15-27.57,48.46c-11.13,19.84-24.58,31.09-40,33.65l-2.46.41c-30.3,5-52.78-22.42-70.84-82.13-1.3-8-3.57-11.69-6.73-11.19-19.82,79-36.94,156.67-47.64,232.34-5.57,7.57-11.13,11.82-16.8,12.78l-6.76,1.13q-25.44,0-29-22.52c-.5-3.17-1-6.34-1.49-9.51,7-79.47,28.14-173.5,55.57-281C1097.12,293.32,1110.34,275.53,1128.5,272.7Z"/><path d="M1422.35,229.48c25.44-3.46,50.52,21.35,65.92,74.94,16.83,38.9,24.6,58.16,28.37,57.6,31.71-81.6,38.36-125.52,44-136.51,7.06-5.61,13.61-8.77,19.86-9.55,16.24-2,33.47,9.18,49.11,33.57,21,72.61,22.29,132.24,20,177.27-2.61,45.07-8.73,75.54-10.63,90.67-7.79,16.49-17.9,25.95-29.36,28.21l-4.83,1c-18.84,3.7-25.15-10.14-22.9-41.23a584,584,0,0,0,5.3-149.58q-12.8,23-27.25,46.48c-11.42,19.12-25.43,30.12-41,32.72l-2.48.41c-30.8,5.15-50.85-21.42-70.5-79.31-1.55-7.72-4-11.33-7.14-10.85-16.64,76.45-38.57,152.92-61,228.32q-10.09,11.46-18.8,13.08l-6.92,1.28c-16.93.41-25.25-6.9-25.37-21.86q0-4.74-.12-9.47c18.08-79.44,44.4-172.61,61.35-276.24C1394.05,248.73,1404.46,231.92,1422.35,229.48Z"/><path d="M1669.63,455.41c25.46.06,38,8.31,36.32,25q-.57,5.63-1.29,11.26c-2.15,16.58-16.94,29.65-42.78,39.17l-4.84.95c-19,.06-28.71-9.24-30.77-27.75l.42-4.55C1628.45,478.53,1642.11,463.86,1669.63,455.41Zm-1.26-275.06,4.56-.49c17.6.59,30.84,7.45,38.65,20.64.85,1.46,1.7,2.91,2.53,4.37-.25,3.73,22,58-2.32,173.12.07,28.75-11.43,44.94-30.31,48.17-17.19,2.92-26.88-6-31.15-26.76-.77-8.41,3.22-30.41,7.23-65.28,3.63-34.81,7.27-82.49-2.9-140.89C1658.37,185.21,1662.79,181,1668.37,180.35Z"/><path d="M1817.9,409.17c32.7.06,49.31,10,47.2,30.26q-.72,6.84-1.74,13.7c-3,20.16-22.77,36.26-56.16,48.29l-6.21,1.24c-24.12.34-35.77-11-38.07-33.76q.32-2.81.6-5.59C1766,437.53,1782.88,419.49,1817.9,409.17ZM1742.42,82.42l5.13-.27a96.37,96.37,0,0,1,57.78,25.63c1.81,1.69,3.62,3.38,5.4,5.08,1.64,2,15.4,18.74,30.52,51.63,14.54,33,30.46,82.16,23.08,151.22,4.66,34.48-9.14,54-33.08,57.9-21.94,3.49-34.91-7.45-42.87-32.69-2.09-10.21.53-37-1.92-78.77-3.23-41.7-11.53-98.45-53.47-165.9C1733.31,87.29,1736.11,82.76,1742.42,82.42Z"/><path d="M307.33,301.41l3.07-.57c59.75-4.2,83.06,18.8,80,67.65-1.73,34.08-30.63,83.31-75.82,143.52.22,1,.45,1.92.67,2.88C379,527.66,415.43,553.75,430,591.9q2.71,7.07,5.63,14.1c21.38,51.26,6,99-36.57,137.43-34.32,9.77-54.77,14.24-64,14.68-44.25,1.87-90.72-14.35-132.88-47.4-.76-.79-1.52-1.58-2.27-2.38-3.75-4-8.25-15.23-9.87-34.22C117.73,557.6,141.18,466.2,169.61,406.59,208,346.62,260.18,310.35,307.33,301.41ZM227,579.53c9.69,42.21,25.25,79.05,42.4,110.87l7.72,2.31c62.22-4.26,87.17-29.42,86.91-76q-2-4.15-3.86-8.32C350,585.39,306.52,575.92,227,579.53Zm-7.13-86.41,6-.8c52.52-48.42,84.23-88.74,88.5-117.36-6.3-2.67-12.2-3.54-17.79-2.62l-6,1C263.82,377.9,229.52,419.07,219.88,493.12Z"/><path d="M517.67,369.21l7.22-1.13c10.82-1.66,28.1,10.35,55,36.38,18.62,30.27,31.07,59.76,36.37,88.18,10.62,54.64-.3,116.85-20.1,183.2C577,701.89,563.4,715,550.83,716.2l-10.52,1c-27.75,2.57-56.95-11.34-85-41.25Q441.44,659.7,434.2,645.3c-1.12-2.22-2.21-4.43-3.3-6.65C405.26,586.61,405,522.08,443.26,441,470,396.87,496.77,372.48,517.67,369.21Zm-23.92,277q5.91,7.67,12,15.33l4.57-.47c33.75-3.43,41.26-47.19,48.9-134.29q-2.09-14.06-3.6-28.17c-14.29-41-22.13-61.09-29-60.12l-12.24,1.76c-34.47,47.44-50.25,107.16-32.57,179Q487.47,632.7,493.75,646.17Z"/><path d="M737.88,321l7.42-1.14c11.07-1.7,29.62,11.28,58,39.1,19.94,32.28,32.62,63.63,37.1,93.91,9,58.21-7.6,124.69-39.35,197.22-24.38,28.73-41.42,43.53-54.78,45.14l-11.22,1.34c-29.68,3.52-57.17-11.16-81.21-43.62q-11.67-17.64-17.06-33.37c-.83-2.41-1.64-4.83-2.45-7.25-19.19-56.75-12.59-127.43,27.75-214.72C690.05,350.13,716.32,324.31,737.88,321Zm-39,298.57q5,8.28,10.12,16.57l4.86-.6c35.39-4.33,52-52.42,65.66-146q-1.31-15.09-2.29-30.2C764,415.47,755.5,394,748.51,395l-12.7,1.85c-36,50.75-54.79,115.3-45.63,193.37Q694.32,604.9,698.87,619.54Z"/><path d="M953.8,302.76l7.09-1c10.54-1.54,29.7,11.22,58.57,38.24,20.85,31.28,33.65,61.54,37.78,90.81,8.32,56.3-10.91,120.68-50.45,192.44-27.08,28.62-46,43.69-59.14,45.53l-11,1.55c-29.29,4.11-53.17-10-71.89-42a138.78,138.78,0,0,1-12.34-33q-.79-3.59-1.57-7.18c-12.46-56.19-1.86-126.34,34.07-211.41Q922.69,307.41,953.8,302.76ZM912,594.5l7.84,16.27,4.75-.66c34.18-4.76,57.5-52.58,73.47-143.64q-.84-14.69-1.67-29.36c-12.45-42.62-21.77-63.46-28.37-62.51l-12.18,1.74c-33.15,49.13-51.17,112.32-49.3,189.3Q909.24,580.09,912,594.5Z"/><path d="M1130.52,279.89c26.26-3.63,45.92,22.56,55.77,78.63,13.11,40.73,20.58,60.85,24.24,60.34,35.56-84.3,51.6-131.32,58.8-142.92,8.06-5.95,15.21-9.33,21.6-10.16,16.68-2.16,31.49,9.87,43.25,36,18.37,155.41,3.15,250.82,3.67,282.24-6,17-14.9,26.43-26.17,28.31l-4.73.79c-18.4,3.07-27-11.57-27.66-43.77a1372.71,1372.71,0,0,0,2-155.72q-13.87,23.89-28.42,48c-11.47,19.64-25.12,30.66-40.6,32.95l-2.48.36c-30.37,4.49-52.37-23.33-69.39-83.35-1.16-8-3.36-11.76-6.53-11.31-21.19,78.67-39.67,156-51.69,231.48-5.7,7.47-11.34,11.62-17,12.48l-6.78,1q-25.42-.4-28.6-23l-1.32-9.53c8.43-79.34,31.16-173,60.47-280C1098.78,300,1112.31,282.41,1130.52,279.89Z"/><path d="M1425.08,241.81c25.5-3,50.14,22.22,64.6,76.08,16.15,39.19,23.59,58.58,27.36,58.08,33.13-81,40.55-124.83,46.39-135.71,7.15-5.49,13.76-8.54,20-9.21,16.28-1.73,33.3,9.77,48.52,34.42,19.76,73,20,132.61,16.93,177.6-3.39,45-10.05,75.38-12.21,90.47-8.08,16.35-18.35,25.63-29.85,27.69l-4.84.86c-18.91,3.38-25-10.57-22.18-41.62A584.33,584.33,0,0,0,1587.73,371q-13.2,22.8-28.06,46c-11.75,18.93-26,29.68-41.52,32l-2.49.37c-30.88,4.61-50.47-22.31-69.1-80.54-1.42-7.74-3.8-11.4-7-11-18,76.15-41.24,152.22-65,227.22q-10.29,11.28-19,12.75l-7,1.16c-16.93.12-25.12-7.34-25-22.3,0-3.16,0-6.32,0-9.47,19.47-79.11,47.41-171.81,66.16-275.13C1396.45,260.56,1407.15,243.94,1425.08,241.81Z"/><path d="M1668.38,472c25.45.5,37.84,9,35.87,25.62q-.66,5.61-1.48,11.24c-2.44,16.54-17.46,29.35-43.45,38.42l-4.87.87c-19-.28-28.54-9.75-30.28-28.3.17-1.51.34-3,.5-4.53C1626.8,494.42,1640.71,480,1668.38,472Zm3.54-275,4.57-.41c17.58.89,30.7,8,38.28,21.31q1.24,2.2,2.46,4.41c-.32,3.74,20.93,58.41-5.34,173.06-.44,28.74-12.22,44.73-31.15,47.63-17.24,2.62-26.78-6.5-30.68-27.29-.62-8.42,3.75-30.35,8.37-65.15,4.23-34.74,8.7-82.35-.45-140.92C1661.84,201.67,1666.32,197.49,1671.92,197Z"/><path d="M1817.43,428.38c32.7.62,49.13,10.86,46.67,31.08-.57,4.55-1.22,9.1-2,13.66-3.4,20.11-23.4,35.86-57,47.31l-6.23,1.12c-24.12-.08-35.57-11.62-37.48-34.42q.38-2.79.7-5.57C1765,455.83,1782.23,438.09,1817.43,428.38Zm-69.77-328,5.14-.18a96.31,96.31,0,0,1,57.32,26.63q2.69,2.59,5.31,5.17c1.61,2.07,15.07,19,29.62,52.17,14,33.23,29,82.67,20.43,151.59,4.06,34.56-10.08,53.87-34.08,57.31-22,3.11-34.77-8.06-42.3-33.43-1.9-10.24,1.19-36.94-.54-78.79-2.5-41.75-9.81-98.63-50.56-166.81C1738.47,105.07,1741.35,100.59,1747.66,100.36Z"/><path d="M309,294.27l3.08-.52c59.81-3.16,82.72,20.25,78.84,69-2.32,34-32.08,82.76-78.31,142.17.2,1,.41,1.93.62,2.89,63.51,13.89,99.44,40.61,113.3,79q2.6,7.1,5.38,14.19c20.48,51.63,4.3,99.11-39,136.77-34.48,9.18-55,13.29-64.25,13.57-44.27,1.09-90.45-15.94-132-49.72-.75-.81-1.5-1.61-2.23-2.41-3.68-4.12-8-15.38-9.27-34.4C114.93,547.12,140,456.13,169.44,397,208.91,337.74,261.67,302.38,309,294.27ZM223.81,571c9,42.36,23.87,79.48,40.46,111.59L272,685c62.29-3.17,87.67-27.89,88.22-74.5q-1.91-4.18-3.71-8.39C346.71,579,303.37,568.72,223.81,571Zm-5.62-86.53,6.05-.69c53.36-47.5,85.77-87.25,90.54-115.8-6.26-2.78-12.14-3.75-17.74-2.93l-6,.89C264.13,370,229.12,410.56,218.19,484.42Z"/><path d="M518.1,365.73l7.24-1c10.85-1.48,27.91,10.83,54.32,37.33,18.08,30.59,30,60.29,34.82,88.8,9.66,54.81-2.34,116.83-23.29,182.82-19.59,25.72-33.4,38.59-46,39.57l-10.54.8c-27.79,2.08-56.74-12.33-84.27-42.73q-13.58-16.47-20.57-31-1.6-3.36-3.18-6.7c-24.73-52.48-23.89-117,15.8-197.43C470,392.55,497.15,368.64,518.1,365.73Zm-28.75,276.5q5.76,7.77,11.7,15.54l4.58-.39c33.8-2.84,42.07-46.47,51.23-133.42q-1.83-14.1-3.11-28.23c-13.56-41.25-21-61.46-27.91-60.62l-12.27,1.55C478.28,483.49,461.45,542.93,477.88,615Q483.3,628.65,489.35,642.23Z"/><path d="M739.12,321.34l7.43-1c11.1-1.51,29.42,11.79,57.35,40.11,19.37,32.62,31.51,64.19,35.45,94.54,8,58.36-9.76,124.54-42.78,196.51-24.87,28.29-42.17,42.8-55.56,44.17l-11.24,1.15c-29.73,3-57-12.16-80.44-45Q638,633.93,632.86,618.12c-.78-2.43-1.56-4.86-2.32-7.3-18.2-57.08-10.37-127.63,31.49-214.21C690.79,349.66,717.51,324.31,739.12,321.34ZM694.9,619.19q4.88,8.37,9.83,16.74l4.87-.51c35.46-3.72,52.88-51.51,68.19-144.8q-1-15.11-1.76-30.23c-12.44-44.11-20.57-65.72-27.58-64.83l-12.73,1.64c-36.85,50.11-56.8,114.32-49,192.54Q690.6,604.47,694.9,619.19Z"/><path d="M955.32,306.9l7.1-.92c10.57-1.35,29.51,11.74,57.9,39.27,20.3,31.63,32.57,62.11,36.19,91.45,7.34,56.43-13,120.47-53.8,191.53-27.57,28.14-46.79,42.88-59.93,44.49l-11.07,1.36c-29.36,3.59-53-10.93-71.15-43.27A138.8,138.8,0,0,1,848.8,597.6l-1.44-7.21c-11.48-56.4.35-126.36,37.75-210.78Q924.13,311,955.32,306.9Zm-46.86,291q3.78,8.21,7.56,16.4l4.76-.57c34.26-4.17,58.41-51.58,76-142.34q-.6-14.69-1.17-29.38c-11.69-42.83-20.65-63.84-27.27-63l-12.2,1.53c-34,48.54-53.13,111.41-52.6,188.41Q905.94,583.4,908.46,597.87Z"/><path d="M1132.41,287.12c26.33-3.17,45.52,23.35,54.39,79.59,12.4,41,19.52,61.2,23.18,60.75,37-83.66,53.89-130.4,61.29-141.87,8.16-5.81,15.37-9.06,21.77-9.78,16.72-1.86,31.32,10.41,42.62,36.76,15.66,155.69-1.22,250.83-1.25,282.25-6.34,16.86-15.36,26.17-26.66,27.85l-4.75.71c-18.45,2.75-26.76-12-26.89-44.25a1372,1372,0,0,0,4.66-155.66q-14.28,23.65-29.25,47.46c-11.8,19.44-25.64,30.22-41.17,32.24l-2.48.32c-30.45,4-52-24.25-67.93-84.55-1-8-3.15-11.81-6.33-11.42-22.56,78.29-42.39,155.28-55.72,230.54-5.83,7.37-11.54,11.42-17.23,12.18l-6.8.9q-25.42-.85-28.2-23.52c-.38-3.19-.77-6.37-1.15-9.56,9.82-79.17,34.17-172.42,65.34-278.91C1100.33,306.64,1114.16,289.32,1132.41,287.12Z"/><path d="M1427.59,254.19c25.55-2.58,49.74,23.09,63.27,77.19,15.46,39.47,22.56,59,26.34,58.55,34.54-80.44,42.72-124.1,48.75-134.88,7.25-5.36,13.91-8.3,20.18-8.85,16.3-1.45,33.12,10.34,47.9,35.26,18.49,73.29,17.66,132.94,13.84,177.86-4.18,44.95-11.36,75.19-13.79,90.24-8.36,16.21-18.79,25.31-30.33,27.17l-4.85.78c-19,3-24.79-11-21.46-42A583.72,583.72,0,0,0,1588,386.2q-13.59,22.57-28.86,45.5C1547,450.42,1532.64,460.92,1517,463l-2.49.32c-31,4.07-50.08-23.18-67.69-81.73-1.29-7.76-3.6-11.46-6.76-11.09-19.3,75.82-43.88,151.48-69,226.06q-10.48,11.09-19.24,12.41l-7,1c-16.93-.18-25-7.78-24.59-22.74.08-3.15.16-6.31.21-9.46,20.85-78.76,50.4-171,71-273.94C1398.64,272.43,1409.63,256,1427.59,254.19Z"/><path d="M1666.83,488.61c25.45.94,37.69,9.63,35.43,26.24q-.77,5.6-1.68,11.21c-2.72,16.5-18,29-44.12,37.66l-4.88.78c-19-.61-28.36-10.24-29.78-28.82.2-1.51.39-3,.58-4.52C1624.88,510.28,1639,496.09,1666.83,488.61Zm8.35-274.94,4.57-.33c17.57,1.2,30.56,8.52,37.9,22,.81,1.48,1.6,3,2.39,4.45-.39,3.73,19.9,58.76-8.36,172.94-.94,28.73-13,44.51-32,47.08-17.28,2.32-26.66-7-30.19-27.83-.48-8.43,4.28-30.28,9.49-65,4.85-34.66,10.15-82.18,2-140.9C1665,218.18,1669.57,214.08,1675.18,213.67Z"/><path d="M1816.63,447.58c32.68,1.19,48.93,11.71,46.12,31.88q-1,6.81-2.22,13.63c-3.75,20.05-24,35.45-57.82,46.31l-6.25,1c-24.11-.5-35.36-12.24-36.87-35.07.28-1.85.55-3.71.8-5.56C1763.75,474.1,1781.27,456.67,1816.63,447.58Zm-64-329.19c1.72,0,3.43-.07,5.15-.09a96.25,96.25,0,0,1,56.84,27.63q2.64,2.63,5.22,5.26c1.58,2.09,14.74,19.27,28.7,52.67,13.39,33.47,27.58,83.17,17.79,151.93,3.45,34.62-11,53.69-35.08,56.71-22,2.72-34.63-8.67-41.71-34.16-1.72-10.28,1.83-36.93.84-78.8-1.77-41.78-8.09-98.79-47.65-167.66C1743.33,122.94,1746.28,118.5,1752.59,118.39Z"/><path d="M310.74,287.16l3.09-.47c59.86-2.11,82.36,21.7,77.63,70.41-2.92,34-33.52,82.18-80.78,140.78.18,1,.37,1.94.57,2.9,63.26,15,98.72,42.34,111.9,81q2.48,7.14,5.13,14.28c19.58,52,2.57,99.17-41.34,136.07-34.64,8.57-55.24,12.32-64.48,12.44-44.29.32-90.16-17.51-131.14-52l-2.19-2.46c-3.6-4.17-7.71-15.5-8.67-34.54-68.14-119-41.52-209.49-11-268.07C209.93,328.88,263.3,294.45,310.74,287.16Zm-90,275.15c8.22,42.51,22.48,79.88,38.51,112.28l7.63,2.58c62.34-2.09,88.14-26.36,89.51-72.95-1.22-2.82-2.4-5.64-3.57-8.46C343.5,572.46,300.35,561.47,220.76,562.31Zm-4.11-86.61,6.07-.59c54.17-46.56,87.28-85.74,92.54-114.2-6.21-2.89-12.07-4-17.69-3.24l-6.05.78C264.59,362.09,228.87,402,216.65,475.7Z"/><path d="M518.59,362.26l7.25-.87c10.87-1.29,27.73,11.31,53.66,38.27,17.55,30.9,29,60.8,33.27,89.39,8.7,55-4.38,116.77-26.48,182.38-20,25.38-34.07,38-46.67,38.77l-10.55.62c-27.83,1.59-56.52-13.33-83.51-44.2q-13.29-16.71-20-31.36-1.56-3.37-3.06-6.75c-23.82-52.91-21.85-117.41,19.24-197.12C470,388.24,497.59,364.8,518.59,362.26ZM485,638.22q5.63,7.86,11.42,15.74l4.59-.31c33.85-2.26,42.88-45.73,53.55-132.5Q553,507,552,492.86c-12.84-41.48-20-61.82-26.84-61.09l-12.3,1.33c-36.11,46.21-54,105.34-38.79,177.72Q479.21,624.53,485,638.22Z"/><path d="M740.35,321.74l7.45-.89c11.12-1.31,29.21,12.31,56.64,41.1,18.8,33,30.38,64.73,33.8,95.15,7,58.5-11.94,124.35-46.21,195.73-25.36,27.86-42.91,42.06-56.32,43.2l-11.26,1c-29.78,2.48-56.75-13.15-79.64-46.43q-11.05-18-15.89-33.94c-.74-2.44-1.47-4.89-2.19-7.33-17.19-57.4-8.13-127.8,35.23-213.63C691.53,349.21,718.69,324.32,740.35,321.74Zm-49.41,297q4.72,8.46,9.53,16.92l4.88-.43c35.53-3.1,53.78-50.58,70.71-143.58q-.76-15.14-1.23-30.26c-11.67-44.32-19.43-66.07-26.45-65.3l-12.75,1.41C697.91,447,676.84,510.83,683.28,589.17Q686.9,604,690.94,618.76Z"/><path d="M956.77,311.07l7.12-.79c10.59-1.18,29.29,12.24,57.2,40.26,19.75,32,31.48,62.68,34.59,92.08,6.35,56.55-15.11,120.22-57.14,190.56-28,27.65-47.52,42.05-60.69,43.44l-11.09,1.16c-29.43,3.08-52.79-11.85-70.39-44.51a139.07,139.07,0,0,1-11.18-33.41q-.66-3.61-1.31-7.23C833.38,536,846.43,466.3,885.3,382.54Q925.5,314.62,956.77,311.07ZM904.84,601.18q3.64,8.27,7.27,16.53l4.77-.5c34.33-3.56,59.3-50.54,78.44-141q-.33-14.7-.65-29.4c-10.95-43-19.54-64.19-26.17-63.47l-12.23,1.32c-34.84,47.94-55.06,110.46-55.87,187.47Q902.56,586.66,904.84,601.18Z"/><path d="M1134.18,294.38c26.37-2.71,45.11,24.15,53,80.53,11.68,41.16,18.45,61.53,22.12,61.14,38.48-83,56.15-129.43,63.76-140.77,8.25-5.67,15.52-8.8,21.93-9.4,16.75-1.57,31.13,11,42,37.49,12.94,156-5.6,250.77-6.18,282.19-6.63,16.75-15.81,25.89-27.14,27.38l-4.76.63c-18.5,2.42-26.55-12.51-26.11-44.72a1373,1373,0,0,0,7.38-155.55q-14.7,23.4-30.07,46.94c-12.15,19.24-26.18,29.77-41.74,31.52l-2.48.28c-30.51,3.42-51.53-25.15-66.44-85.72-.89-8-3-11.87-6.13-11.53-23.93,77.88-45.1,154.51-59.74,229.53-6,7.26-11.73,11.22-17.44,11.87l-6.81.78q-25.41-1.29-27.79-24c-.33-3.19-.65-6.38-1-9.57,11.19-79,37.17-171.8,70.2-277.73C1101.76,313.34,1115.89,296.26,1134.18,294.38Z"/><path d="M1429.89,266.61c25.58-2.13,49.33,24,61.9,78.28,14.78,39.73,21.53,59.37,25.32,59,35.94-79.83,44.88-123.35,51.1-134,7.34-5.23,14-8.05,20.33-8.5,16.33-1.16,32.94,10.92,47.28,36.09,17.21,73.61,15.34,133.23,10.73,178.08-5,44.87-12.67,75-15.36,90-8.65,16.06-19.23,25-30.8,26.64l-4.87.69c-19,2.71-24.59-11.45-20.71-42.37a584.2,584.2,0,0,0,13.12-149.1q-14,22.34-29.65,45c-12.4,18.5-27,28.75-42.61,30.53l-2.5.29c-31,3.52-49.66-24.06-66.25-82.9-1.15-7.79-3.4-11.53-6.56-11.21-20.62,75.47-46.52,150.69-72.91,224.82Q1356.77,618.83,1348,620l-7,.92c-16.92-.47-24.85-8.22-24.19-23.16q.21-4.74.38-9.46c22.21-78.38,53.37-170.06,75.72-272.66C1400.62,284.34,1411.9,268.1,1429.89,266.61Z"/><path d="M1665,505.17c25.42,1.38,37.51,10.28,35,26.85q-.86,5.6-1.87,11.18c-3,16.45-18.47,28.72-44.77,36.88l-4.89.7c-19-.94-28.18-10.74-29.27-29.33.22-1.51.44-3,.65-4.52C1622.67,526.1,1637.08,512.16,1665,505.17Zm13.15-274.75,4.57-.25c17.54,1.5,30.41,9.05,37.51,22.63q1.17,2.25,2.31,4.49c-.45,3.72,18.88,59.1-11.38,172.77-1.43,28.71-13.76,44.28-32.79,46.52-17.32,2-26.53-7.43-29.7-28.35-.34-8.44,4.8-30.21,10.63-64.82,5.44-34.57,11.57-82,4.47-140.85C1667.9,234.75,1672.53,230.73,1678.15,230.42Z"/><path d="M1815.49,466.75c32.66,1.77,48.72,12.58,45.55,32.69q-1.08,6.8-2.45,13.59c-4.1,20-24.63,35-58.61,45.29l-6.27.9c-24.11-.92-35.15-12.85-36.25-35.7.31-1.85.6-3.7.89-5.55C1762.16,492.35,1780,475.23,1815.49,466.75ZM1757.21,136.5h5.14a96.3,96.3,0,0,1,56.36,28.61c1.73,1.79,3.44,3.57,5.13,5.36,1.53,2.12,14.39,19.52,27.77,53.16,12.8,33.7,26.12,83.64,15.14,152.22,2.84,34.68-12,53.48-36.07,56.09-22.09,2.34-34.47-9.27-41.1-34.89-1.55-10.31,2.47-36.88,2.21-78.77-1-41.8-6.36-98.91-44.72-168.47C1747.86,140.88,1750.89,136.5,1757.21,136.5Z"/><path d="M312.64,280.08l3.09-.41c59.89-1.07,82,23.12,76.39,71.75-3.51,33.94-34.95,81.59-83.23,139.35.17,1,.34,1.94.52,2.91,63,16.1,98,44.05,110.47,82.91q2.34,7.18,4.88,14.38c18.68,52.3.84,99.2-43.71,135.32-34.78,8-55.44,11.36-64.68,11.32-44.29-.45-89.84-19.09-130.22-54.3L184,680.82c-3.53-4.24-7.44-15.64-8.06-34.69C109.89,526,138.08,436,169.6,377.91,211.11,320,265.07,286.54,312.64,280.08ZM217.87,553.62c7.47,42.65,21.08,80.26,36.54,112.93l7.58,2.71c62.37-1,88.59-24.81,90.77-71.37-1.17-2.84-2.3-5.68-3.42-8.52C340.4,565.91,297.45,554.17,217.87,553.62ZM215.27,467l6.07-.48c55-45.61,88.76-84.21,94.52-112.57-6.15-3-12-4.17-17.62-3.55l-6.07.68C265.18,354.19,228.77,393.51,215.27,467Z"/><path d="M519.14,358.8l7.27-.75c10.89-1.1,27.52,11.8,53,39.2,17,31.2,27.89,61.3,31.7,90,7.74,55.11-6.41,116.67-29.66,181.89-20.47,25-34.73,37.4-47.34,37.94l-10.56.43c-27.85,1.11-56.27-14.3-82.72-45.64q-13-16.94-19.48-31.71-1.5-3.39-2.94-6.8C395.5,570,398.59,505.55,441.07,426.57,470.08,383.92,498.09,361,519.14,358.8ZM480.76,634.13q5.49,8,11.14,15.93l4.6-.23c33.88-1.66,43.67-45,55.85-131.54Q551,504.13,550.23,490c-12.12-41.7-18.9-62.16-25.78-61.55l-12.32,1.11c-36.9,45.58-55.79,104.39-41.89,177Q475.19,620.34,480.76,634.13Z"/><path d="M741.57,322.15l7.47-.76c11.14-1.11,29,12.82,55.91,42.09,18.22,33.28,29.24,65.25,32.13,95.72,6,58.61-14.11,124.13-49.61,194.9-25.85,27.41-43.64,41.3-57.07,42.21l-11.28.75c-29.82,2-56.51-14.14-78.82-47.81Q629.58,631,625,615c-.7-2.45-1.39-4.91-2.06-7.36-16.2-57.69-5.91-127.93,38.94-213C692.28,348.76,719.87,324.36,741.57,322.15ZM687,618.27q4.57,8.54,9.24,17.08l4.88-.35c35.58-2.48,54.66-49.63,73.21-142.32q-.51-15.14-.7-30.28c-10.9-44.51-18.27-66.4-25.31-65.75l-12.77,1.19C697,446.63,674.77,510.11,679.84,588.55Q683.2,603.42,687,618.27Z"/><path d="M958.14,315.26l7.14-.67c10.61-1,29.07,12.76,56.49,41.26,19.18,32.33,30.38,63.22,33,92.67,5.37,56.65-17.21,119.94-60.45,189.53-28.54,27.16-48.25,41.22-61.44,42.37l-11.11,1c-29.48,2.57-52.58-12.77-69.6-45.73a138.89,138.89,0,0,1-10.6-33.6q-.6-3.62-1.18-7.25c-9.51-56.77,4.75-126.27,45.08-209.33Q926.83,318.27,958.14,315.26Zm-57,289.16q3.5,8.33,7,16.65l4.78-.41c34.38-3,60.17-49.5,80.89-139.59q-.07-14.71-.14-29.41c-10.19-43.21-18.42-64.52-25.06-63.91l-12.25,1.1c-35.68,47.33-57,109.49-59.13,186.46Q899.14,589.88,901.16,604.42Z"/><path d="M1135.82,301.68c26.42-2.26,44.68,24.92,51.58,81.43,11,41.36,17.37,61.85,21,61.52,39.93-82.32,58.41-128.43,66.21-139.64,8.35-5.52,15.67-8.52,22.1-9,16.77-1.28,30.93,11.5,41.3,38.22,10.22,156.15-10,250.63-11.1,282-6.92,16.62-16.26,25.61-27.62,26.9l-4.76.54c-18.54,2.1-26.33-13-25.33-45.16a1373.88,1373.88,0,0,0,10.09-155.4q-15.11,23.13-30.89,46.41c-12.48,19-26.68,29.3-42.27,30.78l-2.49.23c-30.57,2.9-51.08-26-64.93-86.86-.75-8-2.74-11.92-5.93-11.64-25.29,77.46-47.79,153.71-63.74,228.46-6.08,7.16-11.93,11-17.65,11.57l-6.82.66q-25.38-1.74-27.36-24.49c-.27-3.2-.55-6.4-.82-9.59,12.58-78.79,40.17-171.12,75-276.47C1103.08,320.06,1117.5,303.24,1135.82,301.68Z"/><path d="M1432,279.06c25.62-1.68,48.9,24.82,60.53,79.35,14.08,40,20.49,59.74,24.28,59.44,37.33-79.18,47-122.54,53.43-133.1,7.43-5.1,14.19-7.8,20.48-8.14,16.34-.88,32.74,11.49,46.64,36.91,15.92,73.9,13,133.47,7.62,178.24-5.75,44.78-14,74.75-16.93,89.7-8.92,15.91-19.66,24.64-31.26,26.1l-4.88.61c-19.05,2.38-24.39-11.88-20-42.73a584,584,0,0,0,15.72-148.84q-14.37,22.08-30.42,44.46c-12.73,18.28-27.47,28.28-43.14,29.78l-2.51.24c-31.08,3-49.23-24.92-64.79-84-1-7.8-3.2-11.58-6.37-11.32-21.93,75.1-49.14,149.86-76.82,223.51Q1352.72,630,1343.92,631l-7,.8c-16.91-.77-24.71-8.65-23.79-23.58q.3-4.73.55-9.45c23.58-78,56.33-169.1,80.47-271.29C1402.39,296.29,1414,280.25,1432,279.06Z"/><path d="M1662.88,521.69c25.4,1.83,37.33,10.94,34.49,27.46q-1,5.57-2.07,11.15c-3.3,16.39-19,28.39-45.41,36.09l-4.9.61c-18.94-1.27-28-11.22-28.76-29.84.26-1.5.5-3,.74-4.5C1620.2,541.89,1634.84,528.2,1662.88,521.69Zm17.94-274.48,4.58-.17c17.51,1.81,30.24,9.58,37.11,23.29q1.13,2.26,2.23,4.53c-.52,3.71,17.84,59.42-14.39,172.54-1.94,28.68-14.54,44-33.61,45.94-17.35,1.71-26.39-7.89-29.2-28.87-.18-8.44,5.34-30.11,11.76-64.62,6-34.47,13-81.78,6.94-140.75C1670.5,251.36,1675.2,247.43,1680.82,247.21Z"/><path d="M1814,485.91c32.62,2.33,48.49,13.42,45,33.47q-1.2,6.78-2.69,13.55c-4.44,19.9-25.24,34.58-59.39,44.26l-6.29.8c-24.08-1.35-34.91-13.47-35.62-36.34.35-1.84.67-3.69,1-5.53C1760.25,510.58,1778.36,493.76,1814,485.91Zm-52.51-331.22c1.72,0,3.43.05,5.14.09a96.31,96.31,0,0,1,55.85,29.59c1.7,1.82,3.37,3.63,5,5.44,1.49,2.15,14,19.77,26.84,53.65,12.21,33.91,24.65,84.08,12.47,152.45,2.24,34.73-12.89,53.27-37,55.45-22.13,2-34.31-9.87-40.49-35.6-1.37-10.33,3.11-36.83,3.58-78.71-.31-41.82-4.63-99-41.77-169.23C1752.09,158.91,1755.2,154.58,1761.51,154.69Z"/><path d="M314.65,273l3.1-.35c59.9,0,81.55,24.55,75.12,73.07-4.1,33.87-36.36,81-85.64,137.88.15,1,.31,1.95.47,2.92,62.7,17.19,97.18,45.75,109,84.83q2.22,7.22,4.63,14.45c17.76,52.63-.89,99.2-46.06,134.54-34.92,7.36-55.63,10.39-64.87,10.19-44.28-1.22-89.5-20.65-129.25-56.56l-2.1-2.53c-3.46-4.3-7.17-15.77-7.46-34.83-63.95-121.26-34.18-210.81-1.67-268.29C212.44,311.21,267,278.66,314.65,273ZM215.12,544.88c6.72,42.77,19.68,80.62,34.56,113.56l7.54,2.84c62.37.09,89-23.27,92-69.78-1.12-2.86-2.2-5.72-3.27-8.58C337.43,559.31,294.69,546.82,215.12,544.88ZM214,458.18l6.08-.38c55.76-44.64,90.21-82.64,96.47-110.9-6.1-3.1-11.92-4.38-17.56-3.85l-6.08.57C265.9,346.31,228.82,385,214,458.18Z"/><path d="M519.75,355.34l7.28-.62c10.91-.91,27.31,12.28,52.28,40.13,16.47,31.49,26.83,61.78,30.13,90.5,6.78,55.24-8.45,116.54-32.82,181.34-20.91,24.66-35.38,36.8-48,37.11l-10.56.25c-27.87.63-56-15.28-81.92-47.07q-12.7-17.18-18.93-32.05c-.95-2.28-1.89-4.57-2.82-6.85-21.95-53.71-17.73-118.1,26.12-196.33C470.26,379.61,498.67,357.15,519.75,355.34ZM476.56,630q5.35,8.06,10.87,16.13l4.6-.15c33.91-1.07,44.45-44.2,58.14-130.55q-1.09-14.17-1.63-28.36c-11.38-41.91-17.81-62.48-24.69-62l-12.34.9c-37.7,44.92-57.61,103.4-45,176.26Q471.24,616.08,476.56,630Z"/><path d="M742.79,322.59l7.47-.63C761.43,321,779,335.28,805.43,365c17.64,33.59,28.1,65.75,30.46,96.26,5,58.71-16.27,123.86-53,194-26.32,27-44.35,40.54-57.8,41.21L713.8,697c-29.85,1.45-56.26-15.11-78-49.17q-10.41-18.42-14.69-34.48-1-3.71-1.93-7.4c-15.19-58-3.68-128,42.65-212.27C693,348.33,721.05,324.41,742.79,322.59ZM683,617.7q4.43,8.63,8.94,17.24l4.89-.26c35.61-1.85,55.51-48.67,75.68-141q-.25-15.15-.18-30.29c-10.12-44.7-17.11-66.7-24.15-66.18l-12.8,1c-39.42,48.11-62.7,111.19-59,189.71Q679.53,602.78,683,617.7Z"/><path d="M959.44,319.47l7.15-.54c10.62-.8,28.85,13.27,55.76,42.24,18.62,32.66,29.28,63.74,31.35,93.23,4.38,56.74-19.3,119.62-63.75,188.45-29,26.65-49,40.36-62.17,41.29l-11.13.78C887.14,687,864.31,671.23,847.86,638a139,139,0,0,1-10-33.78c-.36-2.42-.71-4.85-1.06-7.27-8.52-56.93,7-126.17,48.72-208.52Q928.08,321.95,959.44,319.47Zm-62,288.13,6.69,16.77,4.77-.33c34.44-2.36,61-48.44,83.32-138.16q.18-14.7.38-29.4c-9.44-43.39-17.29-64.83-23.94-64.35l-12.27.9c-36.5,46.69-58.89,108.47-62.38,185.4Q895.65,593,897.43,607.6Z"/><path d="M1137.33,309c26.45-1.79,44.24,25.71,50.15,82.33,10.24,41.54,16.29,62.14,20,61.88,41.35-81.61,60.64-127.4,68.63-138.46,8.45-5.38,15.82-8.25,22.25-8.63,16.79-1,30.73,12,40.64,38.93,7.49,156.3-14.35,250.42-16,281.81-7.21,16.5-16.7,25.32-28.08,26.41l-4.77.46c-18.58,1.78-26.1-13.43-24.54-45.6a1371.78,1371.78,0,0,0,12.8-155.2q-15.51,22.88-31.69,45.86c-12.81,18.8-27.2,28.84-42.81,30l-2.49.19c-30.61,2.37-50.62-26.93-63.41-88-.6-8-2.53-12-5.72-11.74-26.63,77-50.46,152.85-67.72,227.31-6.2,7-12.11,10.8-17.84,11.26l-6.83.54q-25.35-2.19-26.94-25c-.21-3.2-.43-6.41-.65-9.61,14-78.55,43.16-170.39,79.86-275.11C1104.27,326.8,1119,310.23,1137.33,309Z"/><path d="M1433.83,291.55c25.64-1.23,48.46,25.67,59.14,80.4,13.37,40.23,19.44,60.09,23.24,59.85,38.7-78.52,49.15-121.7,55.74-132.15,7.52-5,14.32-7.55,20.62-7.78,16.35-.59,32.53,12.06,46,37.72,14.63,74.16,10.68,133.68,4.51,178.34-6.53,44.67-15.28,74.5-18.49,89.4-9.21,15.75-20.1,24.29-31.72,25.54l-4.88.53c-19.1,2.05-24.18-12.3-19.23-43.07a584.22,584.22,0,0,0,18.32-148.55q-14.76,21.83-31.2,43.93c-13,18.06-27.95,27.79-43.65,29l-2.51.19c-31.13,2.44-48.79-25.77-63.32-85.16-.88-7.82-3-11.63-6.16-11.43-23.25,74.71-51.76,149-80.71,222.14q-11.05,10.53-19.87,11.39l-7,.67c-16.9-1.06-24.55-9.08-23.37-24q.38-4.72.71-9.44c24.94-77.56,59.27-168.09,85.19-269.85C1404,308.26,1415.8,292.42,1433.83,291.55Z"/><path d="M1660.47,538.18c25.36,2.27,37.13,11.58,34,28.05q-1.07,5.55-2.27,11.11c-3.58,16.33-19.46,28.06-46,35.3l-4.91.52c-18.91-1.6-27.79-11.71-28.23-30.33.28-1.5.55-3,.81-4.49C1617.44,557.62,1632.32,544.19,1660.47,538.18Zm22.73-274.13,4.58-.09c17.48,2.12,30.07,10.11,36.7,23.93.72,1.52,1.44,3.05,2.15,4.57-.58,3.7,16.8,59.72-17.4,172.27-2.44,28.64-15.31,43.76-34.4,45.34-17.38,1.41-26.25-8.35-28.69-29.37,0-8.45,5.85-30,12.88-64.41,6.65-34.36,14.43-81.54,9.39-140.6C1672.81,268,1677.58,264.17,1683.2,264.05Z"/><path d="M1812.21,505c32.58,2.9,48.25,14.26,44.39,34.25q-1.32,6.75-2.93,13.5c-4.79,19.82-25.84,34.14-60.16,43.21l-6.3.69c-24-1.77-34.67-14.07-35-37q.57-2.76,1.09-5.52C1758,528.76,1776.42,512.26,1812.21,505ZM1765.49,173c1.72.06,3.43.11,5.14.18A96.25,96.25,0,0,1,1826,203.69c1.67,1.85,3.31,3.69,4.94,5.53,1.46,2.17,13.71,20,25.91,54.1,11.61,34.13,23.18,84.5,9.81,152.65,1.63,34.76-13.82,53-38,54.8-22.16,1.57-34.13-10.47-39.86-36.3-1.19-10.35,3.75-36.77,5-78.64.41-41.82-2.91-99.08-38.81-169.93C1756,177,1759.18,172.73,1765.49,173Z"/><path d="M314.65,273l3.1-.35c59.9,0,81.55,24.55,75.12,73.07-4.1,33.87-36.36,81-85.64,137.88.15,1,.31,1.95.47,2.92,62.7,17.19,97.18,45.75,109,84.83q2.22,7.22,4.63,14.45c17.76,52.63-.89,99.2-46.06,134.54-34.92,7.36-55.63,10.39-64.87,10.19-44.28-1.22-89.5-20.65-129.25-56.56l-2.1-2.53c-3.46-4.3-7.17-15.77-7.46-34.83-63.95-121.26-34.18-210.81-1.67-268.29C212.44,311.21,267,278.66,314.65,273ZM215.12,544.88c6.72,42.77,19.68,80.62,34.56,113.56l7.54,2.84c62.37.09,89-23.27,92-69.78-1.12-2.86-2.2-5.72-3.27-8.58C337.43,559.31,294.69,546.82,215.12,544.88ZM214,458.18l6.08-.38c55.76-44.64,90.21-82.64,96.47-110.9-6.1-3.1-11.92-4.38-17.56-3.85l-6.08.57C265.9,346.31,228.82,385,214,458.18Z" fill="url(#a)"/><path d="M519.75,355.34l7.28-.62c10.91-.91,27.31,12.28,52.28,40.13,16.47,31.49,26.83,61.78,30.13,90.5,6.78,55.24-8.45,116.54-32.82,181.34-20.91,24.66-35.38,36.8-48,37.11l-10.56.25c-27.87.63-56-15.28-81.92-47.07q-12.7-17.18-18.93-32.05c-.95-2.28-1.89-4.57-2.82-6.85-21.95-53.71-17.73-118.1,26.12-196.33C470.26,379.61,498.67,357.15,519.75,355.34ZM476.56,630q5.35,8.06,10.87,16.13l4.6-.15c33.91-1.07,44.45-44.2,58.14-130.55q-1.09-14.17-1.63-28.36c-11.38-41.91-17.81-62.48-24.69-62l-12.34.9c-37.7,44.92-57.61,103.4-45,176.26Q471.24,616.08,476.56,630Z" fill="url(#a)"/><path d="M742.79,322.59l7.47-.63C761.43,321,779,335.28,805.43,365c17.64,33.59,28.1,65.75,30.46,96.26,5,58.71-16.27,123.86-53,194-26.32,27-44.35,40.54-57.8,41.21L713.8,697c-29.85,1.45-56.26-15.11-78-49.17q-10.41-18.42-14.69-34.48-1-3.71-1.93-7.4c-15.19-58-3.68-128,42.65-212.27C693,348.33,721.05,324.41,742.79,322.59ZM683,617.7q4.43,8.63,8.94,17.24l4.89-.26c35.61-1.85,55.51-48.67,75.68-141q-.25-15.15-.18-30.29c-10.12-44.7-17.11-66.7-24.15-66.18l-12.8,1c-39.42,48.11-62.7,111.19-59,189.71Q679.53,602.78,683,617.7Z" fill="url(#a)"/><path d="M959.44,319.47l7.15-.54c10.62-.8,28.85,13.27,55.76,42.24,18.62,32.66,29.28,63.74,31.35,93.23,4.38,56.74-19.3,119.62-63.75,188.45-29,26.65-49,40.36-62.17,41.29l-11.13.78C887.14,687,864.31,671.23,847.86,638a139,139,0,0,1-10-33.78c-.36-2.42-.71-4.85-1.06-7.27-8.52-56.93,7-126.17,48.72-208.52Q928.08,321.95,959.44,319.47Zm-62,288.13,6.69,16.77,4.77-.33c34.44-2.36,61-48.44,83.32-138.16q.18-14.7.38-29.4c-9.44-43.39-17.29-64.83-23.94-64.35l-12.27.9c-36.5,46.69-58.89,108.47-62.38,185.4Q895.65,593,897.43,607.6Z" fill="url(#a)"/><path d="M1137.33,309c26.45-1.79,44.24,25.71,50.15,82.33,10.24,41.54,16.29,62.14,20,61.88,41.35-81.61,60.64-127.4,68.63-138.46,8.45-5.38,15.82-8.25,22.25-8.63,16.79-1,30.73,12,40.64,38.93,7.49,156.3-14.35,250.42-16,281.81-7.21,16.5-16.7,25.32-28.08,26.41l-4.77.46c-18.58,1.78-26.1-13.43-24.54-45.6a1371.78,1371.78,0,0,0,12.8-155.2q-15.51,22.88-31.69,45.86c-12.81,18.8-27.2,28.84-42.81,30l-2.49.19c-30.61,2.37-50.62-26.93-63.41-88-.6-8-2.53-12-5.72-11.74-26.63,77-50.46,152.85-67.72,227.31-6.2,7-12.11,10.8-17.84,11.26l-6.83.54q-25.35-2.19-26.94-25c-.21-3.2-.43-6.41-.65-9.61,14-78.55,43.16-170.39,79.86-275.11C1104.27,326.8,1119,310.23,1137.33,309Z" fill="url(#a)"/><path d="M1433.83,291.55c25.64-1.23,48.46,25.67,59.14,80.4,13.37,40.23,19.44,60.09,23.24,59.85,38.7-78.52,49.15-121.7,55.74-132.15,7.52-5,14.32-7.55,20.62-7.78,16.35-.59,32.53,12.06,46,37.72,14.63,74.16,10.68,133.68,4.51,178.34-6.53,44.67-15.28,74.5-18.49,89.4-9.21,15.75-20.1,24.29-31.72,25.54l-4.88.53c-19.1,2.05-24.18-12.3-19.23-43.07a584.22,584.22,0,0,0,18.32-148.55q-14.76,21.83-31.2,43.93c-13,18.06-27.95,27.79-43.65,29l-2.51.19c-31.13,2.44-48.79-25.77-63.32-85.16-.88-7.82-3-11.63-6.16-11.43-23.25,74.71-51.76,149-80.71,222.14q-11.05,10.53-19.87,11.39l-7,.67c-16.9-1.06-24.55-9.08-23.37-24q.38-4.72.71-9.44c24.94-77.56,59.27-168.09,85.19-269.85C1404,308.26,1415.8,292.42,1433.83,291.55Z" fill="url(#a)"/><path d="M1660.47,538.18c25.36,2.27,37.13,11.58,34,28.05q-1.07,5.55-2.27,11.11c-3.58,16.33-19.46,28.06-46,35.3l-4.91.52c-18.91-1.6-27.79-11.71-28.23-30.33.28-1.5.55-3,.81-4.49C1617.44,557.62,1632.32,544.19,1660.47,538.18Zm22.73-274.13,4.58-.09c17.48,2.12,30.07,10.11,36.7,23.93.72,1.52,1.44,3.05,2.15,4.57-.58,3.7,16.8,59.72-17.4,172.27-2.44,28.64-15.31,43.76-34.4,45.34-17.38,1.41-26.25-8.35-28.69-29.37,0-8.45,5.85-30,12.88-64.41,6.65-34.36,14.43-81.54,9.39-140.6C1672.81,268,1677.58,264.17,1683.2,264.05Z" fill="url(#a)"/><path d="M1812.21,505c32.58,2.9,48.25,14.26,44.39,34.25q-1.32,6.75-2.93,13.5c-4.79,19.82-25.84,34.14-60.16,43.21l-6.3.69c-24-1.77-34.67-14.07-35-37q.57-2.76,1.09-5.52C1758,528.76,1776.42,512.26,1812.21,505ZM1765.49,173c1.72.06,3.43.11,5.14.18A96.25,96.25,0,0,1,1826,203.69c1.67,1.85,3.31,3.69,4.94,5.53,1.46,2.17,13.71,20,25.91,54.1,11.61,34.13,23.18,84.5,9.81,152.65,1.63,34.76-13.82,53-38,54.8-22.16,1.57-34.13-10.47-39.86-36.3-1.19-10.35,3.75-36.77,5-78.64.41-41.82-2.91-99.08-38.81-169.93C1756,177,1759.18,172.73,1765.49,173Z" fill="url(#a)"/><g opacity="0.42" style="mix-blend-mode:overlay"><path d="M314.65,273l3.1-.35c59.9,0,81.55,24.55,75.12,73.07-4.1,33.87-36.36,81-85.64,137.88.15,1,.31,1.95.47,2.92,62.7,17.19,97.18,45.75,109,84.83q2.22,7.22,4.63,14.45c17.76,52.63-.89,99.2-46.06,134.54-34.92,7.36-55.63,10.39-64.87,10.19-44.28-1.22-89.5-20.65-129.25-56.56l-2.1-2.53c-3.46-4.3-7.17-15.77-7.46-34.83-63.95-121.26-34.18-210.81-1.67-268.29C212.44,311.21,267,278.66,314.65,273ZM215.12,544.88c6.72,42.77,19.68,80.62,34.56,113.56l7.54,2.84c62.37.09,89-23.27,92-69.78-1.12-2.86-2.2-5.72-3.27-8.58C337.43,559.31,294.69,546.82,215.12,544.88ZM214,458.18l6.08-.38c55.76-44.64,90.21-82.64,96.47-110.9-6.1-3.1-11.92-4.38-17.56-3.85l-6.08.57C265.9,346.31,228.82,385,214,458.18Z" fill="url(#i)"/><path d="M519.75,355.34l7.28-.62c10.91-.91,27.31,12.28,52.28,40.13,16.47,31.49,26.83,61.78,30.13,90.5,6.78,55.24-8.45,116.54-32.82,181.34-20.91,24.66-35.38,36.8-48,37.11l-10.56.25c-27.87.63-56-15.28-81.92-47.07q-12.7-17.18-18.93-32.05c-.95-2.28-1.89-4.57-2.82-6.85-21.95-53.71-17.73-118.1,26.12-196.33C470.26,379.61,498.67,357.15,519.75,355.34ZM476.56,630q5.35,8.06,10.87,16.13l4.6-.15c33.91-1.07,44.45-44.2,58.14-130.55q-1.09-14.17-1.63-28.36c-11.38-41.91-17.81-62.48-24.69-62l-12.34.9c-37.7,44.92-57.61,103.4-45,176.26Q471.24,616.08,476.56,630Z" fill="url(#i)"/><path d="M742.79,322.59l7.47-.63C761.43,321,779,335.28,805.43,365c17.64,33.59,28.1,65.75,30.46,96.26,5,58.71-16.27,123.86-53,194-26.32,27-44.35,40.54-57.8,41.21L713.8,697c-29.85,1.45-56.26-15.11-78-49.17q-10.41-18.42-14.69-34.48-1-3.71-1.93-7.4c-15.19-58-3.68-128,42.65-212.27C693,348.33,721.05,324.41,742.79,322.59ZM683,617.7q4.43,8.63,8.94,17.24l4.89-.26c35.61-1.85,55.51-48.67,75.68-141q-.25-15.15-.18-30.29c-10.12-44.7-17.11-66.7-24.15-66.18l-12.8,1c-39.42,48.11-62.7,111.19-59,189.71Q679.53,602.78,683,617.7Z" fill="url(#i)"/><path d="M959.44,319.47l7.15-.54c10.62-.8,28.85,13.27,55.76,42.24,18.62,32.66,29.28,63.74,31.35,93.23,4.38,56.74-19.3,119.62-63.75,188.45-29,26.65-49,40.36-62.17,41.29l-11.13.78C887.14,687,864.31,671.23,847.86,638a139,139,0,0,1-10-33.78c-.36-2.42-.71-4.85-1.06-7.27-8.52-56.93,7-126.17,48.72-208.52Q928.08,321.95,959.44,319.47Zm-62,288.13,6.69,16.77,4.77-.33c34.44-2.36,61-48.44,83.32-138.16q.18-14.7.38-29.4c-9.44-43.39-17.29-64.83-23.94-64.35l-12.27.9c-36.5,46.69-58.89,108.47-62.38,185.4Q895.65,593,897.43,607.6Z" fill="url(#i)"/><path d="M1137.33,309c26.45-1.79,44.24,25.71,50.15,82.33,10.24,41.54,16.29,62.14,20,61.88,41.35-81.61,60.64-127.4,68.63-138.46,8.45-5.38,15.82-8.25,22.25-8.63,16.79-1,30.73,12,40.64,38.93,7.49,156.3-14.35,250.42-16,281.81-7.21,16.5-16.7,25.32-28.08,26.41l-4.77.46c-18.58,1.78-26.1-13.43-24.54-45.6a1371.78,1371.78,0,0,0,12.8-155.2q-15.51,22.88-31.69,45.86c-12.81,18.8-27.2,28.84-42.81,30l-2.49.19c-30.61,2.37-50.62-26.93-63.41-88-.6-8-2.53-12-5.72-11.74-26.63,77-50.46,152.85-67.72,227.31-6.2,7-12.11,10.8-17.84,11.26l-6.83.54q-25.35-2.19-26.94-25c-.21-3.2-.43-6.41-.65-9.61,14-78.55,43.16-170.39,79.86-275.11C1104.27,326.8,1119,310.23,1137.33,309Z" fill="url(#i)"/><path d="M1433.83,291.55c25.64-1.23,48.46,25.67,59.14,80.4,13.37,40.23,19.44,60.09,23.24,59.85,38.7-78.52,49.15-121.7,55.74-132.15,7.52-5,14.32-7.55,20.62-7.78,16.35-.59,32.53,12.06,46,37.72,14.63,74.16,10.68,133.68,4.51,178.34-6.53,44.67-15.28,74.5-18.49,89.4-9.21,15.75-20.1,24.29-31.72,25.54l-4.88.53c-19.1,2.05-24.18-12.3-19.23-43.07a584.22,584.22,0,0,0,18.32-148.55q-14.76,21.83-31.2,43.93c-13,18.06-27.95,27.79-43.65,29l-2.51.19c-31.13,2.44-48.79-25.77-63.32-85.16-.88-7.82-3-11.63-6.16-11.43-23.25,74.71-51.76,149-80.71,222.14q-11.05,10.53-19.87,11.39l-7,.67c-16.9-1.06-24.55-9.08-23.37-24q.38-4.72.71-9.44c24.94-77.56,59.27-168.09,85.19-269.85C1404,308.26,1415.8,292.42,1433.83,291.55Z" fill="url(#i)"/><path d="M1660.47,538.18c25.36,2.27,37.13,11.58,34,28.05q-1.07,5.55-2.27,11.11c-3.58,16.33-19.46,28.06-46,35.3l-4.91.52c-18.91-1.6-27.79-11.71-28.23-30.33.28-1.5.55-3,.81-4.49C1617.44,557.62,1632.32,544.19,1660.47,538.18Zm22.73-274.13,4.58-.09c17.48,2.12,30.07,10.11,36.7,23.93.72,1.52,1.44,3.05,2.15,4.57-.58,3.7,16.8,59.72-17.4,172.27-2.44,28.64-15.31,43.76-34.4,45.34-17.38,1.41-26.25-8.35-28.69-29.37,0-8.45,5.85-30,12.88-64.41,6.65-34.36,14.43-81.54,9.39-140.6C1672.81,268,1677.58,264.17,1683.2,264.05Z" fill="url(#i)"/><path d="M1812.21,505c32.58,2.9,48.25,14.26,44.39,34.25q-1.32,6.75-2.93,13.5c-4.79,19.82-25.84,34.14-60.16,43.21l-6.3.69c-24-1.77-34.67-14.07-35-37q.57-2.76,1.09-5.52C1758,528.76,1776.42,512.26,1812.21,505ZM1765.49,173c1.72.06,3.43.11,5.14.18A96.25,96.25,0,0,1,1826,203.69c1.67,1.85,3.31,3.69,4.94,5.53,1.46,2.17,13.71,20,25.91,54.1,11.61,34.13,23.18,84.5,9.81,152.65,1.63,34.76-13.82,53-38,54.8-22.16,1.57-34.13-10.47-39.86-36.3-1.19-10.35,3.75-36.77,5-78.64.41-41.82-2.91-99.08-38.81-169.93C1756,177,1759.18,172.73,1765.49,173Z" fill="url(#i)"/></g></g></svg>