<svg xmlns="http://www.w3.org/2000/svg" xmlns:xlink="http://www.w3.org/1999/xlink" viewBox="0 0 2000 914.07"><defs><pattern id="a" width="28.8" height="28.8" patternTransform="translate(-201 -88.57) rotate(-8.6) scale(2.13)" patternUnits="userSpaceOnUse" viewBox="0 0 28.8 28.8"><rect width="28.8" height="28.8" fill="none"/><path d="M28.8,32.4a3.6,3.6,0,1,0-3.6-3.6A3.6,3.6,0,0,0,28.8,32.4Z" fill="#231f20"/><path d="M14.4,32.4a3.6,3.6,0,1,0-3.6-3.6A3.6,3.6,0,0,0,14.4,32.4Z" fill="#231f20"/><circle cx="28.8" cy="14.4" r="3.6" fill="#231f20"/><path d="M14.4,18a3.6,3.6,0,1,0-3.6-3.6A3.6,3.6,0,0,0,14.4,18Z" fill="#231f20"/><path d="M7.2,25.2a3.6,3.6,0,1,0-3.6-3.6A3.6,3.6,0,0,0,7.2,25.2Z" fill="#231f20"/><path d="M21.6,25.2A3.6,3.6,0,1,0,18,21.6,3.6,3.6,0,0,0,21.6,25.2Z" fill="#231f20"/><path d="M7.2,10.8A3.6,3.6,0,1,0,3.6,7.2,3.6,3.6,0,0,0,7.2,10.8Z" fill="#231f20"/><path d="M21.6,10.8A3.6,3.6,0,1,0,18,7.2,3.6,3.6,0,0,0,21.6,10.8Z" fill="#231f20"/><path d="M0,32.4a3.6,3.6,0,0,0,0-7.2,3.6,3.6,0,0,0-3.6,3.6A3.6,3.6,0,0,0,0,32.4Z" fill="#231f20"/><circle cy="14.4" r="3.6" fill="#231f20"/><path d="M28.8,3.6A3.6,3.6,0,0,0,32.4,0a3.6,3.6,0,0,0-3.6-3.6A3.6,3.6,0,0,0,25.2,0,3.6,3.6,0,0,0,28.8,3.6Z" fill="#231f20"/><path d="M14.4,3.6A3.6,3.6,0,0,0,18,0a3.6,3.6,0,0,0-3.6-3.6A3.6,3.6,0,0,0,10.8,0,3.6,3.6,0,0,0,14.4,3.6Z" fill="#231f20"/><path d="M0,3.6A3.6,3.6,0,0,0,3.6,0,3.6,3.6,0,0,0,0-3.6,3.6,3.6,0,0,0-3.6,0,3.6,3.6,0,0,0,0,3.6Z" fill="#231f20"/></pattern></defs><g style="isolation:isolate"><path d="M225.41,355.13l3-1.49c63.38-23,103.37-10.44,118.58,33.43,10.82,31-3.11,82.85-38.61,159.19.31.9.63,1.79,1,2.69,61.42-8.9,98.17,5.72,109.72,40.5q2.16,6.46,4.3,12.92c15.7,47.32-10.19,104.36-72.54,178.38C311.12,811.61,287,831.06,277.37,837c-47.18,29.44-80.94,31-103.2,2l-.94-2.46c-1.58-4.18.16-19.7,5.49-46.36-27-129.51-40.32-228-38.42-294.55C149.56,425.82,178.07,378.5,225.41,355.13Zm4.49,297Q241.11,719,247.37,772.35l6.47-.68c61-37.2,95-79.75,100.55-131.85-.9-2.6-1.79-5.21-2.69-7.82C344.44,610.79,303.06,615.44,229.9,652.1Zm-13.48-90.9,5.52-3.08c40-68.78,57.72-114.9,50-142q-11.34-.54-19.3,3.45-2.86,1.43-5.71,2.87C220.26,435.81,210,482.26,216.42,561.2Z"/><path d="M477.25,354.06q3.53-1.37,7.05-2.7c10.48-4,32,2.46,64.22,19.67,24.63,22.77,40.54,46.55,48.05,71.19,14.49,47.55,4.69,106.71-26.64,180.73-23.87,32.79-41.95,52.6-54.93,58.5q-5.47,2.5-10.94,5c-29.14,13.51-53.27,9-73.12-14.51a97.86,97.86,0,0,1-14.05-26.55q-1-3.06-2.05-6.14c-16-48-15-116,5.63-201.5C437.38,389.75,456.56,362,477.25,354.06Zm-3,271.18,9,12.34,4.56-2.09c33.06-15.12,51.4-64.37,55.42-148.28q-2.64-12.7-5.3-25.41c-17.48-34.47-29.62-50.55-36-48.06q-5.88,2.29-11.75,4.61c-25.68,51.78-33.15,113.16-23.85,182.38Q470.33,613,474.27,625.24Z"/><path d="M693.19,270.11l7.54-2c11.17-3,33.57,5.46,66.67,25.66C792.34,318.79,808.09,344,815,369.29c13.29,48.77.61,106.75-35.44,177.69-26.5,30.5-46.39,48.65-60.33,53.38q-5.88,2-11.75,4c-31.3,10.89-56.58,4.28-76.51-21a101.33,101.33,0,0,1-13.68-27.76l-1.89-6.32c-14.79-49.4-10.8-117.28,14.56-200.85C649.78,302,671.11,276.13,693.19,270.11ZM678.64,540.58l9,13.12,4.9-1.67c35.49-12.13,56.87-59.59,64.57-142.92q-2.25-12.92-4.53-25.84c-17-36-29-53.19-35.86-51.3q-6.28,1.74-12.56,3.51c-29.17,49.3-39.65,109.94-32.8,179.9Q675,528,678.64,540.58Z"/><path d="M916.69,233.37l7.34-1.23c10.9-1.81,32.2,7.92,63.45,29.41,23.23,25.24,37.6,49.85,43.42,73.75,11.23,46.12-2.85,98.49-40.23,160.78-26.74,25.83-46.73,40.84-60.43,44q-5.79,1.33-11.57,2.7c-30.83,7.34-55.2-.95-73.64-25.95a96.76,96.76,0,0,1-12.25-26.78q-.81-3-1.6-6c-12.52-46.81-6-109,21.57-183.88C873.66,259.07,895.17,237,916.69,233.37ZM893,481.46q4.11,6.44,8.22,12.87l4.82-1.12c34.91-8.11,57.3-50,67.59-126.18q-1.74-12.11-3.49-24.22c-15.17-34.66-26.26-51.54-32.9-50.39q-6.12,1.06-12.25,2.16c-29.92,42.93-42.3,97.93-38.18,163Q889.89,469.54,893,481.46Z"/><path d="M1101.06,211.88c27.86-2.34,47.18,19.89,57.63,65.55,13.87,33.4,22.46,49.87,26.07,49.62,32.41-66.2,53.34-102.28,61.57-111,8.84-4.09,16.65-6.14,23.4-6.2,17.72-.16,31.63,10.95,41.61,32.91,8.5,125.11,14.94,199.62,20.08,224.66-3.11,12.91-10.48,19.59-22.14,20.14l-4.88.24c-19,1-31.13-11.14-36.59-36.81q-5.88-61.83-12-124-13.17,18-26.21,36.44Q1214.22,386,1191,387.88l-2.47.2c-30.32,2.52-55-20-74.83-68.9-1.51-6.49-3.87-9.59-7.06-9.26a1137.1,1137.1,0,0,0-37.12,188.51q-8.05,9.45-16.91,11l-7,1.21c-17.86.77-28.25-4.8-31.21-17.05-.63-2.58-1.25-5.16-1.88-7.74,4.86-65.81,19.78-143.66,46.08-231.3C1067.71,227.74,1081.93,213.5,1101.06,211.88Z"/><path d="M1413.35,207.54c27.8,1.65,46.11,25.19,54.75,69.46,12.51,33.25,20.44,49.88,24,50.15,34.73-57.55,56.74-88.37,65.21-95.39,8.9-2.58,16.69-3.38,23.37-2.48,17.53,2.39,30.88,14.81,40,36.81,4.07,118.39,8,189.06,12.21,213.23-3.52,11.64-11.07,16.84-22.69,15.71l-4.86-.47c-18.92-1.79-30.61-14.83-35.12-39.64q-3.66-58.76-7.51-117.85-13.71,15.06-27.35,30.46-16.11,19-39.32,17.52l-2.46-.15c-30.31-1.85-54.12-26.32-71.92-74.94q-1.87-9.45-6.67-9.65a962.23,962.23,0,0,0-44.67,171.88q-8.46,7.79-17.41,8l-7.13.19c-18-1.65-28.16-8.26-30.62-20.16l-1.56-7.52c7.65-61.15,25.89-132.29,55.69-211C1379.53,217.86,1394.26,206.44,1413.35,207.54Z"/><path d="M1650.68,436.45c25.89,7,39.93,17.57,42.23,31l1.56,9.08c2.27,13.36-8.81,19.92-33.25,20.45l-4.85-.6c-20.22-5.41-33.67-15.79-40.33-31.6-.21-1.21-.43-2.42-.65-3.63C1612.4,444.42,1624.17,435.89,1650.68,436.45Zm35.23-209.9,5,1c18,5.45,28,14.1,30,25.6.22,1.26.44,2.53.65,3.8.54,3-11.58,45.34-35.76,129,.62,22.77-8.43,32.63-27.18,30-16.86-2.33-27.91-12.07-33.17-29.6-2.15-13.59,11-66.11,40.28-154.61C1673.09,227.11,1679.82,225.39,1685.91,226.55Z"/><path d="M1793,444c32.57,11.2,50.07,25.71,52.75,42.43l1.8,11.3c2.63,16.66-11.42,23.49-42.25,21.79l-6.11-1.2c-25.42-8.57-42.24-22.53-50.4-42.65-.26-1.51-.51-3-.76-4.54C1744.47,450.2,1759.49,440.66,1793,444Zm48-254.61,6.26,1.8c22.7,9,35.13,20.92,37.44,35.29.25,1.59.5,3.17.76,4.75.62,3.84-15.37,54.09-47.26,154.29.4,28.06-11.16,39.18-34.79,34.05-21.24-4.59-35-17.64-41.42-39.79-2.5-16.95,15-80.71,53.45-186.4C1824.72,188.48,1833.25,187.18,1840.92,189.36Z"/><path d="M220.41,349.13l3-1.49c63.38-23,103.37-10.44,118.58,33.43,10.82,31-3.11,82.85-38.61,159.19.31.9.63,1.79,1,2.69,61.42-8.9,98.17,5.72,109.72,40.5q2.16,6.46,4.3,12.92c15.7,47.32-10.19,104.36-72.54,178.38C306.12,805.61,282,825.06,272.37,831c-47.18,29.44-80.94,31-103.2,2l-.94-2.46c-1.58-4.18.16-19.7,5.49-46.36-27-129.51-40.32-228-38.42-294.55C144.56,419.82,173.07,372.5,220.41,349.13Zm4.49,297Q236.11,713,242.37,766.35l6.47-.68c61-37.2,95-79.75,100.55-131.85-.9-2.6-1.79-5.21-2.69-7.82C339.44,604.79,298.06,609.44,224.9,646.1Zm-13.48-90.9,5.52-3.08c40-68.78,57.72-114.9,50-142q-11.34-.54-19.3,3.45-2.86,1.43-5.71,2.87C215.26,429.81,205,476.26,211.42,555.2Z"/><path d="M472.25,348.06q3.53-1.37,7.05-2.7c10.48-4,32,2.46,64.22,19.67,24.63,22.77,40.54,46.55,48.05,71.19,14.49,47.55,4.69,106.71-26.64,180.73-23.87,32.79-41.95,52.6-54.93,58.5q-5.47,2.5-10.94,5c-29.14,13.51-53.27,9-73.12-14.51a97.86,97.86,0,0,1-14.05-26.55q-1-3.06-2.05-6.14c-16-48-15-116,5.63-201.5C432.38,383.75,451.56,356,472.25,348.06Zm-3,271.18,9,12.34,4.56-2.09c33.06-15.12,51.4-64.37,55.42-148.28q-2.64-12.7-5.3-25.41c-17.48-34.47-29.62-50.55-36-48.06q-5.88,2.29-11.75,4.61c-25.68,51.78-33.15,113.16-23.85,182.38Q465.33,607,469.27,619.24Z"/><path d="M688.19,264.11l7.54-2c11.17-3,33.57,5.46,66.67,25.66C787.34,312.79,803.09,338,810,363.29c13.29,48.77.61,106.75-35.44,177.69-26.5,30.5-46.39,48.65-60.33,53.38q-5.88,2-11.75,4c-31.3,10.89-56.58,4.28-76.51-21a101.33,101.33,0,0,1-13.68-27.76l-1.89-6.32c-14.79-49.4-10.8-117.28,14.56-200.85C644.78,296,666.11,270.13,688.19,264.11ZM673.64,534.58l9,13.12,4.9-1.67c35.49-12.13,56.87-59.59,64.57-142.92q-2.25-12.92-4.53-25.84c-17-36-29-53.19-35.86-51.3q-6.28,1.74-12.56,3.51c-29.17,49.3-39.65,109.94-32.8,179.9Q670,522,673.64,534.58Z"/><path d="M911.69,227.37l7.34-1.23c10.9-1.81,32.2,7.92,63.45,29.41,23.23,25.24,37.6,49.85,43.42,73.75,11.23,46.12-2.85,98.49-40.23,160.78-26.74,25.83-46.73,40.84-60.43,44q-5.79,1.33-11.57,2.7c-30.83,7.34-55.2-.95-73.64-25.95a96.76,96.76,0,0,1-12.25-26.78q-.81-3-1.6-6c-12.52-46.81-6-109,21.57-183.88C868.66,253.07,890.17,231,911.69,227.37ZM888,475.46q4.11,6.44,8.22,12.87l4.82-1.12c34.91-8.11,57.3-50,67.59-126.18q-1.74-12.11-3.49-24.22c-15.17-34.66-26.26-51.54-32.9-50.39q-6.12,1.06-12.25,2.16c-29.92,42.93-42.3,97.93-38.18,163Q884.89,463.54,888,475.46Z"/><path d="M1096.06,205.88c27.86-2.34,47.18,19.89,57.63,65.55,13.87,33.4,22.46,49.87,26.07,49.62,32.41-66.2,53.34-102.28,61.57-111,8.84-4.09,16.65-6.14,23.4-6.2,17.72-.16,31.63,10.95,41.61,32.91,8.5,125.11,14.94,199.62,20.08,224.66-3.11,12.91-10.48,19.59-22.14,20.14l-4.88.24c-19,1-31.13-11.14-36.59-36.81q-5.88-61.83-12-124-13.17,18-26.21,36.44Q1209.22,380,1186,381.88l-2.47.2c-30.32,2.52-55-20-74.83-68.9-1.51-6.49-3.87-9.59-7.06-9.26a1137.1,1137.1,0,0,0-37.12,188.51q-8.05,9.45-16.91,11l-7,1.21c-17.86.77-28.25-4.8-31.21-17.05-.63-2.58-1.25-5.16-1.88-7.74,4.86-65.81,19.78-143.66,46.08-231.3C1062.71,221.74,1076.93,207.5,1096.06,205.88Z"/><path d="M1408.35,201.54c27.8,1.65,46.11,25.19,54.75,69.46,12.51,33.25,20.44,49.88,24,50.15,34.73-57.55,56.74-88.37,65.21-95.39,8.9-2.58,16.69-3.38,23.37-2.48,17.53,2.39,30.88,14.81,40,36.81,4.07,118.39,8,189.06,12.21,213.23-3.52,11.64-11.07,16.84-22.69,15.71l-4.86-.47c-18.92-1.79-30.61-14.83-35.12-39.64q-3.66-58.76-7.51-117.85-13.71,15.06-27.35,30.46-16.11,19-39.32,17.52l-2.46-.15c-30.31-1.85-54.12-26.32-71.92-74.94q-1.87-9.45-6.67-9.65a962.23,962.23,0,0,0-44.67,171.88q-8.46,7.79-17.41,8l-7.13.19c-18-1.65-28.16-8.26-30.62-20.16l-1.56-7.52c7.65-61.15,25.89-132.29,55.69-211C1374.53,211.86,1389.26,200.44,1408.35,201.54Z"/><path d="M1645.68,430.45c25.89,7,39.93,17.57,42.23,31l1.56,9.08c2.27,13.36-8.81,19.92-33.25,20.45l-4.85-.6c-20.22-5.41-33.67-15.79-40.33-31.6-.21-1.21-.43-2.42-.65-3.63C1607.4,438.42,1619.17,429.89,1645.68,430.45Zm35.23-209.9,5,1c18,5.45,28,14.1,30,25.6.22,1.26.44,2.53.65,3.8.54,3-11.58,45.34-35.76,129,.62,22.77-8.43,32.63-27.18,30-16.86-2.33-27.91-12.07-33.17-29.6-2.15-13.59,11-66.11,40.28-154.61C1668.09,221.11,1674.82,219.39,1680.91,220.55Z"/><path d="M1788,438c32.57,11.2,50.07,25.71,52.75,42.43l1.8,11.3c2.63,16.66-11.42,23.49-42.25,21.79l-6.11-1.2c-25.42-8.57-42.24-22.53-50.4-42.65-.26-1.51-.51-3-.76-4.54C1739.47,444.2,1754.49,434.66,1788,438Zm48-254.61,6.26,1.8c22.7,9,35.13,20.92,37.44,35.29.25,1.59.5,3.17.76,4.75.62,3.84-15.37,54.09-47.26,154.29.4,28.06-11.16,39.18-34.79,34.05-21.24-4.59-35-17.64-41.42-39.79-2.5-16.95,15-80.71,53.45-186.4C1819.72,182.48,1828.25,181.18,1835.92,183.36Z"/><path d="M215.41,343.13l3-1.49c63.38-23,103.37-10.44,118.58,33.43,10.82,31-3.11,82.85-38.61,159.19.31.9.63,1.79,1,2.69,61.42-8.9,98.17,5.72,109.72,40.5q2.16,6.46,4.3,12.92c15.7,47.32-10.19,104.36-72.54,178.38C301.12,799.61,277,819.06,267.37,825c-47.18,29.44-80.94,31-103.2,2l-.94-2.46c-1.58-4.18.16-19.7,5.49-46.36-27-129.51-40.32-228-38.42-294.55C139.56,413.82,168.07,366.5,215.41,343.13Zm4.49,297Q231.11,707,237.37,760.35l6.47-.68c61-37.2,95-79.75,100.55-131.85-.9-2.6-1.79-5.21-2.69-7.82C334.44,598.79,293.06,603.44,219.9,640.1Zm-13.48-90.9,5.52-3.08c40-68.78,57.72-114.9,50-142q-11.34-.54-19.3,3.45-2.86,1.43-5.71,2.87C210.26,423.81,200,470.26,206.42,549.2Z"/><path d="M467.25,342.06q3.53-1.37,7.05-2.7c10.48-4,32,2.46,64.22,19.67,24.63,22.77,40.54,46.55,48.05,71.19,14.49,47.55,4.69,106.71-26.64,180.73-23.87,32.79-41.95,52.6-54.93,58.5q-5.47,2.5-10.94,5c-29.14,13.51-53.27,9-73.12-14.51a97.86,97.86,0,0,1-14.05-26.55q-1-3.06-2.05-6.14c-16-48-15-116,5.63-201.5C427.38,377.75,446.56,350,467.25,342.06Zm-3,271.18,9,12.34,4.56-2.09c33.06-15.12,51.4-64.37,55.42-148.28q-2.64-12.7-5.3-25.41c-17.48-34.47-29.62-50.55-36-48.06q-5.88,2.29-11.75,4.61c-25.68,51.78-33.15,113.16-23.85,182.38Q460.33,601,464.27,613.24Z"/><path d="M683.19,258.11l7.54-2c11.17-3,33.57,5.46,66.67,25.66C782.34,306.79,798.09,332,805,357.29c13.29,48.77.61,106.75-35.44,177.69-26.5,30.5-46.39,48.65-60.33,53.38q-5.88,2-11.75,4c-31.3,10.89-56.58,4.28-76.51-21a101.33,101.33,0,0,1-13.68-27.76l-1.89-6.32c-14.79-49.4-10.8-117.28,14.56-200.85C639.78,290,661.11,264.13,683.19,258.11ZM668.64,528.58l9,13.12,4.9-1.67c35.49-12.13,56.87-59.59,64.57-142.92q-2.25-12.92-4.53-25.84c-17-36-29-53.19-35.86-51.3q-6.28,1.74-12.56,3.51c-29.17,49.3-39.65,109.94-32.8,179.9Q665,516,668.64,528.58Z"/><path d="M906.69,221.37l7.34-1.23c10.9-1.81,32.2,7.92,63.45,29.41,23.23,25.24,37.6,49.85,43.42,73.75,11.23,46.12-2.85,98.49-40.23,160.78-26.74,25.83-46.73,40.84-60.43,44q-5.79,1.33-11.57,2.7c-30.83,7.34-55.2-.95-73.64-25.95a96.76,96.76,0,0,1-12.25-26.78q-.81-3-1.6-6c-12.52-46.81-6-109,21.57-183.88C863.66,247.07,885.17,225,906.69,221.37ZM883,469.46q4.11,6.44,8.22,12.87l4.82-1.12c34.91-8.11,57.3-50,67.59-126.18q-1.74-12.11-3.49-24.22c-15.17-34.66-26.26-51.54-32.9-50.39q-6.12,1.06-12.25,2.16c-29.92,42.93-42.3,97.93-38.18,163Q879.89,457.54,883,469.46Z"/><path d="M1091.06,199.88c27.86-2.34,47.18,19.89,57.63,65.55,13.87,33.4,22.46,49.87,26.07,49.62,32.41-66.2,53.34-102.28,61.57-111,8.84-4.09,16.65-6.14,23.4-6.2,17.72-.16,31.63,10.95,41.61,32.91,8.5,125.11,14.94,199.62,20.08,224.66-3.11,12.91-10.48,19.59-22.14,20.14l-4.88.24c-19,1-31.13-11.14-36.59-36.81q-5.88-61.83-12-124-13.17,18-26.21,36.44Q1204.22,374,1181,375.88l-2.47.2c-30.32,2.52-55-20-74.83-68.9-1.51-6.49-3.87-9.59-7.06-9.26a1137.1,1137.1,0,0,0-37.12,188.51q-8.05,9.45-16.91,11l-7,1.21c-17.86.77-28.25-4.8-31.21-17.05-.63-2.58-1.25-5.16-1.88-7.74,4.86-65.81,19.78-143.66,46.08-231.3C1057.71,215.74,1071.93,201.5,1091.06,199.88Z"/><path d="M1403.35,195.54c27.8,1.65,46.11,25.19,54.75,69.46,12.51,33.25,20.44,49.88,24,50.15,34.73-57.55,56.74-88.37,65.21-95.39,8.9-2.58,16.69-3.38,23.37-2.48,17.53,2.39,30.88,14.81,40,36.81,4.07,118.39,8,189.06,12.21,213.23-3.52,11.64-11.07,16.84-22.69,15.71l-4.86-.47c-18.92-1.79-30.61-14.83-35.12-39.64q-3.66-58.76-7.51-117.85-13.71,15.06-27.35,30.46-16.11,19-39.32,17.52l-2.46-.15c-30.31-1.85-54.12-26.32-71.92-74.94q-1.87-9.45-6.67-9.65a962.23,962.23,0,0,0-44.67,171.88q-8.46,7.79-17.41,8l-7.13.19c-18-1.65-28.16-8.26-30.62-20.16l-1.56-7.52c7.65-61.15,25.89-132.29,55.69-211C1369.53,205.86,1384.26,194.44,1403.35,195.54Z"/><path d="M1640.68,424.45c25.89,7,39.93,17.57,42.23,31l1.56,9.08c2.27,13.36-8.81,19.92-33.25,20.45l-4.85-.6c-20.22-5.41-33.67-15.79-40.33-31.6-.21-1.21-.43-2.42-.65-3.63C1602.4,432.42,1614.17,423.89,1640.68,424.45Zm35.23-209.9,5,1c18,5.45,28,14.1,30,25.6.22,1.26.44,2.53.65,3.8.54,3-11.58,45.34-35.76,129,.62,22.77-8.43,32.63-27.18,30-16.86-2.33-27.91-12.07-33.17-29.6-2.15-13.59,11-66.11,40.28-154.61C1663.09,215.11,1669.82,213.39,1675.91,214.55Z"/><path d="M1783,432c32.57,11.2,50.07,25.71,52.75,42.43l1.8,11.3c2.63,16.66-11.42,23.49-42.25,21.79l-6.11-1.2c-25.42-8.57-42.24-22.53-50.4-42.65-.26-1.51-.51-3-.76-4.54C1734.47,438.2,1749.49,428.66,1783,432Zm48-254.61,6.26,1.8c22.7,9,35.13,20.92,37.44,35.29.25,1.59.5,3.17.76,4.75.62,3.84-15.37,54.09-47.26,154.29.4,28.06-11.16,39.18-34.79,34.05-21.24-4.59-35-17.64-41.42-39.79-2.5-16.95,15-80.71,53.45-186.4C1814.72,176.48,1823.25,175.18,1830.92,177.36Z"/><path d="M210.41,337.13l3-1.49c63.38-23,103.37-10.44,118.58,33.43,10.82,31-3.11,82.85-38.61,159.19.31.9.63,1.79,1,2.69,61.42-8.9,98.17,5.72,109.72,40.5q2.16,6.46,4.3,12.92c15.7,47.32-10.19,104.36-72.54,178.38C296.12,793.61,272,813.06,262.37,819c-47.18,29.44-80.94,31-103.2,2l-.94-2.46c-1.58-4.18.16-19.7,5.49-46.36-27-129.51-40.32-228-38.42-294.55C134.56,407.82,163.07,360.5,210.41,337.13Zm4.49,297Q226.11,701,232.37,754.35l6.47-.68c61-37.2,95-79.75,100.55-131.85-.9-2.6-1.79-5.21-2.69-7.82C329.44,592.79,288.06,597.44,214.9,634.1Zm-13.48-90.9,5.52-3.08c40-68.78,57.72-114.9,50-142q-11.34-.54-19.3,3.45-2.86,1.43-5.71,2.87C205.26,417.81,195,464.26,201.42,543.2Z"/><path d="M462.25,336.06q3.53-1.37,7.05-2.7c10.48-4,32,2.46,64.22,19.67,24.63,22.77,40.54,46.55,48.05,71.19,14.49,47.55,4.69,106.71-26.64,180.73-23.87,32.79-41.95,52.6-54.93,58.5q-5.47,2.5-10.94,5c-29.14,13.51-53.27,9-73.12-14.51a97.86,97.86,0,0,1-14.05-26.55q-1-3.06-2.05-6.14c-16-48-15-116,5.63-201.5C422.38,371.75,441.56,344,462.25,336.06Zm-3,271.18,9,12.34,4.56-2.09c33.06-15.12,51.4-64.37,55.42-148.28q-2.64-12.7-5.3-25.41c-17.48-34.47-29.62-50.55-36-48.06q-5.88,2.29-11.75,4.61c-25.68,51.78-33.15,113.16-23.85,182.38Q455.33,595,459.27,607.24Z"/><path d="M678.19,252.11l7.54-2c11.17-3,33.57,5.46,66.67,25.66C777.34,300.79,793.09,326,800,351.29c13.29,48.77.61,106.75-35.44,177.69-26.5,30.5-46.39,48.65-60.33,53.38q-5.88,2-11.75,4c-31.3,10.89-56.58,4.28-76.51-21a101.33,101.33,0,0,1-13.68-27.76l-1.89-6.32c-14.79-49.4-10.8-117.28,14.56-200.85C634.78,284,656.11,258.13,678.19,252.11ZM663.64,522.58l9,13.12,4.9-1.67c35.49-12.13,56.87-59.59,64.57-142.92q-2.25-12.92-4.53-25.84c-17-36-29-53.19-35.86-51.3q-6.28,1.74-12.56,3.51c-29.17,49.3-39.65,109.94-32.8,179.9Q660,510,663.64,522.58Z"/><path d="M901.69,215.37l7.34-1.23c10.9-1.81,32.2,7.92,63.45,29.41,23.23,25.24,37.6,49.85,43.42,73.75,11.23,46.12-2.85,98.49-40.23,160.78-26.74,25.83-46.73,40.84-60.43,44q-5.79,1.33-11.57,2.7c-30.83,7.34-55.2-.95-73.64-25.95a96.76,96.76,0,0,1-12.25-26.78q-.81-3-1.6-6c-12.52-46.81-6-109,21.57-183.88C858.66,241.07,880.17,219,901.69,215.37ZM878,463.46q4.11,6.44,8.22,12.87l4.82-1.12c34.91-8.11,57.3-50,67.59-126.18q-1.74-12.11-3.49-24.22c-15.17-34.66-26.26-51.54-32.9-50.39q-6.12,1.06-12.25,2.16c-29.92,42.93-42.3,97.93-38.18,163Q874.89,451.54,878,463.46Z"/><path d="M1086.06,193.88c27.86-2.34,47.18,19.89,57.63,65.55,13.87,33.4,22.46,49.87,26.07,49.62,32.41-66.2,53.34-102.28,61.57-111,8.84-4.09,16.65-6.14,23.4-6.2,17.72-.16,31.63,10.95,41.61,32.91,8.5,125.11,14.94,199.62,20.08,224.66-3.11,12.91-10.48,19.59-22.14,20.14l-4.88.24c-19,1-31.13-11.14-36.59-36.81q-5.88-61.83-12-124-13.17,18-26.21,36.44Q1199.22,368,1176,369.88l-2.47.2c-30.32,2.52-55-20-74.83-68.9-1.51-6.49-3.87-9.59-7.06-9.26a1137.1,1137.1,0,0,0-37.12,188.51q-8.05,9.45-16.91,11l-7,1.21c-17.86.77-28.25-4.8-31.21-17.05-.63-2.58-1.25-5.16-1.88-7.74,4.86-65.81,19.78-143.66,46.08-231.3C1052.71,209.74,1066.93,195.5,1086.06,193.88Z"/><path d="M1398.35,189.54c27.8,1.65,46.11,25.19,54.75,69.46,12.51,33.25,20.44,49.88,24,50.15,34.73-57.55,56.74-88.37,65.21-95.39,8.9-2.58,16.69-3.38,23.37-2.48,17.53,2.39,30.88,14.81,40,36.81,4.07,118.39,8,189.06,12.21,213.23-3.52,11.64-11.07,16.84-22.69,15.71l-4.86-.47c-18.92-1.79-30.61-14.83-35.12-39.64q-3.66-58.76-7.51-117.85-13.71,15.06-27.35,30.46-16.11,19-39.32,17.52l-2.46-.15c-30.31-1.85-54.12-26.32-71.92-74.94q-1.87-9.45-6.67-9.65a962.23,962.23,0,0,0-44.67,171.88q-8.46,7.79-17.41,8l-7.13.19c-18-1.65-28.16-8.26-30.62-20.16l-1.56-7.52c7.65-61.15,25.89-132.29,55.69-211C1364.53,199.86,1379.26,188.44,1398.35,189.54Z"/><path d="M1635.68,418.45c25.89,7,39.93,17.57,42.23,31l1.56,9.08c2.27,13.36-8.81,19.92-33.25,20.45l-4.85-.6c-20.22-5.41-33.67-15.79-40.33-31.6-.21-1.21-.43-2.42-.65-3.63C1597.4,426.42,1609.17,417.89,1635.68,418.45Zm35.23-209.9,5,1c18,5.45,28,14.1,30,25.6.22,1.26.44,2.53.65,3.8.54,3-11.58,45.34-35.76,129,.62,22.77-8.43,32.63-27.18,30-16.86-2.33-27.91-12.07-33.17-29.6-2.15-13.59,11-66.11,40.28-154.61C1658.09,209.11,1664.82,207.39,1670.91,208.55Z"/><path d="M1778,426c32.57,11.2,50.07,25.71,52.75,42.43l1.8,11.3c2.63,16.66-11.42,23.49-42.25,21.79l-6.11-1.2c-25.42-8.57-42.24-22.53-50.4-42.65-.26-1.51-.51-3-.76-4.54C1729.47,432.2,1744.49,422.66,1778,426Zm48-254.61,6.26,1.8c22.7,9,35.13,20.92,37.44,35.29.25,1.59.5,3.17.76,4.75.62,3.84-15.37,54.09-47.26,154.29.4,28.06-11.16,39.18-34.79,34.05-21.24-4.59-35-17.64-41.42-39.79-2.5-16.95,15-80.71,53.45-186.4C1809.72,170.48,1818.25,169.18,1825.92,171.36Z"/><path d="M205.41,331.13l3-1.49c63.38-23,103.37-10.44,118.58,33.43,10.82,31-3.11,82.85-38.61,159.19.31.9.63,1.79,1,2.69,61.42-8.9,98.17,5.72,109.72,40.5q2.16,6.46,4.3,12.92c15.7,47.32-10.19,104.36-72.54,178.38C291.12,787.61,267,807.06,257.37,813c-47.18,29.44-80.94,31-103.2,2l-.94-2.46c-1.58-4.18.16-19.7,5.49-46.36-27-129.51-40.32-228-38.42-294.55C129.56,401.82,158.07,354.5,205.41,331.13Zm4.49,297Q221.11,695,227.37,748.35l6.47-.68c61-37.2,95-79.75,100.55-131.85-.9-2.6-1.79-5.21-2.69-7.82C324.44,586.79,283.06,591.44,209.9,628.1Zm-13.48-90.9,5.52-3.08c40-68.78,57.72-114.9,50-142q-11.34-.54-19.3,3.45-2.86,1.43-5.71,2.87C200.26,411.81,190,458.26,196.42,537.2Z"/><path d="M457.25,330.06q3.53-1.37,7.05-2.7c10.48-4,32,2.46,64.22,19.67,24.63,22.77,40.54,46.55,48.05,71.19,14.49,47.55,4.69,106.71-26.64,180.73-23.87,32.79-41.95,52.6-54.93,58.5q-5.47,2.5-10.94,5c-29.14,13.51-53.27,9-73.12-14.51a97.86,97.86,0,0,1-14.05-26.55q-1-3.06-2.05-6.14c-16-48-15-116,5.63-201.5C417.38,365.75,436.56,338,457.25,330.06Zm-3,271.18,9,12.34,4.56-2.09c33.06-15.12,51.4-64.37,55.42-148.28q-2.64-12.7-5.3-25.41c-17.48-34.47-29.62-50.55-36-48.06q-5.88,2.29-11.75,4.61c-25.68,51.78-33.15,113.16-23.85,182.38Q450.33,589,454.27,601.24Z"/><path d="M673.19,246.11l7.54-2c11.17-3,33.57,5.46,66.67,25.66C772.34,294.79,788.09,320,795,345.29c13.29,48.77.61,106.75-35.44,177.69-26.5,30.5-46.39,48.65-60.33,53.38q-5.88,2-11.75,4c-31.3,10.89-56.58,4.28-76.51-21a101.33,101.33,0,0,1-13.68-27.76l-1.89-6.32c-14.79-49.4-10.8-117.28,14.56-200.85C629.78,278,651.11,252.13,673.19,246.11ZM658.64,516.58l9,13.12,4.9-1.67c35.49-12.13,56.87-59.59,64.57-142.92q-2.25-12.92-4.53-25.84c-17-36-29-53.19-35.86-51.3q-6.28,1.74-12.56,3.51c-29.17,49.3-39.65,109.94-32.8,179.9Q655,504,658.64,516.58Z"/><path d="M896.69,209.37l7.34-1.23c10.9-1.81,32.2,7.92,63.45,29.41,23.23,25.24,37.6,49.85,43.42,73.75,11.23,46.12-2.85,98.49-40.23,160.78-26.74,25.83-46.73,40.84-60.43,44q-5.79,1.33-11.57,2.7c-30.83,7.34-55.2-.95-73.64-25.95a96.76,96.76,0,0,1-12.25-26.78q-.81-3-1.6-6c-12.52-46.81-6-109,21.57-183.88C853.66,235.07,875.17,213,896.69,209.37ZM873,457.46q4.11,6.44,8.22,12.87l4.82-1.12c34.91-8.11,57.3-50,67.59-126.18q-1.74-12.11-3.49-24.22c-15.17-34.66-26.26-51.54-32.9-50.39q-6.12,1.06-12.25,2.16c-29.92,42.93-42.3,97.93-38.18,163Q869.89,445.54,873,457.46Z"/><path d="M1081.06,187.88c27.86-2.34,47.18,19.89,57.63,65.55,13.87,33.4,22.46,49.87,26.07,49.62,32.41-66.2,53.34-102.28,61.57-111,8.84-4.09,16.65-6.14,23.4-6.2,17.72-.16,31.63,10.95,41.61,32.91,8.5,125.11,14.94,199.62,20.08,224.66-3.11,12.91-10.48,19.59-22.14,20.14l-4.88.24c-19,1-31.13-11.14-36.59-36.81q-5.88-61.83-12-124-13.17,18-26.21,36.44Q1194.22,362,1171,363.88l-2.47.2c-30.32,2.52-55-20-74.83-68.9-1.51-6.49-3.87-9.59-7.06-9.26a1137.1,1137.1,0,0,0-37.12,188.51q-8.05,9.45-16.91,11l-7,1.21c-17.86.77-28.25-4.8-31.21-17.05-.63-2.58-1.25-5.16-1.88-7.74,4.86-65.81,19.78-143.66,46.08-231.3C1047.71,203.74,1061.93,189.5,1081.06,187.88Z"/><path d="M1393.35,183.54c27.8,1.65,46.11,25.19,54.75,69.46,12.51,33.25,20.44,49.88,24,50.15,34.73-57.55,56.74-88.37,65.21-95.39,8.9-2.58,16.69-3.38,23.37-2.48,17.53,2.39,30.88,14.81,40,36.81,4.07,118.39,8,189.06,12.21,213.23-3.52,11.64-11.07,16.84-22.69,15.71l-4.86-.47c-18.92-1.79-30.61-14.83-35.12-39.64q-3.66-58.76-7.51-117.85-13.71,15.06-27.35,30.46-16.11,19-39.32,17.52l-2.46-.15c-30.31-1.85-54.12-26.32-71.92-74.94q-1.87-9.45-6.67-9.65a962.23,962.23,0,0,0-44.67,171.88q-8.46,7.79-17.41,8l-7.13.19c-18-1.65-28.16-8.26-30.62-20.16l-1.56-7.52c7.65-61.15,25.89-132.29,55.69-211C1359.53,193.86,1374.26,182.44,1393.35,183.54Z"/><path d="M1630.68,412.45c25.89,7,39.93,17.57,42.23,31l1.56,9.08c2.27,13.36-8.81,19.92-33.25,20.45l-4.85-.6c-20.22-5.41-33.67-15.79-40.33-31.6-.21-1.21-.43-2.42-.65-3.63C1592.4,420.42,1604.17,411.89,1630.68,412.45Zm35.23-209.9,5,1c18,5.45,28,14.1,30,25.6.22,1.26.44,2.53.65,3.8.54,3-11.58,45.34-35.76,129,.62,22.77-8.43,32.63-27.18,30-16.86-2.33-27.91-12.07-33.17-29.6-2.15-13.59,11-66.11,40.28-154.61C1653.09,203.11,1659.82,201.39,1665.91,202.55Z"/><path d="M1773,420c32.57,11.2,50.07,25.71,52.75,42.43l1.8,11.3c2.63,16.66-11.42,23.49-42.25,21.79l-6.11-1.2c-25.42-8.57-42.24-22.53-50.4-42.65-.26-1.51-.51-3-.76-4.54C1724.47,426.2,1739.49,416.66,1773,420Zm48-254.61,6.26,1.8c22.7,9,35.13,20.92,37.44,35.29.25,1.59.5,3.17.76,4.75.62,3.84-15.37,54.09-47.26,154.29.4,28.06-11.16,39.18-34.79,34.05-21.24-4.59-35-17.64-41.42-39.79-2.5-16.95,15-80.71,53.45-186.4C1804.72,164.48,1813.25,163.18,1820.92,165.36Z"/><path d="M200.41,325.13l3-1.49c63.38-23,103.37-10.44,118.58,33.43,10.82,31-3.11,82.85-38.61,159.19.31.9.63,1.79,1,2.69,61.42-8.9,98.17,5.72,109.72,40.5q2.16,6.46,4.3,12.92c15.7,47.32-10.19,104.36-72.54,178.38C286.12,781.61,262,801.06,252.37,807c-47.18,29.44-80.94,31-103.2,2l-.94-2.46c-1.58-4.18.16-19.7,5.49-46.36-27-129.51-40.32-228-38.42-294.55C124.56,395.82,153.07,348.5,200.41,325.13Zm4.49,297Q216.11,689,222.37,742.35l6.47-.68c61-37.2,95-79.75,100.55-131.85-.9-2.6-1.79-5.21-2.69-7.82C319.44,580.79,278.06,585.44,204.9,622.1Zm-13.48-90.9,5.52-3.08c40-68.78,57.72-114.9,50-142q-11.34-.54-19.3,3.45-2.86,1.43-5.71,2.87C195.26,405.81,185,452.26,191.42,531.2Z"/><path d="M452.25,324.06q3.53-1.37,7.05-2.7c10.48-4,32,2.46,64.22,19.67,24.63,22.77,40.54,46.55,48.05,71.19,14.49,47.55,4.69,106.71-26.64,180.73-23.87,32.79-41.95,52.6-54.93,58.5q-5.47,2.5-10.94,5c-29.14,13.51-53.27,9-73.12-14.51a97.86,97.86,0,0,1-14.05-26.55q-1-3.06-2.05-6.14c-16-48-15-116,5.63-201.5C412.38,359.75,431.56,332,452.25,324.06Zm-3,271.18,9,12.34,4.56-2.09c33.06-15.12,51.4-64.37,55.42-148.28q-2.64-12.7-5.3-25.41c-17.48-34.47-29.62-50.55-36-48.06q-5.88,2.29-11.75,4.61c-25.68,51.78-33.15,113.16-23.85,182.38Q445.33,583,449.27,595.24Z"/><path d="M668.19,240.11l7.54-2c11.17-3,33.57,5.46,66.67,25.66C767.34,288.79,783.09,314,790,339.29c13.29,48.77.61,106.75-35.44,177.69-26.5,30.5-46.39,48.65-60.33,53.38q-5.88,2-11.75,4c-31.3,10.89-56.58,4.28-76.51-21a101.33,101.33,0,0,1-13.68-27.76l-1.89-6.32c-14.79-49.4-10.8-117.28,14.56-200.85C624.78,272,646.11,246.13,668.19,240.11ZM653.64,510.58l9,13.12,4.9-1.67c35.49-12.13,56.87-59.59,64.57-142.92q-2.25-12.92-4.53-25.84c-17-36-29-53.19-35.86-51.3q-6.28,1.74-12.56,3.51c-29.17,49.3-39.65,109.94-32.8,179.9Q650,498,653.64,510.58Z"/><path d="M891.69,203.37l7.34-1.23c10.9-1.81,32.2,7.92,63.45,29.41,23.23,25.24,37.6,49.85,43.42,73.75,11.23,46.12-2.85,98.49-40.23,160.78-26.74,25.83-46.73,40.84-60.43,44q-5.79,1.34-11.57,2.7c-30.83,7.34-55.2-.95-73.64-25.95a96.76,96.76,0,0,1-12.25-26.78q-.81-3-1.6-6c-12.52-46.81-6-109,21.57-183.88C848.66,229.07,870.17,207,891.69,203.37ZM868,451.46q4.11,6.44,8.22,12.87l4.82-1.12c34.91-8.11,57.3-50,67.59-126.18q-1.74-12.11-3.49-24.22c-15.17-34.66-26.26-51.54-32.9-50.39q-6.12,1.06-12.25,2.16c-29.92,42.93-42.3,97.93-38.18,163Q864.89,439.54,868,451.46Z"/><path d="M1076.06,181.88c27.86-2.34,47.18,19.89,57.63,65.55,13.87,33.4,22.46,49.87,26.07,49.62,32.41-66.2,53.34-102.28,61.57-111,8.84-4.09,16.65-6.14,23.4-6.2,17.72-.16,31.63,10.95,41.61,32.91,8.5,125.11,14.94,199.62,20.08,224.66-3.11,12.91-10.48,19.59-22.14,20.14l-4.88.24c-19,1-31.13-11.14-36.59-36.81q-5.88-61.83-12-124-13.17,18-26.21,36.44Q1189.22,356,1166,357.88l-2.47.2c-30.32,2.52-55-20-74.83-68.9-1.51-6.49-3.87-9.59-7.06-9.26a1137.1,1137.1,0,0,0-37.12,188.51q-8.05,9.45-16.91,11l-7,1.21c-17.86.77-28.25-4.8-31.21-17.05-.63-2.58-1.25-5.16-1.88-7.74,4.86-65.81,19.78-143.66,46.08-231.3C1042.71,197.74,1056.93,183.5,1076.06,181.88Z"/><path d="M1388.35,177.54c27.8,1.65,46.11,25.19,54.75,69.46,12.51,33.25,20.44,49.88,24,50.15,34.73-57.55,56.74-88.37,65.21-95.39,8.9-2.58,16.69-3.38,23.37-2.48,17.53,2.39,30.88,14.81,40,36.81,4.07,118.39,8,189.06,12.21,213.23-3.52,11.64-11.07,16.84-22.69,15.71l-4.86-.47c-18.92-1.79-30.61-14.83-35.12-39.64q-3.66-58.76-7.51-117.85-13.71,15.06-27.35,30.46-16.11,19-39.32,17.52l-2.46-.15c-30.31-1.85-54.12-26.32-71.92-74.94q-1.87-9.45-6.67-9.65a962.23,962.23,0,0,0-44.67,171.88q-8.46,7.79-17.41,8l-7.13.19c-18-1.65-28.16-8.26-30.62-20.16l-1.56-7.52c7.65-61.15,25.89-132.29,55.69-211C1354.53,187.86,1369.26,176.44,1388.35,177.54Z"/><path d="M1625.68,406.45c25.89,7,39.93,17.57,42.23,31l1.56,9.08c2.27,13.36-8.81,19.92-33.25,20.45l-4.85-.6c-20.22-5.41-33.67-15.79-40.33-31.6-.21-1.21-.43-2.42-.65-3.63C1587.4,414.42,1599.17,405.89,1625.68,406.45Zm35.23-209.9,5,1c18,5.45,28,14.1,30,25.6.22,1.26.44,2.53.65,3.8.54,3-11.58,45.34-35.76,129,.62,22.77-8.43,32.63-27.18,30-16.86-2.33-27.91-12.07-33.17-29.6-2.15-13.59,11-66.11,40.28-154.61C1648.09,197.11,1654.82,195.39,1660.91,196.55Z"/><path d="M1768,414c32.57,11.2,50.07,25.71,52.75,42.43l1.8,11.3c2.63,16.66-11.42,23.49-42.25,21.79l-6.11-1.2c-25.42-8.57-42.24-22.53-50.4-42.65-.26-1.51-.51-3-.76-4.54C1719.47,420.2,1734.49,410.66,1768,414Zm48-254.61,6.26,1.8c22.7,9,35.13,20.92,37.44,35.29.25,1.59.5,3.17.76,4.75.62,3.84-15.37,54.09-47.26,154.29.4,28.06-11.16,39.18-34.79,34.05-21.24-4.59-35-17.64-41.42-39.79-2.5-16.95,15-80.71,53.45-186.4C1799.72,158.48,1808.25,157.18,1815.92,159.36Z"/><path d="M218.41,343.13l3-1.49c63.38-23,103.37-10.44,118.58,33.43,10.82,31-3.11,82.85-38.61,159.19.31.9.63,1.79,1,2.69,61.42-8.9,98.17,5.72,109.72,40.5q2.16,6.46,4.3,12.92c15.7,47.32-10.19,104.36-72.54,178.38C304.12,799.61,280,819.06,270.37,825c-47.18,29.44-80.94,31-103.2,2l-.94-2.46c-1.58-4.18.16-19.7,5.49-46.36-27-129.51-40.32-228-38.42-294.55C142.56,413.82,171.07,366.5,218.41,343.13Zm4.49,297Q234.11,707,240.37,760.35l6.47-.68c61-37.2,95-79.75,100.55-131.85-.9-2.6-1.79-5.21-2.69-7.82C337.44,598.79,296.06,603.44,222.9,640.1Zm-13.48-90.9,5.52-3.08c40-68.78,57.72-114.9,50-142q-11.34-.54-19.3,3.45-2.86,1.43-5.71,2.87C213.26,423.81,203,470.26,209.42,549.2Z" fill="#ffcd00"/><path d="M470.25,342.06q3.53-1.37,7.05-2.7c10.48-4,32,2.46,64.22,19.67,24.63,22.77,40.54,46.55,48.05,71.19,14.49,47.55,4.69,106.71-26.64,180.73-23.87,32.79-41.95,52.6-54.93,58.5q-5.47,2.5-10.94,5c-29.14,13.51-53.27,9-73.12-14.51a97.86,97.86,0,0,1-14.05-26.55q-1-3.06-2.05-6.14c-16-48-15-116,5.63-201.5C430.38,377.75,449.56,350,470.25,342.06Zm-3,271.18,9,12.34,4.56-2.09c33.06-15.12,51.4-64.37,55.42-148.28q-2.64-12.7-5.3-25.41c-17.48-34.47-29.62-50.55-36-48.06q-5.88,2.29-11.75,4.61c-25.68,51.78-33.15,113.16-23.85,182.38Q463.33,601,467.27,613.24Z" fill="#ffcd00"/><path d="M686.19,258.11l7.54-2c11.17-3,33.57,5.46,66.67,25.66C785.34,306.79,801.09,332,808,357.29c13.29,48.77.61,106.75-35.44,177.69-26.5,30.5-46.39,48.65-60.33,53.38q-5.88,2-11.75,4c-31.3,10.89-56.58,4.28-76.51-21a101.33,101.33,0,0,1-13.68-27.76l-1.89-6.32c-14.79-49.4-10.8-117.28,14.56-200.85C642.78,290,664.11,264.13,686.19,258.11ZM671.64,528.58l9,13.12,4.9-1.67c35.49-12.13,56.87-59.59,64.57-142.92q-2.25-12.92-4.53-25.84c-17-36-29-53.19-35.86-51.3q-6.28,1.74-12.56,3.51c-29.17,49.3-39.65,109.94-32.8,179.9Q668,516,671.64,528.58Z" fill="#ffcd00"/><path d="M909.69,221.37l7.34-1.23c10.9-1.81,32.2,7.92,63.45,29.41,23.23,25.24,37.6,49.85,43.42,73.75,11.23,46.12-2.85,98.49-40.23,160.78-26.74,25.83-46.73,40.84-60.43,44q-5.79,1.33-11.57,2.7c-30.83,7.34-55.2-.95-73.64-25.95a96.76,96.76,0,0,1-12.25-26.78q-.81-3-1.6-6c-12.52-46.81-6-109,21.57-183.88C866.66,247.07,888.17,225,909.69,221.37ZM886,469.46q4.11,6.44,8.22,12.87l4.82-1.12c34.91-8.11,57.3-50,67.59-126.18q-1.74-12.11-3.49-24.22c-15.17-34.66-26.26-51.54-32.9-50.39q-6.12,1.06-12.25,2.16c-29.92,42.93-42.3,97.93-38.18,163Q882.89,457.54,886,469.46Z" fill="#ffcd00"/><path d="M1094.06,199.88c27.86-2.34,47.18,19.89,57.63,65.55,13.87,33.4,22.46,49.87,26.07,49.62,32.41-66.2,53.34-102.28,61.57-111,8.84-4.09,16.65-6.14,23.4-6.2,17.72-.16,31.63,10.95,41.61,32.91,8.5,125.11,14.94,199.62,20.08,224.66-3.11,12.91-10.48,19.59-22.14,20.14l-4.88.24c-19,1-31.13-11.14-36.59-36.81q-5.88-61.83-12-124-13.17,18-26.21,36.44Q1207.22,374,1184,375.88l-2.47.2c-30.32,2.52-55-20-74.83-68.9-1.51-6.49-3.87-9.59-7.06-9.26a1137.1,1137.1,0,0,0-37.12,188.51q-8.05,9.45-16.91,11l-7,1.21c-17.86.77-28.25-4.8-31.21-17.05-.63-2.58-1.25-5.16-1.88-7.74,4.86-65.81,19.78-143.66,46.08-231.3C1060.71,215.74,1074.93,201.5,1094.06,199.88Z" fill="#ffcd00"/><path d="M1406.35,195.54c27.8,1.65,46.11,25.19,54.75,69.46,12.51,33.25,20.44,49.88,24,50.15,34.73-57.55,56.74-88.37,65.21-95.39,8.9-2.58,16.69-3.38,23.37-2.48,17.53,2.39,30.88,14.81,40,36.81,4.07,118.39,8,189.06,12.21,213.23-3.52,11.64-11.07,16.84-22.69,15.71l-4.86-.47c-18.92-1.79-30.61-14.83-35.12-39.64q-3.66-58.76-7.51-117.85-13.71,15.06-27.35,30.46-16.11,19-39.32,17.52l-2.46-.15c-30.31-1.85-54.12-26.32-71.92-74.94q-1.87-9.45-6.67-9.65a962.23,962.23,0,0,0-44.67,171.88q-8.46,7.79-17.41,8l-7.13.19c-18-1.65-28.16-8.26-30.62-20.16l-1.56-7.52c7.65-61.15,25.89-132.29,55.69-211C1372.53,205.86,1387.26,194.44,1406.35,195.54Z" fill="#ffcd00"/><path d="M1643.68,424.45c25.89,7,39.93,17.57,42.23,31l1.56,9.08c2.27,13.36-8.81,19.92-33.25,20.45l-4.85-.6c-20.22-5.41-33.67-15.79-40.33-31.6-.21-1.21-.43-2.42-.65-3.63C1605.4,432.42,1617.17,423.89,1643.68,424.45Zm35.23-209.9,5,1c18,5.45,28,14.1,30,25.6.22,1.26.44,2.53.65,3.8.54,3-11.58,45.34-35.76,129,.62,22.77-8.43,32.63-27.18,30-16.86-2.33-27.91-12.07-33.17-29.6-2.15-13.59,11-66.11,40.28-154.61C1666.09,215.11,1672.82,213.39,1678.91,214.55Z" fill="#ffcd00"/><path d="M1786,432c32.57,11.2,50.07,25.71,52.75,42.43l1.8,11.3c2.63,16.66-11.42,23.49-42.25,21.79l-6.11-1.2c-25.42-8.57-42.24-22.53-50.4-42.65-.26-1.51-.51-3-.76-4.54C1737.47,438.2,1752.49,428.66,1786,432Zm48-254.61,6.26,1.8c22.7,9,35.13,20.92,37.44,35.29.25,1.59.5,3.17.76,4.75.62,3.84-15.37,54.09-47.26,154.29.4,28.06-11.16,39.18-34.79,34.05-21.24-4.59-35-17.64-41.42-39.79-2.5-16.95,15-80.71,53.45-186.4C1817.72,176.48,1826.25,175.18,1833.92,177.36Z" fill="#ffcd00"/><path d="M212.41,337.13l3-1.49c63.38-23,103.37-10.44,118.58,33.43,10.82,31-3.11,82.85-38.61,159.19.31.9.63,1.79,1,2.69,61.42-8.9,98.17,5.72,109.72,40.5q2.16,6.46,4.3,12.92c15.7,47.32-10.19,104.36-72.54,178.38C298.12,793.61,274,813.06,264.37,819c-47.18,29.44-80.94,31-103.2,2l-.94-2.46c-1.58-4.18.16-19.7,5.49-46.36-27-129.51-40.32-228-38.42-294.55C136.56,407.82,165.07,360.5,212.41,337.13Zm4.49,297Q228.11,701,234.37,754.35l6.47-.68c61-37.2,95-79.75,100.55-131.85-.9-2.6-1.79-5.21-2.69-7.82C331.44,592.79,290.06,597.44,216.9,634.1Zm-13.48-90.9,5.52-3.08c40-68.78,57.72-114.9,50-142q-11.34-.54-19.3,3.45-2.86,1.43-5.71,2.87C207.26,417.81,197,464.26,203.42,543.2Z" fill="#ffcd00"/><path d="M464.25,336.06q3.53-1.37,7.05-2.7c10.48-4,32,2.46,64.22,19.67,24.63,22.77,40.54,46.55,48.05,71.19,14.49,47.55,4.69,106.71-26.64,180.73-23.87,32.79-41.95,52.6-54.93,58.5q-5.47,2.5-10.94,5c-29.14,13.51-53.27,9-73.12-14.51a97.86,97.86,0,0,1-14.05-26.55q-1-3.06-2.05-6.14c-16-48-15-116,5.63-201.5C424.38,371.75,443.56,344,464.25,336.06Zm-3,271.18,9,12.34,4.56-2.09c33.06-15.12,51.4-64.37,55.42-148.28q-2.64-12.7-5.3-25.41c-17.48-34.47-29.62-50.55-36-48.06q-5.88,2.29-11.75,4.61c-25.68,51.78-33.15,113.16-23.85,182.38Q457.33,595,461.27,607.24Z" fill="#ffcd00"/><path d="M680.19,252.11l7.54-2c11.17-3,33.57,5.46,66.67,25.66C779.34,300.79,795.09,326,802,351.29c13.29,48.77.61,106.75-35.44,177.69-26.5,30.5-46.39,48.65-60.33,53.38q-5.88,2-11.75,4c-31.3,10.89-56.58,4.28-76.51-21a101.33,101.33,0,0,1-13.68-27.76l-1.89-6.32c-14.79-49.4-10.8-117.28,14.56-200.85C636.78,284,658.11,258.13,680.19,252.11ZM665.64,522.58l9,13.12,4.9-1.67c35.49-12.13,56.87-59.59,64.57-142.92q-2.25-12.92-4.53-25.84c-17-36-29-53.19-35.86-51.3q-6.28,1.74-12.56,3.51c-29.17,49.3-39.65,109.94-32.8,179.9Q662,510,665.64,522.58Z" fill="#ffcd00"/><path d="M903.69,215.37l7.34-1.23c10.9-1.81,32.2,7.92,63.45,29.41,23.23,25.24,37.6,49.85,43.42,73.75,11.23,46.12-2.85,98.49-40.23,160.78-26.74,25.83-46.73,40.84-60.43,44q-5.79,1.33-11.57,2.7c-30.83,7.34-55.2-.95-73.64-25.95a96.76,96.76,0,0,1-12.25-26.78q-.81-3-1.6-6c-12.52-46.81-6-109,21.57-183.88C860.66,241.07,882.17,219,903.69,215.37ZM880,463.46q4.11,6.44,8.22,12.87l4.82-1.12c34.91-8.11,57.3-50,67.59-126.18q-1.74-12.11-3.49-24.22c-15.17-34.66-26.26-51.54-32.9-50.39q-6.12,1.06-12.25,2.16c-29.92,42.93-42.3,97.93-38.18,163Q876.89,451.54,880,463.46Z" fill="#ffcd00"/><path d="M1088.06,193.88c27.86-2.34,47.18,19.89,57.63,65.55,13.87,33.4,22.46,49.87,26.07,49.62,32.41-66.2,53.34-102.28,61.57-111,8.84-4.09,16.65-6.14,23.4-6.2,17.72-.16,31.63,10.95,41.61,32.91,8.5,125.11,14.94,199.62,20.08,224.66-3.11,12.91-10.48,19.59-22.14,20.14l-4.88.24c-19,1-31.13-11.14-36.59-36.81q-5.88-61.83-12-124-13.17,18-26.21,36.44Q1201.22,368,1178,369.88l-2.47.2c-30.32,2.52-55-20-74.83-68.9-1.51-6.49-3.87-9.59-7.06-9.26a1137.1,1137.1,0,0,0-37.12,188.51q-8.05,9.45-16.91,11l-7,1.21c-17.86.77-28.25-4.8-31.21-17.05-.63-2.58-1.25-5.16-1.88-7.74,4.86-65.81,19.78-143.66,46.08-231.3C1054.71,209.74,1068.93,195.5,1088.06,193.88Z" fill="#ffcd00"/><path d="M1400.35,189.54c27.8,1.65,46.11,25.19,54.75,69.46,12.51,33.25,20.44,49.88,24,50.15,34.73-57.55,56.74-88.37,65.21-95.39,8.9-2.58,16.69-3.38,23.37-2.48,17.53,2.39,30.88,14.81,40,36.81,4.07,118.39,8,189.06,12.21,213.23-3.52,11.64-11.07,16.84-22.69,15.71l-4.86-.47c-18.92-1.79-30.61-14.83-35.12-39.64q-3.66-58.76-7.51-117.85-13.71,15.06-27.35,30.46-16.11,19-39.32,17.52l-2.46-.15c-30.31-1.85-54.12-26.32-71.92-74.94q-1.87-9.45-6.67-9.65a962.23,962.23,0,0,0-44.67,171.88q-8.46,7.79-17.41,8l-7.13.19c-18-1.65-28.16-8.26-30.62-20.16l-1.56-7.52c7.65-61.15,25.89-132.29,55.69-211C1366.53,199.86,1381.26,188.44,1400.35,189.54Z" fill="#ffcd00"/><path d="M1637.68,418.45c25.89,7,39.93,17.57,42.23,31l1.56,9.08c2.27,13.36-8.81,19.92-33.25,20.45l-4.85-.6c-20.22-5.41-33.67-15.79-40.33-31.6-.21-1.21-.43-2.42-.65-3.63C1599.4,426.42,1611.17,417.89,1637.68,418.45Zm35.23-209.9,5,1c18,5.45,28,14.1,30,25.6.22,1.26.44,2.53.65,3.8.54,3-11.58,45.34-35.76,129,.62,22.77-8.43,32.63-27.18,30-16.86-2.33-27.91-12.07-33.17-29.6-2.15-13.59,11-66.11,40.28-154.61C1660.09,209.11,1666.82,207.39,1672.91,208.55Z" fill="#ffcd00"/><path d="M1780,426c32.57,11.2,50.07,25.71,52.75,42.43l1.8,11.3c2.63,16.66-11.42,23.49-42.25,21.79l-6.11-1.2c-25.42-8.57-42.24-22.53-50.4-42.65-.26-1.51-.51-3-.76-4.54C1731.47,432.2,1746.49,422.66,1780,426Zm48-254.61,6.26,1.8c22.7,9,35.13,20.92,37.44,35.29.25,1.59.5,3.17.76,4.75.62,3.84-15.37,54.09-47.26,154.29.4,28.06-11.16,39.18-34.79,34.05-21.24-4.59-35-17.64-41.42-39.79-2.5-16.95,15-80.71,53.45-186.4C1811.72,170.48,1820.25,169.18,1827.92,171.36Z" fill="#ffcd00"/><path d="M206.41,331.13l3-1.49c63.38-23,103.37-10.44,118.58,33.43,10.82,31-3.11,82.85-38.61,159.19.31.9.63,1.79,1,2.69,61.42-8.9,98.17,5.72,109.72,40.5q2.16,6.46,4.3,12.92c15.7,47.32-10.19,104.36-72.54,178.38C292.12,787.61,268,807.06,258.37,813c-47.18,29.44-80.94,31-103.2,2l-.94-2.46c-1.58-4.18.16-19.7,5.49-46.36-27-129.51-40.32-228-38.42-294.55C130.56,401.82,159.07,354.5,206.41,331.13Zm4.49,297Q222.11,695,228.37,748.35l6.47-.68c61-37.2,95-79.75,100.55-131.85-.9-2.6-1.79-5.21-2.69-7.82C325.44,586.79,284.06,591.44,210.9,628.1Zm-13.48-90.9,5.52-3.08c40-68.78,57.72-114.9,50-142q-11.34-.54-19.3,3.45-2.86,1.43-5.71,2.87C201.26,411.81,191,458.26,197.42,537.2Z" fill="#ffcd00"/><path d="M458.25,330.06q3.53-1.37,7.05-2.7c10.48-4,32,2.46,64.22,19.67,24.63,22.77,40.54,46.55,48.05,71.19,14.49,47.55,4.69,106.71-26.64,180.73-23.87,32.79-41.95,52.6-54.93,58.5q-5.47,2.5-10.94,5c-29.14,13.51-53.27,9-73.12-14.51a97.86,97.86,0,0,1-14.05-26.55q-1-3.06-2.05-6.14c-16-48-15-116,5.63-201.5C418.38,365.75,437.56,338,458.25,330.06Zm-3,271.18,9,12.34,4.56-2.09c33.06-15.12,51.4-64.37,55.42-148.28q-2.64-12.7-5.3-25.41c-17.48-34.47-29.62-50.55-36-48.06q-5.88,2.29-11.75,4.61c-25.68,51.78-33.15,113.16-23.85,182.38Q451.33,589,455.27,601.24Z" fill="#ffcd00"/><path d="M674.19,246.11l7.54-2c11.17-3,33.57,5.46,66.67,25.66C773.34,294.79,789.09,320,796,345.29c13.29,48.77.61,106.75-35.44,177.69-26.5,30.5-46.39,48.65-60.33,53.38q-5.88,2-11.75,4c-31.3,10.89-56.58,4.28-76.51-21a101.33,101.33,0,0,1-13.68-27.76l-1.89-6.32c-14.79-49.4-10.8-117.28,14.56-200.85C630.78,278,652.11,252.13,674.19,246.11ZM659.64,516.58l9,13.12,4.9-1.67c35.49-12.13,56.87-59.59,64.57-142.92q-2.25-12.92-4.53-25.84c-17-36-29-53.19-35.86-51.3q-6.28,1.74-12.56,3.51c-29.17,49.3-39.65,109.94-32.8,179.9Q656,504,659.64,516.58Z" fill="#ffcd00"/><path d="M897.69,209.37l7.34-1.23c10.9-1.81,32.2,7.92,63.45,29.41,23.23,25.24,37.6,49.85,43.42,73.75,11.23,46.12-2.85,98.49-40.23,160.78-26.74,25.83-46.73,40.84-60.43,44q-5.79,1.33-11.57,2.7c-30.83,7.34-55.2-.95-73.64-25.95a96.76,96.76,0,0,1-12.25-26.78q-.81-3-1.6-6c-12.52-46.81-6-109,21.57-183.88C854.66,235.07,876.17,213,897.69,209.37ZM874,457.46q4.11,6.44,8.22,12.87l4.82-1.12c34.91-8.11,57.3-50,67.59-126.18q-1.74-12.11-3.49-24.22c-15.17-34.66-26.26-51.54-32.9-50.39q-6.12,1.06-12.25,2.16c-29.92,42.93-42.3,97.93-38.18,163Q870.89,445.54,874,457.46Z" fill="#ffcd00"/><path d="M1082.06,187.88c27.86-2.34,47.18,19.89,57.63,65.55,13.87,33.4,22.46,49.87,26.07,49.62,32.41-66.2,53.34-102.28,61.57-111,8.84-4.09,16.65-6.14,23.4-6.2,17.72-.16,31.63,10.95,41.61,32.91,8.5,125.11,14.94,199.62,20.08,224.66-3.11,12.91-10.48,19.59-22.14,20.14l-4.88.24c-19,1-31.13-11.14-36.59-36.81q-5.88-61.83-12-124-13.17,18-26.21,36.44Q1195.22,362,1172,363.88l-2.47.2c-30.32,2.52-55-20-74.83-68.9-1.51-6.49-3.87-9.59-7.06-9.26a1137.1,1137.1,0,0,0-37.12,188.51q-8.05,9.45-16.91,11l-7,1.21c-17.86.77-28.25-4.8-31.21-17.05-.63-2.58-1.25-5.16-1.88-7.74,4.86-65.81,19.78-143.66,46.08-231.3C1048.71,203.74,1062.93,189.5,1082.06,187.88Z" fill="#ffcd00"/><path d="M1394.35,183.54c27.8,1.65,46.11,25.19,54.75,69.46,12.51,33.25,20.44,49.88,24,50.15,34.73-57.55,56.74-88.37,65.21-95.39,8.9-2.58,16.69-3.38,23.37-2.48,17.53,2.39,30.88,14.81,40,36.81,4.07,118.39,8,189.06,12.21,213.23-3.52,11.64-11.07,16.84-22.69,15.71l-4.86-.47c-18.92-1.79-30.61-14.83-35.12-39.64q-3.66-58.76-7.51-117.85-13.71,15.06-27.35,30.46-16.11,19-39.32,17.52l-2.46-.15c-30.31-1.85-54.12-26.32-71.92-74.94q-1.87-9.45-6.67-9.65a962.23,962.23,0,0,0-44.67,171.88q-8.46,7.79-17.41,8l-7.13.19c-18-1.65-28.16-8.26-30.62-20.16l-1.56-7.52c7.65-61.15,25.89-132.29,55.69-211C1360.53,193.86,1375.26,182.44,1394.35,183.54Z" fill="#ffcd00"/><path d="M1631.68,412.45c25.89,7,39.93,17.57,42.23,31l1.56,9.08c2.27,13.36-8.81,19.92-33.25,20.45l-4.85-.6c-20.22-5.41-33.67-15.79-40.33-31.6-.21-1.21-.43-2.42-.65-3.63C1593.4,420.42,1605.17,411.89,1631.68,412.45Zm35.23-209.9,5,1c18,5.45,28,14.1,30,25.6.22,1.26.44,2.53.65,3.8.54,3-11.58,45.34-35.76,129,.62,22.77-8.43,32.63-27.18,30-16.86-2.33-27.91-12.07-33.17-29.6-2.15-13.59,11-66.11,40.28-154.61C1654.09,203.11,1660.82,201.39,1666.91,202.55Z" fill="#ffcd00"/><path d="M1774,420c32.57,11.2,50.07,25.71,52.75,42.43l1.8,11.3c2.63,16.66-11.42,23.49-42.25,21.79l-6.11-1.2c-25.42-8.57-42.24-22.53-50.4-42.65-.26-1.51-.51-3-.76-4.54C1725.47,426.2,1740.49,416.66,1774,420Zm48-254.61,6.26,1.8c22.7,9,35.13,20.92,37.44,35.29.25,1.59.5,3.17.76,4.75.62,3.84-15.37,54.09-47.26,154.29.4,28.06-11.16,39.18-34.79,34.05-21.24-4.59-35-17.64-41.42-39.79-2.5-16.95,15-80.71,53.45-186.4C1805.72,164.48,1814.25,163.18,1821.92,165.36Z" fill="#ffcd00"/><path d="M200.41,325.13l3-1.49c63.38-23,103.37-10.44,118.58,33.43,10.82,31-3.11,82.85-38.61,159.19.31.9.63,1.79,1,2.69,61.42-8.9,98.17,5.72,109.72,40.5q2.16,6.46,4.3,12.92c15.7,47.32-10.19,104.36-72.54,178.38C286.12,781.61,262,801.06,252.37,807c-47.18,29.44-80.94,31-103.2,2l-.94-2.46c-1.58-4.18.16-19.7,5.49-46.36-27-129.51-40.32-228-38.42-294.55C124.56,395.82,153.07,348.5,200.41,325.13Zm4.49,297Q216.11,689,222.37,742.35l6.47-.68c61-37.2,95-79.75,100.55-131.85-.9-2.6-1.79-5.21-2.69-7.82C319.44,580.79,278.06,585.44,204.9,622.1Zm-13.48-90.9,5.52-3.08c40-68.78,57.72-114.9,50-142q-11.34-.54-19.3,3.45-2.86,1.43-5.71,2.87C195.26,405.81,185,452.26,191.42,531.2Z" fill="#ffcd00"/><path d="M452.25,324.06q3.53-1.37,7.05-2.7c10.48-4,32,2.46,64.22,19.67,24.63,22.77,40.54,46.55,48.05,71.19,14.49,47.55,4.69,106.71-26.64,180.73-23.87,32.79-41.95,52.6-54.93,58.5q-5.47,2.5-10.94,5c-29.14,13.51-53.27,9-73.12-14.51a97.86,97.86,0,0,1-14.05-26.55q-1-3.06-2.05-6.14c-16-48-15-116,5.63-201.5C412.38,359.75,431.56,332,452.25,324.06Zm-3,271.18,9,12.34,4.56-2.09c33.06-15.12,51.4-64.37,55.42-148.28q-2.64-12.7-5.3-25.41c-17.48-34.47-29.62-50.55-36-48.06q-5.88,2.29-11.75,4.61c-25.68,51.78-33.15,113.16-23.85,182.38Q445.33,583,449.27,595.24Z" fill="#ffcd00"/><path d="M668.19,240.11l7.54-2c11.17-3,33.57,5.46,66.67,25.66C767.34,288.79,783.09,314,790,339.29c13.29,48.77.61,106.75-35.44,177.69-26.5,30.5-46.39,48.65-60.33,53.38q-5.88,2-11.75,4c-31.3,10.89-56.58,4.28-76.51-21a101.33,101.33,0,0,1-13.68-27.76l-1.89-6.32c-14.79-49.4-10.8-117.28,14.56-200.85C624.78,272,646.11,246.13,668.19,240.11ZM653.64,510.58l9,13.12,4.9-1.67c35.49-12.13,56.87-59.59,64.57-142.92q-2.25-12.92-4.53-25.84c-17-36-29-53.19-35.86-51.3q-6.28,1.74-12.56,3.51c-29.17,49.3-39.65,109.94-32.8,179.9Q650,498,653.64,510.58Z" fill="#ffcd00"/><path d="M891.69,203.37l7.34-1.23c10.9-1.81,32.2,7.92,63.45,29.41,23.23,25.24,37.6,49.85,43.42,73.75,11.23,46.12-2.85,98.49-40.23,160.78-26.74,25.83-46.73,40.84-60.43,44q-5.79,1.34-11.57,2.7c-30.83,7.34-55.2-.95-73.64-25.95a96.76,96.76,0,0,1-12.25-26.78q-.81-3-1.6-6c-12.52-46.81-6-109,21.57-183.88C848.66,229.07,870.17,207,891.69,203.37ZM868,451.46q4.11,6.44,8.22,12.87l4.82-1.12c34.91-8.11,57.3-50,67.59-126.18q-1.74-12.11-3.49-24.22c-15.17-34.66-26.26-51.54-32.9-50.39q-6.12,1.06-12.25,2.16c-29.92,42.93-42.3,97.93-38.18,163Q864.89,439.54,868,451.46Z" fill="#ffcd00"/><path d="M1076.06,181.88c27.86-2.34,47.18,19.89,57.63,65.55,13.87,33.4,22.46,49.87,26.07,49.62,32.41-66.2,53.34-102.28,61.57-111,8.84-4.09,16.65-6.14,23.4-6.2,17.72-.16,31.63,10.95,41.61,32.91,8.5,125.11,14.94,199.62,20.08,224.66-3.11,12.91-10.48,19.59-22.14,20.14l-4.88.24c-19,1-31.13-11.14-36.59-36.81q-5.88-61.83-12-124-13.17,18-26.21,36.44Q1189.22,356,1166,357.88l-2.47.2c-30.32,2.52-55-20-74.83-68.9-1.51-6.49-3.87-9.59-7.06-9.26a1137.1,1137.1,0,0,0-37.12,188.51q-8.05,9.45-16.91,11l-7,1.21c-17.86.77-28.25-4.8-31.21-17.05-.63-2.58-1.25-5.16-1.88-7.74,4.86-65.81,19.78-143.66,46.08-231.3C1042.71,197.74,1056.93,183.5,1076.06,181.88Z" fill="#ffcd00"/><path d="M1388.35,177.54c27.8,1.65,46.11,25.19,54.75,69.46,12.51,33.25,20.44,49.88,24,50.15,34.73-57.55,56.74-88.37,65.21-95.39,8.9-2.58,16.69-3.38,23.37-2.48,17.53,2.39,30.88,14.81,40,36.81,4.07,118.39,8,189.06,12.21,213.23-3.52,11.64-11.07,16.84-22.69,15.71l-4.86-.47c-18.92-1.79-30.61-14.83-35.12-39.64q-3.66-58.76-7.51-117.85-13.71,15.06-27.35,30.46-16.11,19-39.32,17.52l-2.46-.15c-30.31-1.85-54.12-26.32-71.92-74.94q-1.87-9.45-6.67-9.65a962.23,962.23,0,0,0-44.67,171.88q-8.46,7.79-17.41,8l-7.13.19c-18-1.65-28.16-8.26-30.62-20.16l-1.56-7.52c7.65-61.15,25.89-132.29,55.69-211C1354.53,187.86,1369.26,176.44,1388.35,177.54Z" fill="#ffcd00"/><path d="M1625.68,406.45c25.89,7,39.93,17.57,42.23,31l1.56,9.08c2.27,13.36-8.81,19.92-33.25,20.45l-4.85-.6c-20.22-5.41-33.67-15.79-40.33-31.6-.21-1.21-.43-2.42-.65-3.63C1587.4,414.42,1599.17,405.89,1625.68,406.45Zm35.23-209.9,5,1c18,5.45,28,14.1,30,25.6.22,1.26.44,2.53.65,3.8.54,3-11.58,45.34-35.76,129,.62,22.77-8.43,32.63-27.18,30-16.86-2.33-27.91-12.07-33.17-29.6-2.15-13.59,11-66.11,40.28-154.61C1648.09,197.11,1654.82,195.39,1660.91,196.55Z" fill="#ffcd00"/><path d="M1768,414c32.57,11.2,50.07,25.71,52.75,42.43l1.8,11.3c2.63,16.66-11.42,23.49-42.25,21.79l-6.11-1.2c-25.42-8.57-42.24-22.53-50.4-42.65-.26-1.51-.51-3-.76-4.54C1719.47,420.2,1734.49,410.66,1768,414Zm48-254.61,6.26,1.8c22.7,9,35.13,20.92,37.44,35.29.25,1.59.5,3.17.76,4.75.62,3.84-15.37,54.09-47.26,154.29.4,28.06-11.16,39.18-34.79,34.05-21.24-4.59-35-17.64-41.42-39.79-2.5-16.95,15-80.71,53.45-186.4C1799.72,158.48,1808.25,157.18,1815.92,159.36Z" fill="#ffcd00"/><path d="M200.41,325.13l3-1.49c63.38-23,103.37-10.44,118.58,33.43,10.82,31-3.11,82.85-38.61,159.19.31.9.63,1.79,1,2.69,61.42-8.9,98.17,5.72,109.72,40.5q2.16,6.46,4.3,12.92c15.7,47.32-10.19,104.36-72.54,178.38C286.12,781.61,262,801.06,252.37,807c-47.18,29.44-80.94,31-103.2,2l-.94-2.46c-1.58-4.18.16-19.7,5.49-46.36-27-129.51-40.32-228-38.42-294.55C124.56,395.82,153.07,348.5,200.41,325.13Zm4.49,297Q216.11,689,222.37,742.35l6.47-.68c61-37.2,95-79.75,100.55-131.85-.9-2.6-1.79-5.21-2.69-7.82C319.44,580.79,278.06,585.44,204.9,622.1Zm-13.48-90.9,5.52-3.08c40-68.78,57.72-114.9,50-142q-11.34-.54-19.3,3.45-2.86,1.43-5.71,2.87C195.26,405.81,185,452.26,191.42,531.2Z" fill="none" stroke="#000" stroke-width="12"/><path d="M452.25,324.06q3.53-1.37,7.05-2.7c10.48-4,32,2.46,64.22,19.67,24.63,22.77,40.54,46.55,48.05,71.19,14.49,47.55,4.69,106.71-26.64,180.73-23.87,32.79-41.95,52.6-54.93,58.5q-5.47,2.5-10.94,5c-29.14,13.51-53.27,9-73.12-14.51a97.86,97.86,0,0,1-14.05-26.55q-1-3.06-2.05-6.14c-16-48-15-116,5.63-201.5C412.38,359.75,431.56,332,452.25,324.06Zm-3,271.18,9,12.34,4.56-2.09c33.06-15.12,51.4-64.37,55.42-148.28q-2.64-12.7-5.3-25.41c-17.48-34.47-29.62-50.55-36-48.06q-5.88,2.29-11.75,4.61c-25.68,51.78-33.15,113.16-23.85,182.38Q445.33,583,449.27,595.24Z" fill="none" stroke="#000" stroke-width="12"/><path d="M668.19,240.11l7.54-2c11.17-3,33.57,5.46,66.67,25.66C767.34,288.79,783.09,314,790,339.29c13.29,48.77.61,106.75-35.44,177.69-26.5,30.5-46.39,48.65-60.33,53.38q-5.88,2-11.75,4c-31.3,10.89-56.58,4.28-76.51-21a101.33,101.33,0,0,1-13.68-27.76l-1.89-6.32c-14.79-49.4-10.8-117.28,14.56-200.85C624.78,272,646.11,246.13,668.19,240.11ZM653.64,510.58l9,13.12,4.9-1.67c35.49-12.13,56.87-59.59,64.57-142.92q-2.25-12.92-4.53-25.84c-17-36-29-53.19-35.86-51.3q-6.28,1.74-12.56,3.51c-29.17,49.3-39.65,109.94-32.8,179.9Q650,498,653.64,510.58Z" fill="none" stroke="#000" stroke-width="12"/><path d="M891.69,203.37l7.34-1.23c10.9-1.81,32.2,7.92,63.45,29.41,23.23,25.24,37.6,49.85,43.42,73.75,11.23,46.12-2.85,98.49-40.23,160.78-26.74,25.83-46.73,40.84-60.43,44q-5.79,1.34-11.57,2.7c-30.83,7.34-55.2-.95-73.64-25.95a96.76,96.76,0,0,1-12.25-26.78q-.81-3-1.6-6c-12.52-46.81-6-109,21.57-183.88C848.66,229.07,870.17,207,891.69,203.37ZM868,451.46q4.11,6.44,8.22,12.87l4.82-1.12c34.91-8.11,57.3-50,67.59-126.18q-1.74-12.11-3.49-24.22c-15.17-34.66-26.26-51.54-32.9-50.39q-6.12,1.06-12.25,2.16c-29.92,42.93-42.3,97.93-38.18,163Q864.89,439.54,868,451.46Z" fill="none" stroke="#000" stroke-width="12"/><path d="M1076.06,181.88c27.86-2.34,47.18,19.89,57.63,65.55,13.87,33.4,22.46,49.87,26.07,49.62,32.41-66.2,53.34-102.28,61.57-111,8.84-4.09,16.65-6.14,23.4-6.2,17.72-.16,31.63,10.95,41.61,32.91,8.5,125.11,14.94,199.62,20.08,224.66-3.11,12.91-10.48,19.59-22.14,20.14l-4.88.24c-19,1-31.13-11.14-36.59-36.81q-5.88-61.83-12-124-13.17,18-26.21,36.44Q1189.22,356,1166,357.88l-2.47.2c-30.32,2.52-55-20-74.83-68.9-1.51-6.49-3.87-9.59-7.06-9.26a1137.1,1137.1,0,0,0-37.12,188.51q-8.05,9.45-16.91,11l-7,1.21c-17.86.77-28.25-4.8-31.21-17.05-.63-2.58-1.25-5.16-1.88-7.74,4.86-65.81,19.78-143.66,46.08-231.3C1042.71,197.74,1056.93,183.5,1076.06,181.88Z" fill="none" stroke="#000" stroke-width="12"/><path d="M1388.35,177.54c27.8,1.65,46.11,25.19,54.75,69.46,12.51,33.25,20.44,49.88,24,50.15,34.73-57.55,56.74-88.37,65.21-95.39,8.9-2.58,16.69-3.38,23.37-2.48,17.53,2.39,30.88,14.81,40,36.81,4.07,118.39,8,189.06,12.21,213.23-3.52,11.64-11.07,16.84-22.69,15.71l-4.86-.47c-18.92-1.79-30.61-14.83-35.12-39.64q-3.66-58.76-7.51-117.85-13.71,15.06-27.35,30.46-16.11,19-39.32,17.52l-2.46-.15c-30.31-1.85-54.12-26.32-71.92-74.94q-1.87-9.45-6.67-9.65a962.23,962.23,0,0,0-44.67,171.88q-8.46,7.79-17.41,8l-7.13.19c-18-1.65-28.16-8.26-30.62-20.16l-1.56-7.52c7.65-61.15,25.89-132.29,55.69-211C1354.53,187.86,1369.26,176.44,1388.35,177.54Z" fill="none" stroke="#000" stroke-width="12"/><path d="M1625.68,406.45c25.89,7,39.93,17.57,42.23,31l1.56,9.08c2.27,13.36-8.81,19.92-33.25,20.45l-4.85-.6c-20.22-5.41-33.67-15.79-40.33-31.6-.21-1.21-.43-2.42-.65-3.63C1587.4,414.42,1599.17,405.89,1625.68,406.45Zm35.23-209.9,5,1c18,5.45,28,14.1,30,25.6.22,1.26.44,2.53.65,3.8.54,3-11.58,45.34-35.76,129,.62,22.77-8.43,32.63-27.18,30-16.86-2.33-27.91-12.07-33.17-29.6-2.15-13.59,11-66.11,40.28-154.61C1648.09,197.11,1654.82,195.39,1660.91,196.55Z" fill="none" stroke="#000" stroke-width="12"/><path d="M1768,414c32.57,11.2,50.07,25.71,52.75,42.43l1.8,11.3c2.63,16.66-11.42,23.49-42.25,21.79l-6.11-1.2c-25.42-8.57-42.24-22.53-50.4-42.65-.26-1.51-.51-3-.76-4.54C1719.47,420.2,1734.49,410.66,1768,414Zm48-254.61,6.26,1.8c22.7,9,35.13,20.92,37.44,35.29.25,1.59.5,3.17.76,4.75.62,3.84-15.37,54.09-47.26,154.29.4,28.06-11.16,39.18-34.79,34.05-21.24-4.59-35-17.64-41.42-39.79-2.5-16.95,15-80.71,53.45-186.4C1799.72,158.48,1808.25,157.18,1815.92,159.36Z" fill="none" stroke="#000" stroke-width="12"/><path d="M200.41,325.13l3-1.49c63.38-23,103.37-10.44,118.58,33.43,10.82,31-3.11,82.85-38.61,159.19.31.9.63,1.79,1,2.69,61.42-8.9,98.17,5.72,109.72,40.5q2.16,6.46,4.3,12.92c15.7,47.32-10.19,104.36-72.54,178.38C286.12,781.61,262,801.06,252.37,807c-47.18,29.44-80.94,31-103.2,2l-.94-2.46c-1.58-4.18.16-19.7,5.49-46.36-27-129.51-40.32-228-38.42-294.55C124.56,395.82,153.07,348.5,200.41,325.13Zm4.49,297Q216.11,689,222.37,742.35l6.47-.68c61-37.2,95-79.75,100.55-131.85-.9-2.6-1.79-5.21-2.69-7.82C319.44,580.79,278.06,585.44,204.9,622.1Zm-13.48-90.9,5.52-3.08c40-68.78,57.72-114.9,50-142q-11.34-.54-19.3,3.45-2.86,1.43-5.71,2.87C195.26,405.81,185,452.26,191.42,531.2Z" fill="#ed1c24"/><path d="M452.25,324.06q3.53-1.37,7.05-2.7c10.48-4,32,2.46,64.22,19.67,24.63,22.77,40.54,46.55,48.05,71.19,14.49,47.55,4.69,106.71-26.64,180.73-23.87,32.79-41.95,52.6-54.93,58.5q-5.47,2.5-10.94,5c-29.14,13.51-53.27,9-73.12-14.51a97.86,97.86,0,0,1-14.05-26.55q-1-3.06-2.05-6.14c-16-48-15-116,5.63-201.5C412.38,359.75,431.56,332,452.25,324.06Zm-3,271.18,9,12.34,4.56-2.09c33.06-15.12,51.4-64.37,55.42-148.28q-2.64-12.7-5.3-25.41c-17.48-34.47-29.62-50.55-36-48.06q-5.88,2.29-11.75,4.61c-25.68,51.78-33.15,113.16-23.85,182.38Q445.33,583,449.27,595.24Z" fill="#ed1c24"/><path d="M668.19,240.11l7.54-2c11.17-3,33.57,5.46,66.67,25.66C767.34,288.79,783.09,314,790,339.29c13.29,48.77.61,106.75-35.44,177.69-26.5,30.5-46.39,48.65-60.33,53.38q-5.88,2-11.75,4c-31.3,10.89-56.58,4.28-76.51-21a101.33,101.33,0,0,1-13.68-27.76l-1.89-6.32c-14.79-49.4-10.8-117.28,14.56-200.85C624.78,272,646.11,246.13,668.19,240.11ZM653.64,510.58l9,13.12,4.9-1.67c35.49-12.13,56.87-59.59,64.57-142.92q-2.25-12.92-4.53-25.84c-17-36-29-53.19-35.86-51.3q-6.28,1.74-12.56,3.51c-29.17,49.3-39.65,109.94-32.8,179.9Q650,498,653.64,510.58Z" fill="#ed1c24"/><path d="M891.69,203.37l7.34-1.23c10.9-1.81,32.2,7.92,63.45,29.41,23.23,25.24,37.6,49.85,43.42,73.75,11.23,46.12-2.85,98.49-40.23,160.78-26.74,25.83-46.73,40.84-60.43,44q-5.79,1.34-11.57,2.7c-30.83,7.34-55.2-.95-73.64-25.95a96.76,96.76,0,0,1-12.25-26.78q-.81-3-1.6-6c-12.52-46.81-6-109,21.57-183.88C848.66,229.07,870.17,207,891.69,203.37ZM868,451.46q4.11,6.44,8.22,12.87l4.82-1.12c34.91-8.11,57.3-50,67.59-126.18q-1.74-12.11-3.49-24.22c-15.17-34.66-26.26-51.54-32.9-50.39q-6.12,1.06-12.25,2.16c-29.92,42.93-42.3,97.93-38.18,163Q864.89,439.54,868,451.46Z" fill="#ed1c24"/><path d="M1076.06,181.88c27.86-2.34,47.18,19.89,57.63,65.55,13.87,33.4,22.46,49.87,26.07,49.62,32.41-66.2,53.34-102.28,61.57-111,8.84-4.09,16.65-6.14,23.4-6.2,17.72-.16,31.63,10.95,41.61,32.91,8.5,125.11,14.94,199.62,20.08,224.66-3.11,12.91-10.48,19.59-22.14,20.14l-4.88.24c-19,1-31.13-11.14-36.59-36.81q-5.88-61.83-12-124-13.17,18-26.21,36.44Q1189.22,356,1166,357.88l-2.47.2c-30.32,2.52-55-20-74.83-68.9-1.51-6.49-3.87-9.59-7.06-9.26a1137.1,1137.1,0,0,0-37.12,188.51q-8.05,9.45-16.91,11l-7,1.21c-17.86.77-28.25-4.8-31.21-17.05-.63-2.58-1.25-5.16-1.88-7.74,4.86-65.81,19.78-143.66,46.08-231.3C1042.71,197.74,1056.93,183.5,1076.06,181.88Z" fill="#ed1c24"/><path d="M1388.35,177.54c27.8,1.65,46.11,25.19,54.75,69.46,12.51,33.25,20.44,49.88,24,50.15,34.73-57.55,56.74-88.37,65.21-95.39,8.9-2.58,16.69-3.38,23.37-2.48,17.53,2.39,30.88,14.81,40,36.81,4.07,118.39,8,189.06,12.21,213.23-3.52,11.64-11.07,16.84-22.69,15.71l-4.86-.47c-18.92-1.79-30.61-14.83-35.12-39.64q-3.66-58.76-7.51-117.85-13.71,15.06-27.35,30.46-16.11,19-39.32,17.52l-2.46-.15c-30.31-1.85-54.12-26.32-71.92-74.94q-1.87-9.45-6.67-9.65a962.23,962.23,0,0,0-44.67,171.88q-8.46,7.79-17.41,8l-7.13.19c-18-1.65-28.16-8.26-30.62-20.16l-1.56-7.52c7.65-61.15,25.89-132.29,55.69-211C1354.53,187.86,1369.26,176.44,1388.35,177.54Z" fill="#ed1c24"/><path d="M1625.68,406.45c25.89,7,39.93,17.57,42.23,31l1.56,9.08c2.27,13.36-8.81,19.92-33.25,20.45l-4.85-.6c-20.22-5.41-33.67-15.79-40.33-31.6-.21-1.21-.43-2.42-.65-3.63C1587.4,414.42,1599.17,405.89,1625.68,406.45Zm35.23-209.9,5,1c18,5.45,28,14.1,30,25.6.22,1.26.44,2.53.65,3.8.54,3-11.58,45.34-35.76,129,.62,22.77-8.43,32.63-27.18,30-16.86-2.33-27.91-12.07-33.17-29.6-2.15-13.59,11-66.11,40.28-154.61C1648.09,197.11,1654.82,195.39,1660.91,196.55Z" fill="#ed1c24"/><path d="M1768,414c32.57,11.2,50.07,25.71,52.75,42.43l1.8,11.3c2.63,16.66-11.42,23.49-42.25,21.79l-6.11-1.2c-25.42-8.57-42.24-22.53-50.4-42.65-.26-1.51-.51-3-.76-4.54C1719.47,420.2,1734.49,410.66,1768,414Zm48-254.61,6.26,1.8c22.7,9,35.13,20.92,37.44,35.29.25,1.59.5,3.17.76,4.75.62,3.84-15.37,54.09-47.26,154.29.4,28.06-11.16,39.18-34.79,34.05-21.24-4.59-35-17.64-41.42-39.79-2.5-16.95,15-80.71,53.45-186.4C1799.72,158.48,1808.25,157.18,1815.92,159.36Z" fill="#ed1c24"/><g opacity="0.89" style="mix-blend-mode:color-burn"><path d="M200.41,325.13l3-1.49c63.38-23,103.37-10.44,118.58,33.43,10.82,31-3.11,82.85-38.61,159.19.31.9.63,1.79,1,2.69,61.42-8.9,98.17,5.72,109.72,40.5q2.16,6.46,4.3,12.92c15.7,47.32-10.19,104.36-72.54,178.38C286.12,781.61,262,801.06,252.37,807c-47.18,29.44-80.94,31-103.2,2l-.94-2.46c-1.58-4.18.16-19.7,5.49-46.36-27-129.51-40.32-228-38.42-294.55C124.56,395.82,153.07,348.5,200.41,325.13Zm4.49,297Q216.11,689,222.37,742.35l6.47-.68c61-37.2,95-79.75,100.55-131.85-.9-2.6-1.79-5.21-2.69-7.82C319.44,580.79,278.06,585.44,204.9,622.1Zm-13.48-90.9,5.52-3.08c40-68.78,57.72-114.9,50-142q-11.34-.54-19.3,3.45-2.86,1.43-5.71,2.87C195.26,405.81,185,452.26,191.42,531.2Z" fill="url(#a)"/><path d="M452.25,324.06q3.53-1.37,7.05-2.7c10.48-4,32,2.46,64.22,19.67,24.63,22.77,40.54,46.55,48.05,71.19,14.49,47.55,4.69,106.71-26.64,180.73-23.87,32.79-41.95,52.6-54.93,58.5q-5.47,2.5-10.94,5c-29.14,13.51-53.27,9-73.12-14.51a97.86,97.86,0,0,1-14.05-26.55q-1-3.06-2.05-6.14c-16-48-15-116,5.63-201.5C412.38,359.75,431.56,332,452.25,324.06Zm-3,271.18,9,12.34,4.56-2.09c33.06-15.12,51.4-64.37,55.42-148.28q-2.64-12.7-5.3-25.41c-17.48-34.47-29.62-50.55-36-48.06q-5.88,2.29-11.75,4.61c-25.68,51.78-33.15,113.16-23.85,182.38Q445.33,583,449.27,595.24Z" fill="url(#a)"/><path d="M668.19,240.11l7.54-2c11.17-3,33.57,5.46,66.67,25.66C767.34,288.79,783.09,314,790,339.29c13.29,48.77.61,106.75-35.44,177.69-26.5,30.5-46.39,48.65-60.33,53.38q-5.88,2-11.75,4c-31.3,10.89-56.58,4.28-76.51-21a101.33,101.33,0,0,1-13.68-27.76l-1.89-6.32c-14.79-49.4-10.8-117.28,14.56-200.85C624.78,272,646.11,246.13,668.19,240.11ZM653.64,510.58l9,13.12,4.9-1.67c35.49-12.13,56.87-59.59,64.57-142.92q-2.25-12.92-4.53-25.84c-17-36-29-53.19-35.86-51.3q-6.28,1.74-12.56,3.51c-29.17,49.3-39.65,109.94-32.8,179.9Q650,498,653.64,510.58Z" fill="url(#a)"/><path d="M891.69,203.37l7.34-1.23c10.9-1.81,32.2,7.92,63.45,29.41,23.23,25.24,37.6,49.85,43.42,73.75,11.23,46.12-2.85,98.49-40.23,160.78-26.74,25.83-46.73,40.84-60.43,44q-5.79,1.34-11.57,2.7c-30.83,7.34-55.2-.95-73.64-25.95a96.76,96.76,0,0,1-12.25-26.78q-.81-3-1.6-6c-12.52-46.81-6-109,21.57-183.88C848.66,229.07,870.17,207,891.69,203.37ZM868,451.46q4.11,6.44,8.22,12.87l4.82-1.12c34.91-8.11,57.3-50,67.59-126.18q-1.74-12.11-3.49-24.22c-15.17-34.66-26.26-51.54-32.9-50.39q-6.12,1.06-12.25,2.16c-29.92,42.93-42.3,97.93-38.18,163Q864.89,439.54,868,451.46Z" fill="url(#a)"/><path d="M1076.06,181.88c27.86-2.34,47.18,19.89,57.63,65.55,13.87,33.4,22.46,49.87,26.07,49.62,32.41-66.2,53.34-102.28,61.57-111,8.84-4.09,16.65-6.14,23.4-6.2,17.72-.16,31.63,10.95,41.61,32.91,8.5,125.11,14.94,199.62,20.08,224.66-3.11,12.91-10.48,19.59-22.14,20.14l-4.88.24c-19,1-31.13-11.14-36.59-36.81q-5.88-61.83-12-124-13.17,18-26.21,36.44Q1189.22,356,1166,357.88l-2.47.2c-30.32,2.52-55-20-74.83-68.9-1.51-6.49-3.87-9.59-7.06-9.26a1137.1,1137.1,0,0,0-37.12,188.51q-8.05,9.45-16.91,11l-7,1.21c-17.86.77-28.25-4.8-31.21-17.05-.63-2.58-1.25-5.16-1.88-7.74,4.86-65.81,19.78-143.66,46.08-231.3C1042.71,197.74,1056.93,183.5,1076.06,181.88Z" fill="url(#a)"/><path d="M1388.35,177.54c27.8,1.65,46.11,25.19,54.75,69.46,12.51,33.25,20.44,49.88,24,50.15,34.73-57.55,56.74-88.37,65.21-95.39,8.9-2.58,16.69-3.38,23.37-2.48,17.53,2.39,30.88,14.81,40,36.81,4.07,118.39,8,189.06,12.21,213.23-3.52,11.64-11.07,16.84-22.69,15.71l-4.86-.47c-18.92-1.79-30.61-14.83-35.12-39.64q-3.66-58.76-7.51-117.85-13.71,15.06-27.35,30.46-16.11,19-39.32,17.52l-2.46-.15c-30.31-1.85-54.12-26.32-71.92-74.94q-1.87-9.45-6.67-9.65a962.23,962.23,0,0,0-44.67,171.88q-8.46,7.79-17.41,8l-7.13.19c-18-1.65-28.16-8.26-30.62-20.16l-1.56-7.52c7.65-61.15,25.89-132.29,55.69-211C1354.53,187.86,1369.26,176.44,1388.35,177.54Z" fill="url(#a)"/><path d="M1625.68,406.45c25.89,7,39.93,17.57,42.23,31l1.56,9.08c2.27,13.36-8.81,19.92-33.25,20.45l-4.85-.6c-20.22-5.41-33.67-15.79-40.33-31.6-.21-1.21-.43-2.42-.65-3.63C1587.4,414.42,1599.17,405.89,1625.68,406.45Zm35.23-209.9,5,1c18,5.45,28,14.1,30,25.6.22,1.26.44,2.53.65,3.8.54,3-11.58,45.34-35.76,129,.62,22.77-8.43,32.63-27.18,30-16.86-2.33-27.91-12.07-33.17-29.6-2.15-13.59,11-66.11,40.28-154.61C1648.09,197.11,1654.82,195.39,1660.91,196.55Z" fill="url(#a)"/><path d="M1768,414c32.57,11.2,50.07,25.71,52.75,42.43l1.8,11.3c2.63,16.66-11.42,23.49-42.25,21.79l-6.11-1.2c-25.42-8.57-42.24-22.53-50.4-42.65-.26-1.51-.51-3-.76-4.54C1719.47,420.2,1734.49,410.66,1768,414Zm48-254.61,6.26,1.8c22.7,9,35.13,20.92,37.44,35.29.25,1.59.5,3.17.76,4.75.62,3.84-15.37,54.09-47.26,154.29.4,28.06-11.16,39.18-34.79,34.05-21.24-4.59-35-17.64-41.42-39.79-2.5-16.95,15-80.71,53.45-186.4C1799.72,158.48,1808.25,157.18,1815.92,159.36Z" fill="url(#a)"/></g></g></svg>