<svg xmlns="http://www.w3.org/2000/svg" xmlns:xlink="http://www.w3.org/1999/xlink" viewBox="0 0 2000 1270.69"><defs><style>.cls-1{fill:#fff;}.cls-2{fill:#e6e7e8;}.cls-3{opacity:0.25;}</style><symbol id="cloud" data-name="cloud" viewBox="0 0 1196.41 708.14"><path class="cls-1" d="M182.31,538.43c24.71-2.37,50.34-11.29,75.21-28.21,9.46-6.29,12.14-8.28,15.57-8.93.33,1.73.75-.14-3.29,3.18-8.32,6.91-27.49,29.55-58,42.17,47.74,73.94,142.77,116.86,250.82,79C548,698.91,654.83,694.7,728.43,640.19c-20-10-40.91-27.5-44.92-49.13,8.67,29.91,41.27,45.41,78.87,52a298,298,0,0,0,58.45,3.81c81.09-2.6,116.49-52.36,136-72.76,63.33,9.49,137.69-30.13,160.47-97.73,9.61-28.51,10.06-62-3.34-98.82a166.53,166.53,0,0,1,15.41,53.84C1232.61,282,1107.62,128.24,965.12,136.15c0,0-8,0-8,0-47.8-66.32-119.29-85.6-193-68.85-3.13.74-6.21,1.55-9.24,2.41-63.56,18-105.86,60.08-108.34,57.22a413.27,413.27,0,0,1,53.26-41C645.94,28.34,558.92,9.41,491.46,23.6l-2.46.54C435.91,36.08,385.59,70.43,384.43,68.66c16.67-10.87,32.41-21.15,53.51-32.35-21.38-5.69-40.73-9.07-52.54-9.07-56.82,0-108.68,28.13-138.71,75.23-5,7.87-2,6.21-11.54,6.43-90.34,2.1-159,77.68-159,152.84a204.36,204.36,0,0,1,46.81-24.6c-11.19,9.51-22.4,18.69-32.5,29.19C-41.8,398.59,58.75,550.29,182.31,538.43Z"/><path class="cls-2" d="M1123,400.57a154.9,154.9,0,0,1,6.42,30.84c64.24-93,43-194.58-34.27-254.56C1126.8,223.68,1175.7,293.65,1123,400.57ZM683.5,591.06c13.65,46.8,84.06,56.46,132.74,55.93C900,645.89,935,597,956.82,574.12c67.75,10,134-32.65,157.62-90.07,22.43-55.43-2.46-111.42,2-101-8-20.52-25-46.75-36.2-66.52,52.15,116.81,23,157.07-13.35,193.56C1022.1,555,895.69,555,895.69,555c26.5,13.24,47.35,16.82,47.35,16.84C851.91,651.09,715.3,660.62,683.5,591.06ZM462.63,625.64c81.79,70.38,188.75,71.63,265.8,14.55a115,115,0,0,1-22.31-14.56C572.08,695.21,534.33,651,462.63,625.64Zm222.3-29c-.35-1.08-.88-2.9-1.11-4C682.84,588.43,683.93,593.91,684.93,596.63Zm-467.73-42c30,42.37,77.05,73.85,135,82.75,22.17,3.22-75.93,5.23-92.56-123.34C213.87,557.17,205.32,538.07,217.2,554.62ZM91,252.16c8.45-4.94,15.86-8.21,15.73-8.21-18.65,7.74-24.76-20.4-15.69-43.43a139,139,0,0,0-14.88,57.69C76,264.38,74,261.72,91,252.16ZM405.13,55.34c12-7.52,22.47-13.55,32.8-19-21.37-5.69-40.72-9.07-52.53-9.07C409.74,29.94,416.09,48.34,405.13,55.34ZM671.06,106.4c7.3-5.83,18.93-14.2,28.81-20.48a200.07,200.07,0,0,0-59.41-43.19C661.87,54.66,695.35,85.88,671.06,106.4Z"/><path d="M67.9,528.41A156.48,156.48,0,0,0,184,554.67h.11c55.77,92.74,169.12,134.18,272.45,101.87,86.39,69.21,210.1,68.2,295.18.46,6.09-4.79,6.4-6,9-5.32,4.06,1,13.69,6.33,60.05,8.81,54.95,3.2,110-18.81,147.52-58.26,67.63,0,141.5-53.67,158.17-123.85.18-.72.35-1.44.5-2.17,33.48-29.81,66.82-92.1,69.41-148.22,3.25-115.15-95.13-221.7-225.66-219.28C894.71,25.13,798.13,44.15,752,60.2a219.85,219.85,0,0,0-27.68,11.57c-65.1-63.42-162.12-78-235-57.09-4.71,1.37-9.31,2.86-13.8,4.51C475.38,19.19,420.77,0,385.4,0,321.34,0,262.68,30.51,227,82,121.93,88.4,44.37,176.13,48.11,273.26c.13,5.3.65,11.77.74,12.14C-26.58,364.19-10.33,474.81,67.9,528.41ZM90.43,266.33c10.1-10.5,21.31-19.68,32.5-29.19a204.36,204.36,0,0,0-46.81,24.6c0-75.16,68.69-150.74,159-152.84,9.51-.22,6.52,1.44,11.54-6.43,30-47.1,81.89-75.23,138.71-75.23,11.81,0,31.16,3.38,52.54,9.07-21.1,11.2-36.84,21.48-53.51,32.35,1.16,1.77,51.48-32.58,104.57-44.52l2.46-.54c67.46-14.19,154.48,4.74,208.4,62.32a413.27,413.27,0,0,0-53.26,41c2.48,2.86,44.78-39.23,108.34-57.22,3-.86,6.11-1.67,9.24-2.41,73.69-16.75,145.18,2.53,193,68.85,0,0,8,0,8,0,142.5-7.91,267.49,145.87,164.25,295.26A166.53,166.53,0,0,0,1114,377.57c13.4,36.86,13,70.31,3.34,98.82-22.78,67.6-97.14,107.22-160.47,97.73-19.51,20.4-54.91,70.16-136,72.76a298,298,0,0,1-58.45-3.81c-37.6-6.6-70.2-22.1-78.87-52,4,21.63,24.91,39.11,44.92,49.13C654.83,694.7,548,698.91,462.6,625.63c-108,37.87-203.08-5-250.82-79,30.53-12.62,49.7-35.26,58-42.17,4-3.32,3.62-1.45,3.29-3.18-3.43.65-6.11,2.64-15.57,8.93-24.87,16.92-50.5,25.84-75.21,28.21C58.75,550.29-41.8,398.59,90.43,266.33Z"/></symbol></defs><g id="assets"><use width="1196.41" height="708.14" transform="translate(193.58 346.13) scale(0.96)" xlink:href="#cloud"/></g></svg>