<svg xmlns="http://www.w3.org/2000/svg" xmlns:xlink="http://www.w3.org/1999/xlink" viewBox="0 0 2000 1270.69"><defs><style>.cls-1{fill:#fff;}.cls-2{fill:#cccbc0;}.cls-3{opacity:0.25;}</style><symbol id="cloud_2" data-name="cloud 2" viewBox="0 0 1384.2 1080.72"><path class="cls-1" d="M1358,327.94c-6.43,55.12-49.65,103.71-107.7,124.49-.43-.42-.86-.82-1.32-1.23a180.65,180.65,0,0,0-36.61-35.27c-33.53-24.46-76.14-37.58-119.05-41.11-85.76-7.35-173.78,30-220.61,93.89a202.22,202.22,0,0,0-22.14,37.52q-2.07,6.87-3.71,13.76,3.6-6.29,7.55-12.37c2.13-4.23,4.2-8.47,6.59-12.57a202.91,202.91,0,0,1,15.86-23.87c35.09-45.8,92-77.73,153.65-86.6,73.08-11.08,155.23,10.83,200.91,63.28l.07.07q6,7.49,11.36,15.32c24.4,29.25,40.82,63.55,47.51,99.23a222.9,222.9,0,0,1-1.25,66.55c-3.33,21.88-10.68,43.3-20.77,63.43-1.49,2.83-3.62,7.26-5.32,10A235,235,0,0,1,1244,730.83c-38.26,49.68-98,82.66-161.14,103,32.84-.76,64.26-9.3,92.59-23.21a129.75,129.75,0,0,1-29.71,65.12c-20.59,24.55-49.43,41.47-81.26,49.5l-2.8.68-.28.06a176,176,0,0,1-87.72-2.09,170.19,170.19,0,0,1-43.83-19.29,160.71,160.71,0,0,1-28-21.86c-2.57-2.37-5.83-5.89-8.22-8.47,32.21,51.22,99.44,76.06,162.67,66.49-43.2,77.33-143.06,120.73-239.37,101.39-78.51-14.83-140.74-69.86-165.32-136.59,7.34,38.23,30,73.81,61.91,100.32a219.56,219.56,0,0,0,27.22,19.34C701,1054.53,651,1069.82,599,1068.42c-57.2-1.55-109.9-22.83-148.66-60a166.18,166.18,0,0,0,26.48-23,172.89,172.89,0,0,1-39.36,27.73c-.25.14-.51.26-.76.39a191.81,191.81,0,0,1-105.06,20.12c-13.75-1.71-27.24-5.2-40.49-9,19.8-8.5,37.77-20.33,52.25-34.83a204.67,204.67,0,0,1-23.92,15.72,199.55,199.55,0,0,1-37.92,16.17c-5.27,1.62-10.63,3-16,4.21-2,.42-3.94.82-5.91,1.16-95.74,17.49-179.49-33.09-206.72-106A145.6,145.6,0,0,1,44,880.37a150.88,150.88,0,0,1,6.3-54.78,138.45,138.45,0,0,0-13.1,42.83C25.9,847.76,16.48,826,14.28,803.2c-2.07-40.11,15.63-80.8,47.88-109.37a98.31,98.31,0,0,1,22.68-15.1,31.48,31.48,0,0,0,.4,6.92,87.32,87.32,0,0,0,23.35,42.29A154.34,154.34,0,0,1,99.24,684c-.35-3.2-1.26-6.36-1.76-9.57a25.34,25.34,0,0,1-.36-4.84,95.89,95.89,0,0,1,7.59-35.49c10.47-24.52,30.23-45.94,55.41-59.79,17.25-9.57,37-15.31,57.47-17.31a79.58,79.58,0,0,0,8.83,19.7,153.53,153.53,0,0,1,.8-36.94c8.27-62.06,65.17-108.18,135.61-106.83,48.73,6.92,96.09,24.76,133.41,53.46,62.67,47.94,90.71,127.39,70.48,198.45-20.05,74.68-86,129.72-174.41,133.36-54.92,2-112.91-18.12-145.82-58.06-33.72-40-37.77-97.46-9.91-141.09-38.5,55.72-23.19,131.47,34.13,172.63,57,41,141.53,46.21,206.05,16,52.8-23.58,88.85-69.85,103.22-119.91,29-96.92-25.06-201.35-126.56-245.93a316,316,0,0,0-52.86-19.06,129.46,129.46,0,0,0-25-6.59c0-1.52,0-3.05.08-4.58a142.61,142.61,0,0,1,10.22-47.31c19.82-49.19,70.2-87.45,128.52-96.47,64.5-10.89,130.26,14.52,173.24,57.31-14.41-25.81-39.49-46.75-68.84-59.68a112.22,112.22,0,0,1,22.74-63.81c19.9-26.37,52.18-44.86,87.49-50.51a177.14,177.14,0,0,1,26.65-2.28,91.72,91.72,0,0,0,6.68,16,120.68,120.68,0,0,1-2.85-28.68,113.36,113.36,0,0,1,13.81-52.22C805.85,23.53,888,.44,953.54,34.56c30.88,16.21,53.42,44.37,59.85,75.69,4.12,20.31,3,41,1.74,61.54a71.33,71.33,0,0,0,18.05-43.06c7,2.2,14.51,3.41,21.72,4.86a57.86,57.86,0,0,1,19.23,7.61c1.68,1,3.32,2,4.95,3,11.42,7.3,21.78,15.92,29.78,26.16a159,159,0,0,0-44.16,34.86,180.72,180.72,0,0,1,48.33-29c.32-.13.65-.28,1-.39,76.74-30.76,172.24-10.8,219.58,56.71A135.65,135.65,0,0,1,1358,327.94Z"/><path class="cls-2" d="M1296.52,637.2C1285,710.55,1191.61,850.62,982.45,843.39c180.23-15.72,299.61-120,279.21-239.44,30,5,28.59-35.33,28.71-41.47s12.45,48.6,12.45,48.6"/><path class="cls-2" d="M651,284.27c-13.7-51.88-9.26-93.64,26.94-114.7-14.85-3.28-34.09,12.67-34.09,12.67s-36.46,47.87-31.3,80.7c-.5,9.11,38.45,21.33,38.45,21.33h0"/><path class="cls-2" d="M399.18,339.31c-15.33,30.36-7.4,75.78,31.33,93-12.36,8.43-60.32-5.24-60.32-5.24v-21l12.9-62.46,16.09-4.32"/><path class="cls-2" d="M1127.55,383.88c45.39,14.09,216.11,52.88,230.46-55.94,9.52,36.73-22.35,85.82-48.9,102.89s-59.39,30.74-59.39,30.74-44.15-53.5-71.47-59.76A256.81,256.81,0,0,1,1127.55,383.88Z"/><path class="cls-2" d="M44.31,845.76C25.73,800.71,27.37,717.94,76,683.57c-3.26-1.72-105.31,61.92-55.74,176.71,14.25,23.2,21.09,17.18,21.09,17.18Z"/><path class="cls-2" d="M321.37,1008.13c-29,3.94-177,19.13-230.81-29.56.67,18.06,42.41,40.66,54.39,44.1s63.83,17.76,90.72,13.18,85.7-27.72,85.7-27.72"/><path class="cls-2" d="M270.63,1028.59s31.92-15.77,43.76-14.72c21.8,15.05,65,21.28,103.56,10.74-28.72,9.19-58.56,15.05-78.45,14.4S270.63,1028.59,270.63,1028.59Z"/><path class="cls-2" d="M751.65,1026l-65.08-53.07c-73.41,69.67-124.94,80.86-236.19,35.55-2.22,8.73,34.61,38.68,55.6,46.82s78.81,33.74,151,13.22S751.65,1026,751.65,1026Z"/><path class="cls-2" d="M1066.61,936.55s-73.44,2.17-94.11-9.11c.15,46.29-68.62,132.65-238.8,85.14,0,0,52.94,35.22,93.09,39.46s116.76-6.51,150.27-24.75S1058.91,959.44,1066.61,936.55Z"/><path class="cls-2" d="M1181.12,799l-56.77,25.38S1113.6,926.89,968.74,926.52c62.35,3.79,25.23,14.13,77.31,8.28s117-55.53,126-86.6S1181.12,799,1181.12,799Z"/><path class="cls-2" d="M259.26,779C372,808.89,612.8,742.16,544.71,531.36c15,3.18,53.22,97.71,26.49,161S526.85,782.29,457,809.21s-104.81,12.12-141.55,0S259.26,779,259.26,779Z"/><path d="M759.5,136.27l-6.85-.12C671.92,127.41,599.88,189,603.77,259.68c-1.18-.39-2.35-.77-3.56-1.13C480,221.94,355.75,304.07,361.08,414.63l-1.06-.07c-1.09-.07-2.18-.12-3.26-.17a149,149,0,0,0-77.48,17.79c-28,15.19-49.79,39.07-59.85,67.88a95.13,95.13,0,0,0-4.55,44.52C141.53,546.74,84.26,601.84,85,666.48c-4.32,3.57-8.67,7-12.93,10.45C30.35,708.6,3.46,749.5.07,798.81-.74,819,5.24,839,12.7,857.79a281,281,0,0,0,24.91,47.54c12.45,80.38,99,145.44,200.25,133.58a190.66,190.66,0,0,0,35.52-7.59q6.25,1.79,12.59,3.38c14.59,3.58,29.39,6.81,44.6,8a195.17,195.17,0,0,0,108-26.65l-1.81-2.46a191.81,191.81,0,0,1-105.06,20.12c-13.75-1.71-27.24-5.2-40.49-9,19.8-8.5,37.77-20.33,52.25-34.83a204.67,204.67,0,0,1-23.92,15.72,199.55,199.55,0,0,1-37.92,16.17c-5.27,1.62-10.63,3-16,4.21-2,.42-3.94.82-5.91,1.16-95.74,17.49-179.49-33.09-206.72-106A145.6,145.6,0,0,1,44,880.37a150.88,150.88,0,0,1,6.3-54.78,138.45,138.45,0,0,0-13.1,42.83C25.9,847.76,16.48,826,14.28,803.2c-2.07-40.11,15.63-80.8,47.88-109.37a98.31,98.31,0,0,1,22.68-15.1,31.48,31.48,0,0,0,.4,6.92,87.32,87.32,0,0,0,23.35,42.29A154.34,154.34,0,0,1,99.24,684c-.35-3.2-1.26-6.36-1.76-9.57a25.34,25.34,0,0,1-.36-4.84,95.89,95.89,0,0,1,7.59-35.49c10.47-24.52,30.23-45.94,55.41-59.79,17.25-9.57,37-15.31,57.47-17.31a79.58,79.58,0,0,0,8.83,19.7,153.53,153.53,0,0,1,.8-36.94c8.27-62.06,65.17-108.18,135.61-106.83,48.73,6.92,96.09,24.76,133.41,53.46,62.67,47.94,90.71,127.39,70.48,198.45-20.05,74.68-86,129.72-174.41,133.36-54.92,2-112.91-18.12-145.82-58.06-33.72-40-37.77-97.46-9.91-141.09-38.5,55.72-23.19,131.47,34.13,172.63,57,41,141.53,46.21,206.05,16,52.8-23.58,88.85-69.85,103.22-119.91,29-96.92-25.06-201.35-126.56-245.93a316,316,0,0,0-52.86-19.06,129.46,129.46,0,0,0-25-6.59c0-1.52,0-3.05.08-4.58a142.61,142.61,0,0,1,10.22-47.31c19.82-49.19,70.2-87.45,128.52-96.47,64.5-10.89,130.26,14.52,173.24,57.31-14.41-25.81-39.49-46.75-68.84-59.68a112.22,112.22,0,0,1,22.74-63.81c19.9-26.37,52.18-44.86,87.49-50.51a177.14,177.14,0,0,1,26.65-2.28,91.72,91.72,0,0,0,6.68,16A120.68,120.68,0,0,1,759.5,136.27ZM1263,157c-43.6-14.22-92.16-12.24-133.61,3.93-16.24-7.17-31.35-14.86-47-22.17q-2.49-1.17-5-2.33c-8.91-3.59-16.58-8.92-24.27-14.21a63.86,63.86,0,0,0-20.15-9c-3.07-29.82-20.54-59.92-44-79C963.78,12.93,929.37.63,894.56,0,821.2-1.66,754,49.51,751.42,115.33a100.85,100.85,0,0,0,1.23,20.82C671.92,127.41,599.88,189,603.77,259.68c-1.18-.39-2.35-.77-3.56-1.13C480,221.94,355.75,304.07,361.08,414.63l-1.06-.07c-1.09-.07-2.18-.12-3.26-.17a149,149,0,0,0-77.48,17.79c-28,15.19-49.79,39.07-59.85,67.88a95.13,95.13,0,0,0-4.55,44.52C141.53,546.74,84.26,601.84,85,666.48c-4.32,3.57-8.67,7-12.93,10.45C30.35,708.6,3.46,749.5.07,798.81-.74,819,5.24,839,12.7,857.79a281,281,0,0,0,24.91,47.54c12.45,80.38,99,145.44,200.25,133.58a190.66,190.66,0,0,0,35.52-7.59q6.25,1.79,12.59,3.38c14.59,3.58,29.39,6.81,44.6,8a195.17,195.17,0,0,0,108-26.65h0a5.88,5.88,0,0,0,.6-.35c41.37,40.19,98,63.23,159.46,64.89,56.85,1.54,111.49-15.67,154.3-48.55,92.09,47.73,215.35,31.34,285.91-44.44a193.84,193.84,0,0,0,34.56-50.3,165.42,165.42,0,0,0,24.75-8.39c54.64-22.68,91.95-73,92.4-126.38a253.94,253.94,0,0,0,74.57-66c38.7-50.94,53.56-116.07,38.91-176.13h0c-6.51-34.7-21.75-68.16-44.31-97.32,44.25-12.39,82.65-41.58,103.91-78.15C1414.68,298.44,1366.87,190.1,1263,157Zm95,171c-6.43,55.12-49.65,103.71-107.7,124.49-.43-.42-.86-.82-1.32-1.23a180.65,180.65,0,0,0-36.61-35.27c-33.53-24.46-76.14-37.58-119.05-41.11-85.76-7.35-173.78,30-220.61,93.89a202.22,202.22,0,0,0-22.14,37.52q-2.07,6.87-3.71,13.76,3.6-6.29,7.55-12.37c2.13-4.23,4.2-8.47,6.59-12.57a202.91,202.91,0,0,1,15.86-23.87c35.09-45.8,92-77.73,153.65-86.6,73.08-11.08,155.23,10.83,200.91,63.28l.07.07q6,7.49,11.36,15.32c24.4,29.25,40.82,63.55,47.51,99.23a222.9,222.9,0,0,1-1.25,66.55c-3.33,21.88-10.68,43.3-20.77,63.43-1.49,2.83-3.62,7.26-5.32,10A235,235,0,0,1,1244,730.83c-38.26,49.68-98,82.66-161.14,103,32.84-.76,64.26-9.3,92.59-23.21a129.75,129.75,0,0,1-29.71,65.12c-20.59,24.55-49.43,41.47-81.26,49.5l-2.8.68-.28.06a176,176,0,0,1-87.72-2.09,170.19,170.19,0,0,1-43.83-19.29,160.71,160.71,0,0,1-28-21.86c-2.57-2.37-5.83-5.89-8.22-8.47,32.21,51.22,99.44,76.06,162.67,66.49-43.2,77.33-143.06,120.73-239.37,101.39-78.51-14.83-140.74-69.86-165.32-136.59,7.34,38.23,30,73.81,61.91,100.32a219.56,219.56,0,0,0,27.22,19.34C701,1054.53,651,1069.82,599,1068.42c-57.2-1.55-109.9-22.83-148.66-60a166.18,166.18,0,0,0,26.48-23,172.89,172.89,0,0,1-39.36,27.73c-.25.14-.51.26-.76.39a191.81,191.81,0,0,1-105.06,20.12c-13.75-1.71-27.24-5.2-40.49-9,19.8-8.5,37.77-20.33,52.25-34.83a204.67,204.67,0,0,1-23.92,15.72,199.55,199.55,0,0,1-37.92,16.17c-5.27,1.62-10.63,3-16,4.21-2,.42-3.94.82-5.91,1.16-95.74,17.49-179.49-33.09-206.72-106A145.6,145.6,0,0,1,44,880.37a150.88,150.88,0,0,1,6.3-54.78,138.45,138.45,0,0,0-13.1,42.83C25.9,847.76,16.48,826,14.28,803.2c-2.07-40.11,15.63-80.8,47.88-109.37a98.31,98.31,0,0,1,22.68-15.1,31.48,31.48,0,0,0,.4,6.92,87.32,87.32,0,0,0,23.35,42.29A154.34,154.34,0,0,1,99.24,684c-.35-3.2-1.26-6.36-1.76-9.57a25.34,25.34,0,0,1-.36-4.84,95.89,95.89,0,0,1,7.59-35.49c10.47-24.52,30.23-45.94,55.41-59.79,17.25-9.57,37-15.31,57.47-17.31a79.58,79.58,0,0,0,8.83,19.7,153.53,153.53,0,0,1,.8-36.94c8.27-62.06,65.17-108.18,135.61-106.83,48.73,6.92,96.09,24.76,133.41,53.46,62.67,47.94,90.71,127.39,70.48,198.45-20.05,74.68-86,129.72-174.41,133.36-54.92,2-112.91-18.12-145.82-58.06-33.72-40-37.77-97.46-9.91-141.09-38.5,55.72-23.19,131.47,34.13,172.63,57,41,141.53,46.21,206.05,16,52.8-23.58,88.85-69.85,103.22-119.91,29-96.92-25.06-201.35-126.56-245.93a316,316,0,0,0-52.86-19.06,129.46,129.46,0,0,0-25-6.59c0-1.52,0-3.05.08-4.58a142.61,142.61,0,0,1,10.22-47.31c19.82-49.19,70.2-87.45,128.52-96.47,64.5-10.89,130.26,14.52,173.24,57.31-14.41-25.81-39.49-46.75-68.84-59.68a112.22,112.22,0,0,1,22.74-63.81c19.9-26.37,52.18-44.86,87.49-50.51a177.14,177.14,0,0,1,26.65-2.28,91.72,91.72,0,0,0,6.68,16,120.68,120.68,0,0,1-2.85-28.68,113.36,113.36,0,0,1,13.81-52.22C805.85,23.53,888,.44,953.54,34.56c30.88,16.21,53.42,44.37,59.85,75.69,4.12,20.31,3,41,1.74,61.54a71.33,71.33,0,0,0,18.05-43.06c7,2.2,14.51,3.41,21.72,4.86a57.86,57.86,0,0,1,19.23,7.61c1.68,1,3.32,2,4.95,3,11.42,7.3,21.78,15.92,29.78,26.16a159,159,0,0,0-44.16,34.86,180.72,180.72,0,0,1,48.33-29c.32-.13.65-.28,1-.39,76.74-30.76,172.24-10.8,219.58,56.71A135.65,135.65,0,0,1,1358,327.94Z"/></symbol></defs><g id="assets"><use width="1384.2" height="1080.72" transform="translate(135.44 115.5)" xlink:href="#cloud_2"/></g></svg>