<svg xmlns="http://www.w3.org/2000/svg" xmlns:xlink="http://www.w3.org/1999/xlink" viewBox="0 0 979.05 979.61"><defs><style>.cls-1{fill:#e6e7e8;}.cls-2{fill:#fff;}.cls-3{opacity:0.25;}</style><symbol id="Poff4" data-name="Poff4" viewBox="0 0 475.56 555.81"><path class="cls-1" d="M405.77,448.28c-6.26-6.36-19.51-20.06-38.94-39.84C394.63,437.8,419.24,464.39,405.77,448.28Z"/><path class="cls-1" d="M241,81.77c-2,1.86-1.78,1.45-.14,1.11,49.2-11.16,86.55,25.56,80.21,73.06,13.46-20-12.7-89.24-78.61-74.27-1.52.31-1.64.56-.71-.29C241.49,81.51,241.24,81.65,241,81.77Z"/><path class="cls-1" d="M307,352.71c-3,2.84,3.78-2.81.72-.66A4.06,4.06,0,0,1,307,352.71Z"/><path class="cls-1" d="M307.48,352.23c-.69.52-1.55,1.39-2.86,2.59C305.93,353.66,306.82,352.78,307.48,352.23Z"/><path class="cls-1" d="M124.64,319.67a128.11,128.11,0,0,0,79.66,54.75C169.54,365.84,141.28,344.44,124.64,319.67Z"/><path class="cls-1" d="M108.51,330.08c.15-.95-2.39-5.23-5.29-12.31C105.92,324.73,108.34,329.06,108.51,330.08Z"/><path class="cls-1" d="M174.24,363.06c-46.3-24-72.57-73.32-72.57-114.34-.66-6.53.22-8.73-.9-5C104.9,230.37,90.25,320.43,174.24,363.06Z"/><path class="cls-1" d="M307.37,352.33c-61.18,51.78-160.16,21.52-193.18-51.72C98,264.76,102.43,238,101.27,242.09c-18.47,53.66,11.13,89.37,6.91,88.16-2.05-.41-15.63-14.15-21.89-22.84-23.38-31.53-27-61.35-24.57-92.66.7-6-15.72-16.39-24.51-34-20.3-35.51-14.67-79.68,8-112C12.5,173.62,134.69,258.11,225.25,196c-24,35.15-65.62,54.55-108.35,50.78-2.81,68.25,52.91,124,121.76,124,49.41,0,71.24-25.42,76.8-25.42,1.38,0,84.1,95.46,90.31,102.88C432.82,480.64,313,346.68,307.37,352.33Z"/><path class="cls-1" d="M60.72,225.29c-.31,3.43.1-2,.29-4.08C60.89,222.46,60.78,224,60.72,225.29Z"/><path class="cls-1" d="M60.58,228.94c.08-3.42,0-2.71,0-1.33C60.6,227.81,60.58,228.66,60.58,228.94Z"/><path class="cls-1" d="M306.13,353.52c2.81-2.07,2.94-2,2.61-2C308.19,351.48,308.26,351.51,306.13,353.52Z"/><path class="cls-1" d="M124.64,319.67c21.36,32.27,56.07,52.56,88.83,56.41C174.54,369.25,143.64,347.94,124.64,319.67Z"/><path class="cls-1" d="M107.6,330c.48.48,1.06.95.84.31A2.2,2.2,0,0,1,107.6,330Z"/><path class="cls-1" d="M104.42,270.18c-.31-1.53-.57-3.09-.84-4.65C103.84,267.09,104.11,268.64,104.42,270.18Z"/><path class="cls-1" d="M100.63,244c0,.32-.17.58.14-.36,1.52-4.88-.73,1.34,2.81,21.85C100.08,244.3,102.5,238.28,100.63,244Z"/><path class="cls-1" d="M100,246.2c0-.12.56-1.82.57-1.86C100.34,245,100.15,245.57,100,246.2Z"/><path class="cls-1" d="M61.87,213.77c.91-6.49-40.79-30.12-36.71-89C21,183.66,62.63,207.78,61.87,213.77Z"/><path class="cls-1" d="M61.26,218.53c0-.19.35-2.85.36-3C61.49,216.37,61.33,217.67,61.26,218.53Z"/><path class="cls-1" d="M60.7,237.41a127.5,127.5,0,0,0,30.05,75.85C73.38,291.65,62.07,265.08,60.7,237.41Z"/><path class="cls-1" d="M60.62,235.24c0,.73.05,1.45.08,2.17C60.67,236.69,60.64,236,60.62,235.24Z"/><path class="cls-1" d="M60.62,235.24c0-.72,0-1.44-.06-2.17C60.57,233.8,60.6,234.52,60.62,235.24Z"/><path class="cls-1" d="M60.56,233.07c0-4.35.14-8.52.45-11.86A115,115,0,0,0,60.56,233.07Z"/><path class="cls-1" d="M323,152.22c-.62,1.82-4.27,11-4.27,8.13,0-48.82-48.37-82-93.34-66.21C229,90,237.05,82.8,242.46,81.66,290.73,70.7,327.74,105.94,323,152.22Z"/><path class="cls-1" d="M320.26,156.17c.14-.21.1,0,.1-.82C320.33,155.62,320.29,155.91,320.26,156.17Z"/><path class="cls-1" d="M334.45,79.54a112.08,112.08,0,0,0-13.07.78c-29.58-42.8-62-67.08-84.86-70.73C277.5,13.38,316,37.5,334.45,79.54Z"/><path d="M313.6,86.6c-1.13-6,.12-5.17-4.51-4-35.4-28.83-74.22.69-66.63-.9,61.55-14,90.17,46.16,79.69,72.72C336.55,134.08,332.5,105.48,313.6,86.6ZM103.49,264.9c-1-6.23-2.22-17.84-1.72-13.72C102.68,261.25,105,274.65,103.49,264.9ZM86.69,308c2.31,3-15.48-19.56-22.88-49.33C67.28,274.48,74.81,291.65,86.69,308Zm-26-81.32v0Zm0,.13h0C60.65,227.17,60.64,226.87,60.66,226.76Zm0,1v0ZM57.5,207.16c5.06,5.25,4.43,6.55,4.43,6.05C61.93,210.2,61.78,211.44,57.5,207.16ZM61.35,211a2.83,2.83,0,0,1,.42.62A3.4,3.4,0,0,0,61.35,211ZM390.9,329.59c96.26-46.13,101.88-216.3-28.43-246.93C327.93,2.87,233.66-21.08,167.87,19.23c-7,3.71-2.77,4.44-8.51,2C112.54.48,51.85,18,21.26,63.39-12.91,111.83-4.95,180.92,38.39,220.84,37.25,273.31,68.31,320.76,114.08,340c40.3,65.3,129.79,78.66,185.93,35.64,56.56,58.56,121.25,123.41,175.55,180.14C454.3,493,420.4,390.9,390.9,329.59Zm16.91,120.26c16.34,18.56-67-67.82-90-90.88-9.55-8.19-7.62-8.27-10.82-6.05-1.42,1.05-.72.53.05-.21.55-.37.81-.86.49-.48a80.29,80.29,0,0,1-18.4,13.26c-21.63,12.07-52.53,17-84.79,8.93-59.5-12.93-88.09-66.43-77.81-52.08a127.53,127.53,0,0,0,32.76,32c5.94,4.12,37.85,21.17,11.83,7-32.83-17.68-61.34-53.6-67-93-4.39-19.73-1.22-32.18-3.82-23.19-7.9,23.7-5.45,50.83,2.84,72.34,22.68,39.69-42.57-23.35-42.57-84.47,0-13.67.25-2.62.25-9.44,0-8.67,2.55-10.91,0-13.46-82.29-72-14-207.57,97.9-185.55,3.67.68-1.2-.91-17.72,17.44,59.75-55.23,159.6-39.8,193.46,37.48a106.48,106.48,0,0,0-25.36,3c-35.4-28.83-74.22.69-66.63-.9,61.55-14,90.17,46.16,79.69,72.72,14.4-20.3,10.35-48.9-8.55-67.78,136.52,5.93,159.56,167.46,69.7,228-36.26,24.66-98,24.69-67.84,24.69,6.76,0,34.45,5.53,64.23-5C406.54,455.43,424.94,467.12,407.81,449.85ZM61.88,211.58c-.07-.21-9.24-9.24-.53-.6a2.43,2.43,0,0,1,.59,2.15A3.8,3.8,0,0,0,61.88,211.58ZM60.59,228.8c0,.43,0-.27,0-.68C60.6,228.34,60.6,228.57,60.59,228.8Zm0-1.19c0,.19,0,.26,0,0A0,0,0,0,0,60.62,227.61Zm0-1.08c0,.17,0,.07,0,0A.06.06,0,0,0,60.66,226.53Zm1.27-13.32v0Zm1.88,45.41c3.86,17.64,10.94,30.69,20.52,46C93.61,318.05,71.54,289.74,63.81,258.62Zm40.07,8.57c0-.08,0-.31,0-.23S104.09,268.73,103.88,267.19Zm-1.29-8.41c-.28-1.26-1.1-11-.82-7.6C103.39,269.16,105.18,271.45,102.59,258.78ZM313.6,86.6c-1.13-6,.12-5.17-4.51-4-35.4-28.83-74.22.69-66.63-.9,61.55-14,90.17,46.16,79.69,72.72C336.55,134.08,332.5,105.48,313.6,86.6Z"/><path class="cls-2" d="M407.81,449.85c17.09,19.41-67-76.21-91.42-104.06-1.12-1.31-.93,2.16-.93-6.51,6.76,0,34.45,5.53,64.23-5C406.54,455.43,424.94,467.12,407.81,449.85Z"/><path class="cls-2" d="M383.3,314.59c-36.26,24.66-98,24.69-67.84,24.69v6.12c-5.56,0-27.39,25.42-76.8,25.42-68.85,0-124.57-55.78-121.76-124,42.73,3.77,84.38-15.63,108.35-50.78-90.56,62.1-212.75-22.39-180-127.22a113.34,113.34,0,0,0-19.61,50.1C33.28,57.37,90.39,11.18,158.71,24.62c3.67.68-1.2-.91-17.72,17.44C164.63,20.2,197.3,9.13,226.56,9.13c37.35,0,73.58,40.46,94.82,71.19a72.1,72.1,0,0,0-12.29,2.24c-22.06-18-52-15.5-68.1-.79a57.81,57.81,0,0,0-15.65,12.37c47.75-16.73,95.61,21.71,93.32,67.38a62.86,62.86,0,0,0,3.49-7.14c14.4-20.3,10.35-48.9-8.55-67.78C450.12,92.53,473.16,254.06,383.3,314.59Z"/></symbol></defs><g id="assets"><use width="475.56" height="555.81" transform="translate(32.98 304.99)" xlink:href="#Poff4"/></g></svg>