<svg xmlns="http://www.w3.org/2000/svg" xmlns:xlink="http://www.w3.org/1999/xlink" viewBox="0 0 2000 1270.69"><defs><radialGradient id="a" cx="-324.93" cy="624.59" r="723.82" gradientTransform="translate(1346.14 -0.51) rotate(-0.28)" gradientUnits="userSpaceOnUse"><stop offset="0" stop-color="#c0151b"/><stop offset="1" stop-color="#ed1c24"/></radialGradient><radialGradient id="i" cx="-324.93" cy="624.59" r="723.82" gradientTransform="translate(1340.14 -6.51) rotate(-0.28)" xlink:href="#a"/><radialGradient id="q" cx="-324.93" cy="624.59" r="723.82" gradientTransform="translate(1334.14 -12.51) rotate(-0.28)" xlink:href="#a"/><radialGradient id="y" cx="-324.93" cy="624.59" r="723.82" gradientTransform="translate(1328.14 -18.51) rotate(-0.28)" xlink:href="#a"/><pattern id="ag" width="72" height="72" patternTransform="matrix(1.91, 0.94, -0.94, 1.91, 306.08, -191.78)" patternUnits="userSpaceOnUse" viewBox="0 0 72 72"><rect width="72" height="72" fill="none"/><line x1="71.75" y1="66" x2="144.25" y2="66" fill="none" stroke="#231f20" stroke-width="3.6"/><line x1="71.75" y1="42" x2="144.25" y2="42" fill="none" stroke="#231f20" stroke-width="3.6"/><line x1="71.75" y1="18" x2="144.25" y2="18" fill="none" stroke="#231f20" stroke-width="3.6"/><line x1="71.75" y1="54" x2="144.25" y2="54" fill="none" stroke="#231f20" stroke-width="3.6"/><line x1="71.75" y1="30" x2="144.25" y2="30" fill="none" stroke="#231f20" stroke-width="3.6"/><line x1="71.75" y1="6" x2="144.25" y2="6" fill="none" stroke="#231f20" stroke-width="3.6"/><line x1="-0.25" y1="66" x2="72.25" y2="66" fill="none" stroke="#231f20" stroke-width="3.6"/><line x1="-0.25" y1="42" x2="72.25" y2="42" fill="none" stroke="#231f20" stroke-width="3.6"/><line x1="-0.25" y1="18" x2="72.25" y2="18" fill="none" stroke="#231f20" stroke-width="3.6"/><line x1="-0.25" y1="54" x2="72.25" y2="54" fill="none" stroke="#231f20" stroke-width="3.6"/><line x1="-0.25" y1="30" x2="72.25" y2="30" fill="none" stroke="#231f20" stroke-width="3.6"/><line x1="-0.25" y1="6" x2="72.25" y2="6" fill="none" stroke="#231f20" stroke-width="3.6"/><line x1="-72.25" y1="66" x2="0.25" y2="66" fill="none" stroke="#231f20" stroke-width="3.6"/><line x1="-72.25" y1="42" x2="0.25" y2="42" fill="none" stroke="#231f20" stroke-width="3.6"/><line x1="-72.25" y1="18" x2="0.25" y2="18" fill="none" stroke="#231f20" stroke-width="3.6"/><line x1="-72.25" y1="54" x2="0.25" y2="54" fill="none" stroke="#231f20" stroke-width="3.6"/><line x1="-72.25" y1="30" x2="0.25" y2="30" fill="none" stroke="#231f20" stroke-width="3.6"/><line x1="-72.25" y1="6" x2="0.25" y2="6" fill="none" stroke="#231f20" stroke-width="3.6"/></pattern></defs><path d="M268.06,84l3.12,1C336,124.79,371.52,200,382.57,310.36c8.13,77.94-8.22,171.34-38.57,296,.38,2.29.75,4.58,1.13,6.86C405.47,662.72,440.88,726,456,808.47q2.83,15.3,5.72,30.55c21,110.73,7.55,208.26-33.75,309.13-31.18,29.48-50.32,46.58-58.59,49.63-40.14,15.39-77.8-19.56-111.51-110.36l-1.79-6.56c-3-11.1-5.78-43-6.88-95C186.41,666.52,170.42,420.54,173.27,273,184.27,128.32,219.25,67.26,268.06,84Zm7.62,661c14.29,107,29.1,200.9,42.85,282.58q3.33,2.84,6.67,5.63c54.57-14.49,77.47-74.57,74.8-178.83q-2-9.57-3.88-19.19C385.75,782.69,346.21,753,275.68,744.93ZM252.4,527.37l5.45.36c36.74-100.5,55.93-178.44,50-247.16-7.38-10.52-13.76-16.49-19.13-17.71L283,261.54C256.27,254.79,241.53,343.68,252.4,527.37Z"/><path d="M508.62,379.78l6.84,1.27c10.18,1.76,29.5,35.33,57.59,95.34,20.73,64.57,33.81,121.53,40.07,174.28,12.13,101.45,4.72,208.65-12.35,336.28-16.47,50.51-28.69,79-39.48,82.42l-9,3c-24,8-48.16-18.58-71.93-83A575.81,575.81,0,0,1,462,922.78c-1-4.82-2-9.66-3-14.49C435.69,795,428.7,651.86,450.22,495.38,467.5,412.77,488.68,376.05,508.62,379.78Zm4.64,547.41q5.18,16,10.39,31.77l3.92-.92c28.71-7,35.89-94.17,37.23-257.14q-2.73-27.09-5.17-54.29c-16-81.64-26.09-124.41-32.21-124.87l-11.11-1c-25.9,81.26-31.78,201.35-14,350.31Q507.66,899.26,513.26,927.19Z"/><path d="M717.87,395.43l7.17,1.49c10.66,2.09,29.17,32.64,55,86.28,17.69,57.29,27.48,107.42,30.32,154,5.55,89.48-10.24,184.47-36.85,301.43-20.46,46.6-34.85,73.42-46.08,77l-9.43,3.05c-25,8.21-47.85-15.65-68.15-74.75a465.15,465.15,0,0,1-14.68-61q-1.11-6.65-2.18-13.3c-16.88-103.86-15.6-235.16,16.34-374.27C672.38,422.09,697,391.1,717.87,395.43ZM687.71,886q4.29,14.54,8.59,28.92l4.09-.92c29.9-7,43.39-87.52,56-232.9q-1-24.18-1.73-48.36C743.38,560,735.37,522,729,521.33l-11.63-1.23c-32.4,71.06-45.9,178.94-37.22,314.74Q683.8,860.51,687.71,886Z"/><path d="M925.76,458.35l6.85,1.32c10.18,1.85,26.49,26.29,48.18,68.82,13.65,45.31,19.81,84.91,19.4,121.93-.71,71.2-22.74,147.77-56.5,245.47-22.75,39.28-38.23,62.37-49.05,65.73l-9.08,2.91c-24.11,7.84-43.82-11.47-59-60.29a333.52,333.52,0,0,1-9.83-50.47q-.6-5.49-1.19-11c-9.19-85.86,0-194.26,38.5-305.8C880.36,478.4,905.75,454.56,925.76,458.35ZM866.38,855q3.06,11.93,6.14,23.75l3.93-.89c28.69-6.54,47.4-74.36,69.12-191.74q.66-19.46,1.51-38.85c-6.11-58.21-11.66-88.43-17.76-89l-11.13-1C882.77,613.72,863.47,701,862.64,812.89Q864.43,834,866.38,855Z"/><path d="M1096.8,493.9c26.06,5.33,34.93,37.94,29,99,1.26,46,3.8,68.52,6.9,68.49,47.86-84.35,83.28-119.63,94.06-128.46,9.78-3,17.85-3.8,24.09-2.66,16.45,3.1,24.4,17.13,24,41.76C1229.08,708.47,1215,807.46,1211.45,838c-6,17.23-13.34,27.56-22.35,30.4l-3.77,1.18c-14.57,4.73-21.16-10.15-19-44.15q11-82.46,26.93-159.78-17.4,21.9-33.74,45.77c-13,19.51-25.61,30.7-38.62,32.2l-2.07.24c-25.2,3.22-40.56-30-44.32-101.6.48-9.28-.67-14-3.49-14.06-33.16,85.75-54.65,180.06-66.17,276.46-4.78,9.74-9.4,15.42-14,16.84l-5.52,1.69c-13.76.61-21.47-9.15-22.82-29.11-.27-4.2-.55-8.41-.81-12.61,9.59-105,34.2-225.45,83.56-341.48C1061.28,504.87,1079.07,490.49,1096.8,493.9Z"/><path d="M1386.87,549.78c26.06,5.52,31.1,26.14,16.6,65.1-5.07,29.7-5.92,44.71-2.8,44.65,60.29-55,101.91-71.53,114.24-76.13,10.48-1,18.91-.74,25.16.42,16.47,3.2,22.52,11.52,18.09,25.13-69,73.92-100.45,144.19-109.5,164.22-8.93,12.09-17.73,19.92-26.75,22.71l-3.78,1.17c-14.61,4.69-18.26-5.32-10.45-28.86a984,984,0,0,1,52.91-106q-20.89,13.78-40.83,29.82c-16,13.1-30.08,21.16-43.11,22.6l-2.08.23c-25.28,3.21-35.39-19.82-29.51-68.43,1.74-6.27,1.21-9.43-1.62-9.53-44.75,57.41-78.65,126.21-103.19,199.78-6,7.68-11.18,12.33-15.82,13.72l-5.53,1.67c-13.29,1.43-19.41-5.6-18.08-20.76l.87-9.55c23.14-80.24,62.62-169.45,126.87-244.91C1349.16,554.17,1369.1,546.32,1386.87,549.78Z"/><path d="M1486.92,729.67c19.37-.7,26,3.65,20.33,14.08-1.26,2.36-2.53,4.73-3.79,7.12-5.59,10.5-19,20.22-39.94,29.34l-3.8,1.14c-14.23,2-20.3-3.69-18-16.67.43-1.08.86-2.16,1.28-3.23Q1451.79,739.06,1486.92,729.67ZM1652.44,594l4.76,1.07c15.93,4.7,20.87,9,15,13.62l-1.94,1.54c-.91,2.83-46.35,11.12-121.35,72.68-13.32,15.85-27.55,25.81-43.24,28-14.1,2-18.74-3.8-13.84-17,6.13-8.79,45.41-60.66,135.41-100.11C1638.16,592.43,1646.63,592.69,1652.44,594Z"/><path d="M1615.55,698.48c24.53-1.1,31.84,2,22.53,11.17q-3.12,3.14-6.23,6.35c-9.19,9.41-27.6,19.35-54.81,29.93l-4.83,1.44c-17.67,3.31-24.16-1.86-19.28-14.56l2.12-3.18C1564.76,714.91,1584.86,704.62,1615.55,698.48Zm244.26-74.23,6.33,2.27c21,8.23,26.84,11.59,17.74,11.25l-3,0c-1.15.23-17.37-2.83-47.77-2.89-30.28.33-74.72,3.65-129.38,25.55-20.54,11.27-40.64,19.67-61,21.56-18.28,1.82-23.18-3.44-14.68-14.89,4.62-4.4,21.8-16.49,53.7-29.58,32-12.59,78.62-26.17,143.58-22.19A237.27,237.27,0,0,1,1859.81,624.25Z"/><path d="M263.06,78l3.12,1C331,118.79,366.52,194,377.57,304.36c8.13,77.94-8.22,171.34-38.57,296,.38,2.29.75,4.58,1.13,6.86C400.47,656.72,435.88,720,451,802.47q2.83,15.3,5.72,30.55c21,110.73,7.55,208.26-33.75,309.13-31.18,29.48-50.32,46.58-58.59,49.63-40.14,15.39-77.8-19.56-111.51-110.36l-1.79-6.56c-3-11.1-5.78-43-6.88-95C181.41,660.52,165.42,414.54,168.27,267,179.27,122.32,214.25,61.26,263.06,78Zm7.62,661c14.29,107,29.1,200.9,42.85,282.58q3.33,2.84,6.67,5.63c54.57-14.49,77.47-74.57,74.8-178.83q-2-9.57-3.88-19.19C380.75,776.69,341.21,747,270.68,738.93ZM247.4,521.37l5.45.36c36.74-100.5,55.93-178.44,50-247.16-7.38-10.52-13.76-16.49-19.13-17.71L278,255.54C251.27,248.79,236.53,337.68,247.4,521.37Z"/><path d="M503.62,373.78l6.84,1.27c10.18,1.76,29.5,35.33,57.59,95.34,20.73,64.57,33.81,121.53,40.07,174.28,12.13,101.45,4.72,208.65-12.35,336.28-16.47,50.51-28.69,79-39.48,82.42l-9,3c-24,8-48.16-18.58-71.93-83A575.81,575.81,0,0,1,457,916.78c-1-4.82-2-9.66-3-14.49C430.69,789,423.7,645.86,445.22,489.38,462.5,406.77,483.68,370.05,503.62,373.78Zm4.64,547.41q5.17,16,10.39,31.77l3.92-.92c28.71-7,35.89-94.17,37.23-257.14q-2.73-27.09-5.17-54.29c-16-81.64-26.09-124.41-32.21-124.87l-11.11-1c-25.9,81.26-31.78,201.35-14,350.31Q502.66,893.26,508.26,921.19Z"/><path d="M712.87,389.43l7.17,1.49c10.66,2.09,29.17,32.64,55,86.28,17.69,57.29,27.48,107.42,30.32,154,5.55,89.48-10.24,184.47-36.85,301.43-20.46,46.6-34.85,73.42-46.08,77l-9.43,3.05c-25,8.21-47.85-15.65-68.15-74.75a465.15,465.15,0,0,1-14.68-61q-1.11-6.65-2.18-13.3c-16.88-103.86-15.6-235.16,16.34-374.27C667.38,416.09,692,385.1,712.87,389.43ZM682.71,880q4.29,14.54,8.59,28.92l4.09-.92c29.9-7,43.39-87.52,56-232.9q-1-24.18-1.73-48.36C738.38,554,730.37,516,724,515.33l-11.63-1.23c-32.4,71.06-45.9,178.94-37.22,314.74Q678.8,854.51,682.71,880Z"/><path d="M920.76,452.35l6.85,1.32c10.18,1.85,26.49,26.29,48.18,68.82,13.65,45.31,19.81,84.91,19.4,121.93-.71,71.2-22.74,147.77-56.5,245.47-22.75,39.28-38.23,62.37-49.05,65.73l-9.08,2.91c-24.11,7.84-43.82-11.47-59-60.29a333.52,333.52,0,0,1-9.83-50.47q-.6-5.49-1.19-11c-9.19-85.86,0-194.26,38.5-305.8C875.36,472.4,900.75,448.56,920.76,452.35ZM861.38,849q3.06,11.93,6.14,23.75l3.93-.89c28.69-6.54,47.4-74.36,69.12-191.74q.66-19.46,1.51-38.85c-6.11-58.21-11.66-88.43-17.76-89l-11.13-1C877.77,607.72,858.47,695,857.64,806.89Q859.43,828,861.38,849Z"/><path d="M1091.8,487.9c26.06,5.33,34.93,37.94,29,99,1.26,46,3.8,68.52,6.9,68.49,47.86-84.35,83.28-119.63,94.06-128.46,9.78-3,17.85-3.8,24.09-2.66,16.45,3.1,24.4,17.13,24,41.76C1224.08,702.47,1210,801.46,1206.45,832c-6,17.23-13.34,27.56-22.35,30.4l-3.77,1.18c-14.57,4.73-21.16-10.15-19-44.15q11-82.46,26.93-159.78-17.4,21.9-33.74,45.77c-13,19.51-25.61,30.7-38.62,32.2l-2.07.24c-25.2,3.22-40.56-30-44.32-101.6.48-9.28-.67-14-3.49-14.06-33.16,85.75-54.65,180.06-66.17,276.46-4.78,9.74-9.4,15.42-14,16.84l-5.52,1.69c-13.76.61-21.47-9.15-22.82-29.11-.27-4.2-.55-8.41-.81-12.61,9.59-105,34.2-225.45,83.56-341.48C1056.28,498.87,1074.07,484.49,1091.8,487.9Z"/><path d="M1381.87,543.78c26.06,5.52,31.1,26.14,16.6,65.1-5.07,29.7-5.92,44.71-2.8,44.65,60.29-55,101.91-71.53,114.24-76.13,10.48-1,18.91-.74,25.16.42,16.47,3.2,22.52,11.52,18.09,25.13-69,73.92-100.45,144.19-109.5,164.22-8.93,12.09-17.73,19.92-26.75,22.71l-3.78,1.17c-14.61,4.69-18.26-5.32-10.45-28.86a984,984,0,0,1,52.91-106q-20.89,13.78-40.83,29.82c-16,13.1-30.08,21.16-43.11,22.6l-2.08.23c-25.28,3.21-35.39-19.82-29.51-68.43,1.74-6.27,1.21-9.43-1.62-9.53-44.75,57.41-78.65,126.21-103.19,199.78-6,7.68-11.18,12.33-15.82,13.72l-5.53,1.67c-13.29,1.43-19.41-5.6-18.08-20.76l.87-9.55c23.14-80.24,62.62-169.45,126.87-244.91C1344.16,548.17,1364.1,540.32,1381.87,543.78Z"/><path d="M1481.92,723.67c19.37-.7,26,3.65,20.33,14.08-1.26,2.36-2.53,4.73-3.79,7.12-5.59,10.5-19,20.22-39.94,29.34l-3.8,1.14c-14.23,2-20.3-3.69-18-16.67.43-1.08.86-2.16,1.28-3.23Q1446.79,733.06,1481.92,723.67ZM1647.44,588l4.76,1.07c15.93,4.7,20.87,9,15,13.62l-1.94,1.54c-.91,2.83-46.35,11.12-121.35,72.68-13.32,15.85-27.55,25.81-43.24,28-14.1,2-18.74-3.8-13.84-17,6.13-8.79,45.41-60.66,135.41-100.11C1633.16,586.43,1641.63,586.69,1647.44,588Z"/><path d="M1610.55,692.48c24.53-1.1,31.84,2,22.53,11.17q-3.12,3.14-6.23,6.35c-9.19,9.41-27.6,19.35-54.81,29.93l-4.83,1.44c-17.67,3.31-24.16-1.86-19.28-14.56l2.12-3.18C1559.76,708.91,1579.86,698.62,1610.55,692.48Zm244.26-74.23,6.33,2.27c21,8.23,26.84,11.59,17.74,11.25l-3,0c-1.15.23-17.37-2.83-47.77-2.89-30.28.33-74.72,3.65-129.38,25.55-20.54,11.27-40.64,19.67-61,21.56-18.28,1.82-23.18-3.44-14.68-14.89,4.62-4.4,21.8-16.49,53.7-29.58,32-12.59,78.62-26.17,143.58-22.19A237.27,237.27,0,0,1,1854.81,618.25Z"/><path d="M258.06,72l3.12,1C326,112.79,361.52,188,372.57,298.36c8.13,77.94-8.22,171.34-38.57,296,.38,2.29.75,4.58,1.13,6.86C395.47,650.72,430.88,714,446,796.47q2.83,15.3,5.72,30.55c21,110.73,7.55,208.26-33.75,309.13-31.18,29.48-50.32,46.58-58.59,49.63-40.14,15.39-77.8-19.56-111.51-110.36l-1.79-6.56c-3-11.1-5.78-43-6.88-95C176.41,654.52,160.42,408.54,163.27,261,174.27,116.32,209.25,55.26,258.06,72Zm7.62,661c14.29,107,29.1,200.9,42.85,282.58q3.33,2.84,6.67,5.63c54.57-14.49,77.47-74.57,74.8-178.83q-2-9.57-3.88-19.19C375.75,770.69,336.21,741,265.68,732.93ZM242.4,515.37l5.45.36c36.74-100.5,55.93-178.44,50-247.16-7.38-10.52-13.76-16.49-19.13-17.71L273,249.54C246.27,242.79,231.53,331.68,242.4,515.37Z"/><path d="M498.62,367.78l6.84,1.27c10.18,1.76,29.5,35.33,57.59,95.34,20.73,64.57,33.81,121.53,40.07,174.28,12.13,101.45,4.72,208.65-12.35,336.28-16.47,50.51-28.69,79-39.48,82.42l-9,3c-24,8-48.16-18.58-71.93-83A575.81,575.81,0,0,1,452,910.78c-1-4.82-2-9.66-3-14.49C425.69,783,418.7,639.86,440.22,483.38,457.5,400.77,478.68,364.05,498.62,367.78Zm4.64,547.41q5.17,16,10.39,31.77l3.92-.92c28.71-7,35.89-94.17,37.23-257.14q-2.73-27.09-5.17-54.29c-16-81.64-26.09-124.41-32.21-124.87l-11.11-1c-25.9,81.26-31.78,201.35-14,350.31Q497.66,887.26,503.26,915.19Z"/><path d="M707.87,383.43l7.17,1.49c10.66,2.09,29.17,32.64,55,86.28,17.69,57.29,27.48,107.42,30.32,154,5.55,89.48-10.24,184.47-36.85,301.43-20.46,46.6-34.85,73.42-46.08,77l-9.43,3.05c-25,8.21-47.85-15.65-68.15-74.75a465.15,465.15,0,0,1-14.68-61q-1.11-6.65-2.18-13.3c-16.88-103.86-15.6-235.16,16.34-374.27C662.38,410.09,687,379.1,707.87,383.43ZM677.71,874q4.29,14.54,8.59,28.92l4.09-.92c29.9-7,43.39-87.52,56-232.9q-1-24.18-1.73-48.36C733.38,548,725.37,510,719,509.33l-11.63-1.23c-32.4,71.06-45.9,178.94-37.22,314.74Q673.8,848.51,677.71,874Z"/><path d="M915.76,446.35l6.85,1.32c10.18,1.85,26.49,26.29,48.18,68.82,13.65,45.31,19.81,84.91,19.4,121.93-.71,71.2-22.74,147.77-56.5,245.47-22.75,39.28-38.23,62.37-49.05,65.73l-9.08,2.91c-24.11,7.84-43.82-11.47-59-60.29a333.52,333.52,0,0,1-9.83-50.47q-.6-5.49-1.19-11c-9.19-85.86,0-194.26,38.5-305.8C870.36,466.4,895.75,442.56,915.76,446.35ZM856.38,843q3.06,11.93,6.14,23.75l3.93-.89c28.69-6.54,47.4-74.36,69.12-191.74q.66-19.46,1.51-38.85c-6.11-58.21-11.66-88.43-17.76-89l-11.13-1C872.77,601.72,853.47,689,852.64,800.89Q854.43,822,856.38,843Z"/><path d="M1086.8,481.9c26.06,5.33,34.93,37.94,29,99,1.26,46,3.8,68.52,6.9,68.49,47.86-84.35,83.28-119.63,94.06-128.46,9.78-3,17.85-3.8,24.09-2.66,16.45,3.1,24.4,17.13,24,41.76C1219.08,696.47,1205,795.46,1201.45,826c-6,17.23-13.34,27.56-22.35,30.4l-3.77,1.18c-14.57,4.73-21.16-10.15-19-44.15q11-82.46,26.93-159.78-17.4,21.9-33.74,45.77c-13,19.51-25.61,30.7-38.62,32.2l-2.07.24c-25.2,3.22-40.56-30-44.32-101.6.48-9.28-.67-14-3.49-14.06-33.16,85.75-54.65,180.06-66.17,276.46-4.78,9.74-9.4,15.42-14,16.84l-5.52,1.69c-13.76.61-21.47-9.15-22.82-29.11-.27-4.2-.55-8.41-.81-12.61,9.59-105,34.2-225.45,83.56-341.48C1051.28,492.87,1069.07,478.49,1086.8,481.9Z"/><path d="M1376.87,537.78c26.06,5.52,31.1,26.14,16.6,65.1-5.07,29.7-5.92,44.71-2.8,44.65,60.29-55,101.91-71.53,114.24-76.13,10.48-1,18.91-.74,25.16.42,16.47,3.2,22.52,11.52,18.09,25.13-69,73.92-100.45,144.19-109.5,164.22-8.93,12.09-17.73,19.92-26.75,22.71l-3.78,1.17c-14.61,4.69-18.26-5.32-10.45-28.86a984,984,0,0,1,52.91-106q-20.89,13.78-40.83,29.82c-16,13.1-30.08,21.16-43.11,22.6l-2.08.23c-25.28,3.21-35.39-19.82-29.51-68.43,1.74-6.27,1.21-9.43-1.62-9.53-44.75,57.41-78.65,126.21-103.19,199.78-6,7.68-11.18,12.33-15.82,13.72l-5.53,1.67c-13.29,1.43-19.41-5.6-18.08-20.76l.87-9.55c23.14-80.24,62.62-169.45,126.87-244.91C1339.16,542.17,1359.1,534.32,1376.87,537.78Z"/><path d="M1476.92,717.67c19.37-.7,26,3.65,20.33,14.08-1.26,2.36-2.53,4.73-3.79,7.12-5.59,10.5-19,20.22-39.94,29.34l-3.8,1.14c-14.23,2-20.3-3.69-18-16.67.43-1.08.86-2.16,1.28-3.23Q1441.79,727.06,1476.92,717.67ZM1642.44,582l4.76,1.07c15.93,4.7,20.87,9,15,13.62l-1.94,1.54c-.91,2.83-46.35,11.12-121.35,72.68-13.32,15.85-27.55,25.81-43.24,28-14.1,2-18.74-3.8-13.84-17,6.13-8.79,45.41-60.66,135.41-100.11C1628.16,580.43,1636.63,580.69,1642.44,582Z"/><path d="M1605.55,686.48c24.53-1.1,31.84,2,22.53,11.17q-3.12,3.14-6.23,6.35c-9.19,9.41-27.6,19.35-54.81,29.93l-4.83,1.44c-17.67,3.31-24.16-1.86-19.28-14.56l2.12-3.18C1554.76,702.91,1574.86,692.62,1605.55,686.48Zm244.26-74.23,6.33,2.27c21,8.23,26.84,11.59,17.74,11.25l-3,0c-1.15.23-17.37-2.83-47.77-2.89-30.28.33-74.72,3.65-129.38,25.55-20.54,11.27-40.64,19.67-61,21.56-18.28,1.82-23.18-3.44-14.68-14.89,4.62-4.4,21.8-16.49,53.7-29.58,32-12.59,78.62-26.17,143.58-22.19A237.27,237.27,0,0,1,1849.81,612.25Z"/><path d="M253.06,66l3.12,1C321,106.79,356.52,182,367.57,292.36c8.13,77.94-8.22,171.34-38.57,296,.38,2.29.75,4.58,1.13,6.86C390.47,644.72,425.88,708,441,790.47q2.83,15.3,5.72,30.55c21,110.73,7.55,208.26-33.75,309.13-31.18,29.48-50.32,46.58-58.59,49.63-40.14,15.39-77.8-19.56-111.51-110.36l-1.79-6.56c-3-11.1-5.78-43-6.88-95C171.41,648.52,155.42,402.54,158.27,255,169.27,110.32,204.25,49.26,253.06,66Zm7.62,661c14.29,107,29.1,200.9,42.85,282.58q3.33,2.84,6.67,5.63c54.57-14.49,77.47-74.57,74.8-178.83q-2-9.57-3.88-19.19C370.75,764.69,331.21,735,260.68,726.93ZM237.4,509.37l5.45.36c36.74-100.5,55.93-178.44,50-247.16-7.38-10.52-13.76-16.49-19.13-17.71L268,243.54C241.27,236.79,226.53,325.68,237.4,509.37Z"/><path d="M493.62,361.78l6.84,1.27c10.18,1.76,29.5,35.33,57.59,95.34,20.73,64.57,33.81,121.53,40.07,174.28,12.13,101.45,4.72,208.65-12.35,336.28-16.47,50.51-28.69,79-39.48,82.42l-9,3c-24,8-48.16-18.58-71.93-83A575.81,575.81,0,0,1,447,904.78c-1-4.82-2-9.66-3-14.49C420.69,777,413.7,633.86,435.22,477.38,452.5,394.77,473.68,358.05,493.62,361.78Zm4.64,547.41q5.17,16,10.39,31.77l3.92-.92c28.71-7,35.89-94.17,37.23-257.14q-2.73-27.09-5.17-54.29c-16-81.64-26.09-124.41-32.21-124.87l-11.11-1c-25.9,81.26-31.78,201.35-14,350.31Q492.66,881.26,498.26,909.19Z"/><path d="M702.87,377.43l7.17,1.49c10.66,2.09,29.17,32.64,55,86.28,17.69,57.29,27.48,107.42,30.32,154,5.55,89.48-10.24,184.47-36.85,301.43-20.46,46.6-34.85,73.42-46.08,77l-9.43,3.05c-25,8.21-47.85-15.65-68.15-74.75a465.15,465.15,0,0,1-14.68-61q-1.11-6.65-2.18-13.3c-16.88-103.86-15.6-235.16,16.34-374.27C657.38,404.09,682,373.1,702.87,377.43ZM672.71,868q4.29,14.54,8.59,28.92l4.09-.92c29.9-7,43.39-87.52,56-232.9q-1-24.18-1.73-48.36C728.38,542,720.37,504,714,503.33l-11.63-1.23c-32.4,71.06-45.9,178.94-37.22,314.74Q668.8,842.51,672.71,868Z"/><path d="M910.76,440.35l6.85,1.32c10.18,1.85,26.49,26.29,48.18,68.82,13.65,45.31,19.81,84.91,19.4,121.93-.71,71.2-22.74,147.77-56.5,245.47-22.75,39.28-38.23,62.37-49.05,65.73l-9.08,2.91c-24.11,7.84-43.82-11.47-59-60.29a333.52,333.52,0,0,1-9.83-50.47q-.6-5.49-1.19-11c-9.19-85.86,0-194.26,38.5-305.8C865.36,460.4,890.75,436.56,910.76,440.35ZM851.38,837q3.06,11.93,6.14,23.75l3.93-.89c28.69-6.54,47.4-74.36,69.12-191.74q.66-19.46,1.51-38.85c-6.11-58.21-11.66-88.43-17.76-89l-11.13-1C867.77,595.72,848.47,683,847.64,794.89Q849.43,816,851.38,837Z"/><path d="M1081.8,475.9c26.06,5.33,34.93,37.94,29,99,1.26,46,3.8,68.52,6.9,68.49,47.86-84.35,83.28-119.63,94.06-128.46,9.78-3,17.85-3.8,24.09-2.66,16.45,3.1,24.4,17.13,24,41.76C1214.08,690.47,1200,789.46,1196.45,820c-6,17.23-13.34,27.56-22.35,30.4l-3.77,1.18c-14.57,4.73-21.16-10.15-19-44.15q11-82.46,26.93-159.78-17.4,21.9-33.74,45.77c-13,19.51-25.61,30.7-38.62,32.2l-2.07.24c-25.2,3.22-40.56-30-44.32-101.6.48-9.28-.67-14-3.49-14.06-33.16,85.75-54.65,180.06-66.17,276.46-4.78,9.74-9.4,15.42-14,16.84l-5.52,1.69c-13.76.61-21.47-9.15-22.82-29.11-.27-4.2-.55-8.41-.81-12.61,9.59-105,34.2-225.45,83.56-341.48C1046.28,486.87,1064.07,472.49,1081.8,475.9Z"/><path d="M1371.87,531.78c26.06,5.52,31.1,26.14,16.6,65.1-5.07,29.7-5.92,44.71-2.8,44.65,60.29-55,101.91-71.53,114.24-76.13,10.48-1,18.91-.74,25.16.42,16.47,3.2,22.52,11.52,18.09,25.13-69,73.92-100.45,144.19-109.5,164.22-8.93,12.09-17.73,19.92-26.75,22.71l-3.78,1.17c-14.61,4.69-18.26-5.32-10.45-28.86a984,984,0,0,1,52.91-106q-20.89,13.78-40.83,29.82c-16,13.1-30.08,21.16-43.11,22.6l-2.08.23c-25.28,3.21-35.39-19.82-29.51-68.43,1.74-6.27,1.21-9.43-1.62-9.53-44.75,57.41-78.65,126.21-103.19,199.78-6,7.68-11.18,12.33-15.82,13.72l-5.53,1.67c-13.29,1.43-19.41-5.6-18.08-20.76l.87-9.55c23.14-80.24,62.62-169.45,126.87-244.91C1334.16,536.17,1354.1,528.32,1371.87,531.78Z"/><path d="M1471.92,711.67c19.37-.7,26,3.65,20.33,14.08-1.26,2.36-2.53,4.73-3.79,7.12-5.59,10.5-19,20.22-39.94,29.34l-3.8,1.14c-14.23,2-20.3-3.69-18-16.67.43-1.08.86-2.16,1.28-3.23Q1436.79,721.06,1471.92,711.67ZM1637.44,576l4.76,1.07c15.93,4.7,20.87,9,15,13.62l-1.94,1.54c-.91,2.83-46.35,11.12-121.35,72.68-13.32,15.85-27.55,25.81-43.24,28-14.1,2-18.74-3.8-13.84-17,6.13-8.79,45.41-60.66,135.41-100.11C1623.16,574.43,1631.63,574.69,1637.44,576Z"/><path d="M1600.55,680.48c24.53-1.1,31.84,2,22.53,11.17q-3.12,3.14-6.23,6.35c-9.19,9.41-27.6,19.35-54.81,29.93l-4.83,1.44c-17.67,3.31-24.16-1.86-19.28-14.56l2.12-3.18C1549.76,696.91,1569.86,686.62,1600.55,680.48Zm244.26-74.23,6.33,2.27c21,8.23,26.84,11.59,17.74,11.25l-3,0c-1.15.23-17.37-2.83-47.77-2.89-30.28.33-74.72,3.65-129.38,25.55-20.54,11.27-40.64,19.67-61,21.56-18.28,1.82-23.18-3.44-14.68-14.89,4.62-4.4,21.8-16.49,53.7-29.58,32-12.59,78.62-26.17,143.58-22.19A237.27,237.27,0,0,1,1844.81,606.25Z"/><path d="M248.06,60l3.12,1C316,100.79,351.52,176,362.57,286.36c8.13,77.94-8.22,171.34-38.57,296,.38,2.29.75,4.58,1.13,6.86C385.47,638.72,420.88,702,436,784.47q2.83,15.3,5.72,30.55c21,110.73,7.55,208.26-33.75,309.13-31.18,29.48-50.32,46.58-58.59,49.63-40.14,15.39-77.8-19.56-111.51-110.36l-1.79-6.56c-3-11.1-5.78-43-6.88-95C166.41,642.52,150.42,396.54,153.27,249,164.27,104.32,199.25,43.26,248.06,60Zm7.62,661c14.29,107,29.1,200.9,42.85,282.58q3.33,2.84,6.67,5.63c54.57-14.49,77.47-74.57,74.8-178.83q-2-9.57-3.88-19.19C365.75,758.69,326.21,729,255.68,720.93ZM232.4,503.37l5.45.36c36.74-100.5,55.93-178.44,50-247.16-7.38-10.52-13.76-16.49-19.13-17.71L263,237.54C236.27,230.79,221.53,319.68,232.4,503.37Z"/><path d="M488.62,355.78l6.84,1.27c10.18,1.76,29.5,35.33,57.59,95.34,20.73,64.57,33.81,121.53,40.07,174.28,12.13,101.45,4.72,208.65-12.35,336.28-16.47,50.51-28.69,79-39.48,82.42l-9,3c-24,8-48.16-18.58-71.93-83A575.81,575.81,0,0,1,442,898.78c-1-4.82-2-9.66-3-14.49C415.69,771,408.7,627.86,430.22,471.38,447.5,388.77,468.68,352.05,488.62,355.78Zm4.64,547.41q5.17,16,10.39,31.77l3.92-.92c28.71-7,35.89-94.17,37.23-257.14q-2.73-27.09-5.17-54.29c-16-81.64-26.09-124.41-32.21-124.87l-11.11-1c-25.9,81.26-31.78,201.35-14,350.31Q487.66,875.26,493.26,903.19Z"/><path d="M697.87,371.43l7.17,1.49c10.66,2.09,29.17,32.64,55,86.28,17.69,57.29,27.48,107.42,30.32,154,5.55,89.48-10.24,184.47-36.85,301.43-20.46,46.6-34.85,73.42-46.08,77L698,994.59c-25,8.21-47.85-15.65-68.15-74.75a465.15,465.15,0,0,1-14.68-61q-1.11-6.65-2.18-13.3c-16.88-103.86-15.6-235.16,16.34-374.27C652.38,398.09,677,367.1,697.87,371.43ZM667.71,862q4.29,14.54,8.59,28.92l4.09-.92c29.9-7,43.39-87.52,56-232.9q-1-24.18-1.73-48.36C723.38,536,715.37,498,709,497.33l-11.63-1.23c-32.4,71.06-45.9,178.94-37.22,314.74Q663.8,836.51,667.71,862Z"/><path d="M905.76,434.35l6.85,1.32c10.18,1.85,26.49,26.29,48.18,68.82,13.65,45.31,19.81,84.91,19.4,121.93-.71,71.2-22.74,147.77-56.5,245.47-22.75,39.28-38.23,62.37-49.05,65.73l-9.08,2.91c-24.11,7.84-43.82-11.47-59-60.29a333.52,333.52,0,0,1-9.83-50.47q-.6-5.49-1.19-11c-9.19-85.86,0-194.26,38.5-305.8C860.36,454.4,885.75,430.56,905.76,434.35ZM846.38,831q3.06,11.93,6.14,23.75l3.93-.89c28.69-6.54,47.4-74.36,69.12-191.74q.66-19.46,1.51-38.85c-6.11-58.21-11.66-88.43-17.76-89l-11.13-1C862.77,589.72,843.47,677,842.64,788.89Q844.43,810,846.38,831Z"/><path d="M1076.8,469.9c26.06,5.33,34.93,37.94,29,99,1.26,46,3.8,68.52,6.9,68.49,47.86-84.35,83.28-119.63,94.06-128.46,9.78-3,17.85-3.8,24.09-2.66,16.45,3.1,24.4,17.13,24,41.76C1209.08,684.47,1195,783.46,1191.45,814c-6,17.23-13.34,27.56-22.35,30.4l-3.77,1.18c-14.57,4.73-21.16-10.15-19-44.15q11-82.46,26.93-159.78-17.4,21.9-33.74,45.77c-13,19.51-25.61,30.7-38.62,32.2l-2.07.24c-25.2,3.22-40.56-30-44.32-101.6.48-9.28-.67-14-3.49-14.06-33.16,85.75-54.65,180.06-66.17,276.46-4.78,9.74-9.4,15.42-14,16.84l-5.52,1.69c-13.76.61-21.47-9.15-22.82-29.11-.27-4.2-.55-8.41-.81-12.61,9.59-105,34.2-225.45,83.56-341.48C1041.28,480.87,1059.07,466.49,1076.8,469.9Z"/><path d="M1366.87,525.78c26.06,5.52,31.1,26.14,16.6,65.1-5.07,29.7-5.92,44.71-2.8,44.65,60.29-55,101.91-71.53,114.24-76.13,10.48-1,18.91-.74,25.16.42,16.47,3.2,22.52,11.52,18.09,25.13-69,73.92-100.45,144.19-109.5,164.22-8.93,12.09-17.73,19.92-26.75,22.71l-3.78,1.17c-14.61,4.69-18.26-5.32-10.45-28.86a984,984,0,0,1,52.91-106q-20.89,13.78-40.83,29.82c-16,13.1-30.08,21.16-43.11,22.6l-2.08.23c-25.28,3.21-35.39-19.82-29.51-68.43,1.74-6.27,1.21-9.43-1.62-9.53-44.75,57.41-78.65,126.21-103.19,199.78-6,7.68-11.18,12.33-15.82,13.72l-5.53,1.67c-13.29,1.43-19.41-5.6-18.08-20.76l.87-9.55c23.14-80.24,62.62-169.45,126.87-244.91C1329.16,530.17,1349.1,522.32,1366.87,525.78Z"/><path d="M1466.92,705.67c19.37-.7,26,3.65,20.33,14.08-1.26,2.36-2.53,4.73-3.79,7.12-5.59,10.5-19,20.22-39.94,29.34l-3.8,1.14c-14.23,2-20.3-3.69-18-16.67.43-1.08.86-2.16,1.28-3.23Q1431.79,715.06,1466.92,705.67ZM1632.44,570l4.76,1.07c15.93,4.7,20.87,9,15,13.62l-1.94,1.54c-.91,2.83-46.35,11.12-121.35,72.68-13.32,15.85-27.55,25.81-43.24,28-14.1,2-18.74-3.8-13.84-17,6.13-8.79,45.41-60.66,135.41-100.11C1618.16,568.43,1626.63,568.69,1632.44,570Z"/><path d="M1595.55,674.48c24.53-1.1,31.84,2,22.53,11.17q-3.12,3.14-6.23,6.35c-9.19,9.41-27.6,19.35-54.81,29.93l-4.83,1.44c-17.67,3.31-24.16-1.86-19.28-14.56l2.12-3.18C1544.76,690.91,1564.86,680.62,1595.55,674.48Zm244.26-74.23,6.33,2.27c21,8.23,26.84,11.59,17.74,11.25l-3,0c-1.15.23-17.37-2.83-47.77-2.89-30.28.33-74.72,3.65-129.38,25.55-20.54,11.27-40.64,19.67-61,21.56-18.28,1.82-23.18-3.44-14.68-14.89,4.62-4.4,21.8-16.49,53.7-29.58,32-12.59,78.62-26.17,143.58-22.19A237.27,237.27,0,0,1,1839.81,600.25Z"/><path d="M243.06,54l3.12,1C311,94.79,346.52,170,357.57,280.36c8.13,77.94-8.22,171.34-38.57,296,.38,2.29.75,4.58,1.13,6.86C380.47,632.72,415.88,696,431,778.47q2.83,15.3,5.72,30.55c21,110.73,7.55,208.26-33.75,309.13-31.18,29.48-50.32,46.58-58.59,49.63-40.14,15.39-77.8-19.56-111.51-110.36l-1.79-6.56c-3-11.1-5.78-43-6.88-95C161.41,636.52,145.42,390.54,148.27,243,159.27,98.32,194.25,37.26,243.06,54Zm7.62,661c14.29,107,29.1,200.9,42.85,282.58q3.33,2.84,6.67,5.63c54.57-14.49,77.47-74.57,74.8-178.83q-2-9.57-3.88-19.19C360.75,752.69,321.21,723,250.68,714.93ZM227.4,497.37l5.45.36c36.74-100.5,55.93-178.44,50-247.16-7.38-10.52-13.76-16.49-19.13-17.71L258,231.54C231.27,224.79,216.53,313.68,227.4,497.37Z"/><path d="M483.62,349.78l6.84,1.27c10.18,1.76,29.5,35.33,57.59,95.34,20.73,64.57,33.81,121.53,40.07,174.28,12.13,101.45,4.72,208.65-12.35,336.28-16.47,50.51-28.69,79-39.48,82.42l-9,3c-24,8-48.16-18.58-71.93-83A575.81,575.81,0,0,1,437,892.78c-1-4.82-2-9.66-3-14.49C410.69,765,403.7,621.86,425.22,465.38,442.5,382.77,463.68,346.05,483.62,349.78Zm4.64,547.41q5.17,16,10.39,31.77l3.92-.92c28.71-7,35.89-94.17,37.23-257.14q-2.73-27.09-5.17-54.29c-16-81.64-26.09-124.41-32.21-124.87l-11.11-1c-25.9,81.26-31.78,201.35-14,350.31Q482.66,869.26,488.26,897.19Z"/><path d="M692.87,365.43l7.17,1.49c10.66,2.09,29.17,32.64,55,86.28,17.69,57.29,27.48,107.42,30.32,154,5.55,89.48-10.24,184.47-36.85,301.43-20.46,46.6-34.85,73.42-46.08,77L693,988.59c-25,8.21-47.85-15.65-68.15-74.75a465.15,465.15,0,0,1-14.68-61q-1.11-6.65-2.18-13.3c-16.88-103.86-15.6-235.16,16.34-374.27C647.38,392.09,672,361.1,692.87,365.43ZM662.71,856q4.29,14.54,8.59,28.92l4.09-.92c29.9-7,43.39-87.52,56-232.9q-1-24.18-1.73-48.36C718.38,530,710.37,492,704,491.33l-11.63-1.23c-32.4,71.06-45.9,178.94-37.22,314.74Q658.8,830.51,662.71,856Z"/><path d="M900.76,428.35l6.85,1.32c10.18,1.85,26.49,26.29,48.18,68.82,13.65,45.31,19.81,84.91,19.4,121.93-.71,71.2-22.74,147.77-56.5,245.47-22.75,39.28-38.23,62.37-49.05,65.73l-9.08,2.91c-24.11,7.84-43.82-11.47-59-60.29a333.52,333.52,0,0,1-9.83-50.47q-.6-5.49-1.19-11c-9.19-85.86,0-194.26,38.5-305.8C855.36,448.4,880.75,424.56,900.76,428.35ZM841.38,825q3.06,11.93,6.14,23.75l3.93-.89c28.69-6.54,47.4-74.36,69.12-191.74q.66-19.46,1.51-38.85c-6.11-58.21-11.66-88.43-17.76-89l-11.13-1C857.77,583.72,838.47,671,837.64,782.89Q839.43,804,841.38,825Z"/><path d="M1071.8,463.9c26.06,5.33,34.93,37.94,29,99,1.26,46,3.8,68.52,6.9,68.49,47.86-84.35,83.28-119.63,94.06-128.46,9.78-3,17.85-3.8,24.09-2.66,16.45,3.1,24.4,17.13,24,41.76C1204.08,678.47,1190,777.46,1186.45,808c-6,17.23-13.34,27.56-22.35,30.4l-3.77,1.18c-14.57,4.73-21.16-10.15-19-44.15q11-82.46,26.93-159.78-17.4,21.9-33.74,45.77c-13,19.51-25.61,30.7-38.62,32.2l-2.07.24c-25.2,3.22-40.56-30-44.32-101.6.48-9.28-.67-14-3.49-14.06-33.16,85.75-54.65,180.06-66.17,276.46-4.78,9.74-9.4,15.42-14,16.84l-5.52,1.69c-13.76.61-21.47-9.15-22.82-29.11-.27-4.2-.55-8.41-.81-12.61,9.59-105,34.2-225.45,83.56-341.48C1036.28,474.87,1054.07,460.49,1071.8,463.9Z"/><path d="M1361.87,519.78c26.06,5.52,31.1,26.14,16.6,65.1-5.07,29.7-5.92,44.71-2.8,44.65,60.29-55,101.91-71.53,114.24-76.13,10.48-1,18.91-.74,25.16.42,16.47,3.2,22.52,11.52,18.09,25.13-69,73.92-100.45,144.19-109.5,164.22-8.93,12.09-17.73,19.92-26.75,22.71l-3.78,1.17c-14.61,4.69-18.26-5.32-10.45-28.86a984,984,0,0,1,52.91-106q-20.89,13.78-40.83,29.82c-16,13.1-30.08,21.16-43.11,22.6l-2.08.23c-25.28,3.21-35.39-19.82-29.51-68.43,1.74-6.27,1.21-9.43-1.62-9.53-44.75,57.41-78.65,126.21-103.19,199.78-6,7.68-11.18,12.33-15.82,13.72l-5.53,1.67c-13.29,1.43-19.41-5.6-18.08-20.76l.87-9.55c23.14-80.24,62.62-169.45,126.87-244.91C1324.16,524.17,1344.1,516.32,1361.87,519.78Z"/><path d="M1461.92,699.67c19.37-.7,26,3.65,20.33,14.08-1.26,2.36-2.53,4.73-3.79,7.12-5.59,10.5-19,20.22-39.94,29.34l-3.8,1.14c-14.23,2-20.3-3.69-18-16.67.43-1.08.86-2.16,1.28-3.23Q1426.79,709.06,1461.92,699.67ZM1627.44,564l4.76,1.07c15.93,4.7,20.87,9,15,13.62l-1.94,1.54c-.91,2.83-46.35,11.12-121.35,72.68-13.32,15.85-27.55,25.81-43.24,28-14.1,2-18.74-3.8-13.84-17,6.13-8.79,45.41-60.66,135.41-100.11C1613.16,562.43,1621.63,562.69,1627.44,564Z"/><path d="M1590.55,668.48c24.53-1.1,31.84,2,22.53,11.17q-3.12,3.14-6.23,6.35c-9.19,9.41-27.6,19.35-54.81,29.93l-4.83,1.44c-17.67,3.31-24.16-1.86-19.28-14.56l2.12-3.18C1539.76,684.91,1559.86,674.62,1590.55,668.48Zm244.26-74.23,6.33,2.27c21,8.23,26.84,11.59,17.74,11.25l-3,0c-1.15.23-17.37-2.83-47.77-2.89-30.28.33-74.72,3.65-129.38,25.55-20.54,11.27-40.64,19.67-61,21.56-18.28,1.82-23.18-3.44-14.68-14.89,4.62-4.4,21.8-16.49,53.7-29.58,32-12.59,78.62-26.17,143.58-22.19A237.27,237.27,0,0,1,1834.81,594.25Z"/><path d="M261.06,72l3.12,1C329,112.79,364.52,188,375.57,298.36c8.13,77.94-8.22,171.34-38.57,296,.38,2.29.75,4.58,1.13,6.86C398.47,650.72,433.88,714,449,796.47q2.83,15.3,5.72,30.55c21,110.73,7.55,208.26-33.75,309.13-31.18,29.48-50.32,46.58-58.59,49.63-40.14,15.39-77.8-19.56-111.51-110.36l-1.79-6.56c-3-11.1-5.78-43-6.88-95C179.41,654.52,163.42,408.54,166.27,261,177.27,116.32,212.25,55.26,261.06,72Zm7.62,661c14.29,107,29.1,200.9,42.85,282.58q3.33,2.84,6.67,5.63c54.57-14.49,77.47-74.57,74.8-178.83q-2-9.57-3.88-19.19C378.75,770.69,339.21,741,268.68,732.93ZM245.4,515.37l5.45.36c36.74-100.5,55.93-178.44,50-247.16-7.38-10.52-13.76-16.49-19.13-17.71L276,249.54C249.27,242.79,234.53,331.68,245.4,515.37Z" fill="url(#a)"/><path d="M501.62,367.78l6.84,1.27c10.18,1.76,29.5,35.33,57.59,95.34,20.73,64.57,33.81,121.53,40.07,174.28,12.13,101.45,4.72,208.65-12.35,336.28-16.47,50.51-28.69,79-39.48,82.42l-9,3c-24,8-48.16-18.58-71.93-83A575.81,575.81,0,0,1,455,910.78c-1-4.82-2-9.66-3-14.49C428.69,783,421.7,639.86,443.22,483.38,460.5,400.77,481.68,364.05,501.62,367.78Zm4.64,547.41q5.17,16,10.39,31.77l3.92-.92c28.71-7,35.89-94.17,37.23-257.14q-2.73-27.09-5.17-54.29c-16-81.64-26.09-124.41-32.21-124.87l-11.11-1c-25.9,81.26-31.78,201.35-14,350.31Q500.66,887.26,506.26,915.19Z" fill="url(#a)"/><path d="M710.87,383.43l7.17,1.49c10.66,2.09,29.17,32.64,55,86.28,17.69,57.29,27.48,107.42,30.32,154,5.55,89.48-10.24,184.47-36.85,301.43-20.46,46.6-34.85,73.42-46.08,77l-9.43,3.05c-25,8.21-47.85-15.65-68.15-74.75a465.15,465.15,0,0,1-14.68-61q-1.11-6.65-2.18-13.3c-16.88-103.86-15.6-235.16,16.34-374.27C665.38,410.09,690,379.1,710.87,383.43ZM680.71,874q4.29,14.54,8.59,28.92l4.09-.92c29.9-7,43.39-87.52,56-232.9q-1-24.18-1.73-48.36C736.38,548,728.37,510,722,509.33l-11.63-1.23c-32.4,71.06-45.9,178.94-37.22,314.74Q676.8,848.51,680.71,874Z" fill="url(#a)"/><path d="M918.76,446.35l6.85,1.32c10.18,1.85,26.49,26.29,48.18,68.82,13.65,45.31,19.81,84.91,19.4,121.93-.71,71.2-22.74,147.77-56.5,245.47-22.75,39.28-38.23,62.37-49.05,65.73l-9.08,2.91c-24.11,7.84-43.82-11.47-59-60.29a333.52,333.52,0,0,1-9.83-50.47q-.6-5.49-1.19-11c-9.19-85.86,0-194.26,38.5-305.8C873.36,466.4,898.75,442.56,918.76,446.35ZM859.38,843q3.06,11.93,6.14,23.75l3.93-.89c28.69-6.54,47.4-74.36,69.12-191.74q.66-19.46,1.51-38.85c-6.11-58.21-11.66-88.43-17.76-89l-11.13-1C875.77,601.72,856.47,689,855.64,800.89Q857.43,822,859.38,843Z" fill="url(#a)"/><path d="M1089.8,481.9c26.06,5.33,34.93,37.94,29,99,1.26,46,3.8,68.52,6.9,68.49,47.86-84.35,83.28-119.63,94.06-128.46,9.78-3,17.85-3.8,24.09-2.66,16.45,3.1,24.4,17.13,24,41.76C1222.08,696.47,1208,795.46,1204.45,826c-6,17.23-13.34,27.56-22.35,30.4l-3.77,1.18c-14.57,4.73-21.16-10.15-19-44.15q11-82.46,26.93-159.78-17.4,21.9-33.74,45.77c-13,19.51-25.61,30.7-38.62,32.2l-2.07.24c-25.2,3.22-40.56-30-44.32-101.6.48-9.28-.67-14-3.49-14.06-33.16,85.75-54.65,180.06-66.17,276.46-4.78,9.74-9.4,15.42-14,16.84l-5.52,1.69c-13.76.61-21.47-9.15-22.82-29.11-.27-4.2-.55-8.41-.81-12.61,9.59-105,34.2-225.45,83.56-341.48C1054.28,492.87,1072.07,478.49,1089.8,481.9Z" fill="url(#a)"/><path d="M1379.87,537.78c26.06,5.52,31.1,26.14,16.6,65.1-5.07,29.7-5.92,44.71-2.8,44.65,60.29-55,101.91-71.53,114.24-76.13,10.48-1,18.91-.74,25.16.42,16.47,3.2,22.52,11.52,18.09,25.13-69,73.92-100.45,144.19-109.5,164.22-8.93,12.09-17.73,19.92-26.75,22.71l-3.78,1.17c-14.61,4.69-18.26-5.32-10.45-28.86a984,984,0,0,1,52.91-106q-20.89,13.78-40.83,29.82c-16,13.1-30.08,21.16-43.11,22.6l-2.08.23c-25.28,3.21-35.39-19.82-29.51-68.43,1.74-6.27,1.21-9.43-1.62-9.53-44.75,57.41-78.65,126.21-103.19,199.78-6,7.68-11.18,12.33-15.82,13.72l-5.53,1.67c-13.29,1.43-19.41-5.6-18.08-20.76l.87-9.55c23.14-80.24,62.62-169.45,126.87-244.91C1342.16,542.17,1362.1,534.32,1379.87,537.78Z" fill="url(#a)"/><path d="M1479.92,717.67c19.37-.7,26,3.65,20.33,14.08-1.26,2.36-2.53,4.73-3.79,7.12-5.59,10.5-19,20.22-39.94,29.34l-3.8,1.14c-14.23,2-20.3-3.69-18-16.67.43-1.08.86-2.16,1.28-3.23Q1444.79,727.06,1479.92,717.67ZM1645.44,582l4.76,1.07c15.93,4.7,20.87,9,15,13.62l-1.94,1.54c-.91,2.83-46.35,11.12-121.35,72.68-13.32,15.85-27.55,25.81-43.24,28-14.1,2-18.74-3.8-13.84-17,6.13-8.79,45.41-60.66,135.41-100.11C1631.16,580.43,1639.63,580.69,1645.44,582Z" fill="url(#a)"/><path d="M1608.55,686.48c24.53-1.1,31.84,2,22.53,11.17q-3.12,3.14-6.23,6.35c-9.19,9.41-27.6,19.35-54.81,29.93l-4.83,1.44c-17.67,3.31-24.16-1.86-19.28-14.56l2.12-3.18C1557.76,702.91,1577.86,692.62,1608.55,686.48Zm244.26-74.23,6.33,2.27c21,8.23,26.84,11.59,17.74,11.25l-3,0c-1.15.23-17.37-2.83-47.77-2.89-30.28.33-74.72,3.65-129.38,25.55-20.54,11.27-40.64,19.67-61,21.56-18.28,1.82-23.18-3.44-14.68-14.89,4.62-4.4,21.8-16.49,53.7-29.58,32-12.59,78.62-26.17,143.58-22.19A237.27,237.27,0,0,1,1852.81,612.25Z" fill="url(#a)"/><path d="M255.06,66l3.12,1C323,106.79,358.52,182,369.57,292.36c8.13,77.94-8.22,171.34-38.57,296,.38,2.29.75,4.58,1.13,6.86C392.47,644.72,427.88,708,443,790.47q2.83,15.3,5.72,30.55c21,110.73,7.55,208.26-33.75,309.13-31.18,29.48-50.32,46.58-58.59,49.63-40.14,15.39-77.8-19.56-111.51-110.36l-1.79-6.56c-3-11.1-5.78-43-6.88-95C173.41,648.52,157.42,402.54,160.27,255,171.27,110.32,206.25,49.26,255.06,66Zm7.62,661c14.29,107,29.1,200.9,42.85,282.58q3.33,2.84,6.67,5.63c54.57-14.49,77.47-74.57,74.8-178.83q-2-9.57-3.88-19.19C372.75,764.69,333.21,735,262.68,726.93ZM239.4,509.37l5.45.36c36.74-100.5,55.93-178.44,50-247.16-7.38-10.52-13.76-16.49-19.13-17.71L270,243.54C243.27,236.79,228.53,325.68,239.4,509.37Z" fill="url(#i)"/><path d="M495.62,361.78l6.84,1.27c10.18,1.76,29.5,35.33,57.59,95.34,20.73,64.57,33.81,121.53,40.07,174.28,12.13,101.45,4.72,208.65-12.35,336.28-16.47,50.51-28.69,79-39.48,82.42l-9,3c-24,8-48.16-18.58-71.93-83A575.81,575.81,0,0,1,449,904.78c-1-4.82-2-9.66-3-14.49C422.69,777,415.7,633.86,437.22,477.38,454.5,394.77,475.68,358.05,495.62,361.78Zm4.64,547.41q5.17,16,10.39,31.77l3.92-.92c28.71-7,35.89-94.17,37.23-257.14q-2.73-27.09-5.17-54.29c-16-81.64-26.09-124.41-32.21-124.87l-11.11-1c-25.9,81.26-31.78,201.35-14,350.31Q494.66,881.26,500.26,909.19Z" fill="url(#i)"/><path d="M704.87,377.43l7.17,1.49c10.66,2.09,29.17,32.64,55,86.28,17.69,57.29,27.48,107.42,30.32,154,5.55,89.48-10.24,184.47-36.85,301.43-20.46,46.6-34.85,73.42-46.08,77l-9.43,3.05c-25,8.21-47.85-15.65-68.15-74.75a465.15,465.15,0,0,1-14.68-61q-1.11-6.65-2.18-13.3c-16.88-103.86-15.6-235.16,16.34-374.27C659.38,404.09,684,373.1,704.87,377.43ZM674.71,868q4.29,14.54,8.59,28.92l4.09-.92c29.9-7,43.39-87.52,56-232.9q-1-24.18-1.73-48.36C730.38,542,722.37,504,716,503.33l-11.63-1.23c-32.4,71.06-45.9,178.94-37.22,314.74Q670.8,842.51,674.71,868Z" fill="url(#i)"/><path d="M912.76,440.35l6.85,1.32c10.18,1.85,26.49,26.29,48.18,68.82,13.65,45.31,19.81,84.91,19.4,121.93-.71,71.2-22.74,147.77-56.5,245.47-22.75,39.28-38.23,62.37-49.05,65.73l-9.08,2.91c-24.11,7.84-43.82-11.47-59-60.29a333.52,333.52,0,0,1-9.83-50.47q-.6-5.49-1.19-11c-9.19-85.86,0-194.26,38.5-305.8C867.36,460.4,892.75,436.56,912.76,440.35ZM853.38,837q3.06,11.93,6.14,23.75l3.93-.89c28.69-6.54,47.4-74.36,69.12-191.74q.66-19.46,1.51-38.85c-6.11-58.21-11.66-88.43-17.76-89l-11.13-1C869.77,595.72,850.47,683,849.64,794.89Q851.43,816,853.38,837Z" fill="url(#i)"/><path d="M1083.8,475.9c26.06,5.33,34.93,37.94,29,99,1.26,46,3.8,68.52,6.9,68.49,47.86-84.35,83.28-119.63,94.06-128.46,9.78-3,17.85-3.8,24.09-2.66,16.45,3.1,24.4,17.13,24,41.76C1216.08,690.47,1202,789.46,1198.45,820c-6,17.23-13.34,27.56-22.35,30.4l-3.77,1.18c-14.57,4.73-21.16-10.15-19-44.15q11-82.46,26.93-159.78-17.4,21.9-33.74,45.77c-13,19.51-25.61,30.7-38.62,32.2l-2.07.24c-25.2,3.22-40.56-30-44.32-101.6.48-9.28-.67-14-3.49-14.06-33.16,85.75-54.65,180.06-66.17,276.46-4.78,9.74-9.4,15.42-14,16.84l-5.52,1.69c-13.76.61-21.47-9.15-22.82-29.11-.27-4.2-.55-8.41-.81-12.61,9.59-105,34.2-225.45,83.56-341.48C1048.28,486.87,1066.07,472.49,1083.8,475.9Z" fill="url(#i)"/><path d="M1373.87,531.78c26.06,5.52,31.1,26.14,16.6,65.1-5.07,29.7-5.92,44.71-2.8,44.65,60.29-55,101.91-71.53,114.24-76.13,10.48-1,18.91-.74,25.16.42,16.47,3.2,22.52,11.52,18.09,25.13-69,73.92-100.45,144.19-109.5,164.22-8.93,12.09-17.73,19.92-26.75,22.71l-3.78,1.17c-14.61,4.69-18.26-5.32-10.45-28.86a984,984,0,0,1,52.91-106q-20.89,13.78-40.83,29.82c-16,13.1-30.08,21.16-43.11,22.6l-2.08.23c-25.28,3.21-35.39-19.82-29.51-68.43,1.74-6.27,1.21-9.43-1.62-9.53-44.75,57.41-78.65,126.21-103.19,199.78-6,7.68-11.18,12.33-15.82,13.72l-5.53,1.67c-13.29,1.43-19.41-5.6-18.08-20.76l.87-9.55c23.14-80.24,62.62-169.45,126.87-244.91C1336.16,536.17,1356.1,528.32,1373.87,531.78Z" fill="url(#i)"/><path d="M1473.92,711.67c19.37-.7,26,3.65,20.33,14.08-1.26,2.36-2.53,4.73-3.79,7.12-5.59,10.5-19,20.22-39.94,29.34l-3.8,1.14c-14.23,2-20.3-3.69-18-16.67.43-1.08.86-2.16,1.28-3.23Q1438.79,721.06,1473.92,711.67ZM1639.44,576l4.76,1.07c15.93,4.7,20.87,9,15,13.62l-1.94,1.54c-.91,2.83-46.35,11.12-121.35,72.68-13.32,15.85-27.55,25.81-43.24,28-14.1,2-18.74-3.8-13.84-17,6.13-8.79,45.41-60.66,135.41-100.11C1625.16,574.43,1633.63,574.69,1639.44,576Z" fill="url(#i)"/><path d="M1602.55,680.48c24.53-1.1,31.84,2,22.53,11.17q-3.12,3.14-6.23,6.35c-9.19,9.41-27.6,19.35-54.81,29.93l-4.83,1.44c-17.67,3.31-24.16-1.86-19.28-14.56l2.12-3.18C1551.76,696.91,1571.86,686.62,1602.55,680.48Zm244.26-74.23,6.33,2.27c21,8.23,26.84,11.59,17.74,11.25l-3,0c-1.15.23-17.37-2.83-47.77-2.89-30.28.33-74.72,3.65-129.38,25.55-20.54,11.27-40.64,19.67-61,21.56-18.28,1.82-23.18-3.44-14.68-14.89,4.62-4.4,21.8-16.49,53.7-29.58,32-12.59,78.62-26.17,143.58-22.19A237.27,237.27,0,0,1,1846.81,606.25Z" fill="url(#i)"/><path d="M249.06,60l3.12,1C317,100.79,352.52,176,363.57,286.36c8.13,77.94-8.22,171.34-38.57,296,.38,2.29.75,4.58,1.13,6.86C386.47,638.72,421.88,702,437,784.47q2.83,15.3,5.72,30.55c21,110.73,7.55,208.26-33.75,309.13-31.18,29.48-50.32,46.58-58.59,49.63-40.14,15.39-77.8-19.56-111.51-110.36l-1.79-6.56c-3-11.1-5.78-43-6.88-95C167.41,642.52,151.42,396.54,154.27,249,165.27,104.32,200.25,43.26,249.06,60Zm7.62,661c14.29,107,29.1,200.9,42.85,282.58q3.33,2.84,6.67,5.63c54.57-14.49,77.47-74.57,74.8-178.83q-2-9.57-3.88-19.19C366.75,758.69,327.21,729,256.68,720.93ZM233.4,503.37l5.45.36c36.74-100.5,55.93-178.44,50-247.16-7.38-10.52-13.76-16.49-19.13-17.71L264,237.54C237.27,230.79,222.53,319.68,233.4,503.37Z" fill="url(#q)"/><path d="M489.62,355.78l6.84,1.27c10.18,1.76,29.5,35.33,57.59,95.34,20.73,64.57,33.81,121.53,40.07,174.28,12.13,101.45,4.72,208.65-12.35,336.28-16.47,50.51-28.69,79-39.48,82.42l-9,3c-24,8-48.16-18.58-71.93-83A575.81,575.81,0,0,1,443,898.78c-1-4.82-2-9.66-3-14.49C416.69,771,409.7,627.86,431.22,471.38,448.5,388.77,469.68,352.05,489.62,355.78Zm4.64,547.41q5.17,16,10.39,31.77l3.92-.92c28.71-7,35.89-94.17,37.23-257.14q-2.73-27.09-5.17-54.29c-16-81.64-26.09-124.41-32.21-124.87l-11.11-1c-25.9,81.26-31.78,201.35-14,350.31Q488.66,875.26,494.26,903.19Z" fill="url(#q)"/><path d="M698.87,371.43l7.17,1.49c10.66,2.09,29.17,32.64,55,86.28,17.69,57.29,27.48,107.42,30.32,154,5.55,89.48-10.24,184.47-36.85,301.43-20.46,46.6-34.85,73.42-46.08,77L699,994.59c-25,8.21-47.85-15.65-68.15-74.75a465.15,465.15,0,0,1-14.68-61q-1.11-6.65-2.18-13.3c-16.88-103.86-15.6-235.16,16.34-374.27C653.38,398.09,678,367.1,698.87,371.43ZM668.71,862q4.29,14.54,8.59,28.92l4.09-.92c29.9-7,43.39-87.52,56-232.9q-1-24.18-1.73-48.36C724.38,536,716.37,498,710,497.33l-11.63-1.23c-32.4,71.06-45.9,178.94-37.22,314.74Q664.8,836.51,668.71,862Z" fill="url(#q)"/><path d="M906.76,434.35l6.85,1.32c10.18,1.85,26.49,26.29,48.18,68.82,13.65,45.31,19.81,84.91,19.4,121.93-.71,71.2-22.74,147.77-56.5,245.47-22.75,39.28-38.23,62.37-49.05,65.73l-9.08,2.91c-24.11,7.84-43.82-11.47-59-60.29a333.52,333.52,0,0,1-9.83-50.47q-.6-5.49-1.19-11c-9.19-85.86,0-194.26,38.5-305.8C861.36,454.4,886.75,430.56,906.76,434.35ZM847.38,831q3.06,11.93,6.14,23.75l3.93-.89c28.69-6.54,47.4-74.36,69.12-191.74q.66-19.46,1.51-38.85c-6.11-58.21-11.66-88.43-17.76-89l-11.13-1C863.77,589.72,844.47,677,843.64,788.89Q845.43,810,847.38,831Z" fill="url(#q)"/><path d="M1077.8,469.9c26.06,5.33,34.93,37.94,29,99,1.26,46,3.8,68.52,6.9,68.49,47.86-84.35,83.28-119.63,94.06-128.46,9.78-3,17.85-3.8,24.09-2.66,16.45,3.1,24.4,17.13,24,41.76C1210.08,684.47,1196,783.46,1192.45,814c-6,17.23-13.34,27.56-22.35,30.4l-3.77,1.18c-14.57,4.73-21.16-10.15-19-44.15q11-82.46,26.93-159.78-17.4,21.9-33.74,45.77c-13,19.51-25.61,30.7-38.62,32.2l-2.07.24c-25.2,3.22-40.56-30-44.32-101.6.48-9.28-.67-14-3.49-14.06-33.16,85.75-54.65,180.06-66.17,276.46-4.78,9.74-9.4,15.42-14,16.84l-5.52,1.69c-13.76.61-21.47-9.15-22.82-29.11-.27-4.2-.55-8.41-.81-12.61,9.59-105,34.2-225.45,83.56-341.48C1042.28,480.87,1060.07,466.49,1077.8,469.9Z" fill="url(#q)"/><path d="M1367.87,525.78c26.06,5.52,31.1,26.14,16.6,65.1-5.07,29.7-5.92,44.71-2.8,44.65,60.29-55,101.91-71.53,114.24-76.13,10.48-1,18.91-.74,25.16.42,16.47,3.2,22.52,11.52,18.09,25.13-69,73.92-100.45,144.19-109.5,164.22-8.93,12.09-17.73,19.92-26.75,22.71l-3.78,1.17c-14.61,4.69-18.26-5.32-10.45-28.86a984,984,0,0,1,52.91-106q-20.89,13.78-40.83,29.82c-16,13.1-30.08,21.16-43.11,22.6l-2.08.23c-25.28,3.21-35.39-19.82-29.51-68.43,1.74-6.27,1.21-9.43-1.62-9.53-44.75,57.41-78.65,126.21-103.19,199.78-6,7.68-11.18,12.33-15.82,13.72l-5.53,1.67c-13.29,1.43-19.41-5.6-18.08-20.76l.87-9.55c23.14-80.24,62.62-169.45,126.87-244.91C1330.16,530.17,1350.1,522.32,1367.87,525.78Z" fill="url(#q)"/><path d="M1467.92,705.67c19.37-.7,26,3.65,20.33,14.08-1.26,2.36-2.53,4.73-3.79,7.12-5.59,10.5-19,20.22-39.94,29.34l-3.8,1.14c-14.23,2-20.3-3.69-18-16.67.43-1.08.86-2.16,1.28-3.23Q1432.79,715.06,1467.92,705.67ZM1633.44,570l4.76,1.07c15.93,4.7,20.87,9,15,13.62l-1.94,1.54c-.91,2.83-46.35,11.12-121.35,72.68-13.32,15.85-27.55,25.81-43.24,28-14.1,2-18.74-3.8-13.84-17,6.13-8.79,45.41-60.66,135.41-100.11C1619.16,568.43,1627.63,568.69,1633.44,570Z" fill="url(#q)"/><path d="M1596.55,674.48c24.53-1.1,31.84,2,22.53,11.17q-3.12,3.14-6.23,6.35c-9.19,9.41-27.6,19.35-54.81,29.93l-4.83,1.44c-17.67,3.31-24.16-1.86-19.28-14.56l2.12-3.18C1545.76,690.91,1565.86,680.62,1596.55,674.48Zm244.26-74.23,6.33,2.27c21,8.23,26.84,11.59,17.74,11.25l-3,0c-1.15.23-17.37-2.83-47.77-2.89-30.28.33-74.72,3.65-129.38,25.55-20.54,11.27-40.64,19.67-61,21.56-18.28,1.82-23.18-3.44-14.68-14.89,4.62-4.4,21.8-16.49,53.7-29.58,32-12.59,78.62-26.17,143.58-22.19A237.27,237.27,0,0,1,1840.81,600.25Z" fill="url(#q)"/><path d="M243.06,54l3.12,1C311,94.79,346.52,170,357.57,280.36c8.13,77.94-8.22,171.34-38.57,296,.38,2.29.75,4.58,1.13,6.86C380.47,632.72,415.88,696,431,778.47q2.83,15.3,5.72,30.55c21,110.73,7.55,208.26-33.75,309.13-31.18,29.48-50.32,46.58-58.59,49.63-40.14,15.39-77.8-19.56-111.51-110.36l-1.79-6.56c-3-11.1-5.78-43-6.88-95C161.41,636.52,145.42,390.54,148.27,243,159.27,98.32,194.25,37.26,243.06,54Zm7.62,661c14.29,107,29.1,200.9,42.85,282.58q3.33,2.84,6.67,5.63c54.57-14.49,77.47-74.57,74.8-178.83q-2-9.57-3.88-19.19C360.75,752.69,321.21,723,250.68,714.93ZM227.4,497.37l5.45.36c36.74-100.5,55.93-178.44,50-247.16-7.38-10.52-13.76-16.49-19.13-17.71L258,231.54C231.27,224.79,216.53,313.68,227.4,497.37Z" fill="url(#y)"/><path d="M483.62,349.78l6.84,1.27c10.18,1.76,29.5,35.33,57.59,95.34,20.73,64.57,33.81,121.53,40.07,174.28,12.13,101.45,4.72,208.65-12.35,336.28-16.47,50.51-28.69,79-39.48,82.42l-9,3c-24,8-48.16-18.58-71.93-83A575.81,575.81,0,0,1,437,892.78c-1-4.82-2-9.66-3-14.49C410.69,765,403.7,621.86,425.22,465.38,442.5,382.77,463.68,346.05,483.62,349.78Zm4.64,547.41q5.17,16,10.39,31.77l3.92-.92c28.71-7,35.89-94.17,37.23-257.14q-2.73-27.09-5.17-54.29c-16-81.64-26.09-124.41-32.21-124.87l-11.11-1c-25.9,81.26-31.78,201.35-14,350.31Q482.66,869.26,488.26,897.19Z" fill="url(#y)"/><path d="M692.87,365.43l7.17,1.49c10.66,2.09,29.17,32.64,55,86.28,17.69,57.29,27.48,107.42,30.32,154,5.55,89.48-10.24,184.47-36.85,301.43-20.46,46.6-34.85,73.42-46.08,77L693,988.59c-25,8.21-47.85-15.65-68.15-74.75a465.15,465.15,0,0,1-14.68-61q-1.11-6.65-2.18-13.3c-16.88-103.86-15.6-235.16,16.34-374.27C647.38,392.09,672,361.1,692.87,365.43ZM662.71,856q4.29,14.54,8.59,28.92l4.09-.92c29.9-7,43.39-87.52,56-232.9q-1-24.18-1.73-48.36C718.38,530,710.37,492,704,491.33l-11.63-1.23c-32.4,71.06-45.9,178.94-37.22,314.74Q658.8,830.51,662.71,856Z" fill="url(#y)"/><path d="M900.76,428.35l6.85,1.32c10.18,1.85,26.49,26.29,48.18,68.82,13.65,45.31,19.81,84.91,19.4,121.93-.71,71.2-22.74,147.77-56.5,245.47-22.75,39.28-38.23,62.37-49.05,65.73l-9.08,2.91c-24.11,7.84-43.82-11.47-59-60.29a333.52,333.52,0,0,1-9.83-50.47q-.6-5.49-1.19-11c-9.19-85.86,0-194.26,38.5-305.8C855.36,448.4,880.75,424.56,900.76,428.35ZM841.38,825q3.06,11.93,6.14,23.75l3.93-.89c28.69-6.54,47.4-74.36,69.12-191.74q.66-19.46,1.51-38.85c-6.11-58.21-11.66-88.43-17.76-89l-11.13-1C857.77,583.72,838.47,671,837.64,782.89Q839.43,804,841.38,825Z" fill="url(#y)"/><path d="M1071.8,463.9c26.06,5.33,34.93,37.94,29,99,1.26,46,3.8,68.52,6.9,68.49,47.86-84.35,83.28-119.63,94.06-128.46,9.78-3,17.85-3.8,24.09-2.66,16.45,3.1,24.4,17.13,24,41.76C1204.08,678.47,1190,777.46,1186.45,808c-6,17.23-13.34,27.56-22.35,30.4l-3.77,1.18c-14.57,4.73-21.16-10.15-19-44.15q11-82.46,26.93-159.78-17.4,21.9-33.74,45.77c-13,19.51-25.61,30.7-38.62,32.2l-2.07.24c-25.2,3.22-40.56-30-44.32-101.6.48-9.28-.67-14-3.49-14.06-33.16,85.75-54.65,180.06-66.17,276.46-4.78,9.74-9.4,15.42-14,16.84l-5.52,1.69c-13.76.61-21.47-9.15-22.82-29.11-.27-4.2-.55-8.41-.81-12.61,9.59-105,34.2-225.45,83.56-341.48C1036.28,474.87,1054.07,460.49,1071.8,463.9Z" fill="url(#y)"/><path d="M1361.87,519.78c26.06,5.52,31.1,26.14,16.6,65.1-5.07,29.7-5.92,44.71-2.8,44.65,60.29-55,101.91-71.53,114.24-76.13,10.48-1,18.91-.74,25.16.42,16.47,3.2,22.52,11.52,18.09,25.13-69,73.92-100.45,144.19-109.5,164.22-8.93,12.09-17.73,19.92-26.75,22.71l-3.78,1.17c-14.61,4.69-18.26-5.32-10.45-28.86a984,984,0,0,1,52.91-106q-20.89,13.78-40.83,29.82c-16,13.1-30.08,21.16-43.11,22.6l-2.08.23c-25.28,3.21-35.39-19.82-29.51-68.43,1.74-6.27,1.21-9.43-1.62-9.53-44.75,57.41-78.65,126.21-103.19,199.78-6,7.68-11.18,12.33-15.82,13.72l-5.53,1.67c-13.29,1.43-19.41-5.6-18.08-20.76l.87-9.55c23.14-80.24,62.62-169.45,126.87-244.91C1324.16,524.17,1344.1,516.32,1361.87,519.78Z" fill="url(#y)"/><path d="M1461.92,699.67c19.37-.7,26,3.65,20.33,14.08-1.26,2.36-2.53,4.73-3.79,7.12-5.59,10.5-19,20.22-39.94,29.34l-3.8,1.14c-14.23,2-20.3-3.69-18-16.67.43-1.08.86-2.16,1.28-3.23Q1426.79,709.06,1461.92,699.67ZM1627.44,564l4.76,1.07c15.93,4.7,20.87,9,15,13.62l-1.94,1.54c-.91,2.83-46.35,11.12-121.35,72.68-13.32,15.85-27.55,25.81-43.24,28-14.1,2-18.74-3.8-13.84-17,6.13-8.79,45.41-60.66,135.41-100.11C1613.16,562.43,1621.63,562.69,1627.44,564Z" fill="url(#y)"/><path d="M1590.55,668.48c24.53-1.1,31.84,2,22.53,11.17q-3.12,3.14-6.23,6.35c-9.19,9.41-27.6,19.35-54.81,29.93l-4.83,1.44c-17.67,3.31-24.16-1.86-19.28-14.56l2.12-3.18C1539.76,684.91,1559.86,674.62,1590.55,668.48Zm244.26-74.23,6.33,2.27c21,8.23,26.84,11.59,17.74,11.25l-3,0c-1.15.23-17.37-2.83-47.77-2.89-30.28.33-74.72,3.65-129.38,25.55-20.54,11.27-40.64,19.67-61,21.56-18.28,1.82-23.18-3.44-14.68-14.89,4.62-4.4,21.8-16.49,53.7-29.58,32-12.59,78.62-26.17,143.58-22.19A237.27,237.27,0,0,1,1834.81,594.25Z" fill="url(#y)"/><path d="M243.06,54l3.12,1C311,94.79,346.52,170,357.57,280.36c8.13,77.94-8.22,171.34-38.57,296,.38,2.29.75,4.58,1.13,6.86C380.47,632.72,415.88,696,431,778.47q2.83,15.3,5.72,30.55c21,110.73,7.55,208.26-33.75,309.13-31.18,29.48-50.32,46.58-58.59,49.63-40.14,15.39-77.8-19.56-111.51-110.36l-1.79-6.56c-3-11.1-5.78-43-6.88-95C161.41,636.52,145.42,390.54,148.27,243,159.27,98.32,194.25,37.26,243.06,54Zm7.62,661c14.29,107,29.1,200.9,42.85,282.58q3.33,2.84,6.67,5.63c54.57-14.49,77.47-74.57,74.8-178.83q-2-9.57-3.88-19.19C360.75,752.69,321.21,723,250.68,714.93ZM227.4,497.37l5.45.36c36.74-100.5,55.93-178.44,50-247.16-7.38-10.52-13.76-16.49-19.13-17.71L258,231.54C231.27,224.79,216.53,313.68,227.4,497.37Z" fill="none" stroke="#000" stroke-width="12"/><path d="M483.62,349.78l6.84,1.27c10.18,1.76,29.5,35.33,57.59,95.34,20.73,64.57,33.81,121.53,40.07,174.28,12.13,101.45,4.72,208.65-12.35,336.28-16.47,50.51-28.69,79-39.48,82.42l-9,3c-24,8-48.16-18.58-71.93-83A575.81,575.81,0,0,1,437,892.78c-1-4.82-2-9.66-3-14.49C410.69,765,403.7,621.86,425.22,465.38,442.5,382.77,463.68,346.05,483.62,349.78Zm4.64,547.41q5.17,16,10.39,31.77l3.92-.92c28.71-7,35.89-94.17,37.23-257.14q-2.73-27.09-5.17-54.29c-16-81.64-26.09-124.41-32.21-124.87l-11.11-1c-25.9,81.26-31.78,201.35-14,350.31Q482.66,869.26,488.26,897.19Z" fill="none" stroke="#000" stroke-width="12"/><path d="M692.87,365.43l7.17,1.49c10.66,2.09,29.17,32.64,55,86.28,17.69,57.29,27.48,107.42,30.32,154,5.55,89.48-10.24,184.47-36.85,301.43-20.46,46.6-34.85,73.42-46.08,77L693,988.59c-25,8.21-47.85-15.65-68.15-74.75a465.15,465.15,0,0,1-14.68-61q-1.11-6.65-2.18-13.3c-16.88-103.86-15.6-235.16,16.34-374.27C647.38,392.09,672,361.1,692.87,365.43ZM662.71,856q4.29,14.54,8.59,28.92l4.09-.92c29.9-7,43.39-87.52,56-232.9q-1-24.18-1.73-48.36C718.38,530,710.37,492,704,491.33l-11.63-1.23c-32.4,71.06-45.9,178.94-37.22,314.74Q658.8,830.51,662.71,856Z" fill="none" stroke="#000" stroke-width="12"/><path d="M900.76,428.35l6.85,1.32c10.18,1.85,26.49,26.29,48.18,68.82,13.65,45.31,19.81,84.91,19.4,121.93-.71,71.2-22.74,147.77-56.5,245.47-22.75,39.28-38.23,62.37-49.05,65.73l-9.08,2.91c-24.11,7.84-43.82-11.47-59-60.29a333.52,333.52,0,0,1-9.83-50.47q-.6-5.49-1.19-11c-9.19-85.86,0-194.26,38.5-305.8C855.36,448.4,880.75,424.56,900.76,428.35ZM841.38,825q3.06,11.93,6.14,23.75l3.93-.89c28.69-6.54,47.4-74.36,69.12-191.74q.66-19.46,1.51-38.85c-6.11-58.21-11.66-88.43-17.76-89l-11.13-1C857.77,583.72,838.47,671,837.64,782.89Q839.43,804,841.38,825Z" fill="none" stroke="#000" stroke-width="12"/><path d="M1071.8,463.9c26.06,5.33,34.93,37.94,29,99,1.26,46,3.8,68.52,6.9,68.49,47.86-84.35,83.28-119.63,94.06-128.46,9.78-3,17.85-3.8,24.09-2.66,16.45,3.1,24.4,17.13,24,41.76C1204.08,678.47,1190,777.46,1186.45,808c-6,17.23-13.34,27.56-22.35,30.4l-3.77,1.18c-14.57,4.73-21.16-10.15-19-44.15q11-82.46,26.93-159.78-17.4,21.9-33.74,45.77c-13,19.51-25.61,30.7-38.62,32.2l-2.07.24c-25.2,3.22-40.56-30-44.32-101.6.48-9.28-.67-14-3.49-14.06-33.16,85.75-54.65,180.06-66.17,276.46-4.78,9.74-9.4,15.42-14,16.84l-5.52,1.69c-13.76.61-21.47-9.15-22.82-29.11-.27-4.2-.55-8.41-.81-12.61,9.59-105,34.2-225.45,83.56-341.48C1036.28,474.87,1054.07,460.49,1071.8,463.9Z" fill="none" stroke="#000" stroke-width="12"/><path d="M1361.87,519.78c26.06,5.52,31.1,26.14,16.6,65.1-5.07,29.7-5.92,44.71-2.8,44.65,60.29-55,101.91-71.53,114.24-76.13,10.48-1,18.91-.74,25.16.42,16.47,3.2,22.52,11.52,18.09,25.13-69,73.92-100.45,144.19-109.5,164.22-8.93,12.09-17.73,19.92-26.75,22.71l-3.78,1.17c-14.61,4.69-18.26-5.32-10.45-28.86a984,984,0,0,1,52.91-106q-20.89,13.78-40.83,29.82c-16,13.1-30.08,21.16-43.11,22.6l-2.08.23c-25.28,3.21-35.39-19.82-29.51-68.43,1.74-6.27,1.21-9.43-1.62-9.53-44.75,57.41-78.65,126.21-103.19,199.78-6,7.68-11.18,12.33-15.82,13.72l-5.53,1.67c-13.29,1.43-19.41-5.6-18.08-20.76l.87-9.55c23.14-80.24,62.62-169.45,126.87-244.91C1324.16,524.17,1344.1,516.32,1361.87,519.78Z" fill="none" stroke="#000" stroke-width="12"/><path d="M1461.92,699.67c19.37-.7,26,3.65,20.33,14.08-1.26,2.36-2.53,4.73-3.79,7.12-5.59,10.5-19,20.22-39.94,29.34l-3.8,1.14c-14.23,2-20.3-3.69-18-16.67.43-1.08.86-2.16,1.28-3.23Q1426.79,709.06,1461.92,699.67ZM1627.44,564l4.76,1.07c15.93,4.7,20.87,9,15,13.62l-1.94,1.54c-.91,2.83-46.35,11.12-121.35,72.68-13.32,15.85-27.55,25.81-43.24,28-14.1,2-18.74-3.8-13.84-17,6.13-8.79,45.41-60.66,135.41-100.11C1613.16,562.43,1621.63,562.69,1627.44,564Z" fill="none" stroke="#000" stroke-width="12"/><path d="M1590.55,668.48c24.53-1.1,31.84,2,22.53,11.17q-3.12,3.14-6.23,6.35c-9.19,9.41-27.6,19.35-54.81,29.93l-4.83,1.44c-17.67,3.31-24.16-1.86-19.28-14.56l2.12-3.18C1539.76,684.91,1559.86,674.62,1590.55,668.48Zm244.26-74.23,6.33,2.27c21,8.23,26.84,11.59,17.74,11.25l-3,0c-1.15.23-17.37-2.83-47.77-2.89-30.28.33-74.72,3.65-129.38,25.55-20.54,11.27-40.64,19.67-61,21.56-18.28,1.82-23.18-3.44-14.68-14.89,4.62-4.4,21.8-16.49,53.7-29.58,32-12.59,78.62-26.17,143.58-22.19A237.27,237.27,0,0,1,1834.81,594.25Z" fill="none" stroke="#000" stroke-width="12"/><path d="M243.06,54l3.12,1C311,94.79,346.52,170,357.57,280.36c8.13,77.94-8.22,171.34-38.57,296,.38,2.29.75,4.58,1.13,6.86C380.47,632.72,415.88,696,431,778.47q2.83,15.3,5.72,30.55c21,110.73,7.55,208.26-33.75,309.13-31.18,29.48-50.32,46.58-58.59,49.63-40.14,15.39-77.8-19.56-111.51-110.36l-1.79-6.56c-3-11.1-5.78-43-6.88-95C161.41,636.52,145.42,390.54,148.27,243,159.27,98.32,194.25,37.26,243.06,54Zm7.62,661c14.29,107,29.1,200.9,42.85,282.58q3.33,2.84,6.67,5.63c54.57-14.49,77.47-74.57,74.8-178.83q-2-9.57-3.88-19.19C360.75,752.69,321.21,723,250.68,714.93ZM227.4,497.37l5.45.36c36.74-100.5,55.93-178.44,50-247.16-7.38-10.52-13.76-16.49-19.13-17.71L258,231.54C231.27,224.79,216.53,313.68,227.4,497.37Z" fill="#fff"/><path d="M483.62,349.78l6.84,1.27c10.18,1.76,29.5,35.33,57.59,95.34,20.73,64.57,33.81,121.53,40.07,174.28,12.13,101.45,4.72,208.65-12.35,336.28-16.47,50.51-28.69,79-39.48,82.42l-9,3c-24,8-48.16-18.58-71.93-83A575.81,575.81,0,0,1,437,892.78c-1-4.82-2-9.66-3-14.49C410.69,765,403.7,621.86,425.22,465.38,442.5,382.77,463.68,346.05,483.62,349.78Zm4.64,547.41q5.17,16,10.39,31.77l3.92-.92c28.71-7,35.89-94.17,37.23-257.14q-2.73-27.09-5.17-54.29c-16-81.64-26.09-124.41-32.21-124.87l-11.11-1c-25.9,81.26-31.78,201.35-14,350.31Q482.66,869.26,488.26,897.19Z" fill="#fff"/><path d="M692.87,365.43l7.17,1.49c10.66,2.09,29.17,32.64,55,86.28,17.69,57.29,27.48,107.42,30.32,154,5.55,89.48-10.24,184.47-36.85,301.43-20.46,46.6-34.85,73.42-46.08,77L693,988.59c-25,8.21-47.85-15.65-68.15-74.75a465.15,465.15,0,0,1-14.68-61q-1.11-6.65-2.18-13.3c-16.88-103.86-15.6-235.16,16.34-374.27C647.38,392.09,672,361.1,692.87,365.43ZM662.71,856q4.29,14.54,8.59,28.92l4.09-.92c29.9-7,43.39-87.52,56-232.9q-1-24.18-1.73-48.36C718.38,530,710.37,492,704,491.33l-11.63-1.23c-32.4,71.06-45.9,178.94-37.22,314.74Q658.8,830.51,662.71,856Z" fill="#fff"/><path d="M900.76,428.35l6.85,1.32c10.18,1.85,26.49,26.29,48.18,68.82,13.65,45.31,19.81,84.91,19.4,121.93-.71,71.2-22.74,147.77-56.5,245.47-22.75,39.28-38.23,62.37-49.05,65.73l-9.08,2.91c-24.11,7.84-43.82-11.47-59-60.29a333.52,333.52,0,0,1-9.83-50.47q-.6-5.49-1.19-11c-9.19-85.86,0-194.26,38.5-305.8C855.36,448.4,880.75,424.56,900.76,428.35ZM841.38,825q3.06,11.93,6.14,23.75l3.93-.89c28.69-6.54,47.4-74.36,69.12-191.74q.66-19.46,1.51-38.85c-6.11-58.21-11.66-88.43-17.76-89l-11.13-1C857.77,583.72,838.47,671,837.64,782.89Q839.43,804,841.38,825Z" fill="#fff"/><path d="M1071.8,463.9c26.06,5.33,34.93,37.94,29,99,1.26,46,3.8,68.52,6.9,68.49,47.86-84.35,83.28-119.63,94.06-128.46,9.78-3,17.85-3.8,24.09-2.66,16.45,3.1,24.4,17.13,24,41.76C1204.08,678.47,1190,777.46,1186.45,808c-6,17.23-13.34,27.56-22.35,30.4l-3.77,1.18c-14.57,4.73-21.16-10.15-19-44.15q11-82.46,26.93-159.78-17.4,21.9-33.74,45.77c-13,19.51-25.61,30.7-38.62,32.2l-2.07.24c-25.2,3.22-40.56-30-44.32-101.6.48-9.28-.67-14-3.49-14.06-33.16,85.75-54.65,180.06-66.17,276.46-4.78,9.74-9.4,15.42-14,16.84l-5.52,1.69c-13.76.61-21.47-9.15-22.82-29.11-.27-4.2-.55-8.41-.81-12.61,9.59-105,34.2-225.45,83.56-341.48C1036.28,474.87,1054.07,460.49,1071.8,463.9Z" fill="#fff"/><path d="M1361.87,519.78c26.06,5.52,31.1,26.14,16.6,65.1-5.07,29.7-5.92,44.71-2.8,44.65,60.29-55,101.91-71.53,114.24-76.13,10.48-1,18.91-.74,25.16.42,16.47,3.2,22.52,11.52,18.09,25.13-69,73.92-100.45,144.19-109.5,164.22-8.93,12.09-17.73,19.92-26.75,22.71l-3.78,1.17c-14.61,4.69-18.26-5.32-10.45-28.86a984,984,0,0,1,52.91-106q-20.89,13.78-40.83,29.82c-16,13.1-30.08,21.16-43.11,22.6l-2.08.23c-25.28,3.21-35.39-19.82-29.51-68.43,1.74-6.27,1.21-9.43-1.62-9.53-44.75,57.41-78.65,126.21-103.19,199.78-6,7.68-11.18,12.33-15.82,13.72l-5.53,1.67c-13.29,1.43-19.41-5.6-18.08-20.76l.87-9.55c23.14-80.24,62.62-169.45,126.87-244.91C1324.16,524.17,1344.1,516.32,1361.87,519.78Z" fill="#fff"/><path d="M1461.92,699.67c19.37-.7,26,3.65,20.33,14.08-1.26,2.36-2.53,4.73-3.79,7.12-5.59,10.5-19,20.22-39.94,29.34l-3.8,1.14c-14.23,2-20.3-3.69-18-16.67.43-1.08.86-2.16,1.28-3.23Q1426.79,709.06,1461.92,699.67ZM1627.44,564l4.76,1.07c15.93,4.7,20.87,9,15,13.62l-1.94,1.54c-.91,2.83-46.35,11.12-121.35,72.68-13.32,15.85-27.55,25.81-43.24,28-14.1,2-18.74-3.8-13.84-17,6.13-8.79,45.41-60.66,135.41-100.11C1613.16,562.43,1621.63,562.69,1627.44,564Z" fill="#fff"/><path d="M1590.55,668.48c24.53-1.1,31.84,2,22.53,11.17q-3.12,3.14-6.23,6.35c-9.19,9.41-27.6,19.35-54.81,29.93l-4.83,1.44c-17.67,3.31-24.16-1.86-19.28-14.56l2.12-3.18C1539.76,684.91,1559.86,674.62,1590.55,668.48Zm244.26-74.23,6.33,2.27c21,8.23,26.84,11.59,17.74,11.25l-3,0c-1.15.23-17.37-2.83-47.77-2.89-30.28.33-74.72,3.65-129.38,25.55-20.54,11.27-40.64,19.67-61,21.56-18.28,1.82-23.18-3.44-14.68-14.89,4.62-4.4,21.8-16.49,53.7-29.58,32-12.59,78.62-26.17,143.58-22.19A237.27,237.27,0,0,1,1834.81,594.25Z" fill="#fff"/><g opacity="0.07"><path d="M243.06,54l3.12,1C311,94.79,346.52,170,357.57,280.36c8.13,77.94-8.22,171.34-38.57,296,.38,2.29.75,4.58,1.13,6.86C380.47,632.72,415.88,696,431,778.47q2.83,15.3,5.72,30.55c21,110.73,7.55,208.26-33.75,309.13-31.18,29.48-50.32,46.58-58.59,49.63-40.14,15.39-77.8-19.56-111.51-110.36l-1.79-6.56c-3-11.1-5.78-43-6.88-95C161.41,636.52,145.42,390.54,148.27,243,159.27,98.32,194.25,37.26,243.06,54Zm7.62,661c14.29,107,29.1,200.9,42.85,282.58q3.33,2.84,6.67,5.63c54.57-14.49,77.47-74.57,74.8-178.83q-2-9.57-3.88-19.19C360.75,752.69,321.21,723,250.68,714.93ZM227.4,497.37l5.45.36c36.74-100.5,55.93-178.44,50-247.16-7.38-10.52-13.76-16.49-19.13-17.71L258,231.54C231.27,224.79,216.53,313.68,227.4,497.37Z" fill="url(#ag)"/><path d="M483.62,349.78l6.84,1.27c10.18,1.76,29.5,35.33,57.59,95.34,20.73,64.57,33.81,121.53,40.07,174.28,12.13,101.45,4.72,208.65-12.35,336.28-16.47,50.51-28.69,79-39.48,82.42l-9,3c-24,8-48.16-18.58-71.93-83A575.81,575.81,0,0,1,437,892.78c-1-4.82-2-9.66-3-14.49C410.69,765,403.7,621.86,425.22,465.38,442.5,382.77,463.68,346.05,483.62,349.78Zm4.64,547.41q5.17,16,10.39,31.77l3.92-.92c28.71-7,35.89-94.17,37.23-257.14q-2.73-27.09-5.17-54.29c-16-81.64-26.09-124.41-32.21-124.87l-11.11-1c-25.9,81.26-31.78,201.35-14,350.31Q482.66,869.26,488.26,897.19Z" fill="url(#ag)"/><path d="M692.87,365.43l7.17,1.49c10.66,2.09,29.17,32.64,55,86.28,17.69,57.29,27.48,107.42,30.32,154,5.55,89.48-10.24,184.47-36.85,301.43-20.46,46.6-34.85,73.42-46.08,77L693,988.59c-25,8.21-47.85-15.65-68.15-74.75a465.15,465.15,0,0,1-14.68-61q-1.11-6.65-2.18-13.3c-16.88-103.86-15.6-235.16,16.34-374.27C647.38,392.09,672,361.1,692.87,365.43ZM662.71,856q4.29,14.54,8.59,28.92l4.09-.92c29.9-7,43.39-87.52,56-232.9q-1-24.18-1.73-48.36C718.38,530,710.37,492,704,491.33l-11.63-1.23c-32.4,71.06-45.9,178.94-37.22,314.74Q658.8,830.51,662.71,856Z" fill="url(#ag)"/><path d="M900.76,428.35l6.85,1.32c10.18,1.85,26.49,26.29,48.18,68.82,13.65,45.31,19.81,84.91,19.4,121.93-.71,71.2-22.74,147.77-56.5,245.47-22.75,39.28-38.23,62.37-49.05,65.73l-9.08,2.91c-24.11,7.84-43.82-11.47-59-60.29a333.52,333.52,0,0,1-9.83-50.47q-.6-5.49-1.19-11c-9.19-85.86,0-194.26,38.5-305.8C855.36,448.4,880.75,424.56,900.76,428.35ZM841.38,825q3.06,11.93,6.14,23.75l3.93-.89c28.69-6.54,47.4-74.36,69.12-191.74q.66-19.46,1.51-38.85c-6.11-58.21-11.66-88.43-17.76-89l-11.13-1C857.77,583.72,838.47,671,837.64,782.89Q839.43,804,841.38,825Z" fill="url(#ag)"/><path d="M1071.8,463.9c26.06,5.33,34.93,37.94,29,99,1.26,46,3.8,68.52,6.9,68.49,47.86-84.35,83.28-119.63,94.06-128.46,9.78-3,17.85-3.8,24.09-2.66,16.45,3.1,24.4,17.13,24,41.76C1204.08,678.47,1190,777.46,1186.45,808c-6,17.23-13.34,27.56-22.35,30.4l-3.77,1.18c-14.57,4.73-21.16-10.15-19-44.15q11-82.46,26.93-159.78-17.4,21.9-33.74,45.77c-13,19.51-25.61,30.7-38.62,32.2l-2.07.24c-25.2,3.22-40.56-30-44.32-101.6.48-9.28-.67-14-3.49-14.06-33.16,85.75-54.65,180.06-66.17,276.46-4.78,9.74-9.4,15.42-14,16.84l-5.52,1.69c-13.76.61-21.47-9.15-22.82-29.11-.27-4.2-.55-8.41-.81-12.61,9.59-105,34.2-225.45,83.56-341.48C1036.28,474.87,1054.07,460.49,1071.8,463.9Z" fill="url(#ag)"/><path d="M1361.87,519.78c26.06,5.52,31.1,26.14,16.6,65.1-5.07,29.7-5.92,44.71-2.8,44.65,60.29-55,101.91-71.53,114.24-76.13,10.48-1,18.91-.74,25.16.42,16.47,3.2,22.52,11.52,18.09,25.13-69,73.92-100.45,144.19-109.5,164.22-8.93,12.09-17.73,19.92-26.75,22.71l-3.78,1.17c-14.61,4.69-18.26-5.32-10.45-28.86a984,984,0,0,1,52.91-106q-20.89,13.78-40.83,29.82c-16,13.1-30.08,21.16-43.11,22.6l-2.08.23c-25.28,3.21-35.39-19.82-29.51-68.43,1.74-6.27,1.21-9.43-1.62-9.53-44.75,57.41-78.65,126.21-103.19,199.78-6,7.68-11.18,12.33-15.82,13.72l-5.53,1.67c-13.29,1.43-19.41-5.6-18.08-20.76l.87-9.55c23.14-80.24,62.62-169.45,126.87-244.91C1324.16,524.17,1344.1,516.32,1361.87,519.78Z" fill="url(#ag)"/><path d="M1461.92,699.67c19.37-.7,26,3.65,20.33,14.08-1.26,2.36-2.53,4.73-3.79,7.12-5.59,10.5-19,20.22-39.94,29.34l-3.8,1.14c-14.23,2-20.3-3.69-18-16.67.43-1.08.86-2.16,1.28-3.23Q1426.79,709.06,1461.92,699.67ZM1627.44,564l4.76,1.07c15.93,4.7,20.87,9,15,13.62l-1.94,1.54c-.91,2.83-46.35,11.12-121.35,72.68-13.32,15.85-27.55,25.81-43.24,28-14.1,2-18.74-3.8-13.84-17,6.13-8.79,45.41-60.66,135.41-100.11C1613.16,562.43,1621.63,562.69,1627.44,564Z" fill="url(#ag)"/><path d="M1590.55,668.48c24.53-1.1,31.84,2,22.53,11.17q-3.12,3.14-6.23,6.35c-9.19,9.41-27.6,19.35-54.81,29.93l-4.83,1.44c-17.67,3.31-24.16-1.86-19.28-14.56l2.12-3.18C1539.76,684.91,1559.86,674.62,1590.55,668.48Zm244.26-74.23,6.33,2.27c21,8.23,26.84,11.59,17.74,11.25l-3,0c-1.15.23-17.37-2.83-47.77-2.89-30.28.33-74.72,3.65-129.38,25.55-20.54,11.27-40.64,19.67-61,21.56-18.28,1.82-23.18-3.44-14.68-14.89,4.62-4.4,21.8-16.49,53.7-29.58,32-12.59,78.62-26.17,143.58-22.19A237.27,237.27,0,0,1,1834.81,594.25Z" fill="url(#ag)"/></g></svg>