<svg xmlns="http://www.w3.org/2000/svg" xmlns:xlink="http://www.w3.org/1999/xlink" viewBox="0 0 2000 914.07"><defs><linearGradient id="a" x1="180.6" y1="1060.67" x2="180.6" y2="542.75" gradientTransform="translate(703.72 -300.35) rotate(-10.63)" gradientUnits="userSpaceOnUse"><stop offset="0" stop-color="#e27207"/><stop offset="1" stop-color="#ffcd00"/></linearGradient><pattern id="i" width="48" height="48" patternTransform="matrix(1.4, -0.26, 0.26, 1.4, 146.45, -80.84)" patternUnits="userSpaceOnUse" viewBox="0 0 48 48"><rect width="48" height="48" fill="none"/><path d="M24,55.2A7.2,7.2,0,1,0,16.8,48,7.2,7.2,0,0,0,24,55.2Z" fill="#231f20"/><path d="M48,55.2A7.2,7.2,0,1,0,40.8,48,7.2,7.2,0,0,0,48,55.2Z" fill="#231f20"/><path d="M24,31.2A7.2,7.2,0,1,0,16.8,24,7.2,7.2,0,0,0,24,31.2Z" fill="#231f20"/><path d="M48,31.2A7.2,7.2,0,1,0,40.8,24,7.2,7.2,0,0,0,48,31.2Z" fill="#231f20"/><path d="M36,43.2A7.2,7.2,0,1,0,28.8,36,7.2,7.2,0,0,0,36,43.2Z" fill="#231f20"/><path d="M12,43.2A7.2,7.2,0,1,0,4.8,36,7.2,7.2,0,0,0,12,43.2Z" fill="#231f20"/><path d="M36,19.2A7.2,7.2,0,1,0,28.8,12,7.2,7.2,0,0,0,36,19.2Z" fill="#231f20"/><path d="M12,19.2A7.2,7.2,0,1,0,4.8,12,7.2,7.2,0,0,0,12,19.2Z" fill="#231f20"/><path d="M0,55.2A7.2,7.2,0,0,0,0,40.8,7.2,7.2,0,0,0-7.2,48,7.2,7.2,0,0,0,0,55.2Z" fill="#231f20"/><path d="M0,31.2A7.2,7.2,0,0,0,0,16.8,7.2,7.2,0,0,0-7.2,24,7.2,7.2,0,0,0,0,31.2Z" fill="#231f20"/><path d="M24,7.2A7.2,7.2,0,0,0,31.2,0,7.2,7.2,0,0,0,24-7.2,7.2,7.2,0,0,0,16.8,0,7.2,7.2,0,0,0,24,7.2Z" fill="#231f20"/><path d="M48,7.2A7.2,7.2,0,0,0,55.2,0,7.2,7.2,0,0,0,48-7.2,7.2,7.2,0,0,0,40.8,0,7.2,7.2,0,0,0,48,7.2Z" fill="#231f20"/><path d="M0,7.2A7.2,7.2,0,0,0,7.2,0,7.2,7.2,0,0,0,0-7.2,7.2,7.2,0,0,0-7.2,0,7.2,7.2,0,0,0,0,7.2Z" fill="#231f20"/></pattern></defs><g style="isolation:isolate"><path d="M138,363.25l3.07-1.62c66.11-25.7,112.61-14.32,137,29.66,17.45,31,11.41,84-10.79,161.14l1.55,2.69c63.14-9.88,103.76,4.7,121.69,39.9l6.67,13.09C421.59,656,405.14,714,358.8,787.34c-32.92,30.43-52.46,49.4-60.76,55.18-40.3,28.6-73.9,29.74-104.24,1.32-.53-.8-1.06-1.61-1.58-2.42-2.68-4.09-4.83-19.27-5.9-45.46-60.2-127-98.65-223.43-112-289.4C68.23,437.21,90,388.67,138,363.25Zm69.14,296q26.92,66.21,45.65,119.1l6.45-.66c53.58-36.72,79.07-79.24,74.6-131.65q-2.16-3.93-4.31-7.85C318,616.8,276,621.8,207.18,659.2Zm-34.76-90,5.26-3.19c27.87-69.41,38.17-116.36,24.26-143.35-8.34-.12-15.17,1.25-20.44,4.08l-5.68,3.07C149.21,444.14,147.91,490.88,172.42,569.17Z"/><path d="M412.92,355q3.57-1.46,7.15-2.88c10.58-4.25,34.71,2,70.92,19.28,29,23.13,48.36,47.53,59.1,72.87,20.75,48.88,17.33,110-3.14,185.53-18.85,33.36-33.31,53.33-45.07,59.2q-5,2.49-9.88,5c-26.27,13.4-50.61,8.51-74.67-15.41a129.31,129.31,0,0,1-18.89-26.91l-3.18-6.22c-24.83-48.6-36.85-117.08-29.45-204.25C375.63,392.14,392,363.47,412.92,355Zm39.62,276.44q5.52,6.29,11,12.59l4.2-2.09c30.33-15.14,41-65.32,33.55-151.34q-4.47-13-9-26c-22.86-35.23-38-51.53-44.35-48.92q-5.85,2.4-11.67,4.84c-19.29,53.2-16.7,115.61,4.23,186Q446.56,618.94,452.54,631.43Z"/><path d="M633,265.92l7.83-2.18c11.61-3.19,36.3,5.39,72.48,26.31,27.91,26,45.58,52.29,54,78.64,16.37,50.85,5.91,111.34-24.05,184.73-23.55,31.44-41,50-54,54.73q-5.48,2-10.93,4c-29.08,10.88-54.09,3.71-76.7-22.47A126.64,126.64,0,0,1,584.86,561c-.88-2.17-1.77-4.34-2.65-6.52-20.69-50.93-25.77-120.59-8.33-207C589.65,299.38,610,272.33,633,265.92Zm10.9,280q5.12,6.83,10.16,13.64l4.65-1.69c33.54-12.23,50.38-61.27,52.11-147.85q-3.26-13.42-6.55-26.85c-20.11-37.43-34.26-55.2-41.2-53.22q-6.41,1.83-12.81,3.69c-26.21,51.24-30.4,113.88-16.23,186.2Q639,532.86,643.91,545.9Z"/><path d="M868.29,226.91l7.77-1.27c11.52-1.88,34.46,8.33,67.36,31,24.42,26.57,39,52.49,44.6,77.59,10.92,48.45-5,103.29-41.43,168.18-26,26.8-44.85,42.28-58,45.43q-5.54,1.33-11.06,2.71c-29.42,7.32-53-1.63-72.3-27.87a113.63,113.63,0,0,1-13.41-28c-.63-2.08-1.26-4.17-1.9-6.25-14.82-48.9-12.48-113.62,13.12-191.72C823.16,253.77,845.5,230.7,868.29,226.91ZM850.72,486.18q4.26,6.76,8.48,13.53l4.69-1.13c33.84-8.15,55.12-51.8,65.33-131.52q-1.83-12.68-3.69-25.38c-15.78-36.4-27.67-54.11-34.57-52.92-4.26.72-8.5,1.46-12.75,2.21C847.8,335.8,837.38,393.18,843.78,461.2Q847.29,473.69,850.72,486.18Z"/><path d="M1065,205.3c30-2.2,49.77,21.34,58,69.38,12.64,35.22,20.35,52.59,24.14,52.37,38.2-69.07,64.34-106.59,73.93-115.62,9.93-4.15,18.61-6.17,26-6.13,19.3.14,33.37,12,41.7,35.23-4.82,131.21-7.58,209.28-5.5,235.54-4.72,13.47-12.85,20.38-24.46,20.82l-4.86.19c-18.86.78-29.55-12-32.47-39q.26-64.87-.35-130.14-15.44,18.74-30.39,37.87c-11.81,15.64-25.5,24-41.35,25.16l-2.53.18c-31,2.29-54.49-21.57-72.93-73.11q-1.93-10.25-6.94-9.79a1092.34,1092.34,0,0,0-43.72,197.44c-5.39,6.55-10.93,10.33-16.68,11.32l-6.85,1.19c-17.29.62-27.29-5.33-30.1-18.2l-1.77-8.13c5.23-68.93,20.63-150.43,50.53-242.16C1028.75,221.68,1044.43,206.84,1065,205.3Z"/><path d="M1405.13,205.94c30.7,2.44,47.52,27.55,49.4,73.88,8,35,13.54,52.45,17.41,52.83,48.11-59,79.63-90.07,90.57-97,10.63-2.35,19.7-2.89,27.14-1.69,19.54,3.16,32.22,16.57,37.58,39.64-22.35,122.36-35.47,195.17-36.82,220.15-6.58,11.89-15.78,17.07-27.66,15.65l-5-.58c-19.33-2.24-28.51-15.94-27.89-41.7q8.91-60.84,17-122.16-18.17,15.16-35.94,30.8c-14.1,12.84-29.15,18.6-45.41,17.24l-2.6-.22c-31.78-2.59-52.46-28.53-64.15-79.67-.38-6.6-2.29-10-5.7-10.22a971.93,971.93,0,0,0-71.43,178.75q-9.57,8-18.52,8.16l-7.14.11c-17.69-1.95-27-9-28.12-21.48q-.33-3.94-.68-7.9c14.84-63.93,41.75-138.18,84.64-219.84C1366.16,215.88,1384.08,204.29,1405.13,205.94Z"/><path d="M1620,450.1c26.3,8,38.86,19.26,37.73,33.07-.25,3.11-.51,6.22-.76,9.33-1.15,13.75-14.91,20.11-41,20l-5-.73c-20-6.05-31.64-17-35-33.5,0-1.25.11-2.51.17-3.76C1577,457.24,1591.43,448.73,1620,450.1Zm92.25-214.28,5.62,1.24c19.92,6.55,29.51,16,28.78,27.84-.07,1.31-.15,2.62-.23,3.93-.07,3.17-26.15,45.71-75,130.59-5.26,23.37-17.85,33.16-37.67,29.88-17.83-2.93-27.45-13.28-29.09-31.52,1-14,27-67.92,82.63-157.61C1697,235.74,1705.37,234.31,1712.25,235.82Z"/><path d="M1775.2,463c33.43,12.81,48.75,28.31,46.17,45.24q-.86,5.73-1.73,11.45c-2.61,16.87-20.86,23.08-54.36,20.23l-6.37-1.44c-25.28-9.58-39.39-24.31-42.53-45.07.16-1.55.32-3.1.49-4.65C1719.06,467.31,1738.35,458.12,1775.2,463ZM1911,208l7.32,2.32c25.77,10.95,37.69,24.12,35.86,38.78-.2,1.62-.41,3.24-.61,4.86-.28,4-37.87,53-107.83,152.19-8.62,28.34-25.71,38.9-51.14,32.58-22.89-5.67-34.6-19.53-35.48-42.39,2.32-17.3,39.61-81.73,118.75-186.29C1890.93,205.77,1902,205.13,1911,208Z"/><path d="M171,396.25l3.07-1.62c66.11-25.7,112.61-14.32,137,29.66,17.45,31,11.41,84-10.79,161.14l1.55,2.69c63.14-9.88,103.76,4.7,121.69,39.9l6.67,13.09C454.59,689,438.14,747,391.8,820.34c-32.92,30.43-52.46,49.4-60.76,55.18-40.3,28.6-73.9,29.74-104.24,1.32-.53-.8-1.06-1.61-1.58-2.42-2.68-4.09-4.83-19.27-5.9-45.46-60.2-127-98.65-223.43-112-289.4C101.23,470.21,123,421.67,171,396.25Zm69.14,296q26.93,66.21,45.65,119.1l6.45-.66c53.58-36.72,79.07-79.24,74.6-131.65q-2.16-3.93-4.31-7.85C351,649.8,309,654.8,240.18,692.2Zm-34.76-90,5.26-3.19c27.87-69.41,38.17-116.36,24.26-143.35-8.34-.12-15.17,1.25-20.44,4.08l-5.68,3.07C182.21,477.14,180.91,523.88,205.42,602.17Z"/><path d="M445.92,388q3.57-1.46,7.15-2.88c10.58-4.25,34.71,2,70.92,19.28,29,23.13,48.36,47.53,59.1,72.87,20.75,48.88,17.33,110-3.14,185.53-18.85,33.36-33.31,53.33-45.07,59.2q-4.95,2.49-9.88,5c-26.27,13.4-50.61,8.51-74.67-15.41a129.31,129.31,0,0,1-18.89-26.91l-3.18-6.22c-24.83-48.6-36.85-117.08-29.45-204.25C408.63,425.14,425,396.47,445.92,388Zm39.62,276.44q5.52,6.29,11,12.59l4.2-2.09c30.33-15.14,41-65.32,33.55-151.34q-4.47-13-9-26c-22.86-35.23-38-51.53-44.35-48.92q-5.85,2.4-11.67,4.84c-19.29,53.2-16.7,115.61,4.23,186Q479.56,651.94,485.54,664.43Z"/><path d="M666,298.92l7.83-2.18c11.61-3.19,36.3,5.39,72.48,26.31,27.91,26,45.58,52.29,54,78.64,16.37,50.85,5.91,111.34-24.05,184.73-23.55,31.44-41,50-54,54.73q-5.48,2-10.93,4c-29.08,10.88-54.09,3.71-76.7-22.47A126.64,126.64,0,0,1,617.86,594c-.88-2.17-1.77-4.34-2.65-6.52-20.69-50.93-25.77-120.59-8.33-207C622.65,332.38,643,305.33,666,298.92Zm10.9,280q5.12,6.83,10.16,13.64l4.65-1.69c33.54-12.23,50.38-61.27,52.11-147.85q-3.26-13.42-6.55-26.85c-20.11-37.43-34.26-55.2-41.2-53.22q-6.41,1.83-12.81,3.69c-26.21,51.24-30.4,113.88-16.23,186.2Q672,565.86,676.91,578.9Z"/><path d="M901.29,259.91l7.77-1.27c11.52-1.88,34.46,8.33,67.36,31,24.42,26.57,39,52.49,44.6,77.59,10.92,48.45-5,103.29-41.43,168.18-26,26.8-44.85,42.28-58,45.43q-5.54,1.33-11.06,2.71c-29.42,7.32-53-1.63-72.3-27.87a113.63,113.63,0,0,1-13.41-28c-.63-2.08-1.26-4.17-1.9-6.25-14.82-48.9-12.48-113.62,13.12-191.72C856.16,286.77,878.5,263.7,901.29,259.91ZM883.72,519.18q4.26,6.77,8.48,13.53l4.69-1.13c33.84-8.15,55.12-51.8,65.33-131.52q-1.83-12.68-3.69-25.38c-15.78-36.4-27.67-54.11-34.57-52.92-4.26.72-8.5,1.46-12.75,2.21C880.8,368.8,870.38,426.18,876.78,494.2Q880.29,506.69,883.72,519.18Z"/><path d="M1098,238.3c30-2.2,49.77,21.34,58,69.38,12.64,35.22,20.35,52.59,24.14,52.37,38.2-69.07,64.34-106.59,73.93-115.62,9.93-4.15,18.61-6.17,26-6.13,19.3.14,33.37,12,41.7,35.23-4.82,131.21-7.58,209.28-5.5,235.54-4.72,13.47-12.85,20.38-24.46,20.82l-4.86.19c-18.86.78-29.55-12-32.47-39q.26-64.87-.35-130.14-15.44,18.74-30.39,37.87c-11.81,15.64-25.5,24-41.35,25.16l-2.53.18c-31,2.29-54.49-21.57-72.93-73.11q-1.93-10.25-6.94-9.79a1092.34,1092.34,0,0,0-43.72,197.44c-5.39,6.55-10.93,10.33-16.68,11.32l-6.85,1.19c-17.29.62-27.29-5.33-30.1-18.2l-1.77-8.13c5.23-68.93,20.63-150.43,50.53-242.16C1061.75,254.68,1077.43,239.84,1098,238.3Z"/><path d="M1438.13,238.94c30.7,2.44,47.52,27.55,49.4,73.88,8,35,13.54,52.45,17.41,52.83,48.11-59,79.63-90.07,90.57-97,10.63-2.35,19.7-2.89,27.14-1.69,19.54,3.16,32.22,16.57,37.58,39.64-22.35,122.36-35.47,195.17-36.82,220.15-6.58,11.89-15.78,17.07-27.66,15.65l-5-.58c-19.33-2.24-28.51-15.94-27.89-41.7q8.91-60.84,17-122.16-18.17,15.16-35.94,30.8c-14.1,12.84-29.15,18.6-45.41,17.24l-2.6-.22c-31.78-2.59-52.46-28.53-64.15-79.67-.38-6.6-2.29-10-5.7-10.22a971.93,971.93,0,0,0-71.43,178.75q-9.57,8-18.52,8.16l-7.14.11c-17.69-2-27-9-28.12-21.48q-.33-3.94-.68-7.9c14.84-63.93,41.75-138.18,84.64-219.84C1399.16,248.88,1417.08,237.29,1438.13,238.94Z"/><path d="M1653,483.1c26.3,8,38.86,19.26,37.73,33.07-.25,3.11-.51,6.22-.76,9.33-1.15,13.75-14.91,20.11-41,20l-5-.73c-20-6.05-31.64-17-35-33.5,0-1.25.11-2.51.17-3.76C1610,490.24,1624.43,481.73,1653,483.1Zm92.25-214.28,5.62,1.24c19.92,6.55,29.51,16,28.78,27.84-.07,1.31-.15,2.62-.23,3.93-.07,3.17-26.15,45.71-75,130.59-5.26,23.37-17.85,33.16-37.67,29.88-17.83-2.93-27.45-13.28-29.09-31.52,1-14,27-67.92,82.63-157.61C1730,268.74,1738.37,267.31,1745.25,268.82Z"/><path d="M1808.2,496c33.43,12.81,48.75,28.31,46.17,45.24q-.86,5.73-1.73,11.45c-2.61,16.87-20.86,23.08-54.36,20.23l-6.37-1.44c-25.28-9.58-39.39-24.31-42.53-45.07.16-1.55.32-3.1.49-4.65C1752.06,500.31,1771.35,491.12,1808.2,496ZM1944,241l7.32,2.32c25.77,10.95,37.69,24.12,35.86,38.78-.2,1.62-.41,3.24-.61,4.86-.28,4-37.87,53-107.83,152.19-8.62,28.34-25.71,38.9-51.14,32.58-22.89-5.67-34.6-19.53-35.48-42.39,2.32-17.3,39.61-81.73,118.75-186.29C1923.93,238.77,1935,238.13,1944,241Z"/><path d="M168,393.25l3.07-1.62c66.11-25.7,112.61-14.32,137,29.66,17.45,31,11.41,84-10.79,161.14l1.55,2.69c63.14-9.88,103.76,4.7,121.69,39.9l6.67,13.09C451.59,686,435.14,744,388.8,817.34c-32.92,30.43-52.46,49.4-60.76,55.18-40.3,28.6-73.9,29.74-104.24,1.32-.53-.8-1.06-1.61-1.58-2.42-2.68-4.09-4.83-19.27-5.9-45.46-60.2-127-98.65-223.43-112-289.4C98.23,467.21,120,418.67,168,393.25Zm69.14,296q26.93,66.21,45.65,119.1l6.45-.66c53.58-36.72,79.07-79.24,74.6-131.65q-2.16-3.93-4.31-7.85C348,646.8,306,651.8,237.18,689.2Zm-34.76-90,5.26-3.19c27.87-69.41,38.17-116.36,24.26-143.35-8.34-.12-15.17,1.25-20.44,4.08l-5.68,3.07C179.21,474.14,177.91,520.88,202.42,599.17Z"/><path d="M442.92,385q3.57-1.46,7.15-2.88c10.58-4.25,34.71,2,70.92,19.28,29,23.13,48.36,47.53,59.1,72.87,20.75,48.88,17.33,110-3.14,185.53-18.85,33.36-33.31,53.33-45.07,59.2q-4.95,2.49-9.88,5c-26.27,13.4-50.61,8.51-74.67-15.41a129.31,129.31,0,0,1-18.89-26.91l-3.18-6.22c-24.83-48.6-36.85-117.08-29.45-204.25C405.63,422.14,422,393.47,442.92,385Zm39.62,276.44q5.52,6.29,11,12.59l4.2-2.09c30.33-15.14,41-65.32,33.55-151.34q-4.47-13-9-26c-22.86-35.23-38-51.53-44.35-48.92q-5.85,2.4-11.67,4.84c-19.29,53.2-16.7,115.61,4.23,186Q476.56,648.94,482.54,661.43Z"/><path d="M663,295.92l7.83-2.18c11.61-3.19,36.3,5.39,72.48,26.31,27.91,26,45.58,52.29,54,78.64,16.37,50.85,5.91,111.34-24.05,184.73-23.55,31.44-41,50-54,54.73q-5.48,2-10.93,4c-29.08,10.88-54.09,3.71-76.7-22.47A126.64,126.64,0,0,1,614.86,591c-.88-2.17-1.77-4.34-2.65-6.52-20.69-50.93-25.77-120.59-8.33-207C619.65,329.38,640,302.33,663,295.92Zm10.9,280q5.12,6.83,10.16,13.64l4.65-1.69c33.54-12.23,50.38-61.27,52.11-147.85q-3.26-13.42-6.55-26.85c-20.11-37.43-34.26-55.2-41.2-53.22q-6.41,1.83-12.81,3.69c-26.21,51.24-30.4,113.88-16.23,186.2Q669,562.86,673.91,575.9Z"/><path d="M898.29,256.91l7.77-1.27c11.52-1.88,34.46,8.33,67.36,31,24.42,26.57,39,52.49,44.6,77.59,10.92,48.45-5,103.29-41.43,168.18-26,26.8-44.85,42.28-58,45.43q-5.54,1.33-11.06,2.71c-29.42,7.32-53-1.63-72.3-27.87a113.63,113.63,0,0,1-13.41-28c-.63-2.08-1.26-4.17-1.9-6.25-14.82-48.9-12.48-113.62,13.12-191.72C853.16,283.77,875.5,260.7,898.29,256.91ZM880.72,516.18q4.26,6.77,8.48,13.53l4.69-1.13c33.84-8.15,55.12-51.8,65.33-131.52q-1.83-12.68-3.69-25.38c-15.78-36.4-27.67-54.11-34.57-52.92-4.26.72-8.5,1.46-12.75,2.21C877.8,365.8,867.38,423.18,873.78,491.2Q877.29,503.69,880.72,516.18Z"/><path d="M1095,235.3c30-2.2,49.77,21.34,58,69.38,12.64,35.22,20.35,52.59,24.14,52.37,38.2-69.07,64.34-106.59,73.93-115.62,9.93-4.15,18.61-6.17,26-6.13,19.3.14,33.37,12,41.7,35.23-4.82,131.21-7.58,209.28-5.5,235.54-4.72,13.47-12.85,20.38-24.46,20.82l-4.86.19c-18.86.78-29.55-12-32.47-39q.26-64.87-.35-130.14-15.44,18.74-30.39,37.87c-11.81,15.64-25.5,24-41.35,25.16l-2.53.18c-31,2.29-54.49-21.57-72.93-73.11q-1.93-10.25-6.94-9.79a1092.34,1092.34,0,0,0-43.72,197.44c-5.39,6.55-10.93,10.33-16.68,11.32l-6.85,1.19c-17.29.62-27.29-5.33-30.1-18.2l-1.77-8.13c5.23-68.93,20.63-150.43,50.53-242.16C1058.75,251.68,1074.43,236.84,1095,235.3Z"/><path d="M1435.13,235.94c30.7,2.44,47.52,27.55,49.4,73.88,8,35,13.54,52.45,17.41,52.83,48.11-59,79.63-90.07,90.57-97,10.63-2.35,19.7-2.89,27.14-1.69,19.54,3.16,32.22,16.57,37.58,39.64-22.35,122.36-35.47,195.17-36.82,220.15-6.58,11.89-15.78,17.07-27.66,15.65l-5-.58c-19.33-2.24-28.51-15.94-27.89-41.7q8.91-60.84,17-122.16-18.17,15.16-35.94,30.8c-14.1,12.84-29.15,18.6-45.41,17.24l-2.6-.22c-31.78-2.59-52.46-28.53-64.15-79.67-.38-6.6-2.29-10-5.7-10.22a971.93,971.93,0,0,0-71.43,178.75q-9.57,8-18.52,8.16l-7.14.11c-17.69-2-27-9-28.12-21.48q-.33-3.94-.68-7.9c14.84-63.93,41.75-138.18,84.64-219.84C1396.16,245.88,1414.08,234.29,1435.13,235.94Z"/><path d="M1650,480.1c26.3,8,38.86,19.26,37.73,33.07-.25,3.11-.51,6.22-.76,9.33-1.15,13.75-14.91,20.11-41,20l-5-.73c-20-6.05-31.64-17-35-33.5,0-1.25.11-2.51.17-3.76C1607,487.24,1621.43,478.73,1650,480.1Zm92.25-214.28,5.62,1.24c19.92,6.55,29.51,16,28.78,27.84-.07,1.31-.15,2.62-.23,3.93-.07,3.17-26.15,45.71-75,130.59-5.26,23.37-17.85,33.16-37.67,29.88-17.83-2.93-27.45-13.28-29.09-31.52,1-14,27-67.92,82.63-157.61C1727,265.74,1735.37,264.31,1742.25,265.82Z"/><path d="M1805.2,493c33.43,12.81,48.75,28.31,46.17,45.24q-.86,5.73-1.73,11.45c-2.61,16.87-20.86,23.08-54.36,20.23l-6.37-1.44c-25.28-9.58-39.39-24.31-42.53-45.07.16-1.55.32-3.1.49-4.65C1749.06,497.31,1768.35,488.12,1805.2,493ZM1941,238l7.32,2.32c25.77,10.95,37.69,24.12,35.86,38.78-.2,1.62-.41,3.24-.61,4.86-.28,4-37.87,53-107.83,152.19-8.62,28.34-25.71,38.9-51.14,32.58-22.89-5.67-34.6-19.53-35.48-42.39,2.32-17.3,39.61-81.73,118.75-186.29C1920.93,235.77,1932,235.13,1941,238Z"/><path d="M165,390.25l3.07-1.62c66.11-25.7,112.61-14.32,137,29.66,17.45,31,11.41,84-10.79,161.14l1.55,2.69c63.14-9.88,103.76,4.7,121.69,39.9l6.67,13.09C448.59,683,432.14,741,385.8,814.34c-32.92,30.43-52.46,49.4-60.76,55.18-40.3,28.6-73.9,29.74-104.24,1.32-.53-.8-1.06-1.61-1.58-2.42-2.68-4.09-4.83-19.27-5.9-45.46-60.2-127-98.65-223.43-112-289.4C95.23,464.21,117,415.67,165,390.25Zm69.14,296q26.93,66.21,45.65,119.1l6.45-.66c53.58-36.72,79.07-79.24,74.6-131.65q-2.16-3.93-4.31-7.85C345,643.8,303,648.8,234.18,686.2Zm-34.76-90,5.26-3.19c27.87-69.41,38.17-116.36,24.26-143.35-8.34-.12-15.17,1.25-20.44,4.08l-5.68,3.07C176.21,471.14,174.91,517.88,199.42,596.17Z"/><path d="M439.92,382q3.57-1.46,7.15-2.88c10.58-4.25,34.71,2,70.92,19.28,29,23.13,48.36,47.53,59.1,72.87,20.75,48.88,17.33,110-3.14,185.53-18.85,33.36-33.31,53.33-45.07,59.2q-4.95,2.49-9.88,5c-26.27,13.4-50.61,8.51-74.67-15.41a129.31,129.31,0,0,1-18.89-26.91l-3.18-6.22c-24.83-48.6-36.85-117.08-29.45-204.25C402.63,419.14,419,390.47,439.92,382Zm39.62,276.44q5.52,6.29,11,12.59l4.2-2.09c30.33-15.14,41-65.32,33.55-151.34q-4.47-13-9-26c-22.86-35.23-38-51.53-44.35-48.92q-5.85,2.4-11.67,4.84c-19.29,53.2-16.7,115.61,4.23,186Q473.56,645.94,479.54,658.43Z"/><path d="M660,292.92l7.83-2.18c11.61-3.19,36.3,5.39,72.48,26.31,27.91,26,45.58,52.29,54,78.64,16.37,50.85,5.91,111.34-24.05,184.73-23.55,31.44-41,50-54,54.73q-5.48,2-10.93,4c-29.08,10.88-54.09,3.71-76.7-22.47A126.64,126.64,0,0,1,611.86,588c-.88-2.17-1.77-4.34-2.65-6.52-20.69-50.93-25.77-120.59-8.33-207C616.65,326.38,637,299.33,660,292.92Zm10.9,280q5.12,6.83,10.16,13.64l4.65-1.69c33.54-12.23,50.38-61.27,52.11-147.85q-3.26-13.42-6.55-26.85c-20.11-37.43-34.26-55.2-41.2-53.22q-6.41,1.83-12.81,3.69c-26.21,51.24-30.4,113.88-16.23,186.2Q666,559.86,670.91,572.9Z"/><path d="M895.29,253.91l7.77-1.27c11.52-1.88,34.46,8.33,67.36,31,24.42,26.57,39,52.49,44.6,77.59,10.92,48.45-5,103.29-41.43,168.18-26,26.8-44.85,42.28-58,45.43q-5.54,1.33-11.06,2.71c-29.42,7.32-53-1.63-72.3-27.87a113.63,113.63,0,0,1-13.41-28c-.63-2.08-1.26-4.17-1.9-6.25-14.82-48.9-12.48-113.62,13.12-191.72C850.16,280.77,872.5,257.7,895.29,253.91ZM877.72,513.18q4.26,6.77,8.48,13.53l4.69-1.13c33.84-8.15,55.12-51.8,65.33-131.52q-1.83-12.68-3.69-25.38c-15.78-36.4-27.67-54.11-34.57-52.92-4.26.72-8.5,1.46-12.75,2.21C874.8,362.8,864.38,420.18,870.78,488.2Q874.29,500.69,877.72,513.18Z"/><path d="M1092,232.3c30-2.2,49.77,21.34,58,69.38,12.64,35.22,20.35,52.59,24.14,52.37,38.2-69.07,64.34-106.59,73.93-115.62,9.93-4.15,18.61-6.17,26-6.13,19.3.14,33.37,12,41.7,35.23-4.82,131.21-7.58,209.28-5.5,235.54-4.72,13.47-12.85,20.38-24.46,20.82l-4.86.19c-18.86.78-29.55-12-32.47-39q.26-64.87-.35-130.14-15.44,18.74-30.39,37.87c-11.81,15.64-25.5,24-41.35,25.16l-2.53.18c-31,2.29-54.49-21.57-72.93-73.11q-1.93-10.25-6.94-9.79a1092.34,1092.34,0,0,0-43.72,197.44c-5.39,6.55-10.93,10.33-16.68,11.32l-6.85,1.19c-17.29.62-27.29-5.33-30.1-18.2l-1.77-8.13c5.23-68.93,20.63-150.43,50.53-242.16C1055.75,248.68,1071.43,233.84,1092,232.3Z"/><path d="M1432.13,232.94c30.7,2.44,47.52,27.55,49.4,73.88,8,35,13.54,52.45,17.41,52.83,48.11-59,79.63-90.07,90.57-97,10.63-2.35,19.7-2.89,27.14-1.69,19.54,3.16,32.22,16.57,37.58,39.64-22.35,122.36-35.47,195.17-36.82,220.15-6.58,11.89-15.78,17.07-27.66,15.65l-5-.58c-19.33-2.24-28.51-15.94-27.89-41.7q8.91-60.84,17-122.16-18.17,15.16-35.94,30.8c-14.1,12.84-29.15,18.6-45.41,17.24l-2.6-.22c-31.78-2.59-52.46-28.53-64.15-79.67-.38-6.6-2.29-10-5.7-10.22a971.93,971.93,0,0,0-71.43,178.75q-9.57,8-18.52,8.16l-7.14.11c-17.69-2-27-9-28.12-21.48q-.33-3.94-.68-7.9c14.84-63.93,41.75-138.18,84.64-219.84C1393.16,242.88,1411.08,231.29,1432.13,232.94Z"/><path d="M1647,477.1c26.3,8,38.86,19.26,37.73,33.07-.25,3.11-.51,6.22-.76,9.33-1.15,13.75-14.91,20.11-41,20l-5-.73c-20-6.05-31.64-17-35-33.5,0-1.25.11-2.51.17-3.76C1604,484.24,1618.43,475.73,1647,477.1Zm92.25-214.28,5.62,1.24c19.92,6.55,29.51,16,28.78,27.84-.07,1.31-.15,2.62-.23,3.93-.07,3.17-26.15,45.71-75,130.59-5.26,23.37-17.85,33.16-37.67,29.88-17.83-2.93-27.45-13.28-29.09-31.52,1-14,27-67.92,82.63-157.61C1724,262.74,1732.37,261.31,1739.25,262.82Z"/><path d="M1802.2,490c33.43,12.81,48.75,28.31,46.17,45.24q-.86,5.73-1.73,11.45c-2.61,16.87-20.86,23.08-54.36,20.23l-6.37-1.44c-25.28-9.58-39.39-24.31-42.53-45.07.16-1.55.32-3.1.49-4.65C1746.06,494.31,1765.35,485.12,1802.2,490ZM1938,235l7.32,2.32c25.77,10.95,37.69,24.12,35.86,38.78-.2,1.62-.41,3.24-.61,4.86-.28,4-37.87,53-107.83,152.19-8.62,28.34-25.71,38.9-51.14,32.58-22.89-5.67-34.6-19.53-35.48-42.39,2.32-17.3,39.61-81.73,118.75-186.29C1917.93,232.77,1929,232.13,1938,235Z"/><path d="M162,387.25l3.07-1.62c66.11-25.7,112.61-14.32,137,29.66,17.45,31,11.41,84-10.79,161.14l1.55,2.69c63.14-9.88,103.76,4.7,121.69,39.9l6.67,13.09C445.59,680,429.14,738,382.8,811.34c-32.92,30.43-52.46,49.4-60.76,55.18-40.3,28.6-73.9,29.74-104.24,1.32-.53-.8-1.06-1.61-1.58-2.42-2.68-4.09-4.83-19.27-5.9-45.46-60.2-127-98.65-223.43-112-289.4C92.23,461.21,114,412.67,162,387.25Zm69.14,296q26.93,66.21,45.65,119.1l6.45-.66c53.58-36.72,79.07-79.24,74.6-131.65q-2.16-3.93-4.31-7.85C342,640.8,300,645.8,231.18,683.2Zm-34.76-90,5.26-3.19c27.87-69.41,38.17-116.36,24.26-143.35-8.34-.12-15.17,1.25-20.44,4.08l-5.68,3.07C173.21,468.14,171.91,514.88,196.42,593.17Z"/><path d="M436.92,379q3.57-1.46,7.15-2.88c10.58-4.25,34.71,2,70.92,19.28,29,23.13,48.36,47.53,59.1,72.87,20.75,48.88,17.33,110-3.14,185.53-18.85,33.36-33.31,53.33-45.07,59.2q-4.95,2.49-9.88,5c-26.27,13.4-50.61,8.51-74.67-15.41a129.31,129.31,0,0,1-18.89-26.91l-3.18-6.22c-24.83-48.6-36.85-117.08-29.45-204.25C399.63,416.14,416,387.47,436.92,379Zm39.62,276.44q5.52,6.29,11,12.59l4.2-2.09c30.33-15.14,41-65.32,33.55-151.34q-4.47-13-9-26c-22.86-35.23-38-51.53-44.35-48.92q-5.85,2.4-11.67,4.84c-19.29,53.2-16.7,115.61,4.23,186Q470.56,642.94,476.54,655.43Z"/><path d="M657,289.92l7.83-2.18c11.61-3.19,36.3,5.39,72.48,26.31,27.91,26,45.58,52.29,54,78.64,16.37,50.85,5.91,111.34-24.05,184.73-23.55,31.44-41,50-54,54.73q-5.48,2-10.93,4c-29.08,10.88-54.09,3.71-76.7-22.47A126.64,126.64,0,0,1,608.86,585c-.88-2.17-1.77-4.34-2.65-6.52-20.69-50.93-25.77-120.59-8.33-207C613.65,323.38,634,296.33,657,289.92Zm10.9,280q5.12,6.83,10.16,13.64l4.65-1.69c33.54-12.23,50.38-61.27,52.11-147.85q-3.26-13.42-6.55-26.85c-20.11-37.43-34.26-55.2-41.2-53.22q-6.41,1.83-12.81,3.69c-26.21,51.24-30.4,113.88-16.23,186.2Q663,556.86,667.91,569.9Z"/><path d="M892.29,250.91l7.77-1.27c11.52-1.88,34.46,8.33,67.36,31,24.42,26.57,39,52.49,44.6,77.59,10.92,48.45-5,103.29-41.43,168.18-26,26.8-44.85,42.28-58,45.43q-5.54,1.33-11.06,2.71c-29.42,7.32-53-1.63-72.3-27.87a113.63,113.63,0,0,1-13.41-28c-.63-2.08-1.26-4.17-1.9-6.25-14.82-48.9-12.48-113.62,13.12-191.72C847.16,277.77,869.5,254.7,892.29,250.91ZM874.72,510.18q4.26,6.77,8.48,13.53l4.69-1.13c33.84-8.15,55.12-51.8,65.33-131.52q-1.83-12.68-3.69-25.38c-15.78-36.4-27.67-54.11-34.57-52.92-4.26.72-8.5,1.46-12.75,2.21C871.8,359.8,861.38,417.18,867.78,485.2Q871.29,497.69,874.72,510.18Z"/><path d="M1089,229.3c30-2.2,49.77,21.34,58,69.38,12.64,35.22,20.35,52.59,24.14,52.37,38.2-69.07,64.34-106.59,73.93-115.62,9.93-4.15,18.61-6.17,26-6.13,19.3.14,33.37,12,41.7,35.23-4.82,131.21-7.58,209.28-5.5,235.54-4.72,13.47-12.85,20.38-24.46,20.82l-4.86.19c-18.86.78-29.55-12-32.47-39q.26-64.87-.35-130.14-15.44,18.74-30.39,37.87c-11.81,15.64-25.5,24-41.35,25.16l-2.53.18c-31,2.29-54.49-21.57-72.93-73.11q-1.93-10.25-6.94-9.79a1092.34,1092.34,0,0,0-43.72,197.44c-5.39,6.55-10.93,10.33-16.68,11.32l-6.85,1.19c-17.29.62-27.29-5.33-30.1-18.2l-1.77-8.13c5.23-68.93,20.63-150.43,50.53-242.16C1052.75,245.68,1068.43,230.84,1089,229.3Z"/><path d="M1429.13,229.94c30.7,2.44,47.52,27.55,49.4,73.88,8,35,13.54,52.45,17.41,52.83,48.11-59,79.63-90.07,90.57-97,10.63-2.35,19.7-2.89,27.14-1.69,19.54,3.16,32.22,16.57,37.58,39.64-22.35,122.36-35.47,195.17-36.82,220.15-6.58,11.89-15.78,17.07-27.66,15.65l-5-.58c-19.33-2.24-28.51-15.94-27.89-41.7q8.91-60.84,17-122.16-18.17,15.16-35.94,30.8c-14.1,12.84-29.15,18.6-45.41,17.24l-2.6-.22c-31.78-2.59-52.46-28.53-64.15-79.67-.38-6.6-2.29-10-5.7-10.22a971.93,971.93,0,0,0-71.43,178.75q-9.57,8-18.52,8.16l-7.14.11c-17.69-1.95-27-9-28.12-21.48q-.33-3.94-.68-7.9c14.84-63.93,41.75-138.18,84.64-219.84C1390.16,239.88,1408.08,228.29,1429.13,229.94Z"/><path d="M1644,474.1c26.3,8,38.86,19.26,37.73,33.07-.25,3.11-.51,6.22-.76,9.33-1.15,13.75-14.91,20.11-41,20l-5-.73c-20-6.05-31.64-17-35-33.5,0-1.25.11-2.51.17-3.76C1601,481.24,1615.43,472.73,1644,474.1Zm92.25-214.28,5.62,1.24c19.92,6.55,29.51,16,28.78,27.84-.07,1.31-.15,2.62-.23,3.93-.07,3.17-26.15,45.71-75,130.59-5.26,23.37-17.85,33.16-37.67,29.88-17.83-2.93-27.45-13.28-29.09-31.52,1-14,27-67.92,82.63-157.61C1721,259.74,1729.37,258.31,1736.25,259.82Z"/><path d="M1799.2,487c33.43,12.81,48.75,28.31,46.17,45.24q-.86,5.73-1.73,11.45c-2.61,16.87-20.86,23.08-54.36,20.23l-6.37-1.44c-25.28-9.58-39.39-24.31-42.53-45.07.16-1.55.32-3.1.49-4.65C1743.06,491.31,1762.35,482.12,1799.2,487ZM1935,232l7.32,2.32c25.77,10.95,37.69,24.12,35.86,38.78-.2,1.62-.41,3.24-.61,4.86-.28,4-37.87,53-107.83,152.19-8.62,28.34-25.71,38.9-51.14,32.58-22.89-5.67-34.6-19.53-35.48-42.39,2.32-17.3,39.61-81.73,118.75-186.29C1914.93,229.77,1926,229.13,1935,232Z"/><path d="M159,384.25l3.07-1.62c66.11-25.7,112.61-14.32,137,29.66,17.45,31,11.41,84-10.79,161.14l1.55,2.69c63.14-9.88,103.76,4.7,121.69,39.9l6.67,13.09C442.59,677,426.14,735,379.8,808.34c-32.92,30.43-52.46,49.4-60.76,55.18-40.3,28.6-73.9,29.74-104.24,1.32-.53-.8-1.06-1.61-1.58-2.42-2.68-4.09-4.83-19.27-5.9-45.46-60.2-127-98.65-223.43-112-289.4C89.23,458.21,111,409.67,159,384.25Zm69.14,296q26.92,66.21,45.65,119.1l6.45-.66c53.58-36.72,79.07-79.24,74.6-131.65q-2.16-3.93-4.31-7.85C339,637.8,297,642.8,228.18,680.2Zm-34.76-90,5.26-3.19c27.87-69.41,38.17-116.36,24.26-143.35-8.34-.12-15.17,1.25-20.44,4.08l-5.68,3.07C170.21,465.14,168.91,511.88,193.42,590.17Z"/><path d="M433.92,376q3.57-1.46,7.15-2.88c10.58-4.25,34.71,2,70.92,19.28,29,23.13,48.36,47.53,59.1,72.87,20.75,48.88,17.33,110-3.14,185.53-18.85,33.36-33.31,53.33-45.07,59.2q-4.95,2.49-9.88,5c-26.27,13.4-50.61,8.51-74.67-15.41a129.31,129.31,0,0,1-18.89-26.91l-3.18-6.22c-24.83-48.6-36.85-117.08-29.45-204.25C396.63,413.14,413,384.47,433.92,376Zm39.62,276.44q5.52,6.29,11,12.59l4.2-2.09c30.33-15.14,41-65.32,33.55-151.34q-4.47-13-9-26c-22.86-35.23-38-51.53-44.35-48.92q-5.85,2.4-11.67,4.84c-19.29,53.2-16.7,115.61,4.23,186Q467.56,639.94,473.54,652.43Z"/><path d="M654,286.92l7.83-2.18c11.61-3.19,36.3,5.39,72.48,26.31,27.91,26,45.58,52.29,54,78.64,16.37,50.85,5.91,111.34-24.05,184.73-23.55,31.44-41,50-54,54.73q-5.48,2-10.93,4c-29.08,10.88-54.09,3.71-76.7-22.47A126.64,126.64,0,0,1,605.86,582c-.88-2.17-1.77-4.34-2.65-6.52-20.69-50.93-25.77-120.59-8.33-207C610.65,320.38,631,293.33,654,286.92Zm10.9,280q5.12,6.83,10.16,13.64l4.65-1.69c33.54-12.23,50.38-61.27,52.11-147.85q-3.26-13.42-6.55-26.85c-20.11-37.43-34.26-55.2-41.2-53.22q-6.41,1.83-12.81,3.69c-26.21,51.24-30.4,113.88-16.23,186.2Q660,553.86,664.91,566.9Z"/><path d="M889.29,247.91l7.77-1.27c11.52-1.88,34.46,8.33,67.36,31,24.42,26.57,39,52.49,44.6,77.59,10.92,48.45-5,103.29-41.43,168.18-26,26.8-44.85,42.28-58,45.43q-5.54,1.33-11.06,2.71c-29.42,7.32-53-1.63-72.3-27.87a113.63,113.63,0,0,1-13.41-28c-.63-2.08-1.26-4.17-1.9-6.25-14.82-48.9-12.48-113.62,13.12-191.72C844.16,274.77,866.5,251.7,889.29,247.91ZM871.72,507.18q4.26,6.76,8.48,13.53l4.69-1.13c33.84-8.15,55.12-51.8,65.33-131.52q-1.83-12.68-3.69-25.38c-15.78-36.4-27.67-54.11-34.57-52.92-4.26.72-8.5,1.46-12.75,2.21C868.8,356.8,858.38,414.18,864.78,482.2Q868.29,494.69,871.72,507.18Z"/><path d="M1086,226.3c30-2.2,49.77,21.34,58,69.38,12.64,35.22,20.35,52.59,24.14,52.37,38.2-69.07,64.34-106.59,73.93-115.62,9.93-4.15,18.61-6.17,26-6.13,19.3.14,33.37,12,41.7,35.23-4.82,131.21-7.58,209.28-5.5,235.54-4.72,13.47-12.85,20.38-24.46,20.82l-4.86.19c-18.86.78-29.55-12-32.47-39q.26-64.87-.35-130.14-15.44,18.74-30.39,37.87c-11.81,15.64-25.5,24-41.35,25.16l-2.53.18c-31,2.29-54.49-21.57-72.93-73.11q-1.93-10.25-6.94-9.79a1092.34,1092.34,0,0,0-43.72,197.44c-5.39,6.55-10.93,10.33-16.68,11.32l-6.85,1.19c-17.29.62-27.29-5.33-30.1-18.2l-1.77-8.13c5.23-68.93,20.63-150.43,50.53-242.16C1049.75,242.68,1065.43,227.84,1086,226.3Z"/><path d="M1426.13,226.94c30.7,2.44,47.52,27.55,49.4,73.88,8,35,13.54,52.45,17.41,52.83,48.11-59,79.63-90.07,90.57-97,10.63-2.35,19.7-2.89,27.14-1.69,19.54,3.16,32.22,16.57,37.58,39.64-22.35,122.36-35.47,195.17-36.82,220.15-6.58,11.89-15.78,17.07-27.66,15.65l-5-.58c-19.33-2.24-28.51-15.94-27.89-41.7q8.91-60.84,17-122.16-18.17,15.16-35.94,30.8c-14.1,12.84-29.15,18.6-45.41,17.24l-2.6-.22c-31.78-2.59-52.46-28.53-64.15-79.67-.38-6.6-2.29-10-5.7-10.22a971.93,971.93,0,0,0-71.43,178.75q-9.57,8-18.52,8.16l-7.14.11c-17.69-1.95-27-9-28.12-21.48q-.33-3.94-.68-7.9c14.84-63.93,41.75-138.18,84.64-219.84C1387.16,236.88,1405.08,225.29,1426.13,226.94Z"/><path d="M1641,471.1c26.3,8,38.86,19.26,37.73,33.07-.25,3.11-.51,6.22-.76,9.33-1.15,13.75-14.91,20.11-41,20l-5-.73c-20-6.05-31.64-17-35-33.5,0-1.25.11-2.51.17-3.76C1598,478.24,1612.43,469.73,1641,471.1Zm92.25-214.28,5.62,1.24c19.92,6.55,29.51,16,28.78,27.84-.07,1.31-.15,2.62-.23,3.93-.07,3.17-26.15,45.71-75,130.59-5.26,23.37-17.85,33.16-37.67,29.88-17.83-2.93-27.45-13.28-29.09-31.52,1-14,27-67.92,82.63-157.61C1718,256.74,1726.37,255.31,1733.25,256.82Z"/><path d="M1796.2,484c33.43,12.81,48.75,28.31,46.17,45.24q-.86,5.73-1.73,11.45c-2.61,16.87-20.86,23.08-54.36,20.23l-6.37-1.44c-25.28-9.58-39.39-24.31-42.53-45.07.16-1.55.32-3.1.49-4.65C1740.06,488.31,1759.35,479.12,1796.2,484ZM1932,229l7.32,2.32c25.77,10.95,37.69,24.12,35.86,38.78-.2,1.62-.41,3.24-.61,4.86-.28,4-37.87,53-107.83,152.19-8.62,28.34-25.71,38.9-51.14,32.58-22.89-5.67-34.6-19.53-35.48-42.39,2.32-17.3,39.61-81.73,118.75-186.29C1911.93,226.77,1923,226.13,1932,229Z"/><path d="M156,381.25l3.07-1.62c66.11-25.7,112.61-14.32,137,29.66,17.45,31,11.41,84-10.79,161.14l1.55,2.69c63.14-9.88,103.76,4.7,121.69,39.9l6.67,13.09C439.59,674,423.14,732,376.8,805.34c-32.92,30.43-52.46,49.4-60.76,55.18-40.3,28.6-73.9,29.74-104.24,1.32-.53-.8-1.06-1.61-1.58-2.42-2.68-4.09-4.83-19.27-5.9-45.46-60.2-127-98.65-223.43-112-289.4C86.23,455.21,108,406.67,156,381.25Zm69.14,296q26.92,66.21,45.65,119.1l6.45-.66c53.58-36.72,79.07-79.24,74.6-131.65q-2.16-3.93-4.31-7.85C336,634.8,294,639.8,225.18,677.2Zm-34.76-90,5.26-3.19c27.87-69.41,38.17-116.36,24.26-143.35-8.34-.12-15.17,1.25-20.44,4.08l-5.68,3.07C167.21,462.14,165.91,508.88,190.42,587.17Z"/><path d="M430.92,373q3.57-1.46,7.15-2.88c10.58-4.25,34.71,2,70.92,19.28,29,23.13,48.36,47.53,59.1,72.87,20.75,48.88,17.33,110-3.14,185.53-18.85,33.36-33.31,53.33-45.07,59.2q-4.95,2.49-9.88,5c-26.27,13.4-50.61,8.51-74.67-15.41a129.31,129.31,0,0,1-18.89-26.91l-3.18-6.22c-24.83-48.6-36.85-117.08-29.45-204.25C393.63,410.14,410,381.47,430.92,373Zm39.62,276.44q5.52,6.29,11,12.59l4.2-2.09c30.33-15.14,41-65.32,33.55-151.34q-4.47-13-9-26c-22.86-35.23-38-51.53-44.35-48.92q-5.85,2.4-11.67,4.84c-19.29,53.2-16.7,115.61,4.23,186Q464.56,636.94,470.54,649.43Z"/><path d="M651,283.92l7.83-2.18c11.61-3.19,36.3,5.39,72.48,26.31,27.91,26,45.58,52.29,54,78.64,16.37,50.85,5.91,111.34-24.05,184.73-23.55,31.44-41,50-54,54.73q-5.48,2-10.93,4c-29.08,10.88-54.09,3.71-76.7-22.47A126.64,126.64,0,0,1,602.86,579c-.88-2.17-1.77-4.34-2.65-6.52-20.69-50.93-25.77-120.59-8.33-207C607.65,317.38,628,290.33,651,283.92Zm10.9,280q5.12,6.83,10.16,13.64l4.65-1.69c33.54-12.23,50.38-61.27,52.11-147.85q-3.26-13.42-6.55-26.85c-20.11-37.43-34.26-55.2-41.2-53.22q-6.41,1.83-12.81,3.69c-26.21,51.24-30.4,113.88-16.23,186.2Q657,550.86,661.91,563.9Z"/><path d="M886.29,244.91l7.77-1.27c11.52-1.88,34.46,8.33,67.36,31,24.42,26.57,39,52.49,44.6,77.59,10.92,48.45-5,103.29-41.43,168.18-26,26.8-44.85,42.28-58,45.43q-5.54,1.33-11.06,2.71c-29.42,7.32-53-1.63-72.3-27.87a113.63,113.63,0,0,1-13.41-28c-.63-2.08-1.26-4.17-1.9-6.25-14.82-48.9-12.48-113.62,13.12-191.72C841.16,271.77,863.5,248.7,886.29,244.91ZM868.72,504.18q4.26,6.76,8.48,13.53l4.69-1.13c33.84-8.15,55.12-51.8,65.33-131.52q-1.83-12.68-3.69-25.38c-15.78-36.4-27.67-54.11-34.57-52.92-4.26.72-8.5,1.46-12.75,2.21C865.8,353.8,855.38,411.18,861.78,479.2Q865.29,491.69,868.72,504.18Z"/><path d="M1083,223.3c30-2.2,49.77,21.34,58,69.38,12.64,35.22,20.35,52.59,24.14,52.37,38.2-69.07,64.34-106.59,73.93-115.62,9.93-4.15,18.61-6.17,26-6.13,19.3.14,33.37,12,41.7,35.23-4.82,131.21-7.58,209.28-5.5,235.54-4.72,13.47-12.85,20.38-24.46,20.82l-4.86.19c-18.86.78-29.55-12-32.47-39q.26-64.87-.35-130.14-15.44,18.74-30.39,37.87c-11.81,15.64-25.5,24-41.35,25.16l-2.53.18c-31,2.29-54.49-21.57-72.93-73.11q-1.93-10.25-6.94-9.79a1092.34,1092.34,0,0,0-43.72,197.44c-5.39,6.55-10.93,10.33-16.68,11.32l-6.85,1.19c-17.29.62-27.29-5.33-30.1-18.2l-1.77-8.13c5.23-68.93,20.63-150.43,50.53-242.16C1046.75,239.68,1062.43,224.84,1083,223.3Z"/><path d="M1423.13,223.94c30.7,2.44,47.52,27.55,49.4,73.88,8,35,13.54,52.45,17.41,52.83,48.11-59,79.63-90.07,90.57-97,10.63-2.35,19.7-2.89,27.14-1.69,19.54,3.16,32.22,16.57,37.58,39.64-22.35,122.36-35.47,195.17-36.82,220.15-6.58,11.89-15.78,17.07-27.66,15.65l-5-.58c-19.33-2.24-28.51-15.94-27.89-41.7q8.91-60.84,17-122.16-18.17,15.16-35.94,30.8c-14.1,12.84-29.15,18.6-45.41,17.24l-2.6-.22c-31.78-2.59-52.46-28.53-64.15-79.67-.38-6.6-2.29-10-5.7-10.22a971.93,971.93,0,0,0-71.43,178.75q-9.57,8-18.52,8.16l-7.14.11c-17.69-1.95-27-9-28.12-21.48q-.33-3.94-.68-7.9c14.84-63.93,41.75-138.18,84.64-219.84C1384.16,233.88,1402.08,222.29,1423.13,223.94Z"/><path d="M1638,468.1c26.3,8,38.86,19.26,37.73,33.07-.25,3.11-.51,6.22-.76,9.33-1.15,13.75-14.91,20.11-41,20l-5-.73c-20-6.05-31.64-17-35-33.5,0-1.25.11-2.51.17-3.76C1595,475.24,1609.43,466.73,1638,468.1Zm92.25-214.28,5.62,1.24c19.92,6.55,29.51,16,28.78,27.84-.07,1.31-.15,2.62-.23,3.93-.07,3.17-26.15,45.71-75,130.59-5.26,23.37-17.85,33.16-37.67,29.88-17.83-2.93-27.45-13.28-29.09-31.52,1-14,27-67.92,82.63-157.61C1715,253.74,1723.37,252.31,1730.25,253.82Z"/><path d="M1793.2,481c33.43,12.81,48.75,28.31,46.17,45.24q-.86,5.73-1.73,11.45c-2.61,16.87-20.86,23.08-54.36,20.23l-6.37-1.44c-25.28-9.58-39.39-24.31-42.53-45.07.16-1.55.32-3.1.49-4.65C1737.06,485.31,1756.35,476.12,1793.2,481ZM1929,226l7.32,2.32c25.77,10.95,37.69,24.12,35.86,38.78-.2,1.62-.41,3.24-.61,4.86-.28,4-37.87,53-107.83,152.19-8.62,28.34-25.71,38.9-51.14,32.58-22.89-5.67-34.6-19.53-35.48-42.39,2.32-17.3,39.61-81.73,118.75-186.29C1908.93,223.77,1920,223.13,1929,226Z"/><path d="M153,378.25l3.07-1.62c66.11-25.7,112.61-14.32,137,29.66,17.45,31,11.41,84-10.79,161.14l1.55,2.69c63.14-9.88,103.76,4.7,121.69,39.9l6.67,13.09C436.59,671,420.14,729,373.8,802.34c-32.92,30.43-52.46,49.4-60.76,55.18-40.3,28.6-73.9,29.74-104.24,1.32-.53-.8-1.06-1.61-1.58-2.42-2.68-4.09-4.83-19.27-5.9-45.46-60.2-127-98.65-223.43-112-289.4C83.23,452.21,105,403.67,153,378.25Zm69.14,296q26.92,66.21,45.65,119.1l6.45-.66c53.58-36.72,79.07-79.24,74.6-131.65q-2.16-3.93-4.31-7.85C333,631.8,291,636.8,222.18,674.2Zm-34.76-90,5.26-3.19c27.87-69.41,38.17-116.36,24.26-143.35-8.34-.12-15.17,1.25-20.44,4.08l-5.68,3.07C164.21,459.14,162.91,505.88,187.42,584.17Z"/><path d="M427.92,370q3.57-1.46,7.15-2.88c10.58-4.25,34.71,2,70.92,19.28,29,23.13,48.36,47.53,59.1,72.87,20.75,48.88,17.33,110-3.14,185.53-18.85,33.36-33.31,53.33-45.07,59.2q-4.95,2.49-9.88,5c-26.27,13.4-50.61,8.51-74.67-15.41a129.31,129.31,0,0,1-18.89-26.91l-3.18-6.22c-24.83-48.6-36.85-117.08-29.45-204.25C390.63,407.14,407,378.47,427.92,370Zm39.62,276.44q5.52,6.29,11,12.59l4.2-2.09c30.33-15.14,41-65.32,33.55-151.34q-4.47-13-9-26c-22.86-35.23-38-51.53-44.35-48.92q-5.85,2.4-11.67,4.84c-19.29,53.2-16.7,115.61,4.23,186Q461.56,633.94,467.54,646.43Z"/><path d="M648,280.92l7.83-2.18c11.61-3.19,36.3,5.39,72.48,26.31,27.91,26,45.58,52.29,54,78.64,16.37,50.85,5.91,111.34-24.05,184.73-23.55,31.44-41,50-54,54.73q-5.48,2-10.93,4c-29.08,10.88-54.09,3.71-76.7-22.47A126.64,126.64,0,0,1,599.86,576c-.88-2.17-1.77-4.34-2.65-6.52-20.69-50.93-25.77-120.59-8.33-207C604.65,314.38,625,287.33,648,280.92Zm10.9,280q5.12,6.83,10.16,13.64l4.65-1.69c33.54-12.23,50.38-61.27,52.11-147.85q-3.26-13.42-6.55-26.85c-20.11-37.43-34.26-55.2-41.2-53.22q-6.41,1.83-12.81,3.69c-26.21,51.24-30.4,113.88-16.23,186.2Q654,547.86,658.91,560.9Z"/><path d="M883.29,241.91l7.77-1.27c11.52-1.88,34.46,8.33,67.36,31,24.42,26.57,39,52.49,44.6,77.59,10.92,48.45-5,103.29-41.43,168.18-26,26.8-44.85,42.28-58,45.43q-5.54,1.33-11.06,2.71c-29.42,7.32-53-1.63-72.3-27.87a113.63,113.63,0,0,1-13.41-28c-.63-2.08-1.26-4.17-1.9-6.25-14.82-48.9-12.48-113.62,13.12-191.72C838.16,268.77,860.5,245.7,883.29,241.91ZM865.72,501.18q4.26,6.76,8.48,13.53l4.69-1.13c33.84-8.15,55.12-51.8,65.33-131.52q-1.83-12.68-3.69-25.38c-15.78-36.4-27.67-54.11-34.57-52.92-4.26.72-8.5,1.46-12.75,2.21C862.8,350.8,852.38,408.18,858.78,476.2Q862.29,488.69,865.72,501.18Z"/><path d="M1080,220.3c30-2.2,49.77,21.34,58,69.38,12.64,35.22,20.35,52.59,24.14,52.37,38.2-69.07,64.34-106.59,73.93-115.62,9.93-4.15,18.61-6.17,26-6.13,19.3.14,33.37,12,41.7,35.23-4.82,131.21-7.58,209.28-5.5,235.54-4.72,13.47-12.85,20.38-24.46,20.82l-4.86.19c-18.86.78-29.55-12-32.47-39q.26-64.87-.35-130.14-15.44,18.74-30.39,37.87c-11.81,15.64-25.5,24-41.35,25.16l-2.53.18c-31,2.29-54.49-21.57-72.93-73.11q-1.93-10.25-6.94-9.79a1092.34,1092.34,0,0,0-43.72,197.44c-5.39,6.55-10.93,10.33-16.68,11.32l-6.85,1.19c-17.29.62-27.29-5.33-30.1-18.2l-1.77-8.13c5.23-68.93,20.63-150.43,50.53-242.16C1043.75,236.68,1059.43,221.84,1080,220.3Z"/><path d="M1420.13,220.94c30.7,2.44,47.52,27.55,49.4,73.88,8,35,13.54,52.45,17.41,52.83,48.11-59,79.63-90.07,90.57-97,10.63-2.35,19.7-2.89,27.14-1.69,19.54,3.16,32.22,16.57,37.58,39.64-22.35,122.36-35.47,195.17-36.82,220.15-6.58,11.89-15.78,17.07-27.66,15.65l-5-.58c-19.33-2.24-28.51-15.94-27.89-41.7q8.91-60.84,17-122.16-18.17,15.16-35.94,30.8c-14.1,12.84-29.15,18.6-45.41,17.24l-2.6-.22c-31.78-2.59-52.46-28.53-64.15-79.67-.38-6.6-2.29-10-5.7-10.22a971.93,971.93,0,0,0-71.43,178.75q-9.57,8-18.52,8.16l-7.14.11c-17.69-1.95-27-9-28.12-21.48q-.33-3.94-.68-7.9c14.84-63.93,41.75-138.18,84.64-219.84C1381.16,230.88,1399.08,219.29,1420.13,220.94Z"/><path d="M1635,465.1c26.3,8,38.86,19.26,37.73,33.07-.25,3.11-.51,6.22-.76,9.33-1.15,13.75-14.91,20.11-41,20l-5-.73c-20-6.05-31.64-17-35-33.5,0-1.25.11-2.51.17-3.76C1592,472.24,1606.43,463.73,1635,465.1Zm92.25-214.28,5.62,1.24c19.92,6.55,29.51,16,28.78,27.84-.07,1.31-.15,2.62-.23,3.93-.07,3.17-26.15,45.71-75,130.59-5.26,23.37-17.85,33.16-37.67,29.88-17.83-2.93-27.45-13.28-29.09-31.52,1-14,27-67.92,82.63-157.61C1712,250.74,1720.37,249.31,1727.25,250.82Z"/><path d="M1790.2,478c33.43,12.81,48.75,28.31,46.17,45.24q-.86,5.73-1.73,11.45c-2.61,16.87-20.86,23.08-54.36,20.23l-6.37-1.44c-25.28-9.58-39.39-24.31-42.53-45.07.16-1.55.32-3.1.49-4.65C1734.06,482.31,1753.35,473.12,1790.2,478ZM1926,223l7.32,2.32c25.77,10.95,37.69,24.12,35.86,38.78-.2,1.62-.41,3.24-.61,4.86-.28,4-37.87,53-107.83,152.19-8.62,28.34-25.71,38.9-51.14,32.58-22.89-5.67-34.6-19.53-35.48-42.39,2.32-17.3,39.61-81.73,118.75-186.29C1905.93,220.77,1917,220.13,1926,223Z"/><path d="M150,375.25l3.07-1.62c66.11-25.7,112.61-14.32,137,29.66,17.45,31,11.41,84-10.79,161.14l1.55,2.69c63.14-9.88,103.76,4.7,121.69,39.9l6.67,13.09C433.59,668,417.14,726,370.8,799.34c-32.92,30.43-52.46,49.4-60.76,55.18-40.3,28.6-73.9,29.74-104.24,1.32-.53-.8-1.06-1.61-1.58-2.42-2.68-4.09-4.83-19.27-5.9-45.46-60.2-127-98.65-223.43-112-289.4C80.23,449.21,102,400.67,150,375.25Zm69.14,296q26.92,66.21,45.65,119.1l6.45-.66c53.58-36.72,79.07-79.24,74.6-131.65q-2.16-3.93-4.31-7.85C330,628.8,288,633.8,219.18,671.2Zm-34.76-90,5.26-3.19c27.87-69.41,38.17-116.36,24.26-143.35-8.34-.12-15.17,1.25-20.44,4.08l-5.68,3.07C161.21,456.14,159.91,502.88,184.42,581.17Z"/><path d="M424.92,367q3.57-1.46,7.15-2.88c10.58-4.25,34.71,2,70.92,19.28,29,23.13,48.36,47.53,59.1,72.87,20.75,48.88,17.33,110-3.14,185.53-18.85,33.36-33.31,53.33-45.07,59.2q-5,2.49-9.88,5c-26.27,13.4-50.61,8.51-74.67-15.41a129.31,129.31,0,0,1-18.89-26.91l-3.18-6.22c-24.83-48.6-36.85-117.08-29.45-204.25C387.63,404.14,404,375.47,424.92,367Zm39.62,276.44q5.52,6.29,11,12.59l4.2-2.09c30.33-15.14,41-65.32,33.55-151.34q-4.47-13-9-26c-22.86-35.23-38-51.53-44.35-48.92q-5.85,2.4-11.67,4.84c-19.29,53.2-16.7,115.61,4.23,186Q458.56,630.94,464.54,643.43Z"/><path d="M645,277.92l7.83-2.18c11.61-3.19,36.3,5.39,72.48,26.31,27.91,26,45.58,52.29,54,78.64,16.37,50.85,5.91,111.34-24.05,184.73-23.55,31.44-41,50-54,54.73q-5.48,2-10.93,4c-29.08,10.88-54.09,3.71-76.7-22.47A126.64,126.64,0,0,1,596.86,573c-.88-2.17-1.77-4.34-2.65-6.52-20.69-50.93-25.77-120.59-8.33-207C601.65,311.38,622,284.33,645,277.92Zm10.9,280q5.12,6.83,10.16,13.64l4.65-1.69c33.54-12.23,50.38-61.27,52.11-147.85q-3.26-13.42-6.55-26.85c-20.11-37.43-34.26-55.2-41.2-53.22q-6.41,1.83-12.81,3.69c-26.21,51.24-30.4,113.88-16.23,186.2Q651,544.86,655.91,557.9Z"/><path d="M880.29,238.91l7.77-1.27c11.52-1.88,34.46,8.33,67.36,31,24.42,26.57,39,52.49,44.6,77.59,10.92,48.45-5,103.29-41.43,168.18-26,26.8-44.85,42.28-58,45.43q-5.54,1.33-11.06,2.71c-29.42,7.32-53-1.63-72.3-27.87a113.63,113.63,0,0,1-13.41-28c-.63-2.08-1.26-4.17-1.9-6.25-14.82-48.9-12.48-113.62,13.12-191.72C835.16,265.77,857.5,242.7,880.29,238.91ZM862.72,498.18q4.26,6.76,8.48,13.53l4.69-1.13c33.84-8.15,55.12-51.8,65.33-131.52q-1.83-12.68-3.69-25.38c-15.78-36.4-27.67-54.11-34.57-52.92-4.26.72-8.5,1.46-12.75,2.21C859.8,347.8,849.38,405.18,855.78,473.2Q859.29,485.69,862.72,498.18Z"/><path d="M1077,217.3c30-2.2,49.77,21.34,58,69.38,12.64,35.22,20.35,52.59,24.14,52.37,38.2-69.07,64.34-106.59,73.93-115.62,9.93-4.15,18.61-6.17,26-6.13,19.3.14,33.37,12,41.7,35.23-4.82,131.21-7.58,209.28-5.5,235.54-4.72,13.47-12.85,20.38-24.46,20.82l-4.86.19c-18.86.78-29.55-12-32.47-39q.26-64.87-.35-130.14-15.44,18.74-30.39,37.87c-11.81,15.64-25.5,24-41.35,25.16l-2.53.18c-31,2.29-54.49-21.57-72.93-73.11q-1.93-10.25-6.94-9.79a1092.34,1092.34,0,0,0-43.72,197.44c-5.39,6.55-10.93,10.33-16.68,11.32l-6.85,1.19c-17.29.62-27.29-5.33-30.1-18.2l-1.77-8.13c5.23-68.93,20.63-150.43,50.53-242.16C1040.75,233.68,1056.43,218.84,1077,217.3Z"/><path d="M1417.13,217.94c30.7,2.44,47.52,27.55,49.4,73.88,8,35,13.54,52.45,17.41,52.83,48.11-59,79.63-90.07,90.57-97,10.63-2.35,19.7-2.89,27.14-1.69,19.54,3.16,32.22,16.57,37.58,39.64-22.35,122.36-35.47,195.17-36.82,220.15-6.58,11.89-15.78,17.07-27.66,15.65l-5-.58c-19.33-2.24-28.51-15.94-27.89-41.7q8.91-60.84,17-122.16-18.17,15.16-35.94,30.8c-14.1,12.84-29.15,18.6-45.41,17.24l-2.6-.22c-31.78-2.59-52.46-28.53-64.15-79.67-.38-6.6-2.29-10-5.7-10.22a971.93,971.93,0,0,0-71.43,178.75q-9.57,8-18.52,8.16l-7.14.11c-17.69-1.95-27-9-28.12-21.48q-.33-3.94-.68-7.9c14.84-63.93,41.75-138.18,84.64-219.84C1378.16,227.88,1396.08,216.29,1417.13,217.94Z"/><path d="M1632,462.1c26.3,8,38.86,19.26,37.73,33.07-.25,3.11-.51,6.22-.76,9.33-1.15,13.75-14.91,20.11-41,20l-5-.73c-20-6.05-31.64-17-35-33.5,0-1.25.11-2.51.17-3.76C1589,469.24,1603.43,460.73,1632,462.1Zm92.25-214.28,5.62,1.24c19.92,6.55,29.51,16,28.78,27.84-.07,1.31-.15,2.62-.23,3.93-.07,3.17-26.15,45.71-75,130.59-5.26,23.37-17.85,33.16-37.67,29.88-17.83-2.93-27.45-13.28-29.09-31.52,1-14,27-67.92,82.63-157.61C1709,247.74,1717.37,246.31,1724.25,247.82Z"/><path d="M1787.2,475c33.43,12.81,48.75,28.31,46.17,45.24q-.86,5.73-1.73,11.45c-2.61,16.87-20.86,23.08-54.36,20.23l-6.37-1.44c-25.28-9.58-39.39-24.31-42.53-45.07.16-1.55.32-3.1.49-4.65C1731.06,479.31,1750.35,470.12,1787.2,475ZM1923,220l7.32,2.32c25.77,10.95,37.69,24.12,35.86,38.78-.2,1.62-.41,3.24-.61,4.86-.28,4-37.87,53-107.83,152.19-8.62,28.34-25.71,38.9-51.14,32.58-22.89-5.67-34.6-19.53-35.48-42.39,2.32-17.3,39.61-81.73,118.75-186.29C1902.93,217.77,1914,217.13,1923,220Z"/><path d="M147,372.25l3.07-1.62c66.11-25.7,112.61-14.32,137,29.66,17.45,31,11.41,84-10.79,161.14l1.55,2.69c63.14-9.88,103.76,4.7,121.69,39.9l6.67,13.09C430.59,665,414.14,723,367.8,796.34c-32.92,30.43-52.46,49.4-60.76,55.18-40.3,28.6-73.9,29.74-104.24,1.32-.53-.8-1.06-1.61-1.58-2.42-2.68-4.09-4.83-19.27-5.9-45.46-60.2-127-98.65-223.43-112-289.4C77.23,446.21,99,397.67,147,372.25Zm69.14,296q26.92,66.21,45.65,119.1l6.45-.66c53.58-36.72,79.07-79.24,74.6-131.65q-2.16-3.93-4.31-7.85C327,625.8,285,630.8,216.18,668.2Zm-34.76-90,5.26-3.19c27.87-69.41,38.17-116.36,24.26-143.35-8.34-.12-15.17,1.25-20.44,4.08l-5.68,3.07C158.21,453.14,156.91,499.88,181.42,578.17Z"/><path d="M421.92,364q3.57-1.46,7.15-2.88c10.58-4.25,34.71,2,70.92,19.28,29,23.13,48.36,47.53,59.1,72.87,20.75,48.88,17.33,110-3.14,185.53-18.85,33.36-33.31,53.33-45.07,59.2q-5,2.49-9.88,5c-26.27,13.4-50.61,8.51-74.67-15.41a129.31,129.31,0,0,1-18.89-26.91l-3.18-6.22c-24.83-48.6-36.85-117.08-29.45-204.25C384.63,401.14,401,372.47,421.92,364Zm39.62,276.44q5.52,6.29,11,12.59l4.2-2.09c30.33-15.14,41-65.32,33.55-151.34q-4.47-13-9-26c-22.86-35.23-38-51.53-44.35-48.92q-5.85,2.4-11.67,4.84c-19.29,53.2-16.7,115.61,4.23,186Q455.56,627.94,461.54,640.43Z"/><path d="M642,274.92l7.83-2.18c11.61-3.19,36.3,5.39,72.48,26.31,27.91,26,45.58,52.29,54,78.64,16.37,50.85,5.91,111.34-24.05,184.73-23.55,31.44-41,50-54,54.73q-5.48,2-10.93,4c-29.08,10.88-54.09,3.71-76.7-22.47A126.64,126.64,0,0,1,593.86,570c-.88-2.17-1.77-4.34-2.65-6.52-20.69-50.93-25.77-120.59-8.33-207C598.65,308.38,619,281.33,642,274.92Zm10.9,280q5.12,6.83,10.16,13.64l4.65-1.69c33.54-12.23,50.38-61.27,52.11-147.85q-3.26-13.42-6.55-26.85c-20.11-37.43-34.26-55.2-41.2-53.22q-6.41,1.83-12.81,3.69c-26.21,51.24-30.4,113.88-16.23,186.2Q648,541.86,652.91,554.9Z"/><path d="M877.29,235.91l7.77-1.27c11.52-1.88,34.46,8.33,67.36,31,24.42,26.57,39,52.49,44.6,77.59,10.92,48.45-5,103.29-41.43,168.18-26,26.8-44.85,42.28-58,45.43q-5.54,1.33-11.06,2.71c-29.42,7.32-53-1.63-72.3-27.87a113.63,113.63,0,0,1-13.41-28c-.63-2.08-1.26-4.17-1.9-6.25-14.82-48.9-12.48-113.62,13.12-191.72C832.16,262.77,854.5,239.7,877.29,235.91ZM859.72,495.18q4.26,6.76,8.48,13.53l4.69-1.13c33.84-8.15,55.12-51.8,65.33-131.52q-1.83-12.68-3.69-25.38c-15.78-36.4-27.67-54.11-34.57-52.92-4.26.72-8.5,1.46-12.75,2.21C856.8,344.8,846.38,402.18,852.78,470.2Q856.29,482.69,859.72,495.18Z"/><path d="M1074,214.3c30-2.2,49.77,21.34,58,69.38,12.64,35.22,20.35,52.59,24.14,52.37,38.2-69.07,64.34-106.59,73.93-115.62,9.93-4.15,18.61-6.17,26-6.13,19.3.14,33.37,12,41.7,35.23-4.82,131.21-7.58,209.28-5.5,235.54-4.72,13.47-12.85,20.38-24.46,20.82l-4.86.19c-18.86.78-29.55-12-32.47-39q.26-64.87-.35-130.14-15.44,18.74-30.39,37.87c-11.81,15.64-25.5,24-41.35,25.16l-2.53.18c-31,2.29-54.49-21.57-72.93-73.11q-1.93-10.25-6.94-9.79a1092.34,1092.34,0,0,0-43.72,197.44c-5.39,6.55-10.93,10.33-16.68,11.32l-6.85,1.19c-17.29.62-27.29-5.33-30.1-18.2l-1.77-8.13c5.23-68.93,20.63-150.43,50.53-242.16C1037.75,230.68,1053.43,215.84,1074,214.3Z"/><path d="M1414.13,214.94c30.7,2.44,47.52,27.55,49.4,73.88,8,35,13.54,52.45,17.41,52.83,48.11-59,79.63-90.07,90.57-97,10.63-2.35,19.7-2.89,27.14-1.69,19.54,3.16,32.22,16.57,37.58,39.64-22.35,122.36-35.47,195.17-36.82,220.15-6.58,11.89-15.78,17.07-27.66,15.65l-5-.58c-19.33-2.24-28.51-15.94-27.89-41.7q8.91-60.84,17-122.16-18.17,15.16-35.94,30.8c-14.1,12.84-29.15,18.6-45.41,17.24l-2.6-.22c-31.78-2.59-52.46-28.53-64.15-79.67-.38-6.6-2.29-10-5.7-10.22a971.93,971.93,0,0,0-71.43,178.75q-9.57,8-18.52,8.16l-7.14.11c-17.69-1.95-27-9-28.12-21.48q-.33-3.94-.68-7.9c14.84-63.93,41.75-138.18,84.64-219.84C1375.16,224.88,1393.08,213.29,1414.13,214.94Z"/><path d="M1629,459.1c26.3,8,38.86,19.26,37.73,33.07-.25,3.11-.51,6.22-.76,9.33-1.15,13.75-14.91,20.11-41,20l-5-.73c-20-6.05-31.64-17-35-33.5,0-1.25.11-2.51.17-3.76C1586,466.24,1600.43,457.73,1629,459.1Zm92.25-214.28,5.62,1.24c19.92,6.55,29.51,16,28.78,27.84-.07,1.31-.15,2.62-.23,3.93-.07,3.17-26.15,45.71-75,130.59-5.26,23.37-17.85,33.16-37.67,29.88-17.83-2.93-27.45-13.28-29.09-31.52,1-14,27-67.92,82.63-157.61C1706,244.74,1714.37,243.31,1721.25,244.82Z"/><path d="M1784.2,472c33.43,12.81,48.75,28.31,46.17,45.24q-.86,5.73-1.73,11.45c-2.61,16.87-20.86,23.08-54.36,20.23l-6.37-1.44c-25.28-9.58-39.39-24.31-42.53-45.07.16-1.55.32-3.1.49-4.65C1728.06,476.31,1747.35,467.12,1784.2,472ZM1920,217l7.32,2.32c25.77,10.95,37.69,24.12,35.86,38.78-.2,1.62-.41,3.24-.61,4.86-.28,4-37.87,53-107.83,152.19-8.62,28.34-25.71,38.9-51.14,32.58-22.89-5.67-34.6-19.53-35.48-42.39,2.32-17.3,39.61-81.73,118.75-186.29C1899.93,214.77,1911,214.13,1920,217Z"/><path d="M144,369.25l3.07-1.62c66.11-25.7,112.61-14.32,137,29.66,17.45,31,11.41,84-10.79,161.14l1.55,2.69c63.14-9.88,103.76,4.7,121.69,39.9l6.67,13.09C427.59,662,411.14,720,364.8,793.34c-32.92,30.43-52.46,49.4-60.76,55.18-40.3,28.6-73.9,29.74-104.24,1.32-.53-.8-1.06-1.61-1.58-2.42-2.68-4.09-4.83-19.27-5.9-45.46-60.2-127-98.65-223.43-112-289.4C74.23,443.21,96,394.67,144,369.25Zm69.14,296q26.92,66.21,45.65,119.1l6.45-.66c53.58-36.72,79.07-79.24,74.6-131.65q-2.16-3.93-4.31-7.85C324,622.8,282,627.8,213.18,665.2Zm-34.76-90,5.26-3.19c27.87-69.41,38.17-116.36,24.26-143.35-8.34-.12-15.17,1.25-20.44,4.08l-5.68,3.07C155.21,450.14,153.91,496.88,178.42,575.17Z"/><path d="M418.92,361q3.57-1.46,7.15-2.88c10.58-4.25,34.71,2,70.92,19.28,29,23.13,48.36,47.53,59.1,72.87,20.75,48.88,17.33,110-3.14,185.53-18.85,33.36-33.31,53.33-45.07,59.2q-5,2.49-9.88,5c-26.27,13.4-50.61,8.51-74.67-15.41a129.31,129.31,0,0,1-18.89-26.91l-3.18-6.22c-24.83-48.6-36.85-117.08-29.45-204.25C381.63,398.14,398,369.47,418.92,361Zm39.62,276.44q5.52,6.29,11,12.59l4.2-2.09c30.33-15.14,41-65.32,33.55-151.34q-4.47-13-9-26c-22.86-35.23-38-51.53-44.35-48.92q-5.85,2.4-11.67,4.84c-19.29,53.2-16.7,115.61,4.23,186Q452.56,624.94,458.54,637.43Z"/><path d="M639,271.92l7.83-2.18c11.61-3.19,36.3,5.39,72.48,26.31,27.91,26,45.58,52.29,54,78.64,16.37,50.85,5.91,111.34-24.05,184.73-23.55,31.44-41,50-54,54.73q-5.48,2-10.93,4c-29.08,10.88-54.09,3.71-76.7-22.47A126.64,126.64,0,0,1,590.86,567c-.88-2.17-1.77-4.34-2.65-6.52-20.69-50.93-25.77-120.59-8.33-207C595.65,305.38,616,278.33,639,271.92Zm10.9,280q5.12,6.83,10.16,13.64l4.65-1.69c33.54-12.23,50.38-61.27,52.11-147.85q-3.26-13.42-6.55-26.85c-20.11-37.43-34.26-55.2-41.2-53.22q-6.41,1.83-12.81,3.69c-26.21,51.24-30.4,113.88-16.23,186.2Q645,538.86,649.91,551.9Z"/><path d="M874.29,232.91l7.77-1.27c11.52-1.88,34.46,8.33,67.36,31,24.42,26.57,39,52.49,44.6,77.59,10.92,48.45-5,103.29-41.43,168.18-26,26.8-44.85,42.28-58,45.43q-5.54,1.33-11.06,2.71c-29.42,7.32-53-1.63-72.3-27.87a113.63,113.63,0,0,1-13.41-28c-.63-2.08-1.26-4.17-1.9-6.25-14.82-48.9-12.48-113.62,13.12-191.72C829.16,259.77,851.5,236.7,874.29,232.91ZM856.72,492.18q4.26,6.76,8.48,13.53l4.69-1.13c33.84-8.15,55.12-51.8,65.33-131.52q-1.83-12.68-3.69-25.38c-15.78-36.4-27.67-54.11-34.57-52.92-4.26.72-8.5,1.46-12.75,2.21C853.8,341.8,843.38,399.18,849.78,467.2Q853.29,479.69,856.72,492.18Z"/><path d="M1071,211.3c30-2.2,49.77,21.34,58,69.38,12.64,35.22,20.35,52.59,24.14,52.37,38.2-69.07,64.34-106.59,73.93-115.62,9.93-4.15,18.61-6.17,26-6.13,19.3.14,33.37,12,41.7,35.23-4.82,131.21-7.58,209.28-5.5,235.54-4.72,13.47-12.85,20.38-24.46,20.82l-4.86.19c-18.86.78-29.55-12-32.47-39q.26-64.87-.35-130.14-15.44,18.74-30.39,37.87c-11.81,15.64-25.5,24-41.35,25.16l-2.53.18c-31,2.29-54.49-21.57-72.93-73.11q-1.93-10.25-6.94-9.79a1092.34,1092.34,0,0,0-43.72,197.44c-5.39,6.55-10.93,10.33-16.68,11.32l-6.85,1.19c-17.29.62-27.29-5.33-30.1-18.2l-1.77-8.13c5.23-68.93,20.63-150.43,50.53-242.16C1034.75,227.68,1050.43,212.84,1071,211.3Z"/><path d="M1411.13,211.94c30.7,2.44,47.52,27.55,49.4,73.88,8,35,13.54,52.45,17.41,52.83,48.11-59,79.63-90.07,90.57-97,10.63-2.35,19.7-2.89,27.14-1.69,19.54,3.16,32.22,16.57,37.58,39.64-22.35,122.36-35.47,195.17-36.82,220.15-6.58,11.89-15.78,17.07-27.66,15.65l-5-.58c-19.33-2.24-28.51-15.94-27.89-41.7q8.91-60.84,17-122.16-18.17,15.16-35.94,30.8c-14.1,12.84-29.15,18.6-45.41,17.24l-2.6-.22c-31.78-2.59-52.46-28.53-64.15-79.67-.38-6.6-2.29-10-5.7-10.22a971.93,971.93,0,0,0-71.43,178.75q-9.57,8-18.52,8.16l-7.14.11c-17.69-1.95-27-9-28.12-21.48q-.33-3.94-.68-7.9c14.84-63.93,41.75-138.18,84.64-219.84C1372.16,221.88,1390.08,210.29,1411.13,211.94Z"/><path d="M1626,456.1c26.3,8,38.86,19.26,37.73,33.07-.25,3.11-.51,6.22-.76,9.33-1.15,13.75-14.91,20.11-41,20l-5-.73c-20-6.05-31.64-17-35-33.5,0-1.25.11-2.51.17-3.76C1583,463.24,1597.43,454.73,1626,456.1Zm92.25-214.28,5.62,1.24c19.92,6.55,29.51,16,28.78,27.84-.07,1.31-.15,2.62-.23,3.93-.07,3.17-26.15,45.71-75,130.59-5.26,23.37-17.85,33.16-37.67,29.88-17.83-2.93-27.45-13.28-29.09-31.52,1-14,27-67.92,82.63-157.61C1703,241.74,1711.37,240.31,1718.25,241.82Z"/><path d="M1781.2,469c33.43,12.81,48.75,28.31,46.17,45.24q-.86,5.73-1.73,11.45c-2.61,16.87-20.86,23.08-54.36,20.23l-6.37-1.44c-25.28-9.58-39.39-24.31-42.53-45.07.16-1.55.32-3.1.49-4.65C1725.06,473.31,1744.35,464.12,1781.2,469ZM1917,214l7.32,2.32c25.77,10.95,37.69,24.12,35.86,38.78-.2,1.62-.41,3.24-.61,4.86-.28,4-37.87,53-107.83,152.19-8.62,28.34-25.71,38.9-51.14,32.58-22.89-5.67-34.6-19.53-35.48-42.39,2.32-17.3,39.61-81.73,118.75-186.29C1896.93,211.77,1908,211.13,1917,214Z"/><path d="M141,366.25l3.07-1.62c66.11-25.7,112.61-14.32,137,29.66,17.45,31,11.41,84-10.79,161.14l1.55,2.69c63.14-9.88,103.76,4.7,121.69,39.9l6.67,13.09C424.59,659,408.14,717,361.8,790.34c-32.92,30.43-52.46,49.4-60.76,55.18-40.3,28.6-73.9,29.74-104.24,1.32-.53-.8-1.06-1.61-1.58-2.42-2.68-4.09-4.83-19.27-5.9-45.46-60.2-127-98.65-223.43-112-289.4C71.23,440.21,93,391.67,141,366.25Zm69.14,296q26.92,66.21,45.65,119.1l6.45-.66c53.58-36.72,79.07-79.24,74.6-131.65q-2.16-3.93-4.31-7.85C321,619.8,279,624.8,210.18,662.2Zm-34.76-90,5.26-3.19c27.87-69.41,38.17-116.36,24.26-143.35-8.34-.12-15.17,1.25-20.44,4.08l-5.68,3.07C152.21,447.14,150.91,493.88,175.42,572.17Z"/><path d="M415.92,358q3.57-1.46,7.15-2.88c10.58-4.25,34.71,2,70.92,19.28,29,23.13,48.36,47.53,59.1,72.87,20.75,48.88,17.33,110-3.14,185.53-18.85,33.36-33.31,53.33-45.07,59.2q-5,2.49-9.88,5c-26.27,13.4-50.61,8.51-74.67-15.41a129.31,129.31,0,0,1-18.89-26.91l-3.18-6.22c-24.83-48.6-36.85-117.08-29.45-204.25C378.63,395.14,395,366.47,415.92,358Zm39.62,276.44q5.52,6.29,11,12.59l4.2-2.09c30.33-15.14,41-65.32,33.55-151.34q-4.47-13-9-26c-22.86-35.23-38-51.53-44.35-48.92q-5.85,2.4-11.67,4.84c-19.29,53.2-16.7,115.61,4.23,186Q449.56,621.94,455.54,634.43Z"/><path d="M636,268.92l7.83-2.18c11.61-3.19,36.3,5.39,72.48,26.31,27.91,26,45.58,52.29,54,78.64,16.37,50.85,5.91,111.34-24.05,184.73-23.55,31.44-41,50-54,54.73q-5.48,2-10.93,4c-29.08,10.88-54.09,3.71-76.7-22.47A126.64,126.64,0,0,1,587.86,564c-.88-2.17-1.77-4.34-2.65-6.52-20.69-50.93-25.77-120.59-8.33-207C592.65,302.38,613,275.33,636,268.92Zm10.9,280q5.12,6.83,10.16,13.64l4.65-1.69c33.54-12.23,50.38-61.27,52.11-147.85q-3.26-13.42-6.55-26.85c-20.11-37.43-34.26-55.2-41.2-53.22q-6.41,1.83-12.81,3.69c-26.21,51.24-30.4,113.88-16.23,186.2Q642,535.86,646.91,548.9Z"/><path d="M871.29,229.91l7.77-1.27c11.52-1.88,34.46,8.33,67.36,31,24.42,26.57,39,52.49,44.6,77.59,10.92,48.45-5,103.29-41.43,168.18-26,26.8-44.85,42.28-58,45.43q-5.54,1.33-11.06,2.71c-29.42,7.32-53-1.63-72.3-27.87a113.63,113.63,0,0,1-13.41-28c-.63-2.08-1.26-4.17-1.9-6.25-14.82-48.9-12.48-113.62,13.12-191.72C826.16,256.77,848.5,233.7,871.29,229.91ZM853.72,489.18q4.26,6.76,8.48,13.53l4.69-1.13c33.84-8.15,55.12-51.8,65.33-131.52q-1.83-12.68-3.69-25.38c-15.78-36.4-27.67-54.11-34.57-52.92-4.26.72-8.5,1.46-12.75,2.21C850.8,338.8,840.38,396.18,846.78,464.2Q850.29,476.69,853.72,489.18Z"/><path d="M1068,208.3c30-2.2,49.77,21.34,58,69.38,12.64,35.22,20.35,52.59,24.14,52.37,38.2-69.07,64.34-106.59,73.93-115.62,9.93-4.15,18.61-6.17,26-6.13,19.3.14,33.37,12,41.7,35.23-4.82,131.21-7.58,209.28-5.5,235.54-4.72,13.47-12.85,20.38-24.46,20.82l-4.86.19c-18.86.78-29.55-12-32.47-39q.26-64.87-.35-130.14-15.44,18.74-30.39,37.87c-11.81,15.64-25.5,24-41.35,25.16l-2.53.18c-31,2.29-54.49-21.57-72.93-73.11q-1.93-10.25-6.94-9.79a1092.34,1092.34,0,0,0-43.72,197.44c-5.39,6.55-10.93,10.33-16.68,11.32l-6.85,1.19c-17.29.62-27.29-5.33-30.1-18.2l-1.77-8.13c5.23-68.93,20.63-150.43,50.53-242.16C1031.75,224.68,1047.43,209.84,1068,208.3Z"/><path d="M1408.13,208.94c30.7,2.44,47.52,27.55,49.4,73.88,8,35,13.54,52.45,17.41,52.83,48.11-59,79.63-90.07,90.57-97,10.63-2.35,19.7-2.89,27.14-1.69,19.54,3.16,32.22,16.57,37.58,39.64-22.35,122.36-35.47,195.17-36.82,220.15-6.58,11.89-15.78,17.07-27.66,15.65l-5-.58c-19.33-2.24-28.51-15.94-27.89-41.7q8.91-60.84,17-122.16-18.17,15.16-35.94,30.8c-14.1,12.84-29.15,18.6-45.41,17.24l-2.6-.22c-31.78-2.59-52.46-28.53-64.15-79.67-.38-6.6-2.29-10-5.7-10.22a971.93,971.93,0,0,0-71.43,178.75q-9.57,8-18.52,8.16l-7.14.11c-17.69-1.95-27-9-28.12-21.48q-.33-3.94-.68-7.9c14.84-63.93,41.75-138.18,84.64-219.84C1369.16,218.88,1387.08,207.29,1408.13,208.94Z"/><path d="M1623,453.1c26.3,8,38.86,19.26,37.73,33.07-.25,3.11-.51,6.22-.76,9.33-1.15,13.75-14.91,20.11-41,20l-5-.73c-20-6.05-31.64-17-35-33.5,0-1.25.11-2.51.17-3.76C1580,460.24,1594.43,451.73,1623,453.1Zm92.25-214.28,5.62,1.24c19.92,6.55,29.51,16,28.78,27.84-.07,1.31-.15,2.62-.23,3.93-.07,3.17-26.15,45.71-75,130.59-5.26,23.37-17.85,33.16-37.67,29.88-17.83-2.93-27.45-13.28-29.09-31.52,1-14,27-67.92,82.63-157.61C1700,238.74,1708.37,237.31,1715.25,238.82Z"/><path d="M1778.2,466c33.43,12.81,48.75,28.31,46.17,45.24q-.86,5.73-1.73,11.45c-2.61,16.87-20.86,23.08-54.36,20.23l-6.37-1.44c-25.28-9.58-39.39-24.31-42.53-45.07.16-1.55.32-3.1.49-4.65C1722.06,470.31,1741.35,461.12,1778.2,466ZM1914,211l7.32,2.32c25.77,10.95,37.69,24.12,35.86,38.78-.2,1.62-.41,3.24-.61,4.86-.28,4-37.87,53-107.83,152.19-8.62,28.34-25.71,38.9-51.14,32.58-22.89-5.67-34.6-19.53-35.48-42.39,2.32-17.3,39.61-81.73,118.75-186.29C1893.93,208.77,1905,208.13,1914,211Z"/><path d="M138,363.25l3.07-1.62c66.11-25.7,112.61-14.32,137,29.66,17.45,31,11.41,84-10.79,161.14l1.55,2.69c63.14-9.88,103.76,4.7,121.69,39.9l6.67,13.09C421.59,656,405.14,714,358.8,787.34c-32.92,30.43-52.46,49.4-60.76,55.18-40.3,28.6-73.9,29.74-104.24,1.32-.53-.8-1.06-1.61-1.58-2.42-2.68-4.09-4.83-19.27-5.9-45.46-60.2-127-98.65-223.43-112-289.4C68.23,437.21,90,388.67,138,363.25Zm69.14,296q26.92,66.21,45.65,119.1l6.45-.66c53.58-36.72,79.07-79.24,74.6-131.65q-2.16-3.93-4.31-7.85C318,616.8,276,621.8,207.18,659.2Zm-34.76-90,5.26-3.19c27.87-69.41,38.17-116.36,24.26-143.35-8.34-.12-15.17,1.25-20.44,4.08l-5.68,3.07C149.21,444.14,147.91,490.88,172.42,569.17Z"/><path d="M412.92,355q3.57-1.46,7.15-2.88c10.58-4.25,34.71,2,70.92,19.28,29,23.13,48.36,47.53,59.1,72.87,20.75,48.88,17.33,110-3.14,185.53-18.85,33.36-33.31,53.33-45.07,59.2q-5,2.49-9.88,5c-26.27,13.4-50.61,8.51-74.67-15.41a129.31,129.31,0,0,1-18.89-26.91l-3.18-6.22c-24.83-48.6-36.85-117.08-29.45-204.25C375.63,392.14,392,363.47,412.92,355Zm39.62,276.44q5.52,6.29,11,12.59l4.2-2.09c30.33-15.14,41-65.32,33.55-151.34q-4.47-13-9-26c-22.86-35.23-38-51.53-44.35-48.92q-5.85,2.4-11.67,4.84c-19.29,53.2-16.7,115.61,4.23,186Q446.56,618.94,452.54,631.43Z"/><path d="M633,265.92l7.83-2.18c11.61-3.19,36.3,5.39,72.48,26.31,27.91,26,45.58,52.29,54,78.64,16.37,50.85,5.91,111.34-24.05,184.73-23.55,31.44-41,50-54,54.73q-5.48,2-10.93,4c-29.08,10.88-54.09,3.71-76.7-22.47A126.64,126.64,0,0,1,584.86,561c-.88-2.17-1.77-4.34-2.65-6.52-20.69-50.93-25.77-120.59-8.33-207C589.65,299.38,610,272.33,633,265.92Zm10.9,280q5.12,6.83,10.16,13.64l4.65-1.69c33.54-12.23,50.38-61.27,52.11-147.85q-3.26-13.42-6.55-26.85c-20.11-37.43-34.26-55.2-41.2-53.22q-6.41,1.83-12.81,3.69c-26.21,51.24-30.4,113.88-16.23,186.2Q639,532.86,643.91,545.9Z"/><path d="M868.29,226.91l7.77-1.27c11.52-1.88,34.46,8.33,67.36,31,24.42,26.57,39,52.49,44.6,77.59,10.92,48.45-5,103.29-41.43,168.18-26,26.8-44.85,42.28-58,45.43q-5.54,1.33-11.06,2.71c-29.42,7.32-53-1.63-72.3-27.87a113.63,113.63,0,0,1-13.41-28c-.63-2.08-1.26-4.17-1.9-6.25-14.82-48.9-12.48-113.62,13.12-191.72C823.16,253.77,845.5,230.7,868.29,226.91ZM850.72,486.18q4.26,6.76,8.48,13.53l4.69-1.13c33.84-8.15,55.12-51.8,65.33-131.52q-1.83-12.68-3.69-25.38c-15.78-36.4-27.67-54.11-34.57-52.92-4.26.72-8.5,1.46-12.75,2.21C847.8,335.8,837.38,393.18,843.78,461.2Q847.29,473.69,850.72,486.18Z"/><path d="M1065,205.3c30-2.2,49.77,21.34,58,69.38,12.64,35.22,20.35,52.59,24.14,52.37,38.2-69.07,64.34-106.59,73.93-115.62,9.93-4.15,18.61-6.17,26-6.13,19.3.14,33.37,12,41.7,35.23-4.82,131.21-7.58,209.28-5.5,235.54-4.72,13.47-12.85,20.38-24.46,20.82l-4.86.19c-18.86.78-29.55-12-32.47-39q.26-64.87-.35-130.14-15.44,18.74-30.39,37.87c-11.81,15.64-25.5,24-41.35,25.16l-2.53.18c-31,2.29-54.49-21.57-72.93-73.11q-1.93-10.25-6.94-9.79a1092.34,1092.34,0,0,0-43.72,197.44c-5.39,6.55-10.93,10.33-16.68,11.32l-6.85,1.19c-17.29.62-27.29-5.33-30.1-18.2l-1.77-8.13c5.23-68.93,20.63-150.43,50.53-242.16C1028.75,221.68,1044.43,206.84,1065,205.3Z"/><path d="M1405.13,205.94c30.7,2.44,47.52,27.55,49.4,73.88,8,35,13.54,52.45,17.41,52.83,48.11-59,79.63-90.07,90.57-97,10.63-2.35,19.7-2.89,27.14-1.69,19.54,3.16,32.22,16.57,37.58,39.64-22.35,122.36-35.47,195.17-36.82,220.15-6.58,11.89-15.78,17.07-27.66,15.65l-5-.58c-19.33-2.24-28.51-15.94-27.89-41.7q8.91-60.84,17-122.16-18.17,15.16-35.94,30.8c-14.1,12.84-29.15,18.6-45.41,17.24l-2.6-.22c-31.78-2.59-52.46-28.53-64.15-79.67-.38-6.6-2.29-10-5.7-10.22a971.93,971.93,0,0,0-71.43,178.75q-9.57,8-18.52,8.16l-7.14.11c-17.69-1.95-27-9-28.12-21.48q-.33-3.94-.68-7.9c14.84-63.93,41.75-138.18,84.64-219.84C1366.16,215.88,1384.08,204.29,1405.13,205.94Z"/><path d="M1620,450.1c26.3,8,38.86,19.26,37.73,33.07-.25,3.11-.51,6.22-.76,9.33-1.15,13.75-14.91,20.11-41,20l-5-.73c-20-6.05-31.64-17-35-33.5,0-1.25.11-2.51.17-3.76C1577,457.24,1591.43,448.73,1620,450.1Zm92.25-214.28,5.62,1.24c19.92,6.55,29.51,16,28.78,27.84-.07,1.31-.15,2.62-.23,3.93-.07,3.17-26.15,45.71-75,130.59-5.26,23.37-17.85,33.16-37.67,29.88-17.83-2.93-27.45-13.28-29.09-31.52,1-14,27-67.92,82.63-157.61C1697,235.74,1705.37,234.31,1712.25,235.82Z"/><path d="M1775.2,463c33.43,12.81,48.75,28.31,46.17,45.24q-.86,5.73-1.73,11.45c-2.61,16.87-20.86,23.08-54.36,20.23l-6.37-1.44c-25.28-9.58-39.39-24.31-42.53-45.07.16-1.55.32-3.1.49-4.65C1719.06,467.31,1738.35,458.12,1775.2,463ZM1911,208l7.32,2.32c25.77,10.95,37.69,24.12,35.86,38.78-.2,1.62-.41,3.24-.61,4.86-.28,4-37.87,53-107.83,152.19-8.62,28.34-25.71,38.9-51.14,32.58-22.89-5.67-34.6-19.53-35.48-42.39,2.32-17.3,39.61-81.73,118.75-186.29C1890.93,205.77,1902,205.13,1911,208Z"/><path d="M138,363.25l3.07-1.62c66.11-25.7,112.61-14.32,137,29.66,17.45,31,11.41,84-10.79,161.14l1.55,2.69c63.14-9.88,103.76,4.7,121.69,39.9l6.67,13.09C421.59,656,405.14,714,358.8,787.34c-32.92,30.43-52.46,49.4-60.76,55.18-40.3,28.6-73.9,29.74-104.24,1.32-.53-.8-1.06-1.61-1.58-2.42-2.68-4.09-4.83-19.27-5.9-45.46-60.2-127-98.65-223.43-112-289.4C68.23,437.21,90,388.67,138,363.25Zm69.14,296q26.92,66.21,45.65,119.1l6.45-.66c53.58-36.72,79.07-79.24,74.6-131.65q-2.16-3.93-4.31-7.85C318,616.8,276,621.8,207.18,659.2Zm-34.76-90,5.26-3.19c27.87-69.41,38.17-116.36,24.26-143.35-8.34-.12-15.17,1.25-20.44,4.08l-5.68,3.07C149.21,444.14,147.91,490.88,172.42,569.17Z" fill="url(#a)"/><path d="M412.92,355q3.57-1.46,7.15-2.88c10.58-4.25,34.71,2,70.92,19.28,29,23.13,48.36,47.53,59.1,72.87,20.75,48.88,17.33,110-3.14,185.53-18.85,33.36-33.31,53.33-45.07,59.2q-5,2.49-9.88,5c-26.27,13.4-50.61,8.51-74.67-15.41a129.31,129.31,0,0,1-18.89-26.91l-3.18-6.22c-24.83-48.6-36.85-117.08-29.45-204.25C375.63,392.14,392,363.47,412.92,355Zm39.62,276.44q5.52,6.29,11,12.59l4.2-2.09c30.33-15.14,41-65.32,33.55-151.34q-4.47-13-9-26c-22.86-35.23-38-51.53-44.35-48.92q-5.85,2.4-11.67,4.84c-19.29,53.2-16.7,115.61,4.23,186Q446.56,618.94,452.54,631.43Z" fill="url(#a)"/><path d="M633,265.92l7.83-2.18c11.61-3.19,36.3,5.39,72.48,26.31,27.91,26,45.58,52.29,54,78.64,16.37,50.85,5.91,111.34-24.05,184.73-23.55,31.44-41,50-54,54.73q-5.48,2-10.93,4c-29.08,10.88-54.09,3.71-76.7-22.47A126.64,126.64,0,0,1,584.86,561c-.88-2.17-1.77-4.34-2.65-6.52-20.69-50.93-25.77-120.59-8.33-207C589.65,299.38,610,272.33,633,265.92Zm10.9,280q5.12,6.83,10.16,13.64l4.65-1.69c33.54-12.23,50.38-61.27,52.11-147.85q-3.26-13.42-6.55-26.85c-20.11-37.43-34.26-55.2-41.2-53.22q-6.41,1.83-12.81,3.69c-26.21,51.24-30.4,113.88-16.23,186.2Q639,532.86,643.91,545.9Z" fill="url(#a)"/><path d="M868.29,226.91l7.77-1.27c11.52-1.88,34.46,8.33,67.36,31,24.42,26.57,39,52.49,44.6,77.59,10.92,48.45-5,103.29-41.43,168.18-26,26.8-44.85,42.28-58,45.43q-5.54,1.33-11.06,2.71c-29.42,7.32-53-1.63-72.3-27.87a113.63,113.63,0,0,1-13.41-28c-.63-2.08-1.26-4.17-1.9-6.25-14.82-48.9-12.48-113.62,13.12-191.72C823.16,253.77,845.5,230.7,868.29,226.91ZM850.72,486.18q4.26,6.76,8.48,13.53l4.69-1.13c33.84-8.15,55.12-51.8,65.33-131.52q-1.83-12.68-3.69-25.38c-15.78-36.4-27.67-54.11-34.57-52.92-4.26.72-8.5,1.46-12.75,2.21C847.8,335.8,837.38,393.18,843.78,461.2Q847.29,473.69,850.72,486.18Z" fill="url(#a)"/><path d="M1065,205.3c30-2.2,49.77,21.34,58,69.38,12.64,35.22,20.35,52.59,24.14,52.37,38.2-69.07,64.34-106.59,73.93-115.62,9.93-4.15,18.61-6.17,26-6.13,19.3.14,33.37,12,41.7,35.23-4.82,131.21-7.58,209.28-5.5,235.54-4.72,13.47-12.85,20.38-24.46,20.82l-4.86.19c-18.86.78-29.55-12-32.47-39q.26-64.87-.35-130.14-15.44,18.74-30.39,37.87c-11.81,15.64-25.5,24-41.35,25.16l-2.53.18c-31,2.29-54.49-21.57-72.93-73.11q-1.93-10.25-6.94-9.79a1092.34,1092.34,0,0,0-43.72,197.44c-5.39,6.55-10.93,10.33-16.68,11.32l-6.85,1.19c-17.29.62-27.29-5.33-30.1-18.2l-1.77-8.13c5.23-68.93,20.63-150.43,50.53-242.16C1028.75,221.68,1044.43,206.84,1065,205.3Z" fill="url(#a)"/><path d="M1405.13,205.94c30.7,2.44,47.52,27.55,49.4,73.88,8,35,13.54,52.45,17.41,52.83,48.11-59,79.63-90.07,90.57-97,10.63-2.35,19.7-2.89,27.14-1.69,19.54,3.16,32.22,16.57,37.58,39.64-22.35,122.36-35.47,195.17-36.82,220.15-6.58,11.89-15.78,17.07-27.66,15.65l-5-.58c-19.33-2.24-28.51-15.94-27.89-41.7q8.91-60.84,17-122.16-18.17,15.16-35.94,30.8c-14.1,12.84-29.15,18.6-45.41,17.24l-2.6-.22c-31.78-2.59-52.46-28.53-64.15-79.67-.38-6.6-2.29-10-5.7-10.22a971.93,971.93,0,0,0-71.43,178.75q-9.57,8-18.52,8.16l-7.14.11c-17.69-1.95-27-9-28.12-21.48q-.33-3.94-.68-7.9c14.84-63.93,41.75-138.18,84.64-219.84C1366.16,215.88,1384.08,204.29,1405.13,205.94Z" fill="url(#a)"/><path d="M1620,450.1c26.3,8,38.86,19.26,37.73,33.07-.25,3.11-.51,6.22-.76,9.33-1.15,13.75-14.91,20.11-41,20l-5-.73c-20-6.05-31.64-17-35-33.5,0-1.25.11-2.51.17-3.76C1577,457.24,1591.43,448.73,1620,450.1Zm92.25-214.28,5.62,1.24c19.92,6.55,29.51,16,28.78,27.84-.07,1.31-.15,2.62-.23,3.93-.07,3.17-26.15,45.71-75,130.59-5.26,23.37-17.85,33.16-37.67,29.88-17.83-2.93-27.45-13.28-29.09-31.52,1-14,27-67.92,82.63-157.61C1697,235.74,1705.37,234.31,1712.25,235.82Z" fill="url(#a)"/><path d="M1775.2,463c33.43,12.81,48.75,28.31,46.17,45.24q-.86,5.73-1.73,11.45c-2.61,16.87-20.86,23.08-54.36,20.23l-6.37-1.44c-25.28-9.58-39.39-24.31-42.53-45.07.16-1.55.32-3.1.49-4.65C1719.06,467.31,1738.35,458.12,1775.2,463ZM1911,208l7.32,2.32c25.77,10.95,37.69,24.12,35.86,38.78-.2,1.62-.41,3.24-.61,4.86-.28,4-37.87,53-107.83,152.19-8.62,28.34-25.71,38.9-51.14,32.58-22.89-5.67-34.6-19.53-35.48-42.39,2.32-17.3,39.61-81.73,118.75-186.29C1890.93,205.77,1902,205.13,1911,208Z" fill="url(#a)"/><g opacity="0.48" style="mix-blend-mode:soft-light"><path d="M138,363.25l3.07-1.62c66.11-25.7,112.61-14.32,137,29.66,17.45,31,11.41,84-10.79,161.14l1.55,2.69c63.14-9.88,103.76,4.7,121.69,39.9l6.67,13.09C421.59,656,405.14,714,358.8,787.34c-32.92,30.43-52.46,49.4-60.76,55.18-40.3,28.6-73.9,29.74-104.24,1.32-.53-.8-1.06-1.61-1.58-2.42-2.68-4.09-4.83-19.27-5.9-45.46-60.2-127-98.65-223.43-112-289.4C68.23,437.21,90,388.67,138,363.25Zm69.14,296q26.92,66.21,45.65,119.1l6.45-.66c53.58-36.72,79.07-79.24,74.6-131.65q-2.16-3.93-4.31-7.85C318,616.8,276,621.8,207.18,659.2Zm-34.76-90,5.26-3.19c27.87-69.41,38.17-116.36,24.26-143.35-8.34-.12-15.17,1.25-20.44,4.08l-5.68,3.07C149.21,444.14,147.91,490.88,172.42,569.17Z" fill="url(#i)"/><path d="M412.92,355q3.57-1.46,7.15-2.88c10.58-4.25,34.71,2,70.92,19.28,29,23.13,48.36,47.53,59.1,72.87,20.75,48.88,17.33,110-3.14,185.53-18.85,33.36-33.31,53.33-45.07,59.2q-5,2.49-9.88,5c-26.27,13.4-50.61,8.51-74.67-15.41a129.31,129.31,0,0,1-18.89-26.91l-3.18-6.22c-24.83-48.6-36.85-117.08-29.45-204.25C375.63,392.14,392,363.47,412.92,355Zm39.62,276.44q5.52,6.29,11,12.59l4.2-2.09c30.33-15.14,41-65.32,33.55-151.34q-4.47-13-9-26c-22.86-35.23-38-51.53-44.35-48.92q-5.85,2.4-11.67,4.84c-19.29,53.2-16.7,115.61,4.23,186Q446.56,618.94,452.54,631.43Z" fill="url(#i)"/><path d="M633,265.92l7.83-2.18c11.61-3.19,36.3,5.39,72.48,26.31,27.91,26,45.58,52.29,54,78.64,16.37,50.85,5.91,111.34-24.05,184.73-23.55,31.44-41,50-54,54.73q-5.48,2-10.93,4c-29.08,10.88-54.09,3.71-76.7-22.47A126.64,126.64,0,0,1,584.86,561c-.88-2.17-1.77-4.34-2.65-6.52-20.69-50.93-25.77-120.59-8.33-207C589.65,299.38,610,272.33,633,265.92Zm10.9,280q5.12,6.83,10.16,13.64l4.65-1.69c33.54-12.23,50.38-61.27,52.11-147.85q-3.26-13.42-6.55-26.85c-20.11-37.43-34.26-55.2-41.2-53.22q-6.41,1.83-12.81,3.69c-26.21,51.24-30.4,113.88-16.23,186.2Q639,532.86,643.91,545.9Z" fill="url(#i)"/><path d="M868.29,226.91l7.77-1.27c11.52-1.88,34.46,8.33,67.36,31,24.42,26.57,39,52.49,44.6,77.59,10.92,48.45-5,103.29-41.43,168.18-26,26.8-44.85,42.28-58,45.43q-5.54,1.33-11.06,2.71c-29.42,7.32-53-1.63-72.3-27.87a113.63,113.63,0,0,1-13.41-28c-.63-2.08-1.26-4.17-1.9-6.25-14.82-48.9-12.48-113.62,13.12-191.72C823.16,253.77,845.5,230.7,868.29,226.91ZM850.72,486.18q4.26,6.76,8.48,13.53l4.69-1.13c33.84-8.15,55.12-51.8,65.33-131.52q-1.83-12.68-3.69-25.38c-15.78-36.4-27.67-54.11-34.57-52.92-4.26.72-8.5,1.46-12.75,2.21C847.8,335.8,837.38,393.18,843.78,461.2Q847.29,473.69,850.72,486.18Z" fill="url(#i)"/><path d="M1065,205.3c30-2.2,49.77,21.34,58,69.38,12.64,35.22,20.35,52.59,24.14,52.37,38.2-69.07,64.34-106.59,73.93-115.62,9.93-4.15,18.61-6.17,26-6.13,19.3.14,33.37,12,41.7,35.23-4.82,131.21-7.58,209.28-5.5,235.54-4.72,13.47-12.85,20.38-24.46,20.82l-4.86.19c-18.86.78-29.55-12-32.47-39q.26-64.87-.35-130.14-15.44,18.74-30.39,37.87c-11.81,15.64-25.5,24-41.35,25.16l-2.53.18c-31,2.29-54.49-21.57-72.93-73.11q-1.93-10.25-6.94-9.79a1092.34,1092.34,0,0,0-43.72,197.44c-5.39,6.55-10.93,10.33-16.68,11.32l-6.85,1.19c-17.29.62-27.29-5.33-30.1-18.2l-1.77-8.13c5.23-68.93,20.63-150.43,50.53-242.16C1028.75,221.68,1044.43,206.84,1065,205.3Z" fill="url(#i)"/><path d="M1405.13,205.94c30.7,2.44,47.52,27.55,49.4,73.88,8,35,13.54,52.45,17.41,52.83,48.11-59,79.63-90.07,90.57-97,10.63-2.35,19.7-2.89,27.14-1.69,19.54,3.16,32.22,16.57,37.58,39.64-22.35,122.36-35.47,195.17-36.82,220.15-6.58,11.89-15.78,17.07-27.66,15.65l-5-.58c-19.33-2.24-28.51-15.94-27.89-41.7q8.91-60.84,17-122.16-18.17,15.16-35.94,30.8c-14.1,12.84-29.15,18.6-45.41,17.24l-2.6-.22c-31.78-2.59-52.46-28.53-64.15-79.67-.38-6.6-2.29-10-5.7-10.22a971.93,971.93,0,0,0-71.43,178.75q-9.57,8-18.52,8.16l-7.14.11c-17.69-1.95-27-9-28.12-21.48q-.33-3.94-.68-7.9c14.84-63.93,41.75-138.18,84.64-219.84C1366.16,215.88,1384.08,204.29,1405.13,205.94Z" fill="url(#i)"/><path d="M1620,450.1c26.3,8,38.86,19.26,37.73,33.07-.25,3.11-.51,6.22-.76,9.33-1.15,13.75-14.91,20.11-41,20l-5-.73c-20-6.05-31.64-17-35-33.5,0-1.25.11-2.51.17-3.76C1577,457.24,1591.43,448.73,1620,450.1Zm92.25-214.28,5.62,1.24c19.92,6.55,29.51,16,28.78,27.84-.07,1.31-.15,2.62-.23,3.93-.07,3.17-26.15,45.71-75,130.59-5.26,23.37-17.85,33.16-37.67,29.88-17.83-2.93-27.45-13.28-29.09-31.52,1-14,27-67.92,82.63-157.61C1697,235.74,1705.37,234.31,1712.25,235.82Z" fill="url(#i)"/><path d="M1775.2,463c33.43,12.81,48.75,28.31,46.17,45.24q-.86,5.73-1.73,11.45c-2.61,16.87-20.86,23.08-54.36,20.23l-6.37-1.44c-25.28-9.58-39.39-24.31-42.53-45.07.16-1.55.32-3.1.49-4.65C1719.06,467.31,1738.35,458.12,1775.2,463ZM1911,208l7.32,2.32c25.77,10.95,37.69,24.12,35.86,38.78-.2,1.62-.41,3.24-.61,4.86-.28,4-37.87,53-107.83,152.19-8.62,28.34-25.71,38.9-51.14,32.58-22.89-5.67-34.6-19.53-35.48-42.39,2.32-17.3,39.61-81.73,118.75-186.29C1890.93,205.77,1902,205.13,1911,208Z" fill="url(#i)"/></g></g></svg>