<svg xmlns="http://www.w3.org/2000/svg" xmlns:xlink="http://www.w3.org/1999/xlink" viewBox="0 0 2000 1813.14"><defs><style>.cls-1{fill:#050505;}.cls-2{fill:#fff;}.cls-3{fill:#ed1c24;}.cls-4{fill:#fff200;}.cls-5{opacity:0.25;}</style><symbol id="Bomb" data-name="Bomb" viewBox="0 0 967.31 1505.6"><path class="cls-1" d="M967.31,1022c0,267.12-216.54,483.65-483.65,483.65S0,1289.07,0,1022c0-209.44,133.14-387.79,319.39-455V436.55c0-17.14,62-31.31,142.35-33.52,8.88-110.22,51.34-157.62,155.07-186.23C735.09,184.19,737.13,98.58,737.13,98.58s5.41,6.48,2,14.27c4.78-4.74,4.12-2.2,7.76-9.44,3.11-6.2,2.79,17.14-10.91,37.31-10.84,16-37.24,68.06-119.14,89.49-68.12,29.66-124.54,48.87-135.08,172.52h1.93c90.71,0,164.26,15.15,164.26,33.82V566.92C834.17,634.16,967.31,812.51,967.31,1022Z"/><path class="cls-2" d="M485.54,1438.31c13.92-2.45,31-5.24,44.74-8.57,149.33-32,276.61-133.68,340.21-272.64,3.72-8,11-24.88,14.21-33.16,2.06-5.67,4.24-11.33,6.37-17,1.95-5.75,3.9-11.53,6-17.31-.42,6.11-1,12.21-1.59,18.35q-2.37,18.32-6.48,36.38c-41.28,178.22-220.15,312.35-403.47,294Z"/><path class="cls-2" d="M575.48,460.35c4.23-.55,8.33-1.13,12.27-1.74v129c-3.94.61-8,1.19-12.27,1.73Z"/><path class="cls-2" d="M594.07,457.57c3.47-.59,6.8-1.22,10-1.87v129q-4.77,1-10,1.86Z"/><path class="cls-2" d="M636.79,452.31V565.6a13.73,13.73,0,0,1-9.37,13c-4.06,1.38-8.65,2.69-13.73,3.93v-129A148.28,148.28,0,0,0,631,448.28,4.3,4.3,0,0,1,636.79,452.31Z"/><path class="cls-2" d="M566.42,461.42v129q-6.1.68-12.54,1.25V462.68C558.17,462.29,562.35,461.88,566.42,461.42Z"/><path class="cls-1" d="M882.83,183.22C808,150.7,798.13,93.13,862.27,63.65,798.13,93.13,757.8,73.27,778.5,22.4c-20.7,50.87-87.57,51.44-138.9,1.19,51.33,50.25,20.45,100.92-64.12,105.25,84.57-4.33,109.42,29.74,51.61,70.76,57.81-41,96-30.89,79.31,21,16.69-51.93,67.68-51.48,105.92.93C774.08,169.16,808,150.7,882.83,183.22Zm-93.25-11.88a34.89,34.89,0,0,0-2.74,7.51A74.32,74.32,0,0,0,767,170.16c-18.1-4.8-35-.5-48.37,11.24-.08-.24-.16-.48-.25-.72-3.53-9.83-10.49-16.38-20.12-18.93-8.29-2.2-18.39-1.45-29.82,2.08a40.26,40.26,0,0,0,.64-7.8c-.15-10.66-4.89-24.28-24.84-32.88,13.72-8.9,23.3-20.59,28-34.63a59.24,59.24,0,0,0,2.72-23.82,117.44,117.44,0,0,0,18.44,6.62c26.86,7.13,51.72,2.6,70.17-11.53.29,1.36.62,2.61,1,3.76,4,13.11,13.5,22,27.39,25.68a68.78,68.78,0,0,0,23.43,1.58,61.25,61.25,0,0,0-5.86,20.62c-1.42,14.71,2.58,28.92,11.48,42C805.68,154.09,795.18,160.08,789.58,171.34Z"/><path class="cls-3" d="M718.39,180.68c-3.53-9.83-10.49-16.38-20.12-18.93-8.29-2.2-18.39-1.45-29.82,2.08a40.26,40.26,0,0,0,.64-7.8c-.15-10.66-4.89-24.28-24.84-32.88,13.72-8.9,23.3-20.59,28-34.63a59.24,59.24,0,0,0,2.72-23.82,117.44,117.44,0,0,0,18.44,6.62c26.86,7.13,51.72,2.6,70.17-11.53.29,1.36.62,2.61,1,3.76,4,13.11,13.5,22,27.39,25.68a68.78,68.78,0,0,0,23.43,1.58,61.25,61.25,0,0,0-5.86,20.62c-1.42,14.71,2.58,28.92,11.48,42-15.27.7-25.77,6.69-31.37,18a34.89,34.89,0,0,0-2.74,7.51A74.32,74.32,0,0,0,767,170.16c-18.1-4.8-35-.5-48.37,11.24C718.56,181.16,718.48,180.92,718.39,180.68Z"/><path class="cls-4" d="M723.12,163.34a36.26,36.26,0,0,0-21.27-15.11c-6.67-1.77-14.23-2-22.56-.6a43.93,43.93,0,0,0-13.91-27.21,78.8,78.8,0,0,0,16.51-28.14,77.15,77.15,0,0,0,2.38-9q2.76.87,5.52,1.61c24.55,6.51,48.2,4.08,67.84-6.76,6.07,12.46,16.55,20.91,30.69,24.66A65.34,65.34,0,0,0,800,104.68c-.45,2.34-.79,4.71-1,7.08a75.21,75.21,0,0,0,3.71,32.12,42.51,42.51,0,0,0-19.55,17.29,77.34,77.34,0,0,0-12.5-4.53A59.88,59.88,0,0,0,723.12,163.34Z"/><path d="M643.5,149.83c.54,1.68-62.71,23.51-63.61,23.8s-2.09-.83-2.63-2.51-.24-3.27.67-3.56S643,148.15,643.5,149.83Z"/><path d="M626.74,162.94c.31,1-36.3,13.61-36.83,13.78s-1.2-.48-1.52-1.45-.13-1.9.39-2.07S626.42,162,626.74,162.94Z"/><path d="M829.62,125.09c-.54-1.68,62.7-23.51,63.61-23.8s2.08.83,2.62,2.51.24,3.27-.67,3.56S830.16,126.76,829.62,125.09Z"/><path d="M846.37,112c-.31-1,36.3-13.61,36.83-13.78s1.2.48,1.52,1.45.14,1.9-.39,2.06S846.69,113,846.37,112Z"/><path d="M718.81,51.61c-1.67.4-15-48.7-15.2-49.4s1-1.61,2.71-2,3.16-.17,3.33.54S720.48,51.2,718.81,51.61Z"/><path d="M725.36,48.81c-1.71-.11-1-34.14-1-34.63s1.45-.79,3.16-.68,3.08.58,3,1.06S727.07,48.91,725.36,48.81Z"/><path d="M744.61,187.35c1.74-.32,11.56,45.81,11.68,46.47s-1.19,1.45-2.92,1.77-3.24,0-3.36-.63S742.88,187.66,744.61,187.35Z"/><path d="M754.36,199.88c1-.18,6.69,26.52,6.76,26.9s-.69.84-1.69,1-1.87,0-1.94-.37S753.36,200.06,754.36,199.88Z"/><path class="cls-2" d="M710.74,115.51s-13.6-16.06-11.81-17.41,19.66,8.94,21,8.71S732.19,98,732.19,98l6.23,8.77,14.12-8.65-2.41,13s23-3.06,21.61,0-16.08,13.35-16.08,13.35l2.68,11.61h-17l-14,7.15s.71-13.4,0-13.63-25.72,8.72-25.72,8.72l2.68-11.17-23.23-1.34Z"/><path d="M710.74,115.51a12.82,12.82,0,0,1-2,.85l-5.89,2.17-19.17,6.9,21.48,1.07q-1.2,5.15-2.48,10.64l11.06-4,6.43-2.25,3.28-1.11,1.66-.54c.21-.07.75-.25,1.16-.34a3.93,3.93,0,0,1,.64-.15l.59,0c.68.17.94,1,1,1.87l0,.68v.48l0,.88c0,1.18,0,2.34,0,3.52s-.07,2.34-.1,3.52l-.06,1.91L741.12,135,757,135c-.86-3.67-1.72-7.35-2.59-11l2.71-1.93,2.06-1.51c1.36-1,2.72-2,4.05-3.08s2.64-2.09,3.9-3.18c.64-.54,1.24-1.1,1.83-1.66l.84-.85.23-.28c.06-.08.12-.21,0-.27a.79.79,0,0,0-.3-.08l-.46-.06-.68,0c-.45,0-.92,0-1.39,0-1.87,0-3.77.09-5.66.22s-3.77.32-5.64.52l-2.79.31-2,.25-2.56.34q.76-4.2,1.51-8.32c.19-1,.37-2,.56-3l.07-.46L738,108.6,731.9,100l-.07.06-.33.26-1.56,1.2-3.06,2.34c-1,.76-2,1.5-3,2.22q-.76.54-1.53,1l-.82.52-.55.3-.79.29a5.08,5.08,0,0,1-.95-.08c-.15,0-.33-.1-.47-.14l-.27-.11c-.36-.13-.68-.27-1-.41-.64-.28-1.24-.57-1.83-.85L712.2,105c-2.22-1.09-4.32-2.13-6.31-3-1-.46-1.95-.89-2.88-1.28l-1.36-.54-.65-.23h0s-.05,0,0,0l.3.52a70.79,70.79,0,0,0,4.24,6c1.1,1.42,1.74,2.25,1.88,2.42,2.48,3.15,4.06,6.09,3.4,6.64s-3.32-1.51-5.84-4.72c-.14-.17-.79-1-1.91-2.46a77,77,0,0,1-4.41-6.37l-.32-.57c-.2-.36-.39-.73-.55-1.1a3.89,3.89,0,0,1-.43-2.11,1.83,1.83,0,0,1,.33-.87,1.7,1.7,0,0,1,.78-.59,3.37,3.37,0,0,1,2.24-.1L702,97l.74.27c.49.18,1,.38,1.47.59,1,.41,2,.86,3,1.34,2,1,4.14,2,6.36,3.11l3.4,1.69c.58.27,1.17.56,1.75.82.29.13.59.26.86.36l.22.09h0a10.23,10.23,0,0,0,1-.57l1.45-1c1-.69,2-1.41,3-2.16l3-2.29L732.49,96l6.31,8.94,15.59-9.49q-1.3,7-2.67,14.21l3.88-.42c1.89-.19,3.8-.36,5.73-.48s3.87-.22,5.86-.2l1.51.06.77.06.39,0,.59.1a3.63,3.63,0,0,1,2.11,1,1.65,1.65,0,0,1,.44,1,1.12,1.12,0,0,1-.08.51l-.13.51c-.38.61-.84,1.14-1.25,1.69l-.94,1c-.64.59-1.29,1.18-2,1.73-1.31,1.12-2.65,2.19-4,3.23s-2.74,2.07-4.13,3.08l-2.08,1.51-1.49,1c.92,4.06,1.85,8.14,2.77,12.21l-18.1-.07L726.3,144.8c.08-1.73.17-3.45.26-5.17,0-1.16.08-2.33.13-3.49s0-2.31,0-3.45v-.85l0-.57a2.31,2.31,0,0,0,0-.37.58.58,0,0,0,0-.18c0-.07-.11,0-.16,0a2.22,2.22,0,0,0-.37.09l-.51.15-1.65.52-3.27,1.07-6.44,2.18-13.67,4.75,2.88-11.71-25-1.6,14.78-5,9.39-3.12,6-1.93A15.51,15.51,0,0,1,710.74,115.51Z"/></symbol></defs><g id="assets"><use width="967.31" height="1505.6" transform="translate(246.25 174.29)" xlink:href="#Bomb"/></g></svg>