<svg xmlns="http://www.w3.org/2000/svg" viewBox="0 0 2000 914.07"><path d="M484.34,147.47l2.94.34c63,15.47,106.84,49,120.33,108.19,9,41.64-7,95.61-60.68,168.94-.07,1.33-.15,2.67-.23,4,50,28.58,73,67.1,61.83,117.16q-2.1,9.27-4.47,18.49c-17.34,67.14-80.23,123.85-197.2,177.28-56.38,14.89-91.69,23.3-103.43,24.64-58.87,6.64-70.7-12.9-46.8-64.5l2.34-3.71c3.83-6.29,22-24.11,49.88-53.74,54.36-91.87,78-174.77,90.38-242.14,12-67.71,12.69-119.88,13.54-158.09C420.16,170,437.17,142.57,484.34,147.47ZM442.11,505.91a620.28,620.28,0,0,1-81.66,164.57l4,3.42c68.21-6.33,130.13-39.63,168.23-101.58q1.66-5.72,3.23-11.47C544.28,529.44,511.61,511.25,442.11,505.91Zm28.28-125.52,5.26.13c50.9-57.63,69.29-101.43,62.06-137.29-7.14-5.23-13.27-8.06-18.26-8.48l-5.39-.45C487.19,232.37,485.71,276.6,470.39,380.39Z"/><path d="M798.05,177.37c51.31,6.71,93.91,53.84,103.52,161.15a703.59,703.59,0,0,1-9.22,155c2.52,16.36,3.42,26.09,3.13,29.47-13.5,22.19-29.39,73.44-64,145.79-18.52,27.32-40,41.57-61,44.07-21-4.15-27.4-14.9-20.81-32.61a714.84,714.84,0,0,0,46.81-92.67c-2,.14-2.72-.94-2.24-3.23q-66,11.07-133.28,22.9c-36.19,78.23-74.29,114.26-89.82,116.35l-17.8,5.13c-20.73,2.25-22.42-11.54-9.08-43.82,2.91-6.59,23.06-34.78,49.22-87.09-.33-17-.6-26.78,0-28.89,3.62-13.58,17.22-31.68,39.17-53.62C688,387,703.92,299,724.46,246.15,743.3,192.87,766.79,174.7,798.05,177.37ZM706.93,512.82l2.83-.09c75.25-2.64,113.77-11.8,115-27.58,7.79-31.52,14-82.56,9.83-150-6.74-51.11-16.08-75.32-21.31-75.89C776.57,306.44,754.87,391.33,706.93,512.82Z"/><path d="M1216.85,242.46c15.21,1.69,24.6,11.45,28.32,30.07,0,1.65,0,3.3,0,5-18.33,36.78-36.64,94.05-56.43,173.94-19.18,110.7-39.44,164.1-54.06,165.33.07,2.75-7.91,6.17-24.13,10.34-33.24,3-60.25-35.84-83.81-134.33-2.16-1.35-12.49-36.8-36.82-109.35-5.34-.6-10.28,59.88-45.12,181.55-19.8,61.37-41.86,90.7-55.9,92.29l-18.47,1.84c-19.6-2-26.89-11.2-23-27.85q1.1-4.69,2.14-9.42c40.72-96,56.92-176.53,67.84-234.27,10.33-58.29,15.38-93.76,20.08-112,9.22-15.16,19.83-21.73,32-20.64l8.26.75c25.93,2.5,57.67,47.28,84.7,138.91,25.9,72.35,39.81,107.93,44,110.81,22.65-96.17,38.56-164.14,54.34-206.23,15.35-42.36,30.56-58.84,41.93-58.2Z"/><path d="M1371.47,250c39.1,4.56,57.78,26.81,62.78,70.5-6.29,32.09-17.61,48.69-38.72,47.69-21.51-5-32.54-14.84-32.55-29q0-7.38.16-14.7a15.75,15.75,0,0,1,3-9.35c-1.76-3.31-2.6-5.8-2.52-7.44l-2.58-.21c-30.91-2.39-69.23,32-103.29,118.92-7.7,38.36-10.38,65-8.86,79,4.21,39.35,24.85,60.54,61.6,64.84l14.55-1.13c31.23-2.5,54.78-24.22,71.67-64.75-.37-1.62-.73-3.23-1.08-4.85l-6-2.32-24.89.95c-20.76-1.92-32.45-11-34.69-27.13-.23-1.7-.47-3.41-.69-5.11-2.5-19.21,13.51-29.67,47.2-31.11,50.94,6,78.3,22.63,85.3,50.22q2.07,8.21,4.43,16.34c9,32.25-7.75,67.07-63.82,109.12-27.17,10.48-48.09,16.64-61.55,18.08l-12.41,1.33c-58.5,6.17-105.62-12.62-133.52-66.85-6.46-11.83-11.68-30.91-15.62-57.74-3.12-56.79,14.79-126.42,59.26-192.32C1276.09,261.85,1323.35,244.8,1371.47,250Z"/><path d="M1485,531c32,2.68,51.72,12,60.24,27.6q2.87,5.28,5.9,10.49c9,15.27-.49,26.12-31.19,33.74l-6.41.66c-28.1-.7-49.29-9.67-62-28q-.93-2.21-1.83-4.44C1441.54,550.45,1454.1,536.62,1485,531Zm70.89-266.63,5.9.68c20.24,4.58,27.6,12.76,23.59,25.19-.44,1.37-.86,2.75-1.27,4.13,1.23,3.44-48.11,49.9-68.37,163.54,3.14,29-4,43.79-26.25,44.86-19.7.91-34.37-9.43-41.69-31.72-1.78-9,.11-31.4,9.55-66.62,10-34.84,27.51-82.45,69.63-133C1538.86,265.84,1548.71,263.59,1555.9,264.41Z"/><path d="M506.92,162.49l3,.33c64.28,15.79,109,50,122.74,110.36,9.17,42.47-7.17,97.53-61.9,172.32-.07,1.36-.15,2.73-.23,4.09,51,29.16,74.42,68.44,63.06,119.51Q631.44,578.55,629,588c-17.69,68.48-81.84,126.32-201.15,180.82-57.5,15.19-93.52,23.77-105.5,25.14-60.05,6.76-72.11-13.17-47.74-65.79.81-1.26,1.6-2.52,2.39-3.79,3.91-6.42,22.45-24.6,50.88-54.81,55.45-93.71,79.61-178.27,92.19-247,12.26-69.06,12.94-122.27,13.81-161.25C441.46,185.43,458.81,157.49,506.92,162.49Zm-43.07,365.6A632.48,632.48,0,0,1,380.55,696l4.1,3.49C454.23,693,517.39,659,556.24,595.83q1.71-5.83,3.3-11.7C568.06,552.09,534.74,533.54,463.85,528.09Zm28.84-128,5.37.13c51.92-58.77,70.67-103.46,63.3-140-7.28-5.34-13.54-8.23-18.63-8.65l-5.49-.46C509.83,249.08,508.32,294.2,492.69,400.06Z"/><path d="M826.91,193c52.34,6.84,95.78,54.92,105.58,164.37a717.51,717.51,0,0,1-9.4,158.14c2.58,16.68,3.49,26.61,3.19,30-13.76,22.64-30,74.91-65.25,148.71-18.9,27.86-40.82,42.4-62.28,45-21.46-4.23-27.94-15.2-21.23-33.26a727.56,727.56,0,0,0,47.75-94.52q-3,.21-2.28-3.3-67.31,11.29-136,23.36c-36.91,79.8-75.77,116.54-91.61,118.67l-18.16,5.24c-21.15,2.29-22.86-11.77-9.26-44.7,3-6.72,23.52-35.48,50.2-88.83-.33-17.33-.61-27.32,0-29.47,3.7-13.85,17.57-32.31,39.95-54.69,56.52-130.86,72.74-220.61,93.69-274.57C771.07,208.79,795,190.26,826.91,193ZM734,535.14l2.89-.1c76.76-2.69,116-12,117.25-28.12,7.95-32.15,14.29-84.22,10-153-6.86-52.14-16.39-76.83-21.73-77.41C805,324.63,782.86,411.22,734,535.14Z"/><path d="M1254.08,259.38c15.51,1.71,25.1,11.67,28.89,30.67,0,1.68,0,3.36,0,5.05-18.69,37.52-37.37,95.94-57.56,177.43-19.56,112.9-40.23,167.38-55.14,168.63.07,2.81-8.07,6.29-24.61,10.54-33.91,3-61.46-36.56-85.49-137-2.2-1.37-12.74-37.54-37.56-111.54-5.44-.61-10.49,61.08-46,185.18-20.2,62.6-42.7,92.52-57,94.14l-18.83,1.88c-20-2.08-27.43-11.43-23.43-28.41.75-3.19,1.47-6.4,2.18-9.61,41.54-97.88,58.06-180.06,69.2-239,10.54-59.46,15.7-95.63,20.49-114.25,9.4-15.46,20.23-22.16,32.62-21.05l8.44.77c26.44,2.55,58.82,48.23,86.39,141.69,26.41,73.79,40.61,110.08,44.9,113,23.1-98.1,39.33-167.43,55.42-210.36,15.66-43.21,31.18-60,42.77-59.37Z"/><path d="M1411.8,267c39.88,4.66,58.93,27.35,64,71.91-6.42,32.74-18,49.66-39.49,48.65-21.94-5.12-33.2-15.14-33.2-29.53q0-7.53.16-15a16,16,0,0,1,3.11-9.54c-1.79-3.38-2.65-5.92-2.58-7.6l-2.62-.21c-31.53-2.43-70.62,32.66-105.36,121.3-7.85,39.13-10.59,66.34-9,80.62,4.3,40.13,25.35,61.75,62.84,66.13l14.84-1.16c31.85-2.55,55.87-24.7,73.1-66q-.55-2.48-1.1-5-3.08-1.17-6.13-2.37l-25.38,1c-21.19-2-33.11-11.18-35.39-27.67-.24-1.74-.48-3.48-.71-5.22-2.55-19.59,13.78-30.26,48.15-31.73,52,6.1,79.86,23.08,87,51.23q2.12,8.35,4.52,16.66c9.19,32.89-7.9,68.41-65.09,111.3-27.72,10.69-49.06,17-62.79,18.45L1368,654.6c-59.68,6.29-107.73-12.87-136.19-68.19-6.59-12.06-11.91-31.52-15.93-58.89-3.19-57.92,15.08-128.95,60.44-196.16C1314.51,279.15,1362.72,261.75,1411.8,267Z"/><path d="M1527.61,553.73c32.62,2.72,52.75,12.18,61.44,28.15q2.91,5.39,6,10.7c9.23,15.57-.5,26.63-31.82,34.41l-6.54.68c-28.66-.73-50.27-9.87-63.25-28.56q-.95-2.26-1.86-4.53C1483.26,573.52,1496.08,559.41,1527.61,553.73Zm72.31-272,6,.69c20.64,4.67,28.15,13,24.06,25.7-.44,1.4-.87,2.8-1.29,4.21,1.25,3.51-49.08,50.9-69.74,166.81,3.2,29.58-4.1,44.67-26.77,45.76-20.1.93-35.06-9.62-42.53-32.36-1.82-9.14.11-32,9.74-67.95,10.18-35.53,28.06-84.1,71-135.61C1582.53,283.22,1592.58,280.93,1599.92,281.76Z"/><path d="M503.86,159.43l3,.33c64.28,15.79,109,50,122.74,110.36,9.17,42.47-7.17,97.53-61.9,172.32-.07,1.36-.15,2.73-.23,4.09,51,29.16,74.42,68.44,63.06,119.51q-2.14,9.45-4.55,18.86c-17.69,68.48-81.84,126.32-201.15,180.82-57.5,15.19-93.52,23.77-105.5,25.14-60.05,6.76-72.11-13.17-47.74-65.79.81-1.26,1.6-2.52,2.39-3.79,3.91-6.42,22.45-24.6,50.88-54.81,55.45-93.71,79.61-178.27,92.19-247,12.26-69.06,12.94-122.27,13.81-161.25C438.4,182.37,455.75,154.43,503.86,159.43ZM460.79,525a632.48,632.48,0,0,1-83.3,167.86l4.1,3.49c69.58-6.45,132.74-40.42,171.59-103.61q1.71-5.84,3.3-11.7C565,549,531.68,530.48,460.79,525Zm28.84-128,5.37.13c51.92-58.77,70.67-103.46,63.3-140-7.28-5.34-13.54-8.23-18.63-8.65l-5.49-.46C506.77,246,505.26,291.14,489.63,397Z"/><path d="M823.85,189.92c52.34,6.84,95.78,54.92,105.58,164.37A717.51,717.51,0,0,1,920,512.43c2.58,16.68,3.49,26.61,3.19,30.05-13.76,22.64-30,74.91-65.25,148.71-18.9,27.86-40.82,42.4-62.28,44.95-21.46-4.23-27.94-15.2-21.23-33.26a727.56,727.56,0,0,0,47.75-94.52q-3,.21-2.28-3.3-67.3,11.3-135.95,23.36c-36.91,79.8-75.77,116.54-91.61,118.67l-18.16,5.24c-21.15,2.29-22.86-11.77-9.26-44.7,3-6.72,23.52-35.48,50.2-88.83-.33-17.33-.61-27.32,0-29.47,3.7-13.85,17.57-32.31,40-54.69C711.61,403.78,727.83,314,748.78,260.07,768,205.73,792,187.2,823.85,189.92Zm-93,342.16,2.89-.1c76.76-2.69,116-12,117.25-28.12,8-32.15,14.29-84.22,10-153-6.86-52.14-16.39-76.83-21.73-77.41C801.94,321.57,779.8,408.16,730.9,532.08Z"/><path d="M1251,256.32c15.51,1.71,25.1,11.67,28.89,30.67,0,1.68,0,3.36,0,5.05-18.69,37.52-37.37,95.94-57.56,177.43-19.56,112.9-40.23,167.38-55.14,168.63.07,2.81-8.07,6.29-24.61,10.54-33.91,3-61.46-36.56-85.49-137-2.2-1.37-12.74-37.54-37.56-111.54-5.44-.61-10.49,61.08-46,185.18-20.2,62.6-42.7,92.52-57,94.14l-18.83,1.88c-20-2.08-27.43-11.43-23.43-28.41.75-3.19,1.47-6.4,2.18-9.61,41.54-97.88,58.06-180.06,69.2-239,10.54-59.46,15.7-95.63,20.49-114.25,9.4-15.46,20.23-22.16,32.62-21.05l8.44.77c26.44,2.55,58.82,48.23,86.39,141.69,26.41,73.79,40.61,110.08,44.9,113,23.1-98.1,39.33-167.43,55.42-210.36,15.66-43.21,31.18-60,42.77-59.37Z"/><path d="M1408.74,264c39.88,4.66,58.93,27.35,64,71.91-6.42,32.74-18,49.66-39.49,48.65-21.94-5.12-33.2-15.14-33.2-29.53q0-7.53.16-15a16,16,0,0,1,3.11-9.54c-1.79-3.38-2.65-5.92-2.58-7.6l-2.62-.21c-31.53-2.43-70.62,32.66-105.36,121.3-7.85,39.13-10.59,66.34-9,80.62,4.3,40.13,25.35,61.75,62.84,66.13l14.84-1.16c31.85-2.55,55.87-24.7,73.1-66q-.55-2.47-1.1-5-3.08-1.17-6.13-2.37l-25.38,1c-21.19-2-33.11-11.18-35.39-27.67-.24-1.74-.48-3.48-.71-5.22-2.55-19.59,13.78-30.26,48.15-31.73,52,6.1,79.86,23.08,87,51.23q2.12,8.36,4.52,16.66c9.19,32.89-7.9,68.41-65.09,111.3-27.72,10.69-49.06,17-62.79,18.45L1365,651.54c-59.68,6.29-107.73-12.87-136.19-68.19-6.59-12.06-11.91-31.52-15.93-58.89-3.19-57.92,15.08-129,60.44-196.16C1311.45,276.09,1359.66,258.69,1408.74,264Z"/><path d="M1524.55,550.67c32.62,2.72,52.75,12.18,61.44,28.15q2.91,5.38,6,10.7c9.23,15.57-.5,26.63-31.82,34.41l-6.54.68c-28.66-.73-50.27-9.87-63.25-28.56q-.95-2.26-1.86-4.53C1480.2,570.46,1493,556.35,1524.55,550.67Zm72.31-272,6,.69c20.64,4.67,28.15,13,24.06,25.7-.44,1.4-.87,2.8-1.29,4.21,1.25,3.51-49.08,50.9-69.74,166.81,3.2,29.58-4.1,44.67-26.77,45.76-20.1.93-35.06-9.62-42.53-32.36-1.82-9.14.11-32,9.74-67.95,10.18-35.53,28.06-84.1,71-135.61C1579.47,280.16,1589.52,277.87,1596.86,278.7Z"/><path d="M500.8,156.37l3,.33c64.28,15.79,109,50,122.74,110.36,9.17,42.47-7.17,97.53-61.9,172.32-.07,1.36-.15,2.73-.23,4.09,51,29.16,74.42,68.44,63.06,119.51q-2.15,9.45-4.55,18.86c-17.69,68.48-81.84,126.32-201.15,180.82-57.5,15.19-93.52,23.77-105.5,25.14-60,6.76-72.11-13.17-47.74-65.79.81-1.26,1.6-2.52,2.39-3.79,3.91-6.42,22.45-24.6,50.88-54.81,55.45-93.71,79.61-178.27,92.19-247,12.26-69.06,12.94-122.27,13.81-161.25C435.34,179.31,452.69,151.37,500.8,156.37ZM457.73,522a632.48,632.48,0,0,1-83.3,167.86l4.1,3.49c69.58-6.45,132.74-40.42,171.59-103.61q1.71-5.84,3.3-11.7C561.94,546,528.62,527.42,457.73,522Zm28.84-128,5.37.13c51.92-58.77,70.67-103.46,63.3-140-7.28-5.34-13.54-8.23-18.63-8.65l-5.49-.46C503.71,243,502.2,288.08,486.57,393.94Z"/><path d="M820.79,186.86c52.34,6.84,95.78,54.92,105.58,164.37A717.51,717.51,0,0,1,917,509.37c2.58,16.68,3.49,26.61,3.19,30-13.76,22.64-30,74.91-65.25,148.71-18.9,27.86-40.82,42.4-62.28,45-21.46-4.23-27.94-15.2-21.23-33.26a727.56,727.56,0,0,0,47.75-94.52q-3,.21-2.28-3.3-67.3,11.29-136,23.36C644,705.16,605.15,741.9,589.31,744l-18.16,5.24c-21.15,2.29-22.86-11.77-9.26-44.7,3-6.72,23.52-35.48,50.2-88.83-.33-17.33-.61-27.32,0-29.47,3.7-13.85,17.57-32.31,39.95-54.69C708.55,400.72,724.77,311,745.72,257,765,202.67,788.9,184.14,820.79,186.86ZM727.84,529l2.89-.1c76.76-2.69,116-12,117.25-28.12,7.95-32.15,14.29-84.22,10-153-6.86-52.14-16.39-76.83-21.73-77.41C798.88,318.51,776.74,405.1,727.84,529Z"/><path d="M1248,253.26c15.51,1.71,25.1,11.67,28.89,30.67,0,1.68,0,3.36,0,5.05-18.69,37.52-37.37,95.94-57.56,177.43-19.56,112.9-40.23,167.38-55.14,168.63.07,2.81-8.07,6.29-24.61,10.54-33.91,3-61.46-36.56-85.49-137-2.2-1.37-12.74-37.54-37.56-111.54-5.44-.61-10.49,61.08-46,185.18-20.2,62.6-42.7,92.52-57,94.14l-18.83,1.88c-20-2.08-27.43-11.43-23.43-28.41.75-3.19,1.47-6.4,2.18-9.61,41.54-97.88,58.06-180.06,69.2-239,10.54-59.46,15.7-95.63,20.49-114.25,9.4-15.46,20.23-22.16,32.62-21.05l8.44.77c26.44,2.55,58.82,48.23,86.39,141.69,26.41,73.79,40.61,110.08,44.9,113,23.1-98.1,39.33-167.43,55.42-210.36,15.66-43.21,31.18-60,42.77-59.37Z"/><path d="M1405.68,260.91c39.88,4.66,58.93,27.35,64,71.91-6.42,32.74-18,49.66-39.49,48.65-21.94-5.12-33.2-15.14-33.2-29.53q0-7.53.16-15a16,16,0,0,1,3.11-9.54c-1.79-3.38-2.65-5.92-2.58-7.6l-2.62-.21c-31.53-2.43-70.62,32.66-105.36,121.3-7.85,39.13-10.59,66.34-9,80.62,4.3,40.13,25.35,61.75,62.84,66.13l14.84-1.16c31.85-2.55,55.87-24.7,73.1-66q-.56-2.48-1.1-5-3.07-1.17-6.13-2.37l-25.38,1c-21.19-2-33.11-11.18-35.39-27.67-.24-1.74-.48-3.48-.71-5.22-2.55-19.59,13.78-30.26,48.15-31.73,51.95,6.1,79.86,23.08,87,51.23q2.11,8.36,4.52,16.66c9.19,32.89-7.9,68.41-65.09,111.3-27.72,10.69-49.06,17-62.79,18.45l-12.65,1.35c-59.68,6.29-107.73-12.87-136.19-68.19-6.59-12.06-11.91-31.52-15.93-58.89-3.19-57.92,15.08-128.95,60.44-196.16C1308.39,273,1356.6,255.63,1405.68,260.91Z"/><path d="M1521.49,547.61c32.62,2.72,52.75,12.18,61.44,28.15q2.91,5.38,6,10.7c9.23,15.57-.5,26.63-31.82,34.41l-6.54.68c-28.66-.73-50.27-9.87-63.25-28.56q-.94-2.26-1.86-4.53C1477.14,567.4,1490,553.29,1521.49,547.61Zm72.31-272,6,.69c20.64,4.67,28.15,13,24.06,25.7-.44,1.4-.87,2.8-1.29,4.21,1.25,3.51-49.08,50.9-69.74,166.81,3.2,29.58-4.1,44.67-26.77,45.76-20.1.93-35.06-9.62-42.53-32.36-1.82-9.14.11-32,9.74-67.95,10.18-35.53,28.06-84.1,71-135.61C1576.41,277.1,1586.46,274.81,1593.8,275.64Z"/><path d="M497.74,153.31l3,.33c64.28,15.79,109,50,122.74,110.36,9.17,42.47-7.17,97.53-61.9,172.32-.07,1.36-.15,2.73-.23,4.09,51,29.16,74.42,68.44,63.06,119.51q-2.14,9.45-4.55,18.86C602.17,647.26,538,705.1,418.71,759.6c-57.5,15.19-93.52,23.77-105.5,25.14-60,6.76-72.11-13.17-47.74-65.79.81-1.26,1.6-2.52,2.39-3.79,3.91-6.42,22.45-24.6,50.88-54.81,55.45-93.71,79.61-178.27,92.19-247,12.26-69.06,12.94-122.27,13.81-161.25C432.28,176.25,449.63,148.31,497.74,153.31Zm-43.07,365.6a632.48,632.48,0,0,1-83.3,167.86l4.1,3.49c69.58-6.45,132.74-40.42,171.59-103.61q1.71-5.83,3.3-11.7C558.88,542.91,525.56,524.36,454.67,518.91Zm28.84-128,5.37.13c51.92-58.77,70.67-103.46,63.3-140-7.28-5.34-13.54-8.23-18.63-8.65l-5.49-.46C500.65,239.9,499.14,285,483.51,390.88Z"/><path d="M817.73,183.8c52.34,6.84,95.78,54.92,105.58,164.37a717.51,717.51,0,0,1-9.4,158.14c2.58,16.68,3.49,26.61,3.19,30.05-13.76,22.64-30,74.91-65.25,148.71C833,712.93,811,727.47,789.57,730c-21.46-4.23-27.94-15.2-21.23-33.26a727.56,727.56,0,0,0,47.75-94.52q-3,.21-2.28-3.3-67.3,11.29-135.95,23.36C641,702.1,602.09,738.84,586.25,741l-18.16,5.24c-21.15,2.29-22.86-11.77-9.26-44.7,3-6.72,23.52-35.48,50.2-88.83-.33-17.33-.61-27.32,0-29.47,3.7-13.85,17.57-32.31,40-54.69C705.49,397.66,721.71,307.91,742.66,254,761.89,199.61,785.84,181.08,817.73,183.8ZM724.78,526l2.89-.1c76.76-2.69,116-12,117.25-28.12,8-32.15,14.29-84.22,10-153-6.86-52.14-16.39-76.83-21.73-77.41C795.82,315.45,773.68,402,724.78,526Z"/><path d="M1244.9,250.2c15.51,1.71,25.1,11.67,28.89,30.67,0,1.68,0,3.36,0,5.05-18.69,37.52-37.37,95.94-57.56,177.43C1196.71,576.25,1176,630.73,1161.13,632c.07,2.81-8.07,6.29-24.61,10.54-33.91,3-61.46-36.56-85.49-137-2.2-1.37-12.74-37.54-37.56-111.54-5.44-.61-10.49,61.08-46,185.18-20.2,62.6-42.7,92.52-57,94.14l-18.83,1.88c-20-2.08-27.43-11.43-23.43-28.41.75-3.19,1.47-6.4,2.18-9.61,41.54-97.88,58.06-180.06,69.2-239,10.54-59.46,15.7-95.63,20.49-114.25,9.4-15.46,20.23-22.16,32.62-21.05l8.44.77c26.44,2.55,58.82,48.23,86.39,141.69,26.41,73.79,40.61,110.08,44.9,113,23.1-98.1,39.33-167.43,55.42-210.36,15.66-43.21,31.18-60,42.77-59.37Z"/><path d="M1402.62,257.85c39.88,4.66,58.93,27.35,64,71.91-6.42,32.74-18,49.66-39.49,48.65-21.94-5.12-33.2-15.14-33.2-29.53q0-7.53.16-15a16,16,0,0,1,3.11-9.54c-1.79-3.38-2.65-5.92-2.58-7.6l-2.62-.21c-31.53-2.43-70.62,32.66-105.36,121.3-7.85,39.13-10.59,66.34-9,80.62,4.3,40.13,25.35,61.75,62.84,66.13l14.84-1.16c31.85-2.55,55.87-24.7,73.1-66q-.56-2.48-1.1-4.95-3.07-1.17-6.13-2.37l-25.38,1c-21.19-2-33.11-11.18-35.39-27.67-.24-1.74-.48-3.48-.71-5.22-2.55-19.59,13.78-30.26,48.15-31.73,52,6.1,79.86,23.08,87,51.23q2.12,8.35,4.52,16.66c9.19,32.89-7.9,68.41-65.09,111.3-27.72,10.69-49.06,17-62.79,18.45l-12.65,1.35c-59.68,6.29-107.73-12.87-136.19-68.19-6.59-12.06-11.91-31.52-15.93-58.89-3.19-57.92,15.08-129,60.44-196.16C1305.33,270,1353.54,252.57,1402.62,257.85Z"/><path d="M1518.43,544.55c32.62,2.72,52.75,12.18,61.44,28.15q2.91,5.38,6,10.7c9.23,15.57-.5,26.63-31.82,34.41l-6.54.68c-28.66-.73-50.27-9.87-63.25-28.56q-.94-2.26-1.86-4.53C1474.08,564.34,1486.9,550.23,1518.43,544.55Zm72.31-272,6,.69c20.64,4.67,28.15,13,24.06,25.7-.44,1.4-.87,2.8-1.29,4.21,1.25,3.51-49.08,50.9-69.74,166.81,3.2,29.58-4.1,44.67-26.77,45.76-20.1.93-35.06-9.62-42.53-32.36-1.82-9.14.11-32,9.74-67.95,10.18-35.53,28.06-84.1,71-135.61C1573.35,274,1583.4,271.75,1590.74,272.58Z"/><path d="M494.68,150.25l3,.33c64.28,15.79,109,50,122.74,110.36,9.17,42.47-7.17,97.53-61.9,172.32-.07,1.36-.15,2.73-.23,4.09,51,29.16,74.42,68.44,63.06,119.51q-2.15,9.45-4.55,18.86C599.11,644.2,535,702,415.65,756.54c-57.5,15.19-93.52,23.77-105.5,25.14-60,6.76-72.11-13.17-47.74-65.79.81-1.26,1.6-2.52,2.39-3.79,3.91-6.42,22.45-24.6,50.88-54.81,55.45-93.71,79.61-178.27,92.19-247,12.26-69.06,12.94-122.27,13.81-161.25C429.22,173.19,446.57,145.25,494.68,150.25Zm-43.07,365.6a632.48,632.48,0,0,1-83.3,167.86l4.1,3.49C442,680.75,505.15,646.78,544,583.59q1.71-5.83,3.3-11.7C555.82,539.85,522.5,521.3,451.61,515.85Zm28.84-128,5.37.13c51.92-58.77,70.67-103.46,63.3-140-7.28-5.34-13.54-8.23-18.63-8.65l-5.49-.46C497.59,236.84,496.08,282,480.45,387.82Z"/><path d="M814.67,180.74c52.34,6.84,95.78,54.92,105.58,164.37a717.51,717.51,0,0,1-9.4,158.14c2.58,16.68,3.49,26.61,3.19,30-13.76,22.64-30,74.91-65.25,148.71-18.9,27.86-40.82,42.4-62.28,45-21.46-4.23-27.94-15.2-21.23-33.26A727.56,727.56,0,0,0,813,599.18q-3,.21-2.28-3.3-67.31,11.29-136,23.36C637.89,699,599,735.78,583.19,737.91L565,743.15c-21.15,2.29-22.86-11.77-9.26-44.7,3-6.72,23.52-35.48,50.2-88.83-.33-17.33-.61-27.32,0-29.47,3.7-13.85,17.57-32.31,39.95-54.69,56.52-130.86,72.74-220.61,93.69-274.57C758.83,196.55,782.78,178,814.67,180.74ZM721.72,522.9l2.89-.1c76.76-2.69,116-12,117.25-28.12,7.95-32.15,14.29-84.22,10-153-6.86-52.14-16.39-76.83-21.73-77.41C792.76,312.39,770.62,399,721.72,522.9Z"/><path d="M1241.84,247.14c15.51,1.71,25.1,11.67,28.89,30.67,0,1.68,0,3.36,0,5.05-18.69,37.52-37.37,95.94-57.56,177.43-19.56,112.9-40.23,167.38-55.14,168.63.07,2.81-8.07,6.29-24.61,10.54-33.91,3-61.46-36.56-85.49-137-2.2-1.37-12.74-37.54-37.56-111.54-5.44-.61-10.49,61.08-46,185.18-20.2,62.6-42.7,92.52-57,94.14l-18.83,1.88c-20-2.08-27.43-11.43-23.43-28.41.75-3.19,1.47-6.4,2.18-9.61,41.54-97.88,58.06-180.06,69.2-239C947,335.67,952.19,299.5,957,280.88c9.4-15.46,20.23-22.16,32.62-21.05l8.44.77c26.44,2.55,58.82,48.23,86.39,141.69,26.41,73.79,40.61,110.08,44.9,113,23.1-98.1,39.33-167.43,55.42-210.36,15.66-43.21,31.18-60,42.77-59.37Z"/><path d="M1399.56,254.79c39.88,4.66,58.93,27.35,64,71.91-6.42,32.74-18,49.66-39.49,48.65-21.94-5.12-33.2-15.14-33.2-29.53q0-7.53.16-15a16,16,0,0,1,3.11-9.54c-1.79-3.38-2.65-5.92-2.58-7.6l-2.62-.21c-31.53-2.43-70.62,32.66-105.36,121.3-7.85,39.13-10.59,66.34-9,80.62,4.3,40.13,25.35,61.75,62.84,66.13l14.84-1.16c31.85-2.55,55.87-24.7,73.1-66q-.55-2.48-1.1-5-3.07-1.17-6.13-2.37l-25.38,1c-21.19-2-33.11-11.18-35.39-27.67-.24-1.74-.48-3.48-.71-5.22-2.55-19.59,13.78-30.26,48.15-31.73,52,6.1,79.86,23.08,87,51.23q2.12,8.36,4.52,16.66c9.19,32.89-7.9,68.41-65.09,111.3-27.72,10.69-49.06,17-62.79,18.45l-12.65,1.35c-59.68,6.29-107.73-12.87-136.19-68.19-6.59-12.06-11.91-31.52-15.93-58.89-3.19-57.92,15.08-128.95,60.44-196.16C1302.27,266.91,1350.48,249.51,1399.56,254.79Z"/><path d="M1515.37,541.49c32.62,2.72,52.75,12.18,61.44,28.15q2.91,5.39,6,10.7c9.23,15.57-.5,26.63-31.82,34.41l-6.54.68c-28.66-.73-50.27-9.87-63.25-28.56q-.95-2.26-1.86-4.53C1471,561.28,1483.84,547.17,1515.37,541.49Zm72.31-272,6,.69c20.64,4.67,28.15,13,24.06,25.7-.44,1.4-.87,2.8-1.29,4.21,1.25,3.51-49.08,50.9-69.74,166.81,3.2,29.58-4.1,44.67-26.77,45.76-20.1.93-35.06-9.62-42.53-32.36-1.82-9.14.11-32,9.74-67.95,10.18-35.53,28.06-84.1,71-135.61C1570.29,271,1580.34,268.69,1587.68,269.52Z"/><path d="M491.62,147.19l3,.33c64.28,15.79,109,50,122.74,110.36,9.17,42.47-7.17,97.53-61.9,172.32-.07,1.36-.15,2.73-.23,4.09,51,29.16,74.42,68.44,63.06,119.51q-2.14,9.45-4.55,18.86C596.05,641.14,531.9,699,412.59,753.48c-57.5,15.19-93.52,23.77-105.5,25.14-60,6.76-72.11-13.17-47.74-65.79.81-1.26,1.6-2.52,2.39-3.79,3.91-6.42,22.45-24.6,50.88-54.81,55.45-93.71,79.61-178.27,92.19-247C417.07,338.18,417.75,285,418.62,246,426.16,170.13,443.51,142.19,491.62,147.19Zm-43.07,365.6a632.48,632.48,0,0,1-83.3,167.86l4.1,3.49c69.58-6.45,132.74-40.42,171.59-103.61q1.71-5.84,3.3-11.7C552.76,536.79,519.44,518.24,448.55,512.79Zm28.84-128,5.37.13c51.92-58.77,70.67-103.46,63.3-140-7.28-5.34-13.54-8.23-18.63-8.65l-5.49-.46C494.53,233.78,493,278.9,477.39,384.76Z"/><path d="M811.61,177.68c52.34,6.84,95.78,54.92,105.58,164.37a717.51,717.51,0,0,1-9.4,158.14c2.58,16.68,3.49,26.61,3.19,30.05-13.76,22.64-30,74.91-65.25,148.71-18.9,27.86-40.82,42.4-62.28,44.95-21.46-4.23-27.94-15.2-21.23-33.26A727.56,727.56,0,0,0,810,596.12q-3,.21-2.28-3.3-67.31,11.29-136,23.36C634.83,696,596,732.72,580.13,734.85L562,740.09c-21.15,2.29-22.86-11.77-9.26-44.7,3-6.72,23.52-35.48,50.2-88.83-.33-17.33-.61-27.32,0-29.47,3.7-13.85,17.57-32.31,40-54.69,56.52-130.86,72.74-220.61,93.69-274.57C755.77,193.49,779.72,175,811.61,177.68Zm-93,342.16,2.89-.1c76.76-2.69,116-12,117.25-28.12,8-32.15,14.29-84.22,10-153-6.86-52.14-16.39-76.83-21.73-77.41C789.7,309.33,767.56,395.92,718.66,519.84Z"/><path d="M1238.78,244.08c15.51,1.71,25.1,11.67,28.89,30.67,0,1.68,0,3.36,0,5.05-18.69,37.52-37.37,95.94-57.56,177.43-19.56,112.9-40.23,167.38-55.14,168.63.07,2.81-8.07,6.29-24.61,10.54-33.91,3-61.46-36.56-85.49-137-2.2-1.37-12.74-37.54-37.56-111.54-5.44-.61-10.49,61.08-46,185.18-20.2,62.6-42.7,92.52-57,94.14l-18.83,1.88c-20-2.08-27.43-11.43-23.43-28.41.75-3.19,1.47-6.4,2.18-9.61,41.54-97.88,58.06-180.06,69.2-239,10.54-59.46,15.7-95.63,20.49-114.25,9.4-15.46,20.23-22.16,32.62-21.05l8.44.77c26.44,2.55,58.82,48.23,86.39,141.69,26.41,73.79,40.61,110.08,44.9,113,23.1-98.1,39.33-167.43,55.42-210.36,15.66-43.21,31.18-60,42.77-59.37Z"/><path d="M1396.5,251.73c39.88,4.66,58.93,27.35,64,71.91-6.42,32.74-18,49.66-39.49,48.65-21.94-5.12-33.2-15.14-33.2-29.53q0-7.53.16-15a16,16,0,0,1,3.11-9.54c-1.79-3.38-2.65-5.92-2.58-7.6l-2.62-.21c-31.53-2.43-70.62,32.66-105.36,121.3-7.85,39.13-10.59,66.34-9,80.62,4.3,40.13,25.35,61.75,62.84,66.13l14.84-1.16c31.85-2.55,55.87-24.7,73.1-66q-.55-2.47-1.1-4.95-3.07-1.17-6.13-2.37l-25.38,1c-21.19-2-33.11-11.18-35.39-27.67-.24-1.74-.48-3.48-.71-5.22-2.55-19.59,13.78-30.26,48.15-31.73,52,6.1,79.86,23.08,87,51.23q2.12,8.35,4.52,16.66c9.19,32.89-7.9,68.41-65.09,111.3-27.72,10.69-49.06,17-62.79,18.45l-12.65,1.35c-59.68,6.29-107.73-12.87-136.19-68.19-6.59-12.06-11.91-31.52-15.93-58.89-3.19-57.92,15.08-129,60.44-196.16C1299.21,263.85,1347.42,246.45,1396.5,251.73Z"/><path d="M1512.31,538.43c32.62,2.72,52.75,12.18,61.44,28.15q2.91,5.38,6,10.7c9.23,15.57-.5,26.63-31.82,34.41l-6.54.68c-28.66-.73-50.27-9.87-63.25-28.56q-.95-2.26-1.86-4.53C1468,558.22,1480.78,544.11,1512.31,538.43Zm72.31-272,6,.69c20.64,4.67,28.15,13,24.06,25.7-.44,1.4-.87,2.8-1.29,4.21,1.25,3.51-49.08,50.9-69.74,166.81,3.2,29.58-4.1,44.67-26.77,45.76-20.1.93-35.06-9.62-42.53-32.36-1.82-9.14.11-32,9.74-67.95,10.18-35.53,28.06-84.1,71-135.61C1567.23,267.92,1577.28,265.63,1584.62,266.46Z"/><path d="M488.56,144.13l3,.33c64.28,15.79,109,50,122.74,110.36,9.17,42.47-7.17,97.53-61.9,172.32-.07,1.36-.15,2.73-.23,4.09,51,29.16,74.42,68.44,63.06,119.51q-2.15,9.45-4.55,18.86C593,638.08,528.84,695.92,409.53,750.42,352,765.61,316,774.19,304,775.56c-60,6.76-72.11-13.17-47.74-65.79.81-1.26,1.6-2.52,2.39-3.79,3.91-6.42,22.45-24.6,50.88-54.81,55.45-93.71,79.61-178.27,92.19-247,12.26-69.06,12.94-122.27,13.81-161.25C423.1,167.07,440.45,139.13,488.56,144.13Zm-43.07,365.6a632.48,632.48,0,0,1-83.3,167.86l4.1,3.49c69.58-6.45,132.74-40.42,171.59-103.61q1.71-5.84,3.3-11.7C549.7,533.73,516.38,515.18,445.49,509.73Zm28.84-128,5.37.13c51.92-58.77,70.67-103.46,63.3-140-7.28-5.34-13.54-8.23-18.63-8.65l-5.49-.46C491.47,230.72,490,275.84,474.33,381.7Z"/><path d="M808.55,174.62c52.34,6.84,95.78,54.92,105.58,164.37a717.51,717.51,0,0,1-9.4,158.14c2.58,16.68,3.49,26.61,3.19,30-13.76,22.64-30,74.91-65.25,148.71-18.9,27.86-40.82,42.4-62.28,45-21.46-4.23-27.94-15.2-21.23-33.26a727.56,727.56,0,0,0,47.75-94.52q-3,.21-2.28-3.3-67.3,11.29-136,23.36c-36.91,79.8-75.77,116.54-91.61,118.67L558.91,737c-21.15,2.29-22.86-11.77-9.26-44.7,3-6.72,23.52-35.48,50.2-88.83-.33-17.33-.61-27.32,0-29.47,3.7-13.85,17.57-32.31,39.95-54.69,56.52-130.86,72.74-220.61,93.69-274.57C752.71,190.43,776.66,171.9,808.55,174.62ZM715.6,516.78l2.89-.1c76.76-2.69,116-12,117.25-28.12,8-32.15,14.29-84.22,10-153-6.86-52.14-16.39-76.83-21.73-77.41C786.64,306.27,764.5,392.86,715.6,516.78Z"/><path d="M1235.72,241c15.51,1.71,25.1,11.67,28.89,30.67,0,1.68,0,3.36,0,5.05-18.69,37.52-37.37,95.94-57.56,177.43-19.56,112.9-40.23,167.38-55.14,168.63.07,2.81-8.07,6.29-24.61,10.54-33.91,3-61.46-36.56-85.49-137-2.2-1.37-12.74-37.54-37.56-111.54-5.44-.61-10.49,61.08-46,185.18-20.2,62.6-42.7,92.52-57,94.14L882.42,666c-20-2.08-27.43-11.43-23.43-28.41.75-3.19,1.47-6.4,2.18-9.61,41.54-97.88,58.06-180.06,69.2-239,10.54-59.46,15.7-95.63,20.49-114.25,9.4-15.46,20.23-22.16,32.62-21l8.44.77c26.44,2.55,58.82,48.23,86.39,141.69,26.41,73.79,40.61,110.08,44.9,113,23.1-98.1,39.33-167.43,55.42-210.36,15.66-43.21,31.18-60,42.77-59.37Z"/><path d="M1393.44,248.67c39.88,4.66,58.93,27.35,64,71.91-6.42,32.74-18,49.66-39.49,48.65-21.94-5.12-33.2-15.14-33.2-29.53q0-7.53.16-15a16,16,0,0,1,3.11-9.54c-1.79-3.38-2.65-5.92-2.58-7.6l-2.62-.21c-31.53-2.43-70.62,32.66-105.36,121.3-7.85,39.13-10.59,66.34-9,80.62,4.3,40.13,25.35,61.75,62.84,66.13l14.84-1.16c31.85-2.55,55.87-24.7,73.1-66q-.56-2.47-1.1-4.95-3.08-1.17-6.13-2.37l-25.38,1c-21.19-2-33.11-11.18-35.39-27.67-.24-1.74-.48-3.48-.71-5.22-2.55-19.59,13.78-30.26,48.15-31.73,51.95,6.1,79.86,23.08,87,51.23q2.11,8.36,4.52,16.66c9.19,32.89-7.9,68.41-65.09,111.3-27.72,10.69-49.06,17-62.79,18.45l-12.65,1.35c-59.68,6.29-107.73-12.87-136.19-68.19-6.59-12.06-11.91-31.52-15.93-58.89-3.19-57.92,15.08-129,60.44-196.16C1296.15,260.79,1344.36,243.39,1393.44,248.67Z"/><path d="M1509.25,535.37c32.62,2.72,52.75,12.18,61.44,28.15q2.91,5.38,6,10.7c9.23,15.57-.5,26.63-31.82,34.41l-6.54.68c-28.66-.73-50.27-9.87-63.25-28.56q-.94-2.26-1.86-4.53C1464.9,555.16,1477.72,541.05,1509.25,535.37Zm72.31-272,6,.69c20.64,4.67,28.15,13,24.06,25.7-.44,1.4-.87,2.8-1.29,4.21,1.25,3.51-49.08,50.9-69.74,166.81,3.2,29.58-4.1,44.67-26.77,45.76-20.1.93-35.06-9.62-42.53-32.36-1.82-9.14.11-32,9.74-67.95,10.18-35.53,28.06-84.1,71-135.61C1564.17,264.86,1574.22,262.57,1581.56,263.4Z"/><path d="M485.5,141.07l3,.33c64.28,15.79,109,50,122.74,110.36,9.17,42.47-7.17,97.53-61.9,172.32-.07,1.36-.15,2.73-.23,4.09,51,29.16,74.42,68.44,63.06,119.51q-2.14,9.45-4.55,18.86C589.93,635,525.78,692.86,406.47,747.36,349,762.55,313,771.13,301,772.5c-60.05,6.76-72.11-13.17-47.74-65.79.81-1.26,1.6-2.52,2.39-3.79,3.91-6.42,22.45-24.6,50.88-54.81,55.45-93.71,79.61-178.27,92.19-247C411,332.06,411.63,278.85,412.5,239.87,420,164,437.39,136.07,485.5,141.07Zm-43.07,365.6a632.48,632.48,0,0,1-83.3,167.86l4.1,3.49C432.81,671.57,496,637.6,534.82,574.41q1.71-5.83,3.3-11.7C546.64,530.67,513.32,512.12,442.43,506.67Zm28.84-128,5.37.13c51.92-58.77,70.67-103.46,63.3-140-7.28-5.34-13.54-8.23-18.63-8.65l-5.49-.46C488.41,227.66,486.9,272.78,471.27,378.64Z"/><path d="M805.49,171.56c52.34,6.84,95.78,54.92,105.58,164.37a717.51,717.51,0,0,1-9.4,158.14c2.58,16.68,3.49,26.61,3.19,30.05-13.76,22.64-30,74.91-65.25,148.71-18.9,27.86-40.82,42.4-62.28,44.95-21.46-4.23-27.94-15.2-21.23-33.26A727.56,727.56,0,0,0,803.85,590q-3,.21-2.28-3.3-67.3,11.29-136,23.36C628.71,689.86,589.85,726.6,574,728.73L555.85,734c-21.15,2.29-22.86-11.77-9.26-44.7,3-6.72,23.52-35.48,50.2-88.83-.33-17.33-.61-27.32,0-29.47,3.7-13.85,17.57-32.31,40-54.69,56.52-130.86,72.74-220.61,93.69-274.57C749.65,187.37,773.6,168.84,805.49,171.56Zm-93,342.16,2.89-.1c76.76-2.69,116-12,117.25-28.12,8-32.15,14.29-84.22,10-153-6.86-52.14-16.39-76.83-21.73-77.41C783.58,303.21,761.44,389.8,712.54,513.72Z"/><path d="M1232.66,238c15.51,1.71,25.1,11.67,28.89,30.67,0,1.68,0,3.36,0,5.05-18.69,37.52-37.37,95.94-57.56,177.43-19.56,112.9-40.23,167.38-55.14,168.63.07,2.81-8.07,6.29-24.61,10.54-33.91,3-61.46-36.56-85.49-137-2.2-1.37-12.74-37.54-37.56-111.54-5.44-.61-10.49,61.08-46,185.18-20.2,62.6-42.7,92.52-57,94.14l-18.83,1.88c-20-2.08-27.43-11.43-23.43-28.41.75-3.19,1.47-6.4,2.18-9.61,41.54-97.88,58.06-180.06,69.2-239,10.54-59.46,15.7-95.63,20.49-114.25,9.4-15.46,20.23-22.16,32.62-21l8.44.77c26.44,2.55,58.82,48.23,86.39,141.69,26.41,73.79,40.61,110.08,44.9,113,23.1-98.1,39.33-167.43,55.42-210.36,15.66-43.21,31.18-60,42.77-59.37Z"/><path d="M1390.38,245.61c39.88,4.66,58.93,27.35,64,71.91-6.42,32.74-18,49.66-39.49,48.65-21.94-5.12-33.2-15.14-33.2-29.53q0-7.53.16-15a16,16,0,0,1,3.11-9.54c-1.79-3.38-2.65-5.92-2.58-7.6l-2.62-.21c-31.53-2.43-70.62,32.66-105.36,121.3-7.85,39.13-10.59,66.34-9,80.62,4.3,40.13,25.35,61.75,62.84,66.13l14.84-1.16c31.85-2.55,55.87-24.7,73.1-66q-.56-2.47-1.1-4.95-3.08-1.17-6.13-2.37l-25.38,1c-21.19-2-33.11-11.18-35.39-27.67-.24-1.74-.48-3.48-.71-5.22-2.55-19.59,13.78-30.26,48.15-31.73,52,6.1,79.86,23.08,87,51.23q2.12,8.35,4.52,16.66c9.19,32.89-7.9,68.41-65.09,111.3-27.72,10.69-49.06,17-62.79,18.45l-12.65,1.35c-59.68,6.29-107.73-12.87-136.19-68.19-6.59-12.06-11.91-31.52-15.93-58.89-3.19-57.92,15.08-129,60.44-196.16C1293.09,257.73,1341.3,240.33,1390.38,245.61Z"/><path d="M1506.19,532.31c32.62,2.72,52.75,12.18,61.44,28.15q2.91,5.38,6,10.7c9.23,15.57-.5,26.63-31.82,34.41l-6.54.68c-28.66-.73-50.27-9.87-63.25-28.56q-.94-2.27-1.86-4.53C1461.84,552.1,1474.66,538,1506.19,532.31Zm72.31-272,6,.69c20.64,4.67,28.15,13,24.06,25.7-.44,1.4-.87,2.8-1.29,4.21,1.25,3.51-49.08,50.9-69.74,166.81,3.2,29.58-4.1,44.67-26.77,45.76-20.1.93-35.06-9.62-42.53-32.36-1.82-9.14.11-32,9.74-67.95,10.18-35.53,28.06-84.1,71-135.61C1561.11,261.8,1571.16,259.51,1578.5,260.34Z"/><path d="M484.34,147.47l2.94.34c63,15.47,106.84,49,120.33,108.19,9,41.64-7,95.61-60.68,168.94-.07,1.33-.15,2.67-.23,4,50,28.58,73,67.1,61.83,117.16q-2.1,9.27-4.47,18.49c-17.34,67.14-80.23,123.85-197.2,177.28-56.38,14.89-91.69,23.3-103.43,24.64-58.87,6.64-70.7-12.9-46.8-64.5l2.34-3.71c3.83-6.29,22-24.11,49.88-53.74,54.36-91.87,78-174.77,90.38-242.14,12-67.71,12.69-119.88,13.54-158.09C420.16,170,437.17,142.57,484.34,147.47ZM442.11,505.91a620.28,620.28,0,0,1-81.66,164.57l4,3.42c68.21-6.33,130.13-39.63,168.23-101.58q1.66-5.72,3.23-11.47C544.28,529.44,511.61,511.25,442.11,505.91Zm28.28-125.52,5.26.13c50.9-57.63,69.29-101.43,62.06-137.29-7.14-5.23-13.27-8.06-18.26-8.48l-5.39-.45C487.19,232.37,485.71,276.6,470.39,380.39Z" fill="none" stroke="#000" stroke-width="8"/><path d="M798.05,177.37c51.31,6.71,93.91,53.84,103.52,161.15a703.59,703.59,0,0,1-9.22,155c2.52,16.36,3.42,26.09,3.13,29.47-13.5,22.19-29.39,73.44-64,145.79-18.52,27.32-40,41.57-61,44.07-21-4.15-27.4-14.9-20.81-32.61a714.84,714.84,0,0,0,46.81-92.67c-2,.14-2.72-.94-2.24-3.23q-66,11.07-133.28,22.9c-36.19,78.23-74.29,114.26-89.82,116.35l-17.8,5.13c-20.73,2.25-22.42-11.54-9.08-43.82,2.91-6.59,23.06-34.78,49.22-87.09-.33-17-.6-26.78,0-28.89,3.62-13.58,17.22-31.68,39.17-53.62C688,387,703.92,299,724.46,246.15,743.3,192.87,766.79,174.7,798.05,177.37ZM706.93,512.82l2.83-.09c75.25-2.64,113.77-11.8,115-27.58,7.79-31.52,14-82.56,9.83-150-6.74-51.11-16.08-75.32-21.31-75.89C776.57,306.44,754.87,391.33,706.93,512.82Z" fill="none" stroke="#000" stroke-width="8"/><path d="M1216.85,242.46c15.21,1.69,24.6,11.45,28.32,30.07,0,1.65,0,3.3,0,5-18.33,36.78-36.64,94.05-56.43,173.94-19.18,110.7-39.44,164.1-54.06,165.33.07,2.75-7.91,6.17-24.13,10.34-33.24,3-60.25-35.84-83.81-134.33-2.16-1.35-12.49-36.8-36.82-109.35-5.34-.6-10.28,59.88-45.12,181.55-19.8,61.37-41.86,90.7-55.9,92.29l-18.47,1.84c-19.6-2-26.89-11.2-23-27.85q1.1-4.69,2.14-9.42c40.72-96,56.92-176.53,67.84-234.27,10.33-58.29,15.38-93.76,20.08-112,9.22-15.16,19.83-21.73,32-20.64l8.26.75c25.93,2.5,57.67,47.28,84.7,138.91,25.9,72.35,39.81,107.93,44,110.81,22.65-96.17,38.56-164.14,54.34-206.23,15.35-42.36,30.56-58.84,41.93-58.2Z" fill="none" stroke="#000" stroke-width="8"/><path d="M1371.47,250c39.1,4.56,57.78,26.81,62.78,70.5-6.29,32.09-17.61,48.69-38.72,47.69-21.51-5-32.54-14.84-32.55-29q0-7.38.16-14.7a15.75,15.75,0,0,1,3-9.35c-1.76-3.31-2.6-5.8-2.52-7.44l-2.58-.21c-30.91-2.39-69.23,32-103.29,118.92-7.7,38.36-10.38,65-8.86,79,4.21,39.35,24.85,60.54,61.6,64.84l14.55-1.13c31.23-2.5,54.78-24.22,71.67-64.75-.37-1.62-.73-3.23-1.08-4.85l-6-2.32-24.89.95c-20.76-1.92-32.45-11-34.69-27.13-.23-1.7-.47-3.41-.69-5.11-2.5-19.21,13.51-29.67,47.2-31.11,50.94,6,78.3,22.63,85.3,50.22q2.07,8.21,4.43,16.34c9,32.25-7.75,67.07-63.82,109.12-27.17,10.48-48.09,16.64-61.55,18.08l-12.41,1.33c-58.5,6.17-105.62-12.62-133.52-66.85-6.46-11.83-11.68-30.91-15.62-57.74-3.12-56.79,14.79-126.42,59.26-192.32C1276.09,261.85,1323.35,244.8,1371.47,250Z" fill="none" stroke="#000" stroke-width="8"/><path d="M1485,531c32,2.68,51.72,12,60.24,27.6q2.87,5.28,5.9,10.49c9,15.27-.49,26.12-31.19,33.74l-6.41.66c-28.1-.7-49.29-9.67-62-28q-.93-2.21-1.83-4.44C1441.54,550.45,1454.1,536.62,1485,531Zm70.89-266.63,5.9.68c20.24,4.58,27.6,12.76,23.59,25.19-.44,1.37-.86,2.75-1.27,4.13,1.23,3.44-48.11,49.9-68.37,163.54,3.14,29-4,43.79-26.25,44.86-19.7.91-34.37-9.43-41.69-31.72-1.78-9,.11-31.4,9.55-66.62,10-34.84,27.51-82.45,69.63-133C1538.86,265.84,1548.71,263.59,1555.9,264.41Z" fill="none" stroke="#000" stroke-width="8"/><path d="M484.34,147.47l2.94.34c63,15.47,106.84,49,120.33,108.19,9,41.64-7,95.61-60.68,168.94-.07,1.33-.15,2.67-.23,4,50,28.58,73,67.1,61.83,117.16q-2.1,9.27-4.47,18.49c-17.34,67.14-80.23,123.85-197.2,177.28-56.38,14.89-91.69,23.3-103.43,24.64-58.87,6.64-70.7-12.9-46.8-64.5l2.34-3.71c3.83-6.29,22-24.11,49.88-53.74,54.36-91.87,78-174.77,90.38-242.14,12-67.71,12.69-119.88,13.54-158.09C420.16,170,437.17,142.57,484.34,147.47ZM442.11,505.91a620.28,620.28,0,0,1-81.66,164.57l4,3.42c68.21-6.33,130.13-39.63,168.23-101.58q1.66-5.72,3.23-11.47C544.28,529.44,511.61,511.25,442.11,505.91Zm28.28-125.52,5.26.13c50.9-57.63,69.29-101.43,62.06-137.29-7.14-5.23-13.27-8.06-18.26-8.48l-5.39-.45C487.19,232.37,485.71,276.6,470.39,380.39Z" fill="#ed1c24"/><path d="M798.05,177.37c51.31,6.71,93.91,53.84,103.52,161.15a703.59,703.59,0,0,1-9.22,155c2.52,16.36,3.42,26.09,3.13,29.47-13.5,22.19-29.39,73.44-64,145.79-18.52,27.32-40,41.57-61,44.07-21-4.15-27.4-14.9-20.81-32.61a714.84,714.84,0,0,0,46.81-92.67c-2,.14-2.72-.94-2.24-3.23q-66,11.07-133.28,22.9c-36.19,78.23-74.29,114.26-89.82,116.35l-17.8,5.13c-20.73,2.25-22.42-11.54-9.08-43.82,2.91-6.59,23.06-34.78,49.22-87.09-.33-17-.6-26.78,0-28.89,3.62-13.58,17.22-31.68,39.17-53.62C688,387,703.92,299,724.46,246.15,743.3,192.87,766.79,174.7,798.05,177.37ZM706.93,512.82l2.83-.09c75.25-2.64,113.77-11.8,115-27.58,7.79-31.52,14-82.56,9.83-150-6.74-51.11-16.08-75.32-21.31-75.89C776.57,306.44,754.87,391.33,706.93,512.82Z" fill="#ed1c24"/><path d="M1216.85,242.46c15.21,1.69,24.6,11.45,28.32,30.07,0,1.65,0,3.3,0,5-18.33,36.78-36.64,94.05-56.43,173.94-19.18,110.7-39.44,164.1-54.06,165.33.07,2.75-7.91,6.17-24.13,10.34-33.24,3-60.25-35.84-83.81-134.33-2.16-1.35-12.49-36.8-36.82-109.35-5.34-.6-10.28,59.88-45.12,181.55-19.8,61.37-41.86,90.7-55.9,92.29l-18.47,1.84c-19.6-2-26.89-11.2-23-27.85q1.1-4.69,2.14-9.42c40.72-96,56.92-176.53,67.84-234.27,10.33-58.29,15.38-93.76,20.08-112,9.22-15.16,19.83-21.73,32-20.64l8.26.75c25.93,2.5,57.67,47.28,84.7,138.91,25.9,72.35,39.81,107.93,44,110.81,22.65-96.17,38.56-164.14,54.34-206.23,15.35-42.36,30.56-58.84,41.93-58.2Z" fill="#ed1c24"/><path d="M1371.47,250c39.1,4.56,57.78,26.81,62.78,70.5-6.29,32.09-17.61,48.69-38.72,47.69-21.51-5-32.54-14.84-32.55-29q0-7.38.16-14.7a15.75,15.75,0,0,1,3-9.35c-1.76-3.31-2.6-5.8-2.52-7.44l-2.58-.21c-30.91-2.39-69.23,32-103.29,118.92-7.7,38.36-10.38,65-8.86,79,4.21,39.35,24.85,60.54,61.6,64.84l14.55-1.13c31.23-2.5,54.78-24.22,71.67-64.75-.37-1.62-.73-3.23-1.08-4.85l-6-2.32-24.89.95c-20.76-1.92-32.45-11-34.69-27.13-.23-1.7-.47-3.41-.69-5.11-2.5-19.21,13.51-29.67,47.2-31.11,50.94,6,78.3,22.63,85.3,50.22q2.07,8.21,4.43,16.34c9,32.25-7.75,67.07-63.82,109.12-27.17,10.48-48.09,16.64-61.55,18.08l-12.41,1.33c-58.5,6.17-105.62-12.62-133.52-66.85-6.46-11.83-11.68-30.91-15.62-57.74-3.12-56.79,14.79-126.42,59.26-192.32C1276.09,261.85,1323.35,244.8,1371.47,250Z" fill="#ed1c24"/><path d="M1485,531c32,2.68,51.72,12,60.24,27.6q2.87,5.28,5.9,10.49c9,15.27-.49,26.12-31.19,33.74l-6.41.66c-28.1-.7-49.29-9.67-62-28q-.93-2.21-1.83-4.44C1441.54,550.45,1454.1,536.62,1485,531Zm70.89-266.63,5.9.68c20.24,4.58,27.6,12.76,23.59,25.19-.44,1.37-.86,2.75-1.27,4.13,1.23,3.44-48.11,49.9-68.37,163.54,3.14,29-4,43.79-26.25,44.86-19.7.91-34.37-9.43-41.69-31.72-1.78-9,.11-31.4,9.55-66.62,10-34.84,27.51-82.45,69.63-133C1538.86,265.84,1548.71,263.59,1555.9,264.41Z" fill="#ed1c24"/></svg>