<svg xmlns="http://www.w3.org/2000/svg" xmlns:xlink="http://www.w3.org/1999/xlink" viewBox="0 0 979.05 979.61"><defs><style>.cls-1{fill:#fff;}.cls-2{fill:#e6e7e8;}.cls-3{opacity:0.25;}</style><symbol id="poff" data-name="poff" viewBox="0 0 449.94 499.36"><path class="cls-1" d="M275.69,50.2c-22.49-17.68-50.47-15.88-32.5-16.88,6.81-.35,9.58.64,9.39.3a56.15,56.15,0,0,0-8.46-9.69c-14.73-13.42-38-20.19-55.82-8.8-2.14,1.37-1.2,1.41-3.76,0-15.61-8.59-32.5-8.62-45.19,0-2.6,1.78-6.34,5.69-10,10.46,6.61-.06,11.89.4,18,.9.25,2.31-44.09-8.91-62.27,32.23C80.69,68.71,80.19,79,80.34,79a112.11,112.11,0,0,1,19.6,3.38c0,1.25-20.55-5.08-39.06,1.74C42.08,90.79,30.59,107,32.46,132l-1.81,1.18c-23.51,13.71-31,50.51-11.07,80.66,11.73,17.67,30.36,26.5,30.29,26.49a65.33,65.33,0,0,1-6.39-15.86C47.55,234.71,52,243.32,61,251.11c12.63,10.87,31.42,15.56,45.92,8.75,64.46,47.36,148.88,117.33,247.69,239.5,1.91-4.93,3.73-9.17,5.56-12.94a9.14,9.14,0,0,0,.46-7c-5.23-15.15-14-22.05-22-33.88,10.84,10.71,20.29,15.34,26.48,20.25a9.15,9.15,0,0,0,10.53.53,10.86,10.86,0,0,1,1.28-.7,9.11,9.11,0,0,0,4.17-11.31c-3.31-8.85-7.84-19.2-13.17-30,10.75,16.75,19.27,28.41,25.83,36.43a9.48,9.48,0,0,0,5.77,3.28c1.78.23,6.3,4.68,8.15,4.93,15.46,2,13.72,2,7-16.37-3.35-9.09-7.67-20.43-12.8-33.29a420.72,420.72,0,0,0,34.73,37.45,9.14,9.14,0,0,0,10.32,1.6c1-.49,2-1,3-1.56-25.18-26.52-148-257.58-174.26-327.55C301.13,121.63,316,80.76,275.69,50.2Z"/><path d="M288.3,245.29c39.51,63.63,123.37,215.57,122.43,216.15-1.44.83-49.13-84.78-130.85-210.74-15.71-24.4-12-20.61-9-22.58C274.12,225.89,272.8,220.44,288.3,245.29ZM305,106.81c-3.64,13.83-12.11,20.25-17.12,23,.9,1.54,1.82,5.28,4.27,13.46,28.19,98.75,151.6,302.77,150,303.74-1.19.7-65.8-101.38-113.82-191.59-17.79-24.13-40.37-53.61-49.24-84-6.95,15.12-19.81,26.15-36.49,29.91-2.8,14.56-9.94,26.35-19.87,34.31,21.51,22.1,93.78,121.5,127.36,183.09.58,1,10.46,20.17,9.41,19.79-1.3-.33-10.54-20.1-49.75-76C265,299,229.48,254.4,219.38,238.05A54.07,54.07,0,0,1,194.7,247c8.6,8.14,22.07,25.09,24.09,27.64,41.84,53.79,72.27,113.62,71.26,113.57-2.34-.16-25.66-42.46-76.68-109.42-13.45-17.18-21.17-26.54-24.28-31.51a59.12,59.12,0,0,1-12.34-1.16c-2.31-.38-2.59-.66-3-.16-.74.85-1.85,3.85-11.75,11.57a43.77,43.77,0,0,1-30.24,8.81c5.84,4.54,13.91,11.27,25,20.91C215.89,338.66,268,394.67,302.37,434.6c-5.59-7-12.62-15.66-21.34-26.41C175.23,278.34,158.55,269.53,162.32,266c.9-.9,0-3,4.72,1.72,26.09,26.17,119.16,143,149,183,19.14,22.89,29.92,37.6,29.31,38.07-1.49,1.14-74.44-94.27-190.92-188.68-26.69-21.61-37.36-30-41-33.88C98,273,74.76,268.41,59.43,253c-.21-.18-.35-.36-.56-.54-13.09-3.23-32.28-15.59-43.54-30.84-22.54-31.59-20.72-76.23,8.76-95.27C25.24,91.55,50.36,82.3,63.67,79.74A48.64,48.64,0,0,1,72,78.8c2.55-27.56,21.38-46.29,41.56-51.48,1.3-.3,2.59-.6,4-.81.08-.07,8.56-13.64,16.5-19C148.3-2.11,167.22-2.52,184.9,6.43,209.56-7.68,243.4,5.06,261,32.69c1,1.46,2.07,3.34,2.13,3.5C294.93,46.77,312.22,80,305,106.81Zm-21.66,52c-.39,1.76-.85,3.43-1.39,5.16a17.56,17.56,0,0,1,1.52,3.35c13.11,37.5,22.42,51.54,35.37,70.07C303.38,207.36,290.46,179.71,283.32,158.8Zm-33-121.63a125.13,125.13,0,0,0-12.77-3.26,52,52,0,0,1,15.12-.2c-14.2-21-43.83-31.66-64.35-18.58-2.14,1.37-1.2,1.41-3.76,0-15.61-8.59-32.5-8.62-45.12,0-2.59,1.78-6.33,5.69-10,10.46,6.85,0,12.28.45,18,.9.07.64-17.67-1.32-31.73,3.42-.25.05-.42.18-.66.23C97.32,36.33,81.51,54.83,80.34,79a112.47,112.47,0,0,1,19.6,3.38c0,1.18-17.37-4.19-34.95.4-.81.21-1.72.48-2.53.69-19.56,6.44-31.84,22.66-30,48.37l-1.81,1.17C-2.62,152.38-1.37,214.17,50,240.22a67.49,67.49,0,0,1-6.74-17.32c4,12.31,10.42,21.58,18,28.08,17.85,15.41,41.92,15.22,54.24,2.94,8.2,2.73,25.54,11.24,44-.3a64,64,0,0,0,12.32-9.93c7.12-7.54,11.49-16.79,7.74-26.4,3.2,6.63,1.82,14.7-.75,20.49,26.73,4.09,51.35-10.88,56.47-44.23,31.26-5.77,44.33-32.1,40.95-60-9.18,1.06-17.77-2.35-20.9-3-1.54-.28-1.13.17-1.36-.41.91-.35,1.84-.23,5.17.13,8.76.93,16.17-.45,22.08-3.52C311.11,111.56,304.81,54.06,250.3,37.17Zm-57.19-1.36c-17.88,2.66-36.52,14-45,30.34-3.37,6.47-5,13.88-3.79,20.33,5.1-27.85,35-45.43,62.29-48.42,1.44-.2,3.11-.37,4.47-.51,2-.21,4-.34,6-.53A56.34,56.34,0,0,0,193.11,35.81Zm13,86.12c-12.35,1.28-24.69,6.64-32.58,16.36-9.8,11.67-10.62,28-4.06,41.35-3.28-18.59,1.15-34.82,17.56-45.38,13.38-8.44,29.63-10.07,45.1-9.35A61.79,61.79,0,0,0,206.07,121.93Zm-106.74,7.8C85.75,127.85,71.24,131.2,60.48,140,46.3,151.55,39.72,171,42,188.94c6.29-32.1,22.93-53.87,57.22-55.85,4.36-.29,8.67-.19,13-.17A57.51,57.51,0,0,0,99.33,129.73Z"/><path class="cls-2" d="M169.35,179.63c-3.27-18.59,1.16-34.82,17.57-45.38a50.16,50.16,0,0,1,6.84-3.65c-9.37,4.89-16.37,15-4.11,15C177.17,152.06,174,164.29,169.35,179.63Zm-30-164.46c-2.6,1.78-6.34,5.68-10,10.46,2.83,0,5.34,0,7.83.17,1.72-3.46,7.28-11.06,21.05-10.57-4.72-3.53,3.86-9.55,21-2.64C165.22,6.65,150.65,7.47,139.34,15.17ZM266.41,175.51c8.57-11.29,11.82-26.34,9.93-41.76a35.52,35.52,0,0,1-9-.17h0c1.39,11.42,2.89,17.91-5.56,28.89C268.44,158.41,271.93,165.31,266.41,175.51Zm-122-89.1c11-13,12.57-20.1,27.23-27.52-14.16,3.63.38-9.46,9.88-14.09C163.27,52.84,147.86,67.15,144.36,86.41Zm72.21-65.73c4.08.07,17.76,4.79,28.58,12.67a47.2,47.2,0,0,1,7.49.44c-8.75-12.87-23.2-21.86-37.87-23.88h0C221.29,11.72,229.21,19.6,216.57,20.68Zm0,0a2.47,2.47,0,0,0-.71.06A4.52,4.52,0,0,1,216.57,20.68ZM288.49,87.1c3.43,13.9-8.25,35-27.3,43.55,7.94.58,14.65-.82,20.22-3.69,20.17-10.46,23.78-40.16,7.07-63.51C302.11,84.58,293.87,97.56,288.49,87.1ZM8.71,168.89a20.41,20.41,0,0,0,0,2.21c.06-1.09.12-2.11.09-3.06ZM50,240.38a65.39,65.39,0,0,1-3.75-7.88c-7.19-6.85-36.88-36.64-37.54-61.32-.13,2.73-.23,5.86-.41,9C9.54,202.41,22.7,226.47,50,240.38Zm63.89-200.6c-12.47,2.83-6-7.71,7.24-11.3A42,42,0,0,0,115.69,30c-.25,0-.42.18-.66.22C97.31,36.4,81.5,54.9,80.33,79.11c3.27.28,6.67.73,10,1.32h0C89.2,67.32,97.81,46.22,113.91,39.78Zm85.65,88.6ZM177.37,305.5Zm35.94-89.24c-4.79,5.34-18.31,11.88-32,11.65a31.65,31.65,0,0,1-2.51,10c17,2.57,33.28-2.59,44.08-15.31C214,229.71,203.05,228.42,213.31,216.26Zm-24.07,31a59.18,59.18,0,0,1-12.34-1.16c-2.31-.38-2.59-.66-3-.16-.74.85-1.84,3.85-11.74,11.57-.88.67-1.74,1.27-2.61,1.86,7.35-3.82,27.3-13.84,52.74,17.83C199.6,261.05,192.22,252.06,189.24,247.26ZM62.53,83.59C43.71,89.82,31.64,105,32.39,129h0c6.5-18.79,8.07-27.7,20.87-33.55C43.79,95.1,57,83.56,71.36,81.62a53,53,0,0,0-6.22,1.22C64.17,83.1,63.35,83.31,62.53,83.59ZM299.87,198.8c-6.9-14.9-12.65-28.48-16.54-40.07-.39,1.75-.85,3.42-1.39,5.16a17.08,17.08,0,0,1,1.52,3.34c.58,1.57,1.09,3.06,1.6,4.54,3.57,9.82,14.81,27,14.81,27ZM115.48,254.08c8.21,2.74,25.55,11.24,44.06-.3a63.48,63.48,0,0,0,12.31-9.92C163.71,250.17,144.71,263.06,115.48,254.08Zm104-16A54.15,54.15,0,0,1,194.78,247c5.94,5.59,14.15,15.4,19.37,21.74-11.15-13.18-.13-37,14.8-16.82h0C224.76,246.15,221.52,241.48,219.46,238.06ZM156.9,287.31q9,7.79,17.72,15.78c-23.78-22.24-22.39-38.09-16.17-42.93a44.87,44.87,0,0,1-26.6,6.23C137.77,270.94,145.76,277.66,156.9,287.31ZM284.09,186.26a1.33,1.33,0,0,0,.15-.53,129.36,129.36,0,0,1-5.11-14.28c-6.95,15.12-19.81,26.15-36.5,29.91-2.79,14.56-9.93,26.35-19.86,34.31,17.91,18.4,71,90.27,107.61,149.43h0c-5.3-15.17-74.29-113.27-89.19-140.78,1.26-7.77,4.5-18,5.53-35.82C258.08,212.91,275.77,170.14,284.09,186.26ZM47.82,233.88a55.14,55.14,0,0,0,6.53,10C54.34,243.94,50.51,238.48,47.82,233.88Zm65.36,22.17c-32.09-4-30.67-1.62-43.47-8.82,9.67,8.28.65,10.46-8,4.21C78.51,265.61,100.52,266.17,113.18,256.05Zm-56.93-9.89ZM75.59,138.69A36,36,0,0,0,71.28,141h0A45.53,45.53,0,0,0,75.59,138.69Zm-7.37,17.1c-10.22,3-8.94-5-3-10.77C52.93,154.86,45.73,170.1,42.06,189,54.69,170.11,55.62,163.08,68.22,155.79Z"/></symbol></defs><g id="assets"><use width="449.94" height="499.36" transform="translate(108.75 269.09)" xlink:href="#poff"/></g></svg>