<svg xmlns="http://www.w3.org/2000/svg" viewBox="0 0 2000 1270.69"><defs><style>.cls-1{opacity:0.25;}.cls-2{fill:#fff;}.cls-3{fill:#e6e7e8;}</style></defs><g id="assets"><path d="M1089.11,856.58a168.43,168.43,0,0,1-19.08,1.08c-23,0-46-4.67-65.55-14a79.38,79.38,0,0,0,16.79-27.14c-25.86,26.62-61.11,48.1-103,55.72-32.6,6.16-66.88,3.66-98.45-5.27,16.22,9.62,35.85,15.6,56,18-24.26,25.51-63.13,42.19-103.6,45.09l-2,.13c-2,.12-4.07.2-6.11.26C720,932.13,674.9,917,646.57,890.53c17.24-5.26,33.12-13.14,46.17-23.58a257.64,257.64,0,0,1-43.47,13.79c-32.08,7-66.65,7.22-98.57-.28-41-9.42-76.65-32.1-98.62-61-3.23-4.24-6.24-8.62-9.08-13.12a93.35,93.35,0,0,0,5.42,14.51A102.07,102.07,0,0,0,458,836.93c-17.91,9.49-38.91,15.59-60.66,17.84-57.84,6.36-116.46-16.28-146.16-54.55a145.46,145.46,0,0,1,5.28-16.78,122.8,122.8,0,0,0-7.25,14.15q-2.09,4.8-3.73,9.67c-1-.27-1.95-.54-2.91-.84-42.82-12.88-75.41-52.13-82.13-96.2l-6.83,1c5.32,35.45,24.46,68.72,53.9,90.3a143.9,143.9,0,0,0,34.35,19l5.79.51q.38-4.27,1-8.55c20.21,19.13,46.5,34.05,76.49,42.44a222.81,222.81,0,0,0,141.33-7.6c25.2,27.54,65.51,46.42,108.68,50.2a190.46,190.46,0,0,0,55.28-3,196.41,196.41,0,0,0,60.26,31.8,210.26,210.26,0,0,0,79.81,10h.06l2-.13h0c46.5-3.34,91.22-21.11,121.59-50.2,29.8.29,59.84-7.08,83.7-21.22a125.75,125.75,0,0,0,16.58-11.71,213.73,213.73,0,0,0,56.8,11.2q9.5.64,18.93.34a192.28,192.28,0,0,0,19.71-1.59ZM770.19,930.13c-2,.12-4.07.2-6.11.26C720,932.13,674.9,917,646.57,890.53c17.24-5.26,33.12-13.14,46.17-23.58a257.64,257.64,0,0,1-43.47,13.79c-32.08,7-66.65,7.22-98.57-.28-41-9.42-76.65-32.1-98.62-61-3.23-4.24-6.24-8.62-9.08-13.12a93.35,93.35,0,0,0,5.42,14.51A102.07,102.07,0,0,0,458,836.93c-17.91,9.49-38.91,15.59-60.66,17.84-57.84,6.36-116.46-16.28-146.16-54.55a145.46,145.46,0,0,1,5.28-16.78,122.8,122.8,0,0,0-7.25,14.15q-2.09,4.8-3.73,9.67l3.21,5.26c20.21,19.13,46.5,34.05,76.49,42.44a222.81,222.81,0,0,0,141.33-7.6c25.2,27.54,65.51,46.42,108.68,50.2a190.46,190.46,0,0,0,55.28-3,196.41,196.41,0,0,0,60.26,31.8,210.26,210.26,0,0,0,79.81,10Zm531.73-368.65c-28-42.55-78.33-64-126.16-57a166,166,0,0,0-22.39-37c-28-35-71.48-55.2-116.27-55.61,0,0,0,.33.06.9a130.15,130.15,0,0,0-6.28-13c-43.73-78.46-151.9-91.55-212.79-26.65a126.68,126.68,0,0,0-97.52-40.69c-37.07.86-72.38,18.92-95.37,46.93a160.09,160.09,0,0,0-21-11.78,142.35,142.35,0,0,0-85.1-11.09h0c-2,.35-4,.76-6,1.21-30.48,6.84-58.74,23.71-80.35,49.13a128.16,128.16,0,0,0-26.15-18.42c-77.4-41.05-173.53,5.15-190.59,90.94-6.23,29.92-.85,61.61,13.86,88-35.57,17.84-63.19,50.66-73.19,89.26a131.69,131.69,0,0,0-3.68,50.1v0c.18,1.51.38,3,.61,4.53,5.32,35.45,24.46,68.72,53.9,90.3a143.9,143.9,0,0,0,34.35,19C226.25,894,282,971.42,362.63,975a126.53,126.53,0,0,0,43.43-5.79,141.07,141.07,0,0,0,16,22.7,137.81,137.81,0,0,0,78.73,45.3,135.68,135.68,0,0,0,88.86-14.07A137.42,137.42,0,0,0,611.83,1008a135.47,135.47,0,0,0,95.6,47c38.18,2,76.37-12.72,103.58-39.55a121.53,121.53,0,0,0,18.5-.77l7.79-1.17c1.92-.39,5.8-1.23,7.71-1.64l3.81-1.07c3.42-.87,8-2.49,11.27-3.7a147.38,147.38,0,0,0,14.38-6.64,120.74,120.74,0,0,0,47.79-46.71l.41.24c1,.54,4.79,2.54,5.73,3.06a140,140,0,0,0,100.73,11.06l2.78-.77h0c1-.3,2.08-.61,3.11-.94h0a140.29,140.29,0,0,0,94.32-101.64c21.63.16,43.5-5.8,62.38-16,36.55-19.62,62.32-59,67.24-100.27q3.43-2,6.75-4.16,2.05-1.37,4.07-2.82,3.36-2.41,6.53-5C1328.44,693.82,1339.22,617.35,1301.92,561.48ZM1109.73,888.29c-12.6,34.26-42,60.93-76.68,71.62-1,.31-2,.6-3,.88s-1.77.49-2.66.72a114.14,114.14,0,0,1-19,3.14c-28.28,2.6-57.89-5.71-80.2-23a101.43,101.43,0,0,0,8-39.23c-12.78,38.14-38.49,71.24-74.74,89.16-34.75,16.9-73.25,18-109.69,5.36a110.63,110.63,0,0,0,41.59,16.62c-.45.41-.87.83-1.33,1.25a117.6,117.6,0,0,1-10.08,8.28,121.09,121.09,0,0,1-22.72,13.05c-49.36,21.67-107.08,7.7-142-32.58-1.59-1.83-3.13-3.71-4.62-5.66l-2.73,2.45A123.67,123.67,0,0,1,531,1031.62c-46.78,1.53-91.78-25.26-112-67.37a112.07,112.07,0,0,0,35.7-25c-91.74,60.61-212.56-1.41-207.37-113.63.09-1.52.2-3,.34-4.56q.38-4.27,1-8.55c20.21,19.13,46.5,34.05,76.49,42.44a222.81,222.81,0,0,0,141.33-7.6c25.2,27.54,65.51,46.42,108.68,50.2a190.46,190.46,0,0,0,55.28-3,196.41,196.41,0,0,0,60.26,31.8,210.26,210.26,0,0,0,79.81,10h.06l2-.13h0c46.5-3.34,91.22-21.11,121.59-50.2,29.8.29,59.84-7.08,83.7-21.22a125.75,125.75,0,0,0,16.58-11.71,213.73,213.73,0,0,0,56.8,11.2q9.5.64,18.93.34a192.28,192.28,0,0,0,19.71-1.59c4.07-.53,8.12-1.2,12.11-2a102.73,102.73,0,0,0,13.86,2.78A111,111,0,0,1,1109.73,888.29Zm152.18-150.65q-2.19,1.74-4.46,3.37a130.93,130.93,0,0,1-63,24.19,123.45,123.45,0,0,0,50.8-9.86c-1.92,6.41-4.6,12.12-7.3,18.67A128.14,128.14,0,0,1,1196,828l-5.69,3.94c-1.66,1.17-4.18,2.51-5.91,3.62-2.84,1.79-6.21,3.3-9.19,4.88-1.85.89-4.47,1.91-6.38,2.78a122.88,122.88,0,0,1-35.06,8.88,155.59,155.59,0,0,1-16.14.91c-2.7,0-5.37,0-8-.13a228.43,228.43,0,0,1-35.1-4.43,80.45,80.45,0,0,0,13.13,7.45l1.51.67a168.43,168.43,0,0,1-19.08,1.08c-23,0-46-4.67-65.55-14a79.38,79.38,0,0,0,16.79-27.14c-25.86,26.62-61.11,48.1-103,55.72-32.6,6.16-66.88,3.66-98.45-5.27,16.22,9.62,35.85,15.6,56,18-24.26,25.51-63.13,42.19-103.6,45.09l-2,.13c-2,.12-4.07.2-6.11.26C720,932.13,674.9,917,646.57,890.53c17.24-5.26,33.12-13.14,46.17-23.58a257.64,257.64,0,0,1-43.47,13.79c-32.08,7-66.65,7.22-98.57-.28-41-9.42-76.65-32.1-98.62-61-3.23-4.24-6.24-8.62-9.08-13.12a93.35,93.35,0,0,0,5.42,14.51A102.07,102.07,0,0,0,458,836.93c-17.91,9.49-38.91,15.59-60.66,17.84-57.84,6.36-116.46-16.28-146.16-54.55a145.46,145.46,0,0,1,5.28-16.78,122.8,122.8,0,0,0-7.25,14.15q-2.09,4.8-3.73,9.67c-1-.27-1.95-.54-2.91-.84-42.82-12.88-75.41-52.13-82.13-96.2-.22-1.42-.41-2.85-.57-4.28-.35-3.12-.58-6.25-.67-9.41-2.67-50.89,29.85-100.74,78.09-117.47a117.24,117.24,0,0,0,33.17,31.46c-44.16-38.73-59-101.66-33.61-155,35.34-74,129.92-94.47,193.71-43.51a135.5,135.5,0,0,1,34.53,41.57,121.33,121.33,0,0,0-13.95-26,123.62,123.62,0,0,0-8.62-10.91c15.23-26.39,42.32-45.34,72.05-52.28,1.89-.44,3.79-.84,5.7-1.18a109.1,109.1,0,0,1,17.38-1.71c28.84-1.07,58.22,9.23,79.57,28.7a114.68,114.68,0,0,0-16.32,39.5,143,143,0,0,1,30-44.88,131.47,131.47,0,0,1,52.71-32.35c64-20.8,131.49,11.92,161.35,71.12a110.56,110.56,0,0,0-17.09-38.33A126.72,126.72,0,0,1,897,348.89c56.4-10.12,113.83,21.44,135.93,74.33A129.67,129.67,0,0,1,1043,464.75a132.55,132.55,0,0,1-4.06,43.2,124.61,124.61,0,0,0,8.31-43.33,129.44,129.44,0,0,0-5.57-39.28c26.08-3.68,53.55,3.39,75.4,18.16,22.15,14.74,39.21,37.85,45.27,63.73a121,121,0,0,0-36,16.2,139.42,139.42,0,0,1,49.77-11.77l2.24-.08c69.33-2.86,130.63,52.52,132.39,122.21C1312.28,675.45,1292.78,713.25,1261.91,737.64Zm-172.8,118.94a168.43,168.43,0,0,1-19.08,1.08c-23,0-46-4.67-65.55-14a79.38,79.38,0,0,0,16.79-27.14c-25.86,26.62-61.11,48.1-103,55.72-32.6,6.16-66.88,3.66-98.45-5.27,16.22,9.62,35.85,15.6,56,18-24.26,25.51-63.13,42.19-103.6,45.09l-2,.13c-2,.12-4.07.2-6.11.26C720,932.13,674.9,917,646.57,890.53c17.24-5.26,33.12-13.14,46.17-23.58a257.64,257.64,0,0,1-43.47,13.79c-32.08,7-66.65,7.22-98.57-.28-41-9.42-76.65-32.1-98.62-61-3.23-4.24-6.24-8.62-9.08-13.12a93.35,93.35,0,0,0,5.42,14.51A102.07,102.07,0,0,0,458,836.93c-17.91,9.49-38.91,15.59-60.66,17.84-57.84,6.36-116.46-16.28-146.16-54.55a145.46,145.46,0,0,1,5.28-16.78,122.8,122.8,0,0,0-7.25,14.15q-2.09,4.8-3.73,9.67l3.21,5.26c20.21,19.13,46.5,34.05,76.49,42.44a222.81,222.81,0,0,0,141.33-7.6c25.2,27.54,65.51,46.42,108.68,50.2a190.46,190.46,0,0,0,55.28-3,196.41,196.41,0,0,0,60.26,31.8,210.26,210.26,0,0,0,79.81,10h.06l2-.13h0c46.5-3.34,91.22-21.11,121.59-50.2,29.8.29,59.84-7.08,83.7-21.22a125.75,125.75,0,0,0,16.58-11.71,213.73,213.73,0,0,0,56.8,11.2q9.5.64,18.93.34a192.28,192.28,0,0,0,19.71-1.59Z"/><path class="cls-2" d="M994.14,866.44C981.23,875.88,972,890.91,886.36,904c-55.05,58.55-208.86,58.55-264.58,13.11-63.59,31.46-150.51-11.36-175-35.83C405.21,901.65,323.5,893.38,248,848c10.6,97.77,121.26,147.69,206.7,91.24a112.07,112.07,0,0,1-35.7,25c20.24,42.11,65.24,68.9,112,67.37a123.67,123.67,0,0,0,78.94-31.24l2.73-2.45c1.49,2,3,3.83,4.62,5.66,34.88,40.28,92.6,54.25,142,32.58A121.09,121.09,0,0,0,782,1023.12a117.6,117.6,0,0,0,10.08-8.28c.45-.42.88-.84,1.33-1.25A110.63,110.63,0,0,1,751.78,997c36.44,12.63,74.94,11.54,109.69-5.36,36.25-17.92,62-51,74.74-89.16a101.43,101.43,0,0,1-8,39.23c22.31,17.26,51.92,25.57,80.2,23a114.32,114.32,0,0,0,19-3.14c.89-.23,1.77-.47,2.66-.72s2-.57,3-.88c34.63-10.69,64.08-37.36,76.68-71.62a111,111,0,0,0,6.19-24.4l-1.1-.17C1092.8,872,1035.53,882.34,994.14,866.44Z"/><path class="cls-3" d="M1090,863.09a192.28,192.28,0,0,1-19.71,1.59q-9.42.3-18.93-.34a213.73,213.73,0,0,1-56.8-11.2,125.75,125.75,0,0,1-16.58,11.71c-23.86,14.14-53.9,21.51-83.7,21.22-30.37,29.09-75.09,46.86-121.59,50.2h0l-2,.13h-.06a210.26,210.26,0,0,1-79.81-10,196.41,196.41,0,0,1-60.26-31.8,190.46,190.46,0,0,1-55.28,3c-43.17-3.78-83.48-22.66-108.68-50.2A222.81,222.81,0,0,1,325.18,855c-30-8.39-56.28-23.31-76.49-42.44q-.66,4.28-1,8.55c-.14,1.52-.25,3-.34,4.56A145.06,145.06,0,0,0,248,848c75.52,45.36,157.23,53.63,198.82,33.28,24.47,24.47,111.39,67.29,175,35.83C677.5,962.57,831.31,962.57,886.36,904c85.64-13.11,94.87-28.14,107.78-37.58,41.39,15.9,98.66,5.56,120.68-2.72a101.28,101.28,0,0,1-12.76-2.61C1098.07,861.89,1094,862.56,1090,863.09Z"/><path class="cls-2" d="M1261.91,737.64q-2.19,1.74-4.46,3.37a130.93,130.93,0,0,1-63,24.19,123.45,123.45,0,0,0,50.8-9.86c-1.92,6.41-4.6,12.12-7.3,18.67A128.14,128.14,0,0,1,1196,828l-5.69,3.94c-1.66,1.17-4.18,2.51-5.91,3.62-2.84,1.79-6.21,3.3-9.19,4.88-1.85.89-4.47,1.91-6.38,2.78a122.88,122.88,0,0,1-35.06,8.88,155.59,155.59,0,0,1-16.14.91c-2.7,0-5.37,0-8-.13a228.43,228.43,0,0,1-35.1-4.43,80.45,80.45,0,0,0,13.13,7.45l1.51.67a168.43,168.43,0,0,1-19.08,1.08c-23,0-46-4.67-65.55-14a79.38,79.38,0,0,0,16.79-27.14c-25.86,26.62-61.11,48.1-103,55.72-32.6,6.16-66.88,3.66-98.45-5.27,16.22,9.62,35.85,15.6,56,18-24.26,25.51-63.13,42.19-103.6,45.09l-2,.13c-2,.12-4.07.2-6.11.26C720,932.13,674.9,917,646.57,890.53c17.24-5.26,33.12-13.14,46.17-23.58a257.64,257.64,0,0,1-43.47,13.79c-32.08,7-66.65,7.22-98.57-.28-41-9.42-76.65-32.1-98.62-61-3.23-4.24-6.24-8.62-9.08-13.12a93.35,93.35,0,0,0,5.42,14.51A102.07,102.07,0,0,0,458,836.93c-17.91,9.49-38.91,15.59-60.66,17.84-57.84,6.36-116.46-16.28-146.16-54.55a145.46,145.46,0,0,1,5.28-16.78,122.8,122.8,0,0,0-7.25,14.15q-2.09,4.8-3.73,9.67c-1-.27-1.95-.54-2.91-.84-42.82-12.88-75.41-52.13-82.13-96.2-.22-1.42-.41-2.85-.57-4.28-.35-3.12-.58-6.25-.67-9.41-2.67-50.89,29.85-100.74,78.09-117.47a117.24,117.24,0,0,0,33.17,31.46c-44.16-38.73-59-101.66-33.61-155,35.34-74,129.92-94.47,193.71-43.51a135.5,135.5,0,0,1,34.53,41.57,121.33,121.33,0,0,0-13.95-26,123.62,123.62,0,0,0-8.62-10.91c15.23-26.39,42.32-45.34,72.05-52.28,1.89-.44,3.79-.84,5.7-1.18a109.1,109.1,0,0,1,17.38-1.71c28.84-1.07,58.22,9.23,79.57,28.7a114.68,114.68,0,0,0-16.32,39.5,143,143,0,0,1,30-44.88,131.47,131.47,0,0,1,52.71-32.35c64-20.8,131.49,11.92,161.35,71.12a110.56,110.56,0,0,0-17.09-38.33A126.72,126.72,0,0,1,897,348.89c56.4-10.12,113.83,21.44,135.93,74.33A129.67,129.67,0,0,1,1043,464.75a132.55,132.55,0,0,1-4.06,43.2,124.61,124.61,0,0,0,8.31-43.33,129.44,129.44,0,0,0-5.57-39.28c26.08-3.68,53.55,3.39,75.4,18.16,22.15,14.74,39.21,37.85,45.27,63.73a121,121,0,0,0-36,16.2,139.42,139.42,0,0,1,49.77-11.77l2.24-.08c69.33-2.86,130.63,52.52,132.39,122.21C1312.28,675.45,1292.78,713.25,1261.91,737.64Z"/><path d="M795.8,565.91c12.22,46.39-6.36,96.58-46.07,123.45a108.58,108.58,0,0,1-66.47,18.72c73.87-6.78,122.9-79.07,97.28-149.4a108.09,108.09,0,0,0-32.08-45.26c-47-39.26-117.06-31.2-155.54,15.56l-.25.67-.22-.1c-.87,1.08-1.74,2.18-2.58,3.3a117.41,117.41,0,0,0-15,26.38,106,106,0,0,1,14.41-31.09c-26.23-11-57.59-9.18-82.91,3.88-24.9,12.54-44.58,36.18-51.27,63.2a82.45,82.45,0,0,1,27.62,9.65c-32.18-4.41-65.92-.23-93.82,17-21.85,13.29-38.7,33.43-49.7,56.54,2.76-19.09,12.21-37.11,25.35-51.18a104.89,104.89,0,0,1,61.7-32.37,99.11,99.11,0,0,1,17-.86,133,133,0,0,1,23.1-38.23C497.75,518.72,550.43,504.17,597,518l-.06.15c22.07-25.68,55.7-41.09,90.69-39.52A116.51,116.51,0,0,1,795.8,565.91Z"/><path class="cls-3" d="M465.36,603.36c-15.75-.07-55.91,6.24-118.92,61.71,10.64-17.44,24.94-32.49,42.45-43.14C411.81,607.73,438.67,602.38,465.36,603.36Z"/><path class="cls-3" d="M589.27,528.16c-1.12,1.65-2.2,3.35-3.24,5.07-97.1-20.6-118.95,45.73-117.94,65.18a85.12,85.12,0,0,0-13-3.17c6.7-27,26.38-50.67,51.28-63.21C531.68,519,563,517.19,589.27,528.16Z"/><path class="cls-3" d="M729.16,694.14c35-25.32,73-101.21,15.32-165.37-50.59-55.07-129.28-18.42-150.37-1.18,38.72-45.52,107.81-53,154.37-14.17a108,108,0,0,1,32.08,45.27C800.36,613.06,775.56,668.59,729.16,694.14Z"/><path d="M1058.56,594a104,104,0,0,0-80.18-52c-38.6-3.9-78.11,15.27-96.35,50,36.26-42.73,98-54,144.52-21.79a108,108,0,0,1,40.53,54.81,124.94,124.94,0,0,1,3.94,15.31,91,91,0,0,0-1.52-15.92,94.82,94.82,0,0,0-5.37-18.76c3-.11,5.95-.1,8.92.05a86.3,86.3,0,0,1,68.66,41.48c17.68,28.74,16,67.19-3.51,94.68a90.88,90.88,0,0,1-20.43,21.15,88.59,88.59,0,0,0,38-45.59C1179.36,653.07,1126.47,586.06,1058.56,594Z"/><path class="cls-3" d="M1064.19,617c-38.09-71.75-135.32-54.42-170.47-37,36.86-32.65,91-38.88,132.87-9.88A107.93,107.93,0,0,1,1064.19,617Z"/><path class="cls-3" d="M1141.51,736.74c6.43-68.72-30.78-110.7-73.4-119.06a95.59,95.59,0,0,0-3.94-12.14c3-.11,5.95-.11,8.92.05a86.27,86.27,0,0,1,68.66,41.48C1158.39,674.1,1157.84,709.73,1141.51,736.74Z"/></g></svg>