<svg xmlns="http://www.w3.org/2000/svg" xmlns:xlink="http://www.w3.org/1999/xlink" viewBox="0 0 1996.12 1284.48"><defs><style>.cls-1{fill:#fff200;}.cls-2{opacity:0.25;}</style><symbol id="Star_speed" data-name="Star speed" viewBox="0 0 1746.32 1443.89"><path d="M850.55,936,534.87,910.4C531.66,902.2,423,625.12,420.23,618c-6,14.71-109.66,269.15-119.28,292.74L7.11,930.67c-17.68,1.19-20.61-5.47,218.31,204.22-90.35,334.83-83.57,295.19-79.14,309l268.93-168.14c83.86,52.39,168.43,103.65,251.5,156.13-21.82-95.65-41.8-192.42-63.19-288.88C881,922.32,854.44,948.05,850.55,936Z"/><polygon class="cls-1" points="663.44 1422.64 412.49 1261.65 157.68 1416.45 233.24 1128.04 7.27 933.53 304.92 916.27 420.08 641.26 528.47 919.01 825.61 943.55 594.95 1132.47 663.44 1422.64"/><path d="M486,626.4a13.83,13.83,0,0,0-.3,20.42l.22.21a16.47,16.47,0,0,0,22.5.14c300.28-276.7,690-504.29,1149.44-638.35C1192.76,133.46,795.19,354,486,626.4Z"/><path d="M1746.32,0c-452.42,168.72-825,427.48-1099.89,728.43A11.48,11.48,0,0,0,647.54,745l3.82,3.1v0c6,5.24,12.72,6.17,19-1,.06-.06.11-.1.16-.16C937.2,442.31,1301.38,177.67,1746.32,0Z"/><path d="M1644.28,83.81a64.49,64.49,0,0,0-8.33,3.83c-18.67,9.89-36.46,20.68-54.19,31.45C1289.82,300.33,1051.46,524,866.25,766c-.68.89-1.37,1.78-2,2.68a14.84,14.84,0,0,1-24.26-16.33,30.16,30.16,0,0,1,2.56-3.91,0,0,0,0,1,0,0,5.12,5.12,0,0,1,.4-.52c99.27-123.36,213.24-241,341.42-350.21C1312.66,288.87,1454,187.22,1611.63,100c9.29-5,18.54-10,28.3-14.51l2.12-.91C1642.78,84.29,1643.54,84.07,1644.28,83.81Z"/></symbol></defs><g id="assets"><use width="1746.32" height="1443.89" transform="translate(202.9 127.22) scale(0.73)" xlink:href="#Star_speed"/></g></svg>